<?xml version="1.0"?>
<!DOCTYPE svg PUBLIC '-//W3C//DTD SVG 1.0//EN'
    'http://www.w3.org/TR/2001/REC-SVG-20010904/DTD/svg10.dtd' >

<svg fill-opacity="1" xmlns:xlink="http://www.w3.org/1999/xlink"
     color-rendering="auto" color-interpolation="auto" stroke="black"
     text-rendering="auto" stroke-linecap="square" stroke-miterlimit="10"
     stroke-opacity="1" shape-rendering="auto" fill="black"
     stroke-dasharray="none" font-weight="normal" stroke-width="1"
     xmlns="http://www.w3.org/2000/svg" font-family="&apos;Dialog&apos;"
     font-style="normal" stroke-linejoin="miter" font-size="12"
     stroke-dashoffset="0" image-rendering="auto">
    <!--Generated by the Batik Graphics2D SVG Generator-->
    <defs id="genericDefs"/>
    <g>
        <g fill="white" stroke="white">
            <rect x="0" width="168" height="393" y="0" stroke="none"/>
            <path fill="black"
                  d="M5 303.3868 L18 303.3868 L18 304.2372 L5 304.2372 Z"
                  stroke="none"/>
            <circle fill="black" r="1.2756" cx="17.4331" cy="303.3868"
                    stroke="none"/>
            <path fill="black"
                  d="M17.8583 302.5364 L22 302.5364 L22 303.3868 L17.8583 303.3868 Z"
                  stroke="none"/>
        </g>
        <g font-family="&apos;Arial&apos;" font-size="9">
            <text x="-7.3903" xml:space="preserve" y="297.3632" stroke="none">NT1.2</text><line stroke-linecap="butt"
                  fill="none" x1="22.194" x2="22.194" y1="235.0098"
                  stroke-linejoin="bevel" y2="370.9134" stroke-width="0.8504"/>
            <path d="M22.6192 235.0098 L26 235.0098 L26 235.8602 L22.6192 235.8602 Z"
                  stroke="none"/>
            <text x="-3.3098" xml:space="preserve" y="229.8366" stroke="none">NT1.3</text><line stroke-linecap="butt"
                  fill="none" x1="26.3407" x2="26.3407" y1="158.4212"
                  stroke-linejoin="bevel" y2="312.4488" stroke-width="0.8504"/>
            <path d="M26.7659 158.4212 L31 158.4212 L31 159.2717 L26.7659 159.2717 Z"
                  stroke="none"/>
            <text x="1.6312" xml:space="preserve" y="153.248" stroke="none">NT1.4</text><line stroke-linecap="butt"
                  fill="none" x1="31.2553" x2="31.2553" y1="101.126"
                  stroke-linejoin="bevel" y2="216.5669" stroke-width="0.8504"/>
            <path d="M31.6805 101.126 L33 101.126 L33 101.9764 L31.6805 101.9764 Z"
                  stroke="none"/>
            <text x="2.9342" xml:space="preserve" y="95.9527" stroke="none">NT1.5</text><line stroke-linecap="butt"
                  fill="none" x1="32.6375" x2="32.6375" y1="47.3386"
                  stroke-linejoin="bevel" y2="155.7638" stroke-width="0.8504"/>
            <path d="M33.0627 47.3386 L41 47.3386 L41 48.189 L33.0627 48.189 Z"
                  stroke="none"/>
            <text x="10.9599" xml:space="preserve" y="42.1654" stroke="none">NT1.9</text><line stroke-linecap="butt"
                  fill="none" x1="40.6236" x2="40.6236" y1="14.5984"
                  stroke-linejoin="bevel" y2="80.9291" stroke-width="0.8504"/>
            <path d="M41.0488 14.5984 L51.2562 14.5984 L51.2562 15.4488 L41.0488 15.4488 Z"
                  stroke="none"/>
            <text x="54.0908" xml:space="preserve" font-size="14" y="19.5197"
                  stroke="none">AY737778</text><path d="M41.0488 80.0787 L49 80.0787 L49 80.9291 L41.0488 80.9291 Z"
                  stroke="none"/>
            <text x="13.4122" xml:space="preserve" y="74.9055" stroke="none">NT1.12</text><line stroke-linecap="butt"
                  fill="none" x1="48.9169" x2="48.9169" y1="33.3071"
                  stroke-linejoin="bevel" y2="127.7008" stroke-width="0.8504"/>
            <path d="M49.3421 33.3071 L55.0957 33.3071 L55.0957 34.1575 L49.3421 34.1575 Z"
                  stroke="none"/>
            <text x="57.9303" xml:space="preserve" font-size="14" y="38.2283"
                  stroke="none">AY277619</text><path d="M49 52.0158 L58.9352 52.0158 L58.9352 52.8661 L49 52.8661 Z"
                  stroke="none"/>
            <text x="61.7698" xml:space="preserve" font-size="14" y="56.937"
                  stroke="none">AF503917</text><path d="M49 70.7244 L49.5668 70.7244 L49.5668 71.5748 L49 71.5748 Z"
                  stroke="none"/>
            <text x="52.4014" xml:space="preserve" font-size="14" y="75.6457"
                  stroke="none">X77447</text><path d="M49 98.7874 L56 98.7874 L56 99.6378 L49 99.6378 Z"
                  stroke="none"/>
            <text x="20.6304" xml:space="preserve" y="93.6142" stroke="none">NT1.22</text><line stroke-linecap="butt"
                  fill="none" x1="56.1352" x2="56.1352" y1="89.4331"
                  stroke-linejoin="bevel" y2="108.9921" stroke-width="0.8504"/>
            <path d="M56.5604 89.4331 L72.4502 89.4331 L72.4502 90.2835 L56.5604 90.2835 Z"
                  stroke="none"/>
            <text x="75.2849" xml:space="preserve" font-size="14" y="94.3543"
                  stroke="none">D45060</text><path d="M56.5604 108.1417 L81.9722 108.1417 L81.9722 108.9921 L56.5604 108.9921 Z"
                  stroke="none"/>
            <text x="84.8068" xml:space="preserve" font-size="14" y="113.063"
                  stroke="none">45051.0</text><path d="M49.3421 126.8504 L61.3924 126.8504 L61.3924 127.7008 L49.3421 127.7008 Z"
                  stroke="none"/>
            <text x="64.2271" xml:space="preserve" font-size="14" y="131.7717"
                  stroke="none">AY158025</text><path d="M33.0627 154.9134 L40 154.9134 L40 155.7638 L33.0627 155.7638 Z"
                  stroke="none"/>
            <text x="10.192" xml:space="preserve" y="149.7401" stroke="none">NT1.8</text><line stroke-linecap="butt"
                  fill="none" x1="39.8557" x2="39.8557" y1="145.559"
                  stroke-linejoin="bevel" y2="165.1181" stroke-width="0.8504"/>
            <path d="M40.2809 145.5591 L48.6453 145.5591 L48.6453 146.4095 L40.2809 146.4095 Z"
                  stroke="none"/>
            <text x="51.48" xml:space="preserve" font-size="14" y="150.4803"
                  stroke="none">AY507128</text><path d="M40.2809 164.2677 L49.7204 164.2677 L49.7204 165.1181 L40.2809 165.1181 Z"
                  stroke="none"/>
            <text x="52.555" xml:space="preserve" font-size="14" y="169.189"
                  stroke="none">AY618216</text><path d="M31.6805 215.7165 L52 215.7165 L52 216.5669 L31.6805 216.5669 Z"
                  stroke="none"/>
            <text x="16.7249" xml:space="preserve" y="210.5433" stroke="none">NT1.17</text><line stroke-linecap="butt"
                  fill="none" x1="52.2957" x2="52.2957" y1="192.3307"
                  stroke-linejoin="bevel" y2="239.9527" stroke-width="0.8504"/>
            <path d="M52.7209 192.3307 L59 192.3307 L59 193.1811 L52.7209 193.1811 Z"
                  stroke="none"/>
            <text x="22.8945" xml:space="preserve" y="187.1575" stroke="none">NT1.24</text><line stroke-linecap="butt"
                  fill="none" x1="58.4389" x2="58.4389" y1="182.9764"
                  stroke-linejoin="bevel" y2="202.5354" stroke-width="0.8504"/>
            <path d="M58.8641 182.9764 L72.911 182.9764 L72.911 183.8268 L58.8641 183.8268 Z"
                  stroke="none"/>
            <text x="75.7456" xml:space="preserve" font-size="14" y="187.8976"
                  stroke="none">AY618215</text><path d="M58.8641 201.685 L73.5253 201.685 L73.5253 202.5354 L58.8641 202.5354 Z"
                  stroke="none"/>
            <text x="76.3599" xml:space="preserve" font-size="14" y="206.6063"
                  stroke="none">AY618217</text><path d="M52.7209 239.1023 L55 239.1023 L55 239.9527 L52.7209 239.9527 Z"
                  stroke="none"/>
            <text x="19.8229" xml:space="preserve" y="233.9291" stroke="none">NT1.20</text><line stroke-linecap="butt"
                  fill="none" x1="55.3673" x2="55.3673" y1="220.3937"
                  stroke-linejoin="bevel" y2="258.6614" stroke-width="0.8504"/>
            <path d="M55.7925 220.3937 L63.8498 220.3937 L63.8498 221.2441 L55.7925 221.2441 Z"
                  stroke="none"/>
            <text x="66.6844" xml:space="preserve" font-size="14" y="225.3149"
                  stroke="none">DQ673873</text><path d="M55 239.1024 L57.8601 239.1024 L57.8601 239.9528 L55 239.9528 Z"
                  stroke="none"/>
            <text x="60.6948" xml:space="preserve" font-size="14" y="244.0236"
                  stroke="none">EF363711</text><path d="M55.7925 257.811 L65.232 257.811 L65.232 258.6614 L55.7925 258.6614 Z"
                  stroke="none"/>
            <text x="68.0666" xml:space="preserve" font-size="14" y="262.7323"
                  stroke="none">AY507129</text><path d="M26.7659 311.5984 L36 311.5984 L36 312.4489 L26.7659 312.4489 Z"
                  stroke="none"/>
            <text x="6.0586" xml:space="preserve" y="306.4252" stroke="none">NT1.6</text><line stroke-linecap="butt"
                  fill="none" x1="35.7091" x2="35.7091" y1="285.874"
                  stroke-linejoin="bevel" y2="338.1732" stroke-width="0.8504"/>
            <path d="M36.1343 285.874 L45 285.874 L45 286.7244 L36.1343 286.7244 Z"
                  stroke="none"/>
            <text x="9.3794" xml:space="preserve" y="280.7008" stroke="none">NT1.10</text><line stroke-linecap="butt"
                  fill="none" x1="44.9239" x2="44.9239" y1="276.5197"
                  stroke-linejoin="bevel" y2="296.0788" stroke-width="0.8504"/>
            <path d="M45.3491 276.5197 L62.0068 276.5197 L62.0068 277.3701 L45.3491 277.3701 Z"
                  stroke="none"/>
            <text x="64.8414" xml:space="preserve" font-size="14" y="281.441"
                  stroke="none">ABOZ3356</text><path d="M45.3491 295.2284 L77.0576 295.2284 L77.0576 296.0788 L45.3491 296.0788 Z"
                  stroke="none"/>
            <text x="79.8922" xml:space="preserve" font-size="14" y="300.1497"
                  stroke="none">A8023359</text><path d="M36.1343 337.3228 L37 337.3228 L37 338.1732 L36.1343 338.1732 Z"
                  stroke="none"/>
            <text x="6.8265" xml:space="preserve" y="332.1496" stroke="none">NT1.7</text><line stroke-linecap="butt"
                  fill="none" x1="36.477" x2="36.477" y1="323.2913"
                  stroke-linejoin="bevel" y2="352.2047" stroke-width="0.8504"/>
            <path d="M36.9022 323.2913 L48 323.2913 L48 324.1417 L36.9022 324.1417 Z"
                  stroke="none"/>
            <text x="13.6719" xml:space="preserve" y="318.1181" stroke="none">NT1.11</text><line stroke-linecap="butt"
                  fill="none" x1="47.8419" x2="47.8419" y1="313.937"
                  stroke-linejoin="bevel" y2="333.4961" stroke-width="0.8504"/>
            <path d="M48.2671 313.937 L64.0033 313.937 L64.0033 314.7874 L48.2671 314.7874 Z"
                  stroke="none"/>
            <text x="66.838" xml:space="preserve" font-size="14" y="318.8583"
                  stroke="none">X77449</text><path d="M48.2671 332.6457 L63.2354 332.6457 L63.2354 333.4961 L48.2671 333.4961 Z"
                  stroke="none"/>
            <text x="66.0701" xml:space="preserve" font-size="14" y="337.567"
                  stroke="none">AF389342</text><path d="M36.9022 351.3543 L54.4814 351.3543 L54.4814 352.2047 L36.9022 352.2047 Z"
                  stroke="none"/>
            <text x="57.316" xml:space="preserve" font-size="14" y="356.2756"
                  stroke="none">AY427830</text><path d="M22.6192 370.063 L53.7135 370.063 L53.7135 370.9135 L22.6192 370.9135 Z"
                  stroke="none"/>
            <text x="56.5481" xml:space="preserve" font-size="14" y="374.9843"
                  stroke="none">A8023357</text>
        </g>
    </g>
</svg>
