<?xml version="1.0"?>
<!DOCTYPE svg PUBLIC '-//W3C//DTD SVG 1.0//EN'
    'http://www.w3.org/TR/2001/REC-SVG-20010904/DTD/svg10.dtd' >

<svg fill-opacity="1" xmlns:xlink="http://www.w3.org/1999/xlink"
     color-rendering="auto" color-interpolation="auto" stroke="black"
     text-rendering="auto" stroke-linecap="square" stroke-miterlimit="10"
     stroke-opacity="1" shape-rendering="auto" fill="black"
     stroke-dasharray="none" font-weight="normal" stroke-width="1"
     xmlns="http://www.w3.org/2000/svg" font-family="&apos;Dialog&apos;"
     font-style="normal" stroke-linejoin="miter" font-size="12"
     stroke-dashoffset="0" image-rendering="auto">
    <!--Generated by the Batik Graphics2D SVG Generator-->
    <defs id="genericDefs"/>
    <g>
        <g fill="white" stroke="white">
            <rect x="0" width="190" height="261" y="0" stroke="none"/>
            <path fill="black"
                  d="M5 183.6939 L44 183.6939 L44 184.5443 L5 184.5443 Z"
                  stroke="none"/>
        </g>
        <g font-family="&apos;Arial&apos;" font-size="9">
            <text x="8.5039" xml:space="preserve" y="178.5207" stroke="none">NT1.25</text><line stroke-linecap="butt"
                  fill="none" x1="44.1276" x2="44.1276" y1="127.4351"
                  stroke-linejoin="bevel" y2="239.9528" stroke-width="0.8504"/>
            <path d="M44.5528 127.4351 L52 127.4351 L52 128.2854 L44.5528 128.2854 Z"
                  stroke="none"/>
            <text x="24.0012" xml:space="preserve" y="122.2618" stroke="none">NT1.1</text><line stroke-linecap="butt"
                  fill="none" x1="52.2508" x2="52.2508" y1="85.9252"
                  stroke-linejoin="bevel" y2="169.7953" stroke-width="0.8504"/>
            <path d="M52.676 85.9252 L60 85.9252 L60 86.7756 L52.676 86.7756 Z"
                  stroke="none"/>
            <text x="30.2094" xml:space="preserve" y="80.752" stroke="none">NT1.2</text><line stroke-linecap="butt"
                  fill="none" x1="59.7937" x2="59.7937" y1="54.3543"
                  stroke-linejoin="bevel" y2="118.3465" stroke-width="0.8504"/>
            <path d="M60.2189 54.3543 L81 54.3543 L81 55.2047 L60.2189 55.2047 Z"
                  stroke="none"/>
            <text x="51.2669" xml:space="preserve" y="49.1811" stroke="none">NT1.9</text><line stroke-linecap="butt"
                  fill="none" x1="80.9305" x2="80.9305" y1="28.6299"
                  stroke-linejoin="bevel" y2="80.9291" stroke-width="0.8504"/>
            <path d="M81.3557 28.6299 L83 28.6299 L83 29.4803 L81.3557 29.4803 Z"
                  stroke="none"/>
            <text x="49.2472" xml:space="preserve" y="23.4567" stroke="none">NT1.11</text><line stroke-linecap="butt"
                  fill="none" x1="83.4172" x2="83.4172" y1="14.5984"
                  stroke-linejoin="bevel" y2="43.5118" stroke-width="0.8504"/>
            <path d="M83.8424 14.5984 L101.5592 14.5984 L101.5592 15.4488 L83.8424 15.4488 Z"
                  stroke="none"/>
            <text x="104.3939" xml:space="preserve" font-size="14" y="19.5197"
                  stroke="none">DQO17835</text><path d="M83.8424 42.6614 L98 42.6614 L98 43.5118 L83.8424 43.5118 Z"
                  stroke="none"/>
            <text x="62.4217" xml:space="preserve" y="37.4882" stroke="none">NT1.19</text><line stroke-linecap="butt"
                  fill="none" x1="98.0057" x2="98.0057" y1="33.3071"
                  stroke-linejoin="bevel" y2="52.8661" stroke-width="0.8504"/>
            <path d="M98.4309 33.3071 L99.8186 33.3071 L99.8186 34.1575 L98.4309 34.1575 Z"
                  stroke="none"/>
            <text x="102.6532" xml:space="preserve" font-size="14" y="38.2283"
                  stroke="none"></text>
            <path d="M98.4309 52.0158 L98.4094 52.0158 L98.4094 52.8661 L98.4309 52.8661 Z"
                  stroke="none"/>
            <text x="101.2441" xml:space="preserve" font-size="14" y="56.937"
                  stroke="none"></text>
            <path d="M81.3557 80.0788 L94 80.0788 L94 80.9291 L81.3557 80.9291 Z"
                  stroke="none"/>
            <text x="58.7878" xml:space="preserve" y="74.9055" stroke="none">NT1.16</text><line stroke-linecap="butt"
                  fill="none" x1="94.3586" x2="94.3586" y1="70.7244"
                  stroke-linejoin="bevel" y2="90.2835" stroke-width="0.8504"/>
            <path d="M94.7838 70.7244 L96.503 70.7244 L96.503 71.5748 L94.7838 71.5748 Z"
                  stroke="none"/>
            <text x="99.3376" xml:space="preserve" font-size="14" y="75.6457"
                  stroke="none"></text>
            <path d="M94.7838 89.4331 L99.8186 89.4331 L99.8186 90.2835 L94.7838 90.2835 Z"
                  stroke="none"/>
            <text x="102.6532" xml:space="preserve" font-size="14" y="94.3543"
                  stroke="none">ABOO4876</text><path d="M60.2189 117.4961 L76 117.4961 L76 118.3464 L60.2189 118.3464 Z"
                  stroke="none"/>
            <text x="46.2503" xml:space="preserve" y="112.3228" stroke="none">NT1.4</text><line stroke-linecap="butt"
                  fill="none" x1="75.8743" x2="75.8743" y1="108.1417"
                  stroke-linejoin="bevel" y2="127.7008" stroke-width="0.8504"/>
            <path d="M76.2995 108.1417 L80.008 108.1417 L80.008 108.9921 L76.2995 108.9921 Z"
                  stroke="none"/>
            <text x="82.8427" xml:space="preserve" font-size="14" y="113.063"
                  stroke="none">AF435112</text><path d="M76.2995 126.8504 L80.008 126.8504 L80.008 127.7008 L76.2995 127.7008 Z"
                  stroke="none"/>
            <text x="82.8427" xml:space="preserve" font-size="14" y="131.7717"
                  stroke="none"></text>
            <path d="M52.676 168.9449 L74 168.9449 L74 169.7953 L52.676 169.7953 Z"
                  stroke="none"/>
            <text x="43.9029" xml:space="preserve" y="163.7717" stroke="none">NT1.3</text><line stroke-linecap="butt"
                  fill="none" x1="73.5534" x2="73.5534" y1="145.5591"
                  stroke-linejoin="bevel" y2="193.1811" stroke-width="0.8504"/>
            <path d="M73.9786 145.5591 L97.0832 145.5591 L97.0832 146.4095 L73.9786 146.4095 Z"
                  stroke="none"/>
            <text x="99.9179" xml:space="preserve" font-size="14" y="150.4803"
                  stroke="none">DQ367242</text><path d="M73.9786 192.3307 L77 192.3307 L77 193.1811 L73.9786 193.1811 Z"
                  stroke="none"/>
            <text x="46.9999" xml:space="preserve" y="187.1575" stroke="none">NT1.5</text><line stroke-linecap="butt"
                  fill="none" x1="76.7032" x2="76.7032" y1="173.6221"
                  stroke-linejoin="bevel" y2="211.8898" stroke-width="0.8504"/>
            <path d="M77.1284 173.6221 L81 173.6221 L81 174.4725 L77.1284 174.4725 Z"
                  stroke="none"/>
            <text x="45.3861" xml:space="preserve" y="168.4488" stroke="none">NT1.10</text><line stroke-linecap="butt"
                  fill="none" x1="80.9305" x2="80.9305" y1="164.2677"
                  stroke-linejoin="bevel" y2="183.8268" stroke-width="0.8504"/>
            <path d="M81.3557 164.2677 L84.484 164.2677 L84.484 165.1181 L81.3557 165.1181 Z"
                  stroke="none"/>
            <text x="87.3187" xml:space="preserve" font-size="14" y="169.189"
                  stroke="none">AF115478</text><path d="M81.3557 182.9764 L87.2194 182.9764 L87.2194 183.8268 L81.3557 183.8268 Z"
                  stroke="none"/>
            <text x="90.054" xml:space="preserve" font-size="14" y="187.8976"
                  stroke="none">AY820137</text><path d="M77.1284 211.0394 L78 211.0394 L78 211.8898 L77.1284 211.8898 Z"
                  stroke="none"/>
            <text x="48.0474" xml:space="preserve" y="205.8661" stroke="none">NT1.6</text><line stroke-linecap="butt"
                  fill="none" x1="77.6978" x2="77.6978" y1="201.685"
                  stroke-linejoin="bevel" y2="221.2441" stroke-width="0.8504"/>
            <path d="M78.123 201.685 L89.1258 201.685 L89.1258 202.5354 L78.123 202.5354 Z"
                  stroke="none"/>
            <text x="91.9605" xml:space="preserve" font-size="14" y="206.6063"
                  stroke="none">DQ367241</text><path d="M78.123 220.3937 L92.773 220.3937 L92.773 221.2441 L78.123 221.2441 Z"
                  stroke="none"/>
            <text x="95.6076" xml:space="preserve" font-size="14" y="225.315"
                  stroke="none">AB004878</text><path d="M44.5528 239.1024 L101.5593 239.1024 L101.5593 239.9528 L44.5528 239.9528 Z"
                  stroke="none"/>
            <text x="104.3939" xml:space="preserve" font-size="14" y="244.0236"
                  stroke="none">D0355813</text>
        </g>
    </g>
</svg>
