<?xml version="1.0"?>
<!DOCTYPE svg PUBLIC '-//W3C//DTD SVG 1.0//EN'
    'http://www.w3.org/TR/2001/REC-SVG-20010904/DTD/svg10.dtd' >

<svg fill-opacity="1" xmlns:xlink="http://www.w3.org/1999/xlink"
     color-rendering="auto" color-interpolation="auto" stroke="black"
     text-rendering="auto" stroke-linecap="square" stroke-miterlimit="10"
     stroke-opacity="1" shape-rendering="auto" fill="black"
     stroke-dasharray="none" font-weight="normal" stroke-width="1"
     xmlns="http://www.w3.org/2000/svg" font-family="&apos;Dialog&apos;"
     font-style="normal" stroke-linejoin="miter" font-size="12"
     stroke-dashoffset="0" image-rendering="auto">
    <!--Generated by the Batik Graphics2D SVG Generator-->
    <defs id="genericDefs"/>
    <g>
        <g fill="white" stroke="white">
            <rect x="0" width="230" height="429" y="0" stroke="none"/>
            <path fill="black"
                  d="M5 164.5468 L44 164.5468 L44 165.3972 L5 165.3972 Z"
                  stroke="none"/>
        </g>
        <g font-family="&apos;Arial&apos;" font-size="9">
            <text x="8.5039" xml:space="preserve" y="159.3736" stroke="none">NT1.43</text><line stroke-linecap="butt"
                  fill="none" x1="44.0748" x2="44.0748" y1="14.5984"
                  stroke-linejoin="bevel" y2="314.4951" stroke-width="0.8504"/>
            <path d="M44.5 14.5984 L72.3214 14.5984 L72.3214 15.4488 L44.5 15.4488 Z"
                  stroke="none"/>
            <text x="75.156" xml:space="preserve" font-size="14" y="19.5197"
                  stroke="none">AY513502</text><path d="M44.5 313.6447 L73 313.6447 L73 314.4951 L44.5 314.4951 Z"
                  stroke="none"/>
            <text x="44.3849" xml:space="preserve" y="308.4715" stroke="none">NT1.1</text><line stroke-linecap="butt"
                  fill="none" x1="72.6345" x2="72.6345" y1="229.1634"
                  stroke-linejoin="bevel" y2="398.9764" stroke-width="0.8504"/>
            <path d="M73.0597 229.1634 L81 229.1634 L81 230.0138 L73.0597 230.0138 Z"
                  stroke="none"/>
            <text x="51.16" xml:space="preserve" y="223.9902" stroke="none">NT1.3</text><line stroke-linecap="butt"
                  fill="none" x1="80.8105" x2="80.8105" y1="141.4665"
                  stroke-linejoin="bevel" y2="317.7106" stroke-width="0.8504"/>
            <path d="M81.2357 141.4665 L84 141.4665 L84 142.3169 L81.2357 142.3169 Z"
                  stroke="none"/>
            <text x="54.6584" xml:space="preserve" y="136.2933" stroke="none">NT1.4</text><line stroke-linecap="butt"
                  fill="none" x1="84.2825" x2="84.2825" y1="104.6339"
                  stroke-linejoin="bevel" y2="179.1496" stroke-width="0.8504"/>
            <path d="M84.7076 104.6339 L102 104.6339 L102 105.4842 L84.7076 105.4842 Z"
                  stroke="none"/>
            <text x="72.5519" xml:space="preserve" y="99.4606" stroke="none">NT1.6</text><line stroke-linecap="butt"
                  fill="none" x1="102.2023" x2="102.2023" y1="73.063"
                  stroke-linejoin="bevel" y2="137.0551" stroke-width="0.8504"/>
            <path d="M102.6275 73.063 L109 73.063 L109 73.9134 L102.6275 73.9134 Z"
                  stroke="none"/>
            <text x="79.0478" xml:space="preserve" y="67.8898" stroke="none">NT1.7</text><line stroke-linecap="butt"
                  fill="none" x1="108.6983" x2="108.6983" y1="47.3386"
                  stroke-linejoin="bevel" y2="99.6378" stroke-width="0.8504"/>
            <path d="M109.1235 47.3386 L111 47.3386 L111 48.189 L109.1235 48.189 Z"
                  stroke="none"/>
            <text x="81.1626" xml:space="preserve" y="42.1654" stroke="none">NT1.8</text><line stroke-linecap="butt"
                  fill="none" x1="110.8263" x2="110.8263" y1="33.3071"
                  stroke-linejoin="bevel" y2="62.2205" stroke-width="0.8504"/>
            <path d="M111.2515 33.3071 L120.817 33.3071 L120.817 34.1575 L111.2515 34.1575 Z"
                  stroke="none"/>
            <text x="123.6517" xml:space="preserve" font-size="14" y="38.2283"
                  stroke="none"></text>
            <path d="M111.2515 61.3701 L113 61.3701 L113 62.2205 L111.2515 62.2205 Z"
                  stroke="none"/>
            <text x="83.4026" xml:space="preserve" y="56.1968" stroke="none">NT1.9</text><line stroke-linecap="butt"
                  fill="none" x1="113.0663" x2="113.0663" y1="52.0157"
                  stroke-linejoin="bevel" y2="71.5748" stroke-width="0.8504"/>
            <path d="M113.4915 52.0158 L121.937 52.0158 L121.937 52.8661 L113.4915 52.8661 Z"
                  stroke="none"/>
            <text x="124.7717" xml:space="preserve" font-size="14" y="56.937"
                  stroke="none"></text>
            <path d="M113.4915 70.7244 L120.033 70.7244 L120.033 71.5748 L113.4915 71.5748 Z"
                  stroke="none"/>
            <text x="122.8677" xml:space="preserve" font-size="14" y="75.6457"
                  stroke="none"></text>
            <path d="M109.1235 98.7874 L122 98.7874 L122 99.6378 L109.1235 99.6378 Z"
                  stroke="none"/>
            <text x="86.4554" xml:space="preserve" y="93.6142" stroke="none">NT1.16</text><line stroke-linecap="butt"
                  fill="none" x1="122.0262" x2="122.0262" y1="89.4331"
                  stroke-linejoin="bevel" y2="108.9921" stroke-width="0.8504"/>
            <path d="M122.4514 89.4331 L125.969 89.4331 L125.969 90.2835 L122.4514 90.2835 Z"
                  stroke="none"/>
            <text x="128.8036" xml:space="preserve" font-size="14" y="94.3543"
                  stroke="none"></text>
            <path d="M122.4514 108.1417 L130.8969 108.1417 L130.8969 108.9921 L122.4514 108.9921 Z"
                  stroke="none"/>
            <text x="133.7316" xml:space="preserve" font-size="14" y="113.063"
                  stroke="none"></text>
            <path d="M102.6275 136.2047 L114 136.2047 L114 137.0551 L102.6275 137.0551 Z"
                  stroke="none"/>
            <text x="78.8658" xml:space="preserve" y="131.0315" stroke="none">NT1.10</text><line stroke-linecap="butt"
                  fill="none" x1="114.4103" x2="114.4103" y1="126.8504"
                  stroke-linejoin="bevel" y2="146.4095" stroke-width="0.8504"/>
            <path d="M114.8355 126.8504 L124.961 126.8504 L124.961 127.7008 L114.8355 127.7008 Z"
                  stroke="none"/>
            <text x="127.7956" xml:space="preserve" font-size="14" y="131.7717"
                  stroke="none">AF150806</text><path d="M114.8355 145.5591 L127.649 145.5591 L127.649 146.4095 L114.8355 146.4095 Z"
                  stroke="none"/>
            <text x="130.4836" xml:space="preserve" font-size="14" y="150.4803"
                  stroke="none">AJ131369</text><path d="M84.7076 178.2992 L98 178.2992 L98 179.1496 L84.7076 179.1496 Z"
                  stroke="none"/>
            <text x="68.131" xml:space="preserve" y="173.126" stroke="none">NT1.5</text><line stroke-linecap="butt"
                  fill="none" x1="97.8344" x2="97.8344" y1="164.2677"
                  stroke-linejoin="bevel" y2="193.1811" stroke-width="0.8504"/>
            <path d="M98.2596 164.2677 L126.305 164.2677 L126.305 165.1181 L98.2596 165.1181 Z"
                  stroke="none"/>
            <text x="129.1396" xml:space="preserve" font-size="14" y="169.189"
                  stroke="none">L20842</text><path d="M98.2596 192.3307 L120 192.3307 L120 193.1811 L98.2596 193.1811 Z"
                  stroke="none"/>
            <text x="84.3274" xml:space="preserve" y="187.1575" stroke="none">NT1.13</text><line stroke-linecap="butt"
                  fill="none" x1="119.8982" x2="119.8982" y1="182.9764"
                  stroke-linejoin="bevel" y2="202.5354" stroke-width="0.8504"/>
            <path d="M120.3234 182.9764 L128.4329 182.9764 L128.4329 183.8268 L120.3234 183.8268 Z"
                  stroke="none"/>
            <text x="131.2676" xml:space="preserve" font-size="14" y="187.8976"
                  stroke="none">U89300</text><path d="M120.3234 201.6851 L131.4569 201.6851 L131.4569 202.5355 L120.3234 202.5355 Z"
                  stroke="none"/>
            <text x="134.2915" xml:space="preserve" font-size="14" y="206.6063"
                  stroke="none">U89297</text><path d="M81.2357 316.8603 L119 316.8603 L119 317.7107 L81.2357 317.7107 Z"
                  stroke="none"/>
            <text x="83.4974" xml:space="preserve" y="311.687" stroke="none">NT1.12</text><line stroke-linecap="butt"
                  fill="none" x1="119.0022" x2="119.0022" y1="273.0118"
                  stroke-linejoin="bevel" y2="361.5591" stroke-width="0.8504"/>
            <path d="M119.4274 273.0118 L125 273.0118 L125 273.8622 L119.4274 273.8622 Z"
                  stroke="none"/>
            <text x="89.6901" xml:space="preserve" y="267.8386" stroke="none">NT1.19</text><line stroke-linecap="butt"
                  fill="none" x1="125.2742" x2="125.2742" y1="236.7638"
                  stroke-linejoin="bevel" y2="310.1103" stroke-width="0.8504"/>
            <path d="M125.6994 236.7638 L127 236.7638 L127 237.6142 L125.6994 237.6142 Z"
                  stroke="none"/>
            <text x="91.6073" xml:space="preserve" y="231.5906" stroke="none">NT1.23</text><line stroke-linecap="butt"
                  fill="none" x1="127.1781" x2="127.1781" y1="220.3937"
                  stroke-linejoin="bevel" y2="253.9843" stroke-width="0.8504"/>
            <path d="M127.6033 220.3937 L132.0169 220.3937 L132.0169 221.2441 L127.6033 221.2441 Z"
                  stroke="none"/>
            <text x="134.8515" xml:space="preserve" font-size="14" y="225.315"
                  stroke="none">X95461</text><path d="M127.6033 253.1339 L136 253.1339 L136 253.9843 L127.6033 253.9843 Z"
                  stroke="none"/>
            <text x="100.8177" xml:space="preserve" y="247.9607" stroke="none">NT1.34</text><line stroke-linecap="butt"
                  fill="none" x1="136.3621" x2="136.3621" y1="239.1024"
                  stroke-linejoin="bevel" y2="268.0158" stroke-width="0.8504"/>
            <path d="M136.7873 239.1024 L138.1769 239.1024 L138.1769 239.9528 L136.7873 239.9528 Z"
                  stroke="none"/>
            <text x="141.0115" xml:space="preserve" font-size="14" y="244.0237"
                  stroke="none"></text>
            <path d="M136.7873 267.1654 L138 267.1654 L138 268.0158 L136.7873 268.0158 Z"
                  stroke="none"/>
            <text x="102.1353" xml:space="preserve" y="261.9922" stroke="none">NT1.37</text><line stroke-linecap="butt"
                  fill="none" x1="137.7061" x2="137.7061" y1="257.8111"
                  stroke-linejoin="bevel" y2="277.3701" stroke-width="0.8504"/>
            <path d="M138.1313 257.8111 L137.6169 257.8111 L137.6169 258.6615 L138.1313 258.6615 Z"
                  stroke="none"/>
            <text x="140.4515" xml:space="preserve" font-size="14" y="262.7323"
                  stroke="none">DQ400508</text><path d="M138.1313 276.5198 L138.1769 276.5198 L138.1769 277.3702 L138.1313 277.3702 Z"
                  stroke="none"/>
            <text x="141.0115" xml:space="preserve" font-size="14" y="281.441"
                  stroke="none"></text>
            <path d="M125.6994 309.2599 L130 309.2599 L130 310.1103 L125.6994 310.1103 Z"
                  stroke="none"/>
            <text x="93.9593" xml:space="preserve" y="304.0866" stroke="none">NT1.27</text><line stroke-linecap="butt"
                  fill="none" x1="129.5301" x2="129.5301" y1="295.2284"
                  stroke-linejoin="bevel" y2="324.1418" stroke-width="0.8504"/>
            <path d="M129.9553 295.2284 L142.3208 295.2284 L142.3208 296.0788 L129.9553 296.0788 Z"
                  stroke="none"/>
            <text x="145.1555" xml:space="preserve" font-size="14" y="300.1496"
                  stroke="none"></text>
            <path d="M129.9553 323.2914 L131 323.2914 L131 324.1418 L129.9553 324.1418 Z"
                  stroke="none"/>
            <text x="95.4021" xml:space="preserve" y="318.1181" stroke="none">NT1.28</text><line stroke-linecap="butt"
                  fill="none" x1="130.9861" x2="130.9861" y1="313.937"
                  stroke-linejoin="bevel" y2="333.4961" stroke-width="0.8504"/>
            <path d="M131.4113 313.937 L132.4649 313.937 L132.4649 314.7874 L131.4113 314.7874 Z"
                  stroke="none"/>
            <text x="135.2995" xml:space="preserve" font-size="14" y="318.8583"
                  stroke="none"></text>
            <path d="M131.4113 332.6457 L134.7049 332.6457 L134.7049 333.4961 L131.4113 333.4961 Z"
                  stroke="none"/>
            <text x="137.5396" xml:space="preserve" font-size="14" y="337.567"
                  stroke="none"></text>
            <path d="M119.4274 360.7087 L125 360.7087 L125 361.5591 L119.4274 361.5591 Z"
                  stroke="none"/>
            <text x="88.9061" xml:space="preserve" y="355.5355" stroke="none">NT1.18</text><line stroke-linecap="butt"
                  fill="none" x1="124.4901" x2="124.4901" y1="351.3544"
                  stroke-linejoin="bevel" y2="370.9134" stroke-width="0.8504"/>
            <path d="M124.9154 351.3544 L136.6089 351.3544 L136.6089 352.2048 L124.9154 352.2048 Z"
                  stroke="none"/>
            <text x="139.4435" xml:space="preserve" font-size="14" y="356.2756"
                  stroke="none">AF384373</text><path d="M124.9154 370.063 L139.8568 370.063 L139.8568 370.9135 L124.9154 370.9135 Z"
                  stroke="none"/>
            <text x="142.6915" xml:space="preserve" font-size="14" y="374.9843"
                  stroke="none">AY694421</text><path d="M73.0597 398.126 L115 398.126 L115 398.9764 L73.0597 398.9764 Z"
                  stroke="none"/>
            <text x="78.3473" xml:space="preserve" y="392.9528" stroke="none">NT1.11</text><line stroke-linecap="butt"
                  fill="none" x1="114.9702" x2="114.9702" y1="388.7717"
                  stroke-linejoin="bevel" y2="408.3307" stroke-width="0.8504"/>
            <path d="M115.3954 388.7717 L128.4329 388.7717 L128.4329 389.6221 L115.3954 389.6221 Z"
                  stroke="none"/>
            <text x="131.2676" xml:space="preserve" font-size="14" y="393.6929"
                  stroke="none">AB006764</text><path d="M115.3954 407.4804 L136.0489 407.4804 L136.0489 408.3308 L115.3954 408.3308 Z"
                  stroke="none"/>
            <text x="138.8835" xml:space="preserve" font-size="14" y="412.4016"
                  stroke="none">ABOOS771</text>
        </g>
    </g>
</svg>
