<?xml version="1.0"?>
<!DOCTYPE svg PUBLIC '-//W3C//DTD SVG 1.0//EN'
    'http://www.w3.org/TR/2001/REC-SVG-20010904/DTD/svg10.dtd' >

<svg fill-opacity="1" xmlns:xlink="http://www.w3.org/1999/xlink"
     color-rendering="auto" color-interpolation="auto" stroke="black"
     text-rendering="auto" stroke-linecap="square" stroke-miterlimit="10"
     stroke-opacity="1" shape-rendering="auto" fill="black"
     stroke-dasharray="none" font-weight="normal" stroke-width="1"
     xmlns="http://www.w3.org/2000/svg" font-family="&apos;Dialog&apos;"
     font-style="normal" stroke-linejoin="miter" font-size="12"
     stroke-dashoffset="0" image-rendering="auto">
    <!--Generated by the Batik Graphics2D SVG Generator-->
    <defs id="genericDefs"/>
    <g>
        <g fill="white" stroke="white">
            <rect x="0" width="185" height="261" y="0" stroke="none"/>
            <path fill="black"
                  d="M5 97.1663 L44 97.1663 L44 98.0167 L5 98.0167 Z"
                  stroke="none"/>
        </g>
        <g font-family="&apos;Arial&apos;" font-size="9">
            <text x="8.5039" xml:space="preserve" y="91.9931" stroke="none">NT1.25</text><line stroke-linecap="butt"
                  fill="none" x1="44.1276" x2="44.1276" y1="14.5984"
                  stroke-linejoin="bevel" y2="179.7343" stroke-width="0.8504"/>
            <path d="M44.5528 14.5984 L90.0253 14.5984 L90.0253 15.4488 L44.5528 15.4488 Z"
                  stroke="none"/>
            <text x="92.8599" xml:space="preserve" font-size="14" y="19.5197"
                  stroke="none">Kytococcus</text><path d="M44.5528 178.8839 L47 178.8839 L47 179.7343 L44.5528 179.7343 Z"
                  stroke="none"/>
            <text x="19.1672" xml:space="preserve" y="173.7106" stroke="none">NT1.1</text><line stroke-linecap="butt"
                  fill="none" x1="47.4168" x2="47.4168" y1="128.0197"
                  stroke-linejoin="bevel" y2="230.5984" stroke-width="0.8504"/>
            <path d="M47.842 128.0197 L52 128.0197 L52 128.8701 L47.842 128.8701 Z"
                  stroke="none"/>
            <text x="22.6566" xml:space="preserve" y="122.8465" stroke="none">NT1.2</text><line stroke-linecap="butt"
                  fill="none" x1="52.241" x2="52.241" y1="75.4016"
                  stroke-linejoin="bevel" y2="181.4882" stroke-width="0.8504"/>
            <path d="M52.6662 75.4016 L59 75.4016 L59 76.252 L52.6662 76.252 Z"
                  stroke="none"/>
            <text x="29.2257" xml:space="preserve" y="70.2283" stroke="none">NT1.5</text><line stroke-linecap="butt"
                  fill="none" x1="58.929" x2="58.929" y1="47.3386"
                  stroke-linejoin="bevel" y2="104.315" stroke-width="0.8504"/>
            <path d="M59.3542 47.3386 L61 47.3386 L61 48.189 L59.3542 48.189 Z"
                  stroke="none"/>
            <text x="31.1424" xml:space="preserve" y="42.1654" stroke="none">NT1.7</text><line stroke-linecap="butt"
                  fill="none" x1="60.7929" x2="60.7929" y1="33.3071"
                  stroke-linejoin="bevel" y2="62.2205" stroke-width="0.8504"/>
            <path d="M61.2181 33.3071 L71.3317 33.3071 L71.3317 34.1575 L61.2181 34.1575 Z"
                  stroke="none"/>
            <text x="74.1663" xml:space="preserve" font-size="14" y="38.2283"
                  stroke="none"></text>
            <path d="M61.2181 61.3701 L65 61.3701 L65 62.2205 L61.2181 62.2205 Z"
                  stroke="none"/>
            <text x="35.6245" xml:space="preserve" y="56.1968" stroke="none">NT1.9</text><line stroke-linecap="butt"
                  fill="none" x1="65.2881" x2="65.2881" y1="52.0157"
                  stroke-linejoin="bevel" y2="71.5748" stroke-width="0.8504"/>
            <path d="M65.7133 52.0158 L76.9233 52.0158 L76.9233 52.8661 L65.7133 52.8661 Z"
                  stroke="none"/>
            <text x="79.7579" xml:space="preserve" font-size="14" y="56.937"
                  stroke="none">Rothia</text><path d="M65.7133 70.7244 L74.566 70.7244 L74.566 71.5748 L65.7133 71.5748 Z"
                  stroke="none"/>
            <text x="77.4007" xml:space="preserve" font-size="14" y="75.6457"
                  stroke="none"></text>
            <path d="M59.3542 103.4646 L68 103.4646 L68 104.315 L59.3542 104.315 Z"
                  stroke="none"/>
            <text x="32.7588" xml:space="preserve" y="98.2913" stroke="none">NT1.10</text><line stroke-linecap="butt"
                  fill="none" x1="68.3032" x2="68.3032" y1="89.4331"
                  stroke-linejoin="bevel" y2="118.3465" stroke-width="0.8504"/>
            <path d="M68.7284 89.4331 L78.0197 89.4331 L78.0197 90.2835 L68.7284 90.2835 Z"
                  stroke="none"/>
            <text x="80.8544" xml:space="preserve" font-size="14" y="94.3543"
                  stroke="none">Roth/a</text><path d="M68.7284 117.4961 L76 117.4961 L76 118.3464 L68.7284 118.3464 Z"
                  stroke="none"/>
            <text x="40.1899" xml:space="preserve" y="112.3228" stroke="none">NT1.15</text><line stroke-linecap="butt"
                  fill="none" x1="75.8136" x2="75.8136" y1="108.1417"
                  stroke-linejoin="bevel" y2="127.7008" stroke-width="0.8504"/>
            <path d="M76.2388 108.1417 L90.0253 108.1417 L90.0253 108.9921 L76.2388 108.9921 Z"
                  stroke="none"/>
            <text x="92.8599" xml:space="preserve" font-size="14" y="113.063"
                  stroke="none">Roth/a</text><path d="M76.2388 126.8504 L80.8155 126.8504 L80.8155 127.7008 L76.2388 127.7008 Z"
                  stroke="none"/>
            <text x="83.6502" xml:space="preserve" font-size="14" y="131.7717"
                  stroke="none">Rothia</text><path d="M52.6662 180.6378 L56 180.6378 L56 181.4882 L52.6662 181.4882 Z"
                  stroke="none"/>
            <text x="26.2351" xml:space="preserve" y="175.4646" stroke="none">NT1.4</text><line stroke-linecap="butt"
                  fill="none" x1="55.8591" x2="55.8591" y1="159.5905"
                  stroke-linejoin="bevel" y2="202.5354" stroke-width="0.8504"/>
            <path d="M56.2843 159.5906 L61 159.5906 L61 160.441 L56.2843 160.441 Z"
                  stroke="none"/>
            <text x="30.9232" xml:space="preserve" y="154.4173" stroke="none">NT1.6</text><line stroke-linecap="butt"
                  fill="none" x1="60.5736" x2="60.5736" y1="145.5591"
                  stroke-linejoin="bevel" y2="174.4724" stroke-width="0.8504"/>
            <path d="M60.9988 145.5591 L78.2938 145.5591 L78.2938 146.4095 L60.9988 146.4095 Z"
                  stroke="none"/>
            <text x="81.1285" xml:space="preserve" font-size="14" y="150.4803"
                  stroke="none"></text>
            <path d="M60.9988 173.6221 L64 173.6221 L64 174.4725 L60.9988 174.4725 Z"
                  stroke="none"/>
            <text x="34.3088" xml:space="preserve" y="168.4488" stroke="none">NT1.8</text><line stroke-linecap="butt"
                  fill="none" x1="63.9724" x2="63.9724" y1="164.2677"
                  stroke-linejoin="bevel" y2="183.8268" stroke-width="0.8504"/>
            <path d="M64.3977 164.2677 L77.1426 164.2677 L77.1426 165.1181 L64.3977 165.1181 Z"
                  stroke="none"/>
            <text x="79.9772" xml:space="preserve" font-size="14" y="169.189"
                  stroke="none"></text>
            <path d="M64.3977 182.9764 L82.7342 182.9764 L82.7342 183.8268 L64.3977 183.8268 Z"
                  stroke="none"/>
            <text x="85.5689" xml:space="preserve" font-size="14" y="187.8976"
                  stroke="none">Kocuria</text><path d="M56.2843 201.685 L67.9328 201.685 L67.9328 202.5354 L56.2843 202.5354 Z"
                  stroke="none"/>
            <text x="70.7675" xml:space="preserve" font-size="14" y="206.6063"
                  stroke="none">Kocuria</text><path d="M47.842 229.748 L56 229.748 L56 230.5984 L47.842 230.5984 Z"
                  stroke="none"/>
            <text x="25.9894" xml:space="preserve" y="224.5748" stroke="none">NT1.3</text><line stroke-linecap="butt"
                  fill="none" x1="55.6398" x2="55.6398" y1="220.3937"
                  stroke-linejoin="bevel" y2="239.9528" stroke-width="0.8504"/>
            <path d="M56.065 220.3937 L73.1956 220.3937 L73.1956 221.2441 L56.065 221.2441 Z"
                  stroke="none"/>
            <text x="76.0302" xml:space="preserve" font-size="14" y="225.315"
                  stroke="none"></text>
            <path d="M56.065 239.1024 L78.6776 239.1024 L78.6776 239.9528 L56.065 239.9528 Z"
                  stroke="none"/>
            <text x="81.5122" xml:space="preserve" font-size="14" y="244.0236"
                  stroke="none">Micrococcus</text>
        </g>
    </g>
</svg>
