<?xml version="1.0"?>
<!DOCTYPE svg PUBLIC '-//W3C//DTD SVG 1.0//EN'
    'http://www.w3.org/TR/2001/REC-SVG-20010904/DTD/svg10.dtd' >

<svg fill-opacity="1" xmlns:xlink="http://www.w3.org/1999/xlink"
     color-rendering="auto" color-interpolation="auto" stroke="black"
     text-rendering="auto" stroke-linecap="square" stroke-miterlimit="10"
     stroke-opacity="1" shape-rendering="auto" fill="black"
     stroke-dasharray="none" font-weight="normal" stroke-width="1"
     xmlns="http://www.w3.org/2000/svg" font-family="&apos;Dialog&apos;"
     font-style="normal" stroke-linejoin="miter" font-size="12"
     stroke-dashoffset="0" image-rendering="auto">
    <!--Generated by the Batik Graphics2D SVG Generator-->
    <defs id="genericDefs"/>
    <g>
        <g fill="white" stroke="white">
            <rect x="0" width="367" height="449" y="0" stroke="none"/>
            <path fill="black"
                  d="M5 184.7038 L18 184.7038 L18 185.5542 L5 185.5542 Z"
                  stroke="none"/>
            <circle fill="black" r="1.2756" cx="17.4331" cy="184.7038"
                    stroke="none"/>
            <path fill="black"
                  d="M17.8583 183.8534 L18 183.8534 L18 184.7038 L17.8583 184.7038 Z"
                  stroke="none"/>
        </g>
        <g font-family="&apos;Arial&apos;" font-size="9">
            <text x="-11.5127" xml:space="preserve" y="178.6801" stroke="none">NT1.2</text><line stroke-linecap="butt"
                  fill="none" x1="18.0717" x2="18.0717" y1="23.9528"
                  stroke-linejoin="bevel" y2="344.6044" stroke-width="0.8504"/>
            <path d="M18.4969 23.9528 L88 23.9528 L88 24.8032 L18.4969 24.8032 Z"
                  stroke="none"/>
            <text x="39.7861" xml:space="preserve" y="18.7795" stroke="none">NT1.6</text><line stroke-linecap="butt"
                  fill="none" x1="87.8912" x2="87.8912" y1="14.5984"
                  stroke-linejoin="bevel" y2="34.1575" stroke-width="0.8504"/>
            <path d="M88.3164 14.5984 L101.9408 14.5984 L101.9408 15.4488 L88.3164 15.4488 Z"
                  stroke="none"/>
            <text x="104.7755" xml:space="preserve" font-size="14" y="19.5197"
                  stroke="none"></text>
            <path d="M88.3164 33.3071 L124.9302 33.3071 L124.9302 34.1575 L88.3164 34.1575 Z"
                  stroke="none"/>
            <text x="127.7648" xml:space="preserve" font-size="14" y="38.2283"
                  stroke="none"></text>
            <path d="M18.4969 343.754 L36 343.754 L36 344.6044 L18.4969 344.6044 Z"
                  stroke="none"/>
            <text x="5.8761" xml:space="preserve" y="338.5807" stroke="none">NT1.3</text><line stroke-linecap="butt"
                  fill="none" x1="35.5265" x2="35.5265" y1="261.3189"
                  stroke-linejoin="bevel" y2="427.0394" stroke-width="0.8504"/>
            <path d="M35.9517 261.3189 L49 261.3189 L49 262.1693 L35.9517 262.1693 Z"
                  stroke="none"/>
            <text x="18.8079" xml:space="preserve" y="256.1457" stroke="none">NT1.5</text><line stroke-linecap="butt"
                  fill="none" x1="48.5113" x2="48.5113" y1="159.5905"
                  stroke-linejoin="bevel" y2="363.8976" stroke-width="0.8504"/>
            <path d="M48.9365 159.5906 L121 159.5906 L121 160.441 L48.9365 160.441 Z"
                  stroke="none"/>
            <text x="68.3299" xml:space="preserve" y="154.4173" stroke="none">NT1.13</text><line stroke-linecap="butt"
                  fill="none" x1="120.4595" x2="120.4595" y1="108.1417"
                  stroke-linejoin="bevel" y2="211.8898" stroke-width="0.8504"/>
            <path d="M120.8847 108.1417 L140 108.1417 L140 108.9921 L120.8847 108.9921 Z"
                  stroke="none"/>
            <text x="104.4193" xml:space="preserve" y="102.9685" stroke="none">NT1.15</text><line stroke-linecap="butt"
                  fill="none" x1="140.043" x2="140.043" y1="80.0787"
                  stroke-linejoin="bevel" y2="137.0551" stroke-width="0.8504"/>
            <path d="M140.4682 80.0787 L147 80.0787 L147 80.9291 L140.4682 80.9291 Z"
                  stroke="none"/>
            <text x="112.8975" xml:space="preserve" y="74.9055" stroke="none">NT1.21</text><line stroke-linecap="butt"
                  fill="none" x1="147.0675" x2="147.0675" y1="61.3701"
                  stroke-linejoin="bevel" y2="99.6378" stroke-width="0.8504"/>
            <path d="M147.4927 61.3701 L148 61.3701 L148 62.2205 L147.4927 62.2205 Z"
                  stroke="none"/>
            <text x="112.1221" xml:space="preserve" y="56.1968" stroke="none">NT1.28</text><line stroke-linecap="butt"
                  fill="none" x1="147.7061" x2="147.7061" y1="52.0157"
                  stroke-linejoin="bevel" y2="71.5748" stroke-width="0.8504"/>
            <path d="M148.1313 52.0157 L147.0681 52.0157 L147.0681 52.8661 L148.1313 52.8661 Z"
                  stroke="none"/>
            <text x="149.9027" xml:space="preserve" font-size="14" y="56.937"
                  stroke="none"></text>
            <path d="M148.1313 70.7244 L148.9839 70.7244 L148.9839 71.5748 L148.1313 71.5748 Z"
                  stroke="none"/>
            <text x="151.8185" xml:space="preserve" font-size="14" y="75.6457"
                  stroke="none"></text>
            <path d="M147.4927 98.7874 L149 98.7874 L149 99.6378 L147.4927 99.6378 Z"
                  stroke="none"/>
            <text x="113.6253" xml:space="preserve" y="93.6142" stroke="none">NT1.33</text><line stroke-linecap="butt"
                  fill="none" x1="149.1962" x2="149.1962" y1="89.4331"
                  stroke-linejoin="bevel" y2="108.9921" stroke-width="0.8504"/>
            <path d="M149.6214 89.4331 L149.4096 89.4331 L149.4096 90.2835 L149.6214 90.2835 Z"
                  stroke="none"/>
            <text x="152.2442" xml:space="preserve" font-size="14" y="94.3543"
                  stroke="none"></text>
            <path d="M149.6214 108.1417 L148.5581 108.1417 L148.5581 108.9921 L149.6214 108.9921 Z"
                  stroke="none"/>
            <text x="151.3928" xml:space="preserve" font-size="14" y="113.063"
                  stroke="none"></text>
            <path d="M140.4682 136.2047 L148 136.2047 L148 137.0551 L140.4682 137.0551 Z"
                  stroke="none"/>
            <text x="112.8003" xml:space="preserve" y="131.0315" stroke="none">NT1.30</text><line stroke-linecap="butt"
                  fill="none" x1="148.3447" x2="148.3447" y1="126.8504"
                  stroke-linejoin="bevel" y2="146.4095" stroke-width="0.8504"/>
            <path d="M148.7699 126.8504 L148.1324 126.8504 L148.1324 127.7008 L148.7699 127.7008 Z"
                  stroke="none"/>
            <text x="150.967" xml:space="preserve" font-size="14" y="131.7717"
                  stroke="none"></text>
            <path d="M148.7699 145.5591 L149.6224 145.5591 L149.6224 146.4095 L148.7699 146.4095 Z"
                  stroke="none"/>
            <text x="152.4571" xml:space="preserve" font-size="14" y="150.4803"
                  stroke="none"></text>
            <path d="M120.8847 211.0394 L141 211.0394 L141 211.8898 L120.8847 211.8898 Z"
                  stroke="none"/>
            <text x="105.3236" xml:space="preserve" y="205.8661" stroke="none">NT1.16</text><line stroke-linecap="butt"
                  fill="none" x1="140.8945" x2="140.8945" y1="187.6535"
                  stroke-linejoin="bevel" y2="235.2756" stroke-width="0.8504"/>
            <path d="M141.3197 187.6535 L145 187.6535 L145 188.5039 L141.3197 188.5039 Z"
                  stroke="none"/>
            <text x="109.5809" xml:space="preserve" y="182.4803" stroke="none">NT1.17</text><line stroke-linecap="butt"
                  fill="none" x1="145.1517" x2="145.1517" y1="173.622"
                  stroke-linejoin="bevel" y2="202.5354" stroke-width="0.8504"/>
            <path d="M145.577 173.622 L146 173.622 L146 174.4724 L145.577 174.4724 Z"
                  stroke="none"/>
            <text x="109.9934" xml:space="preserve" y="168.4488" stroke="none">NT1.19</text><line stroke-linecap="butt"
                  fill="none" x1="145.5775" x2="145.5775" y1="164.2677"
                  stroke-linejoin="bevel" y2="183.8268" stroke-width="0.8504"/>
            <path d="M146.0027 164.2677 L144.9394 164.2677 L144.9394 165.1181 L146.0027 165.1181 Z"
                  stroke="none"/>
            <text x="147.774" xml:space="preserve" font-size="14" y="169.189"
                  stroke="none"></text>
            <path d="M146.0027 182.9764 L146.4295 182.9764 L146.4295 183.8268 L146.0027 183.8268 Z"
                  stroke="none"/>
            <text x="149.2641" xml:space="preserve" font-size="14" y="187.8976"
                  stroke="none"></text>
            <path d="M145.577 201.685 L146.8552 201.685 L146.8552 202.5354 L145.577 202.5354 Z"
                  stroke="none"/>
            <text x="149.6898" xml:space="preserve" font-size="14" y="206.6063"
                  stroke="none"></text>
            <path d="M141.3197 234.4252 L147 234.4252 L147 235.2756 L141.3197 235.2756 Z"
                  stroke="none"/>
            <text x="111.736" xml:space="preserve" y="229.252" stroke="none">NT1.24</text><line stroke-linecap="butt"
                  fill="none" x1="147.2804" x2="147.2804" y1="220.3937"
                  stroke-linejoin="bevel" y2="249.3071" stroke-width="0.8504"/>
            <path d="M147.7056 220.3937 L146.8552 220.3937 L146.8552 221.2441 L147.7056 221.2441 Z"
                  stroke="none"/>
            <text x="149.6898" xml:space="preserve" font-size="14" y="225.315"
                  stroke="none"></text>
            <path d="M147.7056 248.4567 L148 248.4567 L148 249.3071 L147.7056 249.3071 Z"
                  stroke="none"/>
            <text x="112.1353" xml:space="preserve" y="243.2835" stroke="none">NT1.27</text><line stroke-linecap="butt"
                  fill="none" x1="147.7061" x2="147.7061" y1="239.1024"
                  stroke-linejoin="bevel" y2="258.6614" stroke-width="0.8504"/>
            <path d="M148.1313 239.1024 L147.9195 239.1024 L147.9195 239.9528 L148.1313 239.9528 Z"
                  stroke="none"/>
            <text x="150.7542" xml:space="preserve" font-size="14" y="244.0236"
                  stroke="none"></text>
            <path d="M148.1313 257.8111 L147.0681 257.8111 L147.0681 258.6615 L148.1313 258.6615 Z"
                  stroke="none"/>
            <text x="149.9027" xml:space="preserve" font-size="14" y="262.7323"
                  stroke="none"></text>
            <path d="M48.9365 363.0473 L105 363.0473 L105 363.8977 L48.9365 363.8977 Z"
                  stroke="none"/>
            <text x="63.4075" xml:space="preserve" y="357.8741" stroke="none">NT1.8</text><line stroke-linecap="butt"
                  fill="none" x1="104.7075" x2="104.7075" y1="327.9685"
                  stroke-linejoin="bevel" y2="398.9764" stroke-width="0.8504"/>
            <path d="M105.1327 327.9685 L118 327.9685 L118 328.8189 L105.1327 328.8189 Z"
                  stroke="none"/>
            <text x="82.8261" xml:space="preserve" y="322.7953" stroke="none">NT1.12</text><line stroke-linecap="butt"
                  fill="none" x1="118.3308" x2="118.3308" y1="299.9055"
                  stroke-linejoin="bevel" y2="356.8819" stroke-width="0.8504"/>
            <path d="M118.756 299.9055 L177 299.9055 L177 300.756 L118.756 300.756 Z"
                  stroke="none"/>
            <text x="131.2644" xml:space="preserve" y="294.7323" stroke="none">NT1.42</text><line stroke-linecap="butt"
                  fill="none" x1="176.4428" x2="176.4428" y1="285.8741"
                  stroke-linejoin="bevel" y2="314.7874" stroke-width="0.8504"/>
            <path d="M176.868 285.8741 L177 285.8741 L177 286.7245 L176.868 286.7245 Z"
                  stroke="none"/>
            <text x="141.3242" xml:space="preserve" y="280.7008" stroke="none">NT1.44</text><line stroke-linecap="butt"
                  fill="none" x1="176.8686" x2="176.8686" y1="276.5197"
                  stroke-linejoin="bevel" y2="296.0788" stroke-width="0.8504"/>
            <path d="M177.2938 276.5197 L176.2305 276.5197 L176.2305 277.3701 L177.2938 277.3701 Z"
                  stroke="none"/>
            <text x="179.0651" xml:space="preserve" font-size="14" y="281.441"
                  stroke="none"></text>
            <path d="M177.2938 295.2284 L177.5077 295.2284 L177.5077 296.0788 L177.2938 296.0788 Z"
                  stroke="none"/>
            <text x="180.3423" xml:space="preserve" font-size="14" y="300.1497"
                  stroke="none"></text>
            <path d="M176.868 313.937 L177.082 313.937 L177.082 314.7874 L176.868 314.7874 Z"
                  stroke="none"/>
            <text x="179.9166" xml:space="preserve" font-size="14" y="318.8583"
                  stroke="none"></text>
            <path d="M118.756 356.0316 L172 356.0316 L172 356.882 L118.756 356.882 Z"
                  stroke="none"/>
            <text x="129.1027" xml:space="preserve" y="350.8583" stroke="none">NT1.37</text><line stroke-linecap="butt"
                  fill="none" x1="172.1855" x2="172.1855" y1="342"
                  stroke-linejoin="bevel" y2="370.9134" stroke-width="0.8504"/>
            <path d="M172.6107 342 L173 342 L173 342.8504 L172.6107 342.8504 Z"
                  stroke="none"/>
            <text x="137.2401" xml:space="preserve" y="336.8268" stroke="none">NT1.39</text><line stroke-linecap="butt"
                  fill="none" x1="172.8241" x2="172.8241" y1="332.6457"
                  stroke-linejoin="bevel" y2="352.2048" stroke-width="0.8504"/>
            <path d="M173.2493 332.6457 L172.1861 332.6457 L172.1861 333.4961 L173.2493 333.4961 Z"
                  stroke="none"/>
            <text x="175.0207" xml:space="preserve" font-size="14" y="337.567"
                  stroke="none"></text>
            <path d="M173.2493 351.3544 L174.1019 351.3544 L174.1019 352.2048 L173.2493 352.2048 Z"
                  stroke="none"/>
            <text x="176.9365" xml:space="preserve" font-size="14" y="356.2757"
                  stroke="none"></text>
            <path d="M172.6107 370.063 L174.1019 370.063 L174.1019 370.9135 L172.6107 370.9135 Z"
                  stroke="none"/>
            <text x="176.9365" xml:space="preserve" font-size="14" y="374.9843"
                  stroke="none"></text>
            <path d="M105.1327 398.126 L115 398.126 L115 398.9764 L105.1327 398.9764 Z"
                  stroke="none"/>
            <text x="85.0485" xml:space="preserve" y="392.9528" stroke="none">NT1.9</text><line stroke-linecap="butt"
                  fill="none" x1="114.7121" x2="114.7121" y1="388.7717"
                  stroke-linejoin="bevel" y2="408.3307" stroke-width="0.8504"/>
            <path d="M115.1373 388.7717 L114.4998 388.7717 L114.4998 389.6221 L115.1373 389.6221 Z"
                  stroke="none"/>
            <text x="117.3344" xml:space="preserve" font-size="14" y="393.6929"
                  stroke="none"></text>
            <path d="M115.1373 407.4804 L114.4998 407.4804 L114.4998 408.3308 L115.1373 408.3308 Z"
                  stroke="none"/>
            <text x="117.3344" xml:space="preserve" font-size="14" y="412.4016"
                  stroke="none">P.angustumATCC25915T</text><path d="M35.9517 426.1891 L44.4674 426.1891 L44.4674 427.0395 L35.9517 427.0395 Z"
                  stroke="none"/>
            <text x="47.302" xml:space="preserve" font-size="14" y="431.1103"
                  stroke="none"></text>
        </g>
    </g>
</svg>
