<?xml version="1.0"?>
<!DOCTYPE svg PUBLIC '-//W3C//DTD SVG 1.0//EN'
    'http://www.w3.org/TR/2001/REC-SVG-20010904/DTD/svg10.dtd' >

<svg fill-opacity="1" xmlns:xlink="http://www.w3.org/1999/xlink"
     color-rendering="auto" color-interpolation="auto" stroke="black"
     text-rendering="auto" stroke-linecap="square" stroke-miterlimit="10"
     stroke-opacity="1" shape-rendering="auto" fill="black"
     stroke-dasharray="none" font-weight="normal" stroke-width="1"
     xmlns="http://www.w3.org/2000/svg" font-family="&apos;Dialog&apos;"
     font-style="normal" stroke-linejoin="miter" font-size="12"
     stroke-dashoffset="0" image-rendering="auto">
    <!--Generated by the Batik Graphics2D SVG Generator-->
    <defs id="genericDefs"/>
    <g>
        <g fill="white" stroke="white">
            <rect x="0" width="199" height="410" y="0" stroke="none"/>
            <path fill="black"
                  d="M5 114.4499 L43 114.4499 L43 115.3003 L5 115.3003 Z"
                  stroke="none"/>
        </g>
        <g font-family="&apos;Arial&apos;" font-size="9">
            <text x="8.5039" xml:space="preserve" y="109.2767" stroke="none">NT1.41</text><line stroke-linecap="butt"
                  fill="none" x1="42.674" x2="42.674" y1="14.5984"
                  stroke-linejoin="bevel" y2="214.3015" stroke-width="0.8504"/>
            <path d="M43.0992 14.5984 L94.7032 14.5984 L94.7032 15.4488 L43.0992 15.4488 Z"
                  stroke="none"/>
            <text x="97.5379" xml:space="preserve" font-size="14" y="19.5197"
                  stroke="none">D30778</text><path d="M43.0992 213.451 L64 213.451 L64 214.3014 L43.0992 214.3014 Z"
                  stroke="none"/>
            <text x="36.1571" xml:space="preserve" y="208.2778" stroke="none">NT1.1</text><line stroke-linecap="butt"
                  fill="none" x1="64.4067" x2="64.4067" y1="132.6969"
                  stroke-linejoin="bevel" y2="295.0556" stroke-width="0.8504"/>
            <path d="M64.8319 132.6969 L71 132.6969 L71 133.5473 L64.8319 133.5473 Z"
                  stroke="none"/>
            <text x="41.7235" xml:space="preserve" y="127.5236" stroke="none">NT1.4</text><line stroke-linecap="butt"
                  fill="none" x1="71.3475" x2="71.3475" y1="91.7717"
                  stroke-linejoin="bevel" y2="174.4725" stroke-width="0.8504"/>
            <path d="M71.7727 91.7717 L73 91.7717 L73 92.622 L71.7727 92.622 Z"
                  stroke="none"/>
            <text x="43.6314" xml:space="preserve" y="86.5984" stroke="none">NT1.7</text><line stroke-linecap="butt"
                  fill="none" x1="73.2819" x2="73.2819" y1="61.3701"
                  stroke-linejoin="bevel" y2="123.0236" stroke-width="0.8504"/>
            <path d="M73.7071 61.3701 L79 61.3701 L79 62.2205 L73.7071 62.2205 Z"
                  stroke="none"/>
            <text x="42.9451" xml:space="preserve" y="56.1969" stroke="none">NT1.13</text><line stroke-linecap="butt"
                  fill="none" x1="78.516" x2="78.516" y1="42.6614"
                  stroke-linejoin="bevel" y2="80.9291" stroke-width="0.8504"/>
            <path d="M78.9412 42.6614 L82 42.6614 L82 43.5118 L78.9412 43.5118 Z"
                  stroke="none"/>
            <text x="46.3058" xml:space="preserve" y="37.4882" stroke="none">NT1.15</text><line stroke-linecap="butt"
                  fill="none" x1="81.9295" x2="81.9295" y1="33.3071"
                  stroke-linejoin="bevel" y2="52.8661" stroke-width="0.8504"/>
            <path d="M82.3547 33.3071 L93.9068 33.3071 L93.9068 34.1575 L82.3547 34.1575 Z"
                  stroke="none"/>
            <text x="96.7414" xml:space="preserve" font-size="14" y="38.2283"
                  stroke="none">D16418</text><path d="M82.3547 52.0158 L99.0271 52.0158 L99.0271 52.8661 L82.3547 52.8661 Z"
                  stroke="none"/>
            <text x="101.8617" xml:space="preserve" font-size="14" y="56.937"
                  stroke="none">Y15012</text><path d="M78.9412 80.0788 L82 80.0788 L82 80.9291 L78.9412 80.9291 Z"
                  stroke="none"/>
            <text x="46.8138" xml:space="preserve" y="74.9055" stroke="none">NT1.16</text><line stroke-linecap="butt"
                  fill="none" x1="82.3846" x2="82.3846" y1="70.7244"
                  stroke-linejoin="bevel" y2="90.2835" stroke-width="0.8504"/>
            <path d="M82.8098 70.7244 L92.7689 70.7244 L92.7689 71.5748 L82.8098 71.5748 Z"
                  stroke="none"/>
            <text x="95.6036" xml:space="preserve" font-size="14" y="75.6457"
                  stroke="none">Y15011</text><path d="M82.8098 89.4331 L100.5062 89.4331 L100.5062 90.2835 L82.8098 90.2835 Z"
                  stroke="none"/>
            <text x="103.3409" xml:space="preserve" font-size="14" y="94.3543"
                  stroke="none">AM180953</text><path d="M73.7071 122.1732 L74 122.1732 L74 123.0236 L73.7071 123.0236 Z"
                  stroke="none"/>
            <text x="44.6423" xml:space="preserve" y="117" stroke="none">NT1.9</text><line stroke-linecap="butt"
                  fill="none" x1="74.3059" x2="74.3059" y1="108.1417"
                  stroke-linejoin="bevel" y2="137.0551" stroke-width="0.8504"/>
            <path d="M74.7311 108.1417 L87.5348 108.1417 L87.5348 108.9921 L74.7311 108.9921 Z"
                  stroke="none"/>
            <text x="90.3695" xml:space="preserve" font-size="14" y="113.063"
                  stroke="none">AJ891122</text><path d="M74.7311 136.2047 L88 136.2047 L88 137.0551 L74.7311 137.0551 Z"
                  stroke="none"/>
            <text x="52.757" xml:space="preserve" y="131.0315" stroke="none">NT1.20</text><line stroke-linecap="butt"
                  fill="none" x1="88.3014" x2="88.3014" y1="126.8504"
                  stroke-linejoin="bevel" y2="146.4095" stroke-width="0.8504"/>
            <path d="M88.7266 126.8504 L90.9483 126.8504 L90.9483 127.7008 L88.7266 127.7008 Z"
                  stroke="none"/>
            <text x="93.783" xml:space="preserve" font-size="14" y="131.7717"
                  stroke="none">D16423</text><path d="M88.7266 145.5591 L95.6135 145.5591 L95.6135 146.4095 L88.7266 146.4095 Z"
                  stroke="none"/>
            <text x="98.4481" xml:space="preserve" font-size="14" y="150.4803"
                  stroke="none">AM180707</text><path d="M71.7727 173.6221 L79 173.6221 L79 174.4725 L71.7727 174.4725 Z"
                  stroke="none"/>
            <text x="43.5405" xml:space="preserve" y="168.4488" stroke="none">NT1.14</text><line stroke-linecap="butt"
                  fill="none" x1="79.0849" x2="79.0849" y1="164.2677"
                  stroke-linejoin="bevel" y2="183.8268" stroke-width="0.8504"/>
            <path d="M79.5101 164.2677 L89.9243 164.2677 L89.9243 165.1181 L79.5101 165.1181 Z"
                  stroke="none"/>
            <text x="92.759" xml:space="preserve" font-size="14" y="169.189"
                  stroke="none">D16426</text><path d="M79.5101 182.9764 L91.6311 182.9764 L91.6311 183.8268 L79.5101 183.8268 Z"
                  stroke="none"/>
            <text x="94.4657" xml:space="preserve" font-size="14" y="187.8976"
                  stroke="none">16419.0</text><path d="M64.8319 294.2052 L69 294.2052 L69 295.0556 L64.8319 295.0556 Z"
                  stroke="none"/>
            <text x="39.4875" xml:space="preserve" y="289.032" stroke="none">NT1.2</text><line stroke-linecap="butt"
                  fill="none" x1="69.0719" x2="69.0719" y1="223.0246"
                  stroke-linejoin="bevel" y2="366.2362" stroke-width="0.8504"/>
            <path d="M69.4971 223.0246 L71 223.0246 L71 223.875 L69.4971 223.875 Z"
                  stroke="none"/>
            <text x="41.0144" xml:space="preserve" y="217.8514" stroke="none">NT1.3</text><line stroke-linecap="butt"
                  fill="none" x1="70.6648" x2="70.6648" y1="201.685"
                  stroke-linejoin="bevel" y2="245.2146" stroke-width="0.8504"/>
            <path d="M71.09 201.685 L96.8651 201.685 L96.8651 202.5354 L71.09 202.5354 Z"
                  stroke="none"/>
            <text x="99.6997" xml:space="preserve" font-size="14" y="206.6063"
                  stroke="none">AF248638</text><path d="M71.09 244.3642 L73 244.3642 L73 245.2146 L71.09 245.2146 Z"
                  stroke="none"/>
            <text x="42.7821" xml:space="preserve" y="239.191" stroke="none">NT1.5</text><line stroke-linecap="butt"
                  fill="none" x1="72.4854" x2="72.4854" y1="220.3937"
                  stroke-linejoin="bevel" y2="269.1851" stroke-width="0.8504"/>
            <path d="M72.9106 220.3937 L87.7624 220.3937 L87.7624 221.2441 L72.9106 221.2441 Z"
                  stroke="none"/>
            <text x="90.597" xml:space="preserve" font-size="14" y="225.315"
                  stroke="none">D16421</text><path d="M72.9106 268.3347 L74 268.3347 L74 269.1851 L72.9106 269.1851 Z"
                  stroke="none"/>
            <text x="44.3009" xml:space="preserve" y="263.1615" stroke="none">NT1.8</text><line stroke-linecap="butt"
                  fill="none" x1="73.9645" x2="73.9645" y1="239.1024"
                  stroke-linejoin="bevel" y2="298.4174" stroke-width="0.8504"/>
            <path d="M74.3897 239.1024 L92.7689 239.1024 L92.7689 239.9528 L74.3897 239.9528 Z"
                  stroke="none"/>
            <text x="95.6035" xml:space="preserve" font-size="14" y="244.0237"
                  stroke="none">AM408117</text><path d="M74.3897 297.567 L76 297.567 L76 298.4174 L74.3897 298.4174 Z"
                  stroke="none"/>
            <text x="40.0131" xml:space="preserve" y="292.3937" stroke="none">NT1.10</text><line stroke-linecap="butt"
                  fill="none" x1="75.5575" x2="75.5575" y1="271.8426"
                  stroke-linejoin="bevel" y2="324.1418" stroke-width="0.8504"/>
            <path d="M75.9827 271.8426 L76 271.8426 L76 272.693 L75.9827 272.693 Z"
                  stroke="none"/>
            <text x="42.0702" xml:space="preserve" y="266.6693" stroke="none">NT1.11</text><line stroke-linecap="butt"
                  fill="none" x1="76.2402" x2="76.2402" y1="257.8111"
                  stroke-linejoin="bevel" y2="286.7245" stroke-width="0.8504"/>
            <path d="M76.6655 257.8111 L89.014 257.8111 L89.014 258.6615 L76.6655 258.6615 Z"
                  stroke="none"/>
            <text x="91.8487" xml:space="preserve" font-size="14" y="262.7323"
                  stroke="none">AF452106</text><path d="M76.6655 285.8741 L88 285.8741 L88 286.7245 L76.6655 286.7245 Z"
                  stroke="none"/>
            <text x="54.1313" xml:space="preserve" y="280.7009" stroke="none">NT1.21</text><line stroke-linecap="butt"
                  fill="none" x1="88.3014" x2="88.3014" y1="276.5198"
                  stroke-linejoin="bevel" y2="296.0788" stroke-width="0.8504"/>
            <path d="M88.7266 276.5198 L93.3378 276.5198 L93.3378 277.3702 L88.7266 277.3702 Z"
                  stroke="none"/>
            <text x="96.1725" xml:space="preserve" font-size="14" y="281.441"
                  stroke="none">X53855</text><path d="M88.7266 295.2285 L95.8411 295.2285 L95.8411 296.0789 L88.7266 296.0789 Z"
                  stroke="none"/>
            <text x="98.6757" xml:space="preserve" font-size="14" y="300.1497"
                  stroke="none">D70846</text><path d="M75.9827 323.2914 L77 323.2914 L77 324.1418 L75.9827 324.1418 Z"
                  stroke="none"/>
            <text x="41.8733" xml:space="preserve" y="318.1182" stroke="none">NT1.12</text><line stroke-linecap="butt"
                  fill="none" x1="77.3781" x2="77.3781" y1="313.9371"
                  stroke-linejoin="bevel" y2="333.4961" stroke-width="0.8504"/>
            <path d="M77.8033 313.9371 L92.9965 313.9371 L92.9965 314.7875 L77.8033 314.7875 Z"
                  stroke="none"/>
            <text x="95.8311" xml:space="preserve" font-size="14" y="318.8583"
                  stroke="none">D16428</text><path d="M77.8033 332.6458 L98.6857 332.6458 L98.6857 333.4962 L77.8033 333.4962 Z"
                  stroke="none"/>
            <text x="101.5203" xml:space="preserve" font-size="14" y="337.567"
                  stroke="none">D16429</text><path d="M69.4971 365.3859 L73 365.3859 L73 366.2363 L69.4971 366.2363 Z"
                  stroke="none"/>
            <text x="43.4038" xml:space="preserve" y="360.2126" stroke="none">NT1.6</text><line stroke-linecap="butt"
                  fill="none" x1="73.0543" x2="73.0543" y1="351.3543"
                  stroke-linejoin="bevel" y2="380.2677" stroke-width="0.8504"/>
            <path d="M73.4795 351.3543 L114.7292 351.3543 L114.7292 352.2047 L73.4795 352.2047 Z"
                  stroke="none"/>
            <text x="117.5638" xml:space="preserve" font-size="14" y="356.2756"
                  stroke="none">M59063</text><path d="M73.4795 379.4174 L88 379.4174 L88 380.2678 L73.4795 380.2678 Z"
                  stroke="none"/>
            <text x="52.4897" xml:space="preserve" y="374.2442" stroke="none">NT1.18</text><line stroke-linecap="butt"
                  fill="none" x1="88.0738" x2="88.0738" y1="370.063"
                  stroke-linejoin="bevel" y2="389.6221" stroke-width="0.8504"/>
            <path d="M88.499 370.063 L94.3619 370.063 L94.3619 370.9135 L88.499 370.9135 Z"
                  stroke="none"/>
            <text x="97.1965" xml:space="preserve" font-size="14" y="374.9843"
                  stroke="none">Y16933</text><path d="M88.499 388.7717 L95.3859 388.7717 L95.3859 389.6221 L88.499 389.6221 Z"
                  stroke="none"/>
            <text x="98.2206" xml:space="preserve" font-size="14" y="393.693"
                  stroke="none">Y16929</text>
        </g>
    </g>
</svg>
