<?xml version="1.0"?>
<!DOCTYPE svg PUBLIC '-//W3C//DTD SVG 1.0//EN'
    'http://www.w3.org/TR/2001/REC-SVG-20010904/DTD/svg10.dtd' >

<svg fill-opacity="1" xmlns:xlink="http://www.w3.org/1999/xlink"
     color-rendering="auto" color-interpolation="auto" stroke="black"
     text-rendering="auto" stroke-linecap="square" stroke-miterlimit="10"
     stroke-opacity="1" shape-rendering="auto" fill="black"
     stroke-dasharray="none" font-weight="normal" stroke-width="1"
     xmlns="http://www.w3.org/2000/svg" font-family="&apos;Dialog&apos;"
     font-style="normal" stroke-linejoin="miter" font-size="12"
     stroke-dashoffset="0" image-rendering="auto">
    <!--Generated by the Batik Graphics2D SVG Generator-->
    <defs id="genericDefs"/>
    <g>
        <g fill="white" stroke="white">
            <rect x="0" width="180" height="485" y="0" stroke="none"/>
            <path fill="black"
                  d="M5 333.7286 L44 333.7286 L44 334.579 L5 334.579 Z"
                  stroke="none"/>
        </g>
        <g font-family="&apos;Arial&apos;" font-size="9">
            <text x="8.5039" xml:space="preserve" y="328.5554" stroke="none">NT1.49</text><line stroke-linecap="butt"
                  fill="none" x1="44.088" x2="44.088" y1="256.7879"
                  stroke-linejoin="bevel" y2="410.6693" stroke-width="0.8504"/>
            <path d="M44.5132 256.7879 L46 256.7879 L46 257.6383 L44.5132 257.6383 Z"
                  stroke="none"/>
            <text x="16.3699" xml:space="preserve" y="251.6147" stroke="none">NT1.2</text><line stroke-linecap="butt"
                  fill="none" x1="45.9543" x2="45.9543" y1="194.9616"
                  stroke-linejoin="bevel" y2="319.4646" stroke-width="0.8504"/>
            <path d="M46.3795 194.9616 L49 194.9616 L49 195.812 L46.3795 195.812 Z"
                  stroke="none"/>
            <text x="19.5297" xml:space="preserve" y="189.7884" stroke="none">NT1.4</text><line stroke-linecap="butt"
                  fill="none" x1="49.1537" x2="49.1537" y1="153.1595"
                  stroke-linejoin="bevel" y2="237.6142" stroke-width="0.8504"/>
            <path d="M49.5789 153.1595 L52 153.1595 L52 154.0099 L49.5789 154.0099 Z"
                  stroke="none"/>
            <text x="22.436" xml:space="preserve" y="147.9862" stroke="none">NT1.7</text><line stroke-linecap="butt"
                  fill="none" x1="52.0865" x2="52.0865" y1="113.9882"
                  stroke-linejoin="bevel" y2="193.1811" stroke-width="0.8504"/>
            <path d="M52.5117 113.9882 L65 113.9882 L65 114.8386 L52.5117 114.8386 Z"
                  stroke="none"/>
            <text x="29.784" xml:space="preserve" y="108.815" stroke="none">NT1.10</text><line stroke-linecap="butt"
                  fill="none" x1="65.3284" x2="65.3284" y1="73.063"
                  stroke-linejoin="bevel" y2="155.7638" stroke-width="0.8504"/>
            <path d="M65.7536 73.063 L72 73.063 L72 73.9134 L65.7536 73.9134 Z"
                  stroke="none"/>
            <text x="36.5478" xml:space="preserve" y="67.8898" stroke="none">NT1.15</text><line stroke-linecap="butt"
                  fill="none" x1="72.1715" x2="72.1715" y1="42.6614"
                  stroke-linejoin="bevel" y2="104.315" stroke-width="0.8504"/>
            <path d="M72.5967 42.6614 L73 42.6614 L73 43.5118 L72.5967 43.5118 Z"
                  stroke="none"/>
            <text x="37.4006" xml:space="preserve" y="37.4882" stroke="none">NT1.16</text><line stroke-linecap="butt"
                  fill="none" x1="72.9714" x2="72.9714" y1="23.9528"
                  stroke-linejoin="bevel" y2="62.2205" stroke-width="0.8504"/>
            <path d="M73.3966 23.9528 L80 23.9528 L80 24.8032 L73.3966 24.8032 Z"
                  stroke="none"/>
            <text x="44.5103" xml:space="preserve" y="18.7795" stroke="none">NT1.26</text><line stroke-linecap="butt"
                  fill="none" x1="80.0811" x2="80.0811" y1="14.5984"
                  stroke-linejoin="bevel" y2="34.1575" stroke-width="0.8504"/>
            <path d="M80.5063 14.5984 L81.7 14.5984 L81.7 15.4488 L80.5063 15.4488 Z"
                  stroke="none"/>
            <text x="84.5347" xml:space="preserve" font-size="14" y="19.5197"
                  stroke="none"></text>
            <path d="M80.5063 33.3071 L81.2556 33.3071 L81.2556 34.1575 L80.5063 34.1575 Z"
                  stroke="none"/>
            <text x="84.0903" xml:space="preserve" font-size="14" y="38.2283"
                  stroke="none"></text>
            <path d="M73.3966 61.3701 L74 61.3701 L74 62.2205 L73.3966 62.2205 Z"
                  stroke="none"/>
            <text x="38.2761" xml:space="preserve" y="56.1969" stroke="none">NT1.18</text><line stroke-linecap="butt"
                  fill="none" x1="73.8601" x2="73.8601" y1="52.0157"
                  stroke-linejoin="bevel" y2="71.5748" stroke-width="0.8504"/>
            <path d="M74.2853 52.0158 L79.8337 52.0158 L79.8337 52.8661 L74.2853 52.8661 Z"
                  stroke="none"/>
            <text x="82.6684" xml:space="preserve" font-size="14" y="56.937"
                  stroke="none">AY635468</text><path d="M74.2853 70.7244 L83.2997 70.7244 L83.2997 71.5748 L74.2853 71.5748 Z"
                  stroke="none"/>
            <text x="86.1344" xml:space="preserve" font-size="14" y="75.6457"
                  stroke="none">AF052741</text><path d="M72.5967 103.4646 L80 103.4646 L80 104.315 L72.5967 104.315 Z"
                  stroke="none"/>
            <text x="44.3686" xml:space="preserve" y="98.2913" stroke="none">NT1.25</text><line stroke-linecap="butt"
                  fill="none" x1="79.9923" x2="79.9923" y1="89.4331"
                  stroke-linejoin="bevel" y2="118.3465" stroke-width="0.8504"/>
            <path d="M80.4175 89.4331 L82.5887 89.4331 L82.5887 90.2835 L80.4175 90.2835 Z"
                  stroke="none"/>
            <text x="85.4234" xml:space="preserve" font-size="14" y="94.3543"
                  stroke="none">AF052740</text><path d="M80.4175 117.4961 L83 117.4961 L83 118.3464 L80.4175 118.3464 Z"
                  stroke="none"/>
            <text x="47.4203" xml:space="preserve" y="112.3228" stroke="none">NT1.32</text><line stroke-linecap="butt"
                  fill="none" x1="82.9251" x2="82.9251" y1="108.1417"
                  stroke-linejoin="bevel" y2="127.7008" stroke-width="0.8504"/>
            <path d="M83.3503 108.1417 L84.0996 108.1417 L84.0996 108.9921 L83.3503 108.9921 Z"
                  stroke="none"/>
            <text x="86.9342" xml:space="preserve" font-size="14" y="113.063"
                  stroke="none">AF288370</text><path d="M83.3503 126.8504 L85.877 126.8504 L85.877 127.7008 L83.3503 127.7008 Z"
                  stroke="none"/>
            <text x="88.7117" xml:space="preserve" font-size="14" y="131.7717"
                  stroke="none"></text>
            <path d="M65.7536 154.9134 L75 154.9134 L75 155.7638 L65.7536 155.7638 Z"
                  stroke="none"/>
            <text x="39.6488" xml:space="preserve" y="149.7402" stroke="none">NT1.20</text><line stroke-linecap="butt"
                  fill="none" x1="75.1932" x2="75.1932" y1="145.5591"
                  stroke-linejoin="bevel" y2="165.1181" stroke-width="0.8504"/>
            <path d="M75.6184 145.5591 L82.1444 145.5591 L82.1444 146.4095 L75.6184 146.4095 Z"
                  stroke="none"/>
            <text x="84.979" xml:space="preserve" font-size="14" y="150.4803"
                  stroke="none">DQ118948</text><path d="M75.6184 164.2677 L85.3438 164.2677 L85.3438 165.1181 L75.6184 165.1181 Z"
                  stroke="none"/>
            <text x="88.1784" xml:space="preserve" font-size="14" y="169.189"
                  stroke="none">EF212001</text><path d="M52.5117 192.3307 L66 192.3307 L66 193.1811 L52.5117 193.1811 Z"
                  stroke="none"/>
            <text x="30.4457" xml:space="preserve" y="187.1575" stroke="none">NT1.12</text><line stroke-linecap="butt"
                  fill="none" x1="65.9505" x2="65.9505" y1="182.9764"
                  stroke-linejoin="bevel" y2="202.5354" stroke-width="0.8504"/>
            <path d="M66.3757 182.9764 L77.0786 182.9764 L77.0786 183.8268 L66.3757 183.8268 Z"
                  stroke="none"/>
            <text x="79.9133" xml:space="preserve" font-size="14" y="187.8976"
                  stroke="none">AJ294748</text><path d="M66.3757 201.6851 L79.9225 201.6851 L79.9225 202.5355 L66.3757 202.5355 Z"
                  stroke="none"/>
            <text x="82.7572" xml:space="preserve" font-size="14" y="206.6063"
                  stroke="none">AF001375</text><path d="M49.5789 236.7638 L51 236.7638 L51 237.6142 L49.5789 237.6142 Z"
                  stroke="none"/>
            <text x="20.9612" xml:space="preserve" y="231.5906" stroke="none">NT1.5</text><line stroke-linecap="butt"
                  fill="none" x1="50.6645" x2="50.6645" y1="220.3937"
                  stroke-linejoin="bevel" y2="253.9843" stroke-width="0.8504"/>
            <path d="M51.0897 220.3937 L86.4991 220.3937 L86.4991 221.2441 L51.0897 221.2441 Z"
                  stroke="none"/>
            <text x="89.3338" xml:space="preserve" font-size="14" y="225.315"
                  stroke="none">Y14697</text><path d="M51.0897 253.1339 L57 253.1339 L57 253.9843 L51.0897 253.9843 Z"
                  stroke="none"/>
            <text x="27.3996" xml:space="preserve" y="247.9607" stroke="none">NT1.9</text><line stroke-linecap="butt"
                  fill="none" x1="57.0633" x2="57.0633" y1="239.1024"
                  stroke-linejoin="bevel" y2="268.0158" stroke-width="0.8504"/>
            <path d="M57.4885 239.1024 L85.166 239.1024 L85.166 239.9528 L57.4885 239.9528 Z"
                  stroke="none"/>
            <text x="88.0007" xml:space="preserve" font-size="14" y="244.0237"
                  stroke="none">D89929</text><path d="M57.4885 267.1654 L83 267.1654 L83 268.0158 L57.4885 268.0158 Z"
                  stroke="none"/>
            <text x="47.4695" xml:space="preserve" y="261.9922" stroke="none">NT1.34</text><line stroke-linecap="butt"
                  fill="none" x1="83.0139" x2="83.0139" y1="257.8111"
                  stroke-linejoin="bevel" y2="277.3701" stroke-width="0.8504"/>
            <path d="M83.4392 257.8111 L84.9883 257.8111 L84.9883 258.6615 L83.4392 258.6615 Z"
                  stroke="none"/>
            <text x="87.823" xml:space="preserve" font-size="14" y="262.7323"
                  stroke="none"></text>
            <path d="M83.4392 276.5198 L85.6993 276.5198 L85.6993 277.3702 L83.4392 277.3702 Z"
                  stroke="none"/>
            <text x="88.5339" xml:space="preserve" font-size="14" y="281.441"
                  stroke="none">X67024</text><path d="M46.3795 318.6142 L68 318.6142 L68 319.4646 L46.3795 319.4646 Z"
                  stroke="none"/>
            <text x="32.4501" xml:space="preserve" y="313.441" stroke="none">NT1.14</text><line stroke-linecap="butt"
                  fill="none" x1="67.9946" x2="67.9946" y1="304.5827"
                  stroke-linejoin="bevel" y2="333.4961" stroke-width="0.8504"/>
            <path d="M68.4198 304.5827 L74 304.5827 L74 305.4331 L68.4198 305.4331 Z"
                  stroke="none"/>
            <text x="38.5427" xml:space="preserve" y="299.4095" stroke="none">NT1.19</text><line stroke-linecap="butt"
                  fill="none" x1="74.1267" x2="74.1267" y1="295.2284"
                  stroke-linejoin="bevel" y2="314.7874" stroke-width="0.8504"/>
            <path d="M74.5519 295.2284 L88.8986 295.2284 L88.8986 296.0788 L74.5519 296.0788 Z"
                  stroke="none"/>
            <text x="91.7333" xml:space="preserve" font-size="14" y="300.1497"
                  stroke="none"></text>
            <path d="M74.5519 313.9371 L94.5864 313.9371 L94.5864 314.7875 L74.5519 314.7875 Z"
                  stroke="none"/>
            <text x="97.4211" xml:space="preserve" font-size="14" y="318.8583"
                  stroke="none">U85853</text><path d="M68.4198 332.6457 L89.0764 332.6457 L89.0764 333.4961 L68.4198 333.4961 Z"
                  stroke="none"/>
            <text x="91.911" xml:space="preserve" font-size="14" y="337.567"
                  stroke="none">X82145</text><path d="M44.5132 409.819 L45 409.819 L45 410.6694 L44.5132 410.6694 Z"
                  stroke="none"/>
            <text x="17.0826" xml:space="preserve" y="404.6458" stroke="none">NT1.1</text><line stroke-linecap="butt"
                  fill="none" x1="45.3322" x2="45.3322" y1="379.4174"
                  stroke-linejoin="bevel" y2="441.0709" stroke-width="0.8504"/>
            <path d="M45.7574 379.4174 L48 379.4174 L48 380.2678 L45.7574 380.2678 Z"
                  stroke="none"/>
            <text x="18.2591" xml:space="preserve" y="374.2442" stroke="none">NT1.3</text><line stroke-linecap="butt"
                  fill="none" x1="47.9095" x2="47.9095" y1="360.7087"
                  stroke-linejoin="bevel" y2="398.9764" stroke-width="0.8504"/>
            <path d="M48.3347 360.7087 L65 360.7087 L65 361.5591 L48.3347 361.5591 Z"
                  stroke="none"/>
            <text x="31.1584" xml:space="preserve" y="355.5355" stroke="none">NT1.11</text><line stroke-linecap="butt"
                  fill="none" x1="65.3284" x2="65.3284" y1="351.3544"
                  stroke-linejoin="bevel" y2="370.9135" stroke-width="0.8504"/>
            <path d="M65.7537 351.3544 L72.9017 351.3544 L72.9017 352.2048 L65.7537 352.2048 Z"
                  stroke="none"/>
            <text x="75.7364" xml:space="preserve" font-size="14" y="356.2757"
                  stroke="none">ABO19390</text><path d="M65.7537 370.0631 L77.2565 370.0631 L77.2565 370.9135 L65.7537 370.9135 Z"
                  stroke="none"/>
            <text x="80.0911" xml:space="preserve" font-size="14" y="374.9843"
                  stroke="none">AJ550470</text><path d="M48.3347 398.1261 L52 398.1261 L52 398.9765 L48.3347 398.9765 Z"
                  stroke="none"/>
            <text x="21.9917" xml:space="preserve" y="392.9529" stroke="none">NT1.6</text><line stroke-linecap="butt"
                  fill="none" x1="51.6422" x2="51.6422" y1="388.7717"
                  stroke-linejoin="bevel" y2="408.3307" stroke-width="0.8504"/>
            <path d="M52.0674 388.7717 L78.3229 388.7717 L78.3229 389.6221 L52.0674 389.6221 Z"
                  stroke="none"/>
            <text x="81.1576" xml:space="preserve" font-size="14" y="393.693"
                  stroke="none">X82133</text><path d="M52.0674 407.4804 L78.7673 407.4804 L78.7673 408.3308 L52.0674 408.3308 Z"
                  stroke="none"/>
            <text x="81.6019" xml:space="preserve" font-size="14" y="412.4016"
                  stroke="none">X93021</text><path d="M45.7574 440.2206 L55 440.2206 L55 441.071 L45.7574 441.071 Z"
                  stroke="none"/>
            <text x="25.3556" xml:space="preserve" y="435.0473" stroke="none">NT1.8</text><line stroke-linecap="butt"
                  fill="none" x1="55.0193" x2="55.0193" y1="426.189"
                  stroke-linejoin="bevel" y2="455.1024" stroke-width="0.8504"/>
            <path d="M55.4445 426.1891 L89.9651 426.1891 L89.9651 427.0395 L55.4445 427.0395 Z"
                  stroke="none"/>
            <text x="92.7998" xml:space="preserve" font-size="14" y="431.1103"
                  stroke="none">U58339</text><path d="M55.4445 454.2521 L68 454.2521 L68 455.1025 L55.4445 455.1025 Z"
                  stroke="none"/>
            <text x="32.0683" xml:space="preserve" y="449.0788" stroke="none">NT1.13</text><line stroke-linecap="butt"
                  fill="none" x1="67.6391" x2="67.6391" y1="444.8977"
                  stroke-linejoin="bevel" y2="464.4568" stroke-width="0.8504"/>
            <path d="M68.0643 444.8977 L94.5865 444.8977 L94.5865 445.7481 L68.0643 445.7481 Z"
                  stroke="none"/>
            <text x="97.4211" xml:space="preserve" font-size="14" y="449.819"
                  stroke="none">U58338</text><path d="M68.0643 463.6064 L93.3423 463.6064 L93.3423 464.4568 L68.0643 464.4568 Z"
                  stroke="none"/>
            <text x="96.1769" xml:space="preserve" font-size="14" y="468.5276"
                  stroke="none">X67022</text>
        </g>
    </g>
</svg>
