<?xml version="1.0"?>
<!DOCTYPE svg PUBLIC '-//W3C//DTD SVG 1.0//EN'
    'http://www.w3.org/TR/2001/REC-SVG-20010904/DTD/svg10.dtd' >

<svg fill-opacity="1" xmlns:xlink="http://www.w3.org/1999/xlink"
     color-rendering="auto" color-interpolation="auto" stroke="black"
     text-rendering="auto" stroke-linecap="square" stroke-miterlimit="10"
     stroke-opacity="1" shape-rendering="auto" fill="black"
     stroke-dasharray="none" font-weight="normal" stroke-width="1"
     xmlns="http://www.w3.org/2000/svg" font-family="&apos;Dialog&apos;"
     font-style="normal" stroke-linejoin="miter" font-size="12"
     stroke-dashoffset="0" image-rendering="auto">
    <!--Generated by the Batik Graphics2D SVG Generator-->
    <defs id="genericDefs"/>
    <g>
        <g fill="white" stroke="white">
            <rect x="0" width="369" height="467" y="0" stroke="none"/>
            <path fill="black"
                  d="M5 75.8633 L44 75.8633 L44 76.7137 L5 76.7137 Z"
                  stroke="none"/>
        </g>
        <g font-family="&apos;Arial&apos;" font-size="9">
            <text x="8.5039" xml:space="preserve" y="70.6901" stroke="none">NT1.47</text><line stroke-linecap="butt"
                  fill="none" x1="44.0748" x2="44.0748" y1="14.5984"
                  stroke-linejoin="bevel" y2="137.1282" stroke-width="0.8504"/>
            <path d="M44.5 14.5984 L81.1694 14.5984 L81.1694 15.4488 L44.5 15.4488 Z"
                  stroke="none"/>
            <text x="84.0041" xml:space="preserve" font-size="14" y="19.5197"
                  stroke="none">M22365</text><path d="M44.5 136.2778 L81 136.2778 L81 137.1282 L44.5 137.1282 Z"
                  stroke="none"/>
            <text x="50.2164" xml:space="preserve" y="131.1046" stroke="none">NT1.1</text><line stroke-linecap="butt"
                  fill="none" x1="81.3478" x2="81.3478" y1="47.3386"
                  stroke-linejoin="bevel" y2="226.0674" stroke-width="0.8504"/>
            <path d="M81.7729 47.3386 L98 47.3386 L98 48.189 L81.7729 48.189 Z"
                  stroke="none"/>
            <text x="68.2356" xml:space="preserve" y="42.1654" stroke="none">NT1.7</text><line stroke-linecap="butt"
                  fill="none" x1="97.8861" x2="97.8861" y1="33.3071"
                  stroke-linejoin="bevel" y2="62.2205" stroke-width="0.8504"/>
            <path d="M98.3113 33.3071 L123.6261 33.3071 L123.6261 34.1575 L98.3113 34.1575 Z"
                  stroke="none"/>
            <text x="126.4607" xml:space="preserve" font-size="14" y="38.2283"
                  stroke="none">Y13299</text><path d="M98.3113 61.3701 L107 61.3701 L107 62.2205 L98.3113 62.2205 Z"
                  stroke="none"/>
            <text x="71.228" xml:space="preserve" y="56.1969" stroke="none">NT1.10</text><line stroke-linecap="butt"
                  fill="none" x1="106.7724" x2="106.7724" y1="52.0157"
                  stroke-linejoin="bevel" y2="71.5748" stroke-width="0.8504"/>
            <path d="M107.1976 52.0158 L124.1197 52.0158 L124.1197 52.8661 L107.1976 52.8661 Z"
                  stroke="none"/>
            <text x="126.9544" xml:space="preserve" font-size="14" y="56.937"
                  stroke="none">DQ421388</text><path d="M107.1976 70.7244 L131.0313 70.7244 L131.0313 71.5748 L107.1976 71.5748 Z"
                  stroke="none"/>
            <text x="133.8659" xml:space="preserve" font-size="14" y="75.6457"
                  stroke="none">D14555</text><path d="M81.7729 225.217 L84 225.217 L84 226.0674 L81.7729 226.0674 Z"
                  stroke="none"/>
            <text x="54.6594" xml:space="preserve" y="220.0438" stroke="none">NT1.3</text><line stroke-linecap="butt"
                  fill="none" x1="84.3098" x2="84.3098" y1="89.4331"
                  stroke-linejoin="bevel" y2="361.8514" stroke-width="0.8504"/>
            <path d="M84.735 89.4331 L116.2208 89.4331 L116.2208 90.2835 L84.735 90.2835 Z"
                  stroke="none"/>
            <text x="119.0555" xml:space="preserve" font-size="14" y="94.3543"
                  stroke="none">AJ306890</text><path d="M84.735 361.001 L91 361.001 L91 361.8514 L84.735 361.8514 Z"
                  stroke="none"/>
            <text x="60.8568" xml:space="preserve" y="355.8278" stroke="none">NT1.4</text><line stroke-linecap="butt"
                  fill="none" x1="90.4809" x2="90.4809" y1="286.4587"
                  stroke-linejoin="bevel" y2="436.3937" stroke-width="0.8504"/>
            <path d="M90.9061 286.4587 L94 286.4587 L94 287.3091 L90.9061 287.3091 Z"
                  stroke="none"/>
            <text x="63.7396" xml:space="preserve" y="281.2854" stroke="none">NT1.5</text><line stroke-linecap="butt"
                  fill="none" x1="93.443" x2="93.443" y1="206.3622"
                  stroke-linejoin="bevel" y2="367.4055" stroke-width="0.8504"/>
            <path d="M93.8682 206.3622 L98 206.3622 L98 207.2126 L93.8682 207.2126 Z"
                  stroke="none"/>
            <text x="68.2356" xml:space="preserve" y="201.189" stroke="none">NT1.6</text><line stroke-linecap="butt"
                  fill="none" x1="97.8861" x2="97.8861" y1="164.2677"
                  stroke-linejoin="bevel" y2="249.3071" stroke-width="0.8504"/>
            <path d="M98.3113 164.2677 L104 164.2677 L104 165.1181 L98.3113 165.1181 Z"
                  stroke="none"/>
            <text x="74.6403" xml:space="preserve" y="159.0945" stroke="none">NT1.9</text><line stroke-linecap="butt"
                  fill="none" x1="104.304" x2="104.304" y1="136.2047"
                  stroke-linejoin="bevel" y2="193.1811" stroke-width="0.8504"/>
            <path d="M104.7292 136.2047 L108 136.2047 L108 137.0551 L104.7292 137.0551 Z"
                  stroke="none"/>
            <text x="73.5897" xml:space="preserve" y="131.0315" stroke="none">NT1.11</text><line stroke-linecap="butt"
                  fill="none" x1="107.7598" x2="107.7598" y1="117.4961"
                  stroke-linejoin="bevel" y2="155.7638" stroke-width="0.8504"/>
            <path d="M108.185 117.4961 L117 117.4961 L117 118.3464 L108.185 118.3464 Z"
                  stroke="none"/>
            <text x="82.9697" xml:space="preserve" y="112.3228" stroke="none">NT1.21</text><line stroke-linecap="butt"
                  fill="none" x1="117.1397" x2="117.1397" y1="108.1417"
                  stroke-linejoin="bevel" y2="127.7008" stroke-width="0.8504"/>
            <path d="M117.5649 108.1417 L133.4997 108.1417 L133.4997 108.9921 L117.5649 108.9921 Z"
                  stroke="none"/>
            <text x="136.3343" xml:space="preserve" font-size="14" y="113.063"
                  stroke="none">AJ306889</text><path d="M117.5649 126.8504 L129.0566 126.8504 L129.0566 127.7008 L117.5649 127.7008 Z"
                  stroke="none"/>
            <text x="131.8912" xml:space="preserve" font-size="14" y="131.7717"
                  stroke="none">X67023</text><path d="M108.185 154.9134 L114 154.9134 L114 155.7638 L108.185 155.7638 Z"
                  stroke="none"/>
            <text x="78.6068" xml:space="preserve" y="149.7401" stroke="none">NT1.17</text><line stroke-linecap="butt"
                  fill="none" x1="114.1776" x2="114.1776" y1="145.559"
                  stroke-linejoin="bevel" y2="165.1181" stroke-width="0.8504"/>
            <path d="M114.6028 145.5591 L121.6513 145.5591 L121.6513 146.4095 L114.6028 146.4095 Z"
                  stroke="none"/>
            <text x="124.486" xml:space="preserve" font-size="14" y="150.4803"
                  stroke="none">AJ616910</text><path d="M114.6028 164.2677 L126.5882 164.2677 L126.5882 165.1181 L114.6028 165.1181 Z"
                  stroke="none"/>
            <text x="129.4228" xml:space="preserve" font-size="14" y="169.189"
                  stroke="none">AJ295145</text><path d="M104.7292 192.3307 L113 192.3307 L113 193.1811 L104.7292 193.1811 Z"
                  stroke="none"/>
            <text x="77.1522" xml:space="preserve" y="187.1575" stroke="none">NT1.14</text><line stroke-linecap="butt"
                  fill="none" x1="112.6965" x2="112.6965" y1="182.9764"
                  stroke-linejoin="bevel" y2="202.5354" stroke-width="0.8504"/>
            <path d="M113.1217 182.9764 L118.1955 182.9764 L118.1955 183.8268 L113.1217 183.8268 Z"
                  stroke="none"/>
            <text x="121.0302" xml:space="preserve" font-size="14" y="187.8976"
                  stroke="none">AY268080</text><path d="M113.1217 201.6851 L122.145 201.6851 L122.145 202.5355 L113.1217 202.5355 Z"
                  stroke="none"/>
            <text x="124.9796" xml:space="preserve" font-size="14" y="206.6063"
                  stroke="none">AF211860</text><path d="M98.3113 248.4567 L100 248.4567 L100 249.3071 L98.3113 249.3071 Z"
                  stroke="none"/>
            <text x="70.6908" xml:space="preserve" y="243.2835" stroke="none">NT1.8</text><line stroke-linecap="butt"
                  fill="none" x1="100.3545" x2="100.3545" y1="229.748"
                  stroke-linejoin="bevel" y2="268.0158" stroke-width="0.8504"/>
            <path d="M100.7797 229.748 L118 229.748 L118 230.5984 L100.7797 230.5984 Z"
                  stroke="none"/>
            <text x="82.1286" xml:space="preserve" y="224.5748" stroke="none">NT1.22</text><line stroke-linecap="butt"
                  fill="none" x1="117.6334" x2="117.6334" y1="220.3937"
                  stroke-linejoin="bevel" y2="239.9528" stroke-width="0.8504"/>
            <path d="M118.0586 220.3937 L133.7465 220.3937 L133.7465 221.2441 L118.0586 221.2441 Z"
                  stroke="none"/>
            <text x="136.5811" xml:space="preserve" font-size="14" y="225.315"
                  stroke="none">AJ306894</text><path d="M118.0586 239.1024 L138.9302 239.1024 L138.9302 239.9528 L118.0586 239.9528 Z"
                  stroke="none"/>
            <text x="141.7648" xml:space="preserve" font-size="14" y="244.0237"
                  stroke="none">AJ306893</text><path d="M100.7797 267.1654 L108 267.1654 L108 268.0158 L100.7797 268.0158 Z"
                  stroke="none"/>
            <text x="72.255" xml:space="preserve" y="261.9921" stroke="none">NT1.12</text><line stroke-linecap="butt"
                  fill="none" x1="107.7597" x2="107.7597" y1="257.811"
                  stroke-linejoin="bevel" y2="277.3701" stroke-width="0.8504"/>
            <path d="M108.1849 257.811 L124.1197 257.811 L124.1197 258.6614 L108.1849 258.6614 Z"
                  stroke="none"/>
            <text x="126.9544" xml:space="preserve" font-size="14" y="262.7323"
                  stroke="none">AF054286</text><path d="M108.1849 276.5197 L126.0944 276.5197 L126.0944 277.3701 L108.1849 277.3701 Z"
                  stroke="none"/>
            <text x="128.9291" xml:space="preserve" font-size="14" y="281.441"
                  stroke="none">X92417</text><path d="M93.8682 366.5552 L111 366.5552 L111 367.4056 L93.8682 367.4056 Z"
                  stroke="none"/>
            <text x="75.6447" xml:space="preserve" y="361.382" stroke="none">NT1.13</text><line stroke-linecap="butt"
                  fill="none" x1="111.2155" x2="111.2155" y1="334.9843"
                  stroke-linejoin="bevel" y2="398.9764" stroke-width="0.8504"/>
            <path d="M111.6407 334.9843 L116 334.9843 L116 335.8347 L111.6407 335.8347 Z"
                  stroke="none"/>
            <text x="80.0746" xml:space="preserve" y="329.8111" stroke="none">NT1.18</text><line stroke-linecap="butt"
                  fill="none" x1="115.6587" x2="115.6587" y1="309.2599"
                  stroke-linejoin="bevel" y2="361.5591" stroke-width="0.8504"/>
            <path d="M116.0839 309.2599 L118 309.2599 L118 310.1103 L116.0839 310.1103 Z"
                  stroke="none"/>
            <text x="82.3094" xml:space="preserve" y="304.0867" stroke="none">NT1.23</text><line stroke-linecap="butt"
                  fill="none" x1="117.8802" x2="117.8802" y1="295.2284"
                  stroke-linejoin="bevel" y2="324.1418" stroke-width="0.8504"/>
            <path d="M118.3054 295.2284 L127.5755 295.2284 L127.5755 296.0788 L118.3054 296.0788 Z"
                  stroke="none"/>
            <text x="130.4102" xml:space="preserve" font-size="14" y="300.1497"
                  stroke="none">X87219</text><path d="M118.3054 323.2914 L119 323.2914 L119 324.1418 L118.3054 324.1418 Z"
                  stroke="none"/>
            <text x="82.9971" xml:space="preserve" y="318.1182" stroke="none">NT1.25</text><line stroke-linecap="butt"
                  fill="none" x1="118.6208" x2="118.6208" y1="313.9371"
                  stroke-linejoin="bevel" y2="333.4961" stroke-width="0.8504"/>
            <path d="M119.046 313.9371 L121.1577 313.9371 L121.1577 314.7875 L119.046 314.7875 Z"
                  stroke="none"/>
            <text x="123.9923" xml:space="preserve" font-size="14" y="318.8583"
                  stroke="none">AF211861</text><path d="M119.046 332.6458 L126.0945 332.6458 L126.0945 333.4962 L119.046 333.4962 Z"
                  stroke="none"/>
            <text x="128.9291" xml:space="preserve" font-size="14" y="337.567"
                  stroke="none">ABOZ1386</text><path d="M116.0839 360.7087 L120 360.7087 L120 361.5591 L116.0839 361.5591 Z"
                  stroke="none"/>
            <text x="84.2841" xml:space="preserve" y="355.5355" stroke="none">NT1.26</text><line stroke-linecap="butt"
                  fill="none" x1="119.8549" x2="119.8549" y1="351.3544"
                  stroke-linejoin="bevel" y2="370.9135" stroke-width="0.8504"/>
            <path d="M120.2801 351.3544 L125.1071 351.3544 L125.1071 352.2048 L120.2801 352.2048 Z"
                  stroke="none"/>
            <text x="127.9417" xml:space="preserve" font-size="14" y="356.2757"
                  stroke="none">AJ277205</text><path d="M120.2801 370.0631 L125.1071 370.0631 L125.1071 370.9135 L120.2801 370.9135 Z"
                  stroke="none"/>
            <text x="127.9417" xml:space="preserve" font-size="14" y="374.9843"
                  stroke="none">AY373448</text><path d="M111.6407 398.1261 L123 398.1261 L123 398.9765 L111.6407 398.9765 Z"
                  stroke="none"/>
            <text x="87.2726" xml:space="preserve" y="392.9529" stroke="none">NT1.30</text><line stroke-linecap="butt"
                  fill="none" x1="122.817" x2="122.817" y1="388.7717"
                  stroke-linejoin="bevel" y2="408.3307" stroke-width="0.8504"/>
            <path d="M123.2423 388.7717 L123.6261 388.7717 L123.6261 389.6221 L123.2423 389.6221 Z"
                  stroke="none"/>
            <text x="126.4607" xml:space="preserve" font-size="14" y="393.693"
                  stroke="none">AJ295144</text><path d="M123.2423 407.4804 L124.6134 407.4804 L124.6134 408.3308 L123.2423 408.3308 Z"
                  stroke="none"/>
            <text x="127.4481" xml:space="preserve" font-size="14" y="412.4016"
                  stroke="none"></text>
            <path d="M90.9061 435.5434 L114 435.5434 L114 436.3938 L90.9061 436.3938 Z"
                  stroke="none"/>
            <text x="78.0602" xml:space="preserve" y="430.3701" stroke="none">NT1.15</text><line stroke-linecap="butt"
                  fill="none" x1="113.6839" x2="113.6839" y1="426.189"
                  stroke-linejoin="bevel" y2="445.7481" stroke-width="0.8504"/>
            <path d="M114.1091 426.1891 L116.2208 426.1891 L116.2208 427.0395 L114.1091 427.0395 Z"
                  stroke="none"/>
            <text x="119.0555" xml:space="preserve" font-size="14" y="431.1103"
                  stroke="none">DQ641495</text><path d="M114.1091 444.8977 L113.5056 444.8977 L113.5056 445.7481 L114.1091 445.7481 Z"
                  stroke="none"/>
            <text x="116.3402" xml:space="preserve" font-size="14" y="449.819"
                  stroke="none">ModicisalibactertunisiensisLIT3</text>
        </g>
    </g>
</svg>
