<?xml version="1.0"?>
<!DOCTYPE svg PUBLIC '-//W3C//DTD SVG 1.0//EN'
    'http://www.w3.org/TR/2001/REC-SVG-20010904/DTD/svg10.dtd' >

<svg fill-opacity="1" xmlns:xlink="http://www.w3.org/1999/xlink"
     color-rendering="auto" color-interpolation="auto" stroke="black"
     text-rendering="auto" stroke-linecap="square" stroke-miterlimit="10"
     stroke-opacity="1" shape-rendering="auto" fill="black"
     stroke-dasharray="none" font-weight="normal" stroke-width="1"
     xmlns="http://www.w3.org/2000/svg" font-family="&apos;Dialog&apos;"
     font-style="normal" stroke-linejoin="miter" font-size="12"
     stroke-dashoffset="0" image-rendering="auto">
    <!--Generated by the Batik Graphics2D SVG Generator-->
    <defs id="genericDefs"/>
    <g>
        <g fill="white" stroke="white">
            <rect x="0" width="326" height="318" y="0" stroke="none"/>
            <path fill="black"
                  d="M5 250.8053 L18 250.8053 L18 251.6557 L5 251.6557 Z"
                  stroke="none"/>
            <circle fill="black" r="1.2756" cx="17.4331" cy="250.8053"
                    stroke="none"/>
            <path fill="black"
                  d="M17.8583 249.9549 L18 249.9549 L18 250.8053 L17.8583 250.8053 Z"
                  stroke="none"/>
        </g>
        <g font-family="&apos;Arial&apos;" font-size="9">
            <text x="-11.9757" xml:space="preserve" y="244.7816" stroke="none">NT1.2</text><line stroke-linecap="butt"
                  fill="none" x1="17.6088" x2="17.6088" y1="204.6814"
                  stroke-linejoin="bevel" y2="296.0788" stroke-width="0.8504"/>
            <path d="M18.0339 204.6814 L27 204.6814 L27 205.5318 L18.0339 205.5318 Z"
                  stroke="none"/>
            <text x="-2.7931" xml:space="preserve" y="199.5081" stroke="none">NT1.4</text><line stroke-linecap="butt"
                  fill="none" x1="26.8309" x2="26.8309" y1="160.906"
                  stroke-linejoin="bevel" y2="249.3071" stroke-width="0.8504"/>
            <path d="M27.2561 160.906 L51 160.906 L51 161.7564 L27.2561 161.7564 Z"
                  stroke="none"/>
            <text x="21.7597" xml:space="preserve" y="155.7328" stroke="none">NT1.8</text><line stroke-linecap="butt"
                  fill="none" x1="51.4233" x2="51.4233" y1="129.4813"
                  stroke-linejoin="bevel" y2="193.1811" stroke-width="0.8504"/>
            <path d="M51.8485 129.4813 L54 129.4813 L54 130.3317 L51.8485 130.3317 Z"
                  stroke="none"/>
            <text x="18.5752" xml:space="preserve" y="124.3081" stroke="none">NT1.13</text><line stroke-linecap="butt"
                  fill="none" x1="54.146" x2="54.146" y1="104.0492"
                  stroke-linejoin="bevel" y2="155.7638" stroke-width="0.8504"/>
            <path d="M54.5712 104.0492 L56 104.0492 L56 104.8996 L54.5712 104.8996 Z"
                  stroke="none"/>
            <text x="20.3582" xml:space="preserve" y="98.876" stroke="none">NT1.14</text><line stroke-linecap="butt"
                  fill="none" x1="55.9026" x2="55.9026" y1="81.248"
                  stroke-linejoin="bevel" y2="127.7008" stroke-width="0.8504"/>
            <path d="M56.3278 81.248 L57 81.248 L57 82.0984 L56.3278 82.0984 Z"
                  stroke="none"/>
            <text x="21.4207" xml:space="preserve" y="76.0748" stroke="none">NT1.15</text><line stroke-linecap="butt"
                  fill="none" x1="57.0444" x2="57.0444" y1="54.3543"
                  stroke-linejoin="bevel" y2="108.9921" stroke-width="0.8504"/>
            <path d="M57.4696 54.3543 L59 54.3543 L59 55.2047 L57.4696 55.2047 Z"
                  stroke="none"/>
            <text x="23.5815" xml:space="preserve" y="49.1811" stroke="none">NT1.16</text><line stroke-linecap="butt"
                  fill="none" x1="59.1524" x2="59.1524" y1="28.6299"
                  stroke-linejoin="bevel" y2="80.9291" stroke-width="0.8504"/>
            <path d="M59.5776 28.6299 L65 28.6299 L65 29.4803 L59.5776 29.4803 Z"
                  stroke="none"/>
            <text x="28.9259" xml:space="preserve" y="23.4567" stroke="none">NT1.19</text><line stroke-linecap="butt"
                  fill="none" x1="64.51" x2="64.51" y1="14.5984"
                  stroke-linejoin="bevel" y2="43.5118" stroke-width="0.8504"/>
            <path d="M64.9352 14.5984 L82.2656 14.5984 L82.2656 15.4488 L64.9352 15.4488 Z"
                  stroke="none"/>
            <text x="85.1003" xml:space="preserve" font-size="14" y="19.5197"
                  stroke="none">AM492191</text><path d="M64.9352 42.6614 L69 42.6614 L69 43.5118 L64.9352 43.5118 Z"
                  stroke="none"/>
            <text x="33.3967" xml:space="preserve" y="37.4882" stroke="none">NT1.22</text><line stroke-linecap="butt"
                  fill="none" x1="68.9015" x2="68.9015" y1="33.3071"
                  stroke-linejoin="bevel" y2="52.8661" stroke-width="0.8504"/>
            <path d="M69.3267 33.3071 L89.292 33.3071 L89.292 34.1575 L69.3267 34.1575 Z"
                  stroke="none"/>
            <text x="92.1267" xml:space="preserve" font-size="14" y="38.2283"
                  stroke="none">A1248393</text><path d="M69.3267 52.0158 L80.0699 52.0158 L80.0699 52.8661 L69.3267 52.8661 Z"
                  stroke="none"/>
            <text x="82.9045" xml:space="preserve" font-size="14" y="56.937"
                  stroke="none">Mar/nobactersp.CG157051</text><path d="M59.5776 80.0788 L68 80.0788 L68 80.9291 L59.5776 80.9291 Z"
                  stroke="none"/>
            <text x="34.2045" xml:space="preserve" y="74.9055" stroke="none">NT1.21</text><line stroke-linecap="butt"
                  fill="none" x1="68.3745" x2="68.3745" y1="70.7244"
                  stroke-linejoin="bevel" y2="90.2835" stroke-width="0.8504"/>
            <path d="M68.7997 70.7244 L81.2995 70.7244 L81.2995 71.5748 L68.7997 71.5748 Z"
                  stroke="none"/>
            <text x="84.1341" xml:space="preserve" font-size="14" y="75.6457"
                  stroke="none">PseudomonasaeruginosaPAO1</text><path d="M68.7997 89.4331 L81.563 89.4331 L81.563 90.2835 L68.7997 90.2835 Z"
                  stroke="none"/>
            <text x="84.3976" xml:space="preserve" font-size="14" y="94.3543"
                  stroke="none">AF197466</text><path d="M57.4696 108.1417 L79.2794 108.1417 L79.2794 108.9921 L57.4696 108.9921 Z"
                  stroke="none"/>
            <text x="82.1141" xml:space="preserve" font-size="14" y="113.063"
                  stroke="none">NC OO7404</text><path d="M56.3278 126.8504 L87.4476 126.8504 L87.4476 127.7008 L56.3278 127.7008 Z"
                  stroke="none"/>
            <text x="90.2823" xml:space="preserve" font-size="14" y="131.7717"
                  stroke="none">AY078271</text><path d="M54.5712 154.9134 L61 154.9134 L61 155.7638 L54.5712 155.7638 Z"
                  stroke="none"/>
            <text x="25.2371" xml:space="preserve" y="149.7402" stroke="none">NT1.18</text><line stroke-linecap="butt"
                  fill="none" x1="60.8211" x2="60.8211" y1="145.5591"
                  stroke-linejoin="bevel" y2="165.1181" stroke-width="0.8504"/>
            <path d="M61.2463 145.5591 L86.8328 145.5591 L86.8328 146.4095 L61.2463 146.4095 Z"
                  stroke="none"/>
            <text x="89.6674" xml:space="preserve" font-size="14" y="150.4803"
                  stroke="none">U05002</text><path d="M61.2463 164.2677 L95.1766 164.2677 L95.1766 165.1181 L61.2463 165.1181 Z"
                  stroke="none"/>
            <text x="98.0113" xml:space="preserve" font-size="14" y="169.189"
                  stroke="none">CPOOOS62</text><path d="M51.8485 192.3307 L54 192.3307 L54 193.1811 L51.8485 193.1811 Z"
                  stroke="none"/>
            <text x="18.29" xml:space="preserve" y="187.1575" stroke="none">NT1.12</text><line stroke-linecap="butt"
                  fill="none" x1="53.7947" x2="53.7947" y1="182.9764"
                  stroke-linejoin="bevel" y2="202.5355" stroke-width="0.8504"/>
            <path d="M54.22 182.9764 L72.4287 182.9764 L72.4287 183.8268 L54.22 183.8268 Z"
                  stroke="none"/>
            <text x="75.2633" xml:space="preserve" font-size="14" y="187.8977"
                  stroke="none">X91394</text><path d="M54.22 201.6851 L64.9631 201.6851 L64.9631 202.5355 L54.22 202.5355 Z"
                  stroke="none"/>
            <text x="67.7978" xml:space="preserve" font-size="14" y="206.6063"
                  stroke="none"></text>
            <path d="M27.2561 248.4567 L45 248.4567 L45 249.3071 L27.2561 249.3071 Z"
                  stroke="none"/>
            <text x="15.3962" xml:space="preserve" y="243.2835" stroke="none">NT1.5</text><line stroke-linecap="butt"
                  fill="none" x1="45.0996" x2="45.0996" y1="229.748"
                  stroke-linejoin="bevel" y2="268.0158" stroke-width="0.8504"/>
            <path d="M45.5248 229.748 L47 229.748 L47 230.5984 L45.5248 230.5984 Z"
                  stroke="none"/>
            <text x="17.2935" xml:space="preserve" y="224.5748" stroke="none">NT1.6</text><line stroke-linecap="butt"
                  fill="none" x1="46.944" x2="46.944" y1="220.3937"
                  stroke-linejoin="bevel" y2="239.9528" stroke-width="0.8504"/>
            <path d="M47.3692 220.3937 L52.6669 220.3937 L52.6669 221.2441 L47.3692 221.2441 Z"
                  stroke="none"/>
            <text x="55.5015" xml:space="preserve" font-size="14" y="225.315"
                  stroke="none">X56813</text><path d="M47.3692 239.1024 L58.9028 239.1024 L58.9028 239.9528 L47.3692 239.9528 Z"
                  stroke="none"/>
            <text x="61.7375" xml:space="preserve" font-size="14" y="244.0237"
                  stroke="none">AY078269</text><path d="M45.5248 267.1654 L51 267.1654 L51 268.0158 L45.5248 268.0158 Z"
                  stroke="none"/>
            <text x="21.0702" xml:space="preserve" y="261.9921" stroke="none">NT1.7</text><line stroke-linecap="butt"
                  fill="none" x1="50.7207" x2="50.7207" y1="257.811"
                  stroke-linejoin="bevel" y2="277.3701" stroke-width="0.8504"/>
            <path d="M51.1459 257.811 L52.4034 257.811 L52.4034 258.6614 L51.1459 258.6614 Z"
                  stroke="none"/>
            <text x="55.2381" xml:space="preserve" font-size="14" y="262.7323"
                  stroke="none">ThaueraaromaticaT-1</text><path d="M51.1459 276.5197 L52.4913 276.5197 L52.4913 277.3701 L51.1459 277.3701 Z"
                  stroke="none"/>
            <text x="55.3259" xml:space="preserve" font-size="14" y="281.441"
                  stroke="none">AYO78273</text><path d="M18.0339 295.2284 L26.3179 295.2284 L26.3179 296.0788 L18.0339 296.0788 Z"
                  stroke="none"/>
            <text x="29.1525" xml:space="preserve" font-size="14" y="300.1497"
                  stroke="none">AJ224912</text>
        </g>
    </g>
</svg>
