<?xml version="1.0"?>
<!DOCTYPE svg PUBLIC '-//W3C//DTD SVG 1.0//EN'
    'http://www.w3.org/TR/2001/REC-SVG-20010904/DTD/svg10.dtd' >

<svg fill-opacity="1" xmlns:xlink="http://www.w3.org/1999/xlink"
     color-rendering="auto" color-interpolation="auto" stroke="black"
     text-rendering="auto" stroke-linecap="square" stroke-miterlimit="10"
     stroke-opacity="1" shape-rendering="auto" fill="black"
     stroke-dasharray="none" font-weight="normal" stroke-width="1"
     xmlns="http://www.w3.org/2000/svg" font-family="&apos;Dialog&apos;"
     font-style="normal" stroke-linejoin="miter" font-size="12"
     stroke-dashoffset="0" image-rendering="auto">
    <!--Generated by the Batik Graphics2D SVG Generator-->
    <defs id="genericDefs"/>
    <g>
        <g fill="white" stroke="white">
            <rect x="0" width="178" height="299" y="0" stroke="none"/>
            <path fill="black"
                  d="M5 213.7899 L18 213.7899 L18 214.6403 L5 214.6403 Z"
                  stroke="none"/>
            <circle fill="black" r="1.2756" cx="17.4331" cy="213.7899"
                    stroke="none"/>
            <path fill="black"
                  d="M17.8583 212.9395 L18 212.9395 L18 213.7899 L17.8583 213.7899 Z"
                  stroke="none"/>
        </g>
        <g font-family="&apos;Arial&apos;" font-size="9">
            <text x="-11.9373" xml:space="preserve" y="207.7663" stroke="none">NT1.2</text><line stroke-linecap="butt"
                  fill="none" x1="17.6471" x2="17.6471" y1="163.3908"
                  stroke-linejoin="bevel" y2="263.3386" stroke-width="0.8504"/>
            <path d="M18.0722 163.3908 L28 163.3908 L28 164.2412 L18.0722 164.2412 Z"
                  stroke="none"/>
            <text x="-1.5183" xml:space="preserve" y="158.2175" stroke="none">NT1.3</text><line stroke-linecap="butt"
                  fill="none" x1="28.1322" x2="28.1322" y1="115.7421"
                  stroke-linejoin="bevel" y2="211.8898" stroke-width="0.8504"/>
            <path d="M28.5574 115.7421 L42 115.7421 L42 116.5925 L28.5574 116.5925 Z"
                  stroke="none"/>
            <text x="12.3905" xml:space="preserve" y="110.5689" stroke="none">NT1.7</text><line stroke-linecap="butt"
                  fill="none" x1="42.041" x2="42.041" y1="76.5709"
                  stroke-linejoin="bevel" y2="155.7638" stroke-width="0.8504"/>
            <path d="M42.4662 76.5709 L54 76.5709 L54 77.4213 L42.4662 77.4213 Z"
                  stroke="none"/>
            <text x="24.5743" xml:space="preserve" y="71.3976" stroke="none">NT1.8</text><line stroke-linecap="butt"
                  fill="none" x1="54.238" x2="54.238" y1="54.3543"
                  stroke-linejoin="bevel" y2="99.6378" stroke-width="0.8504"/>
            <path d="M54.6631 54.3543 L64 54.3543 L64 55.2047 L54.6631 55.2047 Z"
                  stroke="none"/>
            <text x="28.6477" xml:space="preserve" y="49.1811" stroke="none">NT1.12</text><line stroke-linecap="butt"
                  fill="none" x1="64.1525" x2="64.1525" y1="37.9843"
                  stroke-linejoin="bevel" y2="71.5748" stroke-width="0.8504"/>
            <path d="M64.5777 37.9843 L66 37.9843 L66 38.8347 L64.5777 38.8347 Z"
                  stroke="none"/>
            <text x="30.0346" xml:space="preserve" y="32.811" stroke="none">NT1.14</text><line stroke-linecap="butt"
                  fill="none" x1="65.579" x2="65.579" y1="23.9528"
                  stroke-linejoin="bevel" y2="52.8661" stroke-width="0.8504"/>
            <path d="M66.0042 23.9528 L67 23.9528 L67 24.8032 L66.0042 24.8032 Z"
                  stroke="none"/>
            <text x="30.9354" xml:space="preserve" y="18.7795" stroke="none">NT1.16</text><line stroke-linecap="butt"
                  fill="none" x1="66.5062" x2="66.5062" y1="14.5984"
                  stroke-linejoin="bevel" y2="34.1575" stroke-width="0.8504"/>
            <path d="M66.9315 14.5984 L66.0811 14.5984 L66.0811 15.4488 L66.9315 15.4488 Z"
                  stroke="none"/>
            <text x="68.9157" xml:space="preserve" font-size="14" y="19.5197"
                  stroke="none">AB247469</text><path d="M66.9315 33.3071 L69.5761 33.3071 L69.5761 34.1575 L66.9315 34.1575 Z"
                  stroke="none"/>
            <text x="72.4107" xml:space="preserve" font-size="14" y="38.2283"
                  stroke="none">AY823971</text><path d="M66.0042 52.0158 L66.3664 52.0158 L66.3664 52.8661 L66.0042 52.8661 Z"
                  stroke="none"/>
            <text x="69.201" xml:space="preserve" font-size="14" y="56.937"
                  stroke="none">ABZ47492</text><path d="M64.5777 70.7244 L66.509 70.7244 L66.509 71.5748 L64.5777 71.5748 Z"
                  stroke="none"/>
            <text x="69.3437" xml:space="preserve" font-size="14" y="75.6457"
                  stroke="none">AY823978</text><path d="M54.6631 98.7874 L60 98.7874 L60 99.6378 L54.6631 99.6378 Z"
                  stroke="none"/>
            <text x="30.1378" xml:space="preserve" y="93.6142" stroke="none">NT1.9</text><line stroke-linecap="butt"
                  fill="none" x1="59.8015" x2="59.8015" y1="89.4331"
                  stroke-linejoin="bevel" y2="108.9921" stroke-width="0.8504"/>
            <path d="M60.2267 89.4331 L64.7258 89.4331 L64.7258 90.2835 L60.2267 90.2835 Z"
                  stroke="none"/>
            <text x="67.5605" xml:space="preserve" font-size="14" y="94.3543"
                  stroke="none">AY212697</text><path d="M60.2267 108.1417 L73.0711 108.1417 L73.0711 108.9921 L60.2267 108.9921 Z"
                  stroke="none"/>
            <text x="75.9058" xml:space="preserve" font-size="14" y="113.063"
                  stroke="none">DQQ74114</text><path d="M42.4662 154.9134 L69 154.9134 L69 155.7638 L42.4662 155.7638 Z"
                  stroke="none"/>
            <text x="33.173" xml:space="preserve" y="149.7402" stroke="none">NT1.20</text><line stroke-linecap="butt"
                  fill="none" x1="68.7174" x2="68.7174" y1="136.2047"
                  stroke-linejoin="bevel" y2="174.4725" stroke-width="0.8504"/>
            <path d="M69.1426 136.2047 L69 136.2047 L69 137.0551 L69.1426 137.0551 Z"
                  stroke="none"/>
            <text x="34.8327" xml:space="preserve" y="131.0315" stroke="none">NT1.21</text><line stroke-linecap="butt"
                  fill="none" x1="69.0027" x2="69.0027" y1="126.8504"
                  stroke-linejoin="bevel" y2="146.4095" stroke-width="0.8504"/>
            <path d="M69.4279 126.8504 L69.6474 126.8504 L69.6474 127.7008 L69.4279 127.7008 Z"
                  stroke="none"/>
            <text x="72.4821" xml:space="preserve" font-size="14" y="131.7717"
                  stroke="none">AF011347</text><path d="M69.4279 145.5591 L72.0012 145.5591 L72.0012 146.4095 L69.4279 146.4095 Z"
                  stroke="none"/>
            <text x="74.8359" xml:space="preserve" font-size="14" y="150.4803"
                  stroke="none">AY277622</text><path d="M69.1426 173.6221 L70 173.6221 L70 174.4725 L69.1426 174.4725 Z"
                  stroke="none"/>
            <text x="34.0025" xml:space="preserve" y="168.4488" stroke="none">NT1.23</text><line stroke-linecap="butt"
                  fill="none" x1="69.5733" x2="69.5733" y1="164.2677"
                  stroke-linejoin="bevel" y2="183.8268" stroke-width="0.8504"/>
            <path d="M69.9985 164.2677 L69.1481 164.2677 L69.1481 165.1181 L69.9985 165.1181 Z"
                  stroke="none"/>
            <text x="71.9827" xml:space="preserve" font-size="14" y="169.189"
                  stroke="none"></text>
            <path d="M69.9985 182.9764 L70.432 182.9764 L70.432 183.8268 L69.9985 183.8268 Z"
                  stroke="none"/>
            <text x="73.2667" xml:space="preserve" font-size="14" y="187.8976"
                  stroke="none">AF170348</text><path d="M28.5574 211.0394 L32 211.0394 L32 211.8898 L28.5574 211.8898 Z"
                  stroke="none"/>
            <text x="2.2171" xml:space="preserve" y="205.8662" stroke="none">NT1.4</text><line stroke-linecap="butt"
                  fill="none" x1="31.8412" x2="31.8412" y1="201.6851"
                  stroke-linejoin="bevel" y2="221.2441" stroke-width="0.8504"/>
            <path d="M32.2664 201.6851 L76.9228 201.6851 L76.9228 202.5355 L32.2664 202.5355 Z"
                  stroke="none"/>
            <text x="79.7575" xml:space="preserve" font-size="14" y="206.6063"
                  stroke="none">Y17601</text><path d="M32.2664 220.3938 L90.047 220.3938 L90.047 221.2442 L32.2664 221.2442 Z"
                  stroke="none"/>
            <text x="92.8817" xml:space="preserve" font-size="14" y="225.315"
                  stroke="none">M34132</text><path d="M18.0722 262.4882 L33 262.4882 L33 263.3386 L18.0722 263.3386 Z"
                  stroke="none"/>
            <text x="3.3504" xml:space="preserve" y="257.315" stroke="none">NT1.5</text><line stroke-linecap="butt"
                  fill="none" x1="33.0537" x2="33.0537" y1="248.4567"
                  stroke-linejoin="bevel" y2="277.3701" stroke-width="0.8504"/>
            <path d="M33.4789 248.4567 L36 248.4567 L36 249.3071 L33.4789 249.3071 Z"
                  stroke="none"/>
            <text x="5.9711" xml:space="preserve" y="243.2835" stroke="none">NT1.6</text><line stroke-linecap="butt"
                  fill="none" x1="35.6215" x2="35.6215" y1="239.1024"
                  stroke-linejoin="bevel" y2="258.6614" stroke-width="0.8504"/>
            <path d="M36.0467 239.1024 L61.5161 239.1024 L61.5161 239.9528 L36.0467 239.9528 Z"
                  stroke="none"/>
            <text x="64.3508" xml:space="preserve" font-size="14" y="244.0236"
                  stroke="none">AF047462</text><path d="M36.0467 257.8111 L67.0796 257.8111 L67.0796 258.6615 L36.0467 258.6615 Z"
                  stroke="none"/>
            <text x="69.9143" xml:space="preserve" font-size="14" y="262.7323"
                  stroke="none">Y17060</text><path d="M33.4789 276.5197 L62.6573 276.5197 L62.6573 277.3701 L33.4789 277.3701 Z"
                  stroke="none"/>
            <text x="65.492" xml:space="preserve" font-size="14" y="281.441"
                  stroke="none">AF011350</text>
        </g>
    </g>
</svg>
