<?xml version="1.0"?>
<!DOCTYPE svg PUBLIC '-//W3C//DTD SVG 1.0//EN'
    'http://www.w3.org/TR/2001/REC-SVG-20010904/DTD/svg10.dtd' >

<svg fill-opacity="1" xmlns:xlink="http://www.w3.org/1999/xlink"
     color-rendering="auto" color-interpolation="auto" stroke="black"
     text-rendering="auto" stroke-linecap="square" stroke-miterlimit="10"
     stroke-opacity="1" shape-rendering="auto" fill="black"
     stroke-dasharray="none" font-weight="normal" stroke-width="1"
     xmlns="http://www.w3.org/2000/svg" font-family="&apos;Dialog&apos;"
     font-style="normal" stroke-linejoin="miter" font-size="12"
     stroke-dashoffset="0" image-rendering="auto">
    <!--Generated by the Batik Graphics2D SVG Generator-->
    <defs id="genericDefs"/>
    <g>
        <g fill="white" stroke="white">
            <rect x="0" width="204" height="336" y="0" stroke="none"/>
            <path fill="black"
                  d="M5 114.3769 L44 114.3769 L44 115.2272 L5 115.2272 Z"
                  stroke="none"/>
        </g>
        <g font-family="&apos;Arial&apos;" font-size="9">
            <text x="8.5039" xml:space="preserve" y="109.2036" stroke="none">NT1.33</text><line stroke-linecap="butt"
                  fill="none" x1="44.0748" x2="44.0748" y1="14.5984"
                  stroke-linejoin="bevel" y2="214.1553" stroke-width="0.8504"/>
            <path d="M44.5 14.5984 L98.3531 14.5984 L98.3531 15.4488 L44.5 15.4488 Z"
                  stroke="none"/>
            <text x="101.1878" xml:space="preserve" font-size="14" y="19.5197"
                  stroke="none">DQ451875</text><path d="M44.5 213.3049 L63 213.3049 L63 214.1553 L44.5 214.1553 Z"
                  stroke="none"/>
            <text x="34.463" xml:space="preserve" y="208.1317" stroke="none">NT1.1</text><line stroke-linecap="butt"
                  fill="none" x1="62.7127" x2="62.7127" y1="152.4286"
                  stroke-linejoin="bevel" y2="275.0315" stroke-width="0.8504"/>
            <path d="M63.1379 152.4286 L65 152.4286 L65 153.2791 L63.1379 153.2791 Z"
                  stroke="none"/>
            <text x="35.4278" xml:space="preserve" y="147.2554" stroke="none">NT1.2</text><line stroke-linecap="butt"
                  fill="none" x1="65.0122" x2="65.0122" y1="93.8179"
                  stroke-linejoin="bevel" y2="211.8898" stroke-width="0.8504"/>
            <path d="M65.4374 93.8179 L70 93.8179 L70 94.6683 L65.4374 94.6683 Z"
                  stroke="none"/>
            <text x="39.8397" xml:space="preserve" y="88.6447" stroke="none">NT1.3</text><line stroke-linecap="butt"
                  fill="none" x1="69.4901" x2="69.4901" y1="33.3071"
                  stroke-linejoin="bevel" y2="155.1791" stroke-width="0.8504"/>
            <path d="M69.9153 33.3071 L92.5439 33.3071 L92.5439 34.1575 L69.9153 34.1575 Z"
                  stroke="none"/>
            <text x="95.3785" xml:space="preserve" font-size="14" y="38.2283"
                  stroke="none"></text>
            <path d="M69.9153 154.3287 L71 154.3287 L71 155.1791 L69.9153 155.1791 Z"
                  stroke="none"/>
            <text x="41.6815" xml:space="preserve" y="149.1555" stroke="none">NT1.4</text><line stroke-linecap="butt"
                  fill="none" x1="71.3055" x2="71.3055" y1="125.6811"
                  stroke-linejoin="bevel" y2="183.8268" stroke-width="0.8504"/>
            <path d="M71.7307 125.6811 L74 125.6811 L74 126.5315 L71.7307 126.5315 Z"
                  stroke="none"/>
            <text x="44.6807" xml:space="preserve" y="120.5079" stroke="none">NT1.6</text><line stroke-linecap="butt"
                  fill="none" x1="74.3311" x2="74.3311" y1="96.4488"
                  stroke-linejoin="bevel" y2="155.7638" stroke-width="0.8504"/>
            <path d="M74.7564 96.4488 L77 96.4488 L77 97.2992 L74.7564 97.2992 Z"
                  stroke="none"/>
            <text x="47.5853" xml:space="preserve" y="91.2756" stroke="none">NT1.7</text><line stroke-linecap="butt"
                  fill="none" x1="77.2358" x2="77.2358" y1="75.4016"
                  stroke-linejoin="bevel" y2="118.3465" stroke-width="0.8504"/>
            <path d="M77.661 75.4016 L79 75.4016 L79 76.252 L77.661 76.252 Z"
                  stroke="none"/>
            <text x="48.9034" xml:space="preserve" y="70.2284" stroke="none">NT1.8</text><line stroke-linecap="butt"
                  fill="none" x1="78.567" x2="78.567" y1="61.3701"
                  stroke-linejoin="bevel" y2="90.2835" stroke-width="0.8504"/>
            <path d="M78.9922 61.3701 L91 61.3701 L91 62.2205 L78.9922 62.2205 Z"
                  stroke="none"/>
            <text x="55.891" xml:space="preserve" y="56.1969" stroke="none">NT1.12</text><line stroke-linecap="butt"
                  fill="none" x1="91.3958" x2="91.3958" y1="52.0157"
                  stroke-linejoin="bevel" y2="71.5748" stroke-width="0.8504"/>
            <path d="M91.821 52.0158 L110.9398 52.0158 L110.9398 52.8661 L91.821 52.8661 Z"
                  stroke="none"/>
            <text x="113.7744" xml:space="preserve" font-size="14" y="56.937"
                  stroke="none">AF544221</text><path d="M91.821 70.7244 L94.8434 70.7244 L94.8434 71.5748 L91.821 71.5748 Z"
                  stroke="none"/>
            <text x="97.678" xml:space="preserve" font-size="14" y="75.6457"
                  stroke="none">AF523936</text><path d="M78.9922 89.4331 L89.3972 89.4331 L89.3972 90.2835 L78.9922 90.2835 Z"
                  stroke="none"/>
            <text x="92.2319" xml:space="preserve" font-size="14" y="94.3543"
                  stroke="none">AF544224</text><path d="M77.661 117.4961 L91 117.4961 L91 118.3464 L77.661 118.3464 Z"
                  stroke="none"/>
            <text x="56.9837" xml:space="preserve" y="112.3228" stroke="none">NT1.11</text><line stroke-linecap="butt"
                  fill="none" x1="91.1537" x2="91.1537" y1="108.1417"
                  stroke-linejoin="bevel" y2="127.7008" stroke-width="0.8504"/>
            <path d="M91.5789 108.1417 L96.1747 108.1417 L96.1747 108.9921 L91.5789 108.9921 Z"
                  stroke="none"/>
            <text x="99.0093" xml:space="preserve" font-size="14" y="113.063"
                  stroke="none">AF544219</text><path d="M91.5789 126.8504 L93.2701 126.8504 L93.2701 127.7008 L91.5789 127.7008 Z"
                  stroke="none"/>
            <text x="96.1047" xml:space="preserve" font-size="14" y="131.7717"
                  stroke="none">DQ303249</text><path d="M74.7564 154.9134 L96 154.9134 L96 155.7638 L74.7564 155.7638 Z"
                  stroke="none"/>
            <text x="62.0667" xml:space="preserve" y="149.7402" stroke="none">NT1.21</text><line stroke-linecap="butt"
                  fill="none" x1="96.2368" x2="96.2368" y1="145.5591"
                  stroke-linejoin="bevel" y2="165.1181" stroke-width="0.8504"/>
            <path d="M96.662 145.5591 L96.7798 145.5591 L96.7798 146.4095 L96.662 146.4095 Z"
                  stroke="none"/>
            <text x="99.6144" xml:space="preserve" font-size="14" y="150.4803"
                  stroke="none">AF523937</text><path d="M96.662 164.2677 L97.748 164.2677 L97.748 165.1181 L96.662 165.1181 Z"
                  stroke="none"/>
            <text x="100.5826" xml:space="preserve" font-size="14" y="169.189"
                  stroke="none">AF544223</text><path d="M71.7307 182.9764 L106.8249 182.9764 L106.8249 183.8268 L71.7307 183.8268 Z"
                  stroke="none"/>
            <text x="109.6595" xml:space="preserve" font-size="14" y="187.8976"
                  stroke="none">AF523941</text><path d="M65.4374 211.0394 L89 211.0394 L89 211.8898 L65.4374 211.8898 Z"
                  stroke="none"/>
            <text x="58.8275" xml:space="preserve" y="205.8661" stroke="none">NT1.9</text><line stroke-linecap="butt"
                  fill="none" x1="88.4911" x2="88.4911" y1="201.685"
                  stroke-linejoin="bevel" y2="221.2441" stroke-width="0.8504"/>
            <path d="M88.9164 201.685 L92.5439 201.685 L92.5439 202.5354 L88.9164 202.5354 Z"
                  stroke="none"/>
            <text x="95.3785" xml:space="preserve" font-size="14" y="206.6063"
                  stroke="none"></text>
            <path d="M88.9164 220.3937 L93.5121 220.3937 L93.5121 221.2441 L88.9164 221.2441 Z"
                  stroke="none"/>
            <text x="96.3468" xml:space="preserve" font-size="14" y="225.315"
                  stroke="none">NC 002689</text><path d="M63.1379 274.1811 L73 274.1811 L73 275.0315 L63.1379 275.0315 Z"
                  stroke="none"/>
            <text x="43.2966" xml:space="preserve" y="269.0079" stroke="none">NT1.5</text><line stroke-linecap="butt"
                  fill="none" x1="72.9999" x2="72.9999" y1="248.4567"
                  stroke-linejoin="bevel" y2="300.7559" stroke-width="0.8504"/>
            <path d="M73.4251 248.4567 L93 248.4567 L93 249.3071 L73.4251 249.3071 Z"
                  stroke="none"/>
            <text x="57.1562" xml:space="preserve" y="243.2835" stroke="none">NT1.13</text><line stroke-linecap="butt"
                  fill="none" x1="92.727" x2="92.727" y1="239.1024"
                  stroke-linejoin="bevel" y2="258.6614" stroke-width="0.8504"/>
            <path d="M93.1522 239.1024 L92.4229 239.1024 L92.4229 239.9528 L93.1522 239.9528 Z"
                  stroke="none"/>
            <text x="95.2575" xml:space="preserve" font-size="14" y="244.0236"
                  stroke="none">X84901</text><path d="M93.1522 257.8111 L92.907 257.8111 L92.907 258.6615 L93.1522 258.6615 Z"
                  stroke="none"/>
            <text x="95.7416" xml:space="preserve" font-size="14" y="262.7323"
                  stroke="none">NC 005877</text><path d="M73.4251 299.9055 L97 299.9055 L97 300.7559 L73.4251 300.7559 Z"
                  stroke="none"/>
            <text x="61.6606" xml:space="preserve" y="294.7323" stroke="none">NT1.24</text><line stroke-linecap="butt"
                  fill="none" x1="97.205" x2="97.205" y1="285.874"
                  stroke-linejoin="bevel" y2="314.7874" stroke-width="0.8504"/>
            <path d="M97.6302 285.874 L112 285.874 L112 286.7244 L97.6302 286.7244 Z"
                  stroke="none"/>
            <text x="76.5467" xml:space="preserve" y="280.7008" stroke="none">NT1.30</text><line stroke-linecap="butt"
                  fill="none" x1="112.0911" x2="112.0911" y1="276.5197"
                  stroke-linejoin="bevel" y2="296.0788" stroke-width="0.8504"/>
            <path d="M112.5163 276.5197 L113.8444 276.5197 L113.8444 277.3701 L112.5163 277.3701 Z"
                  stroke="none"/>
            <text x="116.6791" xml:space="preserve" font-size="14" y="281.441"
                  stroke="none">AJ224936</text><path d="M112.5163 295.2284 L114.5706 295.2284 L114.5706 296.0788 L112.5163 296.0788 Z"
                  stroke="none"/>
            <text x="117.4052" xml:space="preserve" font-size="14" y="300.1497"
                  stroke="none">AF513710</text><path d="M97.6302 313.937 L108.0352 313.937 L108.0352 314.7874 L97.6302 314.7874 Z"
                  stroke="none"/>
            <text x="110.8698" xml:space="preserve" font-size="14" y="318.8583"
                  stroke="none">AY907888</text>
        </g>
    </g>
</svg>
