<?xml version="1.0"?>
<!DOCTYPE svg PUBLIC '-//W3C//DTD SVG 1.0//EN'
    'http://www.w3.org/TR/2001/REC-SVG-20010904/DTD/svg10.dtd' >

<svg fill-opacity="1" xmlns:xlink="http://www.w3.org/1999/xlink"
     color-rendering="auto" color-interpolation="auto" stroke="black"
     text-rendering="auto" stroke-linecap="square" stroke-miterlimit="10"
     stroke-opacity="1" shape-rendering="auto" fill="black"
     stroke-dasharray="none" font-weight="normal" stroke-width="1"
     xmlns="http://www.w3.org/2000/svg" font-family="&apos;Dialog&apos;"
     font-style="normal" stroke-linejoin="miter" font-size="12"
     stroke-dashoffset="0" image-rendering="auto">
    <!--Generated by the Batik Graphics2D SVG Generator-->
    <defs id="genericDefs"/>
    <g>
        <g fill="white" stroke="white">
            <rect x="0" width="465" height="410" y="0" stroke="none"/>
            <path fill="black"
                  d="M5 190.3443 L44 190.3443 L44 191.1947 L5 191.1947 Z"
                  stroke="none"/>
        </g>
        <g font-family="&apos;Arial&apos;" font-size="9">
            <text x="8.5039" xml:space="preserve" y="185.171" stroke="none">NT1.39</text><line stroke-linecap="butt"
                  fill="none" x1="44.088" x2="44.088" y1="79.4941"
                  stroke-linejoin="bevel" y2="301.1944" stroke-width="0.8504"/>
            <path d="M44.5132 79.4941 L56 79.4941 L56 80.3445 L44.5132 80.3445 Z"
                  stroke="none"/>
            <text x="27.5872" xml:space="preserve" y="74.3209" stroke="none">NT1.1</text><line stroke-linecap="butt"
                  fill="none" x1="55.8369" x2="55.8369" y1="32.1378"
                  stroke-linejoin="bevel" y2="127.7008" stroke-width="0.8504"/>
            <path d="M56.2621 32.1378 L57 32.1378 L57 32.9882 L56.2621 32.9882 Z"
                  stroke="none"/>
            <text x="27.0211" xml:space="preserve" y="26.9646" stroke="none">NT1.2</text><line stroke-linecap="butt"
                  fill="none" x1="56.6055" x2="56.6055" y1="14.5984"
                  stroke-linejoin="bevel" y2="50.5276" stroke-width="0.8504"/>
            <path d="M57.0307 14.5984 L91.0976 14.5984 L91.0976 15.4488 L57.0307 15.4488 Z"
                  stroke="none"/>
            <text x="93.9323" xml:space="preserve" font-size="14" y="19.5197"
                  stroke="none">C.hyointestinalissubsp.IawsoniiCCUG104686T</text><path d="M57.0307 49.6772 L63 49.6772 L63 50.5276 L57.0307 50.5276 Z"
                  stroke="none"/>
            <text x="32.9414" xml:space="preserve" y="44.5039" stroke="none">NT1.5</text><line stroke-linecap="butt"
                  fill="none" x1="62.6447" x2="62.6447" y1="33.3071"
                  stroke-linejoin="bevel" y2="66.8976" stroke-width="0.8504"/>
            <path d="M63.0699 33.3071 L91.0976 33.3071 L91.0976 34.1575 L63.0699 34.1575 Z"
                  stroke="none"/>
            <text x="93.9323" xml:space="preserve" font-size="14" y="38.2283"
                  stroke="none">C.curvusCCUG13146T</text><path d="M63.0699 66.0472 L71 66.0472 L71 66.8976 L63.0699 66.8976 Z"
                  stroke="none"/>
            <text x="41.326" xml:space="preserve" y="60.874" stroke="none">NT1.8</text><line stroke-linecap="butt"
                  fill="none" x1="70.9897" x2="70.9897" y1="52.0157"
                  stroke-linejoin="bevel" y2="80.9291" stroke-width="0.8504"/>
            <path d="M71.4149 52.0158 L91.0976 52.0158 L91.0976 52.8661 L71.4149 52.8661 Z"
                  stroke="none"/>
            <text x="93.9322" xml:space="preserve" font-size="14" y="56.937"
                  stroke="none">C.IariCCUG20575T</text><path d="M71.4149 80.0787 L76 80.0787 L76 80.9291 L71.4149 80.9291 Z"
                  stroke="none"/>
            <text x="42.0902" xml:space="preserve" y="74.9055" stroke="none">NT1.11</text><line stroke-linecap="butt"
                  fill="none" x1="76.2602" x2="76.2602" y1="70.7244"
                  stroke-linejoin="bevel" y2="90.2835" stroke-width="0.8504"/>
            <path d="M76.6854 70.7244 L91.2074 70.7244 L91.2074 71.5748 L76.6854 71.5748 Z"
                  stroke="none"/>
            <text x="94.0421" xml:space="preserve" font-size="14" y="75.6457"
                  stroke="none">C.concisusCCUG13144T</text><path d="M76.6854 89.4331 L91.2074 89.4331 L91.2074 90.2835 L76.6854 90.2835 Z"
                  stroke="none"/>
            <text x="94.0421" xml:space="preserve" font-size="14" y="94.3543"
                  stroke="none">Cfetussubsp.fetusCCUG6823AT</text><path d="M56.2621 126.8504 L59 126.8504 L59 127.7008 L56.2621 127.7008 Z"
                  stroke="none"/>
            <text x="29.1511" xml:space="preserve" y="121.6772" stroke="none">NT1.3</text><line stroke-linecap="butt"
                  fill="none" x1="58.8016" x2="58.8016" y1="108.1417"
                  stroke-linejoin="bevel" y2="146.4095" stroke-width="0.8504"/>
            <path d="M59.2268 108.1417 L91.0976 108.1417 L91.0976 108.9921 L59.2268 108.9921 Z"
                  stroke="none"/>
            <text x="93.9322" xml:space="preserve" font-size="14" y="113.063"
                  stroke="none">C.hyointestinalissubsp.hyointestinalisCCUG14169T</text><path d="M59 126.8504 L70.5653 126.8504 L70.5653 127.7008 L59 127.7008 Z"
                  stroke="none"/>
            <text x="73.4" xml:space="preserve" font-size="14" y="131.7717"
                  stroke="none">C</text><path d="M59.2268 145.5591 L91.0976 145.5591 L91.0976 146.4095 L59.2268 146.4095 Z"
                  stroke="none"/>
            <text x="93.9322" xml:space="preserve" font-size="14" y="150.4803"
                  stroke="none">001/CCUG14540T</text><path d="M44.5132 300.344 L63 300.344 L63 301.1944 L44.5132 301.1944 Z"
                  stroke="none"/>
            <text x="32.9108" xml:space="preserve" y="295.1708" stroke="none">NT1.4</text><line stroke-linecap="butt"
                  fill="none" x1="62.5349" x2="62.5349" y1="221.2707"
                  stroke-linejoin="bevel" y2="380.2678" stroke-width="0.8504"/>
            <path d="M62.9601 221.2707 L67 221.2707 L67 222.1211 L62.9601 222.1211 Z"
                  stroke="none"/>
            <text x="37.1667" xml:space="preserve" y="216.0975" stroke="none">NT1.7</text><line stroke-linecap="butt"
                  fill="none" x1="66.8172" x2="66.8172" y1="164.2677"
                  stroke-linejoin="bevel" y2="279.124" stroke-width="0.8504"/>
            <path d="M67.2424 164.2677 L90.9878 164.2677 L90.9878 165.1181 L67.2424 165.1181 Z"
                  stroke="none"/>
            <text x="93.8224" xml:space="preserve" font-size="14" y="169.189"
                  stroke="none"></text>
            <path d="M67.2424 278.2737 L71 278.2737 L71 279.1241 L67.2424 279.1241 Z"
                  stroke="none"/>
            <text x="41.5456" xml:space="preserve" y="273.1004" stroke="none">NT1.9</text><line stroke-linecap="butt"
                  fill="none" x1="71.2093" x2="71.2093" y1="233.2559"
                  stroke-linejoin="bevel" y2="324.1417" stroke-width="0.8504"/>
            <path d="M71.6345 233.2559 L81 233.2559 L81 234.1063 L71.6345 234.1063 Z"
                  stroke="none"/>
            <text x="45.3011" xml:space="preserve" y="228.0827" stroke="none">NT1.13</text><line stroke-linecap="butt"
                  fill="none" x1="80.8719" x2="80.8719" y1="199.3465"
                  stroke-linejoin="bevel" y2="268.0157" stroke-width="0.8504"/>
            <path d="M81.2971 199.3465 L85 199.3465 L85 200.1969 L81.2971 200.1969 Z"
                  stroke="none"/>
            <text x="49.0344" xml:space="preserve" y="194.1732" stroke="none">NT1.16</text><line stroke-linecap="butt"
                  fill="none" x1="84.6052" x2="84.6052" y1="182.9764"
                  stroke-linejoin="bevel" y2="216.5669" stroke-width="0.8504"/>
            <path d="M85.0304 182.9764 L90.9878 182.9764 L90.9878 183.8268 L85.0304 183.8268 Z"
                  stroke="none"/>
            <text x="93.8225" xml:space="preserve" font-size="14" y="187.8976"
                  stroke="none"></text>
            <path d="M85.0304 215.7165 L89 215.7165 L89 216.5669 L85.0304 216.5669 Z"
                  stroke="none"/>
            <text x="53.2069" xml:space="preserve" y="210.5433" stroke="none">NT1.17</text><line stroke-linecap="butt"
                  fill="none" x1="88.7777" x2="88.7777" y1="201.685"
                  stroke-linejoin="bevel" y2="230.5984" stroke-width="0.8504"/>
            <path d="M89.2029 201.685 L90.9878 201.685 L90.9878 202.5354 L89.2029 202.5354 Z"
                  stroke="none"/>
            <text x="93.8225" xml:space="preserve" font-size="14" y="206.6063"
                  stroke="none"></text>
            <path d="M89.2029 229.748 L91 229.748 L91 230.5984 L89.2029 230.5984 Z"
                  stroke="none"/>
            <text x="55.7192" xml:space="preserve" y="224.5748" stroke="none">NT1.18</text><line stroke-linecap="butt"
                  fill="none" x1="91.3032" x2="91.3032" y1="220.3937"
                  stroke-linejoin="bevel" y2="239.9528" stroke-width="0.8504"/>
            <path d="M91.7284 220.3937 L90.9878 220.3937 L90.9878 221.2441 L91.7284 221.2441 Z"
                  stroke="none"/>
            <text x="93.8225" xml:space="preserve" font-size="14" y="225.315"
                  stroke="none"></text>
            <path d="M91.7284 239.1024 L91.0976 239.1024 L91.0976 239.9528 L91.7284 239.9528 Z"
                  stroke="none"/>
            <text x="93.9323" xml:space="preserve" font-size="14" y="244.0237"
                  stroke="none"></text>
            <path d="M81.2971 267.1654 L83 267.1654 L83 268.0158 L81.2971 268.0158 Z"
                  stroke="none"/>
            <text x="47.0844" xml:space="preserve" y="261.9921" stroke="none">NT1.14</text><line stroke-linecap="butt"
                  fill="none" x1="82.6288" x2="82.6288" y1="257.811"
                  stroke-linejoin="bevel" y2="277.3701" stroke-width="0.8504"/>
            <path d="M83.054 257.811 L91.0976 257.811 L91.0976 258.6614 L83.054 258.6614 Z"
                  stroke="none"/>
            <text x="93.9323" xml:space="preserve" font-size="14" y="262.7323"
                  stroke="none">000.099.090.00</text><path d="M83.054 276.5197 L91.0976 276.5197 L91.0976 277.3701 L83.054 277.3701 Z"
                  stroke="none"/>
            <text x="93.9323" xml:space="preserve" font-size="14" y="281.441"
                  stroke="none"></text>
            <path d="M71.6345 323.2913 L74 323.2913 L74 324.1417 L71.6345 324.1417 Z"
                  stroke="none"/>
            <text x="38.6295" xml:space="preserve" y="318.1181" stroke="none">NT1.10</text><line stroke-linecap="butt"
                  fill="none" x1="74.174" x2="74.174" y1="304.5827"
                  stroke-linejoin="bevel" y2="342.8504" stroke-width="0.8504"/>
            <path d="M74.5992 304.5827 L78 304.5827 L78 305.4331 L74.5992 305.4331 Z"
                  stroke="none"/>
            <text x="42.2927" xml:space="preserve" y="299.4095" stroke="none">NT1.12</text><line stroke-linecap="butt"
                  fill="none" x1="77.7975" x2="77.7975" y1="295.2284"
                  stroke-linejoin="bevel" y2="314.7874" stroke-width="0.8504"/>
            <path d="M78.2227 295.2284 L91.0976 295.2284 L91.0976 296.0788 L78.2227 296.0788 Z"
                  stroke="none"/>
            <text x="93.9323" xml:space="preserve" font-size="14" y="300.1496"
                  stroke="none"></text>
            <path d="M78.2227 313.937 L91.0976 313.937 L91.0976 314.7874 L78.2227 314.7874 Z"
                  stroke="none"/>
            <text x="93.9323" xml:space="preserve" font-size="14" y="318.8583"
                  stroke="none"></text>
            <path d="M74.5992 342 L84 342 L84 342.8504 L74.5992 342.8504 Z"
                  stroke="none"/>
            <text x="48.2129" xml:space="preserve" y="336.8268" stroke="none">NT1.15</text><line stroke-linecap="butt"
                  fill="none" x1="83.8366" x2="83.8366" y1="332.6457"
                  stroke-linejoin="bevel" y2="352.2047" stroke-width="0.8504"/>
            <path d="M84.2618 332.6457 L91.0976 332.6457 L91.0976 333.4961 L84.2618 333.4961 Z"
                  stroke="none"/>
            <text x="93.9323" xml:space="preserve" font-size="14" y="337.5669"
                  stroke="none"></text>
            <path d="M84.2618 351.3543 L91.0976 351.3543 L91.0976 352.2047 L84.2618 352.2047 Z"
                  stroke="none"/>
            <text x="93.9323" xml:space="preserve" font-size="14" y="356.2756"
                  stroke="none"></text>
            <path d="M62.9601 379.4174 L66 379.4174 L66 380.2678 L62.9601 380.2678 Z"
                  stroke="none"/>
            <text x="35.8491" xml:space="preserve" y="374.2442" stroke="none">NT1.6</text><line stroke-linecap="butt"
                  fill="none" x1="65.4995" x2="65.4995" y1="370.063"
                  stroke-linejoin="bevel" y2="389.6221" stroke-width="0.8504"/>
            <path d="M65.9248 370.063 L91.0976 370.063 L91.0976 370.9135 L65.9248 370.9135 Z"
                  stroke="none"/>
            <text x="93.9323" xml:space="preserve" font-size="14" y="374.9843"
                  stroke="none">C.sputorumbv.SputorumCCUG9728T</text><path d="M65.9248 388.7717 L91.0976 388.7717 L91.0976 389.6221 L65.9248 389.6221 Z"
                  stroke="none"/>
            <text x="93.9323" xml:space="preserve" font-size="14" y="393.693"
                  stroke="none">C.jejunisubspjejuniNCTC1135‘]T</text>
        </g>
    </g>
</svg>
