<?xml version="1.0"?>
<!DOCTYPE svg PUBLIC '-//W3C//DTD SVG 1.0//EN'
    'http://www.w3.org/TR/2001/REC-SVG-20010904/DTD/svg10.dtd' >

<svg fill-opacity="1" xmlns:xlink="http://www.w3.org/1999/xlink"
     color-rendering="auto" color-interpolation="auto" stroke="black"
     text-rendering="auto" stroke-linecap="square" stroke-miterlimit="10"
     stroke-opacity="1" shape-rendering="auto" fill="black"
     stroke-dasharray="none" font-weight="normal" stroke-width="1"
     xmlns="http://www.w3.org/2000/svg" font-family="&apos;Dialog&apos;"
     font-style="normal" stroke-linejoin="miter" font-size="12"
     stroke-dashoffset="0" image-rendering="auto">
    <!--Generated by the Batik Graphics2D SVG Generator-->
    <defs id="genericDefs"/>
    <g>
        <g fill="white" stroke="white">
            <rect x="0" width="170" height="318" y="0" stroke="none"/>
            <path fill="black"
                  d="M5 194.7889 L18 194.7889 L18 195.6393 L5 195.6393 Z"
                  stroke="none"/>
            <circle fill="black" r="1.2756" cx="17.4331" cy="194.7889"
                    stroke="none"/>
            <path fill="black"
                  d="M17.8583 193.9385 L33 193.9385 L33 194.7889 L17.8583 194.7889 Z"
                  stroke="none"/>
        </g>
        <g font-family="&apos;Arial&apos;" font-size="9">
            <text x="3.6503" xml:space="preserve" y="188.7653" stroke="none">NT1.2</text><line stroke-linecap="butt"
                  fill="none" x1="33.2347" x2="33.2347" y1="92.6486"
                  stroke-linejoin="bevel" y2="296.0788" stroke-width="0.8504"/>
            <path d="M33.6599 92.6486 L36 92.6486 L36 93.499 L33.6599 93.499 Z"
                  stroke="none"/>
            <text x="6.4262" xml:space="preserve" y="87.4754" stroke="none">NT1.3</text><line stroke-linecap="butt"
                  fill="none" x1="36.0767" x2="36.0767" y1="42.6614"
                  stroke-linejoin="bevel" y2="143.4862" stroke-width="0.8504"/>
            <path d="M36.5019 42.6614 L43 42.6614 L43 43.5118 L36.5019 43.5118 Z"
                  stroke="none"/>
            <text x="13.1201" xml:space="preserve" y="37.4882" stroke="none">NT1.8</text><line stroke-linecap="butt"
                  fill="none" x1="42.7838" x2="42.7838" y1="14.5984"
                  stroke-linejoin="bevel" y2="71.5748" stroke-width="0.8504"/>
            <path d="M43.209 14.5984 L43.2681 14.5984 L43.2681 15.4488 L43.209 15.4488 Z"
                  stroke="none"/>
            <text x="46.1027" xml:space="preserve" font-size="14" y="19.5197"
                  stroke="none"></text>
            <path d="M43 33.3071 L71.3472 33.3071 L71.3472 34.1575 L43 34.1575 Z"
                  stroke="none"/>
            <text x="74.1818" xml:space="preserve" font-size="14" y="38.2283"
                  stroke="none">AY656718</text><path d="M43.209 70.7244 L50 70.7244 L50 71.5748 L43.209 71.5748 Z"
                  stroke="none"/>
            <text x="14.663" xml:space="preserve" y="65.5512" stroke="none">NT1.15</text><line stroke-linecap="butt"
                  fill="none" x1="50.2867" x2="50.2867" y1="52.0157"
                  stroke-linejoin="bevel" y2="90.2835" stroke-width="0.8504"/>
            <path d="M50.7119 52.0158 L50.8846 52.0158 L50.8846 52.8661 L50.7119 52.8661 Z"
                  stroke="none"/>
            <text x="53.7193" xml:space="preserve" font-size="14" y="56.937"
                  stroke="none"></text>
            <path d="M50 70.7244 L80.669 70.7244 L80.669 71.5748 L50 71.5748 Z"
                  stroke="none"/>
            <text x="83.5036" xml:space="preserve" font-size="14" y="75.6457"
                  stroke="none">AY353956</text><path d="M50.7119 89.4331 L72.7113 89.4331 L72.7113 90.2835 L50.7119 90.2835 Z"
                  stroke="none"/>
            <text x="75.546" xml:space="preserve" font-size="14" y="94.3543"
                  stroke="none">X80833</text><path d="M36.5019 142.6358 L36 142.6358 L36 143.4862 L36.5019 143.4862 Z"
                  stroke="none"/>
            <text x="6.68" xml:space="preserve" y="137.4626" stroke="none">NT1.4</text><line stroke-linecap="butt"
                  fill="none" x1="36.304" x2="36.304" y1="108.1417"
                  stroke-linejoin="bevel" y2="177.9803" stroke-width="0.8504"/>
            <path d="M36.7292 108.1417 L36.4472 108.1417 L36.4472 108.9921 L36.7292 108.9921 Z"
                  stroke="none"/>
            <text x="39.2819" xml:space="preserve" font-size="14" y="113.063"
                  stroke="none"></text>
            <path d="M36.7292 177.1299 L39 177.1299 L39 177.9803 L36.7292 177.9803 Z"
                  stroke="none"/>
            <text x="9.2682" xml:space="preserve" y="171.9567" stroke="none">NT1.6</text><line stroke-linecap="butt"
                  fill="none" x1="38.9187" x2="38.9187" y1="126.8504"
                  stroke-linejoin="bevel" y2="228.2599" stroke-width="0.8504"/>
            <path d="M39.3439 126.8504 L39.2892 126.8504 L39.2892 127.7008 L39.3439 127.7008 Z"
                  stroke="none"/>
            <text x="42.1239" xml:space="preserve" font-size="14" y="131.7717"
                  stroke="none"></text>
            <path d="M39 168.9449 L52 168.9449 L52 169.7953 L39 169.7953 Z"
                  stroke="none"/>
            <text x="16.7621" xml:space="preserve" y="163.7717" stroke="none">NT1.17</text><line stroke-linecap="butt"
                  fill="none" x1="52.333" x2="52.333" y1="154.9134"
                  stroke-linejoin="bevel" y2="183.8268" stroke-width="0.8504"/>
            <path d="M52.7582 154.9134 L53 154.9134 L53 155.7638 L52.7582 155.7638 Z"
                  stroke="none"/>
            <text x="16.9763" xml:space="preserve" y="149.7401" stroke="none">NT1.18</text><line stroke-linecap="butt"
                  fill="none" x1="52.5603" x2="52.5603" y1="145.559"
                  stroke-linejoin="bevel" y2="165.1181" stroke-width="0.8504"/>
            <path d="M52.9855 145.5591 L53.0446 145.5591 L53.0446 146.4095 L52.9855 146.4095 Z"
                  stroke="none"/>
            <text x="55.8792" xml:space="preserve" font-size="14" y="150.4803"
                  stroke="none"></text>
            <path d="M52.9855 164.2677 L88.0582 164.2677 L88.0582 165.1181 L52.9855 165.1181 Z"
                  stroke="none"/>
            <text x="90.8929" xml:space="preserve" font-size="14" y="169.189"
                  stroke="none"></text>
            <path d="M52.7582 182.9764 L74.6439 182.9764 L74.6439 183.8268 L52.7582 183.8268 Z"
                  stroke="none"/>
            <text x="77.4786" xml:space="preserve" font-size="14" y="187.8976"
                  stroke="none">A1272422</text><path d="M39.3439 227.4095 L43 227.4095 L43 228.2599 L39.3439 228.2599 Z"
                  stroke="none"/>
            <text x="13.5749" xml:space="preserve" y="222.2362" stroke="none">NT1.9</text><line stroke-linecap="butt"
                  fill="none" x1="43.2385" x2="43.2385" y1="201.685"
                  stroke-linejoin="bevel" y2="253.9843" stroke-width="0.8504"/>
            <path d="M43.6637 201.685 L43.9501 201.685 L43.9501 202.5354 L43.6637 202.5354 Z"
                  stroke="none"/>
            <text x="46.7848" xml:space="preserve" font-size="14" y="206.6063"
                  stroke="none"></text>
            <path d="M43 220.3937 L70.5514 220.3937 L70.5514 221.2441 L43 221.2441 Z"
                  stroke="none"/>
            <text x="73.386" xml:space="preserve" font-size="14" y="225.315"
                  stroke="none">L346l2</text><path d="M43.6637 253.1339 L48 253.1339 L48 253.9843 L43.6637 253.9843 Z"
                  stroke="none"/>
            <text x="12.8494" xml:space="preserve" y="247.9607" stroke="none">NT1.12</text><line stroke-linecap="butt"
                  fill="none" x1="48.3542" x2="48.3542" y1="239.1024"
                  stroke-linejoin="bevel" y2="268.0158" stroke-width="0.8504"/>
            <path d="M48.7794 239.1024 L65.3221 239.1024 L65.3221 239.9528 L48.7794 239.9528 Z"
                  stroke="none"/>
            <text x="68.1567" xml:space="preserve" font-size="14" y="244.0237"
                  stroke="none">M60491</text><path d="M48.7794 267.1654 L49 267.1654 L49 268.0158 L48.7794 268.0158 Z"
                  stroke="none"/>
            <text x="13.0107" xml:space="preserve" y="261.9922" stroke="none">NT1.13</text><line stroke-linecap="butt"
                  fill="none" x1="48.5815" x2="48.5815" y1="257.8111"
                  stroke-linejoin="bevel" y2="277.3701" stroke-width="0.8504"/>
            <path d="M49.0067 257.8111 L48.9521 257.8111 L48.9521 258.6615 L49.0067 258.6615 Z"
                  stroke="none"/>
            <text x="51.7867" xml:space="preserve" font-size="14" y="262.7323"
                  stroke="none"></text>
            <path d="M49.0067 276.5198 L70.2104 276.5198 L70.2104 277.3702 L49.0067 277.3702 Z"
                  stroke="none"/>
            <text x="73.045" xml:space="preserve" font-size="14" y="281.441"
                  stroke="none"></text>
            <path d="M33.6599 295.2284 L65.3221 295.2284 L65.3221 296.0788 L33.6599 296.0788 Z"
                  stroke="none"/>
            <text x="68.1568" xml:space="preserve" font-size="14" y="300.1497"
                  stroke="none">EF]16488</text>
        </g>
    </g>
</svg>
