<?xml version="1.0"?>
<!DOCTYPE svg PUBLIC '-//W3C//DTD SVG 1.0//EN'
    'http://www.w3.org/TR/2001/REC-SVG-20010904/DTD/svg10.dtd' >

<svg fill-opacity="1" xmlns:xlink="http://www.w3.org/1999/xlink"
     color-rendering="auto" color-interpolation="auto" stroke="black"
     text-rendering="auto" stroke-linecap="square" stroke-miterlimit="10"
     stroke-opacity="1" shape-rendering="auto" fill="black"
     stroke-dasharray="none" font-weight="normal" stroke-width="1"
     xmlns="http://www.w3.org/2000/svg" font-family="&apos;Dialog&apos;"
     font-style="normal" stroke-linejoin="miter" font-size="12"
     stroke-dashoffset="0" image-rendering="auto">
    <!--Generated by the Batik Graphics2D SVG Generator-->
    <defs id="genericDefs"/>
    <g>
        <g fill="white" stroke="white">
            <rect x="0" width="202" height="317" y="0" stroke="none"/>
            <path fill="black"
                  d="M5 241.6835 L43 241.6835 L43 242.5339 L5 242.5339 Z"
                  stroke="none"/>
        </g>
        <g font-family="&apos;Arial&apos;" font-size="9">
            <text x="8.5039" xml:space="preserve" y="236.5102" stroke="none">NT1.31</text><line stroke-linecap="butt"
                  fill="none" x1="42.674" x2="42.674" y1="187.2882"
                  stroke-linejoin="bevel" y2="296.0788" stroke-width="0.8504"/>
            <path d="M43.0992 187.2882 L57 187.2882 L57 188.1386 L43.0992 188.1386 Z"
                  stroke="none"/>
            <text x="29.0613" xml:space="preserve" y="182.1149" stroke="none">NT1.1</text><line stroke-linecap="butt"
                  fill="none" x1="57.3109" x2="57.3109" y1="98.0566"
                  stroke-linejoin="bevel" y2="277.3701" stroke-width="0.8504"/>
            <path d="M57.7361 98.0566 L89 98.0566 L89 98.907 L57.7361 98.907 Z"
                  stroke="none"/>
            <text x="59.5925" xml:space="preserve" y="92.8834" stroke="none">NT1.2</text><line stroke-linecap="butt"
                  fill="none" x1="89.1769" x2="89.1769" y1="14.5984"
                  stroke-linejoin="bevel" y2="182.3652" stroke-width="0.8504"/>
            <path d="M89.6021 14.5984 L103.16 14.5984 L103.16 15.4488 L89.6021 15.4488 Z"
                  stroke="none"/>
            <text x="105.9946" xml:space="preserve" font-size="14" y="19.5197"
                  stroke="none">AF029364</text><path d="M89.6021 181.5148 L91 181.5148 L91 182.3652 L89.6021 182.3652 Z"
                  stroke="none"/>
            <text x="61.5848" xml:space="preserve" y="176.3416" stroke="none">NT1.3</text><line stroke-linecap="butt"
                  fill="none" x1="91.2352" x2="91.2352" y1="128.6043"
                  stroke-linejoin="bevel" y2="235.2756" stroke-width="0.8504"/>
            <path d="M91.6604 128.6043 L92 128.6043 L92 129.4547 L91.6604 129.4547 Z"
                  stroke="none"/>
            <text x="62.3705" xml:space="preserve" y="123.4311" stroke="none">NT1.5</text><line stroke-linecap="butt"
                  fill="none" x1="92.0738" x2="92.0738" y1="92.9409"
                  stroke-linejoin="bevel" y2="165.1181" stroke-width="0.8504"/>
            <path d="M92.499 92.9409 L95 92.9409 L95 93.7913 L92.499 93.7913 Z"
                  stroke="none"/>
            <text x="65.5357" xml:space="preserve" y="87.7677" stroke="none">NT1.8</text><line stroke-linecap="butt"
                  fill="none" x1="95.1994" x2="95.1994" y1="54.3543"
                  stroke-linejoin="bevel" y2="132.378" stroke-width="0.8504"/>
            <path d="M95.6246 54.3543 L100 54.3543 L100 55.2047 L95.6246 55.2047 Z"
                  stroke="none"/>
            <text x="64.0003" xml:space="preserve" y="49.1811" stroke="none">NT1.10</text><line stroke-linecap="butt"
                  fill="none" x1="99.5447" x2="99.5447" y1="33.3071"
                  stroke-linejoin="bevel" y2="76.252" stroke-width="0.8504"/>
            <path d="M99.9699 33.3071 L105.2183 33.3071 L105.2183 34.1575 L99.9699 34.1575 Z"
                  stroke="none"/>
            <text x="108.0529" xml:space="preserve" font-size="14" y="38.2283"
                  stroke="none">AF5000O7</text><path d="M99.9699 75.4016 L102 75.4016 L102 76.252 L99.9699 76.252 Z"
                  stroke="none"/>
            <text x="65.8798" xml:space="preserve" y="70.2283" stroke="none">NT1.13</text><line stroke-linecap="butt"
                  fill="none" x1="101.4506" x2="101.4506" y1="61.3701"
                  stroke-linejoin="bevel" y2="90.2835" stroke-width="0.8504"/>
            <path d="M101.8758 61.3701 L107 61.3701 L107 62.2205 L101.8758 62.2205 Z"
                  stroke="none"/>
            <text x="71.206" xml:space="preserve" y="56.1968" stroke="none">NT1.22</text><line stroke-linecap="butt"
                  fill="none" x1="106.7107" x2="106.7107" y1="52.0157"
                  stroke-linejoin="bevel" y2="71.5748" stroke-width="0.8504"/>
            <path d="M107.1359 52.0158 L110.7071 52.0158 L110.7071 52.8661 L107.1359 52.8661 Z"
                  stroke="none"/>
            <text x="113.5418" xml:space="preserve" font-size="14" y="56.937"
                  stroke="none">X62172</text><path d="M107.1359 70.7244 L108.6488 70.7244 L108.6488 71.5748 L107.1359 71.5748 Z"
                  stroke="none"/>
            <text x="111.4835" xml:space="preserve" font-size="14" y="75.6457"
                  stroke="none">AJ493659</text><path d="M101.8758 89.4331 L109.1825 89.4331 L109.1825 90.2835 L101.8758 90.2835 Z"
                  stroke="none"/>
            <text x="112.0171" xml:space="preserve" font-size="14" y="94.3543"
                  stroke="none">AJ544622</text><path d="M95.6246 131.5276 L100 131.5276 L100 132.378 L95.6246 132.378 Z"
                  stroke="none"/>
            <text x="65.7559" xml:space="preserve" y="126.3543" stroke="none">NT1.11</text><line stroke-linecap="butt"
                  fill="none" x1="99.9259" x2="99.9259" y1="117.4961"
                  stroke-linejoin="bevel" y2="146.4095" stroke-width="0.8504"/>
            <path d="M100.3511 117.4961 L103 117.4961 L103 118.3464 L100.3511 118.3464 Z"
                  stroke="none"/>
            <text x="67.2753" xml:space="preserve" y="112.3228" stroke="none">NT1.15</text><line stroke-linecap="butt"
                  fill="none" x1="102.899" x2="102.899" y1="108.1417"
                  stroke-linejoin="bevel" y2="127.7008" stroke-width="0.8504"/>
            <path d="M103.3243 108.1417 L111.0121 108.1417 L111.0121 108.9921 L103.3243 108.9921 Z"
                  stroke="none"/>
            <text x="113.8468" xml:space="preserve" font-size="14" y="113.063"
                  stroke="none">EF079063</text><path d="M103.3243 126.8504 L110.0973 126.8504 L110.0973 127.7008 L103.3243 127.7008 Z"
                  stroke="none"/>
            <text x="112.9319" xml:space="preserve" font-size="14" y="131.7717"
                  stroke="none">AJ314745</text><path d="M100.3511 145.5591 L117.4158 145.5591 L117.4158 146.4095 L100.3511 146.4095 Z"
                  stroke="none"/>
            <text x="120.2504" xml:space="preserve" font-size="14" y="150.4803"
                  stroke="none">X62173</text><path d="M92.499 164.2677 L117.2633 164.2677 L117.2633 165.1181 L92.499 165.1181 Z"
                  stroke="none"/>
            <text x="120.098" xml:space="preserve" font-size="14" y="169.189"
                  stroke="none">AY437845</text><path d="M91.6604 234.4252 L92 234.4252 L92 235.2756 L91.6604 235.2756 Z"
                  stroke="none"/>
            <text x="62.3735" xml:space="preserve" y="229.252" stroke="none">NT1.4</text><line stroke-linecap="butt"
                  fill="none" x1="91.9976" x2="91.9976" y1="211.0394"
                  stroke-linejoin="bevel" y2="258.6614" stroke-width="0.8504"/>
            <path d="M92.4228 211.0394 L94 211.0394 L94 211.8898 L92.4228 211.8898 Z"
                  stroke="none"/>
            <text x="63.8718" xml:space="preserve" y="205.8662" stroke="none">NT1.6</text><line stroke-linecap="butt"
                  fill="none" x1="93.5222" x2="93.5222" y1="192.3307"
                  stroke-linejoin="bevel" y2="230.5984" stroke-width="0.8504"/>
            <path d="M93.9474 192.3307 L95 192.3307 L95 193.1811 L93.9474 193.1811 Z"
                  stroke="none"/>
            <text x="65.612" xml:space="preserve" y="187.1575" stroke="none">NT1.9</text><line stroke-linecap="butt"
                  fill="none" x1="95.2756" x2="95.2756" y1="182.9764"
                  stroke-linejoin="bevel" y2="202.5355" stroke-width="0.8504"/>
            <path d="M95.7008 182.9764 L100.4918 182.9764 L100.4918 183.8268 L95.7008 183.8268 Z"
                  stroke="none"/>
            <text x="103.3264" xml:space="preserve" font-size="14" y="187.8977"
                  stroke="none">D55729</text><path d="M95.7008 201.6851 L105.2183 201.6851 L105.2183 202.5355 L95.7008 202.5355 Z"
                  stroke="none"/>
            <text x="108.0529" xml:space="preserve" font-size="14" y="206.6063"
                  stroke="none">AFO41791</text><path d="M93.9474 229.748 L95 229.748 L95 230.5984 L93.9474 230.5984 Z"
                  stroke="none"/>
            <text x="65.0153" xml:space="preserve" y="224.5748" stroke="none">NT1.7</text><line stroke-linecap="butt"
                  fill="none" x1="94.6657" x2="94.6657" y1="220.3937"
                  stroke-linejoin="bevel" y2="239.9528" stroke-width="0.8504"/>
            <path d="M95.091 220.3937 L102.3976 220.3937 L102.3976 221.2441 L95.091 221.2441 Z"
                  stroke="none"/>
            <text x="105.2323" xml:space="preserve" font-size="14" y="225.315"
                  stroke="none">AF144750</text><path d="M95.091 239.1024 L104.0748 239.1024 L104.0748 239.9528 L95.091 239.9528 Z"
                  stroke="none"/>
            <text x="106.9094" xml:space="preserve" font-size="14" y="244.0237"
                  stroke="none">AJ314746</text><path d="M92.4228 257.811 L104.6084 257.811 L104.6084 258.6614 L92.4228 258.6614 Z"
                  stroke="none"/>
            <text x="107.4431" xml:space="preserve" font-size="14" y="262.7323"
                  stroke="none">AJ697862</text><path d="M57.7361 276.5197 L102.7788 276.5197 L102.7788 277.3701 L57.7361 277.3701 Z"
                  stroke="none"/>
            <text x="105.6135" xml:space="preserve" font-size="14" y="281.441"
                  stroke="none">X60646</text><path d="M43.0992 295.2284 L117.4158 295.2284 L117.4158 296.0788 L43.0992 296.0788 Z"
                  stroke="none"/>
            <text x="120.2505" xml:space="preserve" font-size="14" y="300.1497"
                  stroke="none">X70316</text>
        </g>
    </g>
</svg>
