<?xml version="1.0"?>
<!DOCTYPE svg PUBLIC '-//W3C//DTD SVG 1.0//EN'
    'http://www.w3.org/TR/2001/REC-SVG-20010904/DTD/svg10.dtd' >

<svg fill-opacity="1" xmlns:xlink="http://www.w3.org/1999/xlink"
     color-rendering="auto" color-interpolation="auto" stroke="black"
     text-rendering="auto" stroke-linecap="square" stroke-miterlimit="10"
     stroke-opacity="1" shape-rendering="auto" fill="black"
     stroke-dasharray="none" font-weight="normal" stroke-width="1"
     xmlns="http://www.w3.org/2000/svg" font-family="&apos;Dialog&apos;"
     font-style="normal" stroke-linejoin="miter" font-size="12"
     stroke-dashoffset="0" image-rendering="auto">
    <!--Generated by the Batik Graphics2D SVG Generator-->
    <defs id="genericDefs"/>
    <g>
        <g fill="white" stroke="white">
            <rect x="0" width="184" height="336" y="0" stroke="none"/>
            <path fill="black"
                  d="M5 244.63 L18 244.63 L18 245.4804 L5 245.4804 Z"
                  stroke="none"/>
            <circle fill="black" r="1.2756" cx="17.4331" cy="244.63"
                    stroke="none"/>
            <path fill="black"
                  d="M17.8583 243.7796 L18 243.7796 L18 244.63 L17.8583 244.63 Z"
                  stroke="none"/>
        </g>
        <g font-family="&apos;Arial&apos;" font-size="9">
            <text x="-11.748" xml:space="preserve" y="238.6063" stroke="none">NT1.2</text><line stroke-linecap="butt"
                  fill="none" x1="17.8364" x2="17.8364" y1="173.6221"
                  stroke-linejoin="bevel" y2="314.7874" stroke-width="0.8504"/>
            <path d="M18.2616 173.6221 L58 173.6221 L58 174.4725 L18.2616 174.4725 Z"
                  stroke="none"/>
            <text x="24.7413" xml:space="preserve" y="168.4488" stroke="none">NT1.3</text><line stroke-linecap="butt"
                  fill="none" x1="58.0368" x2="58.0368" y1="82.4173"
                  stroke-linejoin="bevel" y2="265.6772" stroke-width="0.8504"/>
            <path d="M58.462 82.4173 L62 82.4173 L62 83.2677 L58.462 83.2677 Z"
                  stroke="none"/>
            <text x="31.9637" xml:space="preserve" y="77.2441" stroke="none">NT1.5</text><line stroke-linecap="butt"
                  fill="none" x1="61.667" x2="61.667" y1="28.6299"
                  stroke-linejoin="bevel" y2="137.0551" stroke-width="0.8504"/>
            <path d="M62.0922 28.6299 L77 28.6299 L77 29.4803 L62.0922 29.4803 Z"
                  stroke="none"/>
            <text x="41.0465" xml:space="preserve" y="23.4567" stroke="none">NT1.14</text><line stroke-linecap="butt"
                  fill="none" x1="76.5909" x2="76.5909" y1="14.5984"
                  stroke-linejoin="bevel" y2="43.5118" stroke-width="0.8504"/>
            <path d="M77.0161 14.5984 L82.4848 14.5984 L82.4848 15.4488 L77.0161 15.4488 Z"
                  stroke="none"/>
            <text x="85.3195" xml:space="preserve" font-size="14" y="19.5197"
                  stroke="none">AJ582225</text><path d="M77.0161 42.6614 L77 42.6614 L77 43.5118 L77.0161 43.5118 Z"
                  stroke="none"/>
            <text x="41.505" xml:space="preserve" y="37.4882" stroke="none">NT1.15</text><line stroke-linecap="butt"
                  fill="none" x1="77.1287" x2="77.1287" y1="33.3071"
                  stroke-linejoin="bevel" y2="52.8661" stroke-width="0.8504"/>
            <path d="M77.5539 33.3071 L81.0059 33.3071 L81.0059 34.1575 L77.5539 34.1575 Z"
                  stroke="none"/>
            <text x="83.8405" xml:space="preserve" font-size="14" y="38.2283"
                  stroke="none"></text>
            <path d="M77.5539 52.0158 L85.5772 52.0158 L85.5772 52.8661 L77.5539 52.8661 Z"
                  stroke="none"/>
            <text x="88.4118" xml:space="preserve" font-size="14" y="56.937"
                  stroke="none">ABZ46747</text><path d="M62.0922 136.2047 L63 136.2047 L63 137.0551 L62.0922 137.0551 Z"
                  stroke="none"/>
            <text x="33.2266" xml:space="preserve" y="131.0315" stroke="none">NT1.6</text><line stroke-linecap="butt"
                  fill="none" x1="62.877" x2="62.877" y1="98.7874"
                  stroke-linejoin="bevel" y2="174.4725" stroke-width="0.8504"/>
            <path d="M63.3022 98.7874 L68 98.7874 L68 99.6378 L63.3022 99.6378 Z"
                  stroke="none"/>
            <text x="37.7979" xml:space="preserve" y="93.6142" stroke="none">NT1.7</text><line stroke-linecap="butt"
                  fill="none" x1="67.4483" x2="67.4483" y1="80.0787"
                  stroke-linejoin="bevel" y2="118.3465" stroke-width="0.8504"/>
            <path d="M67.8735 80.0787 L77 80.0787 L77 80.9291 L67.8735 80.9291 Z"
                  stroke="none"/>
            <text x="40.8856" xml:space="preserve" y="74.9055" stroke="none">NT1.13</text><line stroke-linecap="butt"
                  fill="none" x1="76.4564" x2="76.4564" y1="70.7244"
                  stroke-linejoin="bevel" y2="90.2835" stroke-width="0.8504"/>
            <path d="M76.8817 70.7244 L67.9643 70.7244 L67.9643 71.5748 L76.8817 71.5748 Z"
                  stroke="none"/>
            <text x="70.7989" xml:space="preserve" font-size="14" y="75.6457"
                  stroke="none"></text>
            <path d="M76.8817 89.4331 L92.0308 89.4331 L92.0308 90.2835 L76.8817 90.2835 Z"
                  stroke="none"/>
            <text x="94.8654" xml:space="preserve" font-size="14" y="94.3543"
                  stroke="none"></text>
            <path d="M67.8735 117.4961 L97 117.4961 L97 118.3464 L67.8735 118.3464 Z"
                  stroke="none"/>
            <text x="61.2536" xml:space="preserve" y="112.3228" stroke="none">NT1.32</text><line stroke-linecap="butt"
                  fill="none" x1="96.7583" x2="96.7583" y1="108.1417"
                  stroke-linejoin="bevel" y2="127.7008" stroke-width="0.8504"/>
            <path d="M97.1835 108.1417 L96.6021 108.1417 L96.6021 108.9921 L97.1835 108.9921 Z"
                  stroke="none"/>
            <text x="99.4367" xml:space="preserve" font-size="14" y="113.063"
                  stroke="none"></text>
            <path d="M97.1835 126.8504 L98.3499 126.8504 L98.3499 127.7008 L97.1835 127.7008 Z"
                  stroke="none"/>
            <text x="101.1845" xml:space="preserve" font-size="14" y="131.7717"
                  stroke="none">AF136850</text><path d="M63.3022 173.6221 L68 173.6221 L68 174.4725 L63.3022 174.4725 Z"
                  stroke="none"/>
            <text x="38.3224" xml:space="preserve" y="168.4488" stroke="none">NT1.8</text><line stroke-linecap="butt"
                  fill="none" x1="67.9861" x2="67.9861" y1="154.9134"
                  stroke-linejoin="bevel" y2="193.1811" stroke-width="0.8504"/>
            <path d="M68.4113 154.9134 L73 154.9134 L73 155.7638 L68.4113 155.7638 Z"
                  stroke="none"/>
            <text x="37.4164" xml:space="preserve" y="149.7402" stroke="none">NT1.10</text><line stroke-linecap="butt"
                  fill="none" x1="72.9608" x2="72.9608" y1="145.5591"
                  stroke-linejoin="bevel" y2="165.1181" stroke-width="0.8504"/>
            <path d="M73.386 145.5591 L89.6107 145.5591 L89.6107 146.4095 L73.386 146.4095 Z"
                  stroke="none"/>
            <text x="92.4453" xml:space="preserve" font-size="14" y="150.4803"
                  stroke="none"></text>
            <path d="M73.386 164.2677 L88.5351 164.2677 L88.5351 165.1181 L73.386 165.1181 Z"
                  stroke="none"/>
            <text x="91.3697" xml:space="preserve" font-size="14" y="169.189"
                  stroke="none">AY682199</text><path d="M68.4113 192.3307 L73 192.3307 L73 193.1811 L68.4113 193.1811 Z"
                  stroke="none"/>
            <text x="39.0596" xml:space="preserve" y="187.1575" stroke="none">NT1.11</text><line stroke-linecap="butt"
                  fill="none" x1="73.2297" x2="73.2297" y1="182.9764"
                  stroke-linejoin="bevel" y2="202.5354" stroke-width="0.8504"/>
            <path d="M73.6549 182.9764 L88.9384 182.9764 L88.9384 183.8268 L73.6549 183.8268 Z"
                  stroke="none"/>
            <text x="91.7731" xml:space="preserve" font-size="14" y="187.8976"
                  stroke="none"></text>
            <path d="M73.6549 201.6851 L87.5939 201.6851 L87.5939 202.5355 L73.6549 202.5355 Z"
                  stroke="none"/>
            <text x="90.4286" xml:space="preserve" font-size="14" y="206.6063"
                  stroke="none">AJ582226</text><path d="M58.462 264.8268 L60 264.8268 L60 265.6772 L58.462 265.6772 Z"
                  stroke="none"/>
            <text x="30.4296" xml:space="preserve" y="259.6536" stroke="none">NT1.4</text><line stroke-linecap="butt"
                  fill="none" x1="60.0536" x2="60.0536" y1="243.7796"
                  stroke-linejoin="bevel" y2="286.7244" stroke-width="0.8504"/>
            <path d="M60.4788 243.7796 L76 243.7796 L76 244.63 L60.4788 244.63 Z"
                  stroke="none"/>
            <text x="40.6828" xml:space="preserve" y="238.6063" stroke="none">NT1.12</text><line stroke-linecap="butt"
                  fill="none" x1="76.1876" x2="76.1876" y1="229.748"
                  stroke-linejoin="bevel" y2="258.6614" stroke-width="0.8504"/>
            <path d="M76.6128 229.748 L82 229.748 L82 230.5984 L76.6128 230.5984 Z"
                  stroke="none"/>
            <text x="46.8014" xml:space="preserve" y="224.5748" stroke="none">NT1.17</text><line stroke-linecap="butt"
                  fill="none" x1="82.3722" x2="82.3722" y1="220.3937"
                  stroke-linejoin="bevel" y2="239.9528" stroke-width="0.8504"/>
            <path d="M82.7974 220.3937 L86.5183 220.3937 L86.5183 221.2441 L82.7974 221.2441 Z"
                  stroke="none"/>
            <text x="89.353" xml:space="preserve" font-size="14" y="225.315"
                  stroke="none">AJ438157</text><path d="M82.7974 239.1024 L91.3585 239.1024 L91.3585 239.9528 L82.7974 239.9528 Z"
                  stroke="none"/>
            <text x="94.1932" xml:space="preserve" font-size="14" y="244.0237"
                  stroke="none">AJ748747</text><path d="M76.6128 257.811 L90.5518 257.811 L90.5518 258.6614 L76.6128 258.6614 Z"
                  stroke="none"/>
            <text x="93.3865" xml:space="preserve" font-size="14" y="262.7323"
                  stroke="none">AY906862</text><path d="M60.4788 285.8741 L89 285.8741 L89 286.7245 L60.4788 286.7245 Z"
                  stroke="none"/>
            <text x="53.6583" xml:space="preserve" y="280.7008" stroke="none">NT1.23</text><line stroke-linecap="butt"
                  fill="none" x1="89.2291" x2="89.2291" y1="276.5197"
                  stroke-linejoin="bevel" y2="296.0788" stroke-width="0.8504"/>
            <path d="M89.6543 276.5197 L90.6862 276.5197 L90.6862 277.3701 L89.6543 277.3701 Z"
                  stroke="none"/>
            <text x="93.5209" xml:space="preserve" font-size="14" y="281.441"
                  stroke="none">U14583</text><path d="M89.6543 295.2284 L93.7786 295.2284 L93.7786 296.0788 L89.6543 296.0788 Z"
                  stroke="none"/>
            <text x="96.6132" xml:space="preserve" font-size="14" y="300.1497"
                  stroke="none">U73725</text><path d="M18.2616 313.937 L89.6106 313.937 L89.6106 314.7874 L18.2616 314.7874 Z"
                  stroke="none"/>
            <text x="92.4453" xml:space="preserve" font-size="14" y="318.8583"
                  stroke="none">ABO33327</text>
        </g>
    </g>
</svg>
