<?xml version="1.0"?>
<!DOCTYPE svg PUBLIC '-//W3C//DTD SVG 1.0//EN'
    'http://www.w3.org/TR/2001/REC-SVG-20010904/DTD/svg10.dtd' >

<svg fill-opacity="1" xmlns:xlink="http://www.w3.org/1999/xlink"
     color-rendering="auto" color-interpolation="auto" stroke="black"
     text-rendering="auto" stroke-linecap="square" stroke-miterlimit="10"
     stroke-opacity="1" shape-rendering="auto" fill="black"
     stroke-dasharray="none" font-weight="normal" stroke-width="1"
     xmlns="http://www.w3.org/2000/svg" font-family="&apos;Dialog&apos;"
     font-style="normal" stroke-linejoin="miter" font-size="12"
     stroke-dashoffset="0" image-rendering="auto">
    <!--Generated by the Batik Graphics2D SVG Generator-->
    <defs id="genericDefs"/>
    <g>
        <g fill="white" stroke="white">
            <rect x="0" width="180" height="223" y="0" stroke="none"/>
            <path fill="black"
                  d="M5 67.0571 L43 67.0571 L43 67.9075 L5 67.9075 Z"
                  stroke="none"/>
        </g>
        <g font-family="&apos;Arial&apos;" font-size="9">
            <text x="8.5039" xml:space="preserve" y="61.8839" stroke="none">NT1.21</text><line stroke-linecap="butt"
                  fill="none" x1="42.674" x2="42.674" y1="14.5984"
                  stroke-linejoin="bevel" y2="119.5158" stroke-width="0.8504"/>
            <path d="M43.0992 14.5984 L94.3979 14.5984 L94.3979 15.4488 L43.0992 15.4488 Z"
                  stroke="none"/>
            <text x="97.2325" xml:space="preserve" font-size="14" y="19.5197"
                  stroke="none">DQ355813</text><path d="M43.0992 118.6654 L65 118.6654 L65 119.5158 L43.0992 119.5158 Z"
                  stroke="none"/>
            <text x="36.9337" xml:space="preserve" y="113.4921" stroke="none">NT1.1</text><line stroke-linecap="butt"
                  fill="none" x1="65.1834" x2="65.1834" y1="75.4016"
                  stroke-linejoin="bevel" y2="162.7795" stroke-width="0.8504"/>
            <path d="M65.6086 75.4016 L66 75.4016 L66 76.252 L65.6086 76.252 Z"
                  stroke="none"/>
            <text x="36.7175" xml:space="preserve" y="70.2284" stroke="none">NT1.2</text><line stroke-linecap="butt"
                  fill="none" x1="66.3018" x2="66.3018" y1="47.3386"
                  stroke-linejoin="bevel" y2="104.315" stroke-width="0.8504"/>
            <path d="M66.727 47.3386 L84 47.3386 L84 48.189 L66.727 48.189 Z"
                  stroke="none"/>
            <text x="54.5338" xml:space="preserve" y="42.1654" stroke="none">NT1.9</text><line stroke-linecap="butt"
                  fill="none" x1="84.1975" x2="84.1975" y1="33.3071"
                  stroke-linejoin="bevel" y2="62.2205" stroke-width="0.8504"/>
            <path d="M84.6227 33.3071 L89.7841 33.3071 L89.7841 34.1575 L84.6227 34.1575 Z"
                  stroke="none"/>
            <text x="92.6188" xml:space="preserve" font-size="14" y="38.2283"
                  stroke="none">AB023426</text><path d="M84.6227 61.3701 L87 61.3701 L87 62.2205 L84.6227 62.2205 Z"
                  stroke="none"/>
            <text x="51.1394" xml:space="preserve" y="56.1969" stroke="none">NT1.12</text><line stroke-linecap="butt"
                  fill="none" x1="86.6442" x2="86.6442" y1="52.0157"
                  stroke-linejoin="bevel" y2="71.5748" stroke-width="0.8504"/>
            <path d="M87.0694 52.0158 L94.3979 52.0158 L94.3979 52.8661 L87.0694 52.8661 Z"
                  stroke="none"/>
            <text x="97.2325" xml:space="preserve" font-size="14" y="56.937"
                  stroke="none">AY208972</text><path d="M87.0694 70.7244 L92.1609 70.7244 L92.1609 71.5748 L87.0694 71.5748 Z"
                  stroke="none"/>
            <text x="94.9956" xml:space="preserve" font-size="14" y="75.6457"
                  stroke="none">AJ002947</text><path d="M66.727 103.4646 L68 103.4646 L68 104.315 L66.727 104.315 Z"
                  stroke="none"/>
            <text x="37.9796" xml:space="preserve" y="98.2913" stroke="none">NT1.3</text><line stroke-linecap="butt"
                  fill="none" x1="67.63" x2="67.63" y1="89.4331"
                  stroke-linejoin="bevel" y2="118.3465" stroke-width="0.8504"/>
            <path d="M68.0552 89.4331 L90.4832 89.4331 L90.4832 90.2835 L68.0552 90.2835 Z"
                  stroke="none"/>
            <text x="93.3178" xml:space="preserve" font-size="14" y="94.3543"
                  stroke="none">D87970</text><path d="M68.0552 117.4961 L83 117.4961 L83 118.3464 L68.0552 118.3464 Z"
                  stroke="none"/>
            <text x="52.7862" xml:space="preserve" y="112.3228" stroke="none">NT1.8</text><line stroke-linecap="butt"
                  fill="none" x1="82.4499" x2="82.4499" y1="108.1417"
                  stroke-linejoin="bevel" y2="127.7008" stroke-width="0.8504"/>
            <path d="M82.8751 108.1417 L83.982 108.1417 L83.982 108.9921 L82.8751 108.9921 Z"
                  stroke="none"/>
            <text x="86.8167" xml:space="preserve" font-size="14" y="113.063"
                  stroke="none"></text>
            <path d="M82.8751 126.8504 L85.8695 126.8504 L85.8695 127.7008 L82.8751 127.7008 Z"
                  stroke="none"/>
            <text x="88.7041" xml:space="preserve" font-size="14" y="131.7717"
                  stroke="none">AF333760</text><path d="M65.6086 161.9292 L70 161.9292 L70 162.7796 L65.6086 162.7796 Z"
                  stroke="none"/>
            <text x="40.3129" xml:space="preserve" y="156.7559" stroke="none">NT1.4</text><line stroke-linecap="butt"
                  fill="none" x1="69.9369" x2="69.9369" y1="145.5591"
                  stroke-linejoin="bevel" y2="179.1496" stroke-width="0.8504"/>
            <path d="M70.3621 145.5591 L90.6929 145.5591 L90.6929 146.4095 L70.3621 146.4095 Z"
                  stroke="none"/>
            <text x="93.5276" xml:space="preserve" font-size="14" y="150.4803"
                  stroke="none">AM039978</text><path d="M70.3621 178.2992 L72 178.2992 L72 179.1496 L70.3621 179.1496 Z"
                  stroke="none"/>
            <text x="41.8414" xml:space="preserve" y="173.126" stroke="none">NT1.5</text><line stroke-linecap="butt"
                  fill="none" x1="71.5447" x2="71.5447" y1="164.2677"
                  stroke-linejoin="bevel" y2="193.1811" stroke-width="0.8504"/>
            <path d="M71.9699 164.2677 L81.4654 164.2677 L81.4654 165.1181 L71.9699 165.1181 Z"
                  stroke="none"/>
            <text x="84.3001" xml:space="preserve" font-size="14" y="169.189"
                  stroke="none">D43628</text><path d="M71.9699 192.3307 L78 192.3307 L78 193.1811 L71.9699 193.1811 Z"
                  stroke="none"/>
            <text x="48.2556" xml:space="preserve" y="187.1575" stroke="none">NT1.6</text><line stroke-linecap="butt"
                  fill="none" x1="77.9061" x2="77.9061" y1="182.9764"
                  stroke-linejoin="bevel" y2="202.5354" stroke-width="0.8504"/>
            <path d="M78.3313 182.9764 L87.3375 182.9764 L87.3375 183.8268 L78.3313 183.8268 Z"
                  stroke="none"/>
            <text x="90.1721" xml:space="preserve" font-size="14" y="187.8976"
                  stroke="none">228378.0</text><path d="M78.3313 201.6851 L88.6657 201.6851 L88.6657 202.5355 L78.3313 202.5355 Z"
                  stroke="none"/>
            <text x="91.5003" xml:space="preserve" font-size="14" y="206.6063"
                  stroke="none">EF077631</text>
        </g>
    </g>
</svg>
