<?xml version="1.0"?>
<!DOCTYPE svg PUBLIC '-//W3C//DTD SVG 1.0//EN'
    'http://www.w3.org/TR/2001/REC-SVG-20010904/DTD/svg10.dtd' >

<svg fill-opacity="1" xmlns:xlink="http://www.w3.org/1999/xlink"
     color-rendering="auto" color-interpolation="auto" stroke="black"
     text-rendering="auto" stroke-linecap="square" stroke-miterlimit="10"
     stroke-opacity="1" shape-rendering="auto" fill="black"
     stroke-dasharray="none" font-weight="normal" stroke-width="1"
     xmlns="http://www.w3.org/2000/svg" font-family="&apos;Dialog&apos;"
     font-style="normal" stroke-linejoin="miter" font-size="12"
     stroke-dashoffset="0" image-rendering="auto">
    <!--Generated by the Batik Graphics2D SVG Generator-->
    <defs id="genericDefs"/>
    <g>
        <g fill="white" stroke="white">
            <rect x="0" width="209" height="354" y="0" stroke="none"/>
            <path fill="black"
                  d="M5 144.9428 L44 144.9428 L44 145.7932 L5 145.7932 Z"
                  stroke="none"/>
        </g>
        <g font-family="&apos;Arial&apos;" font-size="9">
            <text x="8.5039" xml:space="preserve" y="139.7696" stroke="none">NT1.35</text><line stroke-linecap="butt"
                  fill="none" x1="44.1276" x2="44.1276" y1="14.5984"
                  stroke-linejoin="bevel" y2="275.2873" stroke-width="0.8504"/>
            <path d="M44.5528 14.5984 L123.0259 14.5984 L123.0259 15.4488 L44.5528 15.4488 Z"
                  stroke="none"/>
            <text x="125.8605" xml:space="preserve" font-size="14" y="19.5197"
                  stroke="none">M38242</text><path d="M44.5528 274.4369 L58 274.4369 L58 275.2873 L44.5528 275.2873 Z"
                  stroke="none"/>
            <text x="30.1562" xml:space="preserve" y="269.2636" stroke="none">NT1.1</text><line stroke-linecap="butt"
                  fill="none" x1="58.4059" x2="58.4059" y1="225.5824"
                  stroke-linejoin="bevel" y2="324.1417" stroke-width="0.8504"/>
            <path d="M58.831 225.5824 L67 225.5824 L67 226.4328 L58.831 226.4328 Z"
                  stroke="none"/>
            <text x="36.9301" xml:space="preserve" y="220.4092" stroke="none">NT1.2</text><line stroke-linecap="butt"
                  fill="none" x1="66.5145" x2="66.5145" y1="165.2908"
                  stroke-linejoin="bevel" y2="286.7244" stroke-width="0.8504"/>
            <path d="M66.9397 165.2908 L69 165.2908 L69 166.1412 L66.9397 166.1412 Z"
                  stroke="none"/>
            <text x="39.3318" xml:space="preserve" y="160.1176" stroke="none">NT1.3</text><line stroke-linecap="butt"
                  fill="none" x1="68.9823" x2="68.9823" y1="82.125"
                  stroke-linejoin="bevel" y2="249.3071" stroke-width="0.8504"/>
            <path d="M69.4075 82.125 L95 82.125 L95 82.9754 L69.4075 82.9754 Z"
                  stroke="none"/>
            <text x="64.8784" xml:space="preserve" y="76.9518" stroke="none">NT1.9</text><line stroke-linecap="butt"
                  fill="none" x1="94.542" x2="94.542" y1="33.3071"
                  stroke-linejoin="bevel" y2="131.7933" stroke-width="0.8504"/>
            <path d="M94.9672 33.3071 L107.1611 33.3071 L107.1611 34.1575 L94.9672 34.1575 Z"
                  stroke="none"/>
            <text x="109.9958" xml:space="preserve" font-size="14" y="38.2283"
                  stroke="none">Y17962</text><path d="M94.9672 130.9429 L102 130.9429 L102 131.7933 L94.9672 131.7933 Z"
                  stroke="none"/>
            <text x="67.7755" xml:space="preserve" y="125.7697" stroke="none">NT1.11</text><line stroke-linecap="butt"
                  fill="none" x1="101.9456" x2="101.9456" y1="81.248"
                  stroke-linejoin="bevel" y2="181.4882" stroke-width="0.8504"/>
            <path d="M102.3708 81.248 L104 81.248 L104 82.0984 L102.3708 82.0984 Z"
                  stroke="none"/>
            <text x="67.9876" xml:space="preserve" y="76.0748" stroke="none">NT1.14</text><line stroke-linecap="butt"
                  fill="none" x1="103.532" x2="103.532" y1="52.0157"
                  stroke-linejoin="bevel" y2="111.3307" stroke-width="0.8504"/>
            <path d="M103.9572 52.0158 L116.1511 52.0158 L116.1511 52.8661 L103.9572 52.8661 Z"
                  stroke="none"/>
            <text x="118.9858" xml:space="preserve" font-size="14" y="56.937"
                  stroke="none"></text>
            <path d="M103.9572 110.4803 L109 110.4803 L109 111.3307 L103.9572 111.3307 Z"
                  stroke="none"/>
            <text x="72.8969" xml:space="preserve" y="105.3071" stroke="none">NT1.17</text><line stroke-linecap="butt"
                  fill="none" x1="108.4677" x2="108.4677" y1="84.7559"
                  stroke-linejoin="bevel" y2="137.0551" stroke-width="0.8504"/>
            <path d="M108.8929 84.7559 L112 84.7559 L112 85.6063 L108.8929 85.6063 Z"
                  stroke="none"/>
            <text x="76.2329" xml:space="preserve" y="79.5827" stroke="none">NT1.19</text><line stroke-linecap="butt"
                  fill="none" x1="111.817" x2="111.817" y1="70.7244"
                  stroke-linejoin="bevel" y2="99.6378" stroke-width="0.8504"/>
            <path d="M112.2422 70.7244 L122.4971 70.7244 L122.4971 71.5748 L112.2422 71.5748 Z"
                  stroke="none"/>
            <text x="125.3317" xml:space="preserve" font-size="14" y="75.6457"
                  stroke="none"></text>
            <path d="M112.2422 98.7874 L116 98.7874 L116 99.6378 L112.2422 99.6378 Z"
                  stroke="none"/>
            <text x="80.1242" xml:space="preserve" y="93.6142" stroke="none">NT1.23</text><line stroke-linecap="butt"
                  fill="none" x1="115.695" x2="115.695" y1="89.4331"
                  stroke-linejoin="bevel" y2="108.9921" stroke-width="0.8504"/>
            <path d="M116.1202 89.4331 L120.9106 89.4331 L120.9106 90.2835 L116.1202 90.2835 Z"
                  stroke="none"/>
            <text x="123.7452" xml:space="preserve" font-size="14" y="94.3543"
                  stroke="none"></text>
            <path d="M116.1202 108.1417 L123.2022 108.1417 L123.2022 108.9921 L116.1202 108.9921 Z"
                  stroke="none"/>
            <text x="126.0368" xml:space="preserve" font-size="14" y="113.063"
                  stroke="none"></text>
            <path d="M108.8929 136.2047 L115 136.2047 L115 137.0551 L108.8929 137.0551 Z"
                  stroke="none"/>
            <text x="79.6614" xml:space="preserve" y="131.0315" stroke="none">NT1.22</text><line stroke-linecap="butt"
                  fill="none" x1="115.1661" x2="115.1661" y1="126.8504"
                  stroke-linejoin="bevel" y2="146.4095" stroke-width="0.8504"/>
            <path d="M115.5914 126.8504 L116.1512 126.8504 L116.1512 127.7008 L115.5914 127.7008 Z"
                  stroke="none"/>
            <text x="118.9858" xml:space="preserve" font-size="14" y="131.7717"
                  stroke="none"></text>
            <path d="M115.5914 145.5591 L116.5037 145.5591 L116.5037 146.4095 L115.5914 146.4095 Z"
                  stroke="none"/>
            <text x="119.3383" xml:space="preserve" font-size="14" y="150.4803"
                  stroke="none">AY228463</text><path d="M102.3708 180.6378 L112 180.6378 L112 181.4882 L102.3708 181.4882 Z"
                  stroke="none"/>
            <text x="76.0566" xml:space="preserve" y="175.4646" stroke="none">NT1.18</text><line stroke-linecap="butt"
                  fill="none" x1="111.6406" x2="111.6406" y1="164.2677"
                  stroke-linejoin="bevel" y2="197.8583" stroke-width="0.8504"/>
            <path d="M112.0658 164.2677 L118.619 164.2677 L118.619 165.1181 L112.0658 165.1181 Z"
                  stroke="none"/>
            <text x="121.4536" xml:space="preserve" font-size="14" y="169.189"
                  stroke="none"></text>
            <path d="M112.0658 197.0079 L113 197.0079 L113 197.8583 L112.0658 197.8583 Z"
                  stroke="none"/>
            <text x="77.3302" xml:space="preserve" y="191.8347" stroke="none">NT1.20</text><line stroke-linecap="butt"
                  fill="none" x1="112.8746" x2="112.8746" y1="182.9764"
                  stroke-linejoin="bevel" y2="211.8898" stroke-width="0.8504"/>
            <path d="M113.2998 182.9764 L118.4427 182.9764 L118.4427 183.8268 L113.2998 183.8268 Z"
                  stroke="none"/>
            <text x="121.2774" xml:space="preserve" font-size="14" y="187.8976"
                  stroke="none"></text>
            <path d="M113.2998 211.0394 L114 211.0394 L114 211.8898 L113.2998 211.8898 Z"
                  stroke="none"/>
            <text x="79.9385" xml:space="preserve" y="205.8662" stroke="none">NT1.21</text><line stroke-linecap="butt"
                  fill="none" x1="114.1085" x2="114.1085" y1="201.6851"
                  stroke-linejoin="bevel" y2="221.2441" stroke-width="0.8504"/>
            <path d="M114.5337 201.6851 L115.7986 201.6851 L115.7986 202.5355 L114.5337 202.5355 Z"
                  stroke="none"/>
            <text x="118.6333" xml:space="preserve" font-size="14" y="206.6063"
                  stroke="none"></text>
            <path d="M114.5337 220.3938 L118.4427 220.3938 L118.4427 221.2442 L114.5337 221.2442 Z"
                  stroke="none"/>
            <text x="121.2774" xml:space="preserve" font-size="14" y="225.315"
                  stroke="none">AY243343</text><path d="M69.4075 248.4567 L91 248.4567 L91 249.3071 L69.4075 249.3071 Z"
                  stroke="none"/>
            <text x="61.137" xml:space="preserve" y="243.2834" stroke="none">NT1.5</text><line stroke-linecap="butt"
                  fill="none" x1="90.8403" x2="90.8403" y1="239.1024"
                  stroke-linejoin="bevel" y2="258.6614" stroke-width="0.8504"/>
            <path d="M91.2655 239.1024 L92.7066 239.1024 L92.7066 239.9528 L91.2655 239.9528 Z"
                  stroke="none"/>
            <text x="95.5413" xml:space="preserve" font-size="14" y="244.0236"
                  stroke="none"></text>
            <path d="M91.2655 257.811 L101.6966 257.811 L101.6966 258.6614 L91.2655 258.6614 Z"
                  stroke="none"/>
            <text x="104.5313" xml:space="preserve" font-size="14" y="262.7323"
                  stroke="none">X93593</text><path d="M66.9397 285.874 L71 285.874 L71 286.7244 L66.9397 286.7244 Z"
                  stroke="none"/>
            <text x="41.4736" xml:space="preserve" y="280.7008" stroke="none">NT1.4</text><line stroke-linecap="butt"
                  fill="none" x1="71.0976" x2="71.0976" y1="276.5197"
                  stroke-linejoin="bevel" y2="296.0787" stroke-width="0.8504"/>
            <path d="M71.5228 276.5197 L91.4728 276.5197 L91.4728 277.3701 L71.5228 277.3701 Z"
                  stroke="none"/>
            <text x="94.3074" xml:space="preserve" font-size="14" y="281.4409"
                  stroke="none">DQ344485</text><path d="M71.5228 295.2284 L103.812 295.2284 L103.812 296.0788 L71.5228 296.0788 Z"
                  stroke="none"/>
            <text x="106.6466" xml:space="preserve" font-size="14" y="300.1496"
                  stroke="none">EF158852</text><path d="M58.831 323.2913 L94 323.2913 L94 324.1417 L58.831 324.1417 Z"
                  stroke="none"/>
            <text x="63.0076" xml:space="preserve" y="318.1181" stroke="none">NT1.8</text><line stroke-linecap="butt"
                  fill="none" x1="94.0132" x2="94.0132" y1="313.937"
                  stroke-linejoin="bevel" y2="333.496" stroke-width="0.8504"/>
            <path d="M94.4384 313.937 L97.2898 313.937 L97.2898 314.7874 L94.4384 314.7874 Z"
                  stroke="none"/>
            <text x="100.1245" xml:space="preserve" font-size="14" y="318.8582"
                  stroke="none"></text>
            <path d="M94.4384 332.6457 L101.8729 332.6457 L101.8729 333.4961 L94.4384 333.4961 Z"
                  stroke="none"/>
            <text x="104.7076" xml:space="preserve" font-size="14" y="337.5669"
                  stroke="none">AJ251463</text>
        </g>
    </g>
</svg>
