<?xml version="1.0"?>
<!DOCTYPE svg PUBLIC '-//W3C//DTD SVG 1.0//EN'
    'http://www.w3.org/TR/2001/REC-SVG-20010904/DTD/svg10.dtd' >

<svg fill-opacity="1" xmlns:xlink="http://www.w3.org/1999/xlink"
     color-rendering="auto" color-interpolation="auto" stroke="black"
     text-rendering="auto" stroke-linecap="square" stroke-miterlimit="10"
     stroke-opacity="1" shape-rendering="auto" fill="black"
     stroke-dasharray="none" font-weight="normal" stroke-width="1"
     xmlns="http://www.w3.org/2000/svg" font-family="&apos;Dialog&apos;"
     font-style="normal" stroke-linejoin="miter" font-size="12"
     stroke-dashoffset="0" image-rendering="auto">
    <!--Generated by the Batik Graphics2D SVG Generator-->
    <defs id="genericDefs"/>
    <g>
        <g fill="white" stroke="white">
            <rect x="0" width="166" height="561" y="0" stroke="none"/>
            <path fill="black"
                  d="M5 384.6937 L18 384.6937 L18 385.5441 L5 385.5441 Z"
                  stroke="none"/>
            <circle fill="black" r="1.2756" cx="17.4331" cy="384.6937"
                    stroke="none"/>
            <path fill="black"
                  d="M17.8583 383.8434 L20 383.8434 L20 384.6938 L17.8583 384.6938 Z"
                  stroke="none"/>
        </g>
        <g font-family="&apos;Arial&apos;" font-size="9">
            <text x="-9.7387" xml:space="preserve" y="378.6701" stroke="none">NT1.2</text><line stroke-linecap="butt"
                  fill="none" x1="19.8457" x2="19.8457" y1="229.2456"
                  stroke-linejoin="bevel" y2="539.2914" stroke-width="0.8504"/>
            <path d="M20.2709 229.2456 L24 229.2456 L24 230.096 L20.2709 230.096 Z"
                  stroke="none"/>
            <text x="-6.1149" xml:space="preserve" y="224.0724" stroke="none">NT1.3</text><line stroke-linecap="butt"
                  fill="none" x1="23.5356" x2="23.5356" y1="14.5984"
                  stroke-linejoin="bevel" y2="444.7432" stroke-width="0.8504"/>
            <path d="M23.9608 14.5984 L57.8806 14.5984 L57.8806 15.4488 L23.9608 15.4488 Z"
                  stroke="none"/>
            <text x="60.7152" xml:space="preserve" font-size="14" y="19.5197"
                  stroke="none">U58020</text><path d="M23.9608 443.8929 L25 443.8929 L25 444.7433 L23.9608 444.7433 Z"
                  stroke="none"/>
            <text x="-5.095" xml:space="preserve" y="438.7196" stroke="none">NT1.4</text><line stroke-linecap="butt"
                  fill="none" x1="24.5291" x2="24.5291" y1="377.4077"
                  stroke-linejoin="bevel" y2="511.2284" stroke-width="0.8504"/>
            <path d="M24.9542 377.4077 L27 377.4077 L27 378.2581 L24.9542 378.2581 Z"
                  stroke="none"/>
            <text x="-2.9926" xml:space="preserve" y="372.2344" stroke="none">NT1.6</text><line stroke-linecap="butt"
                  fill="none" x1="26.6578" x2="26.6578" y1="292.3782"
                  stroke-linejoin="bevel" y2="463.2874" stroke-width="0.8504"/>
            <path d="M27.083 292.3782 L28 292.3782 L28 293.2286 L27.083 293.2286 Z"
                  stroke="none"/>
            <text x="-1.5734" xml:space="preserve" y="287.205" stroke="none">NT1.7</text><line stroke-linecap="butt"
                  fill="none" x1="28.077" x2="28.077" y1="219.3706"
                  stroke-linejoin="bevel" y2="366.2363" stroke-width="0.8504"/>
            <path d="M28.5022 219.3706 L30 219.3706 L30 220.221 L28.5022 220.221 Z"
                  stroke="none"/>
            <text x="-0.1675" xml:space="preserve" y="214.1974" stroke="none">NT1.9</text><line stroke-linecap="butt"
                  fill="none" x1="29.4962" x2="29.4962" y1="163.3908"
                  stroke-linejoin="bevel" y2="276.2008" stroke-width="0.8504"/>
            <path d="M29.9214 163.3908 L34 163.3908 L34 164.2412 L29.9214 164.2412 Z"
                  stroke="none"/>
            <text x="-1.9325" xml:space="preserve" y="158.2175" stroke="none">NT1.14</text><line stroke-linecap="butt"
                  fill="none" x1="33.6119" x2="33.6119" y1="134.4508"
                  stroke-linejoin="bevel" y2="193.1811" stroke-width="0.8504"/>
            <path d="M34.0371 134.4508 L38 134.4508 L38 135.3012 L34.0371 135.3012 Z"
                  stroke="none"/>
            <text x="2.5692" xml:space="preserve" y="129.2776" stroke="none">NT1.19</text><line stroke-linecap="butt"
                  fill="none" x1="38.1533" x2="38.1533" y1="104.6339"
                  stroke-linejoin="bevel" y2="165.1181" stroke-width="0.8504"/>
            <path d="M38.5785 104.6339 L39 104.6339 L39 105.4843 L38.5785 105.4843 Z"
                  stroke="none"/>
            <text x="3.6023" xml:space="preserve" y="99.4606" stroke="none">NT1.20</text><line stroke-linecap="butt"
                  fill="none" x1="39.1468" x2="39.1468" y1="73.063"
                  stroke-linejoin="bevel" y2="137.0551" stroke-width="0.8504"/>
            <path d="M39.572 73.063 L41 73.063 L41 73.9134 L39.572 73.9134 Z"
                  stroke="none"/>
            <text x="6.9636" xml:space="preserve" y="67.8898" stroke="none">NT1.21</text><line stroke-linecap="butt"
                  fill="none" x1="41.1336" x2="41.1336" y1="47.3386"
                  stroke-linejoin="bevel" y2="99.6378" stroke-width="0.8504"/>
            <path d="M41.5588 47.3386 L50 47.3386 L50 48.189 L41.5588 48.189 Z"
                  stroke="none"/>
            <text x="14.2066" xml:space="preserve" y="42.1654" stroke="none">NT1.28</text><line stroke-linecap="butt"
                  fill="none" x1="49.7907" x2="49.7907" y1="33.3071"
                  stroke-linejoin="bevel" y2="62.2205" stroke-width="0.8504"/>
            <path d="M50.2159 33.3071 L62.4221 33.3071 L62.4221 34.1575 L50.2159 34.1575 Z"
                  stroke="none"/>
            <text x="65.2567" xml:space="preserve" font-size="14" y="38.2284"
                  stroke="none">M26630</text><path d="M50.2159 61.3701 L67 61.3701 L67 62.2205 L50.2159 62.2205 Z"
                  stroke="none"/>
            <text x="31.0554" xml:space="preserve" y="56.1969" stroke="none">NT1.55</text><line stroke-linecap="butt"
                  fill="none" x1="66.6791" x2="66.6791" y1="52.0158"
                  stroke-linejoin="bevel" y2="71.5748" stroke-width="0.8504"/>
            <path d="M67.1043 52.0158 L70.6534 52.0158 L70.6534 52.8662 L67.1043 52.8662 Z"
                  stroke="none"/>
            <text x="73.488" xml:space="preserve" font-size="14" y="56.937"
                  stroke="none">X93477</text><path d="M67.1043 70.7244 L69.518 70.7244 L69.518 71.5748 L67.1043 71.5748 Z"
                  stroke="none"/>
            <text x="72.3527" xml:space="preserve" font-size="14" y="75.6457"
                  stroke="none">M59152</text><path d="M41.5588 98.7874 L49 98.7874 L49 99.6378 L41.5588 99.6378 Z"
                  stroke="none"/>
            <text x="13.3683" xml:space="preserve" y="93.6142" stroke="none">NT1.26</text><line stroke-linecap="butt"
                  fill="none" x1="48.9391" x2="48.9391" y1="89.4331"
                  stroke-linejoin="bevel" y2="108.9922" stroke-width="0.8504"/>
            <path d="M49.3643 89.4331 L53.4811 89.4331 L53.4811 90.2835 L49.3643 90.2835 Z"
                  stroke="none"/>
            <text x="56.3157" xml:space="preserve" font-size="14" y="94.3544"
                  stroke="none">AF114783</text><path d="M49.3643 108.1418 L53.765 108.1418 L53.765 108.9921 L49.3643 108.9921 Z"
                  stroke="none"/>
            <text x="56.5996" xml:space="preserve" font-size="14" y="113.063"
                  stroke="none">AJ404972</text><path d="M39.572 136.2047 L45 136.2047 L45 137.0551 L39.572 137.0551 Z"
                  stroke="none"/>
            <text x="8.9688" xml:space="preserve" y="131.0315" stroke="none">NT1.23</text><line stroke-linecap="butt"
                  fill="none" x1="44.5397" x2="44.5397" y1="126.8504"
                  stroke-linejoin="bevel" y2="146.4095" stroke-width="0.8504"/>
            <path d="M44.9649 126.8504 L60.0094 126.8504 L60.0094 127.7008 L44.9649 127.7008 Z"
                  stroke="none"/>
            <text x="62.844" xml:space="preserve" font-size="14" y="131.7717"
                  stroke="none">L35510</text><path d="M44.9649 145.5591 L58.0225 145.5591 L58.0225 146.4095 L44.9649 146.4095 Z"
                  stroke="none"/>
            <text x="60.8572" xml:space="preserve" font-size="14" y="150.4803"
                  stroke="none">M26631</text><path d="M38.5785 164.2677 L55.8937 164.2677 L55.8937 165.1181 L38.5785 165.1181 Z"
                  stroke="none"/>
            <text x="58.7284" xml:space="preserve" font-size="14" y="169.189"
                  stroke="none">AM404263</text><path d="M34.0371 192.3307 L50 192.3307 L50 193.1812 L34.0371 193.1812 Z"
                  stroke="none"/>
            <text x="14.2066" xml:space="preserve" y="187.1575" stroke="none">NT1.29</text><line stroke-linecap="butt"
                  fill="none" x1="49.7906" x2="49.7906" y1="182.9764"
                  stroke-linejoin="bevel" y2="202.5355" stroke-width="0.8504"/>
            <path d="M50.2158 182.9764 L49.3654 182.9764 L49.3654 183.8268 L50.2158 183.8268 Z"
                  stroke="none"/>
            <text x="52.2001" xml:space="preserve" font-size="14" y="187.8977"
                  stroke="none">DQ789390</text><path d="M50.2158 201.6851 L50.075 201.6851 L50.075 202.5355 L50.2158 202.5355 Z"
                  stroke="none"/>
            <text x="52.9097" xml:space="preserve" font-size="14" y="206.6063"
                  stroke="none">EU006088</text><path d="M29.9214 275.3504 L32 275.3504 L32 276.2008 L29.9214 276.2008 Z"
                  stroke="none"/>
            <text x="-2.545" xml:space="preserve" y="270.1772" stroke="none">NT1.11</text><line stroke-linecap="butt"
                  fill="none" x1="31.625" x2="31.625" y1="241.441"
                  stroke-linejoin="bevel" y2="310.1103" stroke-width="0.8504"/>
            <path d="M32.0502 241.441 L33 241.441 L33 242.2914 L32.0502 242.2914 Z"
                  stroke="none"/>
            <text x="-3.0282" xml:space="preserve" y="236.2677" stroke="none">NT1.12</text><line stroke-linecap="butt"
                  fill="none" x1="32.4766" x2="32.4766" y1="220.3937"
                  stroke-linejoin="bevel" y2="263.3386" stroke-width="0.8504"/>
            <path d="M32.9018 220.3937 L51.2104 220.3937 L51.2104 221.2441 L32.9018 221.2441 Z"
                  stroke="none"/>
            <text x="54.0451" xml:space="preserve" font-size="14" y="225.315"
                  stroke="none">AY034139</text><path d="M32.9018 262.4882 L36 262.4882 L36 263.3386 L32.9018 263.3386 Z"
                  stroke="none"/>
            <text x="0.1699" xml:space="preserve" y="257.315" stroke="none">NT1.17</text><line stroke-linecap="butt"
                  fill="none" x1="35.7407" x2="35.7407" y1="248.4567"
                  stroke-linejoin="bevel" y2="277.3701" stroke-width="0.8504"/>
            <path d="M36.1659 248.4567 L42 248.4567 L42 249.3071 L36.1659 249.3071 Z"
                  stroke="none"/>
            <text x="6.0546" xml:space="preserve" y="243.2835" stroke="none">NT1.22</text><line stroke-linecap="butt"
                  fill="none" x1="41.5594" x2="41.5594" y1="239.1024"
                  stroke-linejoin="bevel" y2="258.6615" stroke-width="0.8504"/>
            <path d="M41.9846 239.1024 L53.765 239.1024 L53.765 239.9528 L41.9846 239.9528 Z"
                  stroke="none"/>
            <text x="56.5997" xml:space="preserve" font-size="14" y="244.0237"
                  stroke="none">AF126546</text><path d="M41.9846 257.8111 L55.3261 257.8111 L55.3261 258.6615 L41.9846 258.6615 Z"
                  stroke="none"/>
            <text x="58.1608" xml:space="preserve" font-size="14" y="262.7323"
                  stroke="none">AF151432</text><path d="M36.1659 276.5197 L50.3589 276.5197 L50.3589 277.3701 L36.1659 277.3701 Z"
                  stroke="none"/>
            <text x="53.1936" xml:space="preserve" font-size="14" y="281.441"
                  stroke="none">AJ006530</text><path d="M32.0502 309.2599 L37 309.2599 L37 310.1103 L32.0502 310.1103 Z"
                  stroke="none"/>
            <text x="0.8662" xml:space="preserve" y="304.0866" stroke="none">NT1.18</text><line stroke-linecap="butt"
                  fill="none" x1="36.4503" x2="36.4503" y1="295.2284"
                  stroke-linejoin="bevel" y2="324.1418" stroke-width="0.8504"/>
            <path d="M36.8755 295.2284 L50.0751 295.2284 L50.0751 296.0788 L36.8755 296.0788 Z"
                  stroke="none"/>
            <text x="52.9098" xml:space="preserve" font-size="14" y="300.1497"
                  stroke="none">AY299804</text><path d="M36.8755 323.2914 L45 323.2914 L45 324.1418 L36.8755 324.1418 Z"
                  stroke="none"/>
            <text x="8.9953" xml:space="preserve" y="318.1182" stroke="none">NT1.24</text><line stroke-linecap="butt"
                  fill="none" x1="44.5397" x2="44.5397" y1="313.9371"
                  stroke-linejoin="bevel" y2="333.4961" stroke-width="0.8504"/>
            <path d="M44.9649 313.9371 L55.6099 313.9371 L55.6099 314.7875 L44.9649 314.7875 Z"
                  stroke="none"/>
            <text x="58.4446" xml:space="preserve" font-size="14" y="318.8583"
                  stroke="none">X93481</text><path d="M44.9649 332.6458 L51.6362 332.6458 L51.6362 333.4962 L44.9649 333.4962 Z"
                  stroke="none"/>
            <text x="54.4708" xml:space="preserve" font-size="14" y="337.567"
                  stroke="none">X93479</text><path d="M28.5022 365.3859 L34 365.3859 L34 366.2363 L28.5022 366.2363 Z"
                  stroke="none"/>
            <text x="-1.728" xml:space="preserve" y="360.2127" stroke="none">NT1.15</text><line stroke-linecap="butt"
                  fill="none" x1="33.8957" x2="33.8957" y1="351.3544"
                  stroke-linejoin="bevel" y2="380.2678" stroke-width="0.8504"/>
            <path d="M34.3209 351.3544 L59.4417 351.3544 L59.4417 352.2048 L34.3209 352.2048 Z"
                  stroke="none"/>
            <text x="62.2763" xml:space="preserve" font-size="14" y="356.2756"
                  stroke="none">D0884966</text><path d="M34.3209 379.4174 L36 379.4174 L36 380.2678 L34.3209 380.2678 Z"
                  stroke="none"/>
            <text x="-0.114" xml:space="preserve" y="374.2442" stroke="none">NT1.16</text><line stroke-linecap="butt"
                  fill="none" x1="35.4568" x2="35.4568" y1="370.063"
                  stroke-linejoin="bevel" y2="389.6221" stroke-width="0.8504"/>
            <path d="M35.882 370.063 L52.3458 370.063 L52.3458 370.9135 L35.882 370.9135 Z"
                  stroke="none"/>
            <text x="55.1804" xml:space="preserve" font-size="14" y="374.9843"
                  stroke="none">AF481118</text><path d="M35.882 388.7717 L53.1973 388.7717 L53.1973 389.6221 L35.882 389.6221 Z"
                  stroke="none"/>
            <text x="56.0319" xml:space="preserve" font-size="14" y="393.693"
                  stroke="none">D0811843</text><path d="M27.083 462.437 L28 462.437 L28 463.2874 L27.083 463.2874 Z"
                  stroke="none"/>
            <text x="-1.5867" xml:space="preserve" y="457.2638" stroke="none">NT1.8</text><line stroke-linecap="butt"
                  fill="none" x1="28.077" x2="28.077" y1="442.5591"
                  stroke-linejoin="bevel" y2="483.1654" stroke-width="0.8504"/>
            <path d="M28.5022 442.5591 L31 442.5591 L31 443.4095 L28.5022 443.4095 Z"
                  stroke="none"/>
            <text x="-4.9128" xml:space="preserve" y="437.3859" stroke="none">NT1.10</text><line stroke-linecap="butt"
                  fill="none" x1="30.6316" x2="30.6316" y1="421.5118"
                  stroke-linejoin="bevel" y2="464.4567" stroke-width="0.8504"/>
            <path d="M31.0568 421.5119 L34 421.5119 L34 422.3623 L31.0568 422.3623 Z"
                  stroke="none"/>
            <text x="-2.1009" xml:space="preserve" y="416.3386" stroke="none">NT1.13</text><line stroke-linecap="butt"
                  fill="none" x1="33.47" x2="33.47" y1="407.4803"
                  stroke-linejoin="bevel" y2="436.3937" stroke-width="0.8504"/>
            <path d="M33.8952 407.4804 L53.765 407.4804 L53.765 408.3308 L33.8952 408.3308 Z"
                  stroke="none"/>
            <text x="56.5996" xml:space="preserve" font-size="14" y="412.4016"
                  stroke="none">X72771</text><path d="M33.8952 435.5434 L46 435.5434 L46 436.3938 L33.8952 436.3938 Z"
                  stroke="none"/>
            <text x="10.3352" xml:space="preserve" y="430.3701" stroke="none">NT1.25</text><line stroke-linecap="butt"
                  fill="none" x1="45.9589" x2="45.9589" y1="426.189"
                  stroke-linejoin="bevel" y2="445.7481" stroke-width="0.8504"/>
            <path d="M46.3841 426.1891 L60.861 426.1891 L60.861 427.0395 L46.3841 427.0395 Z"
                  stroke="none"/>
            <text x="63.6956" xml:space="preserve" font-size="14" y="431.1103"
                  stroke="none">AF304196</text><path d="M46.3841 444.8977 L65.8281 444.8977 L65.8281 445.7481 L46.3841 445.7481 Z"
                  stroke="none"/>
            <text x="68.6628" xml:space="preserve" font-size="14" y="449.819"
                  stroke="none">M95659</text><path d="M31.0568 463.6064 L64.125 463.6064 L64.125 464.4568 L31.0568 464.4568 Z"
                  stroke="none"/>
            <text x="66.9597" xml:space="preserve" font-size="14" y="468.5276"
                  stroke="none">AY563030</text><path d="M28.5022 482.315 L80.3038 482.315 L80.3038 483.1654 L28.5022 483.1654 Z"
                  stroke="none"/>
            <text x="83.1384" xml:space="preserve" font-size="14" y="487.2363"
                  stroke="none">L40809</text><path d="M24.9542 510.3781 L25 510.3781 L25 511.2285 L24.9542 511.2285 Z"
                  stroke="none"/>
            <text x="-4.8904" xml:space="preserve" y="505.2048" stroke="none">NT1.5</text><line stroke-linecap="butt"
                  fill="none" x1="24.8129" x2="24.8129" y1="501.0237"
                  stroke-linejoin="bevel" y2="520.5828" stroke-width="0.8504"/>
            <path d="M25.2381 501.0237 L57.8806 501.0237 L57.8806 501.8741 L25.2381 501.8741 Z"
                  stroke="none"/>
            <text x="60.7153" xml:space="preserve" font-size="14" y="505.945"
                  stroke="none">M96395</text><path d="M25.2381 519.7324 L52.9134 519.7324 L52.9134 520.5828 L25.2381 520.5828 Z"
                  stroke="none"/>
            <text x="55.7481" xml:space="preserve" font-size="14" y="524.6537"
                  stroke="none">M26629</text><path d="M20.2709 538.441 L60.2932 538.441 L60.2932 539.2914 L20.2709 539.2914 Z"
                  stroke="none"/>
            <text x="63.1278" xml:space="preserve" font-size="14" y="543.3623"
                  stroke="none">AF465604</text>
        </g>
    </g>
</svg>
