<?xml version="1.0"?>
<!DOCTYPE svg PUBLIC '-//W3C//DTD SVG 1.0//EN'
    'http://www.w3.org/TR/2001/REC-SVG-20010904/DTD/svg10.dtd' >

<svg fill-opacity="1" xmlns:xlink="http://www.w3.org/1999/xlink"
     color-rendering="auto" color-interpolation="auto" stroke="black"
     text-rendering="auto" stroke-linecap="square" stroke-miterlimit="10"
     stroke-opacity="1" shape-rendering="auto" fill="black"
     stroke-dasharray="none" font-weight="normal" stroke-width="1"
     xmlns="http://www.w3.org/2000/svg" font-family="&apos;Dialog&apos;"
     font-style="normal" stroke-linejoin="miter" font-size="12"
     stroke-dashoffset="0" image-rendering="auto">
    <!--Generated by the Batik Graphics2D SVG Generator-->
    <defs id="genericDefs"/>
    <g>
        <g fill="white" stroke="white">
            <rect x="0" width="131" height="74" y="0" stroke="none"/>
            <path fill="black"
                  d="M5 29.4803 L18 29.4803 L18 30.3307 L5 30.3307 Z"
                  stroke="none"/>
            <circle fill="black" r="1.2756" cx="17.4331" cy="29.4803"
                    stroke="none"/>
            <path fill="black"
                  d="M17.8583 28.6299 L30 28.6299 L30 29.4803 L17.8583 29.4803 Z"
                  stroke="none"/>
        </g>
        <g font-family="&apos;Arial&apos;" font-size="9">
            <text x="0.7742" xml:space="preserve" y="23.4567" stroke="none">NT1.2</text><line stroke-linecap="butt"
                  fill="none" x1="30.3585" x2="30.3585" y1="14.5984"
                  stroke-linejoin="bevel" y2="43.5118" stroke-width="0.8504"/>
            <path d="M30.7837 14.5984 L47.3379 14.5984 L47.3379 15.4488 L30.7837 15.4488 Z"
                  stroke="none"/>
            <text x="50.1726" xml:space="preserve" font-size="14" y="19.5197"
                  stroke="none">X92355</text><path d="M30.7837 42.6614 L45 42.6614 L45 43.5118 L30.7837 43.5118 Z"
                  stroke="none"/>
            <text x="14.9133" xml:space="preserve" y="37.4882" stroke="none">NT1.3</text><line stroke-linecap="butt"
                  fill="none" x1="44.5638" x2="44.5638" y1="33.3071"
                  stroke-linejoin="bevel" y2="52.8661" stroke-width="0.8504"/>
            <path d="M44.989 33.3071 L50.0254 33.3071 L50.0254 34.1575 L44.989 34.1575 Z"
                  stroke="none"/>
            <text x="52.8601" xml:space="preserve" font-size="14" y="38.2283"
                  stroke="none">Y18646</text><path d="M44.989 52.0158 L50.4093 52.0158 L50.4093 52.8661 L44.989 52.8661 Z"
                  stroke="none"/>
            <text x="53.244" xml:space="preserve" font-size="14" y="56.937"
                  stroke="none">AJ871304</text>
        </g>
    </g>
</svg>
