<?xml version="1.0"?>
<!DOCTYPE svg PUBLIC '-//W3C//DTD SVG 1.0//EN'
    'http://www.w3.org/TR/2001/REC-SVG-20010904/DTD/svg10.dtd' >

<svg fill-opacity="1" xmlns:xlink="http://www.w3.org/1999/xlink"
     color-rendering="auto" color-interpolation="auto" stroke="black"
     text-rendering="auto" stroke-linecap="square" stroke-miterlimit="10"
     stroke-opacity="1" shape-rendering="auto" fill="black"
     stroke-dasharray="none" font-weight="normal" stroke-width="1"
     xmlns="http://www.w3.org/2000/svg" font-family="&apos;Dialog&apos;"
     font-style="normal" stroke-linejoin="miter" font-size="12"
     stroke-dashoffset="0" image-rendering="auto">
    <!--Generated by the Batik Graphics2D SVG Generator-->
    <defs id="genericDefs"/>
    <g>
        <g fill="white" stroke="white">
            <rect x="0" width="185" height="336" y="0" stroke="none"/>
            <path fill="black"
                  d="M5 263.6077 L44 263.6077 L44 264.4581 L5 264.4581 Z"
                  stroke="none"/>
        </g>
        <g font-family="&apos;Arial&apos;" font-size="9">
            <text x="8.5039" xml:space="preserve" y="258.4344" stroke="none">NT1.33</text><line stroke-linecap="butt"
                  fill="none" x1="44.0748" x2="44.0748" y1="212.4279"
                  stroke-linejoin="bevel" y2="314.7874" stroke-width="0.8504"/>
            <path d="M44.5 212.4279 L49 212.4279 L49 213.2783 L44.5 213.2783 Z"
                  stroke="none"/>
            <text x="21.1177" xml:space="preserve" y="207.2547" stroke="none">NT1.1</text><line stroke-linecap="butt"
                  fill="none" x1="49.3673" x2="49.3673" y1="138.9818"
                  stroke-linejoin="bevel" y2="286.7244" stroke-width="0.8504"/>
            <path d="M49.7925 138.9818 L55 138.9818 L55 139.8322 L49.7925 139.8322 Z"
                  stroke="none"/>
            <text x="25.2225" xml:space="preserve" y="133.8086" stroke="none">NT1.2</text><line stroke-linecap="butt"
                  fill="none" x1="54.8069" x2="54.8069" y1="54.062"
                  stroke-linejoin="bevel" y2="224.752" stroke-width="0.8504"/>
            <path d="M55.2321 54.062 L60 54.062 L60 54.9124 L55.2321 54.9124 Z"
                  stroke="none"/>
            <text x="30.5225" xml:space="preserve" y="48.8888" stroke="none">NT1.3</text><line stroke-linecap="butt"
                  fill="none" x1="60.173" x2="60.173" y1="14.5984"
                  stroke-linejoin="bevel" y2="94.376" stroke-width="0.8504"/>
            <path d="M60.5982 14.5984 L92.2382 14.5984 L92.2382 15.4488 L60.5982 15.4488 Z"
                  stroke="none"/>
            <text x="95.0729" xml:space="preserve" font-size="14" y="19.5197"
                  stroke="none"></text>
            <path d="M60.5982 93.5256 L66 93.5256 L66 94.376 L60.5982 94.376 Z"
                  stroke="none"/>
            <text x="35.915" xml:space="preserve" y="88.3524" stroke="none">NT1.4</text><line stroke-linecap="butt"
                  fill="none" x1="65.5391" x2="65.5391" y1="50.8465"
                  stroke-linejoin="bevel" y2="137.0551" stroke-width="0.8504"/>
            <path d="M65.9642 50.8465 L71 50.8465 L71 51.6969 L65.9642 51.6969 Z"
                  stroke="none"/>
            <text x="41.2018" xml:space="preserve" y="45.6732" stroke="none">NT1.5</text><line stroke-linecap="butt"
                  fill="none" x1="70.9051" x2="70.9051" y1="33.3071"
                  stroke-linejoin="bevel" y2="69.2362" stroke-width="0.8504"/>
            <path d="M71.3303 33.3071 L92.2382 33.3071 L92.2382 34.1575 L71.3303 34.1575 Z"
                  stroke="none"/>
            <text x="95.0729" xml:space="preserve" font-size="14" y="38.2283"
                  stroke="none">A8234028</text><path d="M71.3303 68.3858 L77 68.3858 L77 69.2362 L71.3303 69.2362 Z"
                  stroke="none"/>
            <text x="46.8413" xml:space="preserve" y="63.2126" stroke="none">NT1.7</text><line stroke-linecap="butt"
                  fill="none" x1="76.4917" x2="76.4917" y1="52.0157"
                  stroke-linejoin="bevel" y2="85.6063" stroke-width="0.8504"/>
            <path d="M76.9169 52.0158 L92.2383 52.0158 L92.2383 52.8661 L76.9169 52.8661 Z"
                  stroke="none"/>
            <text x="95.0729" xml:space="preserve" font-size="14" y="56.937"
                  stroke="none"></text>
            <path d="M76.9169 84.7559 L82 84.7559 L82 85.6063 L76.9169 85.6063 Z"
                  stroke="none"/>
            <text x="52.1206" xml:space="preserve" y="79.5827" stroke="none">NT1.9</text><line stroke-linecap="butt"
                  fill="none" x1="81.7843" x2="81.7843" y1="70.7244"
                  stroke-linejoin="bevel" y2="99.6378" stroke-width="0.8504"/>
            <path d="M82.2095 70.7244 L92.1648 70.7244 L92.1648 71.5748 L82.2095 71.5748 Z"
                  stroke="none"/>
            <text x="94.9994" xml:space="preserve" font-size="14" y="75.6457"
                  stroke="none"></text>
            <path d="M82.2095 98.7874 L87 98.7874 L87 99.6378 L82.2095 99.6378 Z"
                  stroke="none"/>
            <text x="52.9803" xml:space="preserve" y="93.6142" stroke="none">NT1.11</text><line stroke-linecap="butt"
                  fill="none" x1="87.1504" x2="87.1504" y1="89.4331"
                  stroke-linejoin="bevel" y2="108.9921" stroke-width="0.8504"/>
            <path d="M87.5756 89.4331 L92.2383 89.4331 L92.2383 90.2835 L87.5756 90.2835 Z"
                  stroke="none"/>
            <text x="95.0729" xml:space="preserve" font-size="14" y="94.3543"
                  stroke="none"></text>
            <path d="M87.5756 108.1417 L92.2383 108.1417 L92.2383 108.9921 L87.5756 108.9921 Z"
                  stroke="none"/>
            <text x="95.0729" xml:space="preserve" font-size="14" y="113.063"
                  stroke="none">ABOO4723</text><path d="M65.9642 136.2047 L87 136.2047 L87 137.0551 L65.9642 137.0551 Z"
                  stroke="none"/>
            <text x="51.6456" xml:space="preserve" y="131.0315" stroke="none">NT1.12</text><line stroke-linecap="butt"
                  fill="none" x1="87.1504" x2="87.1504" y1="126.8504"
                  stroke-linejoin="bevel" y2="146.4095" stroke-width="0.8504"/>
            <path d="M87.5756 126.8504 L92.1648 126.8504 L92.1648 127.7008 L87.5756 127.7008 Z"
                  stroke="none"/>
            <text x="94.9994" xml:space="preserve" font-size="14" y="131.7717"
                  stroke="none"></text>
            <path d="M87.5756 145.5591 L92.2383 145.5591 L92.2383 146.4095 L87.5756 146.4095 Z"
                  stroke="none"/>
            <text x="95.0729" xml:space="preserve" font-size="14" y="150.4803"
                  stroke="none"></text>
            <path d="M55.2321 223.9016 L71 223.9016 L71 224.752 L55.2321 224.752 Z"
                  stroke="none"/>
            <text x="41.2547" xml:space="preserve" y="218.7283" stroke="none">NT1.6</text><line stroke-linecap="butt"
                  fill="none" x1="70.9051" x2="70.9051" y1="199.3465"
                  stroke-linejoin="bevel" y2="249.3071" stroke-width="0.8504"/>
            <path d="M71.3303 199.3465 L77 199.3465 L77 200.1969 L71.3303 200.1969 Z"
                  stroke="none"/>
            <text x="46.828" xml:space="preserve" y="194.1732" stroke="none">NT1.8</text><line stroke-linecap="butt"
                  fill="none" x1="76.4917" x2="76.4917" y1="178.2992"
                  stroke-linejoin="bevel" y2="221.2441" stroke-width="0.8504"/>
            <path d="M76.9169 178.2992 L82 178.2992 L82 179.1496 L76.9169 179.1496 Z"
                  stroke="none"/>
            <text x="46.2399" xml:space="preserve" y="173.126" stroke="none">NT1.10</text><line stroke-linecap="butt"
                  fill="none" x1="81.7843" x2="81.7843" y1="164.2677"
                  stroke-linejoin="bevel" y2="193.1811" stroke-width="0.8504"/>
            <path d="M82.2095 164.2677 L92.2383 164.2677 L92.2383 165.1181 L82.2095 165.1181 Z"
                  stroke="none"/>
            <text x="95.0729" xml:space="preserve" font-size="14" y="169.189"
                  stroke="none">A3286021</text><path d="M82.2095 192.3307 L87 192.3307 L87 193.1811 L82.2095 193.1811 Z"
                  stroke="none"/>
            <text x="51.606" xml:space="preserve" y="187.1575" stroke="none">NT1.14</text><line stroke-linecap="butt"
                  fill="none" x1="87.1504" x2="87.1504" y1="182.9764"
                  stroke-linejoin="bevel" y2="202.5354" stroke-width="0.8504"/>
            <path d="M87.5756 182.9764 L92.1648 182.9764 L92.1648 183.8268 L87.5756 183.8268 Z"
                  stroke="none"/>
            <text x="94.9994" xml:space="preserve" font-size="14" y="187.8976"
                  stroke="none">ABZBGOZO</text><path d="M87.5756 201.685 L92.2383 201.685 L92.2383 202.5354 L87.5756 202.5354 Z"
                  stroke="none"/>
            <text x="95.0729" xml:space="preserve" font-size="14" y="206.6063"
                  stroke="none"></text>
            <path d="M76.9169 220.3937 L92.2382 220.3937 L92.2382 221.2441 L76.9169 221.2441 Z"
                  stroke="none"/>
            <text x="95.0729" xml:space="preserve" font-size="14" y="225.315"
                  stroke="none">AYO62021</text><path d="M71.3303 248.4567 L87 248.4567 L87 249.3071 L71.3303 249.3071 Z"
                  stroke="none"/>
            <text x="51.5795" xml:space="preserve" y="243.2834" stroke="none">NT1.13</text><line stroke-linecap="butt"
                  fill="none" x1="87.1504" x2="87.1504" y1="239.1024"
                  stroke-linejoin="bevel" y2="258.6614" stroke-width="0.8504"/>
            <path d="M87.5756 239.1024 L92.2383 239.1024 L92.2383 239.9528 L87.5756 239.9528 Z"
                  stroke="none"/>
            <text x="95.0729" xml:space="preserve" font-size="14" y="244.0236"
                  stroke="none">X77443</text><path d="M87.5756 257.811 L92.2383 257.811 L92.2383 258.6614 L87.5756 258.6614 Z"
                  stroke="none"/>
            <text x="95.0729" xml:space="preserve" font-size="14" y="262.7323"
                  stroke="none">ABOO7414</text><path d="M49.7925 285.874 L87 285.874 L87 286.7244 L49.7925 286.7244 Z"
                  stroke="none"/>
            <text x="51.6002" xml:space="preserve" y="280.7008" stroke="none">NT1.15</text><line stroke-linecap="butt"
                  fill="none" x1="87.2239" x2="87.2239" y1="276.5197"
                  stroke-linejoin="bevel" y2="296.0788" stroke-width="0.8504"/>
            <path d="M87.6491 276.5197 L92.2383 276.5197 L92.2383 277.3701 L87.6491 277.3701 Z"
                  stroke="none"/>
            <text x="95.0729" xml:space="preserve" font-size="14" y="281.441"
                  stroke="none">AF263563</text><path d="M87.6491 295.2284 L92.2383 295.2284 L92.2383 296.0788 L87.6491 296.0788 Z"
                  stroke="none"/>
            <text x="95.0729" xml:space="preserve" font-size="14" y="300.1497"
                  stroke="none">X77446</text><path d="M44.5 313.937 L92.2383 313.937 L92.2383 314.7874 L44.5 314.7874 Z"
                  stroke="none"/>
            <text x="95.0729" xml:space="preserve" font-size="14" y="318.8583"
                  stroke="none"></text>
        </g>
    </g>
</svg>
