<?xml version="1.0"?>
<!DOCTYPE svg PUBLIC '-//W3C//DTD SVG 1.0//EN'
    'http://www.w3.org/TR/2001/REC-SVG-20010904/DTD/svg10.dtd' >

<svg fill-opacity="1" xmlns:xlink="http://www.w3.org/1999/xlink"
     color-rendering="auto" color-interpolation="auto" stroke="black"
     text-rendering="auto" stroke-linecap="square" stroke-miterlimit="10"
     stroke-opacity="1" shape-rendering="auto" fill="black"
     stroke-dasharray="none" font-weight="normal" stroke-width="1"
     xmlns="http://www.w3.org/2000/svg" font-family="&apos;Dialog&apos;"
     font-style="normal" stroke-linejoin="miter" font-size="12"
     stroke-dashoffset="0" image-rendering="auto">
    <!--Generated by the Batik Graphics2D SVG Generator-->
    <defs id="genericDefs"/>
    <g>
        <g fill="white" stroke="white">
            <rect x="0" width="208" height="541" y="0" stroke="none"/>
            <path fill="black"
                  d="M5 429.3913 L44 429.3913 L44 430.2417 L5 430.2417 Z"
                  stroke="none"/>
        </g>
        <g font-family="&apos;Arial&apos;" font-size="9">
            <text x="8.5039" xml:space="preserve" y="424.2181" stroke="none">NT1.54</text><line stroke-linecap="butt"
                  fill="none" x1="44.0484" x2="44.0484" y1="338.1998"
                  stroke-linejoin="bevel" y2="520.5828" stroke-width="0.8504"/>
            <path d="M44.4736 338.1998 L53 338.1998 L53 339.0502 L44.4736 339.0502 Z"
                  stroke="none"/>
            <text x="24.5161" xml:space="preserve" y="333.0266" stroke="none">NT1.1</text><line stroke-linecap="butt"
                  fill="none" x1="52.7658" x2="52.7658" y1="184.7303"
                  stroke-linejoin="bevel" y2="492.5197" stroke-width="0.8504"/>
            <path d="M53.191 184.7303 L55 184.7303 L55 185.5807 L53.191 185.5807 Z"
                  stroke="none"/>
            <text x="25.7519" xml:space="preserve" y="179.5571" stroke="none">NT1.2</text><line stroke-linecap="butt"
                  fill="none" x1="55.3363" x2="55.3363" y1="14.5984"
                  stroke-linejoin="bevel" y2="355.7126" stroke-width="0.8504"/>
            <path d="M55.7615 14.5984 L86.3163 14.5984 L86.3163 15.4488 L55.7615 15.4488 Z"
                  stroke="none"/>
            <text x="89.1509" xml:space="preserve" font-size="14" y="19.5197"
                  stroke="none">AY616012</text><path d="M55.7615 354.8622 L58 354.8622 L58 355.7126 L55.7615 355.7126 Z"
                  stroke="none"/>
            <text x="27.8093" xml:space="preserve" y="349.689" stroke="none">NT1.3</text><line stroke-linecap="butt"
                  fill="none" x1="57.4598" x2="57.4598" y1="269.504"
                  stroke-linejoin="bevel" y2="441.0709" stroke-width="0.8504"/>
            <path d="M57.885 269.504 L59 269.504 L59 270.3544 L57.885 270.3544 Z"
                  stroke="none"/>
            <text x="29.5122" xml:space="preserve" y="264.3307" stroke="none">NT1.4</text><line stroke-linecap="butt"
                  fill="none" x1="59.1362" x2="59.1362" y1="191.1614"
                  stroke-linejoin="bevel" y2="348.6969" stroke-width="0.8504"/>
            <path d="M59.5614 191.1614 L60 191.1614 L60 192.0118 L59.5614 192.0118 Z"
                  stroke="none"/>
            <text x="30.5505" xml:space="preserve" y="185.9882" stroke="none">NT1.5</text><line stroke-linecap="butt"
                  fill="none" x1="60.2538" x2="60.2538" y1="140.8819"
                  stroke-linejoin="bevel" y2="242.2914" stroke-width="0.8504"/>
            <path d="M60.6791 140.8819 L64 140.8819 L64 141.7323 L60.6791 141.7323 Z"
                  stroke="none"/>
            <text x="34.4033" xml:space="preserve" y="135.7087" stroke="none">NT1.6</text><line stroke-linecap="butt"
                  fill="none" x1="64.0538" x2="64.0538" y1="94.1103"
                  stroke-linejoin="bevel" y2="188.504" stroke-width="0.8504"/>
            <path d="M64.479 94.1103 L67 94.1103 L67 94.9606 L64.479 94.9606 Z"
                  stroke="none"/>
            <text x="31.7505" xml:space="preserve" y="88.937" stroke="none">NT1.10</text><line stroke-linecap="butt"
                  fill="none" x1="67.2949" x2="67.2949" y1="56.6929"
                  stroke-linejoin="bevel" y2="132.378" stroke-width="0.8504"/>
            <path d="M67.7201 56.6929 L71 56.6929 L71 57.5433 L67.7201 57.5433 Z"
                  stroke="none"/>
            <text x="35.5504" xml:space="preserve" y="51.5197" stroke="none">NT1.14</text><line stroke-linecap="butt"
                  fill="none" x1="71.0948" x2="71.0948" y1="33.3071"
                  stroke-linejoin="bevel" y2="80.9292" stroke-width="0.8504"/>
            <path d="M71.52 33.3071 L88.328 33.3071 L88.328 34.1575 L71.52 34.1575 Z"
                  stroke="none"/>
            <text x="91.1627" xml:space="preserve" font-size="14" y="38.2284"
                  stroke="none">D78311</text><path d="M71 52.0158 L91.4574 52.0158 L91.4574 52.8662 L71 52.8662 Z"
                  stroke="none"/>
            <text x="94.292" xml:space="preserve" font-size="14" y="56.937"
                  stroke="none">D78312</text><path d="M71.52 80.0788 L70 80.0788 L70 80.9292 L71.52 80.9292 Z"
                  stroke="none"/>
            <text x="34.8534" xml:space="preserve" y="74.9055" stroke="none">NT1.13</text><line stroke-linecap="butt"
                  fill="none" x1="70.4242" x2="70.4242" y1="70.7244"
                  stroke-linejoin="bevel" y2="90.2835" stroke-width="0.8504"/>
            <path d="M70.8494 70.7244 L84.8634 70.7244 L84.8634 71.5748 L70.8494 71.5748 Z"
                  stroke="none"/>
            <text x="87.698" xml:space="preserve" font-size="14" y="75.6457"
                  stroke="none">D16268</text><path d="M70.8494 89.4331 L89.6692 89.4331 L89.6692 90.2835 L70.8494 90.2835 Z"
                  stroke="none"/>
            <text x="92.5038" xml:space="preserve" font-size="14" y="94.3544"
                  stroke="none">D16272</text><path d="M67.7201 131.5276 L72 131.5276 L72 132.378 L67.7201 132.378 Z"
                  stroke="none"/>
            <text x="35.8064" xml:space="preserve" y="126.3544" stroke="none">NT1.15</text><line stroke-linecap="butt"
                  fill="none" x1="71.4301" x2="71.4301" y1="117.4961"
                  stroke-linejoin="bevel" y2="146.4095" stroke-width="0.8504"/>
            <path d="M71.8553 117.4961 L76 117.4961 L76 118.3465 L71.8553 118.3465 Z"
                  stroke="none"/>
            <text x="39.8695" xml:space="preserve" y="112.3229" stroke="none">NT1.19</text><line stroke-linecap="butt"
                  fill="none" x1="75.4535" x2="75.4535" y1="108.1418"
                  stroke-linejoin="bevel" y2="127.7008" stroke-width="0.8504"/>
            <path d="M75.8787 108.1418 L92.6867 108.1418 L92.6867 108.9921 L75.8787 108.9921 Z"
                  stroke="none"/>
            <text x="95.5214" xml:space="preserve" font-size="14" y="113.063"
                  stroke="none">AJ250056</text><path d="M75.8787 126.8504 L87.9927 126.8504 L87.9927 127.7008 L75.8787 127.7008 Z"
                  stroke="none"/>
            <text x="90.8274" xml:space="preserve" font-size="14" y="131.7717"
                  stroke="none">AF221061</text><path d="M71.8553 145.5591 L89.4456 145.5591 L89.4456 146.4095 L71.8553 146.4095 Z"
                  stroke="none"/>
            <text x="92.2803" xml:space="preserve" font-size="14" y="150.4803"
                  stroke="none">X64465</text><path d="M64.479 187.6536 L75 187.6536 L75 188.504 L64.479 188.504 Z"
                  stroke="none"/>
            <text x="39.1989" xml:space="preserve" y="182.4804" stroke="none">NT1.18</text><line stroke-linecap="butt"
                  fill="none" x1="74.783" x2="74.783" y1="173.6221"
                  stroke-linejoin="bevel" y2="202.5355" stroke-width="0.8504"/>
            <path d="M75.2082 173.6221 L112 173.6221 L112 174.4725 L75.2082 174.4725 Z"
                  stroke="none"/>
            <text x="76.5671" xml:space="preserve" y="168.4489" stroke="none">NT1.50</text><line stroke-linecap="butt"
                  fill="none" x1="112.1115" x2="112.1115" y1="164.2677"
                  stroke-linejoin="bevel" y2="183.8268" stroke-width="0.8504"/>
            <path d="M112.5367 164.2677 L115.4862 164.2677 L115.4862 165.1181 L112.5367 165.1181 Z"
                  stroke="none"/>
            <text x="118.3209" xml:space="preserve" font-size="14" y="169.189"
                  stroke="none">78310.0</text><path d="M112.5367 182.9764 L117.0509 182.9764 L117.0509 183.8268 L112.5367 183.8268 Z"
                  stroke="none"/>
            <text x="119.8856" xml:space="preserve" font-size="14" y="187.8977"
                  stroke="none">D78313</text><path d="M75.2082 201.6851 L91.1221 201.6851 L91.1221 202.5355 L75.2082 202.5355 Z"
                  stroke="none"/>
            <text x="93.9567" xml:space="preserve" font-size="14" y="206.6063"
                  stroke="none">X82492</text><path d="M60.6791 241.441 L67 241.441 L67 242.2914 L60.6791 242.2914 Z"
                  stroke="none"/>
            <text x="37.5194" xml:space="preserve" y="236.2677" stroke="none">NT1.9</text><line stroke-linecap="butt"
                  fill="none" x1="67.1831" x2="67.1831" y1="220.3937"
                  stroke-linejoin="bevel" y2="263.3386" stroke-width="0.8504"/>
            <path d="M67.6083 220.3937 L86.8751 220.3937 L86.8751 221.2441 L67.6083 221.2441 Z"
                  stroke="none"/>
            <text x="89.7097" xml:space="preserve" font-size="14" y="225.315"
                  stroke="none">D16273</text><path d="M67.6083 262.4882 L82 262.4882 L82 263.3386 L67.6083 263.3386 Z"
                  stroke="none"/>
            <text x="46.1678" xml:space="preserve" y="257.315" stroke="none">NT1.24</text><line stroke-linecap="butt"
                  fill="none" x1="81.7122" x2="81.7122" y1="248.4567"
                  stroke-linejoin="bevel" y2="277.3701" stroke-width="0.8504"/>
            <path d="M82.1374 248.4567 L86 248.4567 L86 249.3071 L82.1374 249.3071 Z"
                  stroke="none"/>
            <text x="50.5661" xml:space="preserve" y="243.2835" stroke="none">NT1.32</text><line stroke-linecap="butt"
                  fill="none" x1="86.0709" x2="86.0709" y1="239.1024"
                  stroke-linejoin="bevel" y2="258.6615" stroke-width="0.8504"/>
            <path d="M86.4961 239.1024 L93.6926 239.1024 L93.6926 239.9528 L86.4961 239.9528 Z"
                  stroke="none"/>
            <text x="96.5272" xml:space="preserve" font-size="14" y="244.0237"
                  stroke="none">X76443</text><path d="M86.4961 257.8111 L95.369 257.8111 L95.369 258.6615 L86.4961 258.6615 Z"
                  stroke="none"/>
            <text x="98.2037" xml:space="preserve" font-size="14" y="262.7323"
                  stroke="none">X76447</text><path d="M82.1374 276.5197 L90.4515 276.5197 L90.4515 277.3701 L82.1374 277.3701 Z"
                  stroke="none"/>
            <text x="93.2861" xml:space="preserve" font-size="14" y="281.441"
                  stroke="none">X76437</text><path d="M59.5614 347.8465 L64 347.8465 L64 348.6969 L59.5614 348.6969 Z"
                  stroke="none"/>
            <text x="34.7386" xml:space="preserve" y="342.6733" stroke="none">NT1.7</text><line stroke-linecap="butt"
                  fill="none" x1="64.389" x2="64.389" y1="311.5984"
                  stroke-linejoin="bevel" y2="384.9449" stroke-width="0.8504"/>
            <path d="M64.8143 311.5984 L67 311.5984 L67 312.4489 L64.8143 312.4489 Z"
                  stroke="none"/>
            <text x="37.1841" xml:space="preserve" y="306.4252" stroke="none">NT1.8</text><line stroke-linecap="butt"
                  fill="none" x1="66.8478" x2="66.8478" y1="295.2284"
                  stroke-linejoin="bevel" y2="328.8189" stroke-width="0.8504"/>
            <path d="M67.273 295.2284 L83.8575 295.2284 L83.8575 296.0788 L67.273 296.0788 Z"
                  stroke="none"/>
            <text x="86.6922" xml:space="preserve" font-size="14" y="300.1497"
                  stroke="none">AY667495</text><path d="M67.273 327.9686 L70 327.9686 L70 328.819 L67.273 328.819 Z"
                  stroke="none"/>
            <text x="34.3607" xml:space="preserve" y="322.7953" stroke="none">NT1.12</text><line stroke-linecap="butt"
                  fill="none" x1="69.8654" x2="69.8654" y1="313.9371"
                  stroke-linejoin="bevel" y2="342.8505" stroke-width="0.8504"/>
            <path d="M70.2907 313.9371 L79.6106 313.9371 L79.6106 314.7875 L70.2907 314.7875 Z"
                  stroke="none"/>
            <text x="82.4453" xml:space="preserve" font-size="14" y="318.8583"
                  stroke="none">AF483624</text><path d="M70.2907 342.0001 L74 342.0001 L74 342.8505 L70.2907 342.8505 Z"
                  stroke="none"/>
            <text x="38.7651" xml:space="preserve" y="336.8268" stroke="none">NT1.17</text><line stroke-linecap="butt"
                  fill="none" x1="74.3359" x2="74.3359" y1="332.6458"
                  stroke-linejoin="bevel" y2="352.2048" stroke-width="0.8504"/>
            <path d="M74.7611 332.6458 L77.9342 332.6458 L77.9342 333.4962 L74.7611 333.4962 Z"
                  stroke="none"/>
            <text x="80.7688" xml:space="preserve" font-size="14" y="337.567"
                  stroke="none">AF483625</text><path d="M74.7611 351.3544 L78.8283 351.3544 L78.8283 352.2048 L74.7611 352.2048 Z"
                  stroke="none"/>
            <text x="81.6629" xml:space="preserve" font-size="14" y="356.2757"
                  stroke="none">ABOQQ708</text><path d="M64.8143 384.0945 L83 384.0945 L83 384.9449 L64.8143 384.9449 Z"
                  stroke="none"/>
            <text x="47.5414" xml:space="preserve" y="378.9213" stroke="none">NT1.25</text><line stroke-linecap="butt"
                  fill="none" x1="83.1651" x2="83.1651" y1="370.063"
                  stroke-linejoin="bevel" y2="398.9764" stroke-width="0.8504"/>
            <path d="M83.5903 370.063 L84.4163 370.063 L84.4163 370.9135 L83.5903 370.9135 Z"
                  stroke="none"/>
            <text x="87.251" xml:space="preserve" font-size="14" y="374.9843"
                  stroke="none">EF014450</text><path d="M83.5903 398.1261 L84 398.1261 L84 398.9765 L83.5903 398.9765 Z"
                  stroke="none"/>
            <text x="48.0413" xml:space="preserve" y="392.9529" stroke="none">NT1.27</text><line stroke-linecap="butt"
                  fill="none" x1="83.6121" x2="83.6121" y1="388.7717"
                  stroke-linejoin="bevel" y2="408.3307" stroke-width="0.8504"/>
            <path d="M84.0373 388.7717 L83.187 388.7717 L83.187 389.6221 L84.0373 389.6221 Z"
                  stroke="none"/>
            <text x="86.0216" xml:space="preserve" font-size="14" y="393.693"
                  stroke="none">EF014451</text><path d="M84.0373 407.4804 L87.0986 407.4804 L87.0986 408.3308 L84.0373 408.3308 Z"
                  stroke="none"/>
            <text x="89.9333" xml:space="preserve" font-size="14" y="412.4016"
                  stroke="none">EF014452</text><path d="M57.885 440.2206 L74 440.2206 L74 441.071 L57.885 441.071 Z"
                  stroke="none"/>
            <text x="37.8709" xml:space="preserve" y="435.0473" stroke="none">NT1.16</text><line stroke-linecap="butt"
                  fill="none" x1="73.4418" x2="73.4418" y1="426.189"
                  stroke-linejoin="bevel" y2="455.1024" stroke-width="0.8504"/>
            <path d="M73.867 426.1891 L91.2338 426.1891 L91.2338 427.0395 L73.867 427.0395 Z"
                  stroke="none"/>
            <text x="94.0685" xml:space="preserve" font-size="14" y="431.1103"
                  stroke="none">X60637</text><path d="M73.867 454.2521 L79 454.2521 L79 455.1025 L73.867 455.1025 Z"
                  stroke="none"/>
            <text x="44.7481" xml:space="preserve" y="449.0788" stroke="none">NT1.21</text><line stroke-linecap="butt"
                  fill="none" x1="78.9181" x2="78.9181" y1="444.8977"
                  stroke-linejoin="bevel" y2="464.4568" stroke-width="0.8504"/>
            <path d="M79.3433 444.8977 L85.1987 444.8977 L85.1987 445.7481 L79.3433 445.7481 Z"
                  stroke="none"/>
            <text x="88.0333" xml:space="preserve" font-size="14" y="449.819"
                  stroke="none">X68416</text><path d="M79.3433 463.6064 L89.3339 463.6064 L89.3339 464.4568 L79.3433 464.4568 Z"
                  stroke="none"/>
            <text x="92.1685" xml:space="preserve" font-size="14" y="468.5276"
                  stroke="none">X60646</text><path d="M53.191 491.6694 L68 491.6694 L68 492.5198 L53.191 492.5198 Z"
                  stroke="none"/>
            <text x="33.7954" xml:space="preserve" y="486.4962" stroke="none">NT1.11</text><line stroke-linecap="butt"
                  fill="none" x1="67.9654" x2="67.9654" y1="482.315"
                  stroke-linejoin="bevel" y2="501.8741" stroke-width="0.8504"/>
            <path d="M68.3906 482.315 L91.3456 482.315 L91.3456 483.1654 L68.3906 483.1654 Z"
                  stroke="none"/>
            <text x="94.1802" xml:space="preserve" font-size="14" y="487.2363"
                  stroke="none">AJ302709</text><path d="M68.3906 501.0237 L87.4339 501.0237 L87.4339 501.8741 L68.3906 501.8741 Z"
                  stroke="none"/>
            <text x="90.2686" xml:space="preserve" font-size="14" y="505.945"
                  stroke="none">X76439</text><path d="M44.4736 519.7324 L117.0509 519.7324 L117.0509 520.5827 L44.4736 520.5827 Z"
                  stroke="none"/>
            <text x="119.8855" xml:space="preserve" font-size="14" y="524.6536"
                  stroke="none">AB105164</text>
        </g>
    </g>
</svg>
