<?xml version="1.0"?>
<!DOCTYPE svg PUBLIC '-//W3C//DTD SVG 1.0//EN'
    'http://www.w3.org/TR/2001/REC-SVG-20010904/DTD/svg10.dtd' >

<svg fill-opacity="1" xmlns:xlink="http://www.w3.org/1999/xlink"
     color-rendering="auto" color-interpolation="auto" stroke="black"
     text-rendering="auto" stroke-linecap="square" stroke-miterlimit="10"
     stroke-opacity="1" shape-rendering="auto" fill="black"
     stroke-dasharray="none" font-weight="normal" stroke-width="1"
     xmlns="http://www.w3.org/2000/svg" font-family="&apos;Dialog&apos;"
     font-style="normal" stroke-linejoin="miter" font-size="12"
     stroke-dashoffset="0" image-rendering="auto">
    <!--Generated by the Batik Graphics2D SVG Generator-->
    <defs id="genericDefs"/>
    <g>
        <g fill="white" stroke="white">
            <rect x="0" width="427" height="411" y="0" stroke="none"/>
            <path fill="black"
                  d="M5 240.6105 L18 240.6105 L18 241.4609 L5 241.4609 Z"
                  stroke="none"/>
            <circle fill="black" r="1.2756" cx="17.4331" cy="240.6105"
                    stroke="none"/>
            <path fill="black"
                  d="M17.8583 239.7601 L18 239.7601 L18 240.6105 L17.8583 240.6105 Z"
                  stroke="none"/>
        </g>
        <g font-family="&apos;Arial&apos;" font-size="9">
            <text x="-12.0051" xml:space="preserve" y="234.5869" stroke="none">NT1.2</text><line stroke-linecap="butt"
                  fill="none" x1="17.5793" x2="17.5793" y1="100.1029"
                  stroke-linejoin="bevel" y2="380.2678" stroke-width="0.8504"/>
            <path d="M18.0045 100.1029 L39 100.1029 L39 100.9532 L18.0045 100.9532 Z"
                  stroke="none"/>
            <text x="8.9096" xml:space="preserve" y="94.9296" stroke="none">NT1.3</text><line stroke-linecap="butt"
                  fill="none" x1="38.5601" x2="38.5601" y1="14.5984"
                  stroke-linejoin="bevel" y2="186.4577" stroke-width="0.8504"/>
            <path d="M38.9852 14.5984 L91.2082 14.5984 L91.2082 15.4488 L38.9852 15.4488 Z"
                  stroke="none"/>
            <text x="94.0428" xml:space="preserve" font-size="14" y="19.5197"
                  stroke="none">AF281031</text><path d="M38.9852 185.6073 L45 185.6073 L45 186.4577 L38.9852 186.4577 Z"
                  stroke="none"/>
            <text x="15.7082" xml:space="preserve" y="180.4341" stroke="none">NT1.6</text><line stroke-linecap="butt"
                  fill="none" x1="45.3587" x2="45.3587" y1="71.3091"
                  stroke-linejoin="bevel" y2="300.7559" stroke-width="0.8504"/>
            <path d="M45.7839 71.3091 L53 71.3091 L53 72.1594 L45.7839 72.1594 Z"
                  stroke="none"/>
            <text x="22.7861" xml:space="preserve" y="66.1358" stroke="none">NT1.8</text><line stroke-linecap="butt"
                  fill="none" x1="52.4497" x2="52.4497" y1="33.3071"
                  stroke-linejoin="bevel" y2="110.1614" stroke-width="0.8504"/>
            <path d="M52.8749 33.3071 L67.9612 33.3071 L67.9612 34.1575 L52.8749 34.1575 Z"
                  stroke="none"/>
            <text x="70.7958" xml:space="preserve" font-size="14" y="38.2283"
                  stroke="none">AM181012</text><path d="M52.8749 109.311 L58 109.311 L58 110.1614 L52.8749 110.1614 Z"
                  stroke="none"/>
            <text x="22.1688" xml:space="preserve" y="104.1378" stroke="none">NT1.10</text><line stroke-linecap="butt"
                  fill="none" x1="57.7132" x2="57.7132" y1="52.0157"
                  stroke-linejoin="bevel" y2="167.4567" stroke-width="0.8504"/>
            <path d="M58.1384 52.0158 L74.175 52.0158 L74.175 52.8661 L58.1384 52.8661 Z"
                  stroke="none"/>
            <text x="77.0096" xml:space="preserve" font-size="14" y="56.937"
                  stroke="none">X94098</text><path d="M58.1384 166.6063 L76 166.6063 L76 167.4567 L58.1384 167.4567 Z"
                  stroke="none"/>
            <text x="40.1127" xml:space="preserve" y="161.4331" stroke="none">NT1.19</text><line stroke-linecap="butt"
                  fill="none" x1="75.6967" x2="75.6967" y1="103.4646"
                  stroke-linejoin="bevel" y2="230.5984" stroke-width="0.8504"/>
            <path d="M76.1219 103.4646 L87 103.4646 L87 104.315 L76.1219 104.315 Z"
                  stroke="none"/>
            <text x="50.8193" xml:space="preserve" y="98.2913" stroke="none">NT1.25</text><line stroke-linecap="butt"
                  fill="none" x1="86.443" x2="86.443" y1="70.7244"
                  stroke-linejoin="bevel" y2="137.0551" stroke-width="0.8504"/>
            <path d="M86.8682 70.7244 L91.7199 70.7244 L91.7199 71.5748 L86.8682 71.5748 Z"
                  stroke="none"/>
            <text x="94.5545" xml:space="preserve" font-size="14" y="75.6457"
                  stroke="none">AY519130</text><path d="M86 98.7874 L91 98.7874 L91 99.6378 L86 99.6378 Z"
                  stroke="none"/>
            <text x="54.9527" xml:space="preserve" y="93.6142" stroke="none">NT1.28</text><line stroke-linecap="butt"
                  fill="none" x1="90.5368" x2="90.5368" y1="89.4331"
                  stroke-linejoin="bevel" y2="108.9921" stroke-width="0.8504"/>
            <path d="M90.962 89.4331 L93.6206 89.4331 L93.6206 90.2835 L90.962 90.2835 Z"
                  stroke="none"/>
            <text x="96.4552" xml:space="preserve" font-size="14" y="94.3543"
                  stroke="none">AF039168</text><path d="M90.962 108.1417 L94.7171 108.1417 L94.7171 108.9921 L90.962 108.9921 Z"
                  stroke="none"/>
            <text x="97.5518" xml:space="preserve" font-size="14" y="113.063"
                  stroke="none">AY519129</text><path d="M86.8682 136.2047 L87 136.2047 L87 137.0551 L86.8682 137.0551 Z"
                  stroke="none"/>
            <text x="50.9452" xml:space="preserve" y="131.0315" stroke="none">NT1.26</text><line stroke-linecap="butt"
                  fill="none" x1="86.5161" x2="86.5161" y1="126.8504"
                  stroke-linejoin="bevel" y2="146.4095" stroke-width="0.8504"/>
            <path d="M86.9413 126.8504 L92.1585 126.8504 L92.1585 127.7008 L86.9413 127.7008 Z"
                  stroke="none"/>
            <text x="94.9932" xml:space="preserve" font-size="14" y="131.7717"
                  stroke="none">AF159257</text><path d="M86.9413 145.5591 L93.6206 145.5591 L93.6206 146.4095 L86.9413 146.4095 Z"
                  stroke="none"/>
            <text x="96.4552" xml:space="preserve" font-size="14" y="150.4803"
                  stroke="none">X87161</text><path d="M76 173.6221 L86 173.6221 L86 174.4725 L76 174.4725 Z"
                  stroke="none"/>
            <text x="50.1676" xml:space="preserve" y="168.4488" stroke="none">NT1.24</text><line stroke-linecap="butt"
                  fill="none" x1="85.712" x2="85.712" y1="164.2677"
                  stroke-linejoin="bevel" y2="183.8268" stroke-width="0.8504"/>
            <path d="M86.1372 164.2677 L99.3227 164.2677 L99.3227 165.1181 L86.1372 165.1181 Z"
                  stroke="none"/>
            <text x="102.1573" xml:space="preserve" font-size="14" y="169.189"
                  stroke="none">ABO22428</text><path d="M86.1372 182.9764 L101.662 182.9764 L101.662 183.8268 L86.1372 183.8268 Z"
                  stroke="none"/>
            <text x="104.4967" xml:space="preserve" font-size="14" y="187.8976"
                  stroke="none">D0092757</text><path d="M76.1219 229.748 L78 229.748 L78 230.5984 L76.1219 230.5984 Z"
                  stroke="none"/>
            <text x="42.3455" xml:space="preserve" y="224.5748" stroke="none">NT1.20</text><line stroke-linecap="butt"
                  fill="none" x1="77.8899" x2="77.8899" y1="211.0394"
                  stroke-linejoin="bevel" y2="249.3071" stroke-width="0.8504"/>
            <path d="M78.3151 211.0394 L80 211.0394 L80 211.8898 L78.3151 211.8898 Z"
                  stroke="none"/>
            <text x="45.3281" xml:space="preserve" y="205.8661" stroke="none">NT1.21</text><line stroke-linecap="butt"
                  fill="none" x1="79.4982" x2="79.4982" y1="201.685"
                  stroke-linejoin="bevel" y2="221.2441" stroke-width="0.8504"/>
            <path d="M79.9234 201.685 L89.5268 201.685 L89.5268 202.5354 L79.9234 202.5354 Z"
                  stroke="none"/>
            <text x="92.3615" xml:space="preserve" font-size="14" y="206.6063"
                  stroke="none">AB040739</text><path d="M79.9234 220.3937 L98.1531 220.3937 L98.1531 221.2441 L79.9234 221.2441 Z"
                  stroke="none"/>
            <text x="100.9877" xml:space="preserve" font-size="14" y="225.315"
                  stroke="none">AM489507</text><path d="M78.3151 248.4567 L82 248.4567 L82 249.3071 L78.3151 249.3071 Z"
                  stroke="none"/>
            <text x="46.4058" xml:space="preserve" y="243.2834" stroke="none">NT1.22</text><line stroke-linecap="butt"
                  fill="none" x1="81.9106" x2="81.9106" y1="239.1024"
                  stroke-linejoin="bevel" y2="258.6614" stroke-width="0.8504"/>
            <path d="M82.3358 239.1024 L85.2137 239.1024 L85.2137 239.9528 L82.3358 239.9528 Z"
                  stroke="none"/>
            <text x="88.0484" xml:space="preserve" font-size="14" y="244.0236"
                  stroke="none">ABO47364</text><path d="M82.3358 257.811 L92.5972 257.811 L92.5972 258.6614 L82.3358 258.6614 Z"
                  stroke="none"/>
            <text x="95.4318" xml:space="preserve" font-size="14" y="262.7323"
                  stroke="none">D84526</text><path d="M45.7839 299.9055 L49 299.9055 L49 300.7559 L45.7839 300.7559 Z"
                  stroke="none"/>
            <text x="18.7786" xml:space="preserve" y="294.7323" stroke="none">NT1.7</text><line stroke-linecap="butt"
                  fill="none" x1="48.4291" x2="48.4291" y1="276.5197"
                  stroke-linejoin="bevel" y2="324.1418" stroke-width="0.8504"/>
            <path d="M48.8543 276.5197 L58.6039 276.5197 L58.6039 277.3701 L48.8543 277.3701 Z"
                  stroke="none"/>
            <text x="61.4386" xml:space="preserve" font-size="14" y="281.441"
                  stroke="none">D13737</text><path d="M48.8543 323.2914 L56 323.2914 L56 324.1418 L48.8543 324.1418 Z"
                  stroke="none"/>
            <text x="26.3682" xml:space="preserve" y="318.1182" stroke="none">NT1.9</text><line stroke-linecap="butt"
                  fill="none" x1="56.0318" x2="56.0318" y1="304.5827"
                  stroke-linejoin="bevel" y2="342.8504" stroke-width="0.8504"/>
            <path d="M56.4571 304.5827 L63 304.5827 L63 305.4331 L56.4571 305.4331 Z"
                  stroke="none"/>
            <text x="27.479" xml:space="preserve" y="299.4095" stroke="none">NT1.13</text><line stroke-linecap="butt"
                  fill="none" x1="63.0498" x2="63.0498" y1="295.2284"
                  stroke-linejoin="bevel" y2="314.7874" stroke-width="0.8504"/>
            <path d="M63.475 295.2284 L94.7903 295.2284 L94.7903 296.0788 L63.475 296.0788 Z"
                  stroke="none"/>
            <text x="97.6249" xml:space="preserve" font-size="14" y="300.1497"
                  stroke="none">D13723</text><path d="M63.475 313.9371 L105.2441 313.9371 L105.2441 314.7875 L63.475 314.7875 Z"
                  stroke="none"/>
            <text x="108.0788" xml:space="preserve" font-size="14" y="318.8583"
                  stroke="none">D16147</text><path d="M56.4571 342 L74 342 L74 342.8504 L56.4571 342.8504 Z"
                  stroke="none"/>
            <text x="38.3186" xml:space="preserve" y="336.8268" stroke="none">NT1.15</text><line stroke-linecap="butt"
                  fill="none" x1="73.9423" x2="73.9423" y1="332.6457"
                  stroke-linejoin="bevel" y2="352.2047" stroke-width="0.8504"/>
            <path d="M74.3675 332.6457 L73.5902 332.6457 L73.5902 333.4961 L74.3675 333.4961 Z"
                  stroke="none"/>
            <text x="76.4248" xml:space="preserve" font-size="14" y="337.567"
                  stroke="none">BlastomonasursincolaDSM9006KABOZ4289</text><path d="M74.3675 351.3544 L73.5902 351.3544 L73.5902 352.2048 L74.3675 352.2048 Z"
                  stroke="none"/>
            <text x="76.4248" xml:space="preserve" font-size="14" y="356.2756"
                  stroke="none">ABOZ4288</text><path d="M18.0045 379.4174 L41 379.4174 L41 380.2678 L18.0045 380.2678 Z"
                  stroke="none"/>
            <text x="11.2753" xml:space="preserve" y="374.2442" stroke="none">NT1.4</text><line stroke-linecap="butt"
                  fill="none" x1="40.8993" x2="40.8993" y1="370.063"
                  stroke-linejoin="bevel" y2="389.6221" stroke-width="0.8504"/>
            <path d="M41.3246 370.063 L41.7169 370.063 L41.7169 370.9135 L41.3246 370.9135 Z"
                  stroke="none"/>
            <text x="44.5516" xml:space="preserve" font-size="14" y="374.9843"
                  stroke="none">D13726</text><path d="M41.3246 388.7717 L57.8729 388.7717 L57.8729 389.6221 L41.3246 389.6221 Z"
                  stroke="none"/>
            <text x="60.7075" xml:space="preserve" font-size="14" y="393.693"
                  stroke="none">X72722</text>
        </g>
    </g>
</svg>
