<?xml version="1.0"?>
<!DOCTYPE svg PUBLIC '-//W3C//DTD SVG 1.0//EN'
    'http://www.w3.org/TR/2001/REC-SVG-20010904/DTD/svg10.dtd' >

<svg fill-opacity="1" xmlns:xlink="http://www.w3.org/1999/xlink"
     color-rendering="auto" color-interpolation="auto" stroke="black"
     text-rendering="auto" stroke-linecap="square" stroke-miterlimit="10"
     stroke-opacity="1" shape-rendering="auto" fill="black"
     stroke-dasharray="none" font-weight="normal" stroke-width="1"
     xmlns="http://www.w3.org/2000/svg" font-family="&apos;Dialog&apos;"
     font-style="normal" stroke-linejoin="miter" font-size="12"
     stroke-dashoffset="0" image-rendering="auto">
    <!--Generated by the Batik Graphics2D SVG Generator-->
    <defs id="genericDefs"/>
    <g>
        <g fill="white" stroke="white">
            <rect x="0" width="229" height="561" y="0" stroke="none"/>
            <path fill="black"
                  d="M5 486.6367 L18 486.6367 L18 487.4871 L5 487.4871 Z"
                  stroke="none"/>
            <circle fill="black" r="1.2756" cx="17.4331" cy="486.6367"
                    stroke="none"/>
            <path fill="black"
                  d="M17.8583 485.7863 L18 485.7863 L18 486.6367 L17.8583 486.6367 Z"
                  stroke="none"/>
        </g>
        <g font-family="&apos;Arial&apos;" font-size="9">
            <text x="-11.9968" xml:space="preserve" y="480.6131" stroke="none">NT1.2</text><line stroke-linecap="butt"
                  fill="none" x1="17.5876" x2="17.5876" y1="433.1317"
                  stroke-linejoin="bevel" y2="539.2914" stroke-width="0.8504"/>
            <path d="M18.0128 433.1317 L32 433.1317 L32 433.9821 L18.0128 433.9821 Z"
                  stroke="none"/>
            <text x="1.841" xml:space="preserve" y="427.9584" stroke="none">NT1.3</text><line stroke-linecap="butt"
                  fill="none" x1="31.4915" x2="31.4915" y1="371.0862"
                  stroke-linejoin="bevel" y2="496.0276" stroke-width="0.8504"/>
            <path d="M31.9167 371.0862 L35 371.0862 L35 371.9366 L31.9167 371.9366 Z"
                  stroke="none"/>
            <text x="5.4979" xml:space="preserve" y="365.9129" stroke="none">NT1.4</text><line stroke-linecap="butt"
                  fill="none" x1="35.1219" x2="35.1219" y1="334.692"
                  stroke-linejoin="bevel" y2="408.3307" stroke-width="0.8504"/>
            <path d="M35.5471 334.692 L39 334.692 L39 335.5424 L35.5471 335.5424 Z"
                  stroke="none"/>
            <text x="9.2564" xml:space="preserve" y="329.5187" stroke="none">NT1.6</text><line stroke-linecap="butt"
                  fill="none" x1="38.9068" x2="38.9068" y1="289.9666"
                  stroke-linejoin="bevel" y2="380.2678" stroke-width="0.8504"/>
            <path d="M39.332 289.9666 L40 289.9666 L40 290.817 L39.332 290.817 Z"
                  stroke="none"/>
            <text x="10.6468" xml:space="preserve" y="284.7933" stroke="none">NT1.7</text><line stroke-linecap="butt"
                  fill="none" x1="40.2972" x2="40.2972" y1="242.6102"
                  stroke-linejoin="bevel" y2="338.1732" stroke-width="0.8504"/>
            <path d="M40.7224 242.6102 L43 242.6102 L43 243.4606 L40.7224 243.4606 Z"
                  stroke="none"/>
            <text x="12.7964" xml:space="preserve" y="237.437" stroke="none">NT1.9</text><line stroke-linecap="butt"
                  fill="none" x1="42.4601" x2="42.4601" y1="189.9921"
                  stroke-linejoin="bevel" y2="296.0788" stroke-width="0.8504"/>
            <path d="M42.8853 189.9921 L44 189.9921 L44 190.8425 L42.8853 190.8425 Z"
                  stroke="none"/>
            <text x="8.4606" xml:space="preserve" y="184.8189" stroke="none">NT1.10</text><line stroke-linecap="butt"
                  fill="none" x1="44.005" x2="44.005" y1="121.0039"
                  stroke-linejoin="bevel" y2="259.8307" stroke-width="0.8504"/>
            <path d="M44.4302 121.0039 L48 121.0039 L48 121.8543 L44.4302 121.8543 Z"
                  stroke="none"/>
            <text x="11.9101" xml:space="preserve" y="115.8307" stroke="none">NT1.13</text><line stroke-linecap="butt"
                  fill="none" x1="47.4809" x2="47.4809" y1="73.063"
                  stroke-linejoin="bevel" y2="169.7953" stroke-width="0.8504"/>
            <path d="M47.9061 73.063 L49 73.063 L49 73.9134 L47.9061 73.9134 Z"
                  stroke="none"/>
            <text x="13.1724" xml:space="preserve" y="67.8898" stroke="none">NT1.14</text><line stroke-linecap="butt"
                  fill="none" x1="48.7168" x2="48.7168" y1="42.6614"
                  stroke-linejoin="bevel" y2="104.315" stroke-width="0.8504"/>
            <path d="M49.142 42.6614 L51 42.6614 L51 43.5118 L49.142 43.5118 Z"
                  stroke="none"/>
            <text x="14.9226" xml:space="preserve" y="37.4882" stroke="none">NT1.16</text><line stroke-linecap="butt"
                  fill="none" x1="50.4935" x2="50.4935" y1="23.9528"
                  stroke-linejoin="bevel" y2="62.2205" stroke-width="0.8504"/>
            <path d="M50.9187 23.9528 L58 23.9528 L58 24.8032 L50.9187 24.8032 Z"
                  stroke="none"/>
            <text x="23.8161" xml:space="preserve" y="18.7795" stroke="none">NT1.21</text><line stroke-linecap="butt"
                  fill="none" x1="57.9862" x2="57.9862" y1="14.5984"
                  stroke-linejoin="bevel" y2="34.1575" stroke-width="0.8504"/>
            <path d="M58.4114 14.5984 L73.7822 14.5984 L73.7822 15.4488 L58.4114 15.4488 Z"
                  stroke="none"/>
            <text x="76.6168" xml:space="preserve" font-size="14" y="19.5197"
                  stroke="none">D.radiodurans</text><path d="M58.4114 33.3071 L72.0828 33.3071 L72.0828 34.1575 L58.4114 34.1575 Z"
                  stroke="none"/>
            <text x="74.9175" xml:space="preserve" font-size="14" y="38.2283"
                  stroke="none">D.indicus</text><path d="M50.9187 61.3701 L53 61.3701 L53 62.2205 L50.9187 62.2205 Z"
                  stroke="none"/>
            <text x="17.3944" xml:space="preserve" y="56.1969" stroke="none">NT1.17</text><line stroke-linecap="butt"
                  fill="none" x1="52.9653" x2="52.9653" y1="52.0157"
                  stroke-linejoin="bevel" y2="71.5748" stroke-width="0.8504"/>
            <path d="M53.3905 52.0158 L63.6632 52.0158 L63.6632 52.8661 L53.3905 52.8661 Z"
                  stroke="none"/>
            <text x="66.4979" xml:space="preserve" font-size="14" y="56.937"
                  stroke="none">DQO17708</text><path d="M53.3905 70.7244 L63.9722 70.7244 L63.9722 71.5748 L53.3905 71.5748 Z"
                  stroke="none"/>
            <text x="66.8068" xml:space="preserve" font-size="14" y="75.6457"
                  stroke="none">D.grandis</text><path d="M49.142 103.4646 L72 103.4646 L72 104.315 L49.142 104.315 Z"
                  stroke="none"/>
            <text x="35.999" xml:space="preserve" y="98.2913" stroke="none">NT1.42</text><line stroke-linecap="butt"
                  fill="none" x1="71.5038" x2="71.5038" y1="89.4331"
                  stroke-linejoin="bevel" y2="118.3465" stroke-width="0.8504"/>
            <path d="M71.929 89.4331 L71.3876 89.4331 L71.3876 90.2835 L71.929 90.2835 Z"
                  stroke="none"/>
            <text x="74.2223" xml:space="preserve" font-size="14" y="94.3543"
                  stroke="none">DQOOS135</text><path d="M71.929 117.4961 L72 117.4961 L72 118.3464 L71.929 118.3464 Z"
                  stroke="none"/>
            <text x="36.0102" xml:space="preserve" y="112.3228" stroke="none">NT1.43</text><line stroke-linecap="butt"
                  fill="none" x1="71.581" x2="71.581" y1="108.1417"
                  stroke-linejoin="bevel" y2="127.7008" stroke-width="0.8504"/>
            <path d="M72.0063 108.1417 L71.0786 108.1417 L71.0786 108.9921 L72.0063 108.9921 Z"
                  stroke="none"/>
            <text x="73.9133" xml:space="preserve" font-size="14" y="113.063"
                  stroke="none">AY941086</text><path d="M72.0063 126.8504 L71.6966 126.8504 L71.6966 127.7008 L72.0063 127.7008 Z"
                  stroke="none"/>
            <text x="74.5312" xml:space="preserve" font-size="14" y="131.7717"
                  stroke="none">AY941086</text><path d="M47.9061 168.9449 L55 168.9449 L55 169.7953 L47.9061 169.7953 Z"
                  stroke="none"/>
            <text x="19.0806" xml:space="preserve" y="163.7717" stroke="none">NT1.19</text><line stroke-linecap="butt"
                  fill="none" x1="54.6646" x2="54.6646" y1="154.9134"
                  stroke-linejoin="bevel" y2="183.8268" stroke-width="0.8504"/>
            <path d="M55.0898 154.9134 L61 154.9134 L61 155.7638 L55.0898 155.7638 Z"
                  stroke="none"/>
            <text x="25.686" xml:space="preserve" y="149.7402" stroke="none">NT1.24</text><line stroke-linecap="butt"
                  fill="none" x1="61.2303" x2="61.2303" y1="145.5591"
                  stroke-linejoin="bevel" y2="165.1181" stroke-width="0.8504"/>
            <path d="M61.6555 145.5591 L65.1308 145.5591 L65.1308 146.4095 L61.6555 146.4095 Z"
                  stroke="none"/>
            <text x="67.9655" xml:space="preserve" font-size="14" y="150.4803"
                  stroke="none">AY743256</text><path d="M61.6555 164.2677 L66.7529 164.2677 L66.7529 165.1181 L61.6555 165.1181 Z"
                  stroke="none"/>
            <text x="69.5876" xml:space="preserve" font-size="14" y="169.189"
                  stroke="none">AY743259</text><path d="M55.0898 182.9764 L63.6632 182.9764 L63.6632 183.8268 L55.0898 183.8268 Z"
                  stroke="none"/>
            <text x="66.4978" xml:space="preserve" font-size="14" y="187.8976"
                  stroke="none">AY876378</text><path d="M44.4302 258.9803 L46 258.9803 L46 259.8307 L44.4302 259.8307 Z"
                  stroke="none"/>
            <text x="11.3026" xml:space="preserve" y="253.8071" stroke="none">NT1.11</text><line stroke-linecap="butt"
                  fill="none" x1="45.4726" x2="45.4726" y1="241.4409"
                  stroke-linejoin="bevel" y2="277.3701" stroke-width="0.8504"/>
            <path d="M45.8978 241.4409 L65 241.4409 L65 242.2913 L45.8978 242.2913 Z"
                  stroke="none"/>
            <text x="29.5085" xml:space="preserve" y="236.2677" stroke="none">NT1.28</text><line stroke-linecap="butt"
                  fill="none" x1="65.0925" x2="65.0925" y1="225.0709"
                  stroke-linejoin="bevel" y2="258.6614" stroke-width="0.8504"/>
            <path d="M65.5177 225.0709 L66 225.0709 L66 225.9213 L65.5177 225.9213 Z"
                  stroke="none"/>
            <text x="32.0812" xml:space="preserve" y="219.8976" stroke="none">NT1.31</text><line stroke-linecap="butt"
                  fill="none" x1="66.2512" x2="66.2512" y1="211.0394"
                  stroke-linejoin="bevel" y2="239.9528" stroke-width="0.8504"/>
            <path d="M66.6764 211.0394 L70 211.0394 L70 211.8898 L66.6764 211.8898 Z"
                  stroke="none"/>
            <text x="34.0791" xml:space="preserve" y="205.8661" stroke="none">NT1.37</text><line stroke-linecap="butt"
                  fill="none" x1="69.65" x2="69.65" y1="201.685"
                  stroke-linejoin="bevel" y2="221.2441" stroke-width="0.8504"/>
            <path d="M70.0752 201.685 L74.6319 201.685 L74.6319 202.5354 L70.0752 202.5354 Z"
                  stroke="none"/>
            <text x="77.4665" xml:space="preserve" font-size="14" y="206.6063"
                  stroke="none">AJ585984</text><path d="M70.0752 220.3937 L78.6485 220.3937 L78.6485 221.2441 L70.0752 221.2441 Z"
                  stroke="none"/>
            <text x="81.4832" xml:space="preserve" font-size="14" y="225.315"
                  stroke="none">AJ585981</text><path d="M66.6764 239.1024 L72.7007 239.1024 L72.7007 239.9528 L66.6764 239.9528 Z"
                  stroke="none"/>
            <text x="75.5354" xml:space="preserve" font-size="14" y="244.0236"
                  stroke="none">AJ585986</text><path d="M65.5177 257.811 L74.709 257.811 L74.709 258.6614 L65.5177 258.6614 Z"
                  stroke="none"/>
            <text x="77.5437" xml:space="preserve" font-size="14" y="262.7323"
                  stroke="none">Y11334</text><path d="M45.8978 276.5197 L66.6757 276.5197 L66.6757 277.3701 L45.8978 277.3701 Z"
                  stroke="none"/>
            <text x="69.5103" xml:space="preserve" font-size="14" y="281.4409"
                  stroke="none">AY743262</text><path d="M42.8853 295.2284 L74.3228 295.2284 L74.3228 296.0788 L42.8853 296.0788 Z"
                  stroke="none"/>
            <text x="77.1575" xml:space="preserve" font-size="14" y="300.1497"
                  stroke="none">D.yunweiensis</text><path d="M40.7224 337.3229 L49 337.3229 L49 338.1733 L40.7224 338.1733 Z"
                  stroke="none"/>
            <text x="13.7883" xml:space="preserve" y="332.1496" stroke="none">NT1.15</text><line stroke-linecap="butt"
                  fill="none" x1="49.412" x2="49.412" y1="323.2914"
                  stroke-linejoin="bevel" y2="352.2047" stroke-width="0.8504"/>
            <path d="M49.8372 323.2914 L59 323.2914 L59 324.1418 L49.8372 324.1418 Z"
                  stroke="none"/>
            <text x="23.0992" xml:space="preserve" y="318.1181" stroke="none">NT1.22</text><line stroke-linecap="butt"
                  fill="none" x1="58.604" x2="58.604" y1="313.937"
                  stroke-linejoin="bevel" y2="333.4961" stroke-width="0.8504"/>
            <path d="M59.0292 313.937 L80.1933 313.937 L80.1933 314.7874 L59.0292 314.7874 Z"
                  stroke="none"/>
            <text x="83.0279" xml:space="preserve" font-size="14" y="318.8583"
                  stroke="none">AY743264</text><path d="M59.0292 332.6457 L82.5879 332.6457 L82.5879 333.4961 L59.0292 333.4961 Z"
                  stroke="none"/>
            <text x="85.4225" xml:space="preserve" font-size="14" y="337.567"
                  stroke="none">Y13038</text><path d="M49.8372 351.3543 L71.0013 351.3543 L71.0013 352.2047 L49.8372 352.2047 Z"
                  stroke="none"/>
            <text x="73.8359" xml:space="preserve" font-size="14" y="356.2756"
                  stroke="none">D.murrayiALT—1bT</text><path d="M39.332 379.4174 L56 379.4174 L56 380.2678 L39.332 380.2678 Z"
                  stroke="none"/>
            <text x="20.1243" xml:space="preserve" y="374.2442" stroke="none">NT1.20</text><line stroke-linecap="butt"
                  fill="none" x1="55.6687" x2="55.6687" y1="370.063"
                  stroke-linejoin="bevel" y2="389.6221" stroke-width="0.8504"/>
            <path d="M56.0939 370.063 L70.1516 370.063 L70.1516 370.9135 L56.0939 370.9135 Z"
                  stroke="none"/>
            <text x="72.9862" xml:space="preserve" font-size="14" y="374.9843"
                  stroke="none">Y11331</text><path d="M56.0939 388.7717 L70.5378 388.7717 L70.5378 389.6221 L56.0939 389.6221 Z"
                  stroke="none"/>
            <text x="73.3725" xml:space="preserve" font-size="14" y="393.693"
                  stroke="none">D.radiophilus</text><path d="M35.5471 407.4804 L59.8782 407.4804 L59.8782 408.3308 L35.5471 408.3308 Z"
                  stroke="none"/>
            <text x="62.7129" xml:space="preserve" font-size="14" y="412.4016"
                  stroke="none">AY743283</text><path d="M31.9167 495.1772 L36 495.1772 L36 496.0276 L31.9167 496.0276 Z"
                  stroke="none"/>
            <text x="6.191" xml:space="preserve" y="490.004" stroke="none">NT1.5</text><line stroke-linecap="butt"
                  fill="none" x1="35.8943" x2="35.8943" y1="470.6221"
                  stroke-linejoin="bevel" y2="520.5828" stroke-width="0.8504"/>
            <path d="M36.3195 470.6221 L42 470.6221 L42 471.4725 L36.3195 471.4725 Z"
                  stroke="none"/>
            <text x="12.1012" xml:space="preserve" y="465.4489" stroke="none">NT1.8</text><line stroke-linecap="butt"
                  fill="none" x1="41.7648" x2="41.7648" y1="449.5749"
                  stroke-linejoin="bevel" y2="492.5197" stroke-width="0.8504"/>
            <path d="M42.1901 449.5749 L47 449.5749 L47 450.4253 L42.1901 450.4253 Z"
                  stroke="none"/>
            <text x="11.2809" xml:space="preserve" y="444.4016" stroke="none">NT1.12</text><line stroke-linecap="butt"
                  fill="none" x1="46.7857" x2="46.7857" y1="435.5434"
                  stroke-linejoin="bevel" y2="464.4568" stroke-width="0.8504"/>
            <path d="M47.2109 435.5434 L53 435.5434 L53 436.3938 L47.2109 436.3938 Z"
                  stroke="none"/>
            <text x="17.6129" xml:space="preserve" y="430.3701" stroke="none">NT1.18</text><line stroke-linecap="butt"
                  fill="none" x1="53.1969" x2="53.1969" y1="426.189"
                  stroke-linejoin="bevel" y2="445.7481" stroke-width="0.8504"/>
            <path d="M53.6222 426.1891 L78.3395 426.1891 L78.3395 427.0395 L53.6222 427.0395 Z"
                  stroke="none"/>
            <text x="81.1741" xml:space="preserve" font-size="14" y="431.1103"
                  stroke="none">AY743279</text><path d="M53.6222 444.8977 L78.8802 444.8977 L78.8802 445.7481 L53.6222 445.7481 Z"
                  stroke="none"/>
            <text x="81.7148" xml:space="preserve" font-size="14" y="449.819"
                  stroke="none">AY743280</text><path d="M47.2109 463.6064 L74.0138 463.6064 L74.0138 464.4568 L47.2109 464.4568 Z"
                  stroke="none"/>
            <text x="76.8485" xml:space="preserve" font-size="14" y="468.5276"
                  stroke="none">AY743277</text><path d="M42.1901 491.6694 L68 491.6694 L68 492.5198 L42.1901 492.5198 Z"
                  stroke="none"/>
            <text x="32.8431" xml:space="preserve" y="486.4962" stroke="none">NT1.36</text><line stroke-linecap="butt"
                  fill="none" x1="68.414" x2="68.414" y1="482.315"
                  stroke-linejoin="bevel" y2="501.8741" stroke-width="0.8504"/>
            <path d="M68.8392 482.315 L67.9888 482.315 L67.9888 483.1654 L68.8392 483.1654 Z"
                  stroke="none"/>
            <text x="70.8235" xml:space="preserve" font-size="14" y="487.2363"
                  stroke="none"></text>
            <path d="M68.8392 501.0237 L67.9888 501.0237 L67.9888 501.8741 L68.8392 501.8741 Z"
                  stroke="none"/>
            <text x="70.8235" xml:space="preserve" font-size="14" y="505.945"
                  stroke="none"></text>
            <path d="M36.3195 519.7324 L65.0535 519.7324 L65.0535 520.5827 L36.3195 520.5827 Z"
                  stroke="none"/>
            <text x="67.8882" xml:space="preserve" font-size="14" y="524.6536"
                  stroke="none">AY743274</text><path d="M18.0128 538.441 L82.5879 538.441 L82.5879 539.2913 L18.0128 539.2913 Z"
                  stroke="none"/>
            <text x="85.4226" xml:space="preserve" font-size="14" y="543.3622"
                  stroke="none">DQ022076</text>
        </g>
    </g>
</svg>
