<?xml version="1.0"?>
<!DOCTYPE svg PUBLIC '-//W3C//DTD SVG 1.0//EN'
    'http://www.w3.org/TR/2001/REC-SVG-20010904/DTD/svg10.dtd' >

<svg fill-opacity="1" xmlns:xlink="http://www.w3.org/1999/xlink"
     color-rendering="auto" color-interpolation="auto" stroke="black"
     text-rendering="auto" stroke-linecap="square" stroke-miterlimit="10"
     stroke-opacity="1" shape-rendering="auto" fill="black"
     stroke-dasharray="none" font-weight="normal" stroke-width="1"
     xmlns="http://www.w3.org/2000/svg" font-family="&apos;Dialog&apos;"
     font-style="normal" stroke-linejoin="miter" font-size="12"
     stroke-dashoffset="0" image-rendering="auto">
    <!--Generated by the Batik Graphics2D SVG Generator-->
    <defs id="genericDefs"/>
    <g>
        <g fill="white" stroke="white">
            <rect x="0" width="164" height="336" y="0" stroke="none"/>
            <path fill="black"
                  d="M5 83.2677 L18 83.2677 L18 84.1181 L5 84.1181 Z"
                  stroke="none"/>
            <circle fill="black" r="1.2756" cx="17.4331" cy="83.2677"
                    stroke="none"/>
            <path fill="black"
                  d="M17.8583 82.4173 L18 82.4173 L18 83.2677 L17.8583 83.2677 Z"
                  stroke="none"/>
        </g>
        <g font-family="&apos;Arial&apos;" font-size="9">
            <text x="-12.0562" xml:space="preserve" y="77.2441" stroke="none">NT1.2</text><line stroke-linecap="butt"
                  fill="none" x1="17.5281" x2="17.5281" y1="14.5984"
                  stroke-linejoin="bevel" y2="151.0866" stroke-width="0.8504"/>
            <path d="M17.9533 14.5984 L77.3768 14.5984 L77.3768 15.4488 L17.9533 15.4488 Z"
                  stroke="none"/>
            <text x="80.2114" xml:space="preserve" font-size="14" y="19.5197"
                  stroke="none">AJ438173</text><path d="M17.9533 150.2362 L34 150.2362 L34 151.0866 L17.9533 151.0866 Z"
                  stroke="none"/>
            <text x="4.1345" xml:space="preserve" y="145.063" stroke="none">NT1.3</text><line stroke-linecap="butt"
                  fill="none" x1="33.785" x2="33.785" y1="49.6772"
                  stroke-linejoin="bevel" y2="251.6457" stroke-width="0.8504"/>
            <path d="M34.2102 49.6772 L37 49.6772 L37 50.5276 L34.2102 50.5276 Z"
                  stroke="none"/>
            <text x="7.6785" xml:space="preserve" y="44.5039" stroke="none">NT1.4</text><line stroke-linecap="butt"
                  fill="none" x1="37.3025" x2="37.3025" y1="33.3071"
                  stroke-linejoin="bevel" y2="66.8976" stroke-width="0.8504"/>
            <path d="M37.7277 33.3071 L61.12 33.3071 L61.12 34.1575 L37.7277 34.1575 Z"
                  stroke="none"/>
            <text x="63.9546" xml:space="preserve" font-size="14" y="38.2283"
                  stroke="none">AM114396</text><path d="M37.7277 66.0472 L48 66.0472 L48 66.8976 L37.7277 66.8976 Z"
                  stroke="none"/>
            <text x="18.2998" xml:space="preserve" y="60.874" stroke="none">NT1.6</text><line stroke-linecap="butt"
                  fill="none" x1="47.9503" x2="47.9503" y1="52.0157"
                  stroke-linejoin="bevel" y2="80.9291" stroke-width="0.8504"/>
            <path d="M48.3755 52.0158 L67.2044 52.0158 L67.2044 52.8661 L48.3755 52.8661 Z"
                  stroke="none"/>
            <text x="70.0391" xml:space="preserve" font-size="14" y="56.937"
                  stroke="none">D0235228</text><path d="M48.3755 80.0787 L51 80.0787 L51 80.9291 L48.3755 80.9291 Z"
                  stroke="none"/>
            <text x="15.4481" xml:space="preserve" y="74.9055" stroke="none">NT1.10</text><line stroke-linecap="butt"
                  fill="none" x1="50.9925" x2="50.9925" y1="70.7244"
                  stroke-linejoin="bevel" y2="90.2835" stroke-width="0.8504"/>
            <path d="M51.4177 70.7244 L62.546 70.7244 L62.546 71.5748 L51.4177 71.5748 Z"
                  stroke="none"/>
            <text x="65.3807" xml:space="preserve" font-size="14" y="75.6457"
                  stroke="none"></text>
            <path d="M51.4177 89.4331 L64.6376 89.4331 L64.6376 90.2835 L51.4177 90.2835 Z"
                  stroke="none"/>
            <text x="67.4722" xml:space="preserve" font-size="14" y="94.3543"
                  stroke="none"></text>
            <path d="M34.2102 250.7953 L45 250.7953 L45 251.6457 L34.2102 251.6457 Z"
                  stroke="none"/>
            <text x="15.3949" xml:space="preserve" y="245.6221" stroke="none">NT1.5</text><line stroke-linecap="butt"
                  fill="none" x1="45.0982" x2="45.0982" y1="187.6536"
                  stroke-linejoin="bevel" y2="314.7874" stroke-width="0.8504"/>
            <path d="M45.5234 187.6536 L49 187.6536 L49 188.504 L45.5234 188.504 Z"
                  stroke="none"/>
            <text x="18.7752" xml:space="preserve" y="182.4803" stroke="none">NT1.7</text><line stroke-linecap="butt"
                  fill="none" x1="48.4256" x2="48.4256" y1="117.4961"
                  stroke-linejoin="bevel" y2="258.6614" stroke-width="0.8504"/>
            <path d="M48.8508 117.4961 L53 117.4961 L53 118.3465 L48.8508 118.3465 Z"
                  stroke="none"/>
            <text x="19.1992" xml:space="preserve" y="112.3229" stroke="none">NT1.11</text><line stroke-linecap="butt"
                  fill="none" x1="53.3692" x2="53.3692" y1="108.1418"
                  stroke-linejoin="bevel" y2="127.7008" stroke-width="0.8504"/>
            <path d="M53.7944 108.1418 L59.9791 108.1418 L59.9791 108.9921 L53.7944 108.9921 Z"
                  stroke="none"/>
            <text x="62.8138" xml:space="preserve" font-size="14" y="113.063"
                  stroke="none">AM491368</text><path d="M53.7944 126.8504 L62.6411 126.8504 L62.6411 127.7008 L53.7944 127.7008 Z"
                  stroke="none"/>
            <text x="65.4757" xml:space="preserve" font-size="14" y="131.7717"
                  stroke="none">AM491370</text><path d="M48 197.0079 L51 197.0079 L51 197.8583 L48 197.8583 Z"
                  stroke="none"/>
            <text x="21.2337" xml:space="preserve" y="191.8347" stroke="none">NT1.9</text><line stroke-linecap="butt"
                  fill="none" x1="50.8974" x2="50.8974" y1="164.2677"
                  stroke-linejoin="bevel" y2="230.5984" stroke-width="0.8504"/>
            <path d="M51.3226 164.2677 L62 164.2677 L62 165.1181 L51.3226 165.1181 Z"
                  stroke="none"/>
            <text x="25.8793" xml:space="preserve" y="159.0945" stroke="none">NT1.16</text><line stroke-linecap="butt"
                  fill="none" x1="61.4501" x2="61.4501" y1="145.5591"
                  stroke-linejoin="bevel" y2="183.8268" stroke-width="0.8504"/>
            <path d="M61.8753 145.5591 L73.0987 145.5591 L73.0987 146.4095 L61.8753 146.4095 Z"
                  stroke="none"/>
            <text x="75.9333" xml:space="preserve" font-size="14" y="150.4803"
                  stroke="none">AJ438174</text><path d="M61.8753 182.9764 L67 182.9764 L67 183.8268 L61.8753 183.8268 Z"
                  stroke="none"/>
            <text x="30.8651" xml:space="preserve" y="177.8032" stroke="none">NT1.25</text><line stroke-linecap="butt"
                  fill="none" x1="66.4888" x2="66.4888" y1="164.2677"
                  stroke-linejoin="bevel" y2="202.5354" stroke-width="0.8504"/>
            <path d="M66.914 164.2677 L74.6198 164.2677 L74.6198 165.1181 L66.914 165.1181 Z"
                  stroke="none"/>
            <text x="77.4544" xml:space="preserve" font-size="14" y="169.189"
                  stroke="none"></text>
            <path d="M66 182.9764 L73.1938 182.9764 L73.1938 183.8268 L66 183.8268 Z"
                  stroke="none"/>
            <text x="76.0284" xml:space="preserve" font-size="14" y="187.8976"
                  stroke="none">AJ438170</text><path d="M66.914 201.6851 L80.1338 201.6851 L80.1338 202.5355 L66.914 202.5355 Z"
                  stroke="none"/>
            <text x="82.9685" xml:space="preserve" font-size="14" y="206.6063"
                  stroke="none">AJ583425</text><path d="M51.3226 229.748 L57 229.748 L57 230.5984 L51.3226 230.5984 Z"
                  stroke="none"/>
            <text x="21.5721" xml:space="preserve" y="224.5748" stroke="none">NT1.12</text><line stroke-linecap="butt"
                  fill="none" x1="57.0769" x2="57.0769" y1="220.3937"
                  stroke-linejoin="bevel" y2="239.9528" stroke-width="0.8504"/>
            <path d="M57.5021 220.3937 L63.1164 220.3937 L63.1164 221.2441 L57.5021 221.2441 Z"
                  stroke="none"/>
            <text x="65.9511" xml:space="preserve" font-size="14" y="225.315"
                  stroke="none"></text>
            <path d="M57.5021 239.1024 L63.6868 239.1024 L63.6868 239.9528 L57.5021 239.9528 Z"
                  stroke="none"/>
            <text x="66.5215" xml:space="preserve" font-size="14" y="244.0237"
                  stroke="none"></text>
            <path d="M48.8508 257.8111 L64.7326 257.8111 L64.7326 258.6615 L48.8508 258.6615 Z"
                  stroke="none"/>
            <text x="67.5672" xml:space="preserve" font-size="14" y="262.7323"
                  stroke="none"></text>
            <path d="M45 285.8741 L51 285.8741 L51 286.7245 L45 286.7245 Z"
                  stroke="none"/>
            <text x="21.0436" xml:space="preserve" y="280.7008" stroke="none">NT1.8</text><line stroke-linecap="butt"
                  fill="none" x1="50.7073" x2="50.7073" y1="276.5197"
                  stroke-linejoin="bevel" y2="296.0788" stroke-width="0.8504"/>
            <path d="M51.1325 276.5197 L60.5495 276.5197 L60.5495 277.3701 L51.1325 277.3701 Z"
                  stroke="none"/>
            <text x="63.3842" xml:space="preserve" font-size="14" y="281.441"
                  stroke="none">AB245368</text><path d="M51.1325 295.2284 L63.7819 295.2284 L63.7819 296.0788 L51.1325 296.0788 Z"
                  stroke="none"/>
            <text x="66.6165" xml:space="preserve" font-size="14" y="300.1497"
                  stroke="none">AJ438172</text><path d="M45.5234 313.937 L59.0284 313.937 L59.0284 314.7874 L45.5234 314.7874 Z"
                  stroke="none"/>
            <text x="61.8631" xml:space="preserve" font-size="14" y="318.8583"
                  stroke="none"></text>
        </g>
    </g>
</svg>
