<?xml version="1.0"?>
<!DOCTYPE svg PUBLIC '-//W3C//DTD SVG 1.0//EN'
    'http://www.w3.org/TR/2001/REC-SVG-20010904/DTD/svg10.dtd' >

<svg fill-opacity="1" xmlns:xlink="http://www.w3.org/1999/xlink"
     color-rendering="auto" color-interpolation="auto" stroke="black"
     text-rendering="auto" stroke-linecap="square" stroke-miterlimit="10"
     stroke-opacity="1" shape-rendering="auto" fill="black"
     stroke-dasharray="none" font-weight="normal" stroke-width="1"
     xmlns="http://www.w3.org/2000/svg" font-family="&apos;Dialog&apos;"
     font-style="normal" stroke-linejoin="miter" font-size="12"
     stroke-dashoffset="0" image-rendering="auto">
    <!--Generated by the Batik Graphics2D SVG Generator-->
    <defs id="genericDefs"/>
    <g>
        <g fill="white" stroke="white">
            <rect x="0" width="166" height="186" y="0" stroke="none"/>
            <path fill="black"
                  d="M5 57.1181 L44 57.1181 L44 57.9685 L5 57.9685 Z"
                  stroke="none"/>
        </g>
        <g font-family="&apos;Arial&apos;" font-size="9">
            <text x="8.5039" xml:space="preserve" y="51.9449" stroke="none">NT1.15</text><line stroke-linecap="butt"
                  fill="none" x1="44.1276" x2="44.1276" y1="14.5984"
                  stroke-linejoin="bevel" y2="99.6378" stroke-width="0.8504"/>
            <path d="M44.5528 14.5984 L80.825 14.5984 L80.825 15.4488 L44.5528 15.4488 Z"
                  stroke="none"/>
            <text x="83.6597" xml:space="preserve" font-size="14" y="19.5197"
                  stroke="none">AF052740</text><path d="M44.5528 98.7874 L57 98.7874 L57 99.6378 L44.5528 99.6378 Z"
                  stroke="none"/>
            <text x="28.3584" xml:space="preserve" y="93.6142" stroke="none">NT1.1</text><line stroke-linecap="butt"
                  fill="none" x1="56.6081" x2="56.6081" y1="33.3071"
                  stroke-linejoin="bevel" y2="165.1181" stroke-width="0.8504"/>
            <path d="M57.0333 33.3071 L64.5208 33.3071 L64.5208 34.1575 L57.0333 34.1575 Z"
                  stroke="none"/>
            <text x="67.3555" xml:space="preserve" font-size="14" y="38.2283"
                  stroke="none"></text>
            <path d="M57 81.248 L69 81.248 L69 82.0984 L57 82.0984 Z"
                  stroke="none"/>
            <text x="39.5442" xml:space="preserve" y="76.0748" stroke="none">NT1.3</text><line stroke-linecap="butt"
                  fill="none" x1="69.1947" x2="69.1947" y1="52.0157"
                  stroke-linejoin="bevel" y2="111.3307" stroke-width="0.8504"/>
            <path d="M69.6199 52.0158 L82.0465 52.0158 L82.0465 52.8661 L69.6199 52.8661 Z"
                  stroke="none"/>
            <text x="84.8812" xml:space="preserve" font-size="14" y="56.937"
                  stroke="none">AF374385</text><path d="M69.6199 110.4803 L71 110.4803 L71 111.3307 L69.6199 111.3307 Z"
                  stroke="none"/>
            <text x="41.0577" xml:space="preserve" y="105.3071" stroke="none">NT1.4</text><line stroke-linecap="butt"
                  fill="none" x1="70.6817" x2="70.6817" y1="94.1102"
                  stroke-linejoin="bevel" y2="127.7008" stroke-width="0.8504"/>
            <path d="M71.1069 94.1102 L78 94.1102 L78 94.9606 L71.1069 94.9606 Z"
                  stroke="none"/>
            <text x="47.7231" xml:space="preserve" y="88.937" stroke="none">NT1.5</text><line stroke-linecap="butt"
                  fill="none" x1="77.4264" x2="77.4264" y1="80.0787"
                  stroke-linejoin="bevel" y2="108.9921" stroke-width="0.8504"/>
            <path d="M77.8516 80.0787 L80 80.0787 L80 80.9291 L77.8516 80.9291 Z"
                  stroke="none"/>
            <text x="50.4713" xml:space="preserve" y="74.9055" stroke="none">NT1.9</text><line stroke-linecap="butt"
                  fill="none" x1="80.1349" x2="80.1349" y1="70.7244"
                  stroke-linejoin="bevel" y2="90.2835" stroke-width="0.8504"/>
            <path d="M80.5601 70.7244 L79.6566 70.7244 L79.6566 71.5748 L80.5601 71.5748 Z"
                  stroke="none"/>
            <text x="82.4913" xml:space="preserve" font-size="14" y="75.6457"
                  stroke="none"></text>
            <path d="M80.5601 89.4331 L82.5776 89.4331 L82.5776 90.2835 L80.5601 90.2835 Z"
                  stroke="none"/>
            <text x="85.4122" xml:space="preserve" font-size="14" y="94.3543"
                  stroke="none">AB052160</text><path d="M77.8516 108.1417 L80.2408 108.1417 L80.2408 108.9921 L77.8516 108.9921 Z"
                  stroke="none"/>
            <text x="83.0755" xml:space="preserve" font-size="14" y="113.063"
                  stroke="none">AJ416756</text><path d="M71.1069 126.8504 L83.1087 126.8504 L83.1087 127.7008 L71.1069 127.7008 Z"
                  stroke="none"/>
            <text x="85.9433" xml:space="preserve" font-size="14" y="131.7717"
                  stroke="none">AB094413</text><path d="M57 145.5591 L78.7007 145.5591 L78.7007 146.4095 L57 146.4095 Z"
                  stroke="none"/>
            <text x="81.5353" xml:space="preserve" font-size="14" y="150.4803"
                  stroke="none">Y14697</text><path d="M57.0333 164.2677 L78.7538 164.2677 L78.7538 165.1181 L57.0333 165.1181 Z"
                  stroke="none"/>
            <text x="81.5885" xml:space="preserve" font-size="14" y="169.189"
                  stroke="none">U73721</text>
        </g>
    </g>
</svg>
