<?xml version="1.0"?>
<!DOCTYPE svg PUBLIC '-//W3C//DTD SVG 1.0//EN'
    'http://www.w3.org/TR/2001/REC-SVG-20010904/DTD/svg10.dtd' >

<svg fill-opacity="1" xmlns:xlink="http://www.w3.org/1999/xlink"
     color-rendering="auto" color-interpolation="auto" stroke="black"
     text-rendering="auto" stroke-linecap="square" stroke-miterlimit="10"
     stroke-opacity="1" shape-rendering="auto" fill="black"
     stroke-dasharray="none" font-weight="normal" stroke-width="1"
     xmlns="http://www.w3.org/2000/svg" font-family="&apos;Dialog&apos;"
     font-style="normal" stroke-linejoin="miter" font-size="12"
     stroke-dashoffset="0" image-rendering="auto">
    <!--Generated by the Batik Graphics2D SVG Generator-->
    <defs id="genericDefs"/>
    <g>
        <g fill="white" stroke="white">
            <rect x="0" width="163" height="131" y="0" stroke="none"/>
            <path fill="black"
                  d="M5 36.4961 L18 36.4961 L18 37.3465 L5 37.3465 Z"
                  stroke="none"/>
            <circle fill="black" r="1.2756" cx="17.4331" cy="36.4961"
                    stroke="none"/>
            <path fill="black"
                  d="M17.8583 35.6457 L18 35.6457 L18 36.4961 L17.8583 36.4961 Z"
                  stroke="none"/>
        </g>
        <g font-family="&apos;Arial&apos;" font-size="9">
            <text x="-11.3025" xml:space="preserve" y="30.4724" stroke="none">NT1.3</text><line stroke-linecap="butt"
                  fill="none" x1="18.3479" x2="18.3479" y1="14.5984"
                  stroke-linejoin="bevel" y2="57.5433" stroke-width="0.8504"/>
            <path d="M18.7731 14.5984 L17.9227 14.5984 L17.9227 15.4488 L18.7731 15.4488 Z"
                  stroke="none"/>
            <text x="20.7574" xml:space="preserve" font-size="14" y="19.5197"
                  stroke="none"></text>
            <path d="M18.7731 56.6929 L19 56.6929 L19 57.5433 L18.7731 57.5433 Z"
                  stroke="none"/>
            <text x="-10.9712" xml:space="preserve" y="51.5197" stroke="none">NT1.4</text><line stroke-linecap="butt"
                  fill="none" x1="18.6529" x2="18.6529" y1="33.3071"
                  stroke-linejoin="bevel" y2="80.9291" stroke-width="0.8504"/>
            <path d="M19.0781 33.3071 L18.8376 33.3071 L18.8376 34.1575 L19.0781 34.1575 Z"
                  stroke="none"/>
            <text x="21.6722" xml:space="preserve" font-size="14" y="38.2283"
                  stroke="none"></text>
            <path d="M19.0781 80.0788 L26 80.0788 L26 80.9291 L19.0781 80.9291 Z"
                  stroke="none"/>
            <text x="-3.6788" xml:space="preserve" y="74.9055" stroke="none">NT1.6</text><line stroke-linecap="butt"
                  fill="none" x1="25.9717" x2="25.9717" y1="61.3701"
                  stroke-linejoin="bevel" y2="99.6378" stroke-width="0.8504"/>
            <path d="M26.3969 61.3701 L55 61.3701 L55 62.2205 L26.3969 62.2205 Z"
                  stroke="none"/>
            <text x="25.7488" xml:space="preserve" y="56.1969" stroke="none">NT1.7</text><line stroke-linecap="butt"
                  fill="none" x1="55.3993" x2="55.3993" y1="52.0157"
                  stroke-linejoin="bevel" y2="71.5748" stroke-width="0.8504"/>
            <path d="M55.8245 52.0158 L63.3602 52.0158 L63.3602 52.8661 L55.8245 52.8661 Z"
                  stroke="none"/>
            <text x="66.1949" xml:space="preserve" font-size="14" y="56.937"
                  stroke="none">AB180773</text><path d="M55.8245 70.7244 L67.782 70.7244 L67.782 71.5748 L55.8245 71.5748 Z"
                  stroke="none"/>
            <text x="70.6166" xml:space="preserve" font-size="14" y="75.6457"
                  stroke="none">AJ865857</text><path d="M26.3969 98.7874 L69 98.7874 L69 99.6378 L26.3969 99.6378 Z"
                  stroke="none"/>
            <text x="31.1759" xml:space="preserve" y="93.6142" stroke="none">NT1.10</text><line stroke-linecap="butt"
                  fill="none" x1="68.6646" x2="68.6646" y1="89.4331"
                  stroke-linejoin="bevel" y2="108.9921" stroke-width="0.8504"/>
            <path d="M69.0898 89.4331 L78.7602 89.4331 L78.7602 90.2835 L69.0898 90.2835 Z"
                  stroke="none"/>
            <text x="81.5948" xml:space="preserve" font-size="14" y="94.3543"
                  stroke="none">AJ865863</text><path d="M69.0898 108.1417 L79.98 108.1417 L79.98 108.9921 L69.0898 108.9921 Z"
                  stroke="none"/>
            <text x="82.8146" xml:space="preserve" font-size="14" y="113.063"
                  stroke="none">AJ865861</text>
        </g>
    </g>
</svg>
