<?xml version="1.0"?>
<!DOCTYPE svg PUBLIC '-//W3C//DTD SVG 1.0//EN'
    'http://www.w3.org/TR/2001/REC-SVG-20010904/DTD/svg10.dtd' >

<svg fill-opacity="1" xmlns:xlink="http://www.w3.org/1999/xlink"
     color-rendering="auto" color-interpolation="auto" stroke="black"
     text-rendering="auto" stroke-linecap="square" stroke-miterlimit="10"
     stroke-opacity="1" shape-rendering="auto" fill="black"
     stroke-dasharray="none" font-weight="normal" stroke-width="1"
     xmlns="http://www.w3.org/2000/svg" font-family="&apos;Dialog&apos;"
     font-style="normal" stroke-linejoin="miter" font-size="12"
     stroke-dashoffset="0" image-rendering="auto">
    <!--Generated by the Batik Graphics2D SVG Generator-->
    <defs id="genericDefs"/>
    <g>
        <g fill="white" stroke="white">
            <rect x="0" width="185" height="467" y="0" stroke="none"/>
            <path fill="black"
                  d="M5 148.1767 L44 148.1767 L44 149.0271 L5 149.0271 Z"
                  stroke="none"/>
        </g>
        <g font-family="&apos;Arial&apos;" font-size="9">
            <text x="8.5039" xml:space="preserve" y="143.0035" stroke="none">NT1.47</text><line stroke-linecap="butt"
                  fill="none" x1="44.0748" x2="44.0748" y1="14.5984"
                  stroke-linejoin="bevel" y2="281.7549" stroke-width="0.8504"/>
            <path d="M44.5 14.5984 L91.3358 14.5984 L91.3358 15.4488 L44.5 15.4488 Z"
                  stroke="none"/>
            <text x="94.1705" xml:space="preserve" font-size="14" y="19.5197"
                  stroke="none">D78457</text><path d="M44.5 280.9045 L60 280.9045 L60 281.7549 L44.5 281.7549 Z"
                  stroke="none"/>
            <text x="31.8621" xml:space="preserve" y="275.7313" stroke="none">NT1.1</text><line stroke-linecap="butt"
                  fill="none" x1="60.1118" x2="60.1118" y1="126.2657"
                  stroke-linejoin="bevel" y2="436.3937" stroke-width="0.8504"/>
            <path d="M60.537 126.2657 L64 126.2657 L64 127.1161 L60.537 127.1161 Z"
                  stroke="none"/>
            <text x="34.7756" xml:space="preserve" y="121.0925" stroke="none">NT1.2</text><line stroke-linecap="butt"
                  fill="none" x1="64.36" x2="64.36" y1="33.3071"
                  stroke-linejoin="bevel" y2="220.0748" stroke-width="0.8504"/>
            <path d="M64.7852 33.3071 L90.911 33.3071 L90.911 34.1575 L64.7852 34.1575 Z"
                  stroke="none"/>
            <text x="93.7456" xml:space="preserve" font-size="14" y="38.2283"
                  stroke="none">X60623</text><path d="M64.7852 219.2244 L67 219.2244 L67 220.0748 L64.7852 220.0748 Z"
                  stroke="none"/>
            <text x="37.2585" xml:space="preserve" y="214.0512" stroke="none">NT1.3</text><line stroke-linecap="butt"
                  fill="none" x1="66.9089" x2="66.9089" y1="136.2047"
                  stroke-linejoin="bevel" y2="303.0945" stroke-width="0.8504"/>
            <path d="M67.3341 136.2047 L68 136.2047 L68 137.0551 L67.3341 137.0551 Z"
                  stroke="none"/>
            <text x="38.4532" xml:space="preserve" y="131.0315" stroke="none">NT1.4</text><line stroke-linecap="butt"
                  fill="none" x1="68.0772" x2="68.0772" y1="98.7874"
                  stroke-linejoin="bevel" y2="174.4725" stroke-width="0.8504"/>
            <path d="M68.5024 98.7874 L72 98.7874 L72 99.6378 L68.5024 99.6378 Z"
                  stroke="none"/>
            <text x="41.8253" xml:space="preserve" y="93.6142" stroke="none">NT1.7</text><line stroke-linecap="butt"
                  fill="none" x1="71.4758" x2="71.4758" y1="66.0472"
                  stroke-linejoin="bevel" y2="132.378" stroke-width="0.8504"/>
            <path d="M71.901 66.0472 L75 66.0472 L75 66.8976 L71.901 66.8976 Z"
                  stroke="none"/>
            <text x="39.0113" xml:space="preserve" y="60.874" stroke="none">NT1.10</text><line stroke-linecap="butt"
                  fill="none" x1="74.5557" x2="74.5557" y1="52.0157"
                  stroke-linejoin="bevel" y2="80.9291" stroke-width="0.8504"/>
            <path d="M74.9809 52.0158 L86.5566 52.0158 L86.5566 52.8661 L74.9809 52.8661 Z"
                  stroke="none"/>
            <text x="89.3912" xml:space="preserve" font-size="14" y="56.937"
                  stroke="none"></text>
            <path d="M74.9809 80.0787 L79 80.0787 L79 80.9291 L74.9809 80.9291 Z"
                  stroke="none"/>
            <text x="43.2865" xml:space="preserve" y="74.9055" stroke="none">NT1.15</text><line stroke-linecap="butt"
                  fill="none" x1="78.9102" x2="78.9102" y1="70.7244"
                  stroke-linejoin="bevel" y2="90.2835" stroke-width="0.8504"/>
            <path d="M79.3354 70.7244 L89.3179 70.7244 L89.3179 71.5748 L79.3354 71.5748 Z"
                  stroke="none"/>
            <text x="92.1526" xml:space="preserve" font-size="14" y="75.6457"
                  stroke="none">X60627</text><path d="M79.3354 89.4331 L89.2117 89.4331 L89.2117 90.2835 L79.3354 90.2835 Z"
                  stroke="none"/>
            <text x="92.0464" xml:space="preserve" font-size="14" y="94.3543"
                  stroke="none">AJ012667</text><path d="M71.901 131.5276 L72 131.5276 L72 132.378 L71.901 132.378 Z"
                  stroke="none"/>
            <text x="42.6618" xml:space="preserve" y="126.3543" stroke="none">NT1.8</text><line stroke-linecap="butt"
                  fill="none" x1="72.3254" x2="72.3254" y1="117.4961"
                  stroke-linejoin="bevel" y2="146.4095" stroke-width="0.8504"/>
            <path d="M72.7506 117.4961 L78 117.4961 L78 118.3464 L72.7506 118.3464 Z"
                  stroke="none"/>
            <text x="42.7285" xml:space="preserve" y="112.3228" stroke="none">NT1.14</text><line stroke-linecap="butt"
                  fill="none" x1="78.2729" x2="78.2729" y1="108.1417"
                  stroke-linejoin="bevel" y2="127.7008" stroke-width="0.8504"/>
            <path d="M78.6981 108.1417 L96.8585 108.1417 L96.8585 108.9921 L78.6981 108.9921 Z"
                  stroke="none"/>
            <text x="99.6932" xml:space="preserve" font-size="14" y="113.063"
                  stroke="none"></text>
            <path d="M78.6981 126.8504 L101.5316 126.8504 L101.5316 127.7008 L78.6981 127.7008 Z"
                  stroke="none"/>
            <text x="104.3662" xml:space="preserve" font-size="14" y="131.7717"
                  stroke="none"></text>
            <path d="M72.7506 145.5591 L97.2833 145.5591 L97.2833 146.4095 L72.7506 146.4095 Z"
                  stroke="none"/>
            <text x="100.118" xml:space="preserve" font-size="14" y="150.4803"
                  stroke="none"></text>
            <path d="M68.5024 173.6221 L77 173.6221 L77 174.4725 L68.5024 174.4725 Z"
                  stroke="none"/>
            <text x="41.109" xml:space="preserve" y="168.4488" stroke="none">NT1.13</text><line stroke-linecap="butt"
                  fill="none" x1="76.6798" x2="76.6798" y1="164.2677"
                  stroke-linejoin="bevel" y2="183.8268" stroke-width="0.8504"/>
            <path d="M77.105 164.2677 L89.1055 164.2677 L89.1055 165.1181 L77.105 165.1181 Z"
                  stroke="none"/>
            <text x="91.9402" xml:space="preserve" font-size="14" y="169.189"
                  stroke="none"></text>
            <path d="M77.105 182.9764 L96.8585 182.9764 L96.8585 183.8268 L77.105 183.8268 Z"
                  stroke="none"/>
            <text x="99.6931" xml:space="preserve" font-size="14" y="187.8976"
                  stroke="none"></text>
            <path d="M67.3341 302.2441 L68 302.2441 L68 303.0945 L67.3341 303.0945 Z"
                  stroke="none"/>
            <text x="38.5863" xml:space="preserve" y="297.0709" stroke="none">NT1.5</text><line stroke-linecap="butt"
                  fill="none" x1="68.2896" x2="68.2896" y1="243.7795"
                  stroke-linejoin="bevel" y2="361.5591" stroke-width="0.8504"/>
            <path d="M68.7148 243.7795 L70 243.7795 L70 244.6299 L68.7148 244.6299 Z"
                  stroke="none"/>
            <text x="40.0198" xml:space="preserve" y="238.6063" stroke="none">NT1.6</text><line stroke-linecap="butt"
                  fill="none" x1="69.6703" x2="69.6703" y1="215.7165"
                  stroke-linejoin="bevel" y2="272.6929" stroke-width="0.8504"/>
            <path d="M70.0955 215.7165 L76 215.7165 L76 216.5669 L70.0955 216.5669 Z"
                  stroke="none"/>
            <text x="41.7664" xml:space="preserve" y="210.5433" stroke="none">NT1.11</text><line stroke-linecap="butt"
                  fill="none" x1="75.9364" x2="75.9364" y1="201.685"
                  stroke-linejoin="bevel" y2="230.5984" stroke-width="0.8504"/>
            <path d="M76.3616 201.685 L88.5745 201.685 L88.5745 202.5354 L76.3616 202.5354 Z"
                  stroke="none"/>
            <text x="91.4091" xml:space="preserve" font-size="14" y="206.6063"
                  stroke="none"></text>
            <path d="M76.3616 229.748 L82 229.748 L82 230.5984 L76.3616 230.5984 Z"
                  stroke="none"/>
            <text x="46.7247" xml:space="preserve" y="224.5748" stroke="none">NT1.18</text><line stroke-linecap="butt"
                  fill="none" x1="82.3087" x2="82.3087" y1="220.3937"
                  stroke-linejoin="bevel" y2="239.9528" stroke-width="0.8504"/>
            <path d="M82.7339 220.3937 L94.522 220.3937 L94.522 221.2441 L82.7339 221.2441 Z"
                  stroke="none"/>
            <text x="97.3566" xml:space="preserve" font-size="14" y="225.315"
                  stroke="none"></text>
            <path d="M82.7339 239.1024 L102.275 239.1024 L102.275 239.9528 L82.7339 239.9528 Z"
                  stroke="none"/>
            <text x="105.1096" xml:space="preserve" font-size="14" y="244.0237"
                  stroke="none"></text>
            <path d="M70.0955 271.8425 L73 271.8425 L73 272.6929 L70.0955 272.6929 Z"
                  stroke="none"/>
            <text x="43.4052" xml:space="preserve" y="266.6693" stroke="none">NT1.9</text><line stroke-linecap="butt"
                  fill="none" x1="73.0689" x2="73.0689" y1="257.811"
                  stroke-linejoin="bevel" y2="286.7244" stroke-width="0.8504"/>
            <path d="M73.4941 257.811 L104.9301 257.811 L104.9301 258.6614 L73.4941 258.6614 Z"
                  stroke="none"/>
            <text x="107.7648" xml:space="preserve" font-size="14" y="262.7323"
                  stroke="none"></text>
            <path d="M73.4941 285.8741 L89 285.8741 L89 286.7245 L73.4941 286.7245 Z"
                  stroke="none"/>
            <text x="53.1102" xml:space="preserve" y="280.7008" stroke="none">NT1.23</text><line stroke-linecap="butt"
                  fill="none" x1="88.6811" x2="88.6811" y1="276.5197"
                  stroke-linejoin="bevel" y2="296.0788" stroke-width="0.8504"/>
            <path d="M89.1063 276.5197 L91.9731 276.5197 L91.9731 277.3701 L89.1063 277.3701 Z"
                  stroke="none"/>
            <text x="94.8077" xml:space="preserve" font-size="14" y="281.441"
                  stroke="none"></text>
            <path d="M89.1063 295.2284 L94.7344 295.2284 L94.7344 296.0788 L89.1063 296.0788 Z"
                  stroke="none"/>
            <text x="97.5691" xml:space="preserve" font-size="14" y="300.1497"
                  stroke="none"></text>
            <path d="M68.7148 360.7087 L76 360.7087 L76 361.5591 L68.7148 361.5591 Z"
                  stroke="none"/>
            <text x="40.4316" xml:space="preserve" y="355.5355" stroke="none">NT1.12</text><line stroke-linecap="butt"
                  fill="none" x1="75.9364" x2="75.9364" y1="337.3229"
                  stroke-linejoin="bevel" y2="384.9449" stroke-width="0.8504"/>
            <path d="M76.3616 337.3229 L80 337.3229 L80 338.1733 L76.3616 338.1733 Z"
                  stroke="none"/>
            <text x="44.72" xml:space="preserve" y="332.1496" stroke="none">NT1.16</text><line stroke-linecap="butt"
                  fill="none" x1="80.2908" x2="80.2908" y1="323.2914"
                  stroke-linejoin="bevel" y2="352.2047" stroke-width="0.8504"/>
            <path d="M80.716 323.2914 L83 323.2914 L83 324.1418 L80.716 324.1418 Z"
                  stroke="none"/>
            <text x="47.4681" xml:space="preserve" y="318.1181" stroke="none">NT1.19</text><line stroke-linecap="butt"
                  fill="none" x1="83.0522" x2="83.0522" y1="313.937"
                  stroke-linejoin="bevel" y2="333.4961" stroke-width="0.8504"/>
            <path d="M83.4774 313.937 L92.9289 313.937 L92.9289 314.7874 L83.4774 314.7874 Z"
                  stroke="none"/>
            <text x="95.7635" xml:space="preserve" font-size="14" y="318.8583"
                  stroke="none">AJ238042</text><path d="M83.4774 332.6457 L98.3454 332.6457 L98.3454 333.4961 L83.4774 333.4961 Z"
                  stroke="none"/>
            <text x="101.18" xml:space="preserve" font-size="14" y="337.567"
                  stroke="none"></text>
            <path d="M80.716 351.3543 L95.9027 351.3543 L95.9027 352.2047 L80.716 352.2047 Z"
                  stroke="none"/>
            <text x="98.7373" xml:space="preserve" font-size="14" y="356.2756"
                  stroke="none"></text>
            <path d="M76.3616 384.0945 L84 384.0945 L84 384.9449 L76.3616 384.9449 Z"
                  stroke="none"/>
            <text x="48.3574" xml:space="preserve" y="378.9213" stroke="none">NT1.20</text><line stroke-linecap="butt"
                  fill="none" x1="83.9018" x2="83.9018" y1="370.063"
                  stroke-linejoin="bevel" y2="398.9764" stroke-width="0.8504"/>
            <path d="M84.3271 370.063 L101.8502 370.063 L101.8502 370.9135 L84.3271 370.9135 Z"
                  stroke="none"/>
            <text x="104.6849" xml:space="preserve" font-size="14" y="374.9843"
                  stroke="none"></text>
            <path d="M84.3271 398.1261 L93 398.1261 L93 398.9765 L84.3271 398.9765 Z"
                  stroke="none"/>
            <text x="58.8655" xml:space="preserve" y="392.9529" stroke="none">NT1.31</text><line stroke-linecap="butt"
                  fill="none" x1="93.0355" x2="93.0355" y1="388.7717"
                  stroke-linejoin="bevel" y2="408.3307" stroke-width="0.8504"/>
            <path d="M93.4607 388.7717 L97.2834 388.7717 L97.2834 389.6221 L93.4607 389.6221 Z"
                  stroke="none"/>
            <text x="100.118" xml:space="preserve" font-size="14" y="393.693"
                  stroke="none"></text>
            <path d="M93.4607 407.4804 L95.2655 407.4804 L95.2655 408.3308 L93.4607 408.3308 Z"
                  stroke="none"/>
            <text x="98.1001" xml:space="preserve" font-size="14" y="412.4016"
                  stroke="none">AJ493661</text><path d="M60.537 435.5434 L82 435.5434 L82 436.3938 L60.537 436.3938 Z"
                  stroke="none"/>
            <text x="46.5255" xml:space="preserve" y="430.3701" stroke="none">NT1.17</text><line stroke-linecap="butt"
                  fill="none" x1="82.0963" x2="82.0963" y1="426.189"
                  stroke-linejoin="bevel" y2="445.7481" stroke-width="0.8504"/>
            <path d="M82.5215 426.1891 L86.9814 426.1891 L86.9814 427.0395 L82.5215 427.0395 Z"
                  stroke="none"/>
            <text x="89.816" xml:space="preserve" font-size="14" y="431.1103"
                  stroke="none"></text>
            <path d="M82.5215 444.8977 L92.9289 444.8977 L92.9289 445.7481 L82.5215 445.7481 Z"
                  stroke="none"/>
            <text x="95.7635" xml:space="preserve" font-size="14" y="449.819"
                  stroke="none"></text>
        </g>
    </g>
</svg>
