<?xml version="1.0"?>
<!DOCTYPE svg PUBLIC '-//W3C//DTD SVG 1.0//EN'
    'http://www.w3.org/TR/2001/REC-SVG-20010904/DTD/svg10.dtd' >

<svg fill-opacity="1" xmlns:xlink="http://www.w3.org/1999/xlink"
     color-rendering="auto" color-interpolation="auto" stroke="black"
     text-rendering="auto" stroke-linecap="square" stroke-miterlimit="10"
     stroke-opacity="1" shape-rendering="auto" fill="black"
     stroke-dasharray="none" font-weight="normal" stroke-width="1"
     xmlns="http://www.w3.org/2000/svg" font-family="&apos;Dialog&apos;"
     font-style="normal" stroke-linejoin="miter" font-size="12"
     stroke-dashoffset="0" image-rendering="auto">
    <!--Generated by the Batik Graphics2D SVG Generator-->
    <defs id="genericDefs"/>
    <g>
        <g fill="white" stroke="white">
            <rect x="0" width="159" height="112" y="0" stroke="none"/>
            <path fill="black"
                  d="M5 35.3268 L18 35.3268 L18 36.1772 L5 36.1772 Z"
                  stroke="none"/>
            <circle fill="black" r="1.2756" cx="17.4331" cy="35.3268"
                    stroke="none"/>
            <path fill="black"
                  d="M17.8583 34.4764 L29 34.4764 L29 35.3268 L17.8583 35.3268 Z"
                  stroke="none"/>
        </g>
        <g font-family="&apos;Arial&apos;" font-size="9">
            <text x="-0.6926" xml:space="preserve" y="29.3032" stroke="none">NT1.2</text><line stroke-linecap="butt"
                  fill="none" x1="28.8918" x2="28.8918" y1="14.5984"
                  stroke-linejoin="bevel" y2="55.2047" stroke-width="0.8504"/>
            <path d="M29.317 14.5984 L45.5465 14.5984 L45.5465 15.4488 L29.317 15.4488 Z"
                  stroke="none"/>
            <text x="48.3811" xml:space="preserve" font-size="14" y="19.5197"
                  stroke="none">AJ783958</text><path d="M29.317 54.3543 L42 54.3543 L42 55.2047 L29.317 55.2047 Z"
                  stroke="none"/>
            <text x="12.4296" xml:space="preserve" y="49.1811" stroke="none">NT1.3</text><line stroke-linecap="butt"
                  fill="none" x1="42.0801" x2="42.0801" y1="33.3071"
                  stroke-linejoin="bevel" y2="76.252" stroke-width="0.8504"/>
            <path d="M42.5053 33.3071 L59.8158 33.3071 L59.8158 34.1575 L42.5053 34.1575 Z"
                  stroke="none"/>
            <text x="62.6505" xml:space="preserve" font-size="14" y="38.2283"
                  stroke="none">EF211071</text><path d="M42.5053 75.4016 L55 75.4016 L55 76.252 L42.5053 76.252 Z"
                  stroke="none"/>
            <text x="25.3489" xml:space="preserve" y="70.2284" stroke="none">NT1.5</text><line stroke-linecap="butt"
                  fill="none" x1="55.0522" x2="55.0522" y1="61.3701"
                  stroke-linejoin="bevel" y2="90.2835" stroke-width="0.8504"/>
            <path d="M55.4774 61.3701 L64 61.3701 L64 62.2205 L55.4774 62.2205 Z"
                  stroke="none"/>
            <text x="34.6852" xml:space="preserve" y="56.1969" stroke="none">NT1.8</text><line stroke-linecap="butt"
                  fill="none" x1="64.3489" x2="64.3489" y1="52.0157"
                  stroke-linejoin="bevel" y2="71.5748" stroke-width="0.8504"/>
            <path d="M64.774 52.0158 L65.6533 52.0158 L65.6533 52.8661 L64.774 52.8661 Z"
                  stroke="none"/>
            <text x="68.4879" xml:space="preserve" font-size="14" y="56.937"
                  stroke="none">X79451</text><path d="M64.774 70.7244 L77.9768 70.7244 L77.9768 71.5748 L64.774 71.5748 Z"
                  stroke="none"/>
            <text x="80.8114" xml:space="preserve" font-size="14" y="75.6457"
                  stroke="none">X79452</text><path d="M55.4774 89.4331 L58.7348 89.4331 L58.7348 90.2835 L55.4774 90.2835 Z"
                  stroke="none"/>
            <text x="61.5695" xml:space="preserve" font-size="14" y="94.3543"
                  stroke="none">X79450</text>
        </g>
    </g>
</svg>
