<?xml version="1.0"?>
<!DOCTYPE svg PUBLIC '-//W3C//DTD SVG 1.0//EN'
    'http://www.w3.org/TR/2001/REC-SVG-20010904/DTD/svg10.dtd' >

<svg fill-opacity="1" xmlns:xlink="http://www.w3.org/1999/xlink"
     color-rendering="auto" color-interpolation="auto" stroke="black"
     text-rendering="auto" stroke-linecap="square" stroke-miterlimit="10"
     stroke-opacity="1" shape-rendering="auto" fill="black"
     stroke-dasharray="none" font-weight="normal" stroke-width="1"
     xmlns="http://www.w3.org/2000/svg" font-family="&apos;Dialog&apos;"
     font-style="normal" stroke-linejoin="miter" font-size="12"
     stroke-dashoffset="0" image-rendering="auto">
    <!--Generated by the Batik Graphics2D SVG Generator-->
    <defs id="genericDefs"/>
    <g>
        <g fill="white" stroke="white">
            <rect x="0" width="208" height="392" y="0" stroke="none"/>
            <path fill="black"
                  d="M5 273.5101 L44 273.5101 L44 274.3605 L5 274.3605 Z"
                  stroke="none"/>
        </g>
        <g font-family="&apos;Arial&apos;" font-size="9">
            <text x="8.5039" xml:space="preserve" y="268.3369" stroke="none">NT1.38</text><line stroke-linecap="butt"
                  fill="none" x1="44.088" x2="44.088" y1="176.1068"
                  stroke-linejoin="bevel" y2="370.9134" stroke-width="0.8504"/>
            <path d="M44.5132 176.1068 L85 176.1068 L85 176.9572 L44.5132 176.9572 Z"
                  stroke="none"/>
            <text x="51.8151" xml:space="preserve" y="170.9336" stroke="none">NT1.1</text><line stroke-linecap="butt"
                  fill="none" x1="84.532" x2="84.532" y1="71.6014"
                  stroke-linejoin="bevel" y2="281.4626" stroke-width="0.8504"/>
            <path d="M84.9572 71.6014 L93 71.6014 L93 72.4518 L84.9572 72.4518 Z"
                  stroke="none"/>
            <text x="62.8689" xml:space="preserve" y="66.4282" stroke="none">NT1.3</text><line stroke-linecap="butt"
                  fill="none" x1="92.5194" x2="92.5194" y1="14.5984"
                  stroke-linejoin="bevel" y2="129.4547" stroke-width="0.8504"/>
            <path d="M92.9446 14.5984 L124.2973 14.5984 L124.2973 15.4488 L92.9446 15.4488 Z"
                  stroke="none"/>
            <text x="127.1319" xml:space="preserve" font-size="14" y="19.5197"
                  stroke="none">88524.0</text><path d="M92.9446 128.6043 L95 128.6043 L95 129.4547 L92.9446 129.4547 Z"
                  stroke="none"/>
            <text x="65.6053" xml:space="preserve" y="123.4311" stroke="none">NT1.5</text><line stroke-linecap="butt"
                  fill="none" x1="95.3086" x2="95.3086" y1="69.5551"
                  stroke-linejoin="bevel" y2="188.504" stroke-width="0.8504"/>
            <path d="M95.7338 69.5551 L99 69.5551 L99 70.4055 L95.7338 70.4055 Z"
                  stroke="none"/>
            <text x="69.1949" xml:space="preserve" y="64.3819" stroke="none">NT1.8</text><line stroke-linecap="butt"
                  fill="none" x1="98.8586" x2="98.8586" y1="33.3071"
                  stroke-linejoin="bevel" y2="106.6535" stroke-width="0.8504"/>
            <path d="M99.2838 33.3071 L117.7045 33.3071 L117.7045 34.1575 L99.2838 34.1575 Z"
                  stroke="none"/>
            <text x="120.5392" xml:space="preserve" font-size="14" y="38.2283"
                  stroke="none">X60042</text><path d="M99.2838 105.8032 L104 105.8032 L104 106.6535 L99.2838 106.6535 Z"
                  stroke="none"/>
            <text x="68.132" xml:space="preserve" y="100.6299" stroke="none">NT1.10</text><line stroke-linecap="butt"
                  fill="none" x1="103.6764" x2="103.6764" y1="75.4016"
                  stroke-linejoin="bevel" y2="137.0551" stroke-width="0.8504"/>
            <path d="M104.1016 75.4016 L109 75.4016 L109 76.252 L104.1016 76.252 Z"
                  stroke="none"/>
            <text x="72.9233" xml:space="preserve" y="70.2283" stroke="none">NT1.16</text><line stroke-linecap="butt"
                  fill="none" x1="108.4942" x2="108.4942" y1="52.0157"
                  stroke-linejoin="bevel" y2="99.6378" stroke-width="0.8504"/>
            <path d="M108.9194 52.0158 L116.5635 52.0158 L116.5635 52.8661 L108.9194 52.8661 Z"
                  stroke="none"/>
            <text x="119.3982" xml:space="preserve" font-size="14" y="56.937"
                  stroke="none">L26166</text><path d="M108 70.7244 L117.7046 70.7244 L117.7046 71.5748 L108 71.5748 Z"
                  stroke="none"/>
            <text x="120.5392" xml:space="preserve" font-size="14" y="75.6457"
                  stroke="none">D12794</text><path d="M108.9194 98.7874 L108 98.7874 L108 99.6378 L108.9194 99.6378 Z"
                  stroke="none"/>
            <text x="71.8562" xml:space="preserve" y="93.6142" stroke="none">NT1.15</text><line stroke-linecap="butt"
                  fill="none" x1="107.4799" x2="107.4799" y1="89.4331"
                  stroke-linejoin="bevel" y2="108.9921" stroke-width="0.8504"/>
            <path d="M107.9051 89.4331 L124.2973 89.4331 L124.2973 90.2835 L107.9051 90.2835 Z"
                  stroke="none"/>
            <text x="127.132" xml:space="preserve" font-size="14" y="94.3543"
                  stroke="none">D12784</text><path d="M107.9051 108.1417 L121.8884 108.1417 L121.8884 108.9921 L107.9051 108.9921 Z"
                  stroke="none"/>
            <text x="124.7231" xml:space="preserve" font-size="14" y="113.063"
                  stroke="none">D14513</text><path d="M104.1016 136.2047 L105 136.2047 L105 137.0551 L104.1016 137.0551 Z"
                  stroke="none"/>
            <text x="69.1859" xml:space="preserve" y="131.0315" stroke="none">NT1.12</text><line stroke-linecap="butt"
                  fill="none" x1="104.6907" x2="104.6907" y1="126.8504"
                  stroke-linejoin="bevel" y2="146.4095" stroke-width="0.8504"/>
            <path d="M105.1159 126.8504 L112.8868 126.8504 L112.8868 127.7008 L105.1159 127.7008 Z"
                  stroke="none"/>
            <text x="115.7214" xml:space="preserve" font-size="14" y="131.7717"
                  stroke="none">X67231</text><path d="M105.1159 145.5591 L113.901 145.5591 L113.901 146.4095 L105.1159 146.4095 Z"
                  stroke="none"/>
            <text x="116.7357" xml:space="preserve" font-size="14" y="150.4803"
                  stroke="none">D12786</text><path d="M95.7338 187.6536 L97 187.6536 L97 188.504 L95.7338 188.504 Z"
                  stroke="none"/>
            <text x="67.6867" xml:space="preserve" y="182.4803" stroke="none">NT1.6</text><line stroke-linecap="butt"
                  fill="none" x1="97.3372" x2="97.3372" y1="164.2677"
                  stroke-linejoin="bevel" y2="211.8898" stroke-width="0.8504"/>
            <path d="M97.7624 164.2677 L107.0547 164.2677 L107.0547 165.1181 L97.7624 165.1181 Z"
                  stroke="none"/>
            <text x="109.8894" xml:space="preserve" font-size="14" y="169.189"
                  stroke="none">D12789</text><path d="M97.7624 211.0394 L101 211.0394 L101 211.8898 L97.7624 211.8898 Z"
                  stroke="none"/>
            <text x="70.8431" xml:space="preserve" y="205.8662" stroke="none">NT1.9</text><line stroke-linecap="butt"
                  fill="none" x1="100.5068" x2="100.5068" y1="192.3307"
                  stroke-linejoin="bevel" y2="230.5984" stroke-width="0.8504"/>
            <path d="M100.932 192.3307 L104 192.3307 L104 193.1811 L100.932 193.1811 Z"
                  stroke="none"/>
            <text x="69.8867" xml:space="preserve" y="187.1575" stroke="none">NT1.11</text><line stroke-linecap="butt"
                  fill="none" x1="104.0568" x2="104.0568" y1="182.9764"
                  stroke-linejoin="bevel" y2="202.5354" stroke-width="0.8504"/>
            <path d="M104.482 182.9764 L113.5207 182.9764 L113.5207 183.8268 L104.482 183.8268 Z"
                  stroke="none"/>
            <text x="116.3554" xml:space="preserve" font-size="14" y="187.8976"
                  stroke="none"></text>
            <path d="M104.482 201.6851 L116.4367 201.6851 L116.4367 202.5355 L104.482 202.5355 Z"
                  stroke="none"/>
            <text x="119.2714" xml:space="preserve" font-size="14" y="206.6063"
                  stroke="none">AF072542</text><path d="M100.932 229.748 L106 229.748 L106 230.5984 L100.932 230.5984 Z"
                  stroke="none"/>
            <text x="70.768" xml:space="preserve" y="224.5748" stroke="none">NT1.13</text><line stroke-linecap="butt"
                  fill="none" x1="106.3389" x2="106.3389" y1="220.3937"
                  stroke-linejoin="bevel" y2="239.9528" stroke-width="0.8504"/>
            <path d="M106.7641 220.3937 L111.6189 220.3937 L111.6189 221.2441 L106.7641 221.2441 Z"
                  stroke="none"/>
            <text x="114.4536" xml:space="preserve" font-size="14" y="225.315"
                  stroke="none">X67229</text><path d="M106.7641 239.1024 L113.2671 239.1024 L113.2671 239.9528 L106.7641 239.9528 Z"
                  stroke="none"/>
            <text x="116.1018" xml:space="preserve" font-size="14" y="244.0236"
                  stroke="none"></text>
            <path d="M84.9572 280.6122 L87 280.6122 L87 281.4626 L84.9572 281.4626 Z"
                  stroke="none"/>
            <text x="57.7369" xml:space="preserve" y="275.439" stroke="none">NT1.2</text><line stroke-linecap="butt"
                  fill="none" x1="87.3213" x2="87.3213" y1="257.811"
                  stroke-linejoin="bevel" y2="304.2638" stroke-width="0.8504"/>
            <path d="M87.7465 257.811 L114.0278 257.811 L114.0278 258.6614 L87.7465 258.6614 Z"
                  stroke="none"/>
            <text x="116.8624" xml:space="preserve" font-size="14" y="262.7323"
                  stroke="none">AY178860</text><path d="M87.7465 303.4134 L93 303.4134 L93 304.2638 L87.7465 304.2638 Z"
                  stroke="none"/>
            <text x="62.8954" xml:space="preserve" y="298.2402" stroke="none">NT1.4</text><line stroke-linecap="butt"
                  fill="none" x1="92.5194" x2="92.5194" y1="276.5197"
                  stroke-linejoin="bevel" y2="331.1575" stroke-width="0.8504"/>
            <path d="M92.9446 276.5197 L110.2243 276.5197 L110.2243 277.3701 L92.9446 277.3701 Z"
                  stroke="none"/>
            <text x="113.059" xml:space="preserve" font-size="14" y="281.441"
                  stroke="none">D0883810</text><path d="M92.9446 330.3071 L97 330.3071 L97 331.1575 L92.9446 331.1575 Z"
                  stroke="none"/>
            <text x="67.6867" xml:space="preserve" y="325.1339" stroke="none">NT1.7</text><line stroke-linecap="butt"
                  fill="none" x1="97.3372" x2="97.3372" y1="309.2599"
                  stroke-linejoin="bevel" y2="352.2048" stroke-width="0.8504"/>
            <path d="M97.7624 309.2599 L111 309.2599 L111 310.1103 L97.7624 310.1103 Z"
                  stroke="none"/>
            <text x="75.319" xml:space="preserve" y="304.0867" stroke="none">NT1.19</text><line stroke-linecap="butt"
                  fill="none" x1="110.9031" x2="110.9031" y1="295.2284"
                  stroke-linejoin="bevel" y2="324.1418" stroke-width="0.8504"/>
            <path d="M111.3283 295.2284 L117.9582 295.2284 L117.9582 296.0788 L111.3283 296.0788 Z"
                  stroke="none"/>
            <text x="120.7928" xml:space="preserve" font-size="14" y="300.1497"
                  stroke="none"></text>
            <path d="M111.3283 323.2914 L112 323.2914 L112 324.1418 L111.3283 324.1418 Z"
                  stroke="none"/>
            <text x="76.373" xml:space="preserve" y="318.1182" stroke="none">NT1.20</text><line stroke-linecap="butt"
                  fill="none" x1="111.9174" x2="111.9174" y1="313.9371"
                  stroke-linejoin="bevel" y2="333.4961" stroke-width="0.8504"/>
            <path d="M112.3426 313.9371 L111.8725 313.9371 L111.8725 314.7875 L112.3426 314.7875 Z"
                  stroke="none"/>
            <text x="114.7072" xml:space="preserve" font-size="14" y="318.8583"
                  stroke="none">U53824</text><path d="M112.3426 332.6458 L112.2529 332.6458 L112.2529 333.4962 L112.3426 333.4962 Z"
                  stroke="none"/>
            <text x="115.0875" xml:space="preserve" font-size="14" y="337.567"
                  stroke="none"></text>
            <path d="M97.7624 351.3544 L109.5904 351.3544 L109.5904 352.2048 L97.7624 352.2048 Z"
                  stroke="none"/>
            <text x="112.425" xml:space="preserve" font-size="14" y="356.2757"
                  stroke="none">DQ372921</text><path d="M44.5132 370.063 L124.4241 370.063 L124.4241 370.9135 L44.5132 370.9135 Z"
                  stroke="none"/>
            <text x="127.2587" xml:space="preserve" font-size="14" y="374.9843"
                  stroke="none">X80725</text>
        </g>
    </g>
</svg>
