<?xml version="1.0"?>
<!DOCTYPE svg PUBLIC '-//W3C//DTD SVG 1.0//EN'
    'http://www.w3.org/TR/2001/REC-SVG-20010904/DTD/svg10.dtd' >

<svg fill-opacity="1" xmlns:xlink="http://www.w3.org/1999/xlink"
     color-rendering="auto" color-interpolation="auto" stroke="black"
     text-rendering="auto" stroke-linecap="square" stroke-miterlimit="10"
     stroke-opacity="1" shape-rendering="auto" fill="black"
     stroke-dasharray="none" font-weight="normal" stroke-width="1"
     xmlns="http://www.w3.org/2000/svg" font-family="&apos;Dialog&apos;"
     font-style="normal" stroke-linejoin="miter" font-size="12"
     stroke-dashoffset="0" image-rendering="auto">
    <!--Generated by the Batik Graphics2D SVG Generator-->
    <defs id="genericDefs"/>
    <g>
        <g fill="white" stroke="white">
            <rect x="0" width="230" height="411" y="0" stroke="none"/>
            <path fill="black"
                  d="M5 244.9223 L18 244.9223 L18 245.7727 L5 245.7727 Z"
                  stroke="none"/>
            <circle fill="black" r="1.2756" cx="17.4331" cy="244.9223"
                    stroke="none"/>
            <path fill="black"
                  d="M17.8583 244.0719 L30 244.0719 L30 244.9223 L17.8583 244.9223 Z"
                  stroke="none"/>
        </g>
        <g font-family="&apos;Arial&apos;" font-size="9">
            <text x="0.688" xml:space="preserve" y="238.8986" stroke="none">NT1.2</text><line stroke-linecap="butt"
                  fill="none" x1="30.2724" x2="30.2724" y1="108.7264"
                  stroke-linejoin="bevel" y2="380.2677" stroke-width="0.8504"/>
            <path d="M30.6976 108.7264 L67 108.7264 L67 109.5768 L30.6976 109.5768 Z"
                  stroke="none"/>
            <text x="35.583" xml:space="preserve" y="103.5532" stroke="none">NT1.5</text><line stroke-linecap="butt"
                  fill="none" x1="67.337" x2="67.337" y1="28.6299"
                  stroke-linejoin="bevel" y2="189.6732" stroke-width="0.8504"/>
            <path d="M67.7622 28.6299 L114 28.6299 L114 29.4803 L67.7622 29.4803 Z"
                  stroke="none"/>
            <text x="74.68" xml:space="preserve" y="23.4567" stroke="none">NT1.23</text><line stroke-linecap="butt"
                  fill="none" x1="114.3339" x2="114.3339" y1="14.5984"
                  stroke-linejoin="bevel" y2="43.5118" stroke-width="0.8504"/>
            <path d="M114.7591 14.5984 L114.151 14.5984 L114.151 15.4488 L114.7591 15.4488 Z"
                  stroke="none"/>
            <text x="116.9856" xml:space="preserve" font-size="14" y="19.5197"
                  stroke="none"></text>
            <path d="M114.7591 42.6614 L116 42.6614 L116 43.5118 L114.7591 43.5118 Z"
                  stroke="none"/>
            <text x="80.2166" xml:space="preserve" y="37.4882" stroke="none">NT1.26</text><line stroke-linecap="butt"
                  fill="none" x1="115.7874" x2="115.7874" y1="33.3071"
                  stroke-linejoin="bevel" y2="52.8661" stroke-width="0.8504"/>
            <path d="M116.2126 33.3071 L115.12 33.3071 L115.12 34.1575 L116.2126 34.1575 Z"
                  stroke="none"/>
            <text x="117.9547" xml:space="preserve" font-size="14" y="38.2283"
                  stroke="none"></text>
            <path d="M116.2126 52.0158 L117.5425 52.0158 L117.5425 52.8661 L116.2126 52.8661 Z"
                  stroke="none"/>
            <text x="120.3772" xml:space="preserve" font-size="14" y="56.937"
                  stroke="none"></text>
            <path d="M67.7622 188.8228 L72 188.8228 L72 189.6732 L67.7622 189.6732 Z"
                  stroke="none"/>
            <text x="42.2893" xml:space="preserve" y="183.6496" stroke="none">NT1.6</text><line stroke-linecap="butt"
                  fill="none" x1="71.9398" x2="71.9398" y1="109.311"
                  stroke-linejoin="bevel" y2="269.1851" stroke-width="0.8504"/>
            <path d="M72.365 109.311 L100 109.311 L100 110.1614 L72.365 110.1614 Z"
                  stroke="none"/>
            <text x="63.9857" xml:space="preserve" y="104.1378" stroke="none">NT1.16</text><line stroke-linecap="butt"
                  fill="none" x1="99.5565" x2="99.5565" y1="80.0788"
                  stroke-linejoin="bevel" y2="139.3937" stroke-width="0.8504"/>
            <path d="M99.9817 80.0788 L109 80.0788 L109 80.9291 L99.9817 80.9291 Z"
                  stroke="none"/>
            <text x="73.1781" xml:space="preserve" y="74.9055" stroke="none">NT1.19</text><line stroke-linecap="butt"
                  fill="none" x1="108.7621" x2="108.7621" y1="70.7244"
                  stroke-linejoin="bevel" y2="90.2835" stroke-width="0.8504"/>
            <path d="M109.1873 70.7244 L108.3369 70.7244 L108.3369 71.5748 L109.1873 71.5748 Z"
                  stroke="none"/>
            <text x="111.1716" xml:space="preserve" font-size="14" y="75.6457"
                  stroke="none"></text>
            <path d="M109.1873 89.4331 L127.7171 89.4331 L127.7171 90.2835 L109.1873 90.2835 Z"
                  stroke="none"/>
            <text x="130.5518" xml:space="preserve" font-size="14" y="94.3543"
                  stroke="none">AF335521</text><path d="M99.9817 138.5433 L107 138.5433 L107 139.3937 L99.9817 139.3937 Z"
                  stroke="none"/>
            <text x="71.7378" xml:space="preserve" y="133.3701" stroke="none">NT1.17</text><line stroke-linecap="butt"
                  fill="none" x1="107.3086" x2="107.3086" y1="117.4961"
                  stroke-linejoin="bevel" y2="160.4409" stroke-width="0.8504"/>
            <path d="M107.7338 117.4961 L112 117.4961 L112 118.3464 L107.7338 118.3464 Z"
                  stroke="none"/>
            <text x="78.2259" xml:space="preserve" y="112.3228" stroke="none">NT1.21</text><line stroke-linecap="butt"
                  fill="none" x1="112.3959" x2="112.3959" y1="108.1417"
                  stroke-linejoin="bevel" y2="127.7008" stroke-width="0.8504"/>
            <path d="M112.8211 108.1417 L110.2749 108.1417 L110.2749 108.9921 L112.8211 108.9921 Z"
                  stroke="none"/>
            <text x="113.1096" xml:space="preserve" font-size="14" y="113.063"
                  stroke="none"></text>
            <path d="M112.8211 126.8504 L118.027 126.8504 L118.027 127.7008 L112.8211 127.7008 Z"
                  stroke="none"/>
            <text x="120.8617" xml:space="preserve" font-size="14" y="131.7717"
                  stroke="none">AF313370</text><path d="M107.7338 159.5905 L121 159.5905 L121 160.4409 L107.7338 160.4409 Z"
                  stroke="none"/>
            <text x="85.6122" xml:space="preserve" y="154.4173" stroke="none">NT1.32</text><line stroke-linecap="butt"
                  fill="none" x1="121.117" x2="121.117" y1="145.559"
                  stroke-linejoin="bevel" y2="174.4724" stroke-width="0.8504"/>
            <path d="M121.5422 145.5591 L120.6918 145.5591 L120.6918 146.4095 L121.5422 146.4095 Z"
                  stroke="none"/>
            <text x="123.5264" xml:space="preserve" font-size="14" y="150.4803"
                  stroke="none"></text>
            <path d="M121.5422 173.622 L122 173.622 L122 174.4724 L121.5422 174.4724 Z"
                  stroke="none"/>
            <text x="86.5416" xml:space="preserve" y="168.4488" stroke="none">NT1.34</text><line stroke-linecap="butt"
                  fill="none" x1="122.086" x2="122.086" y1="164.2677"
                  stroke-linejoin="bevel" y2="183.8268" stroke-width="0.8504"/>
            <path d="M122.5112 164.2677 L122.8721 164.2677 L122.8721 165.1181 L122.5112 165.1181 Z"
                  stroke="none"/>
            <text x="125.7067" xml:space="preserve" font-size="14" y="169.189"
                  stroke="none"></text>
            <path d="M122.5112 182.9764 L121.4185 182.9764 L121.4185 183.8268 L122.5112 183.8268 Z"
                  stroke="none"/>
            <text x="124.2532" xml:space="preserve" font-size="14" y="187.8976"
                  stroke="none"></text>
            <path d="M72.365 268.3347 L76 268.3347 L76 269.1851 L72.365 269.1851 Z"
                  stroke="none"/>
            <text x="45.9231" xml:space="preserve" y="263.1614" stroke="none">NT1.7</text><line stroke-linecap="butt"
                  fill="none" x1="75.5736" x2="75.5736" y1="229.748"
                  stroke-linejoin="bevel" y2="307.7717" stroke-width="0.8504"/>
            <path d="M75.9988 229.748 L87 229.748 L87 230.5984 L75.9988 230.5984 Z"
                  stroke="none"/>
            <text x="57.538" xml:space="preserve" y="224.5748" stroke="none">NT1.9</text><line stroke-linecap="butt"
                  fill="none" x1="87.2017" x2="87.2017" y1="211.0394"
                  stroke-linejoin="bevel" y2="249.3071" stroke-width="0.8504"/>
            <path d="M87.6269 211.0394 L98 211.0394 L98 211.8898 L87.6269 211.8898 Z"
                  stroke="none"/>
            <text x="61.9948" xml:space="preserve" y="205.8661" stroke="none">NT1.15</text><line stroke-linecap="butt"
                  fill="none" x1="97.6185" x2="97.6185" y1="201.685"
                  stroke-linejoin="bevel" y2="221.2441" stroke-width="0.8504"/>
            <path d="M98.0437 201.685 L97.1933 201.685 L97.1933 202.5354 L98.0437 202.5354 Z"
                  stroke="none"/>
            <text x="100.0279" xml:space="preserve" font-size="14" y="206.6063"
                  stroke="none"></text>
            <path d="M98.0437 220.3937 L118.5115 220.3937 L118.5115 221.2441 L98.0437 221.2441 Z"
                  stroke="none"/>
            <text x="121.3461" xml:space="preserve" font-size="14" y="225.315"
                  stroke="none">AF335526</text><path d="M87.6269 248.4567 L97 248.4567 L97 249.3071 L87.6269 249.3071 Z"
                  stroke="none"/>
            <text x="61.3209" xml:space="preserve" y="243.2834" stroke="none">NT1.13</text><line stroke-linecap="butt"
                  fill="none" x1="96.8918" x2="96.8918" y1="239.1024"
                  stroke-linejoin="bevel" y2="258.6614" stroke-width="0.8504"/>
            <path d="M97.317 239.1024 L96.4666 239.1024 L96.4666 239.9528 L97.317 239.9528 Z"
                  stroke="none"/>
            <text x="99.3012" xml:space="preserve" font-size="14" y="244.0236"
                  stroke="none"></text>
            <path d="M97.317 257.811 L116.8158 257.811 L116.8158 258.6614 L97.317 258.6614 Z"
                  stroke="none"/>
            <text x="119.6504" xml:space="preserve" font-size="14" y="262.7323"
                  stroke="none">AF335524</text><path d="M75.9988 306.9213 L82 306.9213 L82 307.7717 L75.9988 307.7717 Z"
                  stroke="none"/>
            <text x="52.4507" xml:space="preserve" y="301.748" stroke="none">NT1.8</text><line stroke-linecap="butt"
                  fill="none" x1="82.1144" x2="82.1144" y1="285.874"
                  stroke-linejoin="bevel" y2="328.8189" stroke-width="0.8504"/>
            <path d="M82.5396 285.874 L93 285.874 L93 286.7244 L82.5396 286.7244 Z"
                  stroke="none"/>
            <text x="58.3612" xml:space="preserve" y="280.7008" stroke="none">NT1.11</text><line stroke-linecap="butt"
                  fill="none" x1="92.5312" x2="92.5312" y1="276.5197"
                  stroke-linejoin="bevel" y2="296.0787" stroke-width="0.8504"/>
            <path d="M92.9564 276.5197 L92.106 276.5197 L92.106 277.3701 L92.9564 277.3701 Z"
                  stroke="none"/>
            <text x="94.9407" xml:space="preserve" font-size="14" y="281.4409"
                  stroke="none"></text>
            <path d="M92.9564 295.2284 L113.6665 295.2284 L113.6665 296.0788 L92.9564 296.0788 Z"
                  stroke="none"/>
            <text x="116.5011" xml:space="preserve" font-size="14" y="300.1496"
                  stroke="none"></text>
            <path d="M82.5396 327.9685 L144 327.9685 L144 328.8189 L82.5396 328.8189 Z"
                  stroke="none"/>
            <text x="96.8394" xml:space="preserve" y="322.7953" stroke="none">NT1.38</text><line stroke-linecap="butt"
                  fill="none" x1="143.8887" x2="143.8887" y1="313.937"
                  stroke-linejoin="bevel" y2="342.8504" stroke-width="0.8504"/>
            <path d="M144.3139 313.937 L143.7057 313.937 L143.7057 314.7874 L144.3139 314.7874 Z"
                  stroke="none"/>
            <text x="146.5404" xml:space="preserve" font-size="14" y="318.8582"
                  stroke="none">DQ400366</text><path d="M144.3139 342 L144 342 L144 342.8504 L144.3139 342.8504 Z"
                  stroke="none"/>
            <text x="110.2031" xml:space="preserve" y="336.8268" stroke="none">NT1.41</text><line stroke-linecap="butt"
                  fill="none" x1="144.3732" x2="144.3732" y1="332.6457"
                  stroke-linejoin="bevel" y2="352.2047" stroke-width="0.8504"/>
            <path d="M144.7984 332.6457 L144.6747 332.6457 L144.6747 333.4961 L144.7984 333.4961 Z"
                  stroke="none"/>
            <text x="147.5094" xml:space="preserve" font-size="14" y="337.5669"
                  stroke="none">AM947064</text><path d="M144.7984 351.3543 L143.7057 351.3543 L143.7057 352.2047 L144.7984 352.2047 Z"
                  stroke="none"/>
            <text x="146.5404" xml:space="preserve" font-size="14" y="356.2756"
                  stroke="none"></text>
            <path d="M30.6976 379.4174 L45 379.4174 L45 380.2678 L30.6976 380.2678 Z"
                  stroke="none"/>
            <text x="15.668" xml:space="preserve" y="374.2442" stroke="none">NT1.4</text><line stroke-linecap="butt"
                  fill="none" x1="45.2921" x2="45.2921" y1="370.063"
                  stroke-linejoin="bevel" y2="389.6221" stroke-width="0.8504"/>
            <path d="M45.7173 370.063 L44.6246 370.063 L44.6246 370.9135 L45.7173 370.9135 Z"
                  stroke="none"/>
            <text x="47.4593" xml:space="preserve" font-size="14" y="374.9843"
                  stroke="none"></text>
            <path d="M45.7173 388.7717 L122.1453 388.7717 L122.1453 389.6221 L45.7173 389.6221 Z"
                  stroke="none"/>
            <text x="124.98" xml:space="preserve" font-size="14" y="393.693"
                  stroke="none">AF411823</text>
        </g>
    </g>
</svg>
