<?xml version="1.0"?>
<!DOCTYPE svg PUBLIC '-//W3C//DTD SVG 1.0//EN'
    'http://www.w3.org/TR/2001/REC-SVG-20010904/DTD/svg10.dtd' >

<svg fill-opacity="1" xmlns:xlink="http://www.w3.org/1999/xlink"
     color-rendering="auto" color-interpolation="auto" stroke="black"
     text-rendering="auto" stroke-linecap="square" stroke-miterlimit="10"
     stroke-opacity="1" shape-rendering="auto" fill="black"
     stroke-dasharray="none" font-weight="normal" stroke-width="1"
     xmlns="http://www.w3.org/2000/svg" font-family="&apos;Dialog&apos;"
     font-style="normal" stroke-linejoin="miter" font-size="12"
     stroke-dashoffset="0" image-rendering="auto">
    <!--Generated by the Batik Graphics2D SVG Generator-->
    <defs id="genericDefs"/>
    <g>
        <g fill="white" stroke="white">
            <rect x="0" width="228" height="598" y="0" stroke="none"/>
            <path fill="black"
                  d="M5 540.0747 L18 540.0747 L18 540.925 L5 540.925 Z"
                  stroke="none"/>
            <circle fill="black" r="1.2756" cx="17.4331" cy="540.0747"
                    stroke="none"/>
            <path fill="black"
                  d="M17.8583 539.2244 L18 539.2244 L18 540.0747 L17.8583 540.0747 Z"
                  stroke="none"/>
        </g>
        <g font-family="&apos;Arial&apos;" font-size="9">
            <text x="-11.8284" xml:space="preserve" y="534.0511" stroke="none">NT1.2</text><line stroke-linecap="butt"
                  fill="none" x1="17.756" x2="17.756" y1="502.5903"
                  stroke-linejoin="bevel" y2="576.7087" stroke-width="0.8504"/>
            <path d="M18.1812 502.5904 L20 502.5904 L20 503.4408 L18.1812 503.4408 Z"
                  stroke="none"/>
            <text x="-10.1182" xml:space="preserve" y="497.4171" stroke="none">NT1.3</text><line stroke-linecap="butt"
                  fill="none" x1="19.5323" x2="19.5323" y1="457.3853"
                  stroke-linejoin="bevel" y2="548.6458" stroke-width="0.8504"/>
            <path d="M19.9575 457.3854 L28 457.3854 L28 458.2358 L19.9575 458.2358 Z"
                  stroke="none"/>
            <text x="-1.5333" xml:space="preserve" y="452.2122" stroke="none">NT1.4</text><line stroke-linecap="butt"
                  fill="none" x1="28.0908" x2="28.0908" y1="404.3927"
                  stroke-linejoin="bevel" y2="511.2284" stroke-width="0.8504"/>
            <path d="M28.516 404.3927 L34 404.3927 L34 405.2431 L28.516 405.2431 Z"
                  stroke="none"/>
            <text x="4.0392" xml:space="preserve" y="399.2195" stroke="none">NT1.5</text><line stroke-linecap="butt"
                  fill="none" x1="33.7426" x2="33.7426" y1="326.4704"
                  stroke-linejoin="bevel" y2="483.1654" stroke-width="0.8504"/>
            <path d="M34.1678 326.4704 L36 326.4704 L36 327.3208 L34.1678 327.3208 Z"
                  stroke="none"/>
            <text x="5.8684" xml:space="preserve" y="321.2971" stroke="none">NT1.6</text><line stroke-linecap="butt"
                  fill="none" x1="35.5188" x2="35.5188" y1="203.3659"
                  stroke-linejoin="bevel" y2="450.4252" stroke-width="0.8504"/>
            <path d="M35.9441 203.3659 L40 203.3659 L40 204.2163 L35.9441 204.2163 Z"
                  stroke="none"/>
            <text x="9.9054" xml:space="preserve" y="198.1927" stroke="none">NT1.7</text><line stroke-linecap="butt"
                  fill="none" x1="39.5559" x2="39.5559" y1="85.1944"
                  stroke-linejoin="bevel" y2="322.3878" stroke-width="0.8504"/>
            <path d="M39.9811 85.1944 L41 85.1944 L41 86.0448 L39.9811 86.0448 Z"
                  stroke="none"/>
            <text x="11.6685" xml:space="preserve" y="80.0212" stroke="none">NT1.8</text><line stroke-linecap="butt"
                  fill="none" x1="41.3321" x2="41.3321" y1="14.5984"
                  stroke-linejoin="bevel" y2="156.6407" stroke-width="0.8504"/>
            <path d="M41.7573 14.5984 L53.9868 14.5984 L53.9868 15.4488 L41.7573 15.4488 Z"
                  stroke="none"/>
            <text x="56.8215" xml:space="preserve" font-size="14" y="19.5197"
                  stroke="none">ABZ14328</text><path d="M41.7573 155.7904 L43 155.7904 L43 156.6408 L41.7573 156.6408 Z"
                  stroke="none"/>
            <text x="12.7988" xml:space="preserve" y="150.6171" stroke="none">NT1.9</text><line stroke-linecap="butt"
                  fill="none" x1="42.4625" x2="42.4625" y1="72.4784"
                  stroke-linejoin="bevel" y2="239.9528" stroke-width="0.8504"/>
            <path d="M42.8877 72.4784 L45 72.4784 L45 73.3287 L42.8877 73.3287 Z"
                  stroke="none"/>
            <text x="9.1788" xml:space="preserve" y="67.3051" stroke="none">NT1.14</text><line stroke-linecap="butt"
                  fill="none" x1="44.7232" x2="44.7232" y1="33.3071"
                  stroke-linejoin="bevel" y2="112.5" stroke-width="0.8504"/>
            <path d="M45.1484 33.3071 L66.5823 33.3071 L66.5823 34.1575 L45.1484 34.1575 Z"
                  stroke="none"/>
            <text x="69.4169" xml:space="preserve" font-size="14" y="38.2283"
                  stroke="none">A8200227</text><path d="M45.1484 111.6496 L49 111.6496 L49 112.5 L45.1484 112.5 Z"
                  stroke="none"/>
            <text x="13.7003" xml:space="preserve" y="106.4764" stroke="none">NT1.20</text><line stroke-linecap="butt"
                  fill="none" x1="49.2447" x2="49.2447" y1="75.4016"
                  stroke-linejoin="bevel" y2="148.748" stroke-width="0.8504"/>
            <path d="M49.6699 75.4016 L54 75.4016 L54 76.252 L49.6699 76.252 Z"
                  stroke="none"/>
            <text x="17.8723" xml:space="preserve" y="70.2284" stroke="none">NT1.23</text><line stroke-linecap="butt"
                  fill="none" x1="53.4431" x2="53.4431" y1="61.3701"
                  stroke-linejoin="bevel" y2="90.2835" stroke-width="0.8504"/>
            <path d="M53.8683 61.3701 L64 61.3701 L64 62.2205 L53.8683 62.2205 Z"
                  stroke="none"/>
            <text x="28.207" xml:space="preserve" y="56.1969" stroke="none">NT1.46</text><line stroke-linecap="butt"
                  fill="none" x1="63.7779" x2="63.7779" y1="52.0157"
                  stroke-linejoin="bevel" y2="71.5748" stroke-width="0.8504"/>
            <path d="M64.2031 52.0158 L72.3955 52.0158 L72.3955 52.8661 L64.2031 52.8661 Z"
                  stroke="none"/>
            <text x="75.2302" xml:space="preserve" font-size="14" y="56.937"
                  stroke="none">ABZ42142</text><path d="M64.2031 70.7244 L69.4889 70.7244 L69.4889 71.5748 L64.2031 71.5748 Z"
                  stroke="none"/>
            <text x="72.3236" xml:space="preserve" font-size="14" y="75.6457"
                  stroke="none">M58762</text><path d="M53.8683 89.4331 L70.6193 89.4331 L70.6193 90.2835 L53.8683 90.2835 Z"
                  stroke="none"/>
            <text x="73.4539" xml:space="preserve" font-size="14" y="94.3543"
                  stroke="none">AY126616</text><path d="M49.6699 147.8976 L55 147.8976 L55 148.748 L49.6699 148.748 Z"
                  stroke="none"/>
            <text x="18.9894" xml:space="preserve" y="142.7244" stroke="none">NT1.28</text><line stroke-linecap="butt"
                  fill="none" x1="54.5735" x2="54.5735" y1="122.1732"
                  stroke-linejoin="bevel" y2="174.4725" stroke-width="0.8504"/>
            <path d="M54.9987 122.1732 L59 122.1732 L59 123.0236 L54.9987 123.0236 Z"
                  stroke="none"/>
            <text x="22.9868" xml:space="preserve" y="117" stroke="none">NT1.35</text><line stroke-linecap="butt"
                  fill="none" x1="58.6105" x2="58.6105" y1="108.1417"
                  stroke-linejoin="bevel" y2="137.0551" stroke-width="0.8504"/>
            <path d="M59.0357 108.1417 L91.9346 108.1417 L91.9346 108.9921 L59.0357 108.9921 Z"
                  stroke="none"/>
            <text x="94.7692" xml:space="preserve" font-size="14" y="113.063"
                  stroke="none">ABZ53731</text><path d="M59.0357 136.2047 L60 136.2047 L60 137.0551 L59.0357 137.0551 Z"
                  stroke="none"/>
            <text x="24.6809" xml:space="preserve" y="131.0315" stroke="none">NT1.40</text><line stroke-linecap="butt"
                  fill="none" x1="60.2253" x2="60.2253" y1="126.8504"
                  stroke-linejoin="bevel" y2="146.4095" stroke-width="0.8504"/>
            <path d="M60.6505 126.8504 L75.7866 126.8504 L75.7866 127.7008 L60.6505 127.7008 Z"
                  stroke="none"/>
            <text x="78.6212" xml:space="preserve" font-size="14" y="131.7717"
                  stroke="none">AB260026</text><path d="M60.6505 145.5591 L76.4325 145.5591 L76.4325 146.4095 L60.6505 146.4095 Z"
                  stroke="none"/>
            <text x="79.2671" xml:space="preserve" font-size="14" y="150.4803"
                  stroke="none">A8253726</text><path d="M54.9987 173.6221 L57 173.6221 L57 174.4725 L54.9987 174.4725 Z"
                  stroke="none"/>
            <text x="21.7742" xml:space="preserve" y="168.4488" stroke="none">NT1.34</text><line stroke-linecap="butt"
                  fill="none" x1="57.3186" x2="57.3186" y1="164.2677"
                  stroke-linejoin="bevel" y2="183.8268" stroke-width="0.8504"/>
            <path d="M57.7438 164.2677 L72.3955 164.2677 L72.3955 165.1181 L57.7438 165.1181 Z"
                  stroke="none"/>
            <text x="75.2301" xml:space="preserve" font-size="14" y="169.189"
                  stroke="none">ABZOOZ17</text><path d="M57.7438 182.9764 L68.3585 182.9764 L68.3585 183.8268 L57.7438 183.8268 Z"
                  stroke="none"/>
            <text x="71.1931" xml:space="preserve" font-size="14" y="187.8976"
                  stroke="none">A5200224</text><path d="M42.8877 239.1024 L45 239.1024 L45 239.9528 L42.8877 239.9528 Z"
                  stroke="none"/>
            <text x="9.0995" xml:space="preserve" y="233.9291" stroke="none">NT1.15</text><line stroke-linecap="butt"
                  fill="none" x1="44.7232" x2="44.7232" y1="220.3937"
                  stroke-linejoin="bevel" y2="258.6614" stroke-width="0.8504"/>
            <path d="M45.1484 220.3937 L46 220.3937 L46 221.2441 L45.1484 221.2441 Z"
                  stroke="none"/>
            <text x="9.9598" xml:space="preserve" y="215.2205" stroke="none">NT1.17</text><line stroke-linecap="butt"
                  fill="none" x1="45.5307" x2="45.5307" y1="201.685"
                  stroke-linejoin="bevel" y2="239.9528" stroke-width="0.8504"/>
            <path d="M45.9559 201.685 L58.6698 201.685 L58.6698 202.5354 L45.9559 202.5354 Z"
                  stroke="none"/>
            <text x="61.5044" xml:space="preserve" font-size="14" y="206.6063"
                  stroke="none">X83953</text><path d="M45 220.3937 L55.1172 220.3937 L55.1172 221.2441 L45 221.2441 Z"
                  stroke="none"/>
            <text x="57.9518" xml:space="preserve" font-size="14" y="225.315"
                  stroke="none">L16485</text><path d="M45.9559 239.1024 L59.8001 239.1024 L59.8001 239.9528 L45.9559 239.9528 Z"
                  stroke="none"/>
            <text x="62.6348" xml:space="preserve" font-size="14" y="244.0237"
                  stroke="none">A8253732</text><path d="M45.1484 257.811 L53.9868 257.811 L53.9868 258.6614 L45.1484 258.6614 Z"
                  stroke="none"/>
            <text x="56.8215" xml:space="preserve" font-size="14" y="262.7323"
                  stroke="none">L16486</text><path d="M39.9811 321.5374 L43 321.5374 L43 322.3878 L39.9811 322.3878 Z"
                  stroke="none"/>
            <text x="6.9181" xml:space="preserve" y="316.3642" stroke="none">NT1.10</text><line stroke-linecap="butt"
                  fill="none" x1="42.4625" x2="42.4625" y1="285.874"
                  stroke-linejoin="bevel" y2="358.0512" stroke-width="0.8504"/>
            <path d="M42.8877 285.874 L44 285.874 L44 286.7244 L42.8877 286.7244 Z"
                  stroke="none"/>
            <text x="8.5726" xml:space="preserve" y="280.7008" stroke="none">NT1.12</text><line stroke-linecap="butt"
                  fill="none" x1="44.0773" x2="44.0773" y1="276.5197"
                  stroke-linejoin="bevel" y2="296.0788" stroke-width="0.8504"/>
            <path d="M44.5025 276.5197 L53.5024 276.5197 L53.5024 277.3701 L44.5025 277.3701 Z"
                  stroke="none"/>
            <text x="56.3371" xml:space="preserve" font-size="14" y="281.441"
                  stroke="none"></text>
            <path d="M44.5025 295.2284 L55.1172 295.2284 L55.1172 296.0788 L44.5025 296.0788 Z"
                  stroke="none"/>
            <text x="57.9519" xml:space="preserve" font-size="14" y="300.1497"
                  stroke="none">AY608696</text><path d="M42.8877 357.2008 L44 357.2008 L44 358.0512 L42.8877 358.0512 Z"
                  stroke="none"/>
            <text x="9.4229" xml:space="preserve" y="352.0276" stroke="none">NT1.11</text><line stroke-linecap="butt"
                  fill="none" x1="43.5929" x2="43.5929" y1="323.2913"
                  stroke-linejoin="bevel" y2="391.9606" stroke-width="0.8504"/>
            <path d="M44.0181 323.2913 L47 323.2913 L47 324.1417 L44.0181 324.1417 Z"
                  stroke="none"/>
            <text x="11.3999" xml:space="preserve" y="318.1181" stroke="none">NT1.18</text><line stroke-linecap="butt"
                  fill="none" x1="46.984" x2="46.984" y1="313.937"
                  stroke-linejoin="bevel" y2="333.4961" stroke-width="0.8504"/>
            <path d="M47.4092 313.937 L55.1172 313.937 L55.1172 314.7874 L47.4092 314.7874 Z"
                  stroke="none"/>
            <text x="57.9518" xml:space="preserve" font-size="14" y="318.8583"
                  stroke="none">X83951</text><path d="M47.4092 332.6457 L54.6328 332.6457 L54.6328 333.4961 L47.4092 333.4961 Z"
                  stroke="none"/>
            <text x="57.4674" xml:space="preserve" font-size="14" y="337.567"
                  stroke="none">A8021164</text><path d="M44.0181 391.1103 L44 391.1103 L44 391.9607 L44.0181 391.9607 Z"
                  stroke="none"/>
            <text x="8.668" xml:space="preserve" y="385.937" stroke="none">NT1.13</text><line stroke-linecap="butt"
                  fill="none" x1="44.2388" x2="44.2388" y1="374.7401"
                  stroke-linejoin="bevel" y2="408.3307" stroke-width="0.8504"/>
            <path d="M44.664 374.7402 L45 374.7402 L45 375.5906 L44.664 375.5906 Z"
                  stroke="none"/>
            <text x="9.3139" xml:space="preserve" y="369.5669" stroke="none">NT1.16</text><line stroke-linecap="butt"
                  fill="none" x1="44.8847" x2="44.8847" y1="360.7086"
                  stroke-linejoin="bevel" y2="389.622" stroke-width="0.8504"/>
            <path d="M45.3099 360.7086 L48 360.7086 L48 361.559 L45.3099 361.559 Z"
                  stroke="none"/>
            <text x="12.5303" xml:space="preserve" y="355.5354" stroke="none">NT1.19</text><line stroke-linecap="butt"
                  fill="none" x1="48.1143" x2="48.1143" y1="351.3543"
                  stroke-linejoin="bevel" y2="370.9134" stroke-width="0.8504"/>
            <path d="M48.5395 351.3543 L53.9868 351.3543 L53.9868 352.2047 L48.5395 352.2047 Z"
                  stroke="none"/>
            <text x="56.8215" xml:space="preserve" font-size="14" y="356.2756"
                  stroke="none">A3222699</text><path d="M48.5395 370.063 L52.8565 370.063 L52.8565 370.9134 L48.5395 370.9134 Z"
                  stroke="none"/>
            <text x="55.6911" xml:space="preserve" font-size="14" y="374.9843"
                  stroke="none"></text>
            <path d="M45.3099 388.7716 L51.7261 388.7716 L51.7261 389.622 L45.3099 389.622 Z"
                  stroke="none"/>
            <text x="54.5607" xml:space="preserve" font-size="14" y="393.6929"
                  stroke="none">L16484</text><path d="M44.664 407.4803 L59.8001 407.4803 L59.8001 408.3307 L44.664 408.3307 Z"
                  stroke="none"/>
            <text x="62.6348" xml:space="preserve" font-size="14" y="412.4016"
                  stroke="none">M11656</text><path d="M35.9441 449.5749 L59 449.5749 L59 450.4253 L35.9441 450.4253 Z"
                  stroke="none"/>
            <text x="23.5241" xml:space="preserve" y="444.4016" stroke="none">NT1.37</text><line stroke-linecap="butt"
                  fill="none" x1="59.095" x2="59.095" y1="435.5434"
                  stroke-linejoin="bevel" y2="464.4568" stroke-width="0.8504"/>
            <path d="M59.5202 435.5434 L61 435.5434 L61 436.3938 L59.5202 436.3938 Z"
                  stroke="none"/>
            <text x="27.1856" xml:space="preserve" y="430.3701" stroke="none">NT1.41</text><line stroke-linecap="butt"
                  fill="none" x1="61.3557" x2="61.3557" y1="426.189"
                  stroke-linejoin="bevel" y2="445.7481" stroke-width="0.8504"/>
            <path d="M61.7809 426.1891 L62.5453 426.1891 L62.5453 427.0395 L61.7809 427.0395 Z"
                  stroke="none"/>
            <text x="65.3799" xml:space="preserve" font-size="14" y="431.1103"
                  stroke="none">AY549431</text><path d="M61.7809 444.8977 L62.0608 444.8977 L62.0608 445.7481 L61.7809 445.7481 Z"
                  stroke="none"/>
            <text x="64.8955" xml:space="preserve" font-size="14" y="449.819"
                  stroke="none"></text>
            <path d="M59.5202 463.6064 L62.5453 463.6064 L62.5453 464.4568 L59.5202 464.4568 Z"
                  stroke="none"/>
            <text x="65.3799" xml:space="preserve" font-size="14" y="468.5276"
                  stroke="none">AB200228</text><path d="M34.1678 482.315 L66.7437 482.315 L66.7437 483.1654 L34.1678 483.1654 Z"
                  stroke="none"/>
            <text x="69.5784" xml:space="preserve" font-size="14" y="487.2363"
                  stroke="none">AF319778</text><path d="M28.516 510.3781 L56 510.3781 L56 511.2285 L28.516 511.2285 Z"
                  stroke="none"/>
            <text x="20.133" xml:space="preserve" y="505.2048" stroke="none">NT1.33</text><line stroke-linecap="butt"
                  fill="none" x1="55.7039" x2="55.7039" y1="501.0237"
                  stroke-linejoin="bevel" y2="520.5828" stroke-width="0.8504"/>
            <path d="M56.1291 501.0237 L73.5259 501.0237 L73.5259 501.8741 L56.1291 501.8741 Z"
                  stroke="none"/>
            <text x="76.3606" xml:space="preserve" font-size="14" y="505.945"
                  stroke="none">M86695</text><path d="M56.1291 519.7324 L66.0978 519.7324 L66.0978 520.5828 L56.1291 520.5828 Z"
                  stroke="none"/>
            <text x="68.9325" xml:space="preserve" font-size="14" y="524.6537"
                  stroke="none">X83954</text><path d="M19.9575 547.7953 L93 547.7953 L93 548.6457 L19.9575 548.6457 Z"
                  stroke="none"/>
            <text x="39.8647" xml:space="preserve" y="542.6221" stroke="none">NT1.59</text><line stroke-linecap="butt"
                  fill="none" x1="92.5212" x2="92.5212" y1="538.441"
                  stroke-linejoin="bevel" y2="558.0001" stroke-width="0.8504"/>
            <path d="M92.9465 538.441 L124.715 538.441 L124.715 539.2914 L92.9465 539.2914 Z"
                  stroke="none"/>
            <text x="127.5497" xml:space="preserve" font-size="14" y="543.3623"
                  stroke="none">AY136666</text><path d="M92.9465 557.1497 L139.5712 557.1497 L139.5712 558.0001 L92.9465 558.0001 Z"
                  stroke="none"/>
            <text x="142.4058" xml:space="preserve" font-size="14" y="562.071"
                  stroke="none">L35517</text><path d="M18.1812 575.8583 L63.1911 575.8583 L63.1911 576.7087 L18.1812 576.7087 Z"
                  stroke="none"/>
            <text x="66.0258" xml:space="preserve" font-size="14" y="580.7796"
                  stroke="none">AY323525</text>
        </g>
    </g>
</svg>
