<?xml version="1.0"?>
<!DOCTYPE svg PUBLIC '-//W3C//DTD SVG 1.0//EN'
    'http://www.w3.org/TR/2001/REC-SVG-20010904/DTD/svg10.dtd' >

<svg fill-opacity="1" xmlns:xlink="http://www.w3.org/1999/xlink"
     color-rendering="auto" color-interpolation="auto" stroke="black"
     text-rendering="auto" stroke-linecap="square" stroke-miterlimit="10"
     stroke-opacity="1" shape-rendering="auto" fill="black"
     stroke-dasharray="none" font-weight="normal" stroke-width="1"
     xmlns="http://www.w3.org/2000/svg" font-family="&apos;Dialog&apos;"
     font-style="normal" stroke-linejoin="miter" font-size="12"
     stroke-dashoffset="0" image-rendering="auto">
    <!--Generated by the Batik Graphics2D SVG Generator-->
    <defs id="genericDefs"/>
    <g>
        <g fill="white" stroke="white">
            <rect x="0" width="192" height="242" y="0" stroke="none"/>
            <path fill="black"
                  d="M5 36.6555 L44 36.6555 L44 37.5059 L5 37.5059 Z"
                  stroke="none"/>
        </g>
        <g font-family="&apos;Arial&apos;" font-size="9">
            <text x="8.5039" xml:space="preserve" y="31.4823" stroke="none">NT1.23</text><line stroke-linecap="butt"
                  fill="none" x1="44.0748" x2="44.0748" y1="14.5984"
                  stroke-linejoin="bevel" y2="58.7126" stroke-width="0.8504"/>
            <path d="M44.5 14.5984 L73.3252 14.5984 L73.3252 15.4488 L44.5 15.4488 Z"
                  stroke="none"/>
            <text x="76.1598" xml:space="preserve" font-size="14" y="19.5197"
                  stroke="none">AF013113</text><path d="M44.5 57.8622 L50 57.8622 L50 58.7126 L44.5 58.7126 Z"
                  stroke="none"/>
            <text x="21.2884" xml:space="preserve" y="52.689" stroke="none">NT1.1</text><line stroke-linecap="butt"
                  fill="none" x1="49.5381" x2="49.5381" y1="33.3071"
                  stroke-linejoin="bevel" y2="83.2677" stroke-width="0.8504"/>
            <path d="M49.9632 33.3071 L67.4894 33.3071 L67.4894 34.1575 L49.9632 34.1575 Z"
                  stroke="none"/>
            <text x="70.324" xml:space="preserve" font-size="14" y="38.2283"
                  stroke="none">AY514998</text><path d="M49.9632 82.4173 L64 82.4173 L64 83.2677 L49.9632 83.2677 Z"
                  stroke="none"/>
            <text x="34.1085" xml:space="preserve" y="77.2441" stroke="none">NT1.2</text><line stroke-linecap="butt"
                  fill="none" x1="63.6929" x2="63.6929" y1="52.0157"
                  stroke-linejoin="bevel" y2="113.6693" stroke-width="0.8504"/>
            <path d="M64.1181 52.0158 L90.2117 52.0158 L90.2117 52.8661 L64.1181 52.8661 Z"
                  stroke="none"/>
            <text x="93.0463" xml:space="preserve" font-size="14" y="56.937"
                  stroke="none">AY353713</text><path d="M64.1181 112.8189 L71 112.8189 L71 113.6693 L64.1181 113.6693 Z"
                  stroke="none"/>
            <text x="41.3947" xml:space="preserve" y="107.6457" stroke="none">NT1.4</text><line stroke-linecap="butt"
                  fill="none" x1="71.0187" x2="71.0187" y1="70.7244"
                  stroke-linejoin="bevel" y2="155.7638" stroke-width="0.8504"/>
            <path d="M71.4439 70.7244 L102.6283 70.7244 L102.6283 71.5748 L71.4439 71.5748 Z"
                  stroke="none"/>
            <text x="105.4629" xml:space="preserve" font-size="14" y="75.6457"
                  stroke="none">AY353717</text><path d="M71.4439 154.9134 L79 154.9134 L79 155.7638 L71.4439 155.7638 Z"
                  stroke="none"/>
            <text x="49.0665" xml:space="preserve" y="149.7402" stroke="none">NT1.6</text><line stroke-linecap="butt"
                  fill="none" x1="78.717" x2="78.717" y1="112.8189"
                  stroke-linejoin="bevel" y2="197.8583" stroke-width="0.8504"/>
            <path d="M79.1422 112.8189 L79 112.8189 L79 113.6693 L79.1422 113.6693 Z"
                  stroke="none"/>
            <text x="49.6874" xml:space="preserve" y="107.6457" stroke="none">NT1.7</text><line stroke-linecap="butt"
                  fill="none" x1="79.3378" x2="79.3378" y1="89.4331"
                  stroke-linejoin="bevel" y2="137.0551" stroke-width="0.8504"/>
            <path d="M79.763 89.4331 L98.7792 89.4331 L98.7792 90.2835 L79.763 90.2835 Z"
                  stroke="none"/>
            <text x="101.6138" xml:space="preserve" font-size="14" y="94.3543"
                  stroke="none"></text>
            <path d="M79.763 136.2047 L93 136.2047 L93 137.0551 L79.763 137.0551 Z"
                  stroke="none"/>
            <text x="62.8357" xml:space="preserve" y="131.0315" stroke="none">NT1.9</text><line stroke-linecap="butt"
                  fill="none" x1="92.4994" x2="92.4994" y1="117.4961"
                  stroke-linejoin="bevel" y2="155.7638" stroke-width="0.8504"/>
            <path d="M92.9246 117.4961 L100 117.4961 L100 118.3464 L92.9246 118.3464 Z"
                  stroke="none"/>
            <text x="64.0721" xml:space="preserve" y="112.3228" stroke="none">NT1.12</text><line stroke-linecap="butt"
                  fill="none" x1="99.5769" x2="99.5769" y1="108.1417"
                  stroke-linejoin="bevel" y2="127.7008" stroke-width="0.8504"/>
            <path d="M100.0021 108.1417 L105.9808 108.1417 L105.9808 108.9921 L100.0021 108.9921 Z"
                  stroke="none"/>
            <text x="108.8154" xml:space="preserve" font-size="14" y="113.063"
                  stroke="none"></text>
            <path d="M100.0021 126.8504 L110.5749 126.8504 L110.5749 127.7008 L100.0021 127.7008 Z"
                  stroke="none"/>
            <text x="113.4096" xml:space="preserve" font-size="14" y="131.7717"
                  stroke="none">AF440436</text><path d="M92.9246 154.9134 L102 154.9134 L102 155.7638 L92.9246 155.7638 Z"
                  stroke="none"/>
            <text x="66.1168" xml:space="preserve" y="149.7401" stroke="none">NT1.13</text><line stroke-linecap="butt"
                  fill="none" x1="101.6877" x2="101.6877" y1="145.559"
                  stroke-linejoin="bevel" y2="165.1181" stroke-width="0.8504"/>
            <path d="M102.1129 145.5591 L103.0008 145.5591 L103.0008 146.4095 L102.1129 146.4095 Z"
                  stroke="none"/>
            <text x="105.8354" xml:space="preserve" font-size="14" y="150.4803"
                  stroke="none">AY514999</text><path d="M102.1129 164.2677 L104.1183 164.2677 L104.1183 165.1181 L102.1129 165.1181 Z"
                  stroke="none"/>
            <text x="106.9529" xml:space="preserve" font-size="14" y="169.189"
                  stroke="none"></text>
            <path d="M79.1422 197.0079 L99 197.0079 L99 197.8583 L79.1422 197.8583 Z"
                  stroke="none"/>
            <text x="65.0343" xml:space="preserve" y="191.8346" stroke="none">NT1.11</text><line stroke-linecap="butt"
                  fill="none" x1="99.2043" x2="99.2043" y1="182.9764"
                  stroke-linejoin="bevel" y2="211.8898" stroke-width="0.8504"/>
            <path d="M99.6295 182.9764 L104.7391 182.9764 L104.7391 183.8268 L99.6295 183.8268 Z"
                  stroke="none"/>
            <text x="107.5737" xml:space="preserve" font-size="14" y="187.8976"
                  stroke="none"></text>
            <path d="M99.6295 211.0394 L106 211.0394 L106 211.8898 L99.6295 211.8898 Z"
                  stroke="none"/>
            <text x="70.4494" xml:space="preserve" y="205.8661" stroke="none">NT1.18</text><line stroke-linecap="butt"
                  fill="none" x1="106.0334" x2="106.0334" y1="201.685"
                  stroke-linejoin="bevel" y2="221.2441" stroke-width="0.8504"/>
            <path d="M106.4586 201.685 L105.8566 201.685 L105.8566 202.5354 L106.4586 202.5354 Z"
                  stroke="none"/>
            <text x="108.6912" xml:space="preserve" font-size="14" y="206.6063"
                  stroke="none"></text>
            <path d="M106.4586 220.3937 L107.0982 220.3937 L107.0982 221.2441 L106.4586 221.2441 Z"
                  stroke="none"/>
            <text x="109.9329" xml:space="preserve" font-size="14" y="225.315"
                  stroke="none"></text>
        </g>
    </g>
</svg>
