<?xml version="1.0"?>
<!DOCTYPE svg PUBLIC '-//W3C//DTD SVG 1.0//EN'
    'http://www.w3.org/TR/2001/REC-SVG-20010904/DTD/svg10.dtd' >

<svg fill-opacity="1" xmlns:xlink="http://www.w3.org/1999/xlink"
     color-rendering="auto" color-interpolation="auto" stroke="black"
     text-rendering="auto" stroke-linecap="square" stroke-miterlimit="10"
     stroke-opacity="1" shape-rendering="auto" fill="black"
     stroke-dasharray="none" font-weight="normal" stroke-width="1"
     xmlns="http://www.w3.org/2000/svg" font-family="&apos;Dialog&apos;"
     font-style="normal" stroke-linejoin="miter" font-size="12"
     stroke-dashoffset="0" image-rendering="auto">
    <!--Generated by the Batik Graphics2D SVG Generator-->
    <defs id="genericDefs"/>
    <g>
        <g fill="white" stroke="white">
            <rect x="0" width="171" height="186" y="0" stroke="none"/>
            <path fill="black"
                  d="M5 36.6555 L44 36.6555 L44 37.5059 L5 37.5059 Z"
                  stroke="none"/>
        </g>
        <g font-family="&apos;Arial&apos;" font-size="9">
            <text x="8.5039" xml:space="preserve" y="31.4823" stroke="none">NT1.15</text><line stroke-linecap="butt"
                  fill="none" x1="44.1276" x2="44.1276" y1="14.5984"
                  stroke-linejoin="bevel" y2="58.7126" stroke-width="0.8504"/>
            <path d="M44.5528 14.5984 L89.5243 14.5984 L89.5243 15.4488 L44.5528 15.4488 Z"
                  stroke="none"/>
            <text x="92.359" xml:space="preserve" font-size="14" y="19.5197"
                  stroke="none">X80725</text><path d="M44.5528 57.8622 L57 57.8622 L57 58.7126 L44.5528 58.7126 Z"
                  stroke="none"/>
            <text x="28.1907" xml:space="preserve" y="52.689" stroke="none">NT1.1</text><line stroke-linecap="butt"
                  fill="none" x1="56.4403" x2="56.4403" y1="33.3071"
                  stroke-linejoin="bevel" y2="83.2677" stroke-width="0.8504"/>
            <path d="M56.8655 33.3071 L81.5756 33.3071 L81.5756 34.1575 L56.8655 34.1575 Z"
                  stroke="none"/>
            <text x="84.4103" xml:space="preserve" font-size="14" y="38.2283"
                  stroke="none">D14555</text><path d="M56.8655 82.4173 L65 82.4173 L65 83.2677 L56.8655 83.2677 Z"
                  stroke="none"/>
            <text x="34.9605" xml:space="preserve" y="77.2441" stroke="none">NT1.2</text><line stroke-linecap="butt"
                  fill="none" x1="64.5449" x2="64.5449" y1="52.0157"
                  stroke-linejoin="bevel" y2="113.6693" stroke-width="0.8504"/>
            <path d="M64.9701 52.0158 L83.2901 52.0158 L83.2901 52.8661 L64.9701 52.8661 Z"
                  stroke="none"/>
            <text x="86.1247" xml:space="preserve" font-size="14" y="56.937"
                  stroke="none">AJ306890</text><path d="M64.9701 112.8189 L69 112.8189 L69 113.6693 L64.9701 113.6693 Z"
                  stroke="none"/>
            <text x="39.3363" xml:space="preserve" y="107.6457" stroke="none">NT1.3</text><line stroke-linecap="butt"
                  fill="none" x1="68.9868" x2="68.9868" y1="70.7244"
                  stroke-linejoin="bevel" y2="155.7638" stroke-width="0.8504"/>
            <path d="M69.412 70.7244 L70.6657 70.7244 L70.6657 71.5748 L69.412 71.5748 Z"
                  stroke="none"/>
            <text x="73.5003" xml:space="preserve" font-size="14" y="75.6457"
                  stroke="none"></text>
            <path d="M69 89.4331 L69.5747 89.4331 L69.5747 90.2835 L69 90.2835 Z"
                  stroke="none"/>
            <text x="72.4093" xml:space="preserve" font-size="14" y="94.3543"
                  stroke="none"></text>
            <path d="M69 117.4961 L73 117.4961 L73 118.3464 L69 118.3464 Z"
                  stroke="none"/>
            <text x="43.5445" xml:space="preserve" y="112.3228" stroke="none">NT1.6</text><line stroke-linecap="butt"
                  fill="none" x1="73.1949" x2="73.1949" y1="108.1417"
                  stroke-linejoin="bevel" y2="127.7008" stroke-width="0.8504"/>
            <path d="M73.6201 108.1417 L74.8738 108.1417 L74.8738 108.9921 L73.6201 108.9921 Z"
                  stroke="none"/>
            <text x="77.7084" xml:space="preserve" font-size="14" y="113.063"
                  stroke="none"></text>
            <path d="M73.6201 126.8504 L83.4459 126.8504 L83.4459 127.7008 L73.6201 127.7008 Z"
                  stroke="none"/>
            <text x="86.2806" xml:space="preserve" font-size="14" y="131.7716"
                  stroke="none">AY489405</text><path d="M69.412 154.9134 L83 154.9134 L83 155.7638 L69.412 155.7638 Z"
                  stroke="none"/>
            <text x="53.0385" xml:space="preserve" y="149.7401" stroke="none">NT1.9</text><line stroke-linecap="butt"
                  fill="none" x1="82.7022" x2="82.7022" y1="145.559"
                  stroke-linejoin="bevel" y2="165.1181" stroke-width="0.8504"/>
            <path d="M83.1274 145.5591 L85.6279 145.5591 L85.6279 146.4095 L83.1274 146.4095 Z"
                  stroke="none"/>
            <text x="88.4626" xml:space="preserve" font-size="14" y="150.4803"
                  stroke="none"></text>
            <path d="M83.1274 164.2677 L88.4333 164.2677 L88.4333 165.1181 L83.1274 165.1181 Z"
                  stroke="none"/>
            <text x="91.268" xml:space="preserve" font-size="14" y="169.189"
                  stroke="none">X87219</text>
        </g>
    </g>
</svg>
