<?xml version="1.0"?>
<!DOCTYPE svg PUBLIC '-//W3C//DTD SVG 1.0//EN'
    'http://www.w3.org/TR/2001/REC-SVG-20010904/DTD/svg10.dtd' >

<svg fill-opacity="1" xmlns:xlink="http://www.w3.org/1999/xlink"
     color-rendering="auto" color-interpolation="auto" stroke="black"
     text-rendering="auto" stroke-linecap="square" stroke-miterlimit="10"
     stroke-opacity="1" shape-rendering="auto" fill="black"
     stroke-dasharray="none" font-weight="normal" stroke-width="1"
     xmlns="http://www.w3.org/2000/svg" font-family="&apos;Dialog&apos;"
     font-style="normal" stroke-linejoin="miter" font-size="12"
     stroke-dashoffset="0" image-rendering="auto">
    <!--Generated by the Batik Graphics2D SVG Generator-->
    <defs id="genericDefs"/>
    <g>
        <g fill="white" stroke="white">
            <rect x="0" width="166" height="299" y="0" stroke="none"/>
            <path fill="black"
                  d="M5 158.687 L18 158.687 L18 159.5374 L5 159.5374 Z"
                  stroke="none"/>
            <circle fill="black" r="1.2756" cx="17.4331" cy="158.687"
                    stroke="none"/>
            <path fill="black"
                  d="M17.8583 157.8366 L19 157.8366 L19 158.687 L17.8583 158.687 Z"
                  stroke="none"/>
        </g>
        <g font-family="&apos;Arial&apos;" font-size="9">
            <text x="-10.504" xml:space="preserve" y="152.6634" stroke="none">NT1.2</text><line stroke-linecap="butt"
                  fill="none" x1="19.0804" x2="19.0804" y1="94.1102"
                  stroke-linejoin="bevel" y2="222.4134" stroke-width="0.8504"/>
            <path d="M19.5056 94.1102 L21 94.1102 L21 94.9606 L19.5056 94.9606 Z"
                  stroke="none"/>
            <text x="-9.0725" xml:space="preserve" y="88.937" stroke="none">NT1.3</text><line stroke-linecap="butt"
                  fill="none" x1="20.5779" x2="20.5779" y1="14.5984"
                  stroke-linejoin="bevel" y2="174.4725" stroke-width="0.8504"/>
            <path d="M21.0031 14.5984 L46.8091 14.5984 L46.8091 15.4488 L21.0031 15.4488 Z"
                  stroke="none"/>
            <text x="49.6437" xml:space="preserve" font-size="14" y="19.5197"
                  stroke="none">236926.0</text><path d="M21 124.8042 L29 124.8042 L29 125.6545 L21 125.6545 Z"
                  stroke="none"/>
            <text x="-0.836" xml:space="preserve" y="119.6309" stroke="none">NT1.6</text><line stroke-linecap="butt"
                  fill="none" x1="28.8144" x2="28.8144" y1="104.0492"
                  stroke-linejoin="bevel" y2="146.4095" stroke-width="0.8504"/>
            <path d="M29.2396 104.0492 L37 104.0492 L37 104.8996 L29.2396 104.8996 Z"
                  stroke="none"/>
            <text x="1.5462" xml:space="preserve" y="98.876" stroke="none">NT1.12</text><line stroke-linecap="butt"
                  fill="none" x1="37.0509" x2="37.0509" y1="81.248"
                  stroke-linejoin="bevel" y2="127.7008" stroke-width="0.8504"/>
            <path d="M37.4761 81.248 L47 81.248 L47 82.0984 L37.4761 82.0984 Z"
                  stroke="none"/>
            <text x="11.1613" xml:space="preserve" y="76.0748" stroke="none">NT1.15</text><line stroke-linecap="butt"
                  fill="none" x1="46.785" x2="46.785" y1="54.3543"
                  stroke-linejoin="bevel" y2="108.9921" stroke-width="0.8504"/>
            <path d="M47.2102 54.3543 L49 54.3543 L49 55.2047 L47.2102 55.2047 Z"
                  stroke="none"/>
            <text x="12.8614" xml:space="preserve" y="49.1811" stroke="none">NT1.17</text><line stroke-linecap="butt"
                  fill="none" x1="48.4323" x2="48.4323" y1="33.3071"
                  stroke-linejoin="bevel" y2="76.252" stroke-width="0.8504"/>
            <path d="M48.8575 33.3071 L81.4025 33.3071 L81.4025 34.1575 L48.8575 34.1575 Z"
                  stroke="none"/>
            <text x="84.2371" xml:space="preserve" font-size="14" y="38.2284"
                  stroke="none">AF219974</text><path d="M48.8575 75.4016 L50 75.4016 L50 76.252 L48.8575 76.252 Z"
                  stroke="none"/>
            <text x="14.4955" xml:space="preserve" y="70.2284" stroke="none">NT1.18</text><line stroke-linecap="butt"
                  fill="none" x1="50.0796" x2="50.0796" y1="61.3701"
                  stroke-linejoin="bevel" y2="90.2835" stroke-width="0.8504"/>
            <path d="M50.5048 61.3701 L58 61.3701 L58 62.2205 L50.5048 62.2205 Z"
                  stroke="none"/>
            <text x="22.1727" xml:space="preserve" y="56.1969" stroke="none">NT1.24</text><line stroke-linecap="butt"
                  fill="none" x1="57.7171" x2="57.7171" y1="52.0158"
                  stroke-linejoin="bevel" y2="71.5748" stroke-width="0.8504"/>
            <path d="M58.1423 52.0158 L59.3885 52.0158 L59.3885 52.8662 L58.1423 52.8662 Z"
                  stroke="none"/>
            <text x="62.2231" xml:space="preserve" font-size="14" y="56.937"
                  stroke="none"></text>
            <path d="M58.1423 70.7244 L61.0358 70.7244 L61.0358 71.5748 L58.1423 71.5748 Z"
                  stroke="none"/>
            <text x="63.8704" xml:space="preserve" font-size="14" y="75.6457"
                  stroke="none"></text>
            <path d="M50.5048 89.4331 L58.6397 89.4331 L58.6397 90.2835 L50.5048 90.2835 Z"
                  stroke="none"/>
            <text x="61.4744" xml:space="preserve" font-size="14" y="94.3543"
                  stroke="none"></text>
            <path d="M47.2102 108.1417 L54.147 108.1417 L54.147 108.9921 L47.2102 108.9921 Z"
                  stroke="none"/>
            <text x="56.9817" xml:space="preserve" font-size="14" y="113.063"
                  stroke="none"></text>
            <path d="M37.4761 126.8504 L62.3836 126.8504 L62.3836 127.7008 L37.4761 127.7008 Z"
                  stroke="none"/>
            <text x="65.2182" xml:space="preserve" font-size="14" y="131.7717"
                  stroke="none">AM422449</text><path d="M29.2396 145.5591 L57.1421 145.5591 L57.1421 146.4095 L29.2396 146.4095 Z"
                  stroke="none"/>
            <text x="59.9768" xml:space="preserve" font-size="14" y="150.4803"
                  stroke="none">282122.0</text><path d="M21.0031 173.6221 L31 173.6221 L31 174.4725 L21.0031 174.4725 Z"
                  stroke="none"/>
            <text x="1.0976" xml:space="preserve" y="168.4489" stroke="none">NT1.8</text><line stroke-linecap="butt"
                  fill="none" x1="30.7612" x2="30.7612" y1="164.2677"
                  stroke-linejoin="bevel" y2="183.8268" stroke-width="0.8504"/>
            <path d="M31.1864 164.2677 L54.1471 164.2677 L54.1471 165.1181 L31.1864 165.1181 Z"
                  stroke="none"/>
            <text x="56.9817" xml:space="preserve" font-size="14" y="169.189"
                  stroke="none"></text>
            <path d="M31.1864 182.9764 L50.1037 182.9764 L50.1037 183.8268 L31.1864 183.8268 Z"
                  stroke="none"/>
            <text x="52.9383" xml:space="preserve" font-size="14" y="187.8976"
                  stroke="none">236935.0</text><path d="M19.5056 221.563 L21 221.563 L21 222.4134 L19.5056 222.4134 Z"
                  stroke="none"/>
            <text x="-8.4471" xml:space="preserve" y="216.3898" stroke="none">NT1.4</text><line stroke-linecap="butt"
                  fill="none" x1="21.1769" x2="21.1769" y1="201.685"
                  stroke-linejoin="bevel" y2="242.2914" stroke-width="0.8504"/>
            <path d="M21.6021 201.685 L34.9785 201.685 L34.9785 202.5354 L21.6021 202.5354 Z"
                  stroke="none"/>
            <text x="37.8131" xml:space="preserve" font-size="14" y="206.6063"
                  stroke="none">AF430027</text><path d="M21.6021 241.441 L24 241.441 L24 242.2914 L21.6021 242.2914 Z"
                  stroke="none"/>
            <text x="-5.5313" xml:space="preserve" y="236.2677" stroke="none">NT1.5</text><line stroke-linecap="butt"
                  fill="none" x1="24.172" x2="24.172" y1="220.3937"
                  stroke-linejoin="bevel" y2="263.3386" stroke-width="0.8504"/>
            <path d="M24.5972 220.3937 L33.0317 220.3937 L33.0317 221.2441 L24.5972 221.2441 Z"
                  stroke="none"/>
            <text x="35.8663" xml:space="preserve" font-size="14" y="225.315"
                  stroke="none">AF218292</text><path d="M24.5972 262.4882 L29 262.4882 L29 263.3386 L24.5972 263.3386 Z"
                  stroke="none"/>
            <text x="-0.6863" xml:space="preserve" y="257.315" stroke="none">NT1.7</text><line stroke-linecap="butt"
                  fill="none" x1="28.9642" x2="28.9642" y1="248.4567"
                  stroke-linejoin="bevel" y2="277.3701" stroke-width="0.8504"/>
            <path d="M29.3894 248.4567 L36 248.4567 L36 249.3071 L29.3894 249.3071 Z"
                  stroke="none"/>
            <text x="1.8327" xml:space="preserve" y="243.2835" stroke="none">NT1.11</text><line stroke-linecap="butt"
                  fill="none" x1="36.0027" x2="36.0027" y1="239.1024"
                  stroke-linejoin="bevel" y2="258.6615" stroke-width="0.8504"/>
            <path d="M36.4279 239.1024 L45.9106 239.1024 L45.9106 239.9528 L36.4279 239.9528 Z"
                  stroke="none"/>
            <text x="48.7452" xml:space="preserve" font-size="14" y="244.0237"
                  stroke="none"></text>
            <path d="M36.4279 257.8111 L53.6978 257.8111 L53.6978 258.6615 L36.4279 258.6615 Z"
                  stroke="none"/>
            <text x="56.5325" xml:space="preserve" font-size="14" y="262.7323"
                  stroke="none"></text>
            <path d="M29.3894 276.5197 L45.9106 276.5197 L45.9106 277.3701 L29.3894 277.3701 Z"
                  stroke="none"/>
            <text x="48.7452" xml:space="preserve" font-size="14" y="281.441"
                  stroke="none">AB126874</text>
        </g>
    </g>
</svg>
