<?xml version="1.0"?>
<!DOCTYPE svg PUBLIC '-//W3C//DTD SVG 1.0//EN'
    'http://www.w3.org/TR/2001/REC-SVG-20010904/DTD/svg10.dtd' >

<svg fill-opacity="1" xmlns:xlink="http://www.w3.org/1999/xlink"
     color-rendering="auto" color-interpolation="auto" stroke="black"
     text-rendering="auto" stroke-linecap="square" stroke-miterlimit="10"
     stroke-opacity="1" shape-rendering="auto" fill="black"
     stroke-dasharray="none" font-weight="normal" stroke-width="1"
     xmlns="http://www.w3.org/2000/svg" font-family="&apos;Dialog&apos;"
     font-style="normal" stroke-linejoin="miter" font-size="12"
     stroke-dashoffset="0" image-rendering="auto">
    <!--Generated by the Batik Graphics2D SVG Generator-->
    <defs id="genericDefs"/>
    <g>
        <g fill="white" stroke="white">
            <rect x="0" width="184" height="373" y="0" stroke="none"/>
            <path fill="black"
                  d="M5 102.7342 L44 102.7342 L44 103.5846 L5 103.5846 Z"
                  stroke="none"/>
        </g>
        <g font-family="&apos;Arial&apos;" font-size="9">
            <text x="8.5039" xml:space="preserve" y="97.561" stroke="none">NT1.33</text><line stroke-linecap="butt"
                  fill="none" x1="44.0748" x2="44.0748" y1="14.5984"
                  stroke-linejoin="bevel" y2="190.8699" stroke-width="0.8504"/>
            <path d="M44.5 14.5984 L101.8774 14.5984 L101.8774 15.4488 L44.5 15.4488 Z"
                  stroke="none"/>
            <text x="104.7121" xml:space="preserve" font-size="14" y="19.5197"
                  stroke="none">Y17512</text><path d="M44.5 190.0195 L50 190.0195 L50 190.8699 L44.5 190.8699 Z"
                  stroke="none"/>
            <text x="21.6347" xml:space="preserve" y="184.8463" stroke="none">NT1.1</text><line stroke-linecap="butt"
                  fill="none" x1="49.8844" x2="49.8844" y1="66.1021"
                  stroke-linejoin="bevel" y2="314.7874" stroke-width="0.8504"/>
            <path d="M50.3096 66.1021 L58 66.1021 L58 66.9524 L50.3096 66.9524 Z"
                  stroke="none"/>
            <text x="28.1561" xml:space="preserve" y="60.9288" stroke="none">NT1.3</text><line stroke-linecap="butt"
                  fill="none" x1="57.8066" x2="57.8066" y1="33.3071"
                  stroke-linejoin="bevel" y2="99.7474" stroke-width="0.8504"/>
            <path d="M58.2317 33.3071 L57.9095 33.3071 L57.9095 34.1575 L58.2317 34.1575 Z"
                  stroke="none"/>
            <text x="60.7442" xml:space="preserve" font-size="14" y="38.2283"
                  stroke="none"></text>
            <path d="M58 52.0158 L93.1631 52.0158 L93.1631 52.8661 L58 52.8661 Z"
                  stroke="none"/>
            <text x="95.9978" xml:space="preserve" font-size="14" y="56.937"
                  stroke="none">AJ440997</text><path d="M58.2317 98.897 L63 98.897 L63 99.7474 L58.2317 99.7474 Z"
                  stroke="none"/>
            <text x="33.5696" xml:space="preserve" y="93.7238" stroke="none">NT1.7</text><line stroke-linecap="butt"
                  fill="none" x1="63.22" x2="63.22" y1="70.7244"
                  stroke-linejoin="bevel" y2="127.92" stroke-width="0.8504"/>
            <path d="M63.6452 70.7244 L63.1909 70.7244 L63.1909 71.5748 L63.6452 71.5748 Z"
                  stroke="none"/>
            <text x="66.0256" xml:space="preserve" font-size="14" y="75.6457"
                  stroke="none"></text>
            <path d="M63 89.4331 L101.8775 89.4331 L101.8775 90.2835 L63 90.2835 Z"
                  stroke="none"/>
            <text x="104.7121" xml:space="preserve" font-size="14" y="94.3543"
                  stroke="none">U73725</text><path d="M63.6452 127.0696 L71 127.0696 L71 127.92 L63.6452 127.92 Z"
                  stroke="none"/>
            <text x="41.3465" xml:space="preserve" y="121.8964" stroke="none">NT1.9</text><line stroke-linecap="butt"
                  fill="none" x1="71.0102" x2="71.0102" y1="108.1417"
                  stroke-linejoin="bevel" y2="146.8479" stroke-width="0.8504"/>
            <path d="M71.4354 108.1417 L100.029 108.1417 L100.029 108.9921 L71.4354 108.9921 Z"
                  stroke="none"/>
            <text x="102.8636" xml:space="preserve" font-size="14" y="113.063"
                  stroke="none">AJ631302</text><path d="M71.4354 145.9975 L71 145.9975 L71 146.8479 L71.4354 146.8479 Z"
                  stroke="none"/>
            <text x="35.7298" xml:space="preserve" y="140.8243" stroke="none">NT1.10</text><line stroke-linecap="butt"
                  fill="none" x1="71.2742" x2="71.2742" y1="126.8504"
                  stroke-linejoin="bevel" y2="165.9951" stroke-width="0.8504"/>
            <path d="M71.6994 126.8504 L71.2452 126.8504 L71.2452 127.7008 L71.6994 127.7008 Z"
                  stroke="none"/>
            <text x="74.0798" xml:space="preserve" font-size="14" y="131.7716"
                  stroke="none"></text>
            <path d="M71.6994 165.1447 L79 165.1447 L79 165.9951 L71.6994 165.9951 Z"
                  stroke="none"/>
            <text x="43.2955" xml:space="preserve" y="159.9715" stroke="none">NT1.12</text><line stroke-linecap="butt"
                  fill="none" x1="78.8003" x2="78.8003" y1="145.559"
                  stroke-linejoin="bevel" y2="185.5807" stroke-width="0.8504"/>
            <path d="M79.2255 145.559 L96.9922 145.559 L96.9922 146.4094 L79.2255 146.4094 Z"
                  stroke="none"/>
            <text x="99.8268" xml:space="preserve" font-size="14" y="150.4803"
                  stroke="none">EF202612</text><path d="M79.2255 184.7303 L79 184.7303 L79 185.5807 L79.2255 185.5807 Z"
                  stroke="none"/>
            <text x="43.4935" xml:space="preserve" y="179.5571" stroke="none">NT1.13</text><line stroke-linecap="butt"
                  fill="none" x1="79.0644" x2="79.0644" y1="164.2677"
                  stroke-linejoin="bevel" y2="206.0433" stroke-width="0.8504"/>
            <path d="M79.4896 164.2677 L79.2994 164.2677 L79.2994 165.1181 L79.4896 165.1181 Z"
                  stroke="none"/>
            <text x="82.134" xml:space="preserve" font-size="14" y="169.1889"
                  stroke="none"></text>
            <path d="M79.4896 205.1929 L81 205.1929 L81 206.0433 L79.4896 206.0433 Z"
                  stroke="none"/>
            <text x="45.1571" xml:space="preserve" y="200.0197" stroke="none">NT1.15</text><line stroke-linecap="butt"
                  fill="none" x1="80.7808" x2="80.7808" y1="182.9763"
                  stroke-linejoin="bevel" y2="228.2598" stroke-width="0.8504"/>
            <path d="M81.206 182.9763 L91.4467 182.9763 L91.4467 183.8268 L81.206 183.8268 Z"
                  stroke="none"/>
            <text x="94.2813" xml:space="preserve" font-size="14" y="187.8976"
                  stroke="none">643999.0</text><path d="M81.206 227.4094 L81 227.4094 L81 228.2598 L81.206 228.2598 Z"
                  stroke="none"/>
            <text x="45.7381" xml:space="preserve" y="222.2362" stroke="none">NT1.16</text><line stroke-linecap="butt"
                  fill="none" x1="81.309" x2="81.309" y1="201.685"
                  stroke-linejoin="bevel" y2="253.9843" stroke-width="0.8504"/>
            <path d="M81.7342 201.685 L81.676 201.685 L81.676 202.5354 L81.7342 202.5354 Z"
                  stroke="none"/>
            <text x="84.5107" xml:space="preserve" font-size="14" y="206.6063"
                  stroke="none"></text>
            <path d="M81 220.3937 L98.9727 220.3937 L98.9727 221.2441 L81 221.2441 Z"
                  stroke="none"/>
            <text x="101.8074" xml:space="preserve" font-size="14" y="225.315"
                  stroke="none">AY906862</text><path d="M81.7342 253.1339 L89 253.1339 L89 253.9843 L81.7342 253.9843 Z"
                  stroke="none"/>
            <text x="55.0611" xml:space="preserve" y="247.9606" stroke="none">NT1.21</text><line stroke-linecap="butt"
                  fill="none" x1="89.2312" x2="89.2312" y1="239.1024"
                  stroke-linejoin="bevel" y2="268.0158" stroke-width="0.8504"/>
            <path d="M89.6564 239.1024 L98.7087 239.1024 L98.7087 239.9528 L89.6564 239.9528 Z"
                  stroke="none"/>
            <text x="101.5433" xml:space="preserve" font-size="14" y="244.0236"
                  stroke="none"></text>
            <path d="M89.6564 267.1654 L90 267.1654 L90 268.0158 L89.6564 268.0158 Z"
                  stroke="none"/>
            <text x="53.9905" xml:space="preserve" y="261.9922" stroke="none">NT1.22</text><line stroke-linecap="butt"
                  fill="none" x1="89.4953" x2="89.4953" y1="257.8111"
                  stroke-linejoin="bevel" y2="277.3701" stroke-width="0.8504"/>
            <path d="M89.9205 257.8111 L89.3341 257.8111 L89.3341 258.6615 L89.9205 258.6615 Z"
                  stroke="none"/>
            <text x="92.1688" xml:space="preserve" font-size="14" y="262.7323"
                  stroke="none"></text>
            <path d="M89.9205 276.5197 L95.1437 276.5197 L95.1437 277.3701 L89.9205 277.3701 Z"
                  stroke="none"/>
            <text x="97.9784" xml:space="preserve" font-size="14" y="281.441"
                  stroke="none">AJ438157</text><path d="M50.3096 313.937 L52 313.937 L52 314.7874 L50.3096 314.7874 Z"
                  stroke="none"/>
            <text x="22.4126" xml:space="preserve" y="308.7638" stroke="none">NT1.2</text><line stroke-linecap="butt"
                  fill="none" x1="51.997" x2="51.997" y1="295.2284"
                  stroke-linejoin="bevel" y2="333.4961" stroke-width="0.8504"/>
            <path d="M52.4222 295.2284 L85.5051 295.2284 L85.5051 296.0788 L52.4222 296.0788 Z"
                  stroke="none"/>
            <text x="88.3397" xml:space="preserve" font-size="14" y="300.1497"
                  stroke="none">AF136849</text><path d="M52.4222 332.6457 L63 332.6457 L63 333.4961 L52.4222 333.4961 Z"
                  stroke="none"/>
            <text x="32.7245" xml:space="preserve" y="327.4725" stroke="none">NT1.5</text><line stroke-linecap="butt"
                  fill="none" x1="62.4279" x2="62.4279" y1="313.9371"
                  stroke-linejoin="bevel" y2="352.2048" stroke-width="0.8504"/>
            <path d="M62.8531 313.9371 L62.5308 313.9371 L62.5308 314.7875 L62.8531 314.7875 Z"
                  stroke="none"/>
            <text x="65.3655" xml:space="preserve" font-size="14" y="318.8583"
                  stroke="none"></text>
            <path d="M62 332.6458 L82.4683 332.6458 L82.4683 333.4962 L62 333.4962 Z"
                  stroke="none"/>
            <text x="85.3029" xml:space="preserve" font-size="14" y="337.567"
                  stroke="none">AJ605747</text><path d="M62.8531 351.3544 L82.6003 351.3544 L82.6003 352.2048 L62.8531 352.2048 Z"
                  stroke="none"/>
            <text x="85.4349" xml:space="preserve" font-size="14" y="356.2757"
                  stroke="none"></text>
        </g>
    </g>
</svg>
