<?xml version="1.0"?>
<!DOCTYPE svg PUBLIC '-//W3C//DTD SVG 1.0//EN'
    'http://www.w3.org/TR/2001/REC-SVG-20010904/DTD/svg10.dtd' >

<svg fill-opacity="1" xmlns:xlink="http://www.w3.org/1999/xlink"
     color-rendering="auto" color-interpolation="auto" stroke="black"
     text-rendering="auto" stroke-linecap="square" stroke-miterlimit="10"
     stroke-opacity="1" shape-rendering="auto" fill="black"
     stroke-dasharray="none" font-weight="normal" stroke-width="1"
     xmlns="http://www.w3.org/2000/svg" font-family="&apos;Dialog&apos;"
     font-style="normal" stroke-linejoin="miter" font-size="12"
     stroke-dashoffset="0" image-rendering="auto">
    <!--Generated by the Batik Graphics2D SVG Generator-->
    <defs id="genericDefs"/>
    <g>
        <g fill="white" stroke="white">
            <rect x="0" width="199" height="242" y="0" stroke="none"/>
            <path fill="black" d="M5 74.219 L44 74.219 L44 75.0694 L5 75.0694 Z"
                  stroke="none"/>
        </g>
        <g font-family="&apos;Arial&apos;" font-size="9">
            <text x="8.5039" xml:space="preserve" y="69.0458" stroke="none">NT1.23</text><line stroke-linecap="butt"
                  fill="none" x1="44.0748" x2="44.0748" y1="14.5984"
                  stroke-linejoin="bevel" y2="133.8396" stroke-width="0.8504"/>
            <path d="M44.5 14.5984 L86.5639 14.5984 L86.5639 15.4488 L44.5 15.4488 Z"
                  stroke="none"/>
            <text x="89.3985" xml:space="preserve" font-size="14" y="19.5197"
                  stroke="none">//</text><path d="M44.5 132.9892 L49 132.9892 L49 133.8396 L44.5 133.8396 Z"
                  stroke="none"/>
            <text x="20.8292" xml:space="preserve" y="127.816" stroke="none">NT1.1</text><line stroke-linecap="butt"
                  fill="none" x1="49.0789" x2="49.0789" y1="54.939"
                  stroke-linejoin="bevel" y2="211.8898" stroke-width="0.8504"/>
            <path d="M49.5041 54.939 L61 54.939 L61 55.7894 L49.5041 55.7894 Z"
                  stroke="none"/>
            <text x="31.7774" xml:space="preserve" y="49.7658" stroke="none">NT1.2</text><line stroke-linecap="butt"
                  fill="none" x1="61.3618" x2="61.3618" y1="33.3071"
                  stroke-linejoin="bevel" y2="77.4213" stroke-width="0.8504"/>
            <path d="M61.787 33.3071 L116.892 33.3071 L116.892 34.1575 L61.787 34.1575 Z"
                  stroke="none"/>
            <text x="119.7266" xml:space="preserve" font-size="14" y="38.2283"
                  stroke="none">AF473836</text><path d="M61.787 76.5709 L78 76.5709 L78 77.4213 L61.787 77.4213 Z"
                  stroke="none"/>
            <text x="48.3918" xml:space="preserve" y="71.3976" stroke="none">NT1.3</text><line stroke-linecap="butt"
                  fill="none" x1="78.0423" x2="78.0423" y1="52.0157"
                  stroke-linejoin="bevel" y2="101.9764" stroke-width="0.8504"/>
            <path d="M78.4675 52.0158 L85.9573 52.0158 L85.9573 52.8661 L78.4675 52.8661 Z"
                  stroke="none"/>
            <text x="88.7919" xml:space="preserve" font-size="14" y="56.937"
                  stroke="none">AY995768</text><path d="M78.4675 101.126 L83 101.126 L83 101.9764 L78.4675 101.9764 Z"
                  stroke="none"/>
            <text x="53.574" xml:space="preserve" y="95.9528" stroke="none">NT1.4</text><line stroke-linecap="butt"
                  fill="none" x1="83.198" x2="83.198" y1="70.7244"
                  stroke-linejoin="bevel" y2="132.378" stroke-width="0.8504"/>
            <path d="M83.6232 70.7244 L93.8426 70.7244 L93.8426 71.5748 L83.6232 71.5748 Z"
                  stroke="none"/>
            <text x="96.6773" xml:space="preserve" font-size="14" y="75.6457"
                  stroke="none"></text>
            <path d="M83.6232 131.5276 L87 131.5276 L87 132.378 L83.6232 132.378 Z"
                  stroke="none"/>
            <text x="56.8837" xml:space="preserve" y="126.3543" stroke="none">NT1.7</text><line stroke-linecap="butt"
                  fill="none" x1="86.5341" x2="86.5341" y1="103.4646"
                  stroke-linejoin="bevel" y2="160.4409" stroke-width="0.8504"/>
            <path d="M86.9594 103.4646 L89 103.4646 L89 104.3149 L86.9594 104.3149 Z"
                  stroke="none"/>
            <text x="59.6" xml:space="preserve" y="98.2913" stroke="none">NT1.9</text><line stroke-linecap="butt"
                  fill="none" x1="89.2637" x2="89.2637" y1="89.4331"
                  stroke-linejoin="bevel" y2="118.3465" stroke-width="0.8504"/>
            <path d="M89.6889 89.4331 L93.2361 89.4331 L93.2361 90.2835 L89.6889 90.2835 Z"
                  stroke="none"/>
            <text x="96.0707" xml:space="preserve" font-size="14" y="94.3543"
                  stroke="none">AY995770</text><path d="M89.6889 117.4961 L91 117.4961 L91 118.3464 L89.6889 118.3464 Z"
                  stroke="none"/>
            <text x="57.2166" xml:space="preserve" y="112.3228" stroke="none">NT1.11</text><line stroke-linecap="butt"
                  fill="none" x1="91.3867" x2="91.3867" y1="108.1417"
                  stroke-linejoin="bevel" y2="127.7008" stroke-width="0.8504"/>
            <path d="M91.8119 108.1417 L94.4492 108.1417 L94.4492 108.9921 L91.8119 108.9921 Z"
                  stroke="none"/>
            <text x="97.2839" xml:space="preserve" font-size="14" y="113.063"
                  stroke="none"></text>
            <path d="M91.8119 126.8504 L95.2074 126.8504 L95.2074 127.7008 L91.8119 127.7008 Z"
                  stroke="none"/>
            <text x="98.0421" xml:space="preserve" font-size="14" y="131.7716"
                  stroke="none">AY995767</text><path d="M86.9594 159.5905 L91 159.5905 L91 160.4409 L86.9594 160.4409 Z"
                  stroke="none"/>
            <text x="54.9324" xml:space="preserve" y="154.4173" stroke="none">NT1.10</text><line stroke-linecap="butt"
                  fill="none" x1="90.4768" x2="90.4768" y1="145.559"
                  stroke-linejoin="bevel" y2="174.4724" stroke-width="0.8504"/>
            <path d="M90.902 145.5591 L102.6378 145.5591 L102.6378 146.4095 L90.902 146.4095 Z"
                  stroke="none"/>
            <text x="105.4724" xml:space="preserve" font-size="14" y="150.4803"
                  stroke="none">AY514996</text><path d="M90.902 173.622 L93 173.622 L93 174.4724 L90.902 174.4724 Z"
                  stroke="none"/>
            <text x="56.9434" xml:space="preserve" y="168.4488" stroke="none">NT1.12</text><line stroke-linecap="butt"
                  fill="none" x1="92.4481" x2="92.4481" y1="164.2677"
                  stroke-linejoin="bevel" y2="183.8268" stroke-width="0.8504"/>
            <path d="M92.8733 164.2677 L92.1746 164.2677 L92.1746 165.1181 L92.8733 165.1181 Z"
                  stroke="none"/>
            <text x="95.0092" xml:space="preserve" font-size="14" y="169.189"
                  stroke="none">EF185167</text><path d="M92.8733 182.9764 L92.1746 182.9764 L92.1746 183.8268 L92.8733 183.8268 Z"
                  stroke="none"/>
            <text x="95.0092" xml:space="preserve" font-size="14" y="187.8976"
                  stroke="none"></text>
            <path d="M49.5041 211.0394 L86 211.0394 L86 211.8898 L49.5041 211.8898 Z"
                  stroke="none"/>
            <text x="54.3573" xml:space="preserve" y="205.8661" stroke="none">NT1.5</text><line stroke-linecap="butt"
                  fill="none" x1="86.0792" x2="86.0792" y1="201.685"
                  stroke-linejoin="bevel" y2="221.2441" stroke-width="0.8504"/>
            <path d="M86.5044 201.685 L92.1745 201.685 L92.1745 202.5354 L86.5044 202.5354 Z"
                  stroke="none"/>
            <text x="95.0092" xml:space="preserve" font-size="14" y="206.6063"
                  stroke="none"></text>
            <path d="M86.5044 220.3937 L95.0557 220.3937 L95.0557 221.2441 L86.5044 221.2441 Z"
                  stroke="none"/>
            <text x="97.8904" xml:space="preserve" font-size="14" y="225.315"
                  stroke="none">AF186072</text>
        </g>
    </g>
</svg>
