<?xml version="1.0"?>
<!DOCTYPE svg PUBLIC '-//W3C//DTD SVG 1.0//EN'
    'http://www.w3.org/TR/2001/REC-SVG-20010904/DTD/svg10.dtd' >

<svg fill-opacity="1" xmlns:xlink="http://www.w3.org/1999/xlink"
     color-rendering="auto" color-interpolation="auto" stroke="black"
     text-rendering="auto" stroke-linecap="square" stroke-miterlimit="10"
     stroke-opacity="1" shape-rendering="auto" fill="black"
     stroke-dasharray="none" font-weight="normal" stroke-width="1"
     xmlns="http://www.w3.org/2000/svg" font-family="&apos;Dialog&apos;"
     font-style="normal" stroke-linejoin="miter" font-size="12"
     stroke-dashoffset="0" image-rendering="auto">
    <!--Generated by the Batik Graphics2D SVG Generator-->
    <defs id="genericDefs"/>
    <g>
        <g fill="white" stroke="white">
            <rect x="0" width="307" height="111" y="0" stroke="none"/>
            <path fill="black"
                  d="M5 66.4724 L38 66.4724 L38 67.3228 L5 67.3228 Z"
                  stroke="none"/>
        </g>
        <g font-family="&apos;Arial&apos;" font-size="9">
            <text x="8.5039" xml:space="preserve" y="61.2992" stroke="none">NT1.9</text><line stroke-linecap="butt"
                  fill="none" x1="38.1676" x2="38.1676" y1="42.6614"
                  stroke-linejoin="bevel" y2="90.2835" stroke-width="0.8504"/>
            <path d="M38.5928 42.6614 L44 42.6614 L44 43.5118 L38.5928 43.5118 Z"
                  stroke="none"/>
            <text x="15.7233" xml:space="preserve" y="37.4882" stroke="none">NT1.1</text><line stroke-linecap="butt"
                  fill="none" x1="43.973" x2="43.973" y1="23.9528"
                  stroke-linejoin="bevel" y2="62.2205" stroke-width="0.8504"/>
            <path d="M44.3982 23.9528 L59 23.9528 L59 24.8032 L44.3982 24.8032 Z"
                  stroke="none"/>
            <text x="29.6825" xml:space="preserve" y="18.7795" stroke="none">NT1.3</text><line stroke-linecap="butt"
                  fill="none" x1="59.333" x2="59.333" y1="14.5984"
                  stroke-linejoin="bevel" y2="34.1575" stroke-width="0.8504"/>
            <path d="M59.7582 14.5984 L65.2372 14.5984 L65.2372 15.4488 L59.7582 15.4488 Z"
                  stroke="none"/>
            <text x="68.0719" xml:space="preserve" font-size="14" y="19.5197"
                  stroke="none">M58796</text><path d="M59.7582 33.3071 L66.2048 33.3071 L66.2048 34.1575 L59.7582 34.1575 Z"
                  stroke="none"/>
            <text x="69.0394" xml:space="preserve" font-size="14" y="38.2283"
                  stroke="none">AB249372</text><path d="M44.3982 61.3701 L51 61.3701 L51 62.2205 L44.3982 62.2205 Z"
                  stroke="none"/>
            <text x="21.3228" xml:space="preserve" y="56.1969" stroke="none">NT1.2</text><line stroke-linecap="butt"
                  fill="none" x1="50.9072" x2="50.9072" y1="52.0157"
                  stroke-linejoin="bevel" y2="71.5748" stroke-width="0.8504"/>
            <path d="M51.3323 52.0158 L58.9884 52.0158 L58.9884 52.8661 L51.3323 52.8661 Z"
                  stroke="none"/>
            <text x="61.8231" xml:space="preserve" font-size="14" y="56.937"
                  stroke="none">M58779</text><path d="M51.3323 70.7244 L61.8508 70.7244 L61.8508 71.5748 L51.3323 71.5748 Z"
                  stroke="none"/>
            <text x="64.6854" xml:space="preserve" font-size="14" y="75.6457"
                  stroke="none">SphingobacteriummultivorumIFO</text><path d="M38.5928 89.4331 L66.8498 89.4331 L66.8498 90.2835 L38.5928 90.2835 Z"
                  stroke="none"/>
            <text x="69.6845" xml:space="preserve" font-size="14" y="94.3543"
                  stroke="none">AJ438172</text>
        </g>
    </g>
</svg>
