<?xml version="1.0"?>
<!DOCTYPE svg PUBLIC '-//W3C//DTD SVG 1.0//EN'
    'http://www.w3.org/TR/2001/REC-SVG-20010904/DTD/svg10.dtd' >

<svg fill-opacity="1" xmlns:xlink="http://www.w3.org/1999/xlink"
     color-rendering="auto" color-interpolation="auto" stroke="black"
     text-rendering="auto" stroke-linecap="square" stroke-miterlimit="10"
     stroke-opacity="1" shape-rendering="auto" fill="black"
     stroke-dasharray="none" font-weight="normal" stroke-width="1"
     xmlns="http://www.w3.org/2000/svg" font-family="&apos;Dialog&apos;"
     font-style="normal" stroke-linejoin="miter" font-size="12"
     stroke-dashoffset="0" image-rendering="auto">
    <!--Generated by the Batik Graphics2D SVG Generator-->
    <defs id="genericDefs"/>
    <g>
        <g fill="white" stroke="white">
            <rect x="0" width="222" height="449" y="0" stroke="none"/>
            <path fill="black"
                  d="M5 316.1577 L18 316.1577 L18 317.0081 L5 317.0081 Z"
                  stroke="none"/>
            <circle fill="black" r="1.2756" cx="17.4331" cy="316.1577"
                    stroke="none"/>
            <path fill="black"
                  d="M17.8583 315.3073 L18 315.3073 L18 316.1577 L17.8583 316.1577 Z"
                  stroke="none"/>
        </g>
        <g font-family="&apos;Arial&apos;" font-size="9">
            <text x="-11.7108" xml:space="preserve" y="310.1341" stroke="none">NT1.2</text><line stroke-linecap="butt"
                  fill="none" x1="17.8736" x2="17.8736" y1="204.4256"
                  stroke-linejoin="bevel" y2="427.0394" stroke-width="0.8504"/>
            <path d="M18.2988 204.4256 L83 204.4256 L83 205.276 L18.2988 205.276 Z"
                  stroke="none"/>
            <text x="36.9942" xml:space="preserve" y="199.2523" stroke="none">NT1.4</text><line stroke-linecap="butt"
                  fill="none" x1="82.479" x2="82.479" y1="74.2323"
                  stroke-linejoin="bevel" y2="335.4693" stroke-width="0.8504"/>
            <path d="M82.9042 74.2323 L84 74.2323 L84 75.0827 L82.9042 75.0827 Z"
                  stroke="none"/>
            <text x="53.9503" xml:space="preserve" y="69.0591" stroke="none">NT1.5</text><line stroke-linecap="butt"
                  fill="none" x1="83.6537" x2="83.6537" y1="37.9843"
                  stroke-linejoin="bevel" y2="111.3307" stroke-width="0.8504"/>
            <path d="M84.0789 37.9843 L90 37.9843 L90 38.8347 L84.0789 38.8347 Z"
                  stroke="none"/>
            <text x="60.7442" xml:space="preserve" y="32.811" stroke="none">NT1.8</text><line stroke-linecap="butt"
                  fill="none" x1="90.4079" x2="90.4079" y1="23.9528"
                  stroke-linejoin="bevel" y2="52.8661" stroke-width="0.8504"/>
            <path d="M90.8331 23.9528 L99 23.9528 L99 24.8032 L90.8331 24.8032 Z"
                  stroke="none"/>
            <text x="63.0067" xml:space="preserve" y="18.7795" stroke="none">NT1.15</text><line stroke-linecap="butt"
                  fill="none" x1="98.6304" x2="98.6304" y1="14.5984"
                  stroke-linejoin="bevel" y2="34.1575" stroke-width="0.8504"/>
            <path d="M99.0556 14.5984 L98.2052 14.5984 L98.2052 15.4488 L99.0556 15.4488 Z"
                  stroke="none"/>
            <text x="101.0399" xml:space="preserve" font-size="14" y="19.5197"
                  stroke="none"></text>
            <path d="M99.0556 33.3071 L115.3844 33.3071 L115.3844 34.1575 L99.0556 34.1575 Z"
                  stroke="none"/>
            <text x="118.219" xml:space="preserve" font-size="14" y="38.2283"
                  stroke="none">AJ315075</text><path d="M90.8331 52.0158 L120.9639 52.0158 L120.9639 52.8661 L90.8331 52.8661 Z"
                  stroke="none"/>
            <text x="123.7986" xml:space="preserve" font-size="14" y="56.937"
                  stroke="none">AF541966</text><path d="M84.0789 110.4803 L111 110.4803 L111 111.3307 L84.0789 111.3307 Z"
                  stroke="none"/>
            <text x="75.3801" xml:space="preserve" y="105.3071" stroke="none">NT1.19</text><line stroke-linecap="butt"
                  fill="none" x1="110.9642" x2="110.9642" y1="94.1102"
                  stroke-linejoin="bevel" y2="127.7008" stroke-width="0.8504"/>
            <path d="M111.3894 94.1102 L113 94.1102 L113 94.9606 L111.3894 94.9606 Z"
                  stroke="none"/>
            <text x="77.6222" xml:space="preserve" y="88.937" stroke="none">NT1.20</text><line stroke-linecap="butt"
                  fill="none" x1="113.1666" x2="113.1666" y1="80.0788"
                  stroke-linejoin="bevel" y2="108.9921" stroke-width="0.8504"/>
            <path d="M113.5918 80.0788 L122 80.0788 L122 80.9291 L113.5918 80.9291 Z"
                  stroke="none"/>
            <text x="86.3249" xml:space="preserve" y="74.9055" stroke="none">NT1.32</text><line stroke-linecap="butt"
                  fill="none" x1="121.8296" x2="121.8296" y1="70.7244"
                  stroke-linejoin="bevel" y2="90.2835" stroke-width="0.8504"/>
            <path d="M122.2548 70.7244 L121.4044 70.7244 L121.4044 71.5748 L122.2548 71.5748 Z"
                  stroke="none"/>
            <text x="124.2391" xml:space="preserve" font-size="14" y="75.6457"
                  stroke="none"></text>
            <path d="M122.2548 89.4331 L139.3177 89.4331 L139.3177 90.2835 L122.2548 90.2835 Z"
                  stroke="none"/>
            <text x="142.1524" xml:space="preserve" font-size="14" y="94.3543"
                  stroke="none"></text>
            <path d="M113.5918 108.1417 L134.1787 108.1417 L134.1787 108.9921 L113.5918 108.9921 Z"
                  stroke="none"/>
            <text x="137.0133" xml:space="preserve" font-size="14" y="113.063"
                  stroke="none">X76444</text><path d="M111.3894 126.8504 L133.004 126.8504 L133.004 127.7008 L111.3894 127.7008 Z"
                  stroke="none"/>
            <text x="135.8387" xml:space="preserve" font-size="14" y="131.7717"
                  stroke="none">X76445</text><path d="M82.9042 334.6189 L85 334.6189 L85 335.4693 L82.9042 335.4693 Z"
                  stroke="none"/>
            <text x="55.6183" xml:space="preserve" y="329.4456" stroke="none">NT1.6</text><line stroke-linecap="butt"
                  fill="none" x1="85.2688" x2="85.2688" y1="285.1432"
                  stroke-linejoin="bevel" y2="384.9449" stroke-width="0.8504"/>
            <path d="M85.694 285.1432 L87 285.1432 L87 285.9936 L85.694 285.9936 Z"
                  stroke="none"/>
            <text x="56.793" xml:space="preserve" y="279.97" stroke="none">NT1.7</text><line stroke-linecap="butt"
                  fill="none" x1="86.4434" x2="86.4434" y1="228.2864"
                  stroke-linejoin="bevel" y2="342.8504" stroke-width="0.8504"/>
            <path d="M86.8686 228.2864 L92 228.2864 L92 229.1368 L86.8686 229.1368 Z"
                  stroke="none"/>
            <text x="61.9188" xml:space="preserve" y="223.1132" stroke="none">NT1.9</text><line stroke-linecap="butt"
                  fill="none" x1="91.5825" x2="91.5825" y1="168.9449"
                  stroke-linejoin="bevel" y2="288.4784" stroke-width="0.8504"/>
            <path d="M92.0077 168.9449 L96 168.9449 L96 169.7953 L92.0077 169.7953 Z"
                  stroke="none"/>
            <text x="60.0421" xml:space="preserve" y="163.7717" stroke="none">NT1.12</text><line stroke-linecap="butt"
                  fill="none" x1="95.5469" x2="95.5469" y1="154.9134"
                  stroke-linejoin="bevel" y2="183.8268" stroke-width="0.8504"/>
            <path d="M95.9721 154.9134 L109 154.9134 L109 155.7638 L95.9721 155.7638 Z"
                  stroke="none"/>
            <text x="73.1908" xml:space="preserve" y="149.7401" stroke="none">NT1.17</text><line stroke-linecap="butt"
                  fill="none" x1="108.7617" x2="108.7617" y1="145.559"
                  stroke-linejoin="bevel" y2="165.1181" stroke-width="0.8504"/>
            <path d="M109.1869 145.5591 L119.9361 145.5591 L119.9361 146.4095 L109.1869 146.4095 Z"
                  stroke="none"/>
            <text x="122.7708" xml:space="preserve" font-size="14" y="150.4803"
                  stroke="none">X76436</text><path d="M109.1869 164.2677 L124.4879 164.2677 L124.4879 165.1181 L109.1869 165.1181 Z"
                  stroke="none"/>
            <text x="127.3225" xml:space="preserve" font-size="14" y="169.189"
                  stroke="none">X76449</text><path d="M95.9721 182.9764 L124.4878 182.9764 L124.4878 183.8268 L95.9721 183.8268 Z"
                  stroke="none"/>
            <text x="127.3225" xml:space="preserve" font-size="14" y="187.8976"
                  stroke="none">A8086897</text><path d="M92.0077 287.628 L98 287.628 L98 288.4784 L92.0077 288.4784 Z"
                  stroke="none"/>
            <text x="62.3254" xml:space="preserve" y="282.4547" stroke="none">NT1.13</text><line stroke-linecap="butt"
                  fill="none" x1="97.8962" x2="97.8962" y1="261.3189"
                  stroke-linejoin="bevel" y2="314.7874" stroke-width="0.8504"/>
            <path d="M98.3214 261.3189 L104 261.3189 L104 262.1693 L98.3214 262.1693 Z"
                  stroke="none"/>
            <text x="68.0517" xml:space="preserve" y="256.1457" stroke="none">NT1.16</text><line stroke-linecap="butt"
                  fill="none" x1="103.6226" x2="103.6226" y1="236.7638"
                  stroke-linejoin="bevel" y2="286.7244" stroke-width="0.8504"/>
            <path d="M104.0478 236.7638 L132 236.7638 L132 237.6142 L104.0478 237.6142 Z"
                  stroke="none"/>
            <text x="96.5369" xml:space="preserve" y="231.5906" stroke="none">NT1.36</text><line stroke-linecap="butt"
                  fill="none" x1="132.1077" x2="132.1077" y1="215.7165"
                  stroke-linejoin="bevel" y2="258.6614" stroke-width="0.8504"/>
            <path d="M132.5329 215.7165 L134 215.7165 L134 216.5669 L132.5329 216.5669 Z"
                  stroke="none"/>
            <text x="98.4325" xml:space="preserve" y="210.5433" stroke="none">NT1.39</text><line stroke-linecap="butt"
                  fill="none" x1="134.0165" x2="134.0165" y1="201.685"
                  stroke-linejoin="bevel" y2="230.5984" stroke-width="0.8504"/>
            <path d="M134.4417 201.685 L133.7382 201.685 L133.7382 202.5354 L134.4417 202.5354 Z"
                  stroke="none"/>
            <text x="136.5728" xml:space="preserve" font-size="14" y="206.6063"
                  stroke="none"></text>
            <path d="M134.4417 229.748 L135 229.748 L135 230.5984 L134.4417 230.5984 Z"
                  stroke="none"/>
            <text x="99.1798" xml:space="preserve" y="224.5748" stroke="none">NT1.43</text><line stroke-linecap="butt"
                  fill="none" x1="134.7507" x2="134.7507" y1="220.3937"
                  stroke-linejoin="bevel" y2="239.9528" stroke-width="0.8504"/>
            <path d="M135.1759 220.3937 L134.1787 220.3937 L134.1787 221.2441 L135.1759 221.2441 Z"
                  stroke="none"/>
            <text x="137.0133" xml:space="preserve" font-size="14" y="225.315"
                  stroke="none"></text>
            <path d="M135.1759 239.1024 L135.2065 239.1024 L135.2065 239.9528 L135.1759 239.9528 Z"
                  stroke="none"/>
            <text x="138.0411" xml:space="preserve" font-size="14" y="244.0237"
                  stroke="none">AJ880003</text><path d="M132.5329 257.811 L136.9684 257.811 L136.9684 258.6614 L132.5329 258.6614 Z"
                  stroke="none"/>
            <text x="139.8031" xml:space="preserve" font-size="14" y="262.7323"
                  stroke="none">X76446</text><path d="M104.0478 285.874 L118 285.874 L118 286.7244 L104.0478 286.7244 Z"
                  stroke="none"/>
            <text x="82.1475" xml:space="preserve" y="280.7008" stroke="none">NT1.27</text><line stroke-linecap="butt"
                  fill="none" x1="117.7183" x2="117.7183" y1="276.5197"
                  stroke-linejoin="bevel" y2="296.0788" stroke-width="0.8504"/>
            <path d="M118.1435 276.5197 L117.2931 276.5197 L117.2931 277.3701 L118.1435 277.3701 Z"
                  stroke="none"/>
            <text x="120.1278" xml:space="preserve" font-size="14" y="281.441"
                  stroke="none"></text>
            <path d="M118.1435 295.2284 L131.8293 295.2284 L131.8293 296.0788 L118.1435 296.0788 Z"
                  stroke="none"/>
            <text x="134.664" xml:space="preserve" font-size="14" y="300.1497"
                  stroke="none"></text>
            <path d="M98.3214 313.937 L125.5156 313.937 L125.5156 314.7874 L98.3214 314.7874 Z"
                  stroke="none"/>
            <text x="128.3503" xml:space="preserve" font-size="14" y="318.8583"
                  stroke="none">X76440</text><path d="M86.8686 342 L94 342 L94 342.8504 L86.8686 342.8504 Z"
                  stroke="none"/>
            <text x="59.4681" xml:space="preserve" y="336.8268" stroke="none">NT1.11</text><line stroke-linecap="butt"
                  fill="none" x1="93.6381" x2="93.6381" y1="332.6457"
                  stroke-linejoin="bevel" y2="352.2047" stroke-width="0.8504"/>
            <path d="M94.0633 332.6457 L93.2129 332.6457 L93.2129 333.4961 L94.0633 333.4961 Z"
                  stroke="none"/>
            <text x="96.0475" xml:space="preserve" font-size="14" y="337.5669"
                  stroke="none"></text>
            <path d="M94.0633 351.3543 L108.4833 351.3543 L108.4833 352.2047 L94.0633 352.2047 Z"
                  stroke="none"/>
            <text x="111.3179" xml:space="preserve" font-size="14" y="356.2756"
                  stroke="none">X76439</text><path d="M85.694 384.0945 L114 384.0945 L114 384.9449 L85.694 384.9449 Z"
                  stroke="none"/>
            <text x="78.1023" xml:space="preserve" y="378.9213" stroke="none">NT1.22</text><line stroke-linecap="butt"
                  fill="none" x1="113.6071" x2="113.6071" y1="370.063"
                  stroke-linejoin="bevel" y2="398.9764" stroke-width="0.8504"/>
            <path d="M114.0323 370.063 L113.1819 370.063 L113.1819 370.9134 L114.0323 370.9134 Z"
                  stroke="none"/>
            <text x="116.0166" xml:space="preserve" font-size="14" y="374.9843"
                  stroke="none">AJ302709</text><path d="M114.0323 398.126 L116 398.126 L116 398.9764 L114.0323 398.9764 Z"
                  stroke="none"/>
            <text x="79.9715" xml:space="preserve" y="392.9528" stroke="none">NT1.24</text><line stroke-linecap="butt"
                  fill="none" x1="115.5159" x2="115.5159" y1="388.7717"
                  stroke-linejoin="bevel" y2="408.3307" stroke-width="0.8504"/>
            <path d="M115.9411 388.7717 L115.0907 388.7717 L115.0907 389.6221 L115.9411 389.6221 Z"
                  stroke="none"/>
            <text x="117.9253" xml:space="preserve" font-size="14" y="393.6929"
                  stroke="none"></text>
            <path d="M115.9411 407.4804 L119.3488 407.4804 L119.3488 408.3308 L115.9411 408.3308 Z"
                  stroke="none"/>
            <text x="122.1834" xml:space="preserve" font-size="14" y="412.4016"
                  stroke="none">AB047684</text><path d="M18.2988 426.1891 L51.9535 426.1891 L51.9535 427.0395 L18.2988 427.0395 Z"
                  stroke="none"/>
            <text x="54.7882" xml:space="preserve" font-size="14" y="431.1103"
                  stroke="none">AY688035</text>
        </g>
    </g>
</svg>
