<?xml version="1.0"?>
<!DOCTYPE svg PUBLIC '-//W3C//DTD SVG 1.0//EN'
    'http://www.w3.org/TR/2001/REC-SVG-20010904/DTD/svg10.dtd' >

<svg fill-opacity="1" xmlns:xlink="http://www.w3.org/1999/xlink"
     color-rendering="auto" color-interpolation="auto" stroke="black"
     text-rendering="auto" stroke-linecap="square" stroke-miterlimit="10"
     stroke-opacity="1" shape-rendering="auto" fill="black"
     stroke-dasharray="none" font-weight="normal" stroke-width="1"
     xmlns="http://www.w3.org/2000/svg" font-family="&apos;Dialog&apos;"
     font-style="normal" stroke-linejoin="miter" font-size="12"
     stroke-dashoffset="0" image-rendering="auto">
    <!--Generated by the Batik Graphics2D SVG Generator-->
    <defs id="genericDefs"/>
    <g>
        <g fill="white" stroke="white">
            <rect x="0" width="149" height="168" y="0" stroke="none"/>
            <path fill="black"
                  d="M5 43.5118 L18 43.5118 L18 44.3622 L5 44.3622 Z"
                  stroke="none"/>
            <circle fill="black" r="1.2756" cx="17.4331" cy="43.5118"
                    stroke="none"/>
            <path fill="black"
                  d="M17.8583 42.6614 L21 42.6614 L21 43.5118 L17.8583 43.5118 Z"
                  stroke="none"/>
        </g>
        <g font-family="&apos;Arial&apos;" font-size="9">
            <text x="-8.9566" xml:space="preserve" y="37.4882" stroke="none">NT1.2</text><line stroke-linecap="butt"
                  fill="none" x1="20.6278" x2="20.6278" y1="14.5984"
                  stroke-linejoin="bevel" y2="71.5748" stroke-width="0.8504"/>
            <path d="M21.053 14.5984 L51.9972 14.5984 L51.9972 15.4488 L21.053 15.4488 Z"
                  stroke="none"/>
            <text x="54.8319" xml:space="preserve" font-size="14" y="19.5197"
                  stroke="none">AJ514408</text><path d="M21.053 70.7244 L29 70.7244 L29 71.5748 L21.053 71.5748 Z"
                  stroke="none"/>
            <text x="-0.5036" xml:space="preserve" y="65.5512" stroke="none">NT1.3</text><line stroke-linecap="butt"
                  fill="none" x1="29.1469" x2="29.1469" y1="33.3071"
                  stroke-linejoin="bevel" y2="108.9921" stroke-width="0.8504"/>
            <path d="M29.5721 33.3071 L53.6706 33.3071 L53.6706 34.1575 L29.5721 34.1575 Z"
                  stroke="none"/>
            <text x="56.5053" xml:space="preserve" font-size="14" y="38.2283"
                  stroke="none"></text>
            <path d="M29.5721 108.1417 L31 108.1417 L31 108.9921 L29.5721 108.9921 Z"
                  stroke="none"/>
            <text x="1.6527" xml:space="preserve" y="102.9685" stroke="none">NT1.4</text><line stroke-linecap="butt"
                  fill="none" x1="31.2767" x2="31.2767" y1="80.0788"
                  stroke-linejoin="bevel" y2="137.0551" stroke-width="0.8504"/>
            <path d="M31.7019 80.0788 L32 80.0788 L32 80.9291 L31.7019 80.9291 Z"
                  stroke="none"/>
            <text x="2.334" xml:space="preserve" y="74.9055" stroke="none">NT1.5</text><line stroke-linecap="butt"
                  fill="none" x1="32.0373" x2="32.0373" y1="61.3701"
                  stroke-linejoin="bevel" y2="99.6378" stroke-width="0.8504"/>
            <path d="M32.4625 61.3701 L53 61.3701 L53 62.2205 L32.4625 62.2205 Z"
                  stroke="none"/>
            <text x="17.3741" xml:space="preserve" y="56.1969" stroke="none">NT1.12</text><line stroke-linecap="butt"
                  fill="none" x1="52.8788" x2="52.8788" y1="52.0157"
                  stroke-linejoin="bevel" y2="71.5748" stroke-width="0.8504"/>
            <path d="M53.304 52.0158 L56.8653 52.0158 L56.8653 52.8661 L53.304 52.8661 Z"
                  stroke="none"/>
            <text x="59.7" xml:space="preserve" font-size="14" y="56.937"
                  stroke="none">X68415</text><path d="M53.304 70.7244 L56.1047 70.7244 L56.1047 71.5748 L53.304 71.5748 Z"
                  stroke="none"/>
            <text x="58.9393" xml:space="preserve" font-size="14" y="75.6457"
                  stroke="none">D16277</text><path d="M32.4625 98.7874 L34 98.7874 L34 99.6378 L32.4625 99.6378 Z"
                  stroke="none"/>
            <text x="4.6688" xml:space="preserve" y="93.6142" stroke="none">NT1.6</text><line stroke-linecap="butt"
                  fill="none" x1="34.3192" x2="34.3192" y1="89.4331"
                  stroke-linejoin="bevel" y2="108.9921" stroke-width="0.8504"/>
            <path d="M34.7444 89.4331 L50.0196 89.4331 L50.0196 90.2835 L34.7444 90.2835 Z"
                  stroke="none"/>
            <text x="52.8542" xml:space="preserve" font-size="14" y="94.3543"
                  stroke="none">AF202056</text><path d="M34.7444 108.1417 L66.1451 108.1417 L66.1451 108.9921 L34.7444 108.9921 Z"
                  stroke="none"/>
            <text x="68.9798" xml:space="preserve" font-size="14" y="113.063"
                  stroke="none">X60631</text><path d="M31.7019 136.2047 L50 136.2047 L50 137.0551 L31.7019 137.0551 Z"
                  stroke="none"/>
            <text x="20.1858" xml:space="preserve" y="131.0315" stroke="none">NT1.7</text><line stroke-linecap="butt"
                  fill="none" x1="49.8363" x2="49.8363" y1="126.8504"
                  stroke-linejoin="bevel" y2="146.4095" stroke-width="0.8504"/>
            <path d="M50.2615 126.8504 L49.7153 126.8504 L49.7153 127.7008 L50.2615 127.7008 Z"
                  stroke="none"/>
            <text x="52.55" xml:space="preserve" font-size="14" y="131.7717"
                  stroke="none">ABZ43864</text><path d="M50.2615 145.5591 L49.7153 145.5591 L49.7153 146.4095 L50.2615 146.4095 Z"
                  stroke="none"/>
            <text x="52.55" xml:space="preserve" font-size="14" y="150.4803"
                  stroke="none">ABZ43859</text>
        </g>
    </g>
</svg>
