<?xml version="1.0"?>
<!DOCTYPE svg PUBLIC '-//W3C//DTD SVG 1.0//EN'
    'http://www.w3.org/TR/2001/REC-SVG-20010904/DTD/svg10.dtd' >

<svg fill-opacity="1" xmlns:xlink="http://www.w3.org/1999/xlink"
     color-rendering="auto" color-interpolation="auto" stroke="black"
     text-rendering="auto" stroke-linecap="square" stroke-miterlimit="10"
     stroke-opacity="1" shape-rendering="auto" fill="black"
     stroke-dasharray="none" font-weight="normal" stroke-width="1"
     xmlns="http://www.w3.org/2000/svg" font-family="&apos;Dialog&apos;"
     font-style="normal" stroke-linejoin="miter" font-size="12"
     stroke-dashoffset="0" image-rendering="auto">
    <!--Generated by the Batik Graphics2D SVG Generator-->
    <defs id="genericDefs"/>
    <g>
        <g fill="white" stroke="white">
            <rect x="0" width="171" height="355" y="0" stroke="none"/>
            <path fill="black"
                  d="M5 111.9154 L18 111.9154 L18 112.7657 L5 112.7657 Z"
                  stroke="none"/>
            <circle fill="black" r="1.2756" cx="17.4331" cy="111.9154"
                    stroke="none"/>
            <path fill="black"
                  d="M17.8583 111.065 L18 111.065 L18 111.9153 L17.8583 111.9153 Z"
                  stroke="none"/>
        </g>
        <g font-family="&apos;Arial&apos;" font-size="9">
            <text x="-11.8562" xml:space="preserve" y="105.8917" stroke="none">NT1.2</text><line stroke-linecap="butt"
                  fill="none" x1="17.7282" x2="17.7282" y1="14.5984"
                  stroke-linejoin="bevel" y2="208.3819" stroke-width="0.8504"/>
            <path d="M18.1534 14.5984 L76.7223 14.5984 L76.7223 15.4488 L18.1534 15.4488 Z"
                  stroke="none"/>
            <text x="79.557" xml:space="preserve" font-size="14" y="19.5197"
                  stroke="none">X80725</text><path d="M18.1534 207.5315 L29 207.5315 L29 208.3819 L18.1534 208.3819 Z"
                  stroke="none"/>
            <text x="-0.5106" xml:space="preserve" y="202.3583" stroke="none">NT1.3</text><line stroke-linecap="butt"
                  fill="none" x1="29.1398" x2="29.1398" y1="126.2657"
                  stroke-linejoin="bevel" y2="289.6476" stroke-width="0.8504"/>
            <path d="M29.565 126.2657 L51 126.2657 L51 127.1161 L29.565 127.1161 Z"
                  stroke="none"/>
            <text x="20.9222" xml:space="preserve" y="121.0925" stroke="none">NT1.8</text><line stroke-linecap="butt"
                  fill="none" x1="50.5859" x2="50.5859" y1="92.9409"
                  stroke-linejoin="bevel" y2="160.4409" stroke-width="0.8504"/>
            <path d="M51.0111 92.9409 L67 92.9409 L67 93.7913 L51.0111 93.7913 Z"
                  stroke="none"/>
            <text x="31.4703" xml:space="preserve" y="87.7677" stroke="none">NT1.14</text><line stroke-linecap="butt"
                  fill="none" x1="67.0147" x2="67.0147" y1="68.3858"
                  stroke-linejoin="bevel" y2="118.3465" stroke-width="0.8504"/>
            <path d="M67.4399 68.3858 L70 68.3858 L70 69.2362 L67.4399 69.2362 Z"
                  stroke="none"/>
            <text x="33.9033" xml:space="preserve" y="63.2126" stroke="none">NT1.16</text><line stroke-linecap="butt"
                  fill="none" x1="69.4741" x2="69.4741" y1="47.3386"
                  stroke-linejoin="bevel" y2="90.2835" stroke-width="0.8504"/>
            <path d="M69.8993 47.3386 L71 47.3386 L71 48.189 L69.8993 48.189 Z"
                  stroke="none"/>
            <text x="35.5757" xml:space="preserve" y="42.1654" stroke="none">NT1.17</text><line stroke-linecap="butt"
                  fill="none" x1="71.1466" x2="71.1466" y1="33.3071"
                  stroke-linejoin="bevel" y2="62.2205" stroke-width="0.8504"/>
            <path d="M71.5718 33.3071 L80.1655 33.3071 L80.1655 34.1575 L71.5718 34.1575 Z"
                  stroke="none"/>
            <text x="83.0002" xml:space="preserve" font-size="14" y="38.2283"
                  stroke="none"></text>
            <path d="M71.5718 61.3701 L74 61.3701 L74 62.2205 L71.5718 62.2205 Z"
                  stroke="none"/>
            <text x="39.3376" xml:space="preserve" y="56.1968" stroke="none">NT1.21</text><line stroke-linecap="butt"
                  fill="none" x1="73.5076" x2="73.5076" y1="52.0157"
                  stroke-linejoin="bevel" y2="71.5748" stroke-width="0.8504"/>
            <path d="M73.9328 52.0158 L78.8866 52.0158 L78.8866 52.8661 L73.9328 52.8661 Z"
                  stroke="none"/>
            <text x="81.7213" xml:space="preserve" font-size="14" y="56.937"
                  stroke="none"></text>
            <path d="M73.9328 70.7244 L82.133 70.7244 L82.133 71.5748 L73.9328 71.5748 Z"
                  stroke="none"/>
            <text x="84.9677" xml:space="preserve" font-size="14" y="75.6457"
                  stroke="none">AF078775</text><path d="M69.8993 89.4331 L81.2476 89.4331 L81.2476 90.2835 L69.8993 90.2835 Z"
                  stroke="none"/>
            <text x="84.0823" xml:space="preserve" font-size="14" y="94.3543"
                  stroke="none">DQO62743</text><path d="M67.4399 117.4961 L69 117.4961 L69 118.3464 L67.4399 118.3464 Z"
                  stroke="none"/>
            <text x="33.3586" xml:space="preserve" y="112.3228" stroke="none">NT1.15</text><line stroke-linecap="butt"
                  fill="none" x1="68.9823" x2="68.9823" y1="108.1417"
                  stroke-linejoin="bevel" y2="127.7008" stroke-width="0.8504"/>
            <path d="M69.4075 108.1417 L77.2142 108.1417 L77.2142 108.9921 L69.4075 108.9921 Z"
                  stroke="none"/>
            <text x="80.0489" xml:space="preserve" font-size="14" y="113.063"
                  stroke="none">ABO78055</text><path d="M69.4075 126.8504 L78.985 126.8504 L78.985 127.7008 L69.4075 127.7008 Z"
                  stroke="none"/>
            <text x="81.8196" xml:space="preserve" font-size="14" y="131.7717"
                  stroke="none">D12657</text><path d="M51.0111 159.5906 L73 159.5906 L73 160.441 L51.0111 160.441 Z"
                  stroke="none"/>
            <text x="37.1762" xml:space="preserve" y="154.4173" stroke="none">NT1.20</text><line stroke-linecap="butt"
                  fill="none" x1="72.7206" x2="72.7206" y1="145.5591"
                  stroke-linejoin="bevel" y2="174.4724" stroke-width="0.8504"/>
            <path d="M73.1458 145.5591 L82.6249 145.5591 L82.6249 146.4095 L73.1458 146.4095 Z"
                  stroke="none"/>
            <text x="85.4596" xml:space="preserve" font-size="14" y="150.4803"
                  stroke="none"></text>
            <path d="M73.1458 173.6221 L76 173.6221 L76 174.4725 L73.1458 174.4725 Z"
                  stroke="none"/>
            <text x="40.3242" xml:space="preserve" y="168.4488" stroke="none">NT1.24</text><line stroke-linecap="butt"
                  fill="none" x1="75.8686" x2="75.8686" y1="164.2677"
                  stroke-linejoin="bevel" y2="183.8268" stroke-width="0.8504"/>
            <path d="M76.2938 164.2677 L75.3451 164.2677 L75.3451 165.1181 L76.2938 165.1181 Z"
                  stroke="none"/>
            <text x="78.1797" xml:space="preserve" font-size="14" y="169.189"
                  stroke="none"></text>
            <path d="M76.2938 182.9764 L81.7395 182.9764 L81.7395 183.8268 L76.2938 183.8268 Z"
                  stroke="none"/>
            <text x="84.5742" xml:space="preserve" font-size="14" y="187.8976"
                  stroke="none">AB192292</text><path d="M29.565 288.7972 L37 288.7972 L37 289.6476 L29.565 289.6476 Z"
                  stroke="none"/>
            <text x="6.9924" xml:space="preserve" y="283.624" stroke="none">NT1.4</text><line stroke-linecap="butt"
                  fill="none" x1="36.6165" x2="36.6165" y1="258.9803"
                  stroke-linejoin="bevel" y2="319.4646" stroke-width="0.8504"/>
            <path d="M37.0416 258.9803 L40 258.9803 L40 259.8307 L37.0416 259.8307 Z"
                  stroke="none"/>
            <text x="10.2579" xml:space="preserve" y="253.8071" stroke="none">NT1.5</text><line stroke-linecap="butt"
                  fill="none" x1="39.9613" x2="39.9613" y1="241.4409"
                  stroke-linejoin="bevel" y2="277.3701" stroke-width="0.8504"/>
            <path d="M40.3864 241.4409 L49 241.4409 L49 242.2913 L40.3864 242.2913 Z"
                  stroke="none"/>
            <text x="19.6565" xml:space="preserve" y="236.2677" stroke="none">NT1.7</text><line stroke-linecap="butt"
                  fill="none" x1="49.307" x2="49.307" y1="225.0709"
                  stroke-linejoin="bevel" y2="258.6614" stroke-width="0.8504"/>
            <path d="M49.7322 225.0709 L54 225.0709 L54 225.9213 L49.7322 225.9213 Z"
                  stroke="none"/>
            <text x="24.6605" xml:space="preserve" y="219.8976" stroke="none">NT1.9</text><line stroke-linecap="butt"
                  fill="none" x1="54.3242" x2="54.3242" y1="211.0394"
                  stroke-linejoin="bevel" y2="239.9528" stroke-width="0.8504"/>
            <path d="M54.7494 211.0394 L63 211.0394 L63 211.8898 L54.7494 211.8898 Z"
                  stroke="none"/>
            <text x="27.6733" xml:space="preserve" y="205.8661" stroke="none">NT1.12</text><line stroke-linecap="butt"
                  fill="none" x1="63.1781" x2="63.1781" y1="201.685"
                  stroke-linejoin="bevel" y2="221.2441" stroke-width="0.8504"/>
            <path d="M63.6033 201.685 L55.7682 201.685 L55.7682 202.5354 L63.6033 202.5354 Z"
                  stroke="none"/>
            <text x="58.6028" xml:space="preserve" font-size="14" y="206.6063"
                  stroke="none"></text>
            <path d="M63.6033 220.3937 L72.0003 220.3937 L72.0003 221.2441 L63.6033 221.2441 Z"
                  stroke="none"/>
            <text x="74.8349" xml:space="preserve" font-size="14" y="225.315"
                  stroke="none">AFO39294</text><path d="M54.7494 239.1024 L76.1321 239.1024 L76.1321 239.9528 L54.7494 239.9528 Z"
                  stroke="none"/>
            <text x="78.9667" xml:space="preserve" font-size="14" y="244.0236"
                  stroke="none">AFO39292</text><path d="M49.7322 257.811 L75.837 257.811 L75.837 258.6614 L49.7322 258.6614 Z"
                  stroke="none"/>
            <text x="78.6716" xml:space="preserve" font-size="14" y="262.7323"
                  stroke="none">AF039295</text><path d="M40.3864 276.5197 L62.7529 276.5197 L62.7529 277.3701 L40.3864 277.3701 Z"
                  stroke="none"/>
            <text x="65.5875" xml:space="preserve" font-size="14" y="281.4409"
                  stroke="none"></text>
            <path d="M37.0416 318.6142 L48 318.6142 L48 319.4646 L37.0416 319.4646 Z"
                  stroke="none"/>
            <text x="17.7874" xml:space="preserve" y="313.4409" stroke="none">NT1.6</text><line stroke-linecap="butt"
                  fill="none" x1="47.4379" x2="47.4379" y1="304.5827"
                  stroke-linejoin="bevel" y2="333.4961" stroke-width="0.8504"/>
            <path d="M47.8631 304.5827 L66 304.5827 L66 305.4331 L47.8631 305.4331 Z"
                  stroke="none"/>
            <text x="30.6569" xml:space="preserve" y="299.4095" stroke="none">NT1.13</text><line stroke-linecap="butt"
                  fill="none" x1="66.2277" x2="66.2277" y1="295.2284"
                  stroke-linejoin="bevel" y2="314.7874" stroke-width="0.8504"/>
            <path d="M66.653 295.2284 L74.3613 295.2284 L74.3613 296.0788 L66.653 296.0788 Z"
                  stroke="none"/>
            <text x="77.196" xml:space="preserve" font-size="14" y="300.1496"
                  stroke="none">ABZ78130</text><path d="M66.653 313.937 L76.1321 313.937 L76.1321 314.7874 L66.653 314.7874 Z"
                  stroke="none"/>
            <text x="78.9667" xml:space="preserve" font-size="14" y="318.8583"
                  stroke="none">AB245933</text><path d="M47.8631 332.6457 L71.8035 332.6457 L71.8035 333.4961 L47.8631 333.4961 Z"
                  stroke="none"/>
            <text x="74.6382" xml:space="preserve" font-size="14" y="337.5669"
                  stroke="none">M58795</text>
        </g>
    </g>
</svg>
