<?xml version="1.0"?>
<!DOCTYPE svg PUBLIC '-//W3C//DTD SVG 1.0//EN'
    'http://www.w3.org/TR/2001/REC-SVG-20010904/DTD/svg10.dtd' >

<svg fill-opacity="1" xmlns:xlink="http://www.w3.org/1999/xlink"
     color-rendering="auto" color-interpolation="auto" stroke="black"
     text-rendering="auto" stroke-linecap="square" stroke-miterlimit="10"
     stroke-opacity="1" shape-rendering="auto" fill="black"
     stroke-dasharray="none" font-weight="normal" stroke-width="1"
     xmlns="http://www.w3.org/2000/svg" font-family="&apos;Dialog&apos;"
     font-style="normal" stroke-linejoin="miter" font-size="12"
     stroke-dashoffset="0" image-rendering="auto">
    <!--Generated by the Batik Graphics2D SVG Generator-->
    <defs id="genericDefs"/>
    <g>
        <g fill="white" stroke="white">
            <rect x="0" width="175" height="187" y="0" stroke="none"/>
            <path fill="black"
                  d="M5 67.6284 L18 67.6284 L18 68.4788 L5 68.4788 Z"
                  stroke="none"/>
            <circle fill="black" r="1.2756" cx="17.4331" cy="67.6285"
                    stroke="none"/>
            <path fill="black"
                  d="M17.8583 66.7781 L20 66.7781 L20 67.6284 L17.8583 67.6284 Z"
                  stroke="none"/>
        </g>
        <g font-family="&apos;Arial&apos;" font-size="9">
            <text x="-9.8566" xml:space="preserve" y="61.6048" stroke="none">NT1.2</text><line stroke-linecap="butt"
                  fill="none" x1="19.7278" x2="19.7278" y1="14.5984"
                  stroke-linejoin="bevel" y2="119.8081" stroke-width="0.8504"/>
            <path d="M20.153 14.5984 L42.2497 14.5984 L42.2497 15.4488 L20.153 15.4488 Z"
                  stroke="none"/>
            <text x="45.0843" xml:space="preserve" font-size="14" y="19.5197"
                  stroke="none"></text>
            <path d="M20.153 118.9577 L21 118.9577 L21 119.8081 L20.153 119.8081 Z"
                  stroke="none"/>
            <text x="-8.6478" xml:space="preserve" y="113.7844" stroke="none">NT1.3</text><line stroke-linecap="butt"
                  fill="none" x1="21.0026" x2="21.0026" y1="73.6476"
                  stroke-linejoin="bevel" y2="165.1181" stroke-width="0.8504"/>
            <path d="M21.4278 73.6476 L29 73.6476 L29 74.498 L21.4278 74.498 Z"
                  stroke="none"/>
            <text x="-0.4624" xml:space="preserve" y="68.4744" stroke="none">NT1.4</text><line stroke-linecap="butt"
                  fill="none" x1="29.1616" x2="29.1616" y1="33.3071"
                  stroke-linejoin="bevel" y2="114.8386" stroke-width="0.8504"/>
            <path d="M29.5868 33.3071 L36.1305 33.3071 L36.1305 34.1575 L29.5868 34.1575 Z"
                  stroke="none"/>
            <text x="38.9651" xml:space="preserve" font-size="14" y="38.2283"
                  stroke="none"></text>
            <path d="M29.5868 113.9882 L41 113.9882 L41 114.8386 L29.5868 114.8386 Z"
                  stroke="none"/>
            <text x="11.2397" xml:space="preserve" y="108.815" stroke="none">NT1.7</text><line stroke-linecap="butt"
                  fill="none" x1="40.8901" x2="40.8901" y1="91.7717"
                  stroke-linejoin="bevel" y2="137.0551" stroke-width="0.8504"/>
            <path d="M41.3153 91.7717 L46 91.7717 L46 92.622 L41.3153 92.622 Z"
                  stroke="none"/>
            <text x="16.0708" xml:space="preserve" y="86.5984" stroke="none">NT1.9</text><line stroke-linecap="butt"
                  fill="none" x1="45.7345" x2="45.7345" y1="75.4016"
                  stroke-linejoin="bevel" y2="108.9921" stroke-width="0.8504"/>
            <path d="M46.1597 75.4016 L53 75.4016 L53 76.252 L46.1597 76.252 Z"
                  stroke="none"/>
            <text x="17.3292" xml:space="preserve" y="70.2284" stroke="none">NT1.10</text><line stroke-linecap="butt"
                  fill="none" x1="52.8736" x2="52.8736" y1="61.3701"
                  stroke-linejoin="bevel" y2="90.2835" stroke-width="0.8504"/>
            <path d="M53.2988 61.3701 L66 61.3701 L66 62.2205 L53.2988 62.2205 Z"
                  stroke="none"/>
            <text x="29.9983" xml:space="preserve" y="56.1969" stroke="none">NT1.15</text><line stroke-linecap="butt"
                  fill="none" x1="65.622" x2="65.622" y1="52.0157"
                  stroke-linejoin="bevel" y2="71.5748" stroke-width="0.8504"/>
            <path d="M66.0472 52.0158 L73.1009 52.0158 L73.1009 52.8661 L66.0472 52.8661 Z"
                  stroke="none"/>
            <text x="75.9355" xml:space="preserve" font-size="14" y="56.937"
                  stroke="none">82.0</text><path d="M66.0472 70.7244 L89.9287 70.7244 L89.9287 71.5748 L66.0472 71.5748 Z"
                  stroke="none"/>
            <text x="92.7634" xml:space="preserve" font-size="14" y="75.6457"
                  stroke="none">Mme-3</text><path d="M53.2988 89.4331 L92.2234 89.4331 L92.2234 90.2835 L53.2988 90.2835 Z"
                  stroke="none"/>
            <text x="95.0581" xml:space="preserve" font-size="14" y="94.3543"
                  stroke="none">MmmLC-5</text><path d="M46.1597 108.1417 L53.7233 108.1417 L53.7233 108.9921 L46.1597 108.9921 Z"
                  stroke="none"/>
            <text x="56.5579" xml:space="preserve" font-size="14" y="113.063"
                  stroke="none">73.0</text><path d="M41.3153 136.2047 L61 136.2047 L61 137.0551 L41.3153 137.0551 Z"
                  stroke="none"/>
            <text x="25.7167" xml:space="preserve" y="131.0315" stroke="none">NT1.13</text><line stroke-linecap="butt"
                  fill="none" x1="61.2876" x2="61.2876" y1="126.8504"
                  stroke-linejoin="bevel" y2="146.4095" stroke-width="0.8504"/>
            <path d="M61.7128 126.8504 L60.8624 126.8504 L60.8624 127.7008 L61.7128 127.7008 Z"
                  stroke="none"/>
            <text x="63.697" xml:space="preserve" font-size="14" y="131.7717"
                  stroke="none">Mme—2</text><path d="M61.7128 145.5591 L61.6273 145.5591 L61.6273 146.4095 L61.7128 146.4095 Z"
                  stroke="none"/>
            <text x="64.4619" xml:space="preserve" font-size="14" y="150.4803"
                  stroke="none">Mme—2</text><path d="M21.4278 164.2677 L32.8159 164.2677 L32.8159 165.1181 L21.4278 165.1181 Z"
                  stroke="none"/>
            <text x="35.6505" xml:space="preserve" font-size="14" y="169.189"
                  stroke="none">MmmLC-4</text>
        </g>
    </g>
</svg>
