<?xml version="1.0"?>
<!DOCTYPE svg PUBLIC '-//W3C//DTD SVG 1.0//EN'
    'http://www.w3.org/TR/2001/REC-SVG-20010904/DTD/svg10.dtd' >

<svg fill-opacity="1" xmlns:xlink="http://www.w3.org/1999/xlink"
     color-rendering="auto" color-interpolation="auto" stroke="black"
     text-rendering="auto" stroke-linecap="square" stroke-miterlimit="10"
     stroke-opacity="1" shape-rendering="auto" fill="black"
     stroke-dasharray="none" font-weight="normal" stroke-width="1"
     xmlns="http://www.w3.org/2000/svg" font-family="&apos;Dialog&apos;"
     font-style="normal" stroke-linejoin="miter" font-size="12"
     stroke-dashoffset="0" image-rendering="auto">
    <!--Generated by the Batik Graphics2D SVG Generator-->
    <defs id="genericDefs"/>
    <g>
        <g fill="white" stroke="white">
            <rect x="0" width="230" height="410" y="0" stroke="none"/>
            <path fill="black"
                  d="M5 56.6431 L43 56.6431 L43 57.4935 L5 57.4935 Z"
                  stroke="none"/>
        </g>
        <g font-family="&apos;Arial&apos;" font-size="9">
            <text x="8.5039" xml:space="preserve" y="51.4699" stroke="none">NT1.41</text><line stroke-linecap="butt"
                  fill="none" x1="42.674" x2="42.674" y1="14.5984"
                  stroke-linejoin="bevel" y2="98.6878" stroke-width="0.8504"/>
            <path d="M43.0992 14.5984 L84.4157 14.5984 L84.4157 15.4488 L43.0992 15.4488 Z"
                  stroke="none"/>
            <text x="87.2503" xml:space="preserve" font-size="14" y="19.5197"
                  stroke="none">AB162858</text><path d="M43.0992 97.8374 L43 97.8374 L43 98.6878 L43.0992 98.6878 Z"
                  stroke="none"/>
            <text x="14.5903" xml:space="preserve" y="92.6641" stroke="none">NT1.1</text><line stroke-linecap="butt"
                  fill="none" x1="42.84" x2="42.84" y1="33.3071"
                  stroke-linejoin="bevel" y2="163.218" stroke-width="0.8504"/>
            <path d="M43.2652 33.3071 L70.9688 33.3071 L70.9688 34.1575 L43.2652 34.1575 Z"
                  stroke="none"/>
            <text x="73.8034" xml:space="preserve" font-size="14" y="38.2283"
                  stroke="none">X87295</text><path d="M43.2652 162.3676 L80 162.3676 L80 163.218 L43.2652 163.218 Z"
                  stroke="none"/>
            <text x="48.0719" xml:space="preserve" y="157.1944" stroke="none">NT1.3</text><line stroke-linecap="butt"
                  fill="none" x1="79.6945" x2="79.6945" y1="68.3858"
                  stroke-linejoin="bevel" y2="257.1998" stroke-width="0.8504"/>
            <path d="M80.1197 68.3858 L104 68.3858 L104 69.2362 L80.1197 69.2362 Z"
                  stroke="none"/>
            <text x="73.7837" xml:space="preserve" y="63.2126" stroke="none">NT1.6</text><line stroke-linecap="butt"
                  fill="none" x1="103.4341" x2="103.4341" y1="52.0157"
                  stroke-linejoin="bevel" y2="85.6063" stroke-width="0.8504"/>
            <path d="M103.8593 52.0158 L128.7407 52.0158 L128.7407 52.8661 L103.8593 52.8661 Z"
                  stroke="none"/>
            <text x="131.5754" xml:space="preserve" font-size="14" y="56.937"
                  stroke="none">X80384</text><path d="M103.8593 84.7559 L113 84.7559 L113 85.6063 L103.8593 85.6063 Z"
                  stroke="none"/>
            <text x="82.9011" xml:space="preserve" y="79.5827" stroke="none">NT1.8</text><line stroke-linecap="butt"
                  fill="none" x1="112.5648" x2="112.5648" y1="70.7244"
                  stroke-linejoin="bevel" y2="99.6378" stroke-width="0.8504"/>
            <path d="M112.99 70.7244 L127.7447 70.7244 L127.7447 71.5748 L112.99 71.5748 Z"
                  stroke="none"/>
            <text x="130.5793" xml:space="preserve" font-size="14" y="75.6457"
                  stroke="none">X80382</text><path d="M112.99 98.7874 L115 98.7874 L115 99.6378 L112.99 99.6378 Z"
                  stroke="none"/>
            <text x="85.0592" xml:space="preserve" y="93.6142" stroke="none">NT1.9</text><line stroke-linecap="butt"
                  fill="none" x1="114.7229" x2="114.7229" y1="89.4331"
                  stroke-linejoin="bevel" y2="108.9921" stroke-width="0.8504"/>
            <path d="M115.1481 89.4331 L120.6062 89.4331 L120.6062 90.2835 L115.1481 90.2835 Z"
                  stroke="none"/>
            <text x="123.4408" xml:space="preserve" font-size="14" y="94.3543"
                  stroke="none"></text>
            <path d="M115.1481 108.1417 L121.4362 108.1417 L121.4362 108.9921 L115.1481 108.9921 Z"
                  stroke="none"/>
            <text x="124.2709" xml:space="preserve" font-size="14" y="113.063"
                  stroke="none">X80383</text><path d="M80.1197 256.3494 L100 256.3494 L100 257.1998 L80.1197 257.1998 Z"
                  stroke="none"/>
            <text x="70.5766" xml:space="preserve" y="251.1762" stroke="none">NT1.5</text><line stroke-linecap="butt"
                  fill="none" x1="100.2799" x2="100.2799" y1="177.1299"
                  stroke-linejoin="bevel" y2="336.4193" stroke-width="0.8504"/>
            <path d="M100.7051 177.1299 L106 177.1299 L106 177.9803 L100.7051 177.9803 Z"
                  stroke="none"/>
            <text x="76.1079" xml:space="preserve" y="171.9567" stroke="none">NT1.7</text><line stroke-linecap="butt"
                  fill="none" x1="105.7583" x2="105.7583" y1="143.2205"
                  stroke-linejoin="bevel" y2="211.8898" stroke-width="0.8504"/>
            <path d="M106.1835 143.2205 L116 143.2205 L116 144.0709 L106.1835 144.0709 Z"
                  stroke="none"/>
            <text x="80.0086" xml:space="preserve" y="138.0473" stroke="none">NT1.10</text><line stroke-linecap="butt"
                  fill="none" x1="115.553" x2="115.553" y1="126.8504"
                  stroke-linejoin="bevel" y2="160.4409" stroke-width="0.8504"/>
            <path d="M115.9782 126.8504 L147.168 126.8504 L147.168 127.7008 L115.9782 127.7008 Z"
                  stroke="none"/>
            <text x="150.0027" xml:space="preserve" font-size="14" y="131.7717"
                  stroke="none"></text>
            <path d="M115.9782 159.5906 L129 159.5906 L129 160.441 L115.9782 160.441 Z"
                  stroke="none"/>
            <text x="93.6216" xml:space="preserve" y="154.4173" stroke="none">NT1.20</text><line stroke-linecap="butt"
                  fill="none" x1="129.166" x2="129.166" y1="145.5591"
                  stroke-linejoin="bevel" y2="174.4724" stroke-width="0.8504"/>
            <path d="M129.5912 145.5591 L134.5512 145.5591 L134.5512 146.4095 L129.5912 146.4095 Z"
                  stroke="none"/>
            <text x="137.3858" xml:space="preserve" font-size="14" y="150.4803"
                  stroke="none"></text>
            <path d="M129.5912 173.6221 L140 173.6221 L140 174.4725 L129.5912 174.4725 Z"
                  stroke="none"/>
            <text x="104.2859" xml:space="preserve" y="168.4488" stroke="none">NT1.32</text><line stroke-linecap="butt"
                  fill="none" x1="139.7907" x2="139.7907" y1="164.2677"
                  stroke-linejoin="bevel" y2="183.8268" stroke-width="0.8504"/>
            <path d="M140.2159 164.2677 L139.6975 164.2677 L139.6975 165.1181 L140.2159 165.1181 Z"
                  stroke="none"/>
            <text x="142.5322" xml:space="preserve" font-size="14" y="169.189"
                  stroke="none">X67762</text><path d="M140.2159 182.9764 L142.3537 182.9764 L142.3537 183.8268 L140.2159 183.8268 Z"
                  stroke="none"/>
            <text x="145.1884" xml:space="preserve" font-size="14" y="187.8976"
                  stroke="none"></text>
            <path d="M106.1835 211.0394 L122 211.0394 L122 211.8898 L106.1835 211.8898 Z"
                  stroke="none"/>
            <text x="86.317" xml:space="preserve" y="205.8661" stroke="none">NT1.14</text><line stroke-linecap="butt"
                  fill="none" x1="121.8614" x2="121.8614" y1="201.685"
                  stroke-linejoin="bevel" y2="221.2441" stroke-width="0.8504"/>
            <path d="M122.2866 201.685 L133.389 201.685 L133.389 202.5354 L122.2866 202.5354 Z"
                  stroke="none"/>
            <text x="136.2237" xml:space="preserve" font-size="14" y="206.6063"
                  stroke="none"></text>
            <path d="M122.2866 220.3937 L138.5354 220.3937 L138.5354 221.2441 L122.2866 221.2441 Z"
                  stroke="none"/>
            <text x="141.37" xml:space="preserve" font-size="14" y="225.315"
                  stroke="none">Y11764</text><path d="M100.7051 335.5689 L121 335.5689 L121 336.4193 L100.7051 336.4193 Z"
                  stroke="none"/>
            <text x="86.3633" xml:space="preserve" y="330.3957" stroke="none">NT1.11</text><line stroke-linecap="butt"
                  fill="none" x1="120.5333" x2="120.5333" y1="291.7205"
                  stroke-linejoin="bevel" y2="380.2678" stroke-width="0.8504"/>
            <path d="M120.9585 291.7205 L124 291.7205 L124 292.5709 L120.9585 292.5709 Z"
                  stroke="none"/>
            <text x="88.7279" xml:space="preserve" y="286.5473" stroke="none">NT1.15</text><line stroke-linecap="butt"
                  fill="none" x1="124.3516" x2="124.3516" y1="255.4725"
                  stroke-linejoin="bevel" y2="328.8189" stroke-width="0.8504"/>
            <path d="M124.7768 255.4725 L126 255.4725 L126 256.3229 L124.7768 256.3229 Z"
                  stroke="none"/>
            <text x="90.7729" xml:space="preserve" y="250.2992" stroke="none">NT1.16</text><line stroke-linecap="butt"
                  fill="none" x1="126.3437" x2="126.3437" y1="239.1024"
                  stroke-linejoin="bevel" y2="272.693" stroke-width="0.8504"/>
            <path d="M126.769 239.1024 L142.6857 239.1024 L142.6857 239.9528 L126.769 239.9528 Z"
                  stroke="none"/>
            <text x="145.5204" xml:space="preserve" font-size="14" y="244.0237"
                  stroke="none">X67763</text><path d="M126.769 271.8426 L128 271.8426 L128 272.693 L126.769 272.693 Z"
                  stroke="none"/>
            <text x="92.267" xml:space="preserve" y="266.6693" stroke="none">NT1.17</text><line stroke-linecap="butt"
                  fill="none" x1="127.8379" x2="127.8379" y1="257.8111"
                  stroke-linejoin="bevel" y2="286.7245" stroke-width="0.8504"/>
            <path d="M128.2631 257.8111 L138.8675 257.8111 L138.8675 258.6615 L128.2631 258.6615 Z"
                  stroke="none"/>
            <text x="141.7021" xml:space="preserve" font-size="14" y="262.7323"
                  stroke="none">Y11764</text><path d="M128.2631 285.8741 L131 285.8741 L131 286.7245 L128.2631 286.7245 Z"
                  stroke="none"/>
            <text x="96.49" xml:space="preserve" y="280.7009" stroke="none">NT1.21</text><line stroke-linecap="butt"
                  fill="none" x1="130.6601" x2="130.6601" y1="276.5198"
                  stroke-linejoin="bevel" y2="296.0788" stroke-width="0.8504"/>
            <path d="M131.0853 276.5198 L132.393 276.5198 L132.393 277.3702 L131.0853 277.3702 Z"
                  stroke="none"/>
            <text x="135.2277" xml:space="preserve" font-size="14" y="281.441"
                  stroke="none">Z29326</text><path d="M131.0853 295.2285 L132.8911 295.2285 L132.8911 296.0789 L131.0853 296.0789 Z"
                  stroke="none"/>
            <text x="135.7257" xml:space="preserve" font-size="14" y="300.1497"
                  stroke="none"></text>
            <path d="M124.7768 327.9685 L134 327.9685 L134 328.8189 L124.7768 328.8189 Z"
                  stroke="none"/>
            <text x="98.1906" xml:space="preserve" y="322.7953" stroke="none">NT1.25</text><line stroke-linecap="butt"
                  fill="none" x1="133.8143" x2="133.8143" y1="313.937"
                  stroke-linejoin="bevel" y2="342.8504" stroke-width="0.8504"/>
            <path d="M134.2395 313.937 L135.0492 313.937 L135.0492 314.7874 L134.2395 314.7874 Z"
                  stroke="none"/>
            <text x="137.8839" xml:space="preserve" font-size="14" y="318.8583"
                  stroke="none">X66616</text><path d="M134.2395 342 L135 342 L135 342.8504 L134.2395 342.8504 Z"
                  stroke="none"/>
            <text x="99.7375" xml:space="preserve" y="336.8268" stroke="none">NT1.27</text><line stroke-linecap="butt"
                  fill="none" x1="135.3084" x2="135.3084" y1="332.6457"
                  stroke-linejoin="bevel" y2="352.2048" stroke-width="0.8504"/>
            <path d="M135.7336 332.6457 L138.8675 332.6457 L138.8675 333.4961 L135.7336 333.4961 Z"
                  stroke="none"/>
            <text x="141.7021" xml:space="preserve" font-size="14" y="337.567"
                  stroke="none"></text>
            <path d="M135.7336 351.3544 L140.0295 351.3544 L140.0295 352.2048 L135.7336 352.2048 Z"
                  stroke="none"/>
            <text x="142.8642" xml:space="preserve" font-size="14" y="356.2757"
                  stroke="none"></text>
            <path d="M120.9585 379.4174 L144 379.4174 L144 380.2678 L120.9585 380.2678 Z"
                  stroke="none"/>
            <text x="108.3701" xml:space="preserve" y="374.2442" stroke="none">NT1.37</text><line stroke-linecap="butt"
                  fill="none" x1="143.9409" x2="143.9409" y1="370.063"
                  stroke-linejoin="bevel" y2="389.6221" stroke-width="0.8504"/>
            <path d="M144.3661 370.063 L143.6818 370.063 L143.6818 370.9135 L144.3661 370.9135 Z"
                  stroke="none"/>
            <text x="146.5164" xml:space="preserve" font-size="14" y="374.9843"
                  stroke="none">EF621905</text><path d="M144.3661 388.7717 L144.3458 388.7717 L144.3458 389.6221 L144.3661 389.6221 Z"
                  stroke="none"/>
            <text x="147.1805" xml:space="preserve" font-size="14" y="393.693"
                  stroke="none">EF621904</text>
        </g>
    </g>
</svg>
