<?xml version="1.0"?>
<!DOCTYPE svg PUBLIC '-//W3C//DTD SVG 1.0//EN'
    'http://www.w3.org/TR/2001/REC-SVG-20010904/DTD/svg10.dtd' >

<svg fill-opacity="1" xmlns:xlink="http://www.w3.org/1999/xlink"
     color-rendering="auto" color-interpolation="auto" stroke="black"
     text-rendering="auto" stroke-linecap="square" stroke-miterlimit="10"
     stroke-opacity="1" shape-rendering="auto" fill="black"
     stroke-dasharray="none" font-weight="normal" stroke-width="1"
     xmlns="http://www.w3.org/2000/svg" font-family="&apos;Dialog&apos;"
     font-style="normal" stroke-linejoin="miter" font-size="12"
     stroke-dashoffset="0" image-rendering="auto">
    <!--Generated by the Batik Graphics2D SVG Generator-->
    <defs id="genericDefs"/>
    <g>
        <g fill="white" stroke="white">
            <rect x="0" width="222" height="616" y="0" stroke="none"/>
            <path fill="black"
                  d="M5 234.1288 L44 234.1288 L44 234.9792 L5 234.9792 Z"
                  stroke="none"/>
        </g>
        <g font-family="&apos;Arial&apos;" font-size="9">
            <text x="8.5039" xml:space="preserve" y="228.9555" stroke="none">NT1.56</text><line stroke-linecap="butt"
                  fill="none" x1="44.0748" x2="44.0748" y1="14.5984"
                  stroke-linejoin="bevel" y2="453.6591" stroke-width="0.8504"/>
            <path d="M44.5 14.5984 L112.5474 14.5984 L112.5474 15.4488 L44.5 15.4488 Z"
                  stroke="none"/>
            <text x="115.3821" xml:space="preserve" font-size="14" y="19.5197"
                  stroke="none">D16428</text><path d="M44.5 452.8087 L63 452.8087 L63 453.6591 L44.5 453.6591 Z"
                  stroke="none"/>
            <text x="34.6594" xml:space="preserve" y="447.6355" stroke="none">NT1.1</text><line stroke-linecap="butt"
                  fill="none" x1="62.909" x2="62.909" y1="395.2393"
                  stroke-linejoin="bevel" y2="511.2284" stroke-width="0.8504"/>
            <path d="M63.3342 395.2393 L71 395.2393 L71 396.0898 L63.3342 396.0898 Z"
                  stroke="none"/>
            <text x="41.0119" xml:space="preserve" y="390.0661" stroke="none">NT1.4</text><line stroke-linecap="butt"
                  fill="none" x1="70.6359" x2="70.6359" y1="336.2267"
                  stroke-linejoin="bevel" y2="455.1024" stroke-width="0.8504"/>
            <path d="M71.0611 336.2267 L75 336.2267 L75 337.0771 L71.0611 337.0771 Z"
                  stroke="none"/>
            <text x="45.6537" xml:space="preserve" y="331.0534" stroke="none">NT1.6</text><line stroke-linecap="butt"
                  fill="none" x1="75.3042" x2="75.3042" y1="255.6186"
                  stroke-linejoin="bevel" y2="417.6851" stroke-width="0.8504"/>
            <path d="M75.7294 255.6186 L80 255.6186 L80 256.469 L75.7294 256.469 Z"
                  stroke="none"/>
            <text x="49.8259" xml:space="preserve" y="250.4454" stroke="none">NT1.8</text><line stroke-linecap="butt"
                  fill="none" x1="79.4896" x2="79.4896" y1="145.8514"
                  stroke-linejoin="bevel" y2="366.2362" stroke-width="0.8504"/>
            <path d="M79.9148 145.8514 L84 145.8514 L84 146.7018 L79.9148 146.7018 Z"
                  stroke="none"/>
            <text x="48.0513" xml:space="preserve" y="140.6782" stroke="none">NT1.15</text><line stroke-linecap="butt"
                  fill="none" x1="83.675" x2="83.675" y1="33.3071"
                  stroke-linejoin="bevel" y2="259.2461" stroke-width="0.8504"/>
            <path d="M84.1002 33.3071 L84.2156 33.3071 L84.2156 34.1575 L84.1002 34.1575 Z"
                  stroke="none"/>
            <text x="87.0503" xml:space="preserve" font-size="14" y="38.2284"
                  stroke="none"></text>
            <path d="M84 80.0788 L86 80.0788 L86 80.9291 L84 80.9291 Z"
                  stroke="none"/>
            <text x="50.6665" xml:space="preserve" y="74.9055" stroke="none">NT1.19</text><line stroke-linecap="butt"
                  fill="none" x1="86.2506" x2="86.2506" y1="52.0158"
                  stroke-linejoin="bevel" y2="108.9921" stroke-width="0.8504"/>
            <path d="M86.6758 52.0158 L113.9963 52.0158 L113.9963 52.8662 L86.6758 52.8662 Z"
                  stroke="none"/>
            <text x="116.8309" xml:space="preserve" font-size="14" y="56.937"
                  stroke="none">D32238</text><path d="M86.6758 108.1418 L98 108.1418 L98 108.9921 L86.6758 108.9921 Z"
                  stroke="none"/>
            <text x="62.4178" xml:space="preserve" y="102.9685" stroke="none">NT1.28</text><line stroke-linecap="butt"
                  fill="none" x1="98.0019" x2="98.0019" y1="70.7244"
                  stroke-linejoin="bevel" y2="146.4095" stroke-width="0.8504"/>
            <path d="M98.4271 70.7244 L98.3816 70.7244 L98.3816 71.5748 L98.4271 71.5748 Z"
                  stroke="none"/>
            <text x="101.2162" xml:space="preserve" font-size="14" y="75.6457"
                  stroke="none"></text>
            <path d="M98 98.7874 L102 98.7874 L102 99.6378 L98 99.6378 Z"
                  stroke="none"/>
            <text x="67.3733" xml:space="preserve" y="93.6142" stroke="none">NT1.31</text><line stroke-linecap="butt"
                  fill="none" x1="101.5434" x2="101.5434" y1="89.4331"
                  stroke-linejoin="bevel" y2="108.9921" stroke-width="0.8504"/>
            <path d="M101.9686 89.4331 L122.0451 89.4331 L122.0451 90.2835 L101.9686 90.2835 Z"
                  stroke="none"/>
            <text x="124.8798" xml:space="preserve" font-size="14" y="94.3543"
                  stroke="none">AB187584</text><path d="M101.9686 108.1417 L133.9574 108.1417 L133.9574 108.9921 L101.9686 108.9921 Z"
                  stroke="none"/>
            <text x="136.792" xml:space="preserve" font-size="14" y="113.063"
                  stroke="none">D3224‘I</text><path d="M98.4271 145.5591 L116 145.5591 L116 146.4095 L98.4271 146.4095 Z"
                  stroke="none"/>
            <text x="80.1649" xml:space="preserve" y="140.3858" stroke="none">NT1.40</text><line stroke-linecap="butt"
                  fill="none" x1="115.7093" x2="115.7093" y1="126.8504"
                  stroke-linejoin="bevel" y2="165.1181" stroke-width="0.8504"/>
            <path d="M116.1345 126.8504 L116.089 126.8504 L116.089 127.7008 L116.1345 127.7008 Z"
                  stroke="none"/>
            <text x="118.9236" xml:space="preserve" font-size="14" y="131.7717"
                  stroke="none"></text>
            <path d="M116 145.5591 L121.8841 145.5591 L121.8841 146.4095 L116 146.4095 Z"
                  stroke="none"/>
            <text x="124.7188" xml:space="preserve" font-size="14" y="150.4803"
                  stroke="none">YO7705</text><path d="M116.1345 164.2677 L132.9915 164.2677 L132.9915 165.1181 L116.1345 165.1181 Z"
                  stroke="none"/>
            <text x="135.8261" xml:space="preserve" font-size="14" y="169.189"
                  stroke="none">Y13827</text><path d="M84.1002 258.3957 L92 258.3957 L92 259.2461 L84.1002 259.2461 Z"
                  stroke="none"/>
            <text x="55.992" xml:space="preserve" y="253.2225" stroke="none">NT1.23</text><line stroke-linecap="butt"
                  fill="none" x1="91.5628" x2="91.5628" y1="202.8544"
                  stroke-linejoin="bevel" y2="314.7874" stroke-width="0.8504"/>
            <path d="M91.988 202.8544 L92 202.8544 L92 203.7048 L91.988 203.7048 Z"
                  stroke="none"/>
            <text x="56.3404" xml:space="preserve" y="197.6811" stroke="none">NT1.24</text><line stroke-linecap="butt"
                  fill="none" x1="91.8848" x2="91.8848" y1="182.9764"
                  stroke-linejoin="bevel" y2="223.5827" stroke-width="0.8504"/>
            <path d="M92.31 182.9764 L92.1035 182.9764 L92.1035 183.8268 L92.31 183.8268 Z"
                  stroke="none"/>
            <text x="94.9381" xml:space="preserve" font-size="14" y="187.8977"
                  stroke="none"></text>
            <path d="M92.31 222.7323 L97 222.7323 L97 223.5827 L92.31 223.5827 Z"
                  stroke="none"/>
            <text x="61.6262" xml:space="preserve" y="217.5591" stroke="none">NT1.27</text><line stroke-linecap="butt"
                  fill="none" x1="97.197" x2="97.197" y1="201.6851"
                  stroke-linejoin="bevel" y2="244.63" stroke-width="0.8504"/>
            <path d="M97.6222 201.6851 L120.1134 201.6851 L120.1134 202.5355 L97.6222 202.5355 Z"
                  stroke="none"/>
            <text x="122.948" xml:space="preserve" font-size="14" y="206.6063"
                  stroke="none"></text>
            <path d="M97.6222 243.7796 L121 243.7796 L121 244.63 L97.6222 244.63 Z"
                  stroke="none"/>
            <text x="84.9677" xml:space="preserve" y="238.6064" stroke="none">NT1.43</text><line stroke-linecap="butt"
                  fill="none" x1="120.5386" x2="120.5386" y1="220.3938"
                  stroke-linejoin="bevel" y2="268.0158" stroke-width="0.8504"/>
            <path d="M120.9638 220.3938 L121.0793 220.3938 L121.0793 221.2442 L120.9638 221.2442 Z"
                  stroke="none"/>
            <text x="123.9139" xml:space="preserve" font-size="14" y="225.315"
                  stroke="none"></text>
            <path d="M120 239.1024 L122.2061 239.1024 L122.2061 239.9529 L120 239.9529 Z"
                  stroke="none"/>
            <text x="125.0407" xml:space="preserve" font-size="14" y="244.0237"
                  stroke="none">ABOO6899</text><path d="M120.9638 267.1654 L121 267.1654 L121 268.0158 L120.9638 268.0158 Z"
                  stroke="none"/>
            <text x="85.2369" xml:space="preserve" y="261.9922" stroke="none">NT1.45</text><line stroke-linecap="butt"
                  fill="none" x1="120.8606" x2="120.8606" y1="257.8111"
                  stroke-linejoin="bevel" y2="277.3702" stroke-width="0.8504"/>
            <path d="M121.2858 257.8111 L120.4354 257.8111 L120.4354 258.6615 L121.2858 258.6615 Z"
                  stroke="none"/>
            <text x="123.27" xml:space="preserve" font-size="14" y="262.7324"
                  stroke="none"></text>
            <path d="M121.2858 276.5198 L123.4939 276.5198 L123.4939 277.3702 L121.2858 277.3702 Z"
                  stroke="none"/>
            <text x="126.3286" xml:space="preserve" font-size="14" y="281.4411"
                  stroke="none">AY189743</text><path d="M91.988 313.9371 L115 313.9371 L115 314.7875 L91.988 314.7875 Z"
                  stroke="none"/>
            <text x="78.9984" xml:space="preserve" y="308.7638" stroke="none">NT1.38</text><line stroke-linecap="butt"
                  fill="none" x1="114.5824" x2="114.5824" y1="295.2284"
                  stroke-linejoin="bevel" y2="333.4961" stroke-width="0.8504"/>
            <path d="M115.0076 295.2284 L114.9621 295.2284 L114.9621 296.0788 L115.0076 296.0788 Z"
                  stroke="none"/>
            <text x="117.7968" xml:space="preserve" font-size="14" y="300.1497"
                  stroke="none"></text>
            <path d="M115 313.9371 L122.528 313.9371 L122.528 314.7875 L115 314.7875 Z"
                  stroke="none"/>
            <text x="125.3627" xml:space="preserve" font-size="14" y="318.8583"
                  stroke="none">DQB42239</text><path d="M115.0076 332.6458 L127.0353 332.6458 L127.0353 333.4962 L115.0076 333.4962 Z"
                  stroke="none"/>
            <text x="129.87" xml:space="preserve" font-size="14" y="337.567"
                  stroke="none"></text>
            <path d="M79.9148 365.3859 L82 365.3859 L82 366.2363 L79.9148 366.2363 Z"
                  stroke="none"/>
            <text x="46.8824" xml:space="preserve" y="360.2126" stroke="none">NT1.12</text><line stroke-linecap="butt"
                  fill="none" x1="82.3872" x2="82.3872" y1="351.3543"
                  stroke-linejoin="bevel" y2="380.2677" stroke-width="0.8504"/>
            <path d="M82.8124 351.3543 L106.5913 351.3543 L106.5913 352.2047 L82.8124 352.2047 Z"
                  stroke="none"/>
            <text x="109.426" xml:space="preserve" font-size="14" y="356.2756"
                  stroke="none"></text>
            <path d="M82.8124 379.4174 L83 379.4174 L83 380.2678 L82.8124 380.2678 Z"
                  stroke="none"/>
            <text x="47.1383" xml:space="preserve" y="374.2442" stroke="none">NT1.13</text><line stroke-linecap="butt"
                  fill="none" x1="82.7091" x2="82.7091" y1="370.063"
                  stroke-linejoin="bevel" y2="389.6221" stroke-width="0.8504"/>
            <path d="M83.1343 370.063 L82.9279 370.063 L82.9279 370.9135 L83.1343 370.9135 Z"
                  stroke="none"/>
            <text x="85.7625" xml:space="preserve" font-size="14" y="374.9843"
                  stroke="none"></text>
            <path d="M83.1343 388.7717 L108.2011 388.7717 L108.2011 389.6221 L83.1343 389.6221 Z"
                  stroke="none"/>
            <text x="111.0358" xml:space="preserve" font-size="14" y="393.693"
                  stroke="none">AB185957</text><path d="M75.7294 416.8347 L78 416.8347 L78 417.6851 L75.7294 417.6851 Z"
                  stroke="none"/>
            <text x="48.0684" xml:space="preserve" y="411.6615" stroke="none">NT1.7</text><line stroke-linecap="butt"
                  fill="none" x1="77.7188" x2="77.7188" y1="407.4803"
                  stroke-linejoin="bevel" y2="427.0394" stroke-width="0.8504"/>
            <path d="M78.144 407.4804 L101.6011 407.4804 L101.6011 408.3308 L78.144 408.3308 Z"
                  stroke="none"/>
            <text x="104.4357" xml:space="preserve" font-size="14" y="412.4016"
                  stroke="none"></text>
            <path d="M78.144 426.1891 L106.7523 426.1891 L106.7523 427.0395 L78.144 427.0395 Z"
                  stroke="none"/>
            <text x="109.5869" xml:space="preserve" font-size="14" y="431.1103"
                  stroke="none">AYO14173</text><path d="M71.0611 454.2521 L72 454.2521 L72 455.1025 L71.0611 455.1025 Z"
                  stroke="none"/>
            <text x="42.3813" xml:space="preserve" y="449.0788" stroke="none">NT1.5</text><line stroke-linecap="butt"
                  fill="none" x1="72.0846" x2="72.0846" y1="444.8977"
                  stroke-linejoin="bevel" y2="464.4568" stroke-width="0.8504"/>
            <path d="M72.5099 444.8977 L90.0108 444.8977 L90.0108 445.7481 L72.5099 445.7481 Z"
                  stroke="none"/>
            <text x="92.8454" xml:space="preserve" font-size="14" y="449.819"
                  stroke="none">Y16929</text><path d="M72.5099 463.6064 L98.5425 463.6064 L98.5425 464.4568 L72.5099 464.4568 Z"
                  stroke="none"/>
            <text x="101.3772" xml:space="preserve" font-size="14" y="468.5276"
                  stroke="none">D32240</text><path d="M63.3342 510.378 L69 510.378 L69 511.2284 L63.3342 511.2284 Z"
                  stroke="none"/>
            <text x="39.1198" xml:space="preserve" y="505.2048" stroke="none">NT1.2</text><line stroke-linecap="butt"
                  fill="none" x1="68.7042" x2="68.7042" y1="482.315"
                  stroke-linejoin="bevel" y2="539.2914" stroke-width="0.8504"/>
            <path d="M69.1294 482.315 L68.9229 482.315 L68.9229 483.1654 L69.1294 483.1654 Z"
                  stroke="none"/>
            <text x="71.7576" xml:space="preserve" font-size="14" y="487.2363"
                  stroke="none"></text>
            <path d="M69 501.0237 L88.562 501.0237 L88.562 501.8741 L69 501.8741 Z"
                  stroke="none"/>
            <text x="91.3967" xml:space="preserve" font-size="14" y="505.945"
                  stroke="none">AF250332</text><path d="M69.1294 538.441 L81 538.441 L81 539.2914 L69.1294 539.2914 Z"
                  stroke="none"/>
            <text x="50.7918" xml:space="preserve" y="533.2678" stroke="none">NT1.9</text><line stroke-linecap="butt"
                  fill="none" x1="80.4555" x2="80.4555" y1="519.7324"
                  stroke-linejoin="bevel" y2="558.0001" stroke-width="0.8504"/>
            <path d="M80.8807 519.7324 L123.8158 519.7324 L123.8158 520.5828 L80.8807 520.5828 Z"
                  stroke="none"/>
            <text x="126.6505" xml:space="preserve" font-size="14" y="524.6537"
                  stroke="none"></text>
            <path d="M80.8807 557.1497 L81 557.1497 L81 558.0001 L80.8807 558.0001 Z"
                  stroke="none"/>
            <text x="45.233" xml:space="preserve" y="551.9765" stroke="none">NT1.10</text><line stroke-linecap="butt"
                  fill="none" x1="80.7774" x2="80.7774" y1="538.4411"
                  stroke-linejoin="bevel" y2="576.7088" stroke-width="0.8504"/>
            <path d="M81.2026 538.4411 L80.9961 538.4411 L80.9961 539.2914 L81.2026 539.2914 Z"
                  stroke="none"/>
            <text x="83.8308" xml:space="preserve" font-size="14" y="543.3623"
                  stroke="none"></text>
            <path d="M81.2026 575.8584 L85 575.8584 L85 576.7087 L81.2026 576.7087 Z"
                  stroke="none"/>
            <text x="49.392" xml:space="preserve" y="570.6852" stroke="none">NT1.17</text><line stroke-linecap="butt"
                  fill="none" x1="84.9628" x2="84.9628" y1="557.1498"
                  stroke-linejoin="bevel" y2="595.4175" stroke-width="0.8504"/>
            <path d="M85.388 557.1498 L85.5035 557.1498 L85.5035 558.0001 L85.388 558.0001 Z"
                  stroke="none"/>
            <text x="88.3381" xml:space="preserve" font-size="14" y="562.071"
                  stroke="none"></text>
            <path d="M85 575.8585 L88.562 575.8585 L88.562 576.7088 L85 576.7088 Z"
                  stroke="none"/>
            <text x="91.3967" xml:space="preserve" font-size="14" y="580.7797"
                  stroke="none">Y16933</text><path d="M85.388 594.5671 L93.2304 594.5671 L93.2304 595.4175 L85.388 595.4175 Z"
                  stroke="none"/>
            <text x="96.065" xml:space="preserve" font-size="14" y="599.4883"
                  stroke="none"></text>
        </g>
    </g>
</svg>
