<?xml version="1.0"?>
<!DOCTYPE svg PUBLIC '-//W3C//DTD SVG 1.0//EN'
    'http://www.w3.org/TR/2001/REC-SVG-20010904/DTD/svg10.dtd' >

<svg fill-opacity="1" xmlns:xlink="http://www.w3.org/1999/xlink"
     color-rendering="auto" color-interpolation="auto" stroke="black"
     text-rendering="auto" stroke-linecap="square" stroke-miterlimit="10"
     stroke-opacity="1" shape-rendering="auto" fill="black"
     stroke-dasharray="none" font-weight="normal" stroke-width="1"
     xmlns="http://www.w3.org/2000/svg" font-family="&apos;Dialog&apos;"
     font-style="normal" stroke-linejoin="miter" font-size="12"
     stroke-dashoffset="0" image-rendering="auto">
    <!--Generated by the Batik Graphics2D SVG Generator-->
    <defs id="genericDefs"/>
    <g>
        <g fill="white" stroke="white">
            <rect x="0" width="210" height="485" y="0" stroke="none"/>
            <path fill="black"
                  d="M5 155.4848 L44 155.4848 L44 156.3352 L5 156.3352 Z"
                  stroke="none"/>
        </g>
        <g font-family="&apos;Arial&apos;" font-size="9">
            <text x="8.5039" xml:space="preserve" y="150.3115" stroke="none">NT1.42</text><line stroke-linecap="butt"
                  fill="none" x1="44.0087" x2="44.0087" y1="14.5984"
                  stroke-linejoin="bevel" y2="296.3711" stroke-width="0.8504"/>
            <path d="M44.4339 14.5984 L124.0886 14.5984 L124.0886 15.4488 L44.4339 15.4488 Z"
                  stroke="none"/>
            <text x="126.9232" xml:space="preserve" font-size="14" y="19.5197"
                  stroke="none">AY174107</text><path d="M44.4339 295.5207 L74 295.5207 L74 296.3711 L44.4339 296.3711 Z"
                  stroke="none"/>
            <text x="45.8515" xml:space="preserve" y="290.3474" stroke="none">NT1.1</text><line stroke-linecap="butt"
                  fill="none" x1="74.1011" x2="74.1011" y1="202.2697"
                  stroke-linejoin="bevel" y2="389.6221" stroke-width="0.8504"/>
            <path d="M74.5263 202.2697 L84 202.2697 L84 203.1201 L74.5263 203.1201 Z"
                  stroke="none"/>
            <text x="54.0943" xml:space="preserve" y="197.0965" stroke="none">NT1.4</text><line stroke-linecap="butt"
                  fill="none" x1="83.7183" x2="83.7183" y1="90.6024"
                  stroke-linejoin="bevel" y2="314.7874" stroke-width="0.8504"/>
            <path d="M84.1435 90.6024 L84 90.6024 L84 91.4528 L84.1435 91.4528 Z"
                  stroke="none"/>
            <text x="54.3252" xml:space="preserve" y="85.4291" stroke="none">NT1.5</text><line stroke-linecap="butt"
                  fill="none" x1="84.0285" x2="84.0285" y1="33.3071"
                  stroke-linejoin="bevel" y2="148.748" stroke-width="0.8504"/>
            <path d="M84.4537 33.3071 L84.3789 33.3071 L84.3789 34.1575 L84.4537 34.1575 Z"
                  stroke="none"/>
            <text x="87.2136" xml:space="preserve" font-size="14" y="38.2284"
                  stroke="none">AB245389</text><path d="M84.4537 147.8976 L88 147.8976 L88 148.748 L84.4537 148.748 Z"
                  stroke="none"/>
            <text x="57.7774" xml:space="preserve" y="142.7244" stroke="none">NT1.9</text><line stroke-linecap="butt"
                  fill="none" x1="87.4411" x2="87.4411" y1="52.0158"
                  stroke-linejoin="bevel" y2="244.63" stroke-width="0.8504"/>
            <path d="M87.8663 52.0158 L88.1017 52.0158 L88.1017 52.8662 L87.8663 52.8662 Z"
                  stroke="none"/>
            <text x="90.9363" xml:space="preserve" font-size="14" y="56.937"
                  stroke="none"></text>
            <path d="M87 117.4961 L94 117.4961 L94 118.3465 L87 118.3465 Z"
                  stroke="none"/>
            <text x="58.3851" xml:space="preserve" y="112.3229" stroke="none">NT1.16</text><line stroke-linecap="butt"
                  fill="none" x1="93.956" x2="93.956" y1="70.7244"
                  stroke-linejoin="bevel" y2="165.1181" stroke-width="0.8504"/>
            <path d="M94.3812 70.7244 L94.7717 70.7244 L94.7717 71.5748 L94.3812 71.5748 Z"
                  stroke="none"/>
            <text x="97.6064" xml:space="preserve" font-size="14" y="75.6457"
                  stroke="none"></text>
            <path d="M94 108.1417 L103 108.1417 L103 108.9921 L94 108.9921 Z"
                  stroke="none"/>
            <text x="67.2267" xml:space="preserve" y="102.9685" stroke="none">NT1.23</text><line stroke-linecap="butt"
                  fill="none" x1="102.7976" x2="102.7976" y1="89.4331"
                  stroke-linejoin="bevel" y2="127.7008" stroke-width="0.8504"/>
            <path d="M103.2228 89.4331 L103.3031 89.4331 L103.3031 90.2835 L103.2228 90.2835 Z"
                  stroke="none"/>
            <text x="106.1377" xml:space="preserve" font-size="14" y="94.3543"
                  stroke="none"></text>
            <path d="M103 108.1417 L107.6463 108.1417 L107.6463 108.9921 L103 108.9921 Z"
                  stroke="none"/>
            <text x="110.481" xml:space="preserve" font-size="14" y="113.063"
                  stroke="none"></text>
            <path d="M103.2228 126.8504 L105.7849 126.8504 L105.7849 127.7008 L103.2228 127.7008 Z"
                  stroke="none"/>
            <text x="108.6196" xml:space="preserve" font-size="14" y="131.7717"
                  stroke="none">AF062535</text><path d="M94.3812 164.2677 L103 164.2677 L103 165.1181 L94.3812 165.1181 Z"
                  stroke="none"/>
            <text x="67.2532" xml:space="preserve" y="159.0945" stroke="none">NT1.24</text><line stroke-linecap="butt"
                  fill="none" x1="102.7976" x2="102.7976" y1="145.5591"
                  stroke-linejoin="bevel" y2="183.8268" stroke-width="0.8504"/>
            <path d="M103.2228 145.5591 L103.3031 145.5591 L103.3031 146.4095 L103.2228 146.4095 Z"
                  stroke="none"/>
            <text x="106.1377" xml:space="preserve" font-size="14" y="150.4803"
                  stroke="none"></text>
            <path d="M103 164.2677 L104.544 164.2677 L104.544 165.1181 L103 165.1181 Z"
                  stroke="none"/>
            <text x="107.3786" xml:space="preserve" font-size="14" y="169.189"
                  stroke="none">AJ132943</text><path d="M103.2228 182.9764 L109.5077 182.9764 L109.5077 183.8268 L103.2228 183.8268 Z"
                  stroke="none"/>
            <text x="112.3423" xml:space="preserve" font-size="14" y="187.8976"
                  stroke="none">AF084529</text><path d="M87.8663 243.7796 L92 243.7796 L92 244.63 L87.8663 244.63 Z"
                  stroke="none"/>
            <text x="56.0584" xml:space="preserve" y="238.6063" stroke="none">NT1.13</text><line stroke-linecap="butt"
                  fill="none" x1="91.6292" x2="91.6292" y1="220.3937"
                  stroke-linejoin="bevel" y2="268.0158" stroke-width="0.8504"/>
            <path d="M92.0544 220.3937 L98 220.3937 L98 221.2441 L92.0544 221.2441 Z"
                  stroke="none"/>
            <text x="62.0947" xml:space="preserve" y="215.2205" stroke="none">NT1.19</text><line stroke-linecap="butt"
                  fill="none" x1="97.6787" x2="97.6787" y1="201.6851"
                  stroke-linejoin="bevel" y2="239.9528" stroke-width="0.8504"/>
            <path d="M98.1039 201.6851 L98.1842 201.6851 L98.1842 202.5355 L98.1039 202.5355 Z"
                  stroke="none"/>
            <text x="101.0189" xml:space="preserve" font-size="14" y="206.6063"
                  stroke="none"></text>
            <path d="M98 220.3938 L108.8872 220.3938 L108.8872 221.2442 L98 221.2442 Z"
                  stroke="none"/>
            <text x="111.7219" xml:space="preserve" font-size="14" y="225.315"
                  stroke="none">278207.0</text><path d="M98.1039 239.1024 L108.577 239.1024 L108.577 239.9528 L98.1039 239.9528 Z"
                  stroke="none"/>
            <text x="111.4116" xml:space="preserve" font-size="14" y="244.0237"
                  stroke="none"></text>
            <path d="M92.0544 267.1654 L92 267.1654 L92 268.0158 L92.0544 268.0158 Z"
                  stroke="none"/>
            <text x="56.395" xml:space="preserve" y="261.9922" stroke="none">NT1.14</text><line stroke-linecap="butt"
                  fill="none" x1="91.9394" x2="91.9394" y1="257.8111"
                  stroke-linejoin="bevel" y2="277.3701" stroke-width="0.8504"/>
            <path d="M92.3646 257.8111 L92.4449 257.8111 L92.4449 258.6615 L92.3646 258.6615 Z"
                  stroke="none"/>
            <text x="95.2796" xml:space="preserve" font-size="14" y="262.7323"
                  stroke="none"></text>
            <path d="M92.3646 276.5197 L102.2172 276.5197 L102.2172 277.3701 L92.3646 277.3701 Z"
                  stroke="none"/>
            <text x="105.0519" xml:space="preserve" font-size="14" y="281.441"
                  stroke="none">ABZ71051</text><path d="M84.1435 313.937 L97 313.937 L97 314.7874 L84.1435 314.7874 Z"
                  stroke="none"/>
            <text x="61.7845" xml:space="preserve" y="308.7638" stroke="none">NT1.18</text><line stroke-linecap="butt"
                  fill="none" x1="97.3685" x2="97.3685" y1="295.2284"
                  stroke-linejoin="bevel" y2="333.4961" stroke-width="0.8504"/>
            <path d="M97.7937 295.2284 L97.874 295.2284 L97.874 296.0788 L97.7937 296.0788 Z"
                  stroke="none"/>
            <text x="100.7087" xml:space="preserve" font-size="14" y="300.1497"
                  stroke="none"></text>
            <path d="M97 313.9371 L109.5077 313.9371 L109.5077 314.7875 L97 314.7875 Z"
                  stroke="none"/>
            <text x="112.3423" xml:space="preserve" font-size="14" y="318.8583"
                  stroke="none">AB078858</text><path d="M97.7937 332.6458 L118.3493 332.6458 L118.3493 333.4962 L97.7937 333.4962 Z"
                  stroke="none"/>
            <text x="121.1839" xml:space="preserve" font-size="14" y="337.567"
                  stroke="none">AB012607</text><path d="M74.5263 388.7717 L79 388.7717 L79 389.6221 L74.5263 389.6221 Z"
                  stroke="none"/>
            <text x="49.1702" xml:space="preserve" y="383.5985" stroke="none">NT1.2</text><line stroke-linecap="butt"
                  fill="none" x1="78.7546" x2="78.7546" y1="351.3544"
                  stroke-linejoin="bevel" y2="427.0394" stroke-width="0.8504"/>
            <path d="M79.1798 351.3544 L114.3163 351.3544 L114.3163 352.2048 L79.1798 352.2048 Z"
                  stroke="none"/>
            <text x="117.1509" xml:space="preserve" font-size="14" y="356.2756"
                  stroke="none">AF227165</text><path d="M79.1798 426.1891 L81 426.1891 L81 427.0395 L79.1798 427.0395 Z"
                  stroke="none"/>
            <text x="51.7411" xml:space="preserve" y="421.0158" stroke="none">NT1.3</text><line stroke-linecap="butt"
                  fill="none" x1="81.3916" x2="81.3916" y1="388.7717"
                  stroke-linejoin="bevel" y2="464.4568" stroke-width="0.8504"/>
            <path d="M81.8168 388.7717 L85 388.7717 L85 389.6221 L81.8168 389.6221 Z"
                  stroke="none"/>
            <text x="55.4639" xml:space="preserve" y="383.5985" stroke="none">NT1.7</text><line stroke-linecap="butt"
                  fill="none" x1="85.1144" x2="85.1144" y1="370.063"
                  stroke-linejoin="bevel" y2="408.3307" stroke-width="0.8504"/>
            <path d="M85.5396 370.063 L124.0886 370.063 L124.0886 370.9135 L85.5396 370.9135 Z"
                  stroke="none"/>
            <text x="126.9232" xml:space="preserve" font-size="14" y="374.9843"
                  stroke="none">Y10819</text><path d="M85.5396 407.4804 L86 407.4804 L86 408.3308 L85.5396 408.3308 Z"
                  stroke="none"/>
            <text x="56.3814" xml:space="preserve" y="402.3071" stroke="none">NT1.8</text><line stroke-linecap="butt"
                  fill="none" x1="86.0451" x2="86.0451" y1="388.7717"
                  stroke-linejoin="bevel" y2="427.0394" stroke-width="0.8504"/>
            <path d="M86.4703 388.7717 L120.521 388.7717 L120.521 389.6221 L86.4703 389.6221 Z"
                  stroke="none"/>
            <text x="123.3556" xml:space="preserve" font-size="14" y="393.693"
                  stroke="none">AJOO3056</text><path d="M86.4703 426.1891 L90 426.1891 L90 427.0395 L86.4703 427.0395 Z"
                  stroke="none"/>
            <text x="55.9081" xml:space="preserve" y="421.0158" stroke="none">NT1.11</text><line stroke-linecap="butt"
                  fill="none" x1="90.0781" x2="90.0781" y1="407.4804"
                  stroke-linejoin="bevel" y2="445.7481" stroke-width="0.8504"/>
            <path d="M90.5033 407.4804 L90.7387 407.4804 L90.7387 408.3308 L90.5033 408.3308 Z"
                  stroke="none"/>
            <text x="93.5734" xml:space="preserve" font-size="14" y="412.4016"
                  stroke="none"></text>
            <path d="M90 426.1891 L109.818 426.1891 L109.818 427.0395 L90 427.0395 Z"
                  stroke="none"/>
            <text x="112.6526" xml:space="preserve" font-size="14" y="431.1103"
                  stroke="none"></text>
            <path d="M90.5033 444.8978 L113.6959 444.8978 L113.6959 445.7482 L90.5033 445.7482 Z"
                  stroke="none"/>
            <text x="116.5305" xml:space="preserve" font-size="14" y="449.819"
                  stroke="none">AF038504</text><path d="M81.8168 463.6064 L108.577 463.6064 L108.577 464.4568 L81.8168 464.4568 Z"
                  stroke="none"/>
            <text x="111.4116" xml:space="preserve" font-size="14" y="468.5276"
                  stroke="none">278208.0</text>
        </g>
    </g>
</svg>
