<?xml version="1.0"?>
<!DOCTYPE svg PUBLIC '-//W3C//DTD SVG 1.0//EN'
    'http://www.w3.org/TR/2001/REC-SVG-20010904/DTD/svg10.dtd' >

<svg fill-opacity="1" xmlns:xlink="http://www.w3.org/1999/xlink"
     color-rendering="auto" color-interpolation="auto" stroke="black"
     text-rendering="auto" stroke-linecap="square" stroke-miterlimit="10"
     stroke-opacity="1" shape-rendering="auto" fill="black"
     stroke-dasharray="none" font-weight="normal" stroke-width="1"
     xmlns="http://www.w3.org/2000/svg" font-family="&apos;Dialog&apos;"
     font-style="normal" stroke-linejoin="miter" font-size="12"
     stroke-dashoffset="0" image-rendering="auto">
    <!--Generated by the Batik Graphics2D SVG Generator-->
    <defs id="genericDefs"/>
    <g>
        <g fill="white" stroke="white">
            <rect x="0" width="196" height="410" y="0" stroke="none"/>
            <path fill="black"
                  d="M5 260.7941 L44 260.7941 L44 261.6445 L5 261.6445 Z"
                  stroke="none"/>
        </g>
        <g font-family="&apos;Arial&apos;" font-size="9">
            <text x="8.5039" xml:space="preserve" y="255.6208" stroke="none">NT1.40</text><line stroke-linecap="butt"
                  fill="none" x1="44.0483" x2="44.0483" y1="131.9661"
                  stroke-linejoin="bevel" y2="389.6221" stroke-width="0.8504"/>
            <path d="M44.4735 131.9661 L56 131.9661 L56 132.8165 L44.4735 132.8165 Z"
                  stroke="none"/>
            <text x="27.3488" xml:space="preserve" y="126.7928" stroke="none">NT1.1</text><line stroke-linecap="butt"
                  fill="none" x1="55.5985" x2="55.5985" y1="28.6299"
                  stroke-linejoin="bevel" y2="236.1526" stroke-width="0.8504"/>
            <path d="M56.0237 28.6299 L72 28.6299 L72 29.4803 L56.0237 29.4803 Z"
                  stroke="none"/>
            <text x="42.1182" xml:space="preserve" y="23.4567" stroke="none">NT1.3</text><line stroke-linecap="butt"
                  fill="none" x1="71.7686" x2="71.7686" y1="14.5984"
                  stroke-linejoin="bevel" y2="43.5118" stroke-width="0.8504"/>
            <path d="M72.1938 14.5984 L93.7837 14.5984 L93.7837 15.4488 L72.1938 15.4488 Z"
                  stroke="none"/>
            <text x="96.6183" xml:space="preserve" font-size="14" y="19.5197"
                  stroke="none">U48844</text><path d="M72.1938 42.6614 L81 42.6614 L81 43.5118 L72.1938 43.5118 Z"
                  stroke="none"/>
            <text x="45.7943" xml:space="preserve" y="37.4882" stroke="none">NT1.14</text><line stroke-linecap="butt"
                  fill="none" x1="81.3387" x2="81.3387" y1="33.3071"
                  stroke-linejoin="bevel" y2="52.8661" stroke-width="0.8504"/>
            <path d="M81.7639 33.3071 L86.1936 33.3071 L86.1936 34.1575 L81.7639 34.1575 Z"
                  stroke="none"/>
            <text x="89.0282" xml:space="preserve" font-size="14" y="38.2283"
                  stroke="none">ABZ74966</text><path d="M81.7639 52.0158 L112.2639 52.0158 L112.2639 52.8661 L81.7639 52.8661 Z"
                  stroke="none"/>
            <text x="115.0985" xml:space="preserve" font-size="14" y="56.937"
                  stroke="none"></text>
            <path d="M56.0237 235.3022 L70 235.3022 L70 236.1526 L56.0237 236.1526 Z"
                  stroke="none"/>
            <text x="40.6992" xml:space="preserve" y="230.129" stroke="none">NT1.2</text><line stroke-linecap="butt"
                  fill="none" x1="70.2836" x2="70.2836" y1="114.5728"
                  stroke-linejoin="bevel" y2="356.8819" stroke-width="0.8504"/>
            <path d="M70.7088 114.5728 L72 114.5728 L72 115.4232 L70.7088 115.4232 Z"
                  stroke="none"/>
            <text x="42.1446" xml:space="preserve" y="109.3996" stroke="none">NT1.4</text><line stroke-linecap="butt"
                  fill="none" x1="71.7686" x2="71.7686" y1="84.7559"
                  stroke-linejoin="bevel" y2="145.2402" stroke-width="0.8504"/>
            <path d="M72.1938 84.7559 L73 84.7559 L73 85.6063 L72.1938 85.6063 Z"
                  stroke="none"/>
            <text x="43.2203" xml:space="preserve" y="79.5827" stroke="none">NT1.5</text><line stroke-linecap="butt"
                  fill="none" x1="72.9237" x2="72.9237" y1="70.7244"
                  stroke-linejoin="bevel" y2="99.6378" stroke-width="0.8504"/>
            <path d="M73.3489 70.7244 L83.3886 70.7244 L83.3886 71.5748 L73.3489 71.5748 Z"
                  stroke="none"/>
            <text x="86.2232" xml:space="preserve" font-size="14" y="75.6457"
                  stroke="none">AF277201</text><path d="M73.3489 98.7874 L75 98.7874 L75 99.6378 L73.3489 99.6378 Z"
                  stroke="none"/>
            <text x="45.735" xml:space="preserve" y="93.6142" stroke="none">NT1.9</text><line stroke-linecap="butt"
                  fill="none" x1="75.3987" x2="75.3987" y1="89.4331"
                  stroke-linejoin="bevel" y2="108.9921" stroke-width="0.8504"/>
            <path d="M75.8239 89.4331 L84.2136 89.4331 L84.2136 90.2835 L75.8239 90.2835 Z"
                  stroke="none"/>
            <text x="87.0482" xml:space="preserve" font-size="14" y="94.3543"
                  stroke="none">AJ746362</text><path d="M75.8239 108.1417 L109.6239 108.1417 L109.6239 108.9921 L75.8239 108.9921 Z"
                  stroke="none"/>
            <text x="112.4585" xml:space="preserve" font-size="14" y="113.063"
                  stroke="none"></text>
            <path d="M72.1938 144.3898 L74 144.3898 L74 145.2402 L72.1938 145.2402 Z"
                  stroke="none"/>
            <text x="44.745" xml:space="preserve" y="139.2165" stroke="none">NT1.8</text><line stroke-linecap="butt"
                  fill="none" x1="74.4087" x2="74.4087" y1="126.8504"
                  stroke-linejoin="bevel" y2="162.7795" stroke-width="0.8504"/>
            <path d="M74.8339 126.8504 L91.9687 126.8504 L91.9687 127.7008 L74.8339 127.7008 Z"
                  stroke="none"/>
            <text x="94.8033" xml:space="preserve" font-size="14" y="131.7717"
                  stroke="none"></text>
            <path d="M74.8339 161.9291 L92 161.9291 L92 162.7795 L74.8339 162.7795 Z"
                  stroke="none"/>
            <text x="56.2291" xml:space="preserve" y="156.7559" stroke="none">NT1.22</text><line stroke-linecap="butt"
                  fill="none" x1="91.7339" x2="91.7339" y1="145.5591"
                  stroke-linejoin="bevel" y2="179.1496" stroke-width="0.8504"/>
            <path d="M92.1591 145.5591 L95.9287 145.5591 L95.9287 146.4095 L92.1591 146.4095 Z"
                  stroke="none"/>
            <text x="98.7634" xml:space="preserve" font-size="14" y="150.4803"
                  stroke="none">AJ278220</text><path d="M92.1591 178.2992 L93 178.2992 L93 179.1496 L92.1591 179.1496 Z"
                  stroke="none"/>
            <text x="57.7602" xml:space="preserve" y="173.126" stroke="none">NT1.25</text><line stroke-linecap="butt"
                  fill="none" x1="93.3839" x2="93.3839" y1="164.2677"
                  stroke-linejoin="bevel" y2="193.1811" stroke-width="0.8504"/>
            <path d="M93.8091 164.2677 L99.3938 164.2677 L99.3938 165.1181 L93.8091 165.1181 Z"
                  stroke="none"/>
            <text x="102.2284" xml:space="preserve" font-size="14" y="169.189"
                  stroke="none">U48842</text><path d="M93.8091 192.3307 L96 192.3307 L96 193.1811 L93.8091 193.1811 Z"
                  stroke="none"/>
            <text x="60.4795" xml:space="preserve" y="187.1575" stroke="none">NT1.30</text><line stroke-linecap="butt"
                  fill="none" x1="96.0239" x2="96.0239" y1="182.9764"
                  stroke-linejoin="bevel" y2="202.5354" stroke-width="0.8504"/>
            <path d="M96.4491 182.9764 L100.0538 182.9764 L100.0538 183.8268 L96.4491 183.8268 Z"
                  stroke="none"/>
            <text x="102.8884" xml:space="preserve" font-size="14" y="187.8976"
                  stroke="none">U48979</text><path d="M96.4491 201.685 L100.0538 201.685 L100.0538 202.5354 L96.4491 202.5354 Z"
                  stroke="none"/>
            <text x="102.8884" xml:space="preserve" font-size="14" y="206.6063"
                  stroke="none"></text>
            <path d="M70 257.811 L73 257.811 L73 258.6614 L70 258.6614 Z"
                  stroke="none"/>
            <text x="43.6032" xml:space="preserve" y="252.6378" stroke="none">NT1.6</text><line stroke-linecap="butt"
                  fill="none" x1="73.2537" x2="73.2537" y1="229.748"
                  stroke-linejoin="bevel" y2="286.7244" stroke-width="0.8504"/>
            <path d="M73.6789 229.748 L78 229.748 L78 230.5984 L73.6789 230.5984 Z"
                  stroke="none"/>
            <text x="44.0337" xml:space="preserve" y="224.5748" stroke="none">NT1.11</text><line stroke-linecap="butt"
                  fill="none" x1="78.2037" x2="78.2037" y1="220.3937"
                  stroke-linejoin="bevel" y2="239.9528" stroke-width="0.8504"/>
            <path d="M78.6289 220.3937 L85.5336 220.3937 L85.5336 221.2441 L78.6289 221.2441 Z"
                  stroke="none"/>
            <text x="88.3683" xml:space="preserve" font-size="14" y="225.315"
                  stroke="none"></text>
            <path d="M78.6289 239.1024 L91.6387 239.1024 L91.6387 239.9528 L78.6289 239.9528 Z"
                  stroke="none"/>
            <text x="94.4733" xml:space="preserve" font-size="14" y="244.0237"
                  stroke="none">U48977</text><path d="M73.6789 285.874 L76 285.874 L76 286.7244 L73.6789 286.7244 Z"
                  stroke="none"/>
            <text x="40.0193" xml:space="preserve" y="280.7008" stroke="none">NT1.10</text><line stroke-linecap="butt"
                  fill="none" x1="75.5637" x2="75.5637" y1="267.1654"
                  stroke-linejoin="bevel" y2="305.4331" stroke-width="0.8504"/>
            <path d="M75.9889 267.1654 L80 267.1654 L80 268.0158 L75.9889 268.0158 Z"
                  stroke="none"/>
            <text x="44.7779" xml:space="preserve" y="261.9921" stroke="none">NT1.13</text><line stroke-linecap="butt"
                  fill="none" x1="80.3487" x2="80.3487" y1="257.811"
                  stroke-linejoin="bevel" y2="277.3701" stroke-width="0.8504"/>
            <path d="M80.7739 257.811 L89.8236 257.811 L89.8236 258.6614 L80.7739 258.6614 Z"
                  stroke="none"/>
            <text x="92.6583" xml:space="preserve" font-size="14" y="262.7323"
                  stroke="none">U48843</text><path d="M80.7739 276.5197 L102.0338 276.5197 L102.0338 277.3701 L80.7739 277.3701 Z"
                  stroke="none"/>
            <text x="104.8684" xml:space="preserve" font-size="14" y="281.441"
                  stroke="none">U48978</text><path d="M75.9889 304.5827 L79 304.5827 L79 305.4331 L75.9889 305.4331 Z"
                  stroke="none"/>
            <text x="43.854" xml:space="preserve" y="299.4095" stroke="none">NT1.12</text><line stroke-linecap="butt"
                  fill="none" x1="79.3587" x2="79.3587" y1="295.2284"
                  stroke-linejoin="bevel" y2="314.7874" stroke-width="0.8504"/>
            <path d="M79.7839 295.2284 L90.6487 295.2284 L90.6487 296.0788 L79.7839 296.0788 Z"
                  stroke="none"/>
            <text x="93.4833" xml:space="preserve" font-size="14" y="300.1496"
                  stroke="none">U48982</text><path d="M79.7839 313.937 L94.4437 313.937 L94.4437 314.7874 L79.7839 314.7874 Z"
                  stroke="none"/>
            <text x="97.2783" xml:space="preserve" font-size="14" y="318.8583"
                  stroke="none">U48983</text><path d="M70.7088 356.0316 L74 356.0316 L74 356.882 L70.7088 356.882 Z"
                  stroke="none"/>
            <text x="44.7582" xml:space="preserve" y="350.8583" stroke="none">NT1.7</text><line stroke-linecap="butt"
                  fill="none" x1="74.4086" x2="74.4086" y1="342"
                  stroke-linejoin="bevel" y2="370.9134" stroke-width="0.8504"/>
            <path d="M74.8339 342 L90 342 L90 342.8504 L74.8339 342.8504 Z"
                  stroke="none"/>
            <text x="54.7044" xml:space="preserve" y="336.8268" stroke="none">NT1.20</text><line stroke-linecap="butt"
                  fill="none" x1="90.2488" x2="90.2488" y1="332.6457"
                  stroke-linejoin="bevel" y2="352.2048" stroke-width="0.8504"/>
            <path d="M90.674 332.6457 L95.4337 332.6457 L95.4337 333.4961 L90.674 333.4961 Z"
                  stroke="none"/>
            <text x="98.2683" xml:space="preserve" font-size="14" y="337.567"
                  stroke="none">A8039959</text><path d="M90.674 351.3544 L99.7237 351.3544 L99.7237 352.2048 L90.674 352.2048 Z"
                  stroke="none"/>
            <text x="102.5584" xml:space="preserve" font-size="14" y="356.2757"
                  stroke="none">ABO39961</text><path d="M74.8339 370.063 L95.9287 370.063 L95.9287 370.9135 L74.8339 370.9135 Z"
                  stroke="none"/>
            <text x="98.7633" xml:space="preserve" font-size="14" y="374.9843"
                  stroke="none">U48845</text><path d="M44.4735 388.7717 L95.5987 388.7717 L95.5987 389.6221 L44.4735 389.6221 Z"
                  stroke="none"/>
            <text x="98.4333" xml:space="preserve" font-size="14" y="393.693"
                  stroke="none">AY039253</text>
        </g>
    </g>
</svg>
