<?xml version="1.0"?>
<!DOCTYPE svg PUBLIC '-//W3C//DTD SVG 1.0//EN'
    'http://www.w3.org/TR/2001/REC-SVG-20010904/DTD/svg10.dtd' >

<svg fill-opacity="1" xmlns:xlink="http://www.w3.org/1999/xlink"
     color-rendering="auto" color-interpolation="auto" stroke="black"
     text-rendering="auto" stroke-linecap="square" stroke-miterlimit="10"
     stroke-opacity="1" shape-rendering="auto" fill="black"
     stroke-dasharray="none" font-weight="normal" stroke-width="1"
     xmlns="http://www.w3.org/2000/svg" font-family="&apos;Dialog&apos;"
     font-style="normal" stroke-linejoin="miter" font-size="12"
     stroke-dashoffset="0" image-rendering="auto">
    <!--Generated by the Batik Graphics2D SVG Generator-->
    <defs id="genericDefs"/>
    <g>
        <g fill="white" stroke="white">
            <rect x="0" width="200" height="261" y="0" stroke="none"/>
            <path fill="black"
                  d="M5 210.6607 L44 210.6607 L44 211.5111 L5 211.5111 Z"
                  stroke="none"/>
        </g>
        <g font-family="&apos;Arial&apos;" font-size="9">
            <text x="8.5039" xml:space="preserve" y="205.4875" stroke="none">NT1.25</text><line stroke-linecap="butt"
                  fill="none" x1="44.1276" x2="44.1276" y1="181.3686"
                  stroke-linejoin="bevel" y2="239.9528" stroke-width="0.8504"/>
            <path d="M44.5528 181.3686 L76 181.3686 L76 182.219 L44.5528 182.219 Z"
                  stroke="none"/>
            <text x="46.1032" xml:space="preserve" y="176.1954" stroke="none">NT1.2</text><line stroke-linecap="butt"
                  fill="none" x1="75.6876" x2="75.6876" y1="142.3435"
                  stroke-linejoin="bevel" y2="221.2441" stroke-width="0.8504"/>
            <path d="M76.1128 142.3435 L81 142.3435 L81 143.1939 L76.1128 143.1939 Z"
                  stroke="none"/>
            <text x="51.0533" xml:space="preserve" y="137.1703" stroke="none">NT1.3</text><line stroke-linecap="butt"
                  fill="none" x1="80.7037" x2="80.7037" y1="106.3878"
                  stroke-linejoin="bevel" y2="179.1496" stroke-width="0.8504"/>
            <path d="M81.1289 106.3878 L89 106.3878 L89 107.2382 L81.1289 107.2382 Z"
                  stroke="none"/>
            <text x="58.9955" xml:space="preserve" y="101.2146" stroke="none">NT1.6</text><line stroke-linecap="butt"
                  fill="none" x1="88.6459" x2="88.6459" y1="76.5709"
                  stroke-linejoin="bevel" y2="137.0551" stroke-width="0.8504"/>
            <path d="M89.0711 76.5709 L91 76.5709 L91 77.4212 L89.0711 77.4212 Z"
                  stroke="none"/>
            <text x="61.0723" xml:space="preserve" y="71.3976" stroke="none">NT1.8</text><line stroke-linecap="butt"
                  fill="none" x1="90.736" x2="90.736" y1="54.3543"
                  stroke-linejoin="bevel" y2="99.6378" stroke-width="0.8504"/>
            <path d="M91.1612 54.3543 L98 54.3543 L98 55.2047 L91.1612 55.2047 Z"
                  stroke="none"/>
            <text x="62.1284" xml:space="preserve" y="49.1811" stroke="none">NT1.12</text><line stroke-linecap="butt"
                  fill="none" x1="97.6332" x2="97.6332" y1="37.9842"
                  stroke-linejoin="bevel" y2="71.5748" stroke-width="0.8504"/>
            <path d="M98.0584 37.9842 L102 37.9842 L102 38.8346 L98.0584 38.8346 Z"
                  stroke="none"/>
            <text x="66.0335" xml:space="preserve" y="32.811" stroke="none">NT1.13</text><line stroke-linecap="butt"
                  fill="none" x1="101.6043" x2="101.6043" y1="23.9527"
                  stroke-linejoin="bevel" y2="52.8661" stroke-width="0.8504"/>
            <path d="M102.0295 23.9527 L113 23.9527 L113 24.8031 L102.0295 24.8031 Z"
                  stroke="none"/>
            <text x="77.5553" xml:space="preserve" y="18.7795" stroke="none">NT1.20</text><line stroke-linecap="butt"
                  fill="none" x1="113.0997" x2="113.0997" y1="14.5984"
                  stroke-linejoin="bevel" y2="34.1575" stroke-width="0.8504"/>
            <path d="M113.5249 14.5984 L112.8835 14.5984 L112.8835 15.4488 L113.5249 15.4488 Z"
                  stroke="none"/>
            <text x="115.7181" xml:space="preserve" font-size="14" y="19.5197"
                  stroke="none">AJ415377</text><path d="M113.5249 33.3071 L118.1086 33.3071 L118.1086 34.1575 L113.5249 34.1575 Z"
                  stroke="none"/>
            <text x="120.9433" xml:space="preserve" font-size="14" y="38.2283"
                  stroke="none">X91030</text><path d="M102.0295 52.0157 L115.3916 52.0157 L115.3916 52.8661 L102.0295 52.8661 Z"
                  stroke="none"/>
            <text x="118.2262" xml:space="preserve" font-size="14" y="56.937"
                  stroke="none">X83810</text><path d="M98.0584 70.7244 L112.0474 70.7244 L112.0474 71.5748 L98.0584 71.5748 Z"
                  stroke="none"/>
            <text x="114.8821" xml:space="preserve" font-size="14" y="75.6457"
                  stroke="none">AF434185</text><path d="M91.1612 98.7874 L103 98.7874 L103 99.6378 L91.1612 99.6378 Z"
                  stroke="none"/>
            <text x="66.8959" xml:space="preserve" y="93.6142" stroke="none">NT1.14</text><line stroke-linecap="butt"
                  fill="none" x1="102.4403" x2="102.4403" y1="89.4331"
                  stroke-linejoin="bevel" y2="108.9921" stroke-width="0.8504"/>
            <path d="M102.8655 89.4331 L111.4204 89.4331 L111.4204 90.2835 L102.8655 90.2835 Z"
                  stroke="none"/>
            <text x="114.2551" xml:space="preserve" font-size="14" y="94.3543"
                  stroke="none">X91031</text><path d="M102.8655 108.1417 L114.7645 108.1417 L114.7645 108.9921 L102.8655 108.9921 Z"
                  stroke="none"/>
            <text x="117.5992" xml:space="preserve" font-size="14" y="113.063"
                  stroke="none">X91657</text><path d="M89.0711 136.2047 L91 136.2047 L91 137.0551 L89.0711 137.0551 Z"
                  stroke="none"/>
            <text x="61.0723" xml:space="preserve" y="131.0315" stroke="none">NT1.9</text><line stroke-linecap="butt"
                  fill="none" x1="90.736" x2="90.736" y1="126.8504"
                  stroke-linejoin="bevel" y2="146.4095" stroke-width="0.8504"/>
            <path d="M91.1612 126.8504 L96.79 126.8504 L96.79 127.7008 L91.1612 127.7008 Z"
                  stroke="none"/>
            <text x="99.6247" xml:space="preserve" font-size="14" y="131.7717"
                  stroke="none">AJ415384</text><path d="M91.1612 145.5591 L106.4043 145.5591 L106.4043 146.4095 L91.1612 146.4095 Z"
                  stroke="none"/>
            <text x="109.2389" xml:space="preserve" font-size="14" y="150.4803"
                  stroke="none">AJ415378</text><path d="M81.1289 178.2992 L82 178.2992 L82 179.1496 L81.1289 179.1496 Z"
                  stroke="none"/>
            <text x="52.5427" xml:space="preserve" y="173.126" stroke="none">NT1.4</text><line stroke-linecap="butt"
                  fill="none" x1="82.1667" x2="82.1667" y1="164.2677"
                  stroke-linejoin="bevel" y2="193.1811" stroke-width="0.8504"/>
            <path d="M82.5919 164.2677 L97.208 164.2677 L97.208 165.1181 L82.5919 165.1181 Z"
                  stroke="none"/>
            <text x="100.0427" xml:space="preserve" font-size="14" y="169.189"
                  stroke="none">AJ537574</text><path d="M82.5919 192.3307 L86 192.3307 L86 193.1811 L82.5919 193.1811 Z"
                  stroke="none"/>
            <text x="56.2255" xml:space="preserve" y="187.1575" stroke="none">NT1.5</text><line stroke-linecap="butt"
                  fill="none" x1="85.9288" x2="85.9288" y1="182.9764"
                  stroke-linejoin="bevel" y2="202.5354" stroke-width="0.8504"/>
            <path d="M86.3541 182.9764 L103.6872 182.9764 L103.6872 183.8268 L86.3541 183.8268 Z"
                  stroke="none"/>
            <text x="106.5218" xml:space="preserve" font-size="14" y="187.8976"
                  stroke="none">X91033</text><path d="M86.3541 201.685 L110.5844 201.685 L110.5844 202.5354 L86.3541 202.5354 Z"
                  stroke="none"/>
            <text x="113.4191" xml:space="preserve" font-size="14" y="206.6063"
                  stroke="none">AJ415376</text><path d="M76.1128 220.3937 L89.6838 220.3937 L89.6838 221.2441 L76.1128 221.2441 Z"
                  stroke="none"/>
            <text x="92.5184" xml:space="preserve" font-size="14" y="225.315"
                  stroke="none">EF125186</text><path d="M44.5528 239.1024 L75.2624 239.1024 L75.2624 239.9528 L44.5528 239.9528 Z"
                  stroke="none"/>
            <text x="78.097" xml:space="preserve" font-size="14" y="244.0236"
                  stroke="none">X91034</text>
        </g>
    </g>
</svg>
