<?xml version="1.0"?>
<!DOCTYPE svg PUBLIC '-//W3C//DTD SVG 1.0//EN'
    'http://www.w3.org/TR/2001/REC-SVG-20010904/DTD/svg10.dtd' >

<svg fill-opacity="1" xmlns:xlink="http://www.w3.org/1999/xlink"
     color-rendering="auto" color-interpolation="auto" stroke="black"
     text-rendering="auto" stroke-linecap="square" stroke-miterlimit="10"
     stroke-opacity="1" shape-rendering="auto" fill="black"
     stroke-dasharray="none" font-weight="normal" stroke-width="1"
     xmlns="http://www.w3.org/2000/svg" font-family="&apos;Dialog&apos;"
     font-style="normal" stroke-linejoin="miter" font-size="12"
     stroke-dashoffset="0" image-rendering="auto">
    <!--Generated by the Batik Graphics2D SVG Generator-->
    <defs id="genericDefs"/>
    <g>
        <g fill="white" stroke="white">
            <rect x="0" width="183" height="486" y="0" stroke="none"/>
            <path fill="black"
                  d="M5 328.819 L18 328.819 L18 329.6694 L5 329.6694 Z"
                  stroke="none"/>
            <circle fill="black" r="1.2756" cx="17.433" cy="328.819"
                    stroke="none"/>
            <path fill="black"
                  d="M17.8582 327.9686 L31 327.9686 L31 328.819 L17.8582 328.819 Z"
                  stroke="none"/>
        </g>
        <g font-family="&apos;Arial&apos;" font-size="9">
            <text x="0.9813" xml:space="preserve" y="322.7953" stroke="none">NT1.2</text><line stroke-linecap="butt"
                  fill="none" x1="30.5656" x2="30.5656" y1="206.3622"
                  stroke-linejoin="bevel" y2="450.4253" stroke-width="0.8504"/>
            <path d="M30.9908 206.3622 L36 206.3622 L36 207.2126 L30.9908 207.2126 Z"
                  stroke="none"/>
            <text x="6.1034" xml:space="preserve" y="201.189" stroke="none">NT1.3</text><line stroke-linecap="butt"
                  fill="none" x1="35.7538" x2="35.7538" y1="14.5984"
                  stroke-linejoin="bevel" y2="398.9764" stroke-width="0.8504"/>
            <path d="M36.179 14.5984 L60.4589 14.5984 L60.4589 15.4488 L36.179 15.4488 Z"
                  stroke="none"/>
            <text x="63.2935" xml:space="preserve" font-size="14" y="19.5197"
                  stroke="none"></text>
            <path d="M36 234.4252 L40 234.4252 L40 235.2756 L36 235.2756 Z"
                  stroke="none"/>
            <text x="10.0209" xml:space="preserve" y="229.252" stroke="none">NT1.4</text><line stroke-linecap="butt"
                  fill="none" x1="39.645" x2="39.645" y1="145.5591"
                  stroke-linejoin="bevel" y2="324.1418" stroke-width="0.8504"/>
            <path d="M40.0701 145.5591 L42 145.5591 L42 146.4095 L40.0701 146.4095 Z"
                  stroke="none"/>
            <text x="12.6979" xml:space="preserve" y="140.3858" stroke="none">NT1.5</text><line stroke-linecap="butt"
                  fill="none" x1="42.4012" x2="42.4012" y1="33.3071"
                  stroke-linejoin="bevel" y2="258.6615" stroke-width="0.8504"/>
            <path d="M42.8264 33.3071 L73.1051 33.3071 L73.1051 34.1575 L42.8264 34.1575 Z"
                  stroke="none"/>
            <text x="75.9398" xml:space="preserve" font-size="14" y="38.2284"
                  stroke="none">Z38007</text><path d="M42 112.2343 L53 112.2343 L53 113.0846 L42 113.0846 Z"
                  stroke="none"/>
            <text x="22.9517" xml:space="preserve" y="107.061" stroke="none">NT1.9</text><line stroke-linecap="butt"
                  fill="none" x1="52.6154" x2="52.6154" y1="52.0158"
                  stroke-linejoin="bevel" y2="173.3032" stroke-width="0.8504"/>
            <path d="M53.0406 52.0158 L66.6199 52.0158 L66.6199 52.8662 L53.0406 52.8662 Z"
                  stroke="none"/>
            <text x="69.4545" xml:space="preserve" font-size="14" y="56.937"
                  stroke="none">X53194</text><path d="M53.0406 172.4528 L55 172.4528 L55 173.3032 L53.0406 173.3032 Z"
                  stroke="none"/>
            <text x="19.3408" xml:space="preserve" y="167.2795" stroke="none">NT1.10</text><line stroke-linecap="butt"
                  fill="none" x1="54.8853" x2="54.8853" y1="115.1575"
                  stroke-linejoin="bevel" y2="230.5984" stroke-width="0.8504"/>
            <path d="M55.3105 115.1575 L57 115.1575 L57 116.0079 L55.3105 116.0079 Z"
                  stroke="none"/>
            <text x="21.6503" xml:space="preserve" y="109.9843" stroke="none">NT1.12</text><line stroke-linecap="butt"
                  fill="none" x1="57.1551" x2="57.1551" y1="94.1103"
                  stroke-linejoin="bevel" y2="137.0551" stroke-width="0.8504"/>
            <path d="M57.5803 94.1103 L60 94.1103 L60 94.9606 L57.5803 94.9606 Z"
                  stroke="none"/>
            <text x="24.3273" xml:space="preserve" y="88.937" stroke="none">NT1.18</text><line stroke-linecap="butt"
                  fill="none" x1="59.9114" x2="59.9114" y1="80.0788"
                  stroke-linejoin="bevel" y2="108.9921" stroke-width="0.8504"/>
            <path d="M60.3366 80.0788 L63 80.0788 L63 80.9291 L60.3366 80.9291 Z"
                  stroke="none"/>
            <text x="27.2853" xml:space="preserve" y="74.9055" stroke="none">NT1.24</text><line stroke-linecap="butt"
                  fill="none" x1="62.8298" x2="62.8298" y1="70.7244"
                  stroke-linejoin="bevel" y2="90.2835" stroke-width="0.8504"/>
            <path d="M63.255 70.7244 L71.646 70.7244 L71.646 71.5748 L63.255 71.5748 Z"
                  stroke="none"/>
            <text x="74.4807" xml:space="preserve" font-size="14" y="75.6457"
                  stroke="none">AF002818</text><path d="M63.255 89.4331 L100.8296 89.4331 L100.8296 90.2835 L63.255 90.2835 Z"
                  stroke="none"/>
            <text x="103.6642" xml:space="preserve" font-size="14" y="94.3543"
                  stroke="none">AF127526</text><path d="M60.3366 108.1418 L78.7798 108.1418 L78.7798 108.9921 L60.3366 108.9921 Z"
                  stroke="none"/>
            <text x="81.6144" xml:space="preserve" font-size="14" y="113.063"
                  stroke="none">AF154128</text><path d="M57.5803 136.2047 L66 136.2047 L66 137.0551 L57.5803 137.0551 Z"
                  stroke="none"/>
            <text x="30.1772" xml:space="preserve" y="131.0315" stroke="none">NT1.27</text><line stroke-linecap="butt"
                  fill="none" x1="65.7481" x2="65.7481" y1="126.8504"
                  stroke-linejoin="bevel" y2="146.4095" stroke-width="0.8504"/>
            <path d="M66.1733 126.8504 L74.5643 126.8504 L74.5643 127.7008 L66.1733 127.7008 Z"
                  stroke="none"/>
            <text x="77.399" xml:space="preserve" font-size="14" y="131.7717"
                  stroke="none"></text>
            <path d="M66.1733 145.5591 L77.1584 145.5591 L77.1584 146.4095 L66.1733 146.4095 Z"
                  stroke="none"/>
            <text x="79.9931" xml:space="preserve" font-size="14" y="150.4803"
                  stroke="none">X53197</text><path d="M55 187.6536 L63 187.6536 L63 188.504 L55 188.504 Z"
                  stroke="none"/>
            <text x="27.6924" xml:space="preserve" y="182.4803" stroke="none">NT1.25</text><line stroke-linecap="butt"
                  fill="none" x1="63.3161" x2="63.3161" y1="173.6221"
                  stroke-linejoin="bevel" y2="202.5355" stroke-width="0.8504"/>
            <path d="M63.7413 173.6221 L68 173.6221 L68 174.4725 L63.7413 174.4725 Z"
                  stroke="none"/>
            <text x="32.6752" xml:space="preserve" y="168.4489" stroke="none">NT1.32</text><line stroke-linecap="butt"
                  fill="none" x1="68.18" x2="68.18" y1="164.2677"
                  stroke-linejoin="bevel" y2="183.8268" stroke-width="0.8504"/>
            <path d="M68.6052 164.2677 L72.4566 164.2677 L72.4566 165.1181 L68.6052 165.1181 Z"
                  stroke="none"/>
            <text x="75.2913" xml:space="preserve" font-size="14" y="169.189"
                  stroke="none"></text>
            <path d="M68.6052 182.9764 L85.2649 182.9764 L85.2649 183.8268 L68.6052 183.8268 Z"
                  stroke="none"/>
            <text x="88.0996" xml:space="preserve" font-size="14" y="187.8977"
                  stroke="none"></text>
            <path d="M63.7413 201.6851 L77.3205 201.6851 L77.3205 202.5355 L63.7413 202.5355 Z"
                  stroke="none"/>
            <text x="80.1552" xml:space="preserve" font-size="14" y="206.6063"
                  stroke="none">AF002819</text><path d="M55.3105 229.748 L60 229.748 L60 230.5984 L55.3105 230.5984 Z"
                  stroke="none"/>
            <text x="24.1784" xml:space="preserve" y="224.5748" stroke="none">NT1.17</text><line stroke-linecap="butt"
                  fill="none" x1="59.7492" x2="59.7492" y1="220.3937"
                  stroke-linejoin="bevel" y2="239.9528" stroke-width="0.8504"/>
            <path d="M60.1744 220.3937 L71.3217 220.3937 L71.3217 221.2441 L60.1744 221.2441 Z"
                  stroke="none"/>
            <text x="74.1564" xml:space="preserve" font-size="14" y="225.315"
                  stroke="none">EF030715</text><path d="M60.1744 239.1024 L75.2128 239.1024 L75.2128 239.9528 L60.1744 239.9528 Z"
                  stroke="none"/>
            <text x="78.0475" xml:space="preserve" font-size="14" y="244.0237"
                  stroke="none">X76962</text><path d="M42.8264 257.811 L67.2684 257.811 L67.2684 258.6614 L42.8264 258.6614 Z"
                  stroke="none"/>
            <text x="70.103" xml:space="preserve" font-size="14" y="262.7323"
                  stroke="none">238022.0</text><path d="M40.0701 323.2914 L43 323.2914 L43 324.1418 L40.0701 324.1418 Z"
                  stroke="none"/>
            <text x="13.075" xml:space="preserve" y="318.1182" stroke="none">NT1.6</text><line stroke-linecap="butt"
                  fill="none" x1="42.7255" x2="42.7255" y1="299.9055"
                  stroke-linejoin="bevel" y2="347.5276" stroke-width="0.8504"/>
            <path d="M43.1507 299.9055 L51 299.9055 L51 300.756 L43.1507 300.756 Z"
                  stroke="none"/>
            <text x="21.6547" xml:space="preserve" y="294.7323" stroke="none">NT1.8</text><line stroke-linecap="butt"
                  fill="none" x1="51.3184" x2="51.3184" y1="285.8741"
                  stroke-linejoin="bevel" y2="314.7874" stroke-width="0.8504"/>
            <path d="M51.7436 285.8741 L58 285.8741 L58 286.7245 L51.7436 286.7245 Z"
                  stroke="none"/>
            <text x="21.9086" xml:space="preserve" y="280.7008" stroke="none">NT1.13</text><line stroke-linecap="butt"
                  fill="none" x1="57.4794" x2="57.4794" y1="276.5197"
                  stroke-linejoin="bevel" y2="296.0788" stroke-width="0.8504"/>
            <path d="M57.9046 276.5197 L70.0247 276.5197 L70.0247 277.3701 L57.9046 277.3701 Z"
                  stroke="none"/>
            <text x="72.8593" xml:space="preserve" font-size="14" y="281.441"
                  stroke="none">AJ252826</text><path d="M57.9046 295.2284 L74.8886 295.2284 L74.8886 296.0788 L57.9046 296.0788 Z"
                  stroke="none"/>
            <text x="77.7232" xml:space="preserve" font-size="14" y="300.1497"
                  stroke="none">AJ252829</text><path d="M51.7436 313.937 L76.0235 313.937 L76.0235 314.7874 L51.7436 314.7874 Z"
                  stroke="none"/>
            <text x="78.8581" xml:space="preserve" font-size="14" y="318.8583"
                  stroke="none">AJ252824</text><path d="M43.1507 346.6772 L58 346.6772 L58 347.5276 L43.1507 347.5276 Z"
                  stroke="none"/>
            <text x="22.6663" xml:space="preserve" y="341.504" stroke="none">NT1.15</text><line stroke-linecap="butt"
                  fill="none" x1="58.29" x2="58.29" y1="332.6457"
                  stroke-linejoin="bevel" y2="361.5591" stroke-width="0.8504"/>
            <path d="M58.7152 332.6457 L68.7276 332.6457 L68.7276 333.4961 L58.7152 333.4961 Z"
                  stroke="none"/>
            <text x="71.5622" xml:space="preserve" font-size="14" y="337.567"
                  stroke="none">AJ512464</text><path d="M58.7152 360.7087 L62 360.7087 L62 361.5591 L58.7152 361.5591 Z"
                  stroke="none"/>
            <text x="26.6764" xml:space="preserve" y="355.5355" stroke="none">NT1.22</text><line stroke-linecap="butt"
                  fill="none" x1="62.1812" x2="62.1812" y1="351.3544"
                  stroke-linejoin="bevel" y2="370.9135" stroke-width="0.8504"/>
            <path d="M62.6064 351.3544 L65.3229 351.3544 L65.3229 352.2048 L62.6064 352.2048 Z"
                  stroke="none"/>
            <text x="68.1575" xml:space="preserve" font-size="14" y="356.2757"
                  stroke="none">AJ311174</text><path d="M62.6064 370.0631 L66.1335 370.0631 L66.1335 370.9135 L62.6064 370.9135 Z"
                  stroke="none"/>
            <text x="68.9681" xml:space="preserve" font-size="14" y="374.9843"
                  stroke="none"></text>
            <path d="M36.179 398.126 L58 398.126 L58 398.9764 L36.179 398.9764 Z"
                  stroke="none"/>
            <text x="22.2592" xml:space="preserve" y="392.9528" stroke="none">NT1.14</text><line stroke-linecap="butt"
                  fill="none" x1="57.8036" x2="57.8036" y1="388.7717"
                  stroke-linejoin="bevel" y2="408.3307" stroke-width="0.8504"/>
            <path d="M58.2288 388.7717 L59.1619 388.7717 L59.1619 389.6221 L58.2288 389.6221 Z"
                  stroke="none"/>
            <text x="61.9965" xml:space="preserve" font-size="14" y="393.6929"
                  stroke="none">AJ400709</text><path d="M58.2288 407.4804 L60.1346 407.4804 L60.1346 408.3308 L58.2288 408.3308 Z"
                  stroke="none"/>
            <text x="62.9693" xml:space="preserve" font-size="14" y="412.4016"
                  stroke="none">AJ293755</text><path d="M30.9908 449.5749 L44 449.5749 L44 450.4253 L30.9908 450.4253 Z"
                  stroke="none"/>
            <text x="13.8856" xml:space="preserve" y="444.4016" stroke="none">NT1.7</text><line stroke-linecap="butt"
                  fill="none" x1="43.5361" x2="43.5361" y1="435.5434"
                  stroke-linejoin="bevel" y2="464.4568" stroke-width="0.8504"/>
            <path d="M43.9613 435.5434 L56 435.5434 L56 436.3938 L43.9613 436.3938 Z"
                  stroke="none"/>
            <text x="21.688" xml:space="preserve" y="430.3701" stroke="none">NT1.11</text><line stroke-linecap="butt"
                  fill="none" x1="55.8581" x2="55.8581" y1="426.189"
                  stroke-linejoin="bevel" y2="445.7481" stroke-width="0.8504"/>
            <path d="M56.2833 426.1891 L61.9181 426.1891 L61.9181 427.0395 L56.2833 427.0395 Z"
                  stroke="none"/>
            <text x="64.7528" xml:space="preserve" font-size="14" y="431.1103"
                  stroke="none">AF114805</text><path d="M56.2833 444.8977 L67.7548 444.8977 L67.7548 445.7481 L56.2833 445.7481 Z"
                  stroke="none"/>
            <text x="70.5895" xml:space="preserve" font-size="14" y="449.819"
                  stroke="none">X53193</text><path d="M43.9613 463.6064 L61.2696 463.6064 L61.2696 464.4568 L43.9613 464.4568 Z"
                  stroke="none"/>
            <text x="64.1042" xml:space="preserve" font-size="14" y="468.5276"
                  stroke="none">AF114809</text>
        </g>
    </g>
</svg>
