<?xml version="1.0"?>
<!DOCTYPE svg PUBLIC '-//W3C//DTD SVG 1.0//EN'
    'http://www.w3.org/TR/2001/REC-SVG-20010904/DTD/svg10.dtd' >

<svg fill-opacity="1" xmlns:xlink="http://www.w3.org/1999/xlink"
     color-rendering="auto" color-interpolation="auto" stroke="black"
     text-rendering="auto" stroke-linecap="square" stroke-miterlimit="10"
     stroke-opacity="1" shape-rendering="auto" fill="black"
     stroke-dasharray="none" font-weight="normal" stroke-width="1"
     xmlns="http://www.w3.org/2000/svg" font-family="&apos;Dialog&apos;"
     font-style="normal" stroke-linejoin="miter" font-size="12"
     stroke-dashoffset="0" image-rendering="auto">
    <!--Generated by the Batik Graphics2D SVG Generator-->
    <defs id="genericDefs"/>
    <g>
        <g fill="white" stroke="white">
            <rect x="0" width="224" height="654" y="0" stroke="none"/>
            <path fill="black"
                  d="M5 170.0556 L18 170.0556 L18 170.9061 L5 170.9061 Z"
                  stroke="none"/>
            <circle fill="black" r="1.2756" cx="17.4331" cy="170.0557"
                    stroke="none"/>
            <path fill="black"
                  d="M17.8583 169.2052 L18 169.2052 L18 170.0556 L17.8583 170.0556 Z"
                  stroke="none"/>
        </g>
        <g font-family="&apos;Arial&apos;" font-size="9">
            <text x="-11.9304" xml:space="preserve" y="164.032" stroke="none">NT1.2</text><line stroke-linecap="butt"
                  fill="none" x1="17.6539" x2="17.6539" y1="23.9528"
                  stroke-linejoin="bevel" y2="315.3082" stroke-width="0.8504"/>
            <path d="M18.0791 23.9528 L18 23.9528 L18 24.8032 L18.0791 24.8032 Z"
                  stroke="none"/>
            <text x="-11.7756" xml:space="preserve" y="18.7795" stroke="none">NT1.3</text><line stroke-linecap="butt"
                  fill="none" x1="17.8748" x2="17.8748" y1="14.5984"
                  stroke-linejoin="bevel" y2="34.1575" stroke-width="0.8504"/>
            <path d="M18.3 14.5984 L50.6923 14.5984 L50.6923 15.4488 L18.3 15.4488 Z"
                  stroke="none"/>
            <text x="53.5269" xml:space="preserve" font-size="14" y="19.5197"
                  stroke="none">M88159</text><path d="M18.3 33.3071 L61.405 33.3071 L61.405 34.1575 L18.3 34.1575 Z"
                  stroke="none"/>
            <text x="64.2397" xml:space="preserve" font-size="14" y="38.2283"
                  stroke="none">M88157</text><path d="M18.0791 314.4578 L53 314.4578 L53 315.3082 L18.0791 315.3082 Z"
                  stroke="none"/>
            <text x="22.1579" xml:space="preserve" y="309.2845" stroke="none">NT1.5</text><line stroke-linecap="butt"
                  fill="none" x1="53.1054" x2="53.1054" y1="120.4193"
                  stroke-linejoin="bevel" y2="509.3466" stroke-width="0.8504"/>
            <path d="M53.5306 120.4193 L59 120.4193 L59 121.2697 L53.5306 121.2697 Z"
                  stroke="none"/>
            <text x="29.7501" xml:space="preserve" y="115.2461" stroke="none">NT1.6</text><line stroke-linecap="butt"
                  fill="none" x1="59.4006" x2="59.4006" y1="71.8937"
                  stroke-linejoin="bevel" y2="169.7953" stroke-width="0.8504"/>
            <path d="M59.8258 71.8937 L98 71.8937 L98 72.7441 L59.8258 72.7441 Z"
                  stroke="none"/>
            <text x="61.9979" xml:space="preserve" y="66.7205" stroke="none">NT1.22</text><line stroke-linecap="butt"
                  fill="none" x1="97.5026" x2="97.5026" y1="52.0157"
                  stroke-linejoin="bevel" y2="92.6221" stroke-width="0.8504"/>
            <path d="M97.9278 52.0158 L126.6756 52.0158 L126.6756 52.8661 L97.9278 52.8661 Z"
                  stroke="none"/>
            <text x="129.5102" xml:space="preserve" font-size="14" y="56.937"
                  stroke="none">L14627</text><path d="M97.9278 91.7717 L107 91.7717 L107 92.622 L97.9278 92.622 Z"
                  stroke="none"/>
            <text x="70.988" xml:space="preserve" y="86.5984" stroke="none">NT1.37</text><line stroke-linecap="butt"
                  fill="none" x1="106.5587" x2="106.5587" y1="70.7244"
                  stroke-linejoin="bevel" y2="113.6693" stroke-width="0.8504"/>
            <path d="M106.984 70.7244 L117.1776 70.7244 L117.1776 71.5748 L106.984 71.5748 Z"
                  stroke="none"/>
            <text x="120.0123" xml:space="preserve" font-size="14" y="75.6457"
                  stroke="none">L14626</text><path d="M106.984 112.8189 L112 112.8189 L112 113.6693 L106.984 113.6693 Z"
                  stroke="none"/>
            <text x="76.1343" xml:space="preserve" y="107.6457" stroke="none">NT1.42</text><line stroke-linecap="butt"
                  fill="none" x1="111.639" x2="111.639" y1="98.7874"
                  stroke-linejoin="bevel" y2="127.7008" stroke-width="0.8504"/>
            <path d="M112.0642 98.7874 L113 98.7874 L113 99.6378 L112.0642 99.6378 Z"
                  stroke="none"/>
            <text x="77.4907" xml:space="preserve" y="93.6142" stroke="none">NT1.48</text><line stroke-linecap="butt"
                  fill="none" x1="113.0747" x2="113.0747" y1="89.4331"
                  stroke-linejoin="bevel" y2="108.9921" stroke-width="0.8504"/>
            <path d="M113.4999 89.4331 L115.8523 89.4331 L115.8523 90.2835 L113.4999 90.2835 Z"
                  stroke="none"/>
            <text x="118.687" xml:space="preserve" font-size="14" y="94.3543"
                  stroke="none">L14624</text><path d="M113.4999 108.1417 L118.7238 108.1417 L118.7238 108.9921 L113.4999 108.9921 Z"
                  stroke="none"/>
            <text x="121.5584" xml:space="preserve" font-size="14" y="113.063"
                  stroke="none">AJ607391</text><path d="M112.0642 126.8504 L118.1716 126.8504 L118.1716 127.7008 L112.0642 127.7008 Z"
                  stroke="none"/>
            <text x="121.0062" xml:space="preserve" font-size="14" y="131.7717"
                  stroke="none">L14625</text><path d="M59.8258 168.9449 L75 168.9449 L75 169.7953 L59.8258 169.7953 Z"
                  stroke="none"/>
            <text x="44.9777" xml:space="preserve" y="163.7717" stroke="none">NT1.8</text><line stroke-linecap="butt"
                  fill="none" x1="74.6414" x2="74.6414" y1="154.9134"
                  stroke-linejoin="bevel" y2="183.8268" stroke-width="0.8504"/>
            <path d="M75.0666 154.9134 L93 154.9134 L93 155.7638 L75.0666 155.7638 Z"
                  stroke="none"/>
            <text x="57.13" xml:space="preserve" y="149.7402" stroke="none">NT1.15</text><line stroke-linecap="butt"
                  fill="none" x1="92.7537" x2="92.7537" y1="145.5591"
                  stroke-linejoin="bevel" y2="165.1181" stroke-width="0.8504"/>
            <path d="M93.1789 145.5591 L101.2743 145.5591 L101.2743 146.4095 L93.1789 146.4095 Z"
                  stroke="none"/>
            <text x="104.1089" xml:space="preserve" font-size="14" y="150.4803"
                  stroke="none">AF218076</text><path d="M93.1789 164.2677 L104.2562 164.2677 L104.2562 165.1181 L93.1789 165.1181 Z"
                  stroke="none"/>
            <text x="107.0908" xml:space="preserve" font-size="14" y="169.189"
                  stroke="none">Y13671</text><path d="M75.0666 182.9764 L111.4348 182.9764 L111.4348 183.8268 L75.0666 183.8268 Z"
                  stroke="none"/>
            <text x="114.2694" xml:space="preserve" font-size="14" y="187.8976"
                  stroke="none">AY740528</text><path d="M53.5306 508.4962 L75 508.4962 L75 509.3466 L53.5306 509.3466 Z"
                  stroke="none"/>
            <text x="45.4195" xml:space="preserve" y="503.323" stroke="none">NT1.9</text><line stroke-linecap="butt"
                  fill="none" x1="75.0831" x2="75.0831" y1="403.7167"
                  stroke-linejoin="bevel" y2="614.126" stroke-width="0.8504"/>
            <path d="M75.5083 403.7167 L80 403.7167 L80 404.5671 L75.5083 404.5671 Z"
                  stroke="none"/>
            <text x="44.7294" xml:space="preserve" y="398.5435" stroke="none">NT1.10</text><line stroke-linecap="butt"
                  fill="none" x1="80.2738" x2="80.2738" y1="280.6122"
                  stroke-linejoin="bevel" y2="527.6715" stroke-width="0.8504"/>
            <path d="M80.6991 280.6122 L85 280.6122 L85 281.4626 L80.6991 281.4626 Z"
                  stroke="none"/>
            <text x="50.6319" xml:space="preserve" y="275.439" stroke="none">NT1.11</text><line stroke-linecap="butt"
                  fill="none" x1="84.8019" x2="84.8019" y1="256.6417"
                  stroke-linejoin="bevel" y2="305.4331" stroke-width="0.8504"/>
            <path d="M85.2271 256.6417 L90 256.6417 L90 257.4921 L85.2271 257.4921 Z"
                  stroke="none"/>
            <text x="54.2273" xml:space="preserve" y="251.4685" stroke="none">NT1.14</text><line stroke-linecap="butt"
                  fill="none" x1="89.7718" x2="89.7718" y1="236.7638"
                  stroke-linejoin="bevel" y2="277.3701" stroke-width="0.8504"/>
            <path d="M90.197 236.7638 L93 236.7638 L93 237.6142 L90.197 237.6142 Z"
                  stroke="none"/>
            <text x="57.735" xml:space="preserve" y="231.5905" stroke="none">NT1.16</text><line stroke-linecap="butt"
                  fill="none" x1="93.3059" x2="93.3059" y1="215.7165"
                  stroke-linejoin="bevel" y2="258.6614" stroke-width="0.8504"/>
            <path d="M93.7311 215.7165 L95 215.7165 L95 216.5669 L93.7311 216.5669 Z"
                  stroke="none"/>
            <text x="59.7098" xml:space="preserve" y="210.5433" stroke="none">NT1.19</text><line stroke-linecap="butt"
                  fill="none" x1="95.2938" x2="95.2938" y1="201.685"
                  stroke-linejoin="bevel" y2="230.5984" stroke-width="0.8504"/>
            <path d="M95.719 201.685 L99.728 201.685 L99.728 202.5354 L95.719 202.5354 Z"
                  stroke="none"/>
            <text x="102.5627" xml:space="preserve" font-size="14" y="206.6063"
                  stroke="none">AJ620504</text><path d="M95.719 229.748 L96 229.748 L96 230.5984 L95.719 230.5984 Z"
                  stroke="none"/>
            <text x="60.4121" xml:space="preserve" y="224.5748" stroke="none">NT1.20</text><line stroke-linecap="butt"
                  fill="none" x1="95.9565" x2="95.9565" y1="220.3937"
                  stroke-linejoin="bevel" y2="239.9528" stroke-width="0.8504"/>
            <path d="M96.3817 220.3937 L97.8505 220.3937 L97.8505 221.2441 L96.3817 221.2441 Z"
                  stroke="none"/>
            <text x="100.6852" xml:space="preserve" font-size="14" y="225.315"
                  stroke="none">AF372091</text><path d="M96.3817 239.1024 L98.4027 239.1024 L98.4027 239.9528 L96.3817 239.9528 Z"
                  stroke="none"/>
            <text x="101.2374" xml:space="preserve" font-size="14" y="244.0236"
                  stroke="none">DQ174144</text><path d="M93.7311 257.811 L101.7159 257.811 L101.7159 258.6614 L93.7311 258.6614 Z"
                  stroke="none"/>
            <text x="104.5506" xml:space="preserve" font-size="14" y="262.7323"
                  stroke="none">DQ174145</text><path d="M90.197 276.5197 L98.6236 276.5197 L98.6236 277.3701 L90.197 277.3701 Z"
                  stroke="none"/>
            <text x="101.4582" xml:space="preserve" font-size="14" y="281.4409"
                  stroke="none">AF372092</text><path d="M85.2271 304.5826 L98 304.5826 L98 305.433 L85.2271 305.433 Z"
                  stroke="none"/>
            <text x="62.6208" xml:space="preserve" y="299.4094" stroke="none">NT1.24</text><line stroke-linecap="butt"
                  fill="none" x1="98.1652" x2="98.1652" y1="295.2283"
                  stroke-linejoin="bevel" y2="314.7874" stroke-width="0.8504"/>
            <path d="M98.5904 295.2283 L104.3665 295.2283 L104.3665 296.0787 L98.5904 296.0787 Z"
                  stroke="none"/>
            <text x="107.2011" xml:space="preserve" font-size="14" y="300.1496"
                  stroke="none">DQ174161</text><path d="M98.5904 313.937 L107.6797 313.937 L107.6797 314.7874 L98.5904 314.7874 Z"
                  stroke="none"/>
            <text x="110.5143" xml:space="preserve" font-size="14" y="318.8583"
                  stroke="none">DQ174157</text><path d="M80.6991 526.8212 L86 526.8212 L86 527.6715 L80.6991 527.6715 Z"
                  stroke="none"/>
            <text x="50.512" xml:space="preserve" y="521.6479" stroke="none">NT1.12</text><line stroke-linecap="butt"
                  fill="none" x1="86.0168" x2="86.0168" y1="477.784"
                  stroke-linejoin="bevel" y2="576.7087" stroke-width="0.8504"/>
            <path d="M86.442 477.784 L89 477.784 L89 478.6344 L86.442 478.6344 Z"
                  stroke="none"/>
            <text x="53.207" xml:space="preserve" y="472.6108" stroke="none">NT1.13</text><line stroke-linecap="butt"
                  fill="none" x1="88.7778" x2="88.7778" y1="438.1742"
                  stroke-linejoin="bevel" y2="518.2441" stroke-width="0.8504"/>
            <path d="M89.203 438.1742 L95 438.1742 L95 439.0246 L89.203 439.0246 Z"
                  stroke="none"/>
            <text x="58.9499" xml:space="preserve" y="433.001" stroke="none">NT1.17</text><line stroke-linecap="butt"
                  fill="none" x1="94.5207" x2="94.5207" y1="412.7421"
                  stroke-linejoin="bevel" y2="464.4567" stroke-width="0.8504"/>
            <path d="M94.9459 412.7421 L98 412.7421 L98 413.5925 L94.9459 413.5925 Z"
                  stroke="none"/>
            <text x="62.3736" xml:space="preserve" y="407.5689" stroke="none">NT1.23</text><line stroke-linecap="butt"
                  fill="none" x1="97.9444" x2="97.9444" y1="389.9409"
                  stroke-linejoin="bevel" y2="436.3937" stroke-width="0.8504"/>
            <path d="M98.3696 389.9409 L103 389.9409 L103 390.7914 L98.3696 390.7914 Z"
                  stroke="none"/>
            <text x="68.5233" xml:space="preserve" y="384.7677" stroke="none">NT1.31</text><line stroke-linecap="butt"
                  fill="none" x1="102.6934" x2="102.6934" y1="372.4016"
                  stroke-linejoin="bevel" y2="408.3307" stroke-width="0.8504"/>
            <path d="M103.1186 372.4016 L107 372.4016 L107 373.252 L103.1186 373.252 Z"
                  stroke="none"/>
            <text x="70.9748" xml:space="preserve" y="367.2284" stroke="none">NT1.38</text><line stroke-linecap="butt"
                  fill="none" x1="106.5588" x2="106.5588" y1="356.0315"
                  stroke-linejoin="bevel" y2="389.622" stroke-width="0.8504"/>
            <path d="M106.984 356.0315 L110 356.0315 L110 356.8819 L106.984 356.8819 Z"
                  stroke="none"/>
            <text x="75.702" xml:space="preserve" y="350.8583" stroke="none">NT1.41</text><line stroke-linecap="butt"
                  fill="none" x1="109.872" x2="109.872" y1="342"
                  stroke-linejoin="bevel" y2="370.9134" stroke-width="0.8504"/>
            <path d="M110.2972 342 L118 342 L118 342.8504 L110.2972 342.8504 Z"
                  stroke="none"/>
            <text x="81.8688" xml:space="preserve" y="336.8268" stroke="none">NT1.55</text><line stroke-linecap="butt"
                  fill="none" x1="117.4924" x2="117.4924" y1="332.6457"
                  stroke-linejoin="bevel" y2="352.2047" stroke-width="0.8504"/>
            <path d="M117.9176 332.6457 L124.2459 332.6457 L124.2459 333.4961 L117.9176 333.4961 Z"
                  stroke="none"/>
            <text x="127.0806" xml:space="preserve" font-size="14" y="337.5669"
                  stroke="none">DQ174169</text><path d="M117.9176 351.3543 L127.78 351.3543 L127.78 352.2047 L117.9176 352.2047 Z"
                  stroke="none"/>
            <text x="130.6146" xml:space="preserve" font-size="14" y="356.2756"
                  stroke="none">DQ174155</text><path d="M110.2972 370.063 L131.8663 370.063 L131.8663 370.9134 L110.2972 370.9134 Z"
                  stroke="none"/>
            <text x="134.7009" xml:space="preserve" font-size="14" y="374.9843"
                  stroke="none">DQ174168</text><path d="M106.984 388.7717 L137.9405 388.7717 L137.9405 389.6221 L106.984 389.6221 Z"
                  stroke="none"/>
            <text x="140.7752" xml:space="preserve" font-size="14" y="393.6929"
                  stroke="none">AJ251584</text><path d="M103.1186 407.4803 L129.7679 407.4803 L129.7679 408.3307 L103.1186 408.3307 Z"
                  stroke="none"/>
            <text x="132.6026" xml:space="preserve" font-size="14" y="412.4016"
                  stroke="none">DQ174149</text><path d="M98.3696 435.5433 L110 435.5433 L110 436.3937 L98.3696 436.3937 Z"
                  stroke="none"/>
            <text x="73.9963" xml:space="preserve" y="430.3701" stroke="none">NT1.40</text><line stroke-linecap="butt"
                  fill="none" x1="109.5407" x2="109.5407" y1="426.189"
                  stroke-linejoin="bevel" y2="445.748" stroke-width="0.8504"/>
            <path d="M109.9659 426.189 L124.5772 426.189 L124.5772 427.0394 L109.9659 427.0394 Z"
                  stroke="none"/>
            <text x="127.4118" xml:space="preserve" font-size="14" y="431.1103"
                  stroke="none">DQ174165</text><path d="M109.9659 444.8977 L120.0491 444.8977 L120.0491 445.7481 L109.9659 445.7481 Z"
                  stroke="none"/>
            <text x="122.8838" xml:space="preserve" font-size="14" y="449.8189"
                  stroke="none">DQ174166</text><path d="M94.9459 463.6063 L114.4166 463.6063 L114.4166 464.4567 L94.9459 464.4567 Z"
                  stroke="none"/>
            <text x="117.2513" xml:space="preserve" font-size="14" y="468.5276"
                  stroke="none">DQ174173</text><path d="M89.203 517.3937 L95 517.3937 L95 518.2441 L89.203 518.2441 Z"
                  stroke="none"/>
            <text x="59.268" xml:space="preserve" y="512.2205" stroke="none">NT1.18</text><line stroke-linecap="butt"
                  fill="none" x1="94.852" x2="94.852" y1="491.6693"
                  stroke-linejoin="bevel" y2="543.9685" stroke-width="0.8504"/>
            <path d="M95.2772 491.6693 L97 491.6693 L97 492.5197 L95.2772 492.5197 Z"
                  stroke="none"/>
            <text x="63.0013" xml:space="preserve" y="486.4961" stroke="none">NT1.21</text><line stroke-linecap="butt"
                  fill="none" x1="97.1713" x2="97.1713" y1="482.315"
                  stroke-linejoin="bevel" y2="501.874" stroke-width="0.8504"/>
            <path d="M97.5965 482.315 L105.3605 482.315 L105.3605 483.1654 L97.5965 483.1654 Z"
                  stroke="none"/>
            <text x="108.1952" xml:space="preserve" font-size="14" y="487.2362"
                  stroke="none">DQ174181</text><path d="M97.5965 501.0237 L103.5935 501.0237 L103.5935 501.8741 L97.5965 501.8741 Z"
                  stroke="none"/>
            <text x="106.4281" xml:space="preserve" font-size="14" y="505.9449"
                  stroke="none">DQ195237</text><path d="M95.2772 543.1182 L105 543.1182 L105 543.9685 L95.2772 543.9685 Z"
                  stroke="none"/>
            <text x="69.168" xml:space="preserve" y="537.9449" stroke="none">NT1.35</text><line stroke-linecap="butt"
                  fill="none" x1="104.7918" x2="104.7918" y1="529.0867"
                  stroke-linejoin="bevel" y2="558.0001" stroke-width="0.8504"/>
            <path d="M105.217 529.0867 L112 529.0867 L112 529.937 L105.217 529.937 Z"
                  stroke="none"/>
            <text x="76.2363" xml:space="preserve" y="523.9135" stroke="none">NT1.45</text><line stroke-linecap="butt"
                  fill="none" x1="111.86" x2="111.86" y1="519.7324"
                  stroke-linejoin="bevel" y2="539.2914" stroke-width="0.8504"/>
            <path d="M112.2852 519.7324 L111.4348 519.7324 L111.4348 520.5827 L112.2852 520.5827 Z"
                  stroke="none"/>
            <text x="114.2695" xml:space="preserve" font-size="14" y="524.6536"
                  stroke="none">DQ174131</text><path d="M112.2852 538.441 L112.2079 538.441 L112.2079 539.2914 L112.2852 539.2914 Z"
                  stroke="none"/>
            <text x="115.0426" xml:space="preserve" font-size="14" y="543.3623"
                  stroke="none">DQ174127</text><path d="M105.217 557.1497 L112.3183 557.1497 L112.3183 558.0001 L105.217 558.0001 Z"
                  stroke="none"/>
            <text x="115.153" xml:space="preserve" font-size="14" y="562.071"
                  stroke="none">DQ174177</text><path d="M86.442 575.8583 L124.025 575.8583 L124.025 576.7087 L86.442 576.7087 Z"
                  stroke="none"/>
            <text x="126.8596" xml:space="preserve" font-size="14" y="580.7795"
                  stroke="none">M88159</text><path d="M75.5083 613.2756 L113 613.2756 L113 614.126 L75.5083 614.126 Z"
                  stroke="none"/>
            <text x="77.4907" xml:space="preserve" y="608.1024" stroke="none">NT1.49</text><line stroke-linecap="butt"
                  fill="none" x1="113.0748" x2="113.0748" y1="594.567"
                  stroke-linejoin="bevel" y2="632.8347" stroke-width="0.8504"/>
            <path d="M113.5 594.567 L113.754 594.567 L113.754 595.4174 L113.5 595.4174 Z"
                  stroke="none"/>
            <text x="116.5887" xml:space="preserve" font-size="14" y="599.4882"
                  stroke="none">EF621896</text><path d="M113 613.2757 L112.9809 613.2757 L112.9809 614.126 L113 614.126 Z"
                  stroke="none"/>
            <text x="115.8155" xml:space="preserve" font-size="14" y="618.1969"
                  stroke="none">EF621900</text><path d="M113.5 631.9844 L116.0732 631.9844 L116.0732 632.8347 L113.5 632.8347 Z"
                  stroke="none"/>
            <text x="118.9079" xml:space="preserve" font-size="14" y="636.9056"
                  stroke="none">EF621903</text>
        </g>
    </g>
</svg>
