<?xml version="1.0"?>
<!DOCTYPE svg PUBLIC '-//W3C//DTD SVG 1.0//EN'
    'http://www.w3.org/TR/2001/REC-SVG-20010904/DTD/svg10.dtd' >

<svg fill-opacity="1" xmlns:xlink="http://www.w3.org/1999/xlink"
     color-rendering="auto" color-interpolation="auto" stroke="black"
     text-rendering="auto" stroke-linecap="square" stroke-miterlimit="10"
     stroke-opacity="1" shape-rendering="auto" fill="black"
     stroke-dasharray="none" font-weight="normal" stroke-width="1"
     xmlns="http://www.w3.org/2000/svg" font-family="&apos;Dialog&apos;"
     font-style="normal" stroke-linejoin="miter" font-size="12"
     stroke-dashoffset="0" image-rendering="auto">
    <!--Generated by the Batik Graphics2D SVG Generator-->
    <defs id="genericDefs"/>
    <g>
        <g fill="white" stroke="white">
            <rect x="0" width="212" height="392" y="0" stroke="none"/>
            <path fill="black"
                  d="M5 133.4144 L44 133.4144 L44 134.2648 L5 134.2648 Z"
                  stroke="none"/>
        </g>
        <g font-family="&apos;Arial&apos;" font-size="9">
            <text x="8.5039" xml:space="preserve" y="128.2411" stroke="none">NT1.38</text><line stroke-linecap="butt"
                  fill="none" x1="44.088" x2="44.088" y1="14.5984"
                  stroke-linejoin="bevel" y2="252.2303" stroke-width="0.8504"/>
            <path d="M44.5132 14.5984 L119.9613 14.5984 L119.9613 15.4488 L44.5132 15.4488 Z"
                  stroke="none"/>
            <text x="122.7959" xml:space="preserve" font-size="14" y="19.5197"
                  stroke="none">M58768</text><path d="M44.5132 251.3799 L73 251.3799 L73 252.2303 L44.5132 252.2303 Z"
                  stroke="none"/>
            <text x="44.4218" xml:space="preserve" y="246.2067" stroke="none">NT1.1</text><line stroke-linecap="butt"
                  fill="none" x1="72.6714" x2="72.6714" y1="189.9921"
                  stroke-linejoin="bevel" y2="313.6181" stroke-width="0.8504"/>
            <path d="M73.0966 189.9921 L84 189.9921 L84 190.8425 L73.0966 190.8425 Z"
                  stroke="none"/>
            <text x="54.6366" xml:space="preserve" y="184.8189" stroke="none">NT1.6</text><line stroke-linecap="butt"
                  fill="none" x1="84.287" x2="84.287" y1="143.2205"
                  stroke-linejoin="bevel" y2="237.6142" stroke-width="0.8504"/>
            <path d="M84.7122 143.2205 L90 143.2205 L90 144.0709 L84.7122 144.0709 Z"
                  stroke="none"/>
            <text x="60.3305" xml:space="preserve" y="138.0473" stroke="none">NT1.7</text><line stroke-linecap="butt"
                  fill="none" x1="89.9809" x2="89.9809" y1="84.7559"
                  stroke-linejoin="bevel" y2="202.5355" stroke-width="0.8504"/>
            <path d="M90.4061 84.7559 L96 84.7559 L96 85.6063 L90.4061 85.6063 Z"
                  stroke="none"/>
            <text x="65.8973" xml:space="preserve" y="79.5827" stroke="none">NT1.8</text><line stroke-linecap="butt"
                  fill="none" x1="95.561" x2="95.561" y1="33.3071"
                  stroke-linejoin="bevel" y2="137.0551" stroke-width="0.8504"/>
            <path d="M95.9862 33.3071 L107.8901 33.3071 L107.8901 34.1575 L95.9862 34.1575 Z"
                  stroke="none"/>
            <text x="110.7248" xml:space="preserve" font-size="14" y="38.2284"
                  stroke="none"></text>
            <path d="M95.9862 136.2047 L99 136.2047 L99 137.0551 L95.9862 137.0551 Z"
                  stroke="none"/>
            <text x="63.319" xml:space="preserve" y="131.0315" stroke="none">NT1.10</text><line stroke-linecap="butt"
                  fill="none" x1="98.8635" x2="98.8635" y1="98.7874"
                  stroke-linejoin="bevel" y2="174.4725" stroke-width="0.8504"/>
            <path d="M99.2887 98.7874 L101 98.7874 L101 99.6378 L99.2887 99.6378 Z"
                  stroke="none"/>
            <text x="65.7501" xml:space="preserve" y="93.6142" stroke="none">NT1.12</text><line stroke-linecap="butt"
                  fill="none" x1="101.2549" x2="101.2549" y1="61.3701"
                  stroke-linejoin="bevel" y2="137.0551" stroke-width="0.8504"/>
            <path d="M101.6801 61.3701 L103 61.3701 L103 62.2205 L101.6801 62.2205 Z"
                  stroke="none"/>
            <text x="67.0506" xml:space="preserve" y="56.1969" stroke="none">NT1.13</text><line stroke-linecap="butt"
                  fill="none" x1="102.6214" x2="102.6214" y1="52.0158"
                  stroke-linejoin="bevel" y2="71.5748" stroke-width="0.8504"/>
            <path d="M103.0467 52.0158 L105.4987 52.0158 L105.4987 52.8662 L103.0467 52.8662 Z"
                  stroke="none"/>
            <text x="108.3334" xml:space="preserve" font-size="14" y="56.937"
                  stroke="none">DQ314760</text><path d="M103.0467 70.7244 L107.4347 70.7244 L107.4347 71.5748 L103.0467 71.5748 Z"
                  stroke="none"/>
            <text x="110.2693" xml:space="preserve" font-size="14" y="75.6457"
                  stroke="none">AY661691</text><path d="M101 98.7874 L103 98.7874 L103 99.6378 L101 99.6378 Z"
                  stroke="none"/>
            <text x="67.8478" xml:space="preserve" y="93.6142" stroke="none">NT1.16</text><line stroke-linecap="butt"
                  fill="none" x1="103.4186" x2="103.4186" y1="89.4331"
                  stroke-linejoin="bevel" y2="108.9921" stroke-width="0.8504"/>
            <path d="M103.8438 89.4331 L108.8012 89.4331 L108.8012 90.2835 L103.8438 90.2835 Z"
                  stroke="none"/>
            <text x="111.6358" xml:space="preserve" font-size="14" y="94.3543"
                  stroke="none">AF469612</text><path d="M103.8438 108.1417 L111.9898 108.1417 L111.9898 108.9921 L103.8438 108.9921 Z"
                  stroke="none"/>
            <text x="114.8244" xml:space="preserve" font-size="14" y="113.063"
                  stroke="none">ABOSZSOS</text><path d="M101.6801 136.2047 L103 136.2047 L103 137.0551 L101.6801 137.0551 Z"
                  stroke="none"/>
            <text x="67.3394" xml:space="preserve" y="131.0315" stroke="none">NT1.15</text><line stroke-linecap="butt"
                  fill="none" x1="102.9631" x2="102.9631" y1="126.8504"
                  stroke-linejoin="bevel" y2="146.4095" stroke-width="0.8504"/>
            <path d="M103.3883 126.8504 L108.2318 126.8504 L108.2318 127.7008 L103.3883 127.7008 Z"
                  stroke="none"/>
            <text x="111.0665" xml:space="preserve" font-size="14" y="131.7717"
                  stroke="none"></text>
            <path d="M103.3883 145.5591 L109.4845 145.5591 L109.4845 146.4095 L103.3883 146.4095 Z"
                  stroke="none"/>
            <text x="112.3191" xml:space="preserve" font-size="14" y="150.4803"
                  stroke="none"></text>
            <path d="M99.2887 173.6221 L109 173.6221 L109 174.4725 L99.2887 174.4725 Z"
                  stroke="none"/>
            <text x="73.3007" xml:space="preserve" y="168.4488" stroke="none">NT1.28</text><line stroke-linecap="butt"
                  fill="none" x1="108.8847" x2="108.8847" y1="164.2677"
                  stroke-linejoin="bevel" y2="183.8268" stroke-width="0.8504"/>
            <path d="M109.3099 164.2677 L109.7122 164.2677 L109.7122 165.1181 L109.3099 165.1181 Z"
                  stroke="none"/>
            <text x="112.5469" xml:space="preserve" font-size="14" y="169.189"
                  stroke="none">D0822567</text><path d="M109.3099 182.9764 L108.6873 182.9764 L108.6873 183.8268 L109.3099 183.8268 Z"
                  stroke="none"/>
            <text x="111.522" xml:space="preserve" font-size="14" y="187.8976"
                  stroke="none"></text>
            <path d="M90.4061 201.685 L105.9542 201.685 L105.9542 202.5354 L90.4061 202.5354 Z"
                  stroke="none"/>
            <text x="108.7889" xml:space="preserve" font-size="14" y="206.6063"
                  stroke="none">AB078057</text><path d="M84.7122 236.7638 L97 236.7638 L97 237.6142 L84.7122 237.6142 Z"
                  stroke="none"/>
            <text x="67.15" xml:space="preserve" y="231.5906" stroke="none">NT1.9</text><line stroke-linecap="butt"
                  fill="none" x1="96.8136" x2="96.8136" y1="220.3937"
                  stroke-linejoin="bevel" y2="253.9843" stroke-width="0.8504"/>
            <path d="M97.2388 220.3937 L104.1321 220.3937 L104.1321 221.2441 L97.2388 221.2441 Z"
                  stroke="none"/>
            <text x="106.9668" xml:space="preserve" font-size="14" y="225.315"
                  stroke="none">M61002</text><path d="M97.2388 253.1339 L99 253.1339 L99 253.9843 L97.2388 253.9843 Z"
                  stroke="none"/>
            <text x="65.035" xml:space="preserve" y="247.9607" stroke="none">NT1.11</text><line stroke-linecap="butt"
                  fill="none" x1="99.2051" x2="99.2051" y1="239.1024"
                  stroke-linejoin="bevel" y2="268.0158" stroke-width="0.8504"/>
            <path d="M99.6303 239.1024 L105.4987 239.1024 L105.4987 239.9528 L99.6303 239.9528 Z"
                  stroke="none"/>
            <text x="108.3334" xml:space="preserve" font-size="14" y="244.0237"
                  stroke="none">U14586</text><path d="M99.6303 267.1654 L103 267.1654 L103 268.0158 L99.6303 268.0158 Z"
                  stroke="none"/>
            <text x="67.077" xml:space="preserve" y="261.9922" stroke="none">NT1.14</text><line stroke-linecap="butt"
                  fill="none" x1="102.6214" x2="102.6214" y1="257.8111"
                  stroke-linejoin="bevel" y2="277.3701" stroke-width="0.8504"/>
            <path d="M103.0466 257.8111 L104.2461 257.8111 L104.2461 258.6615 L103.0466 258.6615 Z"
                  stroke="none"/>
            <text x="107.0807" xml:space="preserve" font-size="14" y="262.7323"
                  stroke="none"></text>
            <path d="M103.0466 276.5198 L106.7514 276.5198 L106.7514 277.3702 L103.0466 277.3702 Z"
                  stroke="none"/>
            <text x="109.586" xml:space="preserve" font-size="14" y="281.441"
                  stroke="none"></text>
            <path d="M73.0966 312.7677 L77 312.7677 L77 313.6181 L73.0966 313.6181 Z"
                  stroke="none"/>
            <text x="47.6422" xml:space="preserve" y="307.5945" stroke="none">NT1.2</text><line stroke-linecap="butt"
                  fill="none" x1="77.2266" x2="77.2266" y1="295.2284"
                  stroke-linejoin="bevel" y2="331.1575" stroke-width="0.8504"/>
            <path d="M77.6518 295.2284 L109.4845 295.2284 L109.4845 296.0788 L77.6518 296.0788 Z"
                  stroke="none"/>
            <text x="112.3191" xml:space="preserve" font-size="14" y="300.1496"
                  stroke="none">M62797</text><path d="M77.6518 330.3071 L79 330.3071 L79 331.1575 L77.6518 331.1575 Z"
                  stroke="none"/>
            <text x="49.3982" xml:space="preserve" y="325.1339" stroke="none">NT1.3</text><line stroke-linecap="butt"
                  fill="none" x1="79.0486" x2="79.0486" y1="313.937"
                  stroke-linejoin="bevel" y2="347.5276" stroke-width="0.8504"/>
            <path d="M79.4738 313.937 L108.4596 313.937 L108.4596 314.7874 L79.4738 314.7874 Z"
                  stroke="none"/>
            <text x="111.2942" xml:space="preserve" font-size="14" y="318.8583"
                  stroke="none">M62796</text><path d="M79.4738 346.6772 L80 346.6772 L80 347.5276 L79.4738 347.5276 Z"
                  stroke="none"/>
            <text x="49.994" xml:space="preserve" y="341.504" stroke="none">NT1.4</text><line stroke-linecap="butt"
                  fill="none" x1="79.618" x2="79.618" y1="332.6457"
                  stroke-linejoin="bevel" y2="361.5591" stroke-width="0.8504"/>
            <path d="M80.0432 332.6457 L119.9613 332.6457 L119.9613 333.4961 L80.0432 333.4961 Z"
                  stroke="none"/>
            <text x="122.7959" xml:space="preserve" font-size="14" y="337.567"
                  stroke="none">Y17612</text><path d="M80.0432 360.7087 L84 360.7087 L84 361.5591 L80.0432 361.5591 Z"
                  stroke="none"/>
            <text x="53.9005" xml:space="preserve" y="355.5355" stroke="none">NT1.5</text><line stroke-linecap="butt"
                  fill="none" x1="83.6038" x2="83.6038" y1="351.3544"
                  stroke-linejoin="bevel" y2="370.9135" stroke-width="0.8504"/>
            <path d="M84.029 351.3544 L103.7906 351.3544 L103.7906 352.2048 L84.029 352.2048 Z"
                  stroke="none"/>
            <text x="106.6252" xml:space="preserve" font-size="14" y="356.2757"
                  stroke="none">U62913</text><path d="M84.029 370.0631 L113.1286 370.0631 L113.1286 370.9135 L84.029 370.9135 Z"
                  stroke="none"/>
            <text x="115.9632" xml:space="preserve" font-size="14" y="374.9843"
                  stroke="none">U62914</text>
        </g>
    </g>
</svg>
