<?xml version="1.0"?>
<!DOCTYPE svg PUBLIC '-//W3C//DTD SVG 1.0//EN'
    'http://www.w3.org/TR/2001/REC-SVG-20010904/DTD/svg10.dtd' >

<svg fill-opacity="1" xmlns:xlink="http://www.w3.org/1999/xlink"
     color-rendering="auto" color-interpolation="auto" stroke="black"
     text-rendering="auto" stroke-linecap="square" stroke-miterlimit="10"
     stroke-opacity="1" shape-rendering="auto" fill="black"
     stroke-dasharray="none" font-weight="normal" stroke-width="1"
     xmlns="http://www.w3.org/2000/svg" font-family="&apos;Dialog&apos;"
     font-style="normal" stroke-linejoin="miter" font-size="12"
     stroke-dashoffset="0" image-rendering="auto">
    <!--Generated by the Batik Graphics2D SVG Generator-->
    <defs id="genericDefs"/>
    <g>
        <g fill="white" stroke="white">
            <rect x="0" width="222" height="766" y="0" stroke="none"/>
            <path fill="black"
                  d="M5 173.1429 L44 173.1429 L44 173.9933 L5 173.9933 Z"
                  stroke="none"/>
        </g>
        <g font-family="&apos;Arial&apos;" font-size="9">
            <text x="8.5039" xml:space="preserve" y="167.9697" stroke="none">NT1.79</text><line stroke-linecap="butt"
                  fill="none" x1="44.088" x2="44.088" y1="35.6457"
                  stroke-linejoin="bevel" y2="310.6401" stroke-width="0.8504"/>
            <path d="M44.5132 35.6457 L49 35.6457 L49 36.4961 L44.5132 36.4961 Z"
                  stroke="none"/>
            <text x="21.0103" xml:space="preserve" y="30.4724" stroke="none">NT1.1</text><line stroke-linecap="butt"
                  fill="none" x1="49.26" x2="49.26" y1="14.5984"
                  stroke-linejoin="bevel" y2="57.5433" stroke-width="0.8504"/>
            <path d="M49.6852 14.5984 L100.4422 14.5984 L100.4422 15.4488 L49.6852 15.4488 Z"
                  stroke="none"/>
            <text x="103.2769" xml:space="preserve" font-size="14" y="19.5197"
                  stroke="none"></text>
            <path d="M49.6852 56.6929 L64 56.6929 L64 57.5433 L49.6852 57.5433 Z"
                  stroke="none"/>
            <text x="34.0672" xml:space="preserve" y="51.5197" stroke="none">NT1.2</text><line stroke-linecap="butt"
                  fill="none" x1="63.6516" x2="63.6516" y1="42.6614"
                  stroke-linejoin="bevel" y2="71.5748" stroke-width="0.8504"/>
            <path d="M64.0768 42.6614 L87 42.6614 L87 43.5118 L64.0768 43.5118 Z"
                  stroke="none"/>
            <text x="52.643" xml:space="preserve" y="37.4882" stroke="none">NT1.21</text><line stroke-linecap="butt"
                  fill="none" x1="86.8131" x2="86.8131" y1="33.3071"
                  stroke-linejoin="bevel" y2="52.8661" stroke-width="0.8504"/>
            <path d="M87.2383 33.3071 L91.4475 33.3071 L91.4475 34.1575 L87.2383 34.1575 Z"
                  stroke="none"/>
            <text x="94.2821" xml:space="preserve" font-size="14" y="38.2283"
                  stroke="none">L16487</text><path d="M87.2383 52.0158 L93.0215 52.0158 L93.0215 52.8661 L87.2383 52.8661 Z"
                  stroke="none"/>
            <text x="95.8562" xml:space="preserve" font-size="14" y="56.937"
                  stroke="none">L16488</text><path d="M64.0768 70.7244 L136.0839 70.7244 L136.0839 71.5748 L64.0768 71.5748 Z"
                  stroke="none"/>
            <text x="138.9186" xml:space="preserve" font-size="14" y="75.6457"
                  stroke="none">AF414809</text><path d="M44.5132 309.7897 L66 309.7897 L66 310.6401 L44.5132 310.6401 Z"
                  stroke="none"/>
            <text x="35.8001" xml:space="preserve" y="304.6165" stroke="none">NT1.3</text><line stroke-linecap="butt"
                  fill="none" x1="65.4505" x2="65.4505" y1="133.8661"
                  stroke-linejoin="bevel" y2="486.5637" stroke-width="0.8504"/>
            <path d="M65.8757 133.8661 L71 133.8661 L71 134.7166 L65.8757 134.7166 Z"
                  stroke="none"/>
            <text x="40.9192" xml:space="preserve" y="128.6929" stroke="none">NT1.5</text><line stroke-linecap="butt"
                  fill="none" x1="70.6225" x2="70.6225" y1="112.8189"
                  stroke-linejoin="bevel" y2="155.7638" stroke-width="0.8504"/>
            <path d="M71.0477 112.8189 L80 112.8189 L80 113.6693 L71.0477 113.6693 Z"
                  stroke="none"/>
            <text x="44.7806" xml:space="preserve" y="107.6457" stroke="none">NT1.15</text><line stroke-linecap="butt"
                  fill="none" x1="80.4043" x2="80.4043" y1="98.7874"
                  stroke-linejoin="bevel" y2="127.7008" stroke-width="0.8504"/>
            <path d="M80.8295 98.7874 L88 98.7874 L88 99.6378 L80.8295 99.6378 Z"
                  stroke="none"/>
            <text x="52.2078" xml:space="preserve" y="93.6142" stroke="none">NT1.22</text><line stroke-linecap="butt"
                  fill="none" x1="87.7126" x2="87.7126" y1="89.4331"
                  stroke-linejoin="bevel" y2="108.9921" stroke-width="0.8504"/>
            <path d="M88.1378 89.4331 L106.7385 89.4331 L106.7385 90.2835 L88.1378 90.2835 Z"
                  stroke="none"/>
            <text x="109.5732" xml:space="preserve" font-size="14" y="94.3543"
                  stroke="none">AY350613</text><path d="M88.1378 108.1417 L120.1182 108.1417 L120.1182 108.9921 L88.1378 108.9921 Z"
                  stroke="none"/>
            <text x="122.9529" xml:space="preserve" font-size="14" y="113.063"
                  stroke="none">AB200414</text><path d="M80.8295 126.8504 L95.8324 126.8504 L95.8324 127.7008 L80.8295 127.7008 Z"
                  stroke="none"/>
            <text x="98.6671" xml:space="preserve" font-size="14" y="131.7717"
                  stroke="none">X81876</text><path d="M71.0477 154.9134 L79 154.9134 L79 155.7638 L71.0477 155.7638 Z"
                  stroke="none"/>
            <text x="43.147" xml:space="preserve" y="149.7402" stroke="none">NT1.13</text><line stroke-linecap="butt"
                  fill="none" x1="78.7178" x2="78.7178" y1="145.5591"
                  stroke-linejoin="bevel" y2="165.1181" stroke-width="0.8504"/>
            <path d="M79.143 145.5591 L95.6076 145.5591 L95.6076 146.4095 L79.143 146.4095 Z"
                  stroke="none"/>
            <text x="98.4422" xml:space="preserve" font-size="14" y="150.4803"
                  stroke="none"></text>
            <path d="M79.143 164.2677 L99.6552 164.2677 L99.6552 165.1181 L79.143 165.1181 Z"
                  stroke="none"/>
            <text x="102.4898" xml:space="preserve" font-size="14" y="169.189"
                  stroke="none">L16477</text><path d="M65.8757 485.7133 L69 485.7133 L69 486.5637 L65.8757 486.5637 Z"
                  stroke="none"/>
            <text x="38.9747" xml:space="preserve" y="480.54" stroke="none">NT1.4</text><line stroke-linecap="butt"
                  fill="none" x1="68.5987" x2="68.5987" y1="323.1452"
                  stroke-linejoin="bevel" y2="649.1317" stroke-width="0.8504"/>
            <path d="M69.0239 323.1452 L72 323.1452 L72 323.9956 L69.0239 323.9956 Z"
                  stroke="none"/>
            <text x="42.4337" xml:space="preserve" y="317.972" stroke="none">NT1.6</text><line stroke-linecap="butt"
                  fill="none" x1="72.0841" x2="72.0841" y1="238.8101"
                  stroke-linejoin="bevel" y2="408.3307" stroke-width="0.8504"/>
            <path d="M72.5094 238.8101 L78 238.8101 L78 239.6605 L72.5094 239.6605 Z"
                  stroke="none"/>
            <text x="43.7607" xml:space="preserve" y="233.6368" stroke="none">NT1.11</text><line stroke-linecap="butt"
                  fill="none" x1="77.9307" x2="77.9307" y1="182.9764"
                  stroke-linejoin="bevel" y2="295.4941" stroke-width="0.8504"/>
            <path d="M78.3559 182.9764 L102.1287 182.9764 L102.1287 183.8268 L78.3559 183.8268 Z"
                  stroke="none"/>
            <text x="104.9633" xml:space="preserve" font-size="14" y="187.8976"
                  stroke="none">ABZ44774</text><path d="M78.3559 294.6437 L80 294.6437 L80 295.4941 L78.3559 295.4941 Z"
                  stroke="none"/>
            <text x="44.635" xml:space="preserve" y="289.4705" stroke="none">NT1.14</text><line stroke-linecap="butt"
                  fill="none" x1="80.1795" x2="80.1795" y1="240.2717"
                  stroke-linejoin="bevel" y2="349.8661" stroke-width="0.8504"/>
            <path d="M80.6047 240.2717 L83 240.2717 L83 241.1221 L80.6047 241.1221 Z"
                  stroke="none"/>
            <text x="47.4195" xml:space="preserve" y="235.0984" stroke="none">NT1.17</text><line stroke-linecap="butt"
                  fill="none" x1="82.9903" x2="82.9903" y1="211.0394"
                  stroke-linejoin="bevel" y2="270.3543" stroke-width="0.8504"/>
            <path d="M83.4155 211.0394 L100 211.0394 L100 211.8898 L83.4155 211.8898 Z"
                  stroke="none"/>
            <text x="64.0134" xml:space="preserve" y="205.8662" stroke="none">NT1.42</text><line stroke-linecap="butt"
                  fill="none" x1="99.5182" x2="99.5182" y1="201.6851"
                  stroke-linejoin="bevel" y2="221.2441" stroke-width="0.8504"/>
            <path d="M99.9434 201.6851 L107.7505 201.6851 L107.7505 202.5355 L99.9434 202.5355 Z"
                  stroke="none"/>
            <text x="110.5851" xml:space="preserve" font-size="14" y="206.6063"
                  stroke="none">513919.0</text><path d="M99.9434 220.3938 L108.5375 220.3938 L108.5375 221.2442 L99.9434 221.2442 Z"
                  stroke="none"/>
            <text x="111.3721" xml:space="preserve" font-size="14" y="225.315"
                  stroke="none">L16476</text><path d="M83.4155 269.504 L86 269.504 L86 270.3544 L83.4155 270.3544 Z"
                  stroke="none"/>
            <text x="50.4816" xml:space="preserve" y="264.3307" stroke="none">NT1.20</text><line stroke-linecap="butt"
                  fill="none" x1="86.0261" x2="86.0261" y1="248.4567"
                  stroke-linejoin="bevel" y2="291.4016" stroke-width="0.8504"/>
            <path d="M86.4513 248.4567 L91 248.4567 L91 249.3071 L86.4513 249.3071 Z"
                  stroke="none"/>
            <text x="55.5148" xml:space="preserve" y="243.2835" stroke="none">NT1.27</text><line stroke-linecap="butt"
                  fill="none" x1="91.0856" x2="91.0856" y1="239.1024"
                  stroke-linejoin="bevel" y2="258.6614" stroke-width="0.8504"/>
            <path d="M91.5108 239.1024 L108.7624 239.1024 L108.7624 239.9528 L91.5108 239.9528 Z"
                  stroke="none"/>
            <text x="111.5971" xml:space="preserve" font-size="14" y="244.0236"
                  stroke="none">AY323522</text><path d="M91.5108 257.8111 L114.8339 257.8111 L114.8339 258.6615 L91.5108 258.6615 Z"
                  stroke="none"/>
            <text x="117.6685" xml:space="preserve" font-size="14" y="262.7323"
                  stroke="none">AJ005635</text><path d="M86.4513 290.5512 L91 290.5512 L91 291.4016 L86.4513 291.4016 Z"
                  stroke="none"/>
            <text x="55.5016" xml:space="preserve" y="285.378" stroke="none">NT1.28</text><line stroke-linecap="butt"
                  fill="none" x1="91.0856" x2="91.0856" y1="276.5197"
                  stroke-linejoin="bevel" y2="305.4331" stroke-width="0.8504"/>
            <path d="M91.5108 276.5197 L105.5018 276.5197 L105.5018 277.3701 L91.5108 277.3701 Z"
                  stroke="none"/>
            <text x="108.3364" xml:space="preserve" font-size="14" y="281.441"
                  stroke="none">AF481227</text><path d="M91.5108 304.5827 L105 304.5827 L105 305.4331 L91.5108 305.4331 Z"
                  stroke="none"/>
            <text x="71.0823" xml:space="preserve" y="299.4095" stroke="none">NT1.51</text><line stroke-linecap="butt"
                  fill="none" x1="105.2524" x2="105.2524" y1="295.2284"
                  stroke-linejoin="bevel" y2="314.7874" stroke-width="0.8504"/>
            <path d="M105.6776 295.2284 L108.7624 295.2284 L108.7624 296.0788 L105.6776 296.0788 Z"
                  stroke="none"/>
            <text x="111.5971" xml:space="preserve" font-size="14" y="300.1497"
                  stroke="none">AB108825</text><path d="M105.6776 313.9371 L113.0349 313.9371 L113.0349 314.7875 L105.6776 314.7875 Z"
                  stroke="none"/>
            <text x="115.8696" xml:space="preserve" font-size="14" y="318.8583"
                  stroke="none"></text>
            <path d="M80.6047 349.0158 L107 349.0158 L107 349.8662 L80.6047 349.8662 Z"
                  stroke="none"/>
            <text x="70.9779" xml:space="preserve" y="343.8426" stroke="none">NT1.55</text><line stroke-linecap="butt"
                  fill="none" x1="106.6016" x2="106.6016" y1="332.6457"
                  stroke-linejoin="bevel" y2="366.2363" stroke-width="0.8504"/>
            <path d="M107.0268 332.6457 L106.1764 332.6457 L106.1764 333.4961 L107.0268 333.4961 Z"
                  stroke="none"/>
            <text x="109.011" xml:space="preserve" font-size="14" y="337.567"
                  stroke="none">AY957555</text><path d="M107.0268 365.3859 L107 365.3859 L107 366.2363 L107.0268 366.2363 Z"
                  stroke="none"/>
            <text x="71.4805" xml:space="preserve" y="360.2127" stroke="none">NT1.57</text><line stroke-linecap="butt"
                  fill="none" x1="107.0513" x2="107.0513" y1="351.3544"
                  stroke-linejoin="bevel" y2="380.2678" stroke-width="0.8504"/>
            <path d="M107.4765 351.3544 L106.6261 351.3544 L106.6261 352.2048 L107.4765 352.2048 Z"
                  stroke="none"/>
            <text x="109.4608" xml:space="preserve" font-size="14" y="356.2757"
                  stroke="none"></text>
            <path d="M107.4765 379.4174 L108 379.4174 L108 380.2679 L107.4765 380.2679 Z"
                  stroke="none"/>
            <text x="71.917" xml:space="preserve" y="374.2442" stroke="none">NT1.59</text><line stroke-linecap="butt"
                  fill="none" x1="107.501" x2="107.501" y1="370.0631"
                  stroke-linejoin="bevel" y2="389.6221" stroke-width="0.8504"/>
            <path d="M107.9263 370.0631 L107.7505 370.0631 L107.7505 370.9135 L107.9263 370.9135 Z"
                  stroke="none"/>
            <text x="110.5851" xml:space="preserve" font-size="14" y="374.9843"
                  stroke="none"></text>
            <path d="M107.9263 388.7718 L107.4132 388.7718 L107.4132 389.6222 L107.9263 389.6222 Z"
                  stroke="none"/>
            <text x="110.2478" xml:space="preserve" font-size="14" y="393.693"
                  stroke="none"></text>
            <path d="M72.5094 407.4804 L89.536 407.4804 L89.536 408.3308 L72.5094 408.3308 Z"
                  stroke="none"/>
            <text x="92.3707" xml:space="preserve" font-size="14" y="412.4016"
                  stroke="none">AF487886</text><path d="M69.0239 648.2812 L72 648.2812 L72 649.1316 L69.0239 649.1316 Z"
                  stroke="none"/>
            <text x="42.6586" xml:space="preserve" y="643.108" stroke="none">NT1.7</text><line stroke-linecap="butt"
                  fill="none" x1="72.309" x2="72.309" y1="566.3578"
                  stroke-linejoin="bevel" y2="731.0552" stroke-width="0.8504"/>
            <path d="M72.7342 566.3578 L76 566.3578 L76 567.2081 L72.7342 567.2081 Z"
                  stroke="none"/>
            <text x="46.0184" xml:space="preserve" y="561.1846" stroke="none">NT1.8</text><line stroke-linecap="butt"
                  fill="none" x1="75.682" x2="75.682" y1="475.0069"
                  stroke-linejoin="bevel" y2="658.5591" stroke-width="0.8504"/>
            <path d="M76.1072 475.0069 L78 475.0069 L78 475.8573 L76.1072 475.8573 Z"
                  stroke="none"/>
            <text x="42.8757" xml:space="preserve" y="469.8337" stroke="none">NT1.12</text><line stroke-linecap="butt"
                  fill="none" x1="78.3805" x2="78.3805" y1="426.189"
                  stroke-linejoin="bevel" y2="524.6752" stroke-width="0.8504"/>
            <path d="M78.8057 426.189 L98.8681 426.189 L98.8681 427.0394 L78.8057 427.0394 Z"
                  stroke="none"/>
            <text x="101.7027" xml:space="preserve" font-size="14" y="431.1103"
                  stroke="none">AJ011683</text><path d="M78.8057 523.8248 L83 523.8248 L83 524.6752 L78.8057 524.6752 Z"
                  stroke="none"/>
            <text x="47.4195" xml:space="preserve" y="518.6516" stroke="none">NT1.16</text><line stroke-linecap="butt"
                  fill="none" x1="82.9903" x2="82.9903" y1="472.9606"
                  stroke-linejoin="bevel" y2="575.5394" stroke-width="0.8504"/>
            <path d="M83.4155 472.9607 L90 472.9607 L90 473.8111 L83.4155 473.8111 Z"
                  stroke="none"/>
            <text x="53.9671" xml:space="preserve" y="467.7874" stroke="none">NT1.24</text><line stroke-linecap="butt"
                  fill="none" x1="89.5115" x2="89.5115" y1="454.252"
                  stroke-linejoin="bevel" y2="492.5197" stroke-width="0.8504"/>
            <path d="M89.9367 454.252 L95 454.252 L95 455.1024 L89.9367 455.1024 Z"
                  stroke="none"/>
            <text x="59.0598" xml:space="preserve" y="449.0788" stroke="none">NT1.35</text><line stroke-linecap="butt"
                  fill="none" x1="94.6835" x2="94.6835" y1="444.8977"
                  stroke-linejoin="bevel" y2="464.4567" stroke-width="0.8504"/>
            <path d="M95.1087 444.8977 L98.6433 444.8977 L98.6433 445.7481 L95.1087 445.7481 Z"
                  stroke="none"/>
            <text x="101.4779" xml:space="preserve" font-size="14" y="449.8189"
                  stroke="none">AY323525</text><path d="M95.1087 463.6064 L101.9039 463.6064 L101.9039 464.4568 L95.1087 464.4568 Z"
                  stroke="none"/>
            <text x="104.7385" xml:space="preserve" font-size="14" y="468.5276"
                  stroke="none">AY836507</text><path d="M89.9367 491.6694 L106 491.6694 L106 492.5198 L89.9367 492.5198 Z"
                  stroke="none"/>
            <text x="70.4686" xml:space="preserve" y="486.4962" stroke="none">NT1.53</text><line stroke-linecap="butt"
                  fill="none" x1="106.0394" x2="106.0394" y1="482.315"
                  stroke-linejoin="bevel" y2="501.8741" stroke-width="0.8504"/>
            <path d="M106.4646 482.315 L108.7624 482.315 L108.7624 483.1654 L106.4646 483.1654 Z"
                  stroke="none"/>
            <text x="111.597" xml:space="preserve" font-size="14" y="487.2363"
                  stroke="none">AY323524</text><path d="M106.4646 501.0237 L113.5971 501.0237 L113.5971 501.8741 L106.4646 501.8741 Z"
                  stroke="none"/>
            <text x="116.4317" xml:space="preserve" font-size="14" y="505.945"
                  stroke="none">AB182483</text><path d="M83.4155 574.689 L90 574.689 L90 575.5394 L83.4155 575.5394 Z"
                  stroke="none"/>
            <text x="53.9407" xml:space="preserve" y="569.5157" stroke="none">NT1.23</text><line stroke-linecap="butt"
                  fill="none" x1="89.5115" x2="89.5115" y1="554.811"
                  stroke-linejoin="bevel" y2="595.4174" stroke-width="0.8504"/>
            <path d="M89.9367 554.811 L95 554.811 L95 555.6614 L89.9367 555.6614 Z"
                  stroke="none"/>
            <text x="59.3375" xml:space="preserve" y="549.6378" stroke="none">NT1.36</text><line stroke-linecap="butt"
                  fill="none" x1="94.9084" x2="94.9084" y1="533.7638"
                  stroke-linejoin="bevel" y2="576.7087" stroke-width="0.8504"/>
            <path d="M95.3336 533.7638 L100 533.7638 L100 534.6141 L95.3336 534.6141 Z"
                  stroke="none"/>
            <text x="64.6484" xml:space="preserve" y="528.5906" stroke="none">NT1.44</text><line stroke-linecap="butt"
                  fill="none" x1="100.1928" x2="100.1928" y1="519.7323"
                  stroke-linejoin="bevel" y2="548.6457" stroke-width="0.8504"/>
            <path d="M100.618 519.7323 L108.7624 519.7323 L108.7624 520.5826 L100.618 520.5826 Z"
                  stroke="none"/>
            <text x="111.597" xml:space="preserve" font-size="14" y="524.6536"
                  stroke="none">Y13105</text><path d="M100.618 547.7953 L104 547.7953 L104 548.6457 L100.618 548.6457 Z"
                  stroke="none"/>
            <text x="68.2066" xml:space="preserve" y="542.6221" stroke="none">NT1.48</text><line stroke-linecap="butt"
                  fill="none" x1="103.7907" x2="103.7907" y1="538.441"
                  stroke-linejoin="bevel" y2="558.0001" stroke-width="0.8504"/>
            <path d="M104.2159 538.441 L111.7981 538.441 L111.7981 539.2913 L104.2159 539.2913 Z"
                  stroke="none"/>
            <text x="114.6327" xml:space="preserve" font-size="14" y="543.3622"
                  stroke="none">AF414821</text><path d="M104.2159 557.1497 L117.8695 557.1497 L117.8695 558 L104.2159 558 Z"
                  stroke="none"/>
            <text x="120.7042" xml:space="preserve" font-size="14" y="562.0709"
                  stroke="none">AF414833</text><path d="M95.3336 575.8583 L108.5375 575.8583 L108.5375 576.7087 L95.3336 576.7087 Z"
                  stroke="none"/>
            <text x="111.3721" xml:space="preserve" font-size="14" y="580.7795"
                  stroke="none">L16483</text><path d="M89.9367 594.567 L103.7028 594.567 L103.7028 595.4174 L89.9367 595.4174 Z"
                  stroke="none"/>
            <text x="106.5374" xml:space="preserve" font-size="14" y="599.4882"
                  stroke="none">L16465</text><path d="M76.1072 657.7087 L78 657.7087 L78 658.5591 L76.1072 658.5591 Z"
                  stroke="none"/>
            <text x="42.1615" xml:space="preserve" y="652.5355" stroke="none">NT1.10</text><line stroke-linecap="butt"
                  fill="none" x1="77.7059" x2="77.7059" y1="636.6615"
                  stroke-linejoin="bevel" y2="679.6064" stroke-width="0.8504"/>
            <path d="M78.1311 636.6615 L84 636.6615 L84 637.5118 L78.1311 637.5118 Z"
                  stroke="none"/>
            <text x="47.856" xml:space="preserve" y="631.4883" stroke="none">NT1.18</text><line stroke-linecap="butt"
                  fill="none" x1="83.4401" x2="83.4401" y1="622.63"
                  stroke-linejoin="bevel" y2="651.5434" stroke-width="0.8504"/>
            <path d="M83.8653 622.63 L91 622.63 L91 623.4803 L83.8653 623.4803 Z"
                  stroke="none"/>
            <text x="55.1775" xml:space="preserve" y="617.4568" stroke="none">NT1.26</text><line stroke-linecap="butt"
                  fill="none" x1="90.7483" x2="90.7483" y1="613.2757"
                  stroke-linejoin="bevel" y2="632.8348" stroke-width="0.8504"/>
            <path d="M91.1735 613.2757 L94.8205 613.2757 L94.8205 614.126 L91.1735 614.126 Z"
                  stroke="none"/>
            <text x="97.6552" xml:space="preserve" font-size="14" y="618.1969"
                  stroke="none">AB108826</text><path d="M91.1735 631.9844 L104.7147 631.9844 L104.7147 632.8347 L91.1735 632.8347 Z"
                  stroke="none"/>
            <text x="107.5494" xml:space="preserve" font-size="14" y="636.9056"
                  stroke="none">L16474</text><path d="M83.8653 650.6931 L94.0334 650.6931 L94.0334 651.5434 L83.8653 651.5434 Z"
                  stroke="none"/>
            <text x="96.8681" xml:space="preserve" font-size="14" y="655.6143"
                  stroke="none">L16472</text><path d="M78.1311 678.756 L86 678.756 L86 679.6063 L78.1311 679.6063 Z"
                  stroke="none"/>
            <text x="49.8798" xml:space="preserve" y="673.5828" stroke="none">NT1.19</text><line stroke-linecap="butt"
                  fill="none" x1="85.4639" x2="85.4639" y1="669.4017"
                  stroke-linejoin="bevel" y2="688.9608" stroke-width="0.8504"/>
            <path d="M85.8891 669.4017 L93.5837 669.4017 L93.5837 670.252 L85.8891 670.252 Z"
                  stroke="none"/>
            <text x="96.4183" xml:space="preserve" font-size="14" y="674.3229"
                  stroke="none">ABO64923</text><path d="M85.8891 688.1104 L114.3841 688.1104 L114.3841 688.9607 L85.8891 688.9607 Z"
                  stroke="none"/>
            <text x="117.2187" xml:space="preserve" font-size="14" y="693.0316"
                  stroke="none">AJ006457</text><path d="M72.7342 730.2048 L76 730.2048 L76 731.0551 L72.7342 731.0551 Z"
                  stroke="none"/>
            <text x="46.693" xml:space="preserve" y="725.0316" stroke="none">NT1.9</text><line stroke-linecap="butt"
                  fill="none" x1="76.3567" x2="76.3567" y1="716.1733"
                  stroke-linejoin="bevel" y2="745.0867" stroke-width="0.8504"/>
            <path d="M76.7819 716.1733 L94 716.1733 L94 717.0237 L76.7819 717.0237 Z"
                  stroke="none"/>
            <text x="58.3917" xml:space="preserve" y="711.0001" stroke="none">NT1.32</text><line stroke-linecap="butt"
                  fill="none" x1="93.8964" x2="93.8964" y1="706.819"
                  stroke-linejoin="bevel" y2="726.3781" stroke-width="0.8504"/>
            <path d="M94.3217 706.819 L108.2002 706.819 L108.2002 707.6693 L94.3217 707.6693 Z"
                  stroke="none"/>
            <text x="111.0348" xml:space="preserve" font-size="14" y="711.7402"
                  stroke="none">L16482</text><path d="M94.3217 725.5276 L108.7623 725.5276 L108.7623 726.3779 L94.3217 726.3779 Z"
                  stroke="none"/>
            <text x="111.597" xml:space="preserve" font-size="14" y="730.4489"
                  stroke="none"></text>
            <path d="M76.7819 744.2363 L93.0215 744.2363 L93.0215 745.0866 L76.7819 745.0866 Z"
                  stroke="none"/>
            <text x="95.8561" xml:space="preserve" font-size="14" y="749.1576"
                  stroke="none">L16475</text>
        </g>
    </g>
</svg>
