<?xml version="1.0"?>
<!DOCTYPE svg PUBLIC '-//W3C//DTD SVG 1.0//EN'
    'http://www.w3.org/TR/2001/REC-SVG-20010904/DTD/svg10.dtd' >

<svg fill-opacity="1" xmlns:xlink="http://www.w3.org/1999/xlink"
     color-rendering="auto" color-interpolation="auto" stroke="black"
     text-rendering="auto" stroke-linecap="square" stroke-miterlimit="10"
     stroke-opacity="1" shape-rendering="auto" fill="black"
     stroke-dasharray="none" font-weight="normal" stroke-width="1"
     xmlns="http://www.w3.org/2000/svg" font-family="&apos;Dialog&apos;"
     font-style="normal" stroke-linejoin="miter" font-size="12"
     stroke-dashoffset="0" image-rendering="auto">
    <!--Generated by the Batik Graphics2D SVG Generator-->
    <defs id="genericDefs"/>
    <g>
        <g fill="white" stroke="white">
            <rect x="0" width="197" height="392" y="0" stroke="none"/>
            <path fill="black"
                  d="M5 121.1186 L44 121.1186 L44 121.9689 L5 121.9689 Z"
                  stroke="none"/>
        </g>
        <g font-family="&apos;Arial&apos;" font-size="9">
            <text x="8.5039" xml:space="preserve" y="115.9453" stroke="none">NT1.39</text><line stroke-linecap="butt"
                  fill="none" x1="44.088" x2="44.088" y1="14.5984"
                  stroke-linejoin="bevel" y2="227.6387" stroke-width="0.8504"/>
            <path d="M44.5132 14.5984 L72.4984 14.5984 L72.4984 15.4488 L44.5132 15.4488 Z"
                  stroke="none"/>
            <text x="75.3331" xml:space="preserve" font-size="14" y="19.5197"
                  stroke="none"></text>
            <path d="M44.5132 226.7883 L56 226.7883 L56 227.6387 L44.5132 227.6387 Z"
                  stroke="none"/>
            <text x="27.3964" xml:space="preserve" y="221.615" stroke="none">NT1.1</text><line stroke-linecap="butt"
                  fill="none" x1="55.6461" x2="55.6461" y1="146.6553"
                  stroke-linejoin="bevel" y2="307.7717" stroke-width="0.8504"/>
            <path d="M56.0713 146.6553 L58 146.6553 L58 147.5057 L56.0713 147.5057 Z"
                  stroke="none"/>
            <text x="28.8023" xml:space="preserve" y="141.482" stroke="none">NT1.2</text><line stroke-linecap="butt"
                  fill="none" x1="58.3866" x2="58.3866" y1="77.594"
                  stroke-linejoin="bevel" y2="216.5669" stroke-width="0.8504"/>
            <path d="M58.8118 77.594 L60 77.594 L60 78.4444 L58.8118 78.4444 Z"
                  stroke="none"/>
            <text x="30.709" xml:space="preserve" y="72.4208" stroke="none">NT1.5</text><line stroke-linecap="butt"
                  fill="none" x1="60.4123" x2="60.4123" y1="33.3071"
                  stroke-linejoin="bevel" y2="122.7313" stroke-width="0.8504"/>
            <path d="M60.8375 33.3071 L87.512 33.3071 L87.512 34.1575 L60.8375 34.1575 Z"
                  stroke="none"/>
            <text x="90.3467" xml:space="preserve" font-size="14" y="38.2283"
                  stroke="none"></text>
            <path d="M60.8375 121.8809 L77 121.8809 L77 122.7313 L60.8375 122.7313 Z"
                  stroke="none"/>
            <text x="41.351" xml:space="preserve" y="116.7077" stroke="none">NT1.12</text><line stroke-linecap="butt"
                  fill="none" x1="76.8557" x2="76.8557" y1="70.1398"
                  stroke-linejoin="bevel" y2="174.4724" stroke-width="0.8504"/>
            <path d="M77.2809 70.1398 L98 70.1398 L98 70.9902 L77.2809 70.9902 Z"
                  stroke="none"/>
            <text x="62.2563" xml:space="preserve" y="64.9665" stroke="none">NT1.26</text><line stroke-linecap="butt"
                  fill="none" x1="97.8271" x2="97.8271" y1="52.0157"
                  stroke-linejoin="bevel" y2="89.1142" stroke-width="0.8504"/>
            <path d="M98.2523 52.0158 L100.9766 52.0158 L100.9766 52.8661 L98.2523 52.8661 Z"
                  stroke="none"/>
            <text x="103.8112" xml:space="preserve" font-size="14" y="56.937"
                  stroke="none">M21292</text><path d="M98.2523 88.2638 L99 88.2638 L99 89.1142 L98.2523 89.1142 Z"
                  stroke="none"/>
            <text x="63.0904" xml:space="preserve" y="83.0906" stroke="none">NT1.27</text><line stroke-linecap="butt"
                  fill="none" x1="98.6612" x2="98.6612" y1="70.7244"
                  stroke-linejoin="bevel" y2="106.6535" stroke-width="0.8504"/>
            <path d="M99.0864 70.7244 L101.9298 70.7244 L101.9298 71.5748 L99.0864 71.5748 Z"
                  stroke="none"/>
            <text x="104.7645" xml:space="preserve" font-size="14" y="75.6457"
                  stroke="none">AJ698862</text><path d="M99.0864 105.8031 L100 105.8031 L100 106.6535 L99.0864 106.6535 Z"
                  stroke="none"/>
            <text x="64.507" xml:space="preserve" y="100.6299" stroke="none">NT1.28</text><line stroke-linecap="butt"
                  fill="none" x1="100.0911" x2="100.0911" y1="89.4331"
                  stroke-linejoin="bevel" y2="123.0236" stroke-width="0.8504"/>
            <path d="M100.5163 89.4331 L100.0234 89.4331 L100.0234 90.2835 L100.5163 90.2835 Z"
                  stroke="none"/>
            <text x="102.858" xml:space="preserve" font-size="14" y="94.3543"
                  stroke="none">AJ698863</text><path d="M100.5163 122.1732 L101 122.1732 L101 123.0236 L100.5163 123.0236 Z"
                  stroke="none"/>
            <text x="64.9042" xml:space="preserve" y="117" stroke="none">NT1.30</text><line stroke-linecap="butt"
                  fill="none" x1="100.4486" x2="100.4486" y1="108.1417"
                  stroke-linejoin="bevel" y2="137.0551" stroke-width="0.8504"/>
            <path d="M100.8738 108.1417 L100.2617 108.1417 L100.2617 108.9921 L100.8738 108.9921 Z"
                  stroke="none"/>
            <text x="103.0963" xml:space="preserve" font-size="14" y="113.063"
                  stroke="none"></text>
            <path d="M100.8738 136.2047 L101 136.2047 L101 137.0551 L100.8738 137.0551 Z"
                  stroke="none"/>
            <text x="65.5396" xml:space="preserve" y="131.0315" stroke="none">NT1.32</text><line stroke-linecap="butt"
                  fill="none" x1="101.0443" x2="101.0443" y1="126.8504"
                  stroke-linejoin="bevel" y2="146.4094" stroke-width="0.8504"/>
            <path d="M101.4696 126.8504 L100.7383 126.8504 L100.7383 127.7008 L101.4696 127.7008 Z"
                  stroke="none"/>
            <text x="103.573" xml:space="preserve" font-size="14" y="131.7716"
                  stroke="none">AJ698866</text><path d="M101.4696 145.559 L100.9766 145.559 L100.9766 146.4094 L101.4696 146.4094 Z"
                  stroke="none"/>
            <text x="103.8113" xml:space="preserve" font-size="14" y="150.4803"
                  stroke="none"></text>
            <path d="M77.2809 173.6221 L88 173.6221 L88 174.4725 L77.2809 174.4725 Z"
                  stroke="none"/>
            <text x="52.2472" xml:space="preserve" y="168.4488" stroke="none">NT1.17</text><line stroke-linecap="butt"
                  fill="none" x1="87.8181" x2="87.8181" y1="164.2677"
                  stroke-linejoin="bevel" y2="183.8268" stroke-width="0.8504"/>
            <path d="M88.2433 164.2677 L103.9555 164.2677 L103.9555 165.1181 L88.2433 165.1181 Z"
                  stroke="none"/>
            <text x="106.7901" xml:space="preserve" font-size="14" y="169.189"
                  stroke="none">AB176554</text><path d="M88.2433 182.9764 L113.7262 182.9764 L113.7262 183.8268 L88.2433 183.8268 Z"
                  stroke="none"/>
            <text x="116.5609" xml:space="preserve" font-size="14" y="187.8976"
                  stroke="none">AY102612</text><path d="M58.8118 215.7165 L76 215.7165 L76 216.5669 L58.8118 216.5669 Z"
                  stroke="none"/>
            <text x="42.2091" xml:space="preserve" y="210.5433" stroke="none">NT1.11</text><line stroke-linecap="butt"
                  fill="none" x1="76.3792" x2="76.3792" y1="201.685"
                  stroke-linejoin="bevel" y2="230.5984" stroke-width="0.8504"/>
            <path d="M76.8044 201.685 L93.589 201.685 L93.589 202.5354 L76.8044 202.5354 Z"
                  stroke="none"/>
            <text x="96.4236" xml:space="preserve" font-size="14" y="206.6063"
                  stroke="none">86374.0</text><path d="M76.8044 229.748 L86 229.748 L86 230.5984 L76.8044 230.5984 Z"
                  stroke="none"/>
            <text x="50.2216" xml:space="preserve" y="224.5748" stroke="none">NT1.13</text><line stroke-linecap="butt"
                  fill="none" x1="85.7924" x2="85.7924" y1="220.3937"
                  stroke-linejoin="bevel" y2="239.9528" stroke-width="0.8504"/>
            <path d="M86.2176 220.3937 L90.2526 220.3937 L90.2526 221.2441 L86.2176 221.2441 Z"
                  stroke="none"/>
            <text x="93.0873" xml:space="preserve" font-size="14" y="225.315"
                  stroke="none"></text>
            <path d="M86.2176 239.1024 L91.8016 239.1024 L91.8016 239.9528 L86.2176 239.9528 Z"
                  stroke="none"/>
            <text x="94.6363" xml:space="preserve" font-size="14" y="244.0237"
                  stroke="none"></text>
            <path d="M56.0713 306.9213 L58 306.9213 L58 307.7717 L56.0713 307.7717 Z"
                  stroke="none"/>
            <text x="28.7362" xml:space="preserve" y="301.748" stroke="none">NT1.3</text><line stroke-linecap="butt"
                  fill="none" x1="58.3867" x2="58.3867" y1="271.8425"
                  stroke-linejoin="bevel" y2="342.8504" stroke-width="0.8504"/>
            <path d="M58.8119 271.8425 L61 271.8425 L61 272.6929 L58.8119 272.6929 Z"
                  stroke="none"/>
            <text x="31.2385" xml:space="preserve" y="266.6693" stroke="none">NT1.6</text><line stroke-linecap="butt"
                  fill="none" x1="60.889" x2="60.889" y1="257.811"
                  stroke-linejoin="bevel" y2="286.7244" stroke-width="0.8504"/>
            <path d="M61.3142 257.811 L87.2737 257.811 L87.2737 258.6614 L61.3142 258.6614 Z"
                  stroke="none"/>
            <text x="90.1084" xml:space="preserve" font-size="14" y="262.7323"
                  stroke="none"></text>
            <path d="M61.3142 285.8741 L70 285.8741 L70 286.7245 L61.3142 286.7245 Z"
                  stroke="none"/>
            <text x="39.8045" xml:space="preserve" y="280.7008" stroke="none">NT1.9</text><line stroke-linecap="butt"
                  fill="none" x1="69.4681" x2="69.4681" y1="276.5197"
                  stroke-linejoin="bevel" y2="296.0788" stroke-width="0.8504"/>
            <path d="M69.8934 276.5197 L94.3039 276.5197 L94.3039 277.3701 L69.8934 277.3701 Z"
                  stroke="none"/>
            <text x="97.1386" xml:space="preserve" font-size="14" y="281.441"
                  stroke="none"></text>
            <path d="M69.8934 295.2284 L96.5679 295.2284 L96.5679 296.0788 L69.8934 296.0788 Z"
                  stroke="none"/>
            <text x="99.4025" xml:space="preserve" font-size="14" y="300.1497"
                  stroke="none"></text>
            <path d="M58.8119 342 L60 342 L60 342.8504 L58.8119 342.8504 Z"
                  stroke="none"/>
            <text x="30.55" xml:space="preserve" y="336.8268" stroke="none">NT1.4</text><line stroke-linecap="butt"
                  fill="none" x1="60.174" x2="60.174" y1="323.2914"
                  stroke-linejoin="bevel" y2="361.5591" stroke-width="0.8504"/>
            <path d="M60.5992 323.2914 L63 323.2914 L63 324.1418 L60.5992 324.1418 Z"
                  stroke="none"/>
            <text x="33.2641" xml:space="preserve" y="318.1181" stroke="none">NT1.7</text><line stroke-linecap="butt"
                  fill="none" x1="62.9146" x2="62.9146" y1="313.937"
                  stroke-linejoin="bevel" y2="333.4961" stroke-width="0.8504"/>
            <path d="M63.3398 313.937 L88.3461 313.937 L88.3461 314.7874 L63.3398 314.7874 Z"
                  stroke="none"/>
            <text x="91.1808" xml:space="preserve" font-size="14" y="318.8583"
                  stroke="none"></text>
            <path d="M63.3398 332.6457 L88.8228 332.6457 L88.8228 333.4961 L63.3398 333.4961 Z"
                  stroke="none"/>
            <text x="91.6574" xml:space="preserve" font-size="14" y="337.567"
                  stroke="none">X87277</text><path d="M60.5992 360.7087 L66 360.7087 L66 361.5591 L60.5992 361.5591 Z"
                  stroke="none"/>
            <text x="36.4681" xml:space="preserve" y="355.5354" stroke="none">NT1.8</text><line stroke-linecap="butt"
                  fill="none" x1="66.1318" x2="66.1318" y1="351.3543"
                  stroke-linejoin="bevel" y2="370.9134" stroke-width="0.8504"/>
            <path d="M66.557 351.3543 L87.0354 351.3543 L87.0354 352.2047 L66.557 352.2047 Z"
                  stroke="none"/>
            <text x="89.8701" xml:space="preserve" font-size="14" y="356.2756"
                  stroke="none"></text>
            <path d="M66.557 370.063 L87.2737 370.063 L87.2737 370.9135 L66.557 370.9135 Z"
                  stroke="none"/>
            <text x="90.1084" xml:space="preserve" font-size="14" y="374.9843"
                  stroke="none"></text>
        </g>
    </g>
</svg>
