<?xml version="1.0"?>
<!DOCTYPE svg PUBLIC '-//W3C//DTD SVG 1.0//EN'
    'http://www.w3.org/TR/2001/REC-SVG-20010904/DTD/svg10.dtd' >

<svg fill-opacity="1" xmlns:xlink="http://www.w3.org/1999/xlink"
     color-rendering="auto" color-interpolation="auto" stroke="black"
     text-rendering="auto" stroke-linecap="square" stroke-miterlimit="10"
     stroke-opacity="1" shape-rendering="auto" fill="black"
     stroke-dasharray="none" font-weight="normal" stroke-width="1"
     xmlns="http://www.w3.org/2000/svg" font-family="&apos;Dialog&apos;"
     font-style="normal" stroke-linejoin="miter" font-size="12"
     stroke-dashoffset="0" image-rendering="auto">
    <!--Generated by the Batik Graphics2D SVG Generator-->
    <defs id="genericDefs"/>
    <g>
        <g fill="white" stroke="white">
            <rect x="0" width="203" height="336" y="0" stroke="none"/>
            <path fill="black"
                  d="M5 221.1112 L44 221.1112 L44 221.9616 L5 221.9616 Z"
                  stroke="none"/>
        </g>
        <g font-family="&apos;Arial&apos;" font-size="9">
            <text x="8.5039" xml:space="preserve" y="215.938" stroke="none">NT1.33</text><line stroke-linecap="butt"
                  fill="none" x1="44.0748" x2="44.0748" y1="167.1909"
                  stroke-linejoin="bevel" y2="275.0315" stroke-width="0.8504"/>
            <path d="M44.5 167.1909 L46 167.1909 L46 168.0414 L44.5 168.0414 Z"
                  stroke="none"/>
            <text x="17.9191" xml:space="preserve" y="162.0177" stroke="none">NT1.1</text><line stroke-linecap="butt"
                  fill="none" x1="46.1687" x2="46.1687" y1="118.6654"
                  stroke-linejoin="bevel" y2="216.567" stroke-width="0.8504"/>
            <path d="M46.5939 118.6654 L62 118.6654 L62 119.5157 L46.5939 119.5157 Z"
                  stroke="none"/>
            <text x="31.821" xml:space="preserve" y="113.4921" stroke="none">NT1.5</text><line stroke-linecap="butt"
                  fill="none" x1="61.5243" x2="61.5243" y1="77.7402"
                  stroke-linejoin="bevel" y2="160.4409" stroke-width="0.8504"/>
            <path d="M61.9495 77.7402 L65 77.7402 L65 78.5906 L61.9495 78.5906 Z"
                  stroke="none"/>
            <text x="35.1311" xml:space="preserve" y="72.5669" stroke="none">NT1.7</text><line stroke-linecap="butt"
                  fill="none" x1="64.7816" x2="64.7816" y1="37.9843"
                  stroke-linejoin="bevel" y2="118.3465" stroke-width="0.8504"/>
            <path d="M65.2068 37.9843 L68 37.9843 L68 38.8346 L65.2068 38.8346 Z"
                  stroke="none"/>
            <text x="37.7935" xml:space="preserve" y="32.811" stroke="none">NT1.9</text><line stroke-linecap="butt"
                  fill="none" x1="67.4572" x2="67.4572" y1="14.5984"
                  stroke-linejoin="bevel" y2="62.2205" stroke-width="0.8504"/>
            <path d="M67.8824 14.5984 L69.0096 14.5984 L69.0096 15.4488 L67.8824 15.4488 Z"
                  stroke="none"/>
            <text x="71.8442" xml:space="preserve" font-size="14" y="19.5197"
                  stroke="none">AB184169</text><path d="M67.8824 61.3701 L69 61.3701 L69 62.2205 L67.8824 62.2205 Z"
                  stroke="none"/>
            <text x="33.5414" xml:space="preserve" y="56.1969" stroke="none">NT1.10</text><line stroke-linecap="butt"
                  fill="none" x1="69.0858" x2="69.0858" y1="42.6614"
                  stroke-linejoin="bevel" y2="80.9291" stroke-width="0.8504"/>
            <path d="M69.511 42.6614 L71 42.6614 L71 43.5118 L69.511 43.5118 Z"
                  stroke="none"/>
            <text x="35.1436" xml:space="preserve" y="37.4882" stroke="none">NT1.13</text><line stroke-linecap="butt"
                  fill="none" x1="70.7144" x2="70.7144" y1="33.3071"
                  stroke-linejoin="bevel" y2="52.8661" stroke-width="0.8504"/>
            <path d="M71.1396 33.3071 L75.5241 33.3071 L75.5241 34.1575 L71.1396 34.1575 Z"
                  stroke="none"/>
            <text x="78.3588" xml:space="preserve" font-size="14" y="38.2283"
                  stroke="none"></text>
            <path d="M71.1396 52.0158 L72.6158 52.0158 L72.6158 52.8661 L71.1396 52.8661 Z"
                  stroke="none"/>
            <text x="75.4505" xml:space="preserve" font-size="14" y="56.937"
                  stroke="none">AB184705</text><path d="M69.511 80.0788 L72 80.0788 L72 80.9291 L69.511 80.9291 Z"
                  stroke="none"/>
            <text x="36.6823" xml:space="preserve" y="74.9055" stroke="none">NT1.14</text><line stroke-linecap="butt"
                  fill="none" x1="72.2267" x2="72.2267" y1="70.7244"
                  stroke-linejoin="bevel" y2="90.2835" stroke-width="0.8504"/>
            <path d="M72.6519 70.7244 L79.014 70.7244 L79.014 71.5748 L72.6519 71.5748 Z"
                  stroke="none"/>
            <text x="81.8487" xml:space="preserve" font-size="14" y="75.6457"
                  stroke="none">AB184753</text><path d="M72.6519 89.4331 L82.9693 89.4331 L82.9693 90.2835 L72.6519 90.2835 Z"
                  stroke="none"/>
            <text x="85.8039" xml:space="preserve" font-size="14" y="94.3543"
                  stroke="none">AB184702</text><path d="M65.2068 117.4961 L67 117.4961 L67 118.3464 L65.2068 118.3464 Z"
                  stroke="none"/>
            <text x="37.2118" xml:space="preserve" y="112.3228" stroke="none">NT1.8</text><line stroke-linecap="butt"
                  fill="none" x1="66.8755" x2="66.8755" y1="108.1417"
                  stroke-linejoin="bevel" y2="127.7008" stroke-width="0.8504"/>
            <path d="M67.3007 108.1417 L74.4771 108.1417 L74.4771 108.9921 L67.3007 108.9921 Z"
                  stroke="none"/>
            <text x="77.3118" xml:space="preserve" font-size="14" y="113.063"
                  stroke="none">AB184819</text><path d="M67.3007 126.8504 L82.6203 126.8504 L82.6203 127.7008 L67.3007 127.7008 Z"
                  stroke="none"/>
            <text x="85.4549" xml:space="preserve" font-size="14" y="131.7717"
                  stroke="none">AB184870</text><path d="M61.9495 159.5906 L69 159.5906 L69 160.441 L61.9495 160.441 Z"
                  stroke="none"/>
            <text x="34.9158" xml:space="preserve" y="154.4173" stroke="none">NT1.11</text><line stroke-linecap="butt"
                  fill="none" x1="69.0858" x2="69.0858" y1="145.5591"
                  stroke-linejoin="bevel" y2="174.4724" stroke-width="0.8504"/>
            <path d="M69.511 145.5591 L82.1549 145.5591 L82.1549 146.4095 L69.511 146.4095 Z"
                  stroke="none"/>
            <text x="84.9896" xml:space="preserve" font-size="14" y="150.4803"
                  stroke="none">AY999857</text><path d="M69.511 173.6221 L76 173.6221 L76 174.4725 L69.511 174.4725 Z"
                  stroke="none"/>
            <text x="40.2489" xml:space="preserve" y="168.4488" stroke="none">NT1.19</text><line stroke-linecap="butt"
                  fill="none" x1="75.833" x2="75.833" y1="164.2677"
                  stroke-linejoin="bevel" y2="183.8268" stroke-width="0.8504"/>
            <path d="M76.2582 164.2677 L75.5241 164.2677 L75.5241 165.1181 L76.2582 165.1181 Z"
                  stroke="none"/>
            <text x="78.3587" xml:space="preserve" font-size="14" y="169.189"
                  stroke="none">AB184850</text><path d="M76.2582 182.9764 L77.2691 182.9764 L77.2691 183.8268 L76.2582 183.8268 Z"
                  stroke="none"/>
            <text x="80.1037" xml:space="preserve" font-size="14" y="187.8976"
                  stroke="none"></text>
            <path d="M46.5939 215.7165 L53 215.7165 L53 216.5669 L46.5939 216.5669 Z"
                  stroke="none"/>
            <text x="23.2654" xml:space="preserve" y="210.5433" stroke="none">NT1.3</text><line stroke-linecap="butt"
                  fill="none" x1="52.9159" x2="52.9159" y1="201.685"
                  stroke-linejoin="bevel" y2="230.5984" stroke-width="0.8504"/>
            <path d="M53.3411 201.685 L112.6335 201.685 L112.6335 202.5354 L53.3411 202.5354 Z"
                  stroke="none"/>
            <text x="115.4682" xml:space="preserve" font-size="14" y="206.6063"
                  stroke="none">AY822606</text><path d="M53.3411 229.748 L56 229.748 L56 230.5984 L53.3411 230.5984 Z"
                  stroke="none"/>
            <text x="26.7818" xml:space="preserve" y="224.5748" stroke="none">NT1.4</text><line stroke-linecap="butt"
                  fill="none" x1="56.4058" x2="56.4058" y1="220.3937"
                  stroke-linejoin="bevel" y2="239.9528" stroke-width="0.8504"/>
            <path d="M56.831 220.3937 L74.0118 220.3937 L74.0118 221.2441 L56.831 221.2441 Z"
                  stroke="none"/>
            <text x="76.8465" xml:space="preserve" font-size="14" y="225.315"
                  stroke="none"></text>
            <path d="M56.831 239.1024 L85.0632 239.1024 L85.0632 239.9528 L56.831 239.9528 Z"
                  stroke="none"/>
            <text x="87.8979" xml:space="preserve" font-size="14" y="244.0237"
                  stroke="none">DQOZG672</text><path d="M44.5 274.1811 L49 274.1811 L49 275.0315 L44.5 275.0315 Z"
                  stroke="none"/>
            <text x="19.3763" xml:space="preserve" y="269.0079" stroke="none">NT1.2</text><line stroke-linecap="butt"
                  fill="none" x1="48.9606" x2="48.9606" y1="257.811"
                  stroke-linejoin="bevel" y2="291.4016" stroke-width="0.8504"/>
            <path d="M49.3858 257.811 L75.1751 257.811 L75.1751 258.6614 L49.3858 258.6614 Z"
                  stroke="none"/>
            <text x="78.0098" xml:space="preserve" font-size="14" y="262.7323"
                  stroke="none">AB184618</text><path d="M49.3858 290.5512 L63 290.5512 L63 291.4016 L49.3858 291.4016 Z"
                  stroke="none"/>
            <text x="32.9208" xml:space="preserve" y="285.378" stroke="none">NT1.6</text><line stroke-linecap="butt"
                  fill="none" x1="62.5713" x2="62.5713" y1="276.5197"
                  stroke-linejoin="bevel" y2="305.4331" stroke-width="0.8504"/>
            <path d="M62.9965 276.5197 L84.3652 276.5197 L84.3652 277.3701 L62.9965 277.3701 Z"
                  stroke="none"/>
            <text x="87.1999" xml:space="preserve" font-size="14" y="281.441"
                  stroke="none">DQQ12930</text><path d="M62.9965 304.5827 L80 304.5827 L80 305.4331 L62.9965 305.4331 Z"
                  stroke="none"/>
            <text x="44.3602" xml:space="preserve" y="299.4095" stroke="none">NT1.24</text><line stroke-linecap="butt"
                  fill="none" x1="79.9046" x2="79.9046" y1="295.2284"
                  stroke-linejoin="bevel" y2="314.7874" stroke-width="0.8504"/>
            <path d="M80.3298 295.2284 L93.2064 295.2284 L93.2064 296.0788 L80.3298 296.0788 Z"
                  stroke="none"/>
            <text x="96.041" xml:space="preserve" font-size="14" y="300.1497"
                  stroke="none"></text>
            <path d="M80.3298 313.9371 L112.6335 313.9371 L112.6335 314.7875 L80.3298 314.7875 Z"
                  stroke="none"/>
            <text x="115.4682" xml:space="preserve" font-size="14" y="318.8583"
                  stroke="none">AB184617</text>
        </g>
    </g>
</svg>
