<?xml version="1.0"?>
<!DOCTYPE svg PUBLIC '-//W3C//DTD SVG 1.0//EN'
    'http://www.w3.org/TR/2001/REC-SVG-20010904/DTD/svg10.dtd' >

<svg fill-opacity="1" xmlns:xlink="http://www.w3.org/1999/xlink"
     color-rendering="auto" color-interpolation="auto" stroke="black"
     text-rendering="auto" stroke-linecap="square" stroke-miterlimit="10"
     stroke-opacity="1" shape-rendering="auto" fill="black"
     stroke-dasharray="none" font-weight="normal" stroke-width="1"
     xmlns="http://www.w3.org/2000/svg" font-family="&apos;Dialog&apos;"
     font-style="normal" stroke-linejoin="miter" font-size="12"
     stroke-dashoffset="0" image-rendering="auto">
    <!--Generated by the Batik Graphics2D SVG Generator-->
    <defs id="genericDefs"/>
    <g>
        <g fill="white" stroke="white">
            <rect x="0" width="160" height="430" y="0" stroke="none"/>
            <path fill="black"
                  d="M5 264.2887 L18 264.2887 L18 265.1391 L5 265.1391 Z"
                  stroke="none"/>
            <circle fill="black" r="1.2756" cx="17.4331" cy="264.2887"
                    stroke="none"/>
            <path fill="black"
                  d="M17.8583 263.4383 L20 263.4383 L20 264.2887 L17.8583 264.2887 Z"
                  stroke="none"/>
        </g>
        <g font-family="&apos;Arial&apos;" font-size="9">
            <text x="-9.8255" xml:space="preserve" y="258.265" stroke="none">NT1.2</text><line stroke-linecap="butt"
                  fill="none" x1="19.7589" x2="19.7589" y1="128.7505"
                  stroke-linejoin="bevel" y2="398.9764" stroke-width="0.8504"/>
            <path d="M20.1841 128.7505 L26 128.7505 L26 129.6009 L20.1841 129.6009 Z"
                  stroke="none"/>
            <text x="-3.3721" xml:space="preserve" y="123.5773" stroke="none">NT1.4</text><line stroke-linecap="butt"
                  fill="none" x1="26.252" x2="26.252" y1="14.5984"
                  stroke-linejoin="bevel" y2="243.753" stroke-width="0.8504"/>
            <path d="M26.6772 14.5984 L51.702 14.5984 L51.702 15.4488 L26.6772 15.4488 Z"
                  stroke="none"/>
            <text x="54.5366" xml:space="preserve" font-size="14" y="19.5197"
                  stroke="none">JO1740</text><path d="M26.6772 242.9026 L29 242.9026 L29 243.753 L26.6772 243.753 Z"
                  stroke="none"/>
            <text x="-0.9317" xml:space="preserve" y="237.7293" stroke="none">NT1.5</text><line stroke-linecap="butt"
                  fill="none" x1="28.7717" x2="28.7717" y1="143.8051"
                  stroke-linejoin="bevel" y2="342.8504" stroke-width="0.8504"/>
            <path d="M29.1968 143.8051 L31 143.8051 L31 144.6555 L29.1968 144.6555 Z"
                  stroke="none"/>
            <text x="0.8656" xml:space="preserve" y="138.6319" stroke="none">NT1.6</text><line stroke-linecap="butt"
                  fill="none" x1="30.516" x2="30.516" y1="33.3071"
                  stroke-linejoin="bevel" y2="255.1535" stroke-width="0.8504"/>
            <path d="M30.9412 33.3071 L48.8916 33.3071 L48.8916 34.1575 L30.9412 34.1575 Z"
                  stroke="none"/>
            <text x="51.7262" xml:space="preserve" font-size="14" y="38.2283"
                  stroke="none">M73020</text><path d="M30 87.0945 L37 87.0945 L37 87.9449 L30 87.9449 Z"
                  stroke="none"/>
            <text x="1.1475" xml:space="preserve" y="81.9213" stroke="none">NT1.13</text><line stroke-linecap="butt"
                  fill="none" x1="36.7183" x2="36.7183" y1="66.0472"
                  stroke-linejoin="bevel" y2="108.9921" stroke-width="0.8504"/>
            <path d="M37.1435 66.0472 L46 66.0472 L46 66.8976 L37.1435 66.8976 Z"
                  stroke="none"/>
            <text x="10.7417" xml:space="preserve" y="60.874" stroke="none">NT1.17</text><line stroke-linecap="butt"
                  fill="none" x1="46.3125" x2="46.3125" y1="52.0157"
                  stroke-linejoin="bevel" y2="80.9291" stroke-width="0.8504"/>
            <path d="M46.7377 52.0158 L78.1587 52.0158 L78.1587 52.8661 L46.7377 52.8661 Z"
                  stroke="none"/>
            <text x="80.9934" xml:space="preserve" font-size="14" y="56.937"
                  stroke="none">AF111110</text><path d="M46.7377 80.0787 L48 80.0787 L48 80.9291 L46.7377 80.9291 Z"
                  stroke="none"/>
            <text x="12.6491" xml:space="preserve" y="74.9055" stroke="none">NT1.22</text><line stroke-linecap="butt"
                  fill="none" x1="48.1539" x2="48.1539" y1="70.7244"
                  stroke-linejoin="bevel" y2="90.2835" stroke-width="0.8504"/>
            <path d="M48.5791 70.7244 L69.4367 70.7244 L69.4367 71.5748 L48.5791 71.5748 Z"
                  stroke="none"/>
            <text x="72.2714" xml:space="preserve" font-size="14" y="75.6457"
                  stroke="none">AF484672</text><path d="M48.5791 89.4331 L67.1109 89.4331 L67.1109 90.2835 L48.5791 90.2835 Z"
                  stroke="none"/>
            <text x="69.9455" xml:space="preserve" font-size="14" y="94.3543"
                  stroke="none">AF484676</text><path d="M37.1435 108.1417 L65.4633 108.1417 L65.4633 108.9921 L37.1435 108.9921 Z"
                  stroke="none"/>
            <text x="68.298" xml:space="preserve" font-size="14" y="113.063"
                  stroke="none">EF202525</text><path d="M30 166.6063 L34 166.6063 L34 167.4567 L30 167.4567 Z"
                  stroke="none"/>
            <text x="4.535" xml:space="preserve" y="161.4331" stroke="none">NT1.8</text><line stroke-linecap="butt"
                  fill="none" x1="34.1987" x2="34.1987" y1="150.2362"
                  stroke-linejoin="bevel" y2="183.8268" stroke-width="0.8504"/>
            <path d="M34.6239 150.2362 L35 150.2362 L35 151.0866 L34.6239 151.0866 Z"
                  stroke="none"/>
            <text x="-0.1828" xml:space="preserve" y="145.063" stroke="none">NT1.10</text><line stroke-linecap="butt"
                  fill="none" x1="35.3616" x2="35.3616" y1="136.2047"
                  stroke-linejoin="bevel" y2="165.1181" stroke-width="0.8504"/>
            <path d="M35.7868 136.2047 L39 136.2047 L39 137.0551 L35.7868 137.0551 Z"
                  stroke="none"/>
            <text x="3.7906" xml:space="preserve" y="131.0315" stroke="none">NT1.14</text><line stroke-linecap="butt"
                  fill="none" x1="39.335" x2="39.335" y1="126.8504"
                  stroke-linejoin="bevel" y2="146.4095" stroke-width="0.8504"/>
            <path d="M39.7602 126.8504 L55.6754 126.8504 L55.6754 127.7008 L39.7602 127.7008 Z"
                  stroke="none"/>
            <text x="58.51" xml:space="preserve" font-size="14" y="131.7717"
                  stroke="none">U97119</text><path d="M39.7602 145.5591 L61.2962 145.5591 L61.2962 146.4095 L39.7602 146.4095 Z"
                  stroke="none"/>
            <text x="64.1309" xml:space="preserve" font-size="14" y="150.4803"
                  stroke="none">U97117</text><path d="M35.7868 164.2677 L58.292 164.2677 L58.292 165.1181 L35.7868 165.1181 Z"
                  stroke="none"/>
            <text x="61.1266" xml:space="preserve" font-size="14" y="169.189"
                  stroke="none">EF199958</text><path d="M34.6239 182.9764 L53.0588 182.9764 L53.0588 183.8268 L34.6239 183.8268 Z"
                  stroke="none"/>
            <text x="55.8934" xml:space="preserve" font-size="14" y="187.8976"
                  stroke="none">EF199957</text><path d="M30.9412 254.3032 L32 254.3032 L32 255.1536 L30.9412 255.1536 Z"
                  stroke="none"/>
            <text x="2.4162" xml:space="preserve" y="249.1299" stroke="none">NT1.7</text><line stroke-linecap="butt"
                  fill="none" x1="32.0666" x2="32.0666" y1="222.7323"
                  stroke-linejoin="bevel" y2="286.7244" stroke-width="0.8504"/>
            <path d="M32.4918 222.7323 L37 222.7323 L37 223.5827 L32.4918 223.5827 Z"
                  stroke="none"/>
            <text x="1.0198" xml:space="preserve" y="217.5591" stroke="none">NT1.12</text><line stroke-linecap="butt"
                  fill="none" x1="36.5245" x2="36.5245" y1="201.685"
                  stroke-linejoin="bevel" y2="244.6299" stroke-width="0.8504"/>
            <path d="M36.9497 201.685 L51.702 201.685 L51.702 202.5354 L36.9497 202.5354 Z"
                  stroke="none"/>
            <text x="54.5366" xml:space="preserve" font-size="14" y="206.6063"
                  stroke="none">EF199956</text><path d="M36.9497 243.7796 L47 243.7796 L47 244.63 L36.9497 244.63 Z"
                  stroke="none"/>
            <text x="11.6976" xml:space="preserve" y="238.6063" stroke="none">NT1.19</text><line stroke-linecap="butt"
                  fill="none" x1="47.2816" x2="47.2816" y1="229.748"
                  stroke-linejoin="bevel" y2="258.6614" stroke-width="0.8504"/>
            <path d="M47.7068 229.748 L48 229.748 L48 230.5984 L47.7068 230.5984 Z"
                  stroke="none"/>
            <text x="12.1249" xml:space="preserve" y="224.5748" stroke="none">NT1.20</text><line stroke-linecap="butt"
                  fill="none" x1="47.6693" x2="47.6693" y1="220.3937"
                  stroke-linejoin="bevel" y2="239.9528" stroke-width="0.8504"/>
            <path d="M48.0945 220.3937 L47.9225 220.3937 L47.9225 221.2441 L48.0945 221.2441 Z"
                  stroke="none"/>
            <text x="50.7571" xml:space="preserve" font-size="14" y="225.315"
                  stroke="none">EF199953</text><path d="M48.0945 239.1024 L47.9225 239.1024 L47.9225 239.9528 L48.0945 239.9528 Z"
                  stroke="none"/>
            <text x="50.7571" xml:space="preserve" font-size="14" y="244.0237"
                  stroke="none">EF199954</text><path d="M47.7068 257.811 L47.7286 257.811 L47.7286 258.6614 L47.7068 258.6614 Z"
                  stroke="none"/>
            <text x="50.5633" xml:space="preserve" font-size="14" y="262.7323"
                  stroke="none">EF199955</text><path d="M32.4918 285.874 L34 285.874 L34 286.7244 L32.4918 286.7244 Z"
                  stroke="none"/>
            <text x="4.7288" xml:space="preserve" y="280.7008" stroke="none">NT1.9</text><line stroke-linecap="butt"
                  fill="none" x1="34.3925" x2="34.3925" y1="276.5197"
                  stroke-linejoin="bevel" y2="296.0788" stroke-width="0.8504"/>
            <path d="M34.8177 276.5197 L50.5391 276.5197 L50.5391 277.3701 L34.8177 277.3701 Z"
                  stroke="none"/>
            <text x="53.3737" xml:space="preserve" font-size="14" y="281.441"
                  stroke="none">AF117977</text><path d="M34.8177 295.2284 L52.3804 295.2284 L52.3804 296.0788 L34.8177 296.0788 Z"
                  stroke="none"/>
            <text x="55.215" xml:space="preserve" font-size="14" y="300.1497"
                  stroke="none">AF059648</text><path d="M29.1968 342 L35 342 L35 342.8504 L29.1968 342.8504 Z"
                  stroke="none"/>
            <text x="1.1916" xml:space="preserve" y="336.8268" stroke="none">NT1.11</text><line stroke-linecap="butt"
                  fill="none" x1="35.3616" x2="35.3616" y1="323.2913"
                  stroke-linejoin="bevel" y2="361.5591" stroke-width="0.8504"/>
            <path d="M35.7868 323.2913 L47 323.2913 L47 324.1417 L35.7868 324.1417 Z"
                  stroke="none"/>
            <text x="11.2131" xml:space="preserve" y="318.1181" stroke="none">NT1.18</text><line stroke-linecap="butt"
                  fill="none" x1="46.7971" x2="46.7971" y1="313.937"
                  stroke-linejoin="bevel" y2="333.4961" stroke-width="0.8504"/>
            <path d="M47.2223 313.937 L48.407 313.937 L48.407 314.7874 L47.2223 314.7874 Z"
                  stroke="none"/>
            <text x="51.2417" xml:space="preserve" font-size="14" y="318.8583"
                  stroke="none">EF199951</text><path d="M47.2223 332.6457 L49.0854 332.6457 L49.0854 333.4961 L47.2223 333.4961 Z"
                  stroke="none"/>
            <text x="51.9201" xml:space="preserve" font-size="14" y="337.567"
                  stroke="none">AB189641</text><path d="M35.7868 360.7086 L40 360.7086 L40 361.5591 L35.7868 361.5591 Z"
                  stroke="none"/>
            <text x="4.002" xml:space="preserve" y="355.5354" stroke="none">NT1.15</text><line stroke-linecap="butt"
                  fill="none" x1="39.6257" x2="39.6257" y1="351.3543"
                  stroke-linejoin="bevel" y2="370.9134" stroke-width="0.8504"/>
            <path d="M40.0509 351.3543 L61.7808 351.3543 L61.7808 352.2047 L40.0509 352.2047 Z"
                  stroke="none"/>
            <text x="64.6154" xml:space="preserve" font-size="14" y="356.2756"
                  stroke="none">EF199950</text><path d="M40.0509 370.063 L58.7765 370.063 L58.7765 370.9134 L40.0509 370.9134 Z"
                  stroke="none"/>
            <text x="61.6112" xml:space="preserve" font-size="14" y="374.9843"
                  stroke="none">EF199952</text><path d="M20.1841 398.126 L24 398.126 L24 398.9764 L20.1841 398.9764 Z"
                  stroke="none"/>
            <text x="-5.6274" xml:space="preserve" y="392.9528" stroke="none">NT1.3</text><line stroke-linecap="butt"
                  fill="none" x1="24.023" x2="24.023" y1="388.7717"
                  stroke-linejoin="bevel" y2="408.3307" stroke-width="0.8504"/>
            <path d="M24.4482 388.7717 L56.8383 388.7717 L56.8383 389.6221 L24.4482 389.6221 Z"
                  stroke="none"/>
            <text x="59.6729" xml:space="preserve" font-size="14" y="393.6929"
                  stroke="none">M15238</text><path d="M24.4482 407.4804 L40.9449 407.4804 L40.9449 408.3308 L24.4482 408.3308 Z"
                  stroke="none"/>
            <text x="43.7795" xml:space="preserve" font-size="14" y="412.4016"
                  stroke="none">AF484671</text>
        </g>
    </g>
</svg>
