<?xml version="1.0"?>
<!DOCTYPE svg PUBLIC '-//W3C//DTD SVG 1.0//EN'
    'http://www.w3.org/TR/2001/REC-SVG-20010904/DTD/svg10.dtd' >

<svg fill-opacity="1" xmlns:xlink="http://www.w3.org/1999/xlink"
     color-rendering="auto" color-interpolation="auto" stroke="black"
     text-rendering="auto" stroke-linecap="square" stroke-miterlimit="10"
     stroke-opacity="1" shape-rendering="auto" fill="black"
     stroke-dasharray="none" font-weight="normal" stroke-width="1"
     xmlns="http://www.w3.org/2000/svg" font-family="&apos;Dialog&apos;"
     font-style="normal" stroke-linejoin="miter" font-size="12"
     stroke-dashoffset="0" image-rendering="auto">
    <!--Generated by the Batik Graphics2D SVG Generator-->
    <defs id="genericDefs"/>
    <g>
        <g fill="white" stroke="white">
            <rect x="0" width="158" height="430" y="0" stroke="none"/>
            <path fill="black"
                  d="M5 134.3512 L18 134.3512 L18 135.2016 L5 135.2016 Z"
                  stroke="none"/>
            <circle fill="black" r="1.2756" cx="17.4331" cy="134.3512"
                    stroke="none"/>
            <path fill="black"
                  d="M17.8583 133.5007 L18 133.5007 L18 134.3512 L17.8583 134.3512 Z"
                  stroke="none"/>
        </g>
        <g font-family="&apos;Arial&apos;" font-size="9">
            <text x="-11.9785" xml:space="preserve" y="128.3275" stroke="none">NT1.2</text><line stroke-linecap="butt"
                  fill="none" x1="17.6059" x2="17.6059" y1="14.5984"
                  stroke-linejoin="bevel" y2="253.2535" stroke-width="0.8504"/>
            <path d="M18.0311 14.5984 L47.1994 14.5984 L47.1994 15.4488 L18.0311 15.4488 Z"
                  stroke="none"/>
            <text x="50.0341" xml:space="preserve" font-size="14" y="19.5197"
                  stroke="none">AB005656</text><path d="M18.0311 252.4031 L19 252.4031 L19 253.2535 L18.0311 253.2535 Z"
                  stroke="none"/>
            <text x="-10.6041" xml:space="preserve" y="247.2298" stroke="none">NT1.3</text><line stroke-linecap="butt"
                  fill="none" x1="19.0463" x2="19.0463" y1="142.3435"
                  stroke-linejoin="bevel" y2="363.313" stroke-width="0.8504"/>
            <path d="M19.4715 142.3435 L24 142.3435 L24 143.1939 L19.4715 143.1939 Z"
                  stroke="none"/>
            <text x="-6.2252" xml:space="preserve" y="137.1703" stroke="none">NT1.6</text><line stroke-linecap="butt"
                  fill="none" x1="23.4253" x2="23.4253" y1="120.4193"
                  stroke-linejoin="bevel" y2="165.1181" stroke-width="0.8504"/>
            <path d="M23.8505 120.4193 L27 120.4193 L27 121.2697 L23.8505 121.2697 Z"
                  stroke="none"/>
            <text x="-3.0118" xml:space="preserve" y="115.2461" stroke="none">NT1.8</text><line stroke-linecap="butt"
                  fill="none" x1="26.6518" x2="26.6518" y1="95.2795"
                  stroke-linejoin="bevel" y2="146.4095" stroke-width="0.8504"/>
            <path d="M27.077 95.2795 L29 95.2795 L29 96.1299 L27.077 96.1299 Z"
                  stroke="none"/>
            <text x="-0.7071" xml:space="preserve" y="90.1063" stroke="none">NT1.9</text><line stroke-linecap="butt"
                  fill="none" x1="28.9566" x2="28.9566" y1="73.063"
                  stroke-linejoin="bevel" y2="118.3465" stroke-width="0.8504"/>
            <path d="M29.3818 73.063 L39 73.063 L39 73.9134 L29.3818 73.9134 Z"
                  stroke="none"/>
            <text x="3.4735" xml:space="preserve" y="67.8898" stroke="none">NT1.15</text><line stroke-linecap="butt"
                  fill="none" x1="39.0972" x2="39.0972" y1="56.6929"
                  stroke-linejoin="bevel" y2="90.2835" stroke-width="0.8504"/>
            <path d="M39.5224 56.6929 L43 56.6929 L43 57.5433 L39.5224 57.5433 Z"
                  stroke="none"/>
            <text x="7.4888" xml:space="preserve" y="51.5197" stroke="none">NT1.18</text><line stroke-linecap="butt"
                  fill="none" x1="43.0728" x2="43.0728" y1="42.6614"
                  stroke-linejoin="bevel" y2="71.5748" stroke-width="0.8504"/>
            <path d="M43.498 42.6614 L47 42.6614 L47 43.5118 L43.498 43.5118 Z"
                  stroke="none"/>
            <text x="11.2736" xml:space="preserve" y="37.4882" stroke="none">NT1.20</text><line stroke-linecap="butt"
                  fill="none" x1="46.818" x2="46.818" y1="33.3071"
                  stroke-linejoin="bevel" y2="52.8661" stroke-width="0.8504"/>
            <path d="M47.2432 33.3071 L48.8127 33.3071 L48.8127 34.1575 L47.2432 34.1575 Z"
                  stroke="none"/>
            <text x="51.6474" xml:space="preserve" font-size="14" y="38.2284"
                  stroke="none">AJ002949</text><path d="M47.2432 52.0158 L50.6565 52.0158 L50.6565 52.8662 L47.2432 52.8662 Z"
                  stroke="none"/>
            <text x="53.4911" xml:space="preserve" font-size="14" y="56.937"
                  stroke="none">AJ002947</text><path d="M43.498 70.7244 L56.7063 70.7244 L56.7063 71.5748 L43.498 71.5748 Z"
                  stroke="none"/>
            <text x="59.5409" xml:space="preserve" font-size="14" y="75.6457"
                  stroke="none">AY208972</text><path d="M39.5224 89.4331 L49.677 89.4331 L49.677 90.2835 L39.5224 90.2835 Z"
                  stroke="none"/>
            <text x="52.5116" xml:space="preserve" font-size="14" y="94.3543"
                  stroke="none">AB023426</text><path d="M29.3818 117.4961 L39 117.4961 L39 118.3465 L29.3818 118.3465 Z"
                  stroke="none"/>
            <text x="3.4952" xml:space="preserve" y="112.3229" stroke="none">NT1.14</text><line stroke-linecap="butt"
                  fill="none" x1="39.0396" x2="39.0396" y1="108.1417"
                  stroke-linejoin="bevel" y2="127.7008" stroke-width="0.8504"/>
            <path d="M39.4648 108.1417 L43.8576 108.1417 L43.8576 108.9921 L39.4648 108.9921 Z"
                  stroke="none"/>
            <text x="46.6923" xml:space="preserve" font-size="14" y="113.063"
                  stroke="none"></text>
            <path d="M39.4648 126.8504 L51.175 126.8504 L51.175 127.7008 L39.4648 127.7008 Z"
                  stroke="none"/>
            <text x="54.0097" xml:space="preserve" font-size="14" y="131.7717"
                  stroke="none"></text>
            <path d="M27.077 145.5591 L52.4426 145.5591 L52.4426 146.4095 L27.077 146.4095 Z"
                  stroke="none"/>
            <text x="55.2772" xml:space="preserve" font-size="14" y="150.4803"
                  stroke="none"></text>
            <path d="M23.8505 164.2677 L47.5451 164.2677 L47.5451 165.1181 L23.8505 165.1181 Z"
                  stroke="none"/>
            <text x="50.3798" xml:space="preserve" font-size="14" y="169.189"
                  stroke="none">D0367241</text><path d="M19.4715 362.4626 L21 362.4626 L21 363.313 L19.4715 363.313 Z"
                  stroke="none"/>
            <text x="-8.7915" xml:space="preserve" y="357.2894" stroke="none">NT1.4</text><line stroke-linecap="butt"
                  fill="none" x1="20.8325" x2="20.8325" y1="317.4449"
                  stroke-linejoin="bevel" y2="408.3307" stroke-width="0.8504"/>
            <path d="M21.2577 317.4449 L22 317.4449 L22 318.2953 L21.2577 318.2953 Z"
                  stroke="none"/>
            <text x="-7.488" xml:space="preserve" y="312.2717" stroke="none">NT1.5</text><line stroke-linecap="butt"
                  fill="none" x1="22.2153" x2="22.2153" y1="260.1496"
                  stroke-linejoin="bevel" y2="375.5906" stroke-width="0.8504"/>
            <path d="M22.6405 260.1496 L25 260.1496 L25 261 L22.6405 261 Z"
                  stroke="none"/>
            <text x="-4.3814" xml:space="preserve" y="254.9764" stroke="none">NT1.7</text><line stroke-linecap="butt"
                  fill="none" x1="25.269" x2="25.269" y1="218.0552"
                  stroke-linejoin="bevel" y2="303.0945" stroke-width="0.8504"/>
            <path d="M25.6942 218.0552 L30 218.0552 L30 218.9056 L25.6942 218.9056 Z"
                  stroke="none"/>
            <text x="-6.0117" xml:space="preserve" y="212.8819" stroke="none">NT1.10</text><line stroke-linecap="butt"
                  fill="none" x1="29.5327" x2="29.5327" y1="197.0079"
                  stroke-linejoin="bevel" y2="239.9528" stroke-width="0.8504"/>
            <path d="M29.9579 197.0079 L37 197.0079 L37 197.8583 L29.9579 197.8583 Z"
                  stroke="none"/>
            <text x="1.4522" xml:space="preserve" y="191.8347" stroke="none">NT1.13</text><line stroke-linecap="butt"
                  fill="none" x1="37.023" x2="37.023" y1="182.9764"
                  stroke-linejoin="bevel" y2="211.8898" stroke-width="0.8504"/>
            <path d="M37.4482 182.9764 L66.098 182.9764 L66.098 183.8268 L37.4482 183.8268 Z"
                  stroke="none"/>
            <text x="68.9326" xml:space="preserve" font-size="14" y="187.8977"
                  stroke="none"></text>
            <path d="M37.4482 211.0394 L43 211.0394 L43 211.8898 L37.4482 211.8898 Z"
                  stroke="none"/>
            <text x="7.0987" xml:space="preserve" y="205.8662" stroke="none">NT1.17</text><line stroke-linecap="butt"
                  fill="none" x1="42.6695" x2="42.6695" y1="201.6851"
                  stroke-linejoin="bevel" y2="221.2441" stroke-width="0.8504"/>
            <path d="M43.0947 201.6851 L42.1867 201.6851 L42.1867 202.5355 L43.0947 202.5355 Z"
                  stroke="none"/>
            <text x="45.0214" xml:space="preserve" font-size="14" y="206.6063"
                  stroke="none"></text>
            <path d="M43.0947 220.3938 L55.8421 220.3938 L55.8421 221.2442 L43.0947 221.2442 Z"
                  stroke="none"/>
            <text x="58.6767" xml:space="preserve" font-size="14" y="225.315"
                  stroke="none"></text>
            <path d="M29.9579 239.1024 L65.0032 239.1024 L65.0032 239.9528 L29.9579 239.9528 Z"
                  stroke="none"/>
            <text x="67.8379" xml:space="preserve" font-size="14" y="244.0237"
                  stroke="none"></text>
            <path d="M25.6942 302.2441 L35 302.2441 L35 303.0945 L25.6942 303.0945 Z"
                  stroke="none"/>
            <text x="0.2602" xml:space="preserve" y="297.0709" stroke="none">NT1.11</text><line stroke-linecap="butt"
                  fill="none" x1="34.4302" x2="34.4302" y1="281.1969"
                  stroke-linejoin="bevel" y2="324.1418" stroke-width="0.8504"/>
            <path d="M34.8554 281.1969 L70 281.1969 L70 282.0473 L34.8554 282.0473 Z"
                  stroke="none"/>
            <text x="33.8776" xml:space="preserve" y="276.0237" stroke="none">NT1.38</text><line stroke-linecap="butt"
                  fill="none" x1="69.4616" x2="69.4616" y1="267.1654"
                  stroke-linejoin="bevel" y2="296.0788" stroke-width="0.8504"/>
            <path d="M69.8868 267.1654 L70 267.1654 L70 268.0158 L69.8868 268.0158 Z"
                  stroke="none"/>
            <text x="34.2629" xml:space="preserve" y="261.9922" stroke="none">NT1.40</text><line stroke-linecap="butt"
                  fill="none" x1="69.8073" x2="69.8073" y1="257.8111"
                  stroke-linejoin="bevel" y2="277.3701" stroke-width="0.8504"/>
            <path d="M70.2325 257.8111 L69.3245 257.8111 L69.3245 258.6615 L70.2325 258.6615 Z"
                  stroke="none"/>
            <text x="72.1592" xml:space="preserve" font-size="14" y="262.7323"
                  stroke="none"></text>
            <path d="M70.2325 276.5197 L70.6497 276.5197 L70.6497 277.3701 L70.2325 277.3701 Z"
                  stroke="none"/>
            <text x="73.4844" xml:space="preserve" font-size="14" y="281.441"
                  stroke="none"></text>
            <path d="M69.8868 295.2284 L72.6663 295.2284 L72.6663 296.0788 L69.8868 296.0788 Z"
                  stroke="none"/>
            <text x="75.501" xml:space="preserve" font-size="14" y="300.1497"
                  stroke="none"></text>
            <path d="M34.8554 323.2914 L50 323.2914 L50 324.1418 L34.8554 324.1418 Z"
                  stroke="none"/>
            <text x="13.924" xml:space="preserve" y="318.1182" stroke="none">NT1.24</text><line stroke-linecap="butt"
                  fill="none" x1="49.4684" x2="49.4684" y1="313.9371"
                  stroke-linejoin="bevel" y2="333.4961" stroke-width="0.8504"/>
            <path d="M49.8936 313.9371 L74.9134 313.9371 L74.9134 314.7875 L49.8936 314.7875 Z"
                  stroke="none"/>
            <text x="77.7481" xml:space="preserve" font-size="14" y="318.8583"
                  stroke="none"></text>
            <path d="M49.8936 332.6458 L72.9544 332.6458 L72.9544 333.4962 L49.8936 333.4962 Z"
                  stroke="none"/>
            <text x="75.7891" xml:space="preserve" font-size="14" y="337.567"
                  stroke="none"></text>
            <path d="M22.6405 374.7402 L36 374.7402 L36 375.5906 L22.6405 375.5906 Z"
                  stroke="none"/>
            <text x="0.7692" xml:space="preserve" y="369.567" stroke="none">NT1.12</text><line stroke-linecap="butt"
                  fill="none" x1="36.274" x2="36.274" y1="360.7087"
                  stroke-linejoin="bevel" y2="389.6221" stroke-width="0.8504"/>
            <path d="M36.6992 360.7087 L53 360.7087 L53 361.5591 L36.6992 361.5591 Z"
                  stroke="none"/>
            <text x="17.1685" xml:space="preserve" y="355.5355" stroke="none">NT1.29</text><line stroke-linecap="butt"
                  fill="none" x1="52.7525" x2="52.7525" y1="351.3544"
                  stroke-linejoin="bevel" y2="370.9134" stroke-width="0.8504"/>
            <path d="M53.1777 351.3544 L52.2697 351.3544 L52.2697 352.2048 L53.1777 352.2048 Z"
                  stroke="none"/>
            <text x="55.1044" xml:space="preserve" font-size="14" y="356.2756"
                  stroke="none"></text>
            <path d="M53.1777 370.063 L60.5667 370.063 L60.5667 370.9135 L53.1777 370.9135 Z"
                  stroke="none"/>
            <text x="63.4013" xml:space="preserve" font-size="14" y="374.9843"
                  stroke="none"></text>
            <path d="M36.6992 388.7717 L52.4426 388.7717 L52.4426 389.6221 L36.6992 389.6221 Z"
                  stroke="none"/>
            <text x="55.2772" xml:space="preserve" font-size="14" y="393.693"
                  stroke="none"></text>
            <path d="M21.2577 407.4804 L66.0979 407.4804 L66.0979 408.3308 L21.2577 408.3308 Z"
                  stroke="none"/>
            <text x="68.9326" xml:space="preserve" font-size="14" y="412.4016"
                  stroke="none"></text>
        </g>
    </g>
</svg>
