<?xml version="1.0"?>
<!DOCTYPE svg PUBLIC '-//W3C//DTD SVG 1.0//EN'
    'http://www.w3.org/TR/2001/REC-SVG-20010904/DTD/svg10.dtd' >

<svg fill-opacity="1" xmlns:xlink="http://www.w3.org/1999/xlink"
     color-rendering="auto" color-interpolation="auto" stroke="black"
     text-rendering="auto" stroke-linecap="square" stroke-miterlimit="10"
     stroke-opacity="1" shape-rendering="auto" fill="black"
     stroke-dasharray="none" font-weight="normal" stroke-width="1"
     xmlns="http://www.w3.org/2000/svg" font-family="&apos;Dialog&apos;"
     font-style="normal" stroke-linejoin="miter" font-size="12"
     stroke-dashoffset="0" image-rendering="auto">
    <!--Generated by the Batik Graphics2D SVG Generator-->
    <defs id="genericDefs"/>
    <g>
        <g fill="white" stroke="white">
            <rect x="0" width="94" height="280" y="0" stroke="none"/>
            <path fill="black"
                  d="M5 171.8416 L18 171.8416 L18 172.692 L5 172.692 Z"
                  stroke="none"/>
            <circle fill="black" r="1.2756" cx="17.4331" cy="171.8416"
                    stroke="none"/>
            <path fill="black"
                  d="M17.8583 170.9911 L21 170.9911 L21 171.8416 L17.8583 171.8416 Z"
                  stroke="none"/>
        </g>
        <g font-family="&apos;Arial&apos;" font-size="9">
            <text x="-8.3778" xml:space="preserve" y="165.8179" stroke="none">NT1.2</text><line stroke-linecap="butt"
                  fill="none" x1="21.2066" x2="21.2066" y1="84.1713"
                  stroke-linejoin="bevel" y2="258.6614" stroke-width="0.8504"/>
            <path d="M21.6318 84.1713 L30 84.1713 L30 85.0217 L21.6318 85.0217 Z"
                  stroke="none"/>
            <text x="0.5639" xml:space="preserve" y="78.998" stroke="none">NT1.3</text><line stroke-linecap="butt"
                  fill="none" x1="30.2143" x2="30.2143" y1="14.5984"
                  stroke-linejoin="bevel" y2="154.5945" stroke-width="0.8504"/>
            <path d="M30.6395 14.5984 L82.6184 14.5984 L82.6184 15.4488 L30.6395 15.4488 Z"
                  stroke="none"/>
            <text x="85.453" xml:space="preserve" font-size="14" y="19.5197"
                  stroke="none"></text>
            <path d="M30.6395 153.7441 L48 153.7441 L48 154.5945 L30.6395 154.5945 Z"
                  stroke="none"/>
            <text x="17.8754" xml:space="preserve" y="148.5709" stroke="none">NT1.4</text><line stroke-linecap="butt"
                  fill="none" x1="47.4995" x2="47.4995" y1="82.4173"
                  stroke-linejoin="bevel" y2="225.9213" stroke-width="0.8504"/>
            <path d="M47.9247 82.4173 L51 82.4173 L51 83.2677 L47.9247 83.2677 Z"
                  stroke="none"/>
            <text x="21.6225" xml:space="preserve" y="77.2441" stroke="none">NT1.6</text><line stroke-linecap="butt"
                  fill="none" x1="51.273" x2="51.273" y1="33.3071"
                  stroke-linejoin="bevel" y2="132.378" stroke-width="0.8504"/>
            <path d="M51.6982 33.3071 L74.2192 33.3071 L74.2192 34.1575 L51.6982 34.1575 Z"
                  stroke="none"/>
            <text x="77.0539" xml:space="preserve" font-size="14" y="38.2283"
                  stroke="none"></text>
            <path d="M51.6982 131.5276 L58 131.5276 L58 132.378 L51.6982 132.378 Z"
                  stroke="none"/>
            <text x="27.8173" xml:space="preserve" y="126.3543" stroke="none">NT1.8</text><line stroke-linecap="butt"
                  fill="none" x1="57.481" x2="57.481" y1="103.4646"
                  stroke-linejoin="bevel" y2="160.4409" stroke-width="0.8504"/>
            <path d="M57.9062 103.4646 L60 103.4646 L60 104.315 L57.9062 104.315 Z"
                  stroke="none"/>
            <text x="30.617" xml:space="preserve" y="98.2913" stroke="none">NT1.9</text><line stroke-linecap="butt"
                  fill="none" x1="60.2807" x2="60.2807" y1="80.0788"
                  stroke-linejoin="bevel" y2="127.7008" stroke-width="0.8504"/>
            <path d="M60.7059 80.0788 L61 80.0788 L61 80.9291 L60.7059 80.9291 Z"
                  stroke="none"/>
            <text x="25.3449" xml:space="preserve" y="74.9055" stroke="none">NT1.10</text><line stroke-linecap="butt"
                  fill="none" x1="60.8894" x2="60.8894" y1="61.3701"
                  stroke-linejoin="bevel" y2="99.6378" stroke-width="0.8504"/>
            <path d="M61.3146 61.3701 L63 61.3701 L63 62.2205 L61.3146 62.2205 Z"
                  stroke="none"/>
            <text x="28.5452" xml:space="preserve" y="56.1969" stroke="none">NT1.11</text><line stroke-linecap="butt"
                  fill="none" x1="62.7153" x2="62.7153" y1="52.0157"
                  stroke-linejoin="bevel" y2="71.5748" stroke-width="0.8504"/>
            <path d="M63.1405 52.0158 L70.324 52.0158 L70.324 52.8661 L63.1405 52.8661 Z"
                  stroke="none"/>
            <text x="73.1587" xml:space="preserve" font-size="14" y="56.937"
                  stroke="none"></text>
            <path d="M63.1405 70.7244 L68.8633 70.7244 L68.8633 71.5748 L63.1405 71.5748 Z"
                  stroke="none"/>
            <text x="71.698" xml:space="preserve" font-size="14" y="75.6457"
                  stroke="none"></text>
            <path d="M61.3146 98.7874 L63 98.7874 L63 99.6378 L61.3146 99.6378 Z"
                  stroke="none"/>
            <text x="27.6974" xml:space="preserve" y="93.6142" stroke="none">NT1.12</text><line stroke-linecap="butt"
                  fill="none" x1="63.2022" x2="63.2022" y1="89.4331"
                  stroke-linejoin="bevel" y2="108.9921" stroke-width="0.8504"/>
            <path d="M63.6274 89.4331 L71.2978 89.4331 L71.2978 90.2835 L63.6274 90.2835 Z"
                  stroke="none"/>
            <text x="74.1325" xml:space="preserve" font-size="14" y="94.3543"
                  stroke="none"></text>
            <path d="M63.6274 108.1417 L69.8371 108.1417 L69.8371 108.9921 L63.6274 108.9921 Z"
                  stroke="none"/>
            <text x="72.6718" xml:space="preserve" font-size="14" y="113.063"
                  stroke="none"></text>
            <path d="M60.7059 126.8504 L70.324 126.8504 L70.324 127.7008 L60.7059 127.7008 Z"
                  stroke="none"/>
            <text x="73.1586" xml:space="preserve" font-size="14" y="131.7717"
                  stroke="none"></text>
            <path d="M57.9062 159.5906 L64 159.5906 L64 160.441 L57.9062 160.441 Z"
                  stroke="none"/>
            <text x="28.6051" xml:space="preserve" y="154.4173" stroke="none">NT1.13</text><line stroke-linecap="butt"
                  fill="none" x1="64.1759" x2="64.1759" y1="145.5591"
                  stroke-linejoin="bevel" y2="174.4724" stroke-width="0.8504"/>
            <path d="M64.6011 145.5591 L74.2192 145.5591 L74.2192 146.4095 L64.6011 146.4095 Z"
                  stroke="none"/>
            <text x="77.0539" xml:space="preserve" font-size="14" y="150.4803"
                  stroke="none"></text>
            <path d="M64.6011 173.6221 L70 173.6221 L70 174.4725 L64.6011 174.4725 Z"
                  stroke="none"/>
            <text x="34.7999" xml:space="preserve" y="168.4488" stroke="none">NT1.19</text><line stroke-linecap="butt"
                  fill="none" x1="70.384" x2="70.384" y1="164.2677"
                  stroke-linejoin="bevel" y2="183.8268" stroke-width="0.8504"/>
            <path d="M70.8092 164.2677 L78.9665 164.2677 L78.9665 165.1181 L70.8092 165.1181 Z"
                  stroke="none"/>
            <text x="81.8012" xml:space="preserve" font-size="14" y="169.189"
                  stroke="none"></text>
            <path d="M70.8092 182.9764 L73.2454 182.9764 L73.2454 183.8268 L70.8092 183.8268 Z"
                  stroke="none"/>
            <text x="76.08" xml:space="preserve" font-size="14" y="187.8976"
                  stroke="none"></text>
            <path d="M47.9247 225.0709 L49 225.0709 L49 225.9213 L47.9247 225.9213 Z"
                  stroke="none"/>
            <text x="19.1351" xml:space="preserve" y="219.8976" stroke="none">NT1.5</text><line stroke-linecap="butt"
                  fill="none" x1="48.8384" x2="48.8384" y1="211.0394"
                  stroke-linejoin="bevel" y2="239.9528" stroke-width="0.8504"/>
            <path d="M49.2636 211.0394 L55 211.0394 L55 211.8898 L49.2636 211.8898 Z"
                  stroke="none"/>
            <text x="25.0309" xml:space="preserve" y="205.8661" stroke="none">NT1.7</text><line stroke-linecap="butt"
                  fill="none" x1="54.6813" x2="54.6813" y1="201.685"
                  stroke-linejoin="bevel" y2="221.2441" stroke-width="0.8504"/>
            <path d="M55.1065 201.685 L64.116 201.685 L64.116 202.5354 L55.1065 202.5354 Z"
                  stroke="none"/>
            <text x="66.9506" xml:space="preserve" font-size="14" y="206.6063"
                  stroke="none"></text>
            <path d="M55.1065 220.3937 L69.3502 220.3937 L69.3502 221.2441 L55.1065 221.2441 Z"
                  stroke="none"/>
            <text x="72.1848" xml:space="preserve" font-size="14" y="225.315"
                  stroke="none"></text>
            <path d="M49.2636 239.1024 L69.3502 239.1024 L69.3502 239.9528 L49.2636 239.9528 Z"
                  stroke="none"/>
            <text x="72.1848" xml:space="preserve" font-size="14" y="244.0236"
                  stroke="none"></text>
            <path d="M21.6318 257.811 L73.7323 257.811 L73.7323 258.6614 L21.6318 258.6614 Z"
                  stroke="none"/>
            <text x="76.567" xml:space="preserve" font-size="14" y="262.7323"
                  stroke="none"></text>
        </g>
    </g>
</svg>
