<?xml version="1.0"?>
<!DOCTYPE svg PUBLIC '-//W3C//DTD SVG 1.0//EN'
    'http://www.w3.org/TR/2001/REC-SVG-20010904/DTD/svg10.dtd' >

<svg fill-opacity="1" xmlns:xlink="http://www.w3.org/1999/xlink"
     color-rendering="auto" color-interpolation="auto" stroke="black"
     text-rendering="auto" stroke-linecap="square" stroke-miterlimit="10"
     stroke-opacity="1" shape-rendering="auto" fill="black"
     stroke-dasharray="none" font-weight="normal" stroke-width="1"
     xmlns="http://www.w3.org/2000/svg" font-family="&apos;Dialog&apos;"
     font-style="normal" stroke-linejoin="miter" font-size="12"
     stroke-dashoffset="0" image-rendering="auto">
    <!--Generated by the Batik Graphics2D SVG Generator-->
    <defs id="genericDefs"/>
    <g>
        <g fill="white" stroke="white">
            <rect x="0" width="402" height="467" y="0" stroke="none"/>
            <path fill="black"
                  d="M5 208.1627 L18 208.1627 L18 209.0131 L5 209.0131 Z"
                  stroke="none"/>
            <circle fill="black" r="1.2756" cx="17.4331" cy="208.1627"
                    stroke="none"/>
            <path fill="black"
                  d="M17.8583 207.3123 L25 207.3123 L25 208.1627 L17.8583 208.1627 Z"
                  stroke="none"/>
        </g>
        <g font-family="&apos;Arial&apos;" font-size="9">
            <text x="-4.3928" xml:space="preserve" y="202.1391" stroke="none">NT1.2</text><line stroke-linecap="butt"
                  fill="none" x1="25.1916" x2="25.1916" y1="14.5984"
                  stroke-linejoin="bevel" y2="400.8765" stroke-width="0.8504"/>
            <path d="M25.6168 14.5984 L31.0702 14.5984 L31.0702 15.4488 L25.6168 15.4488 Z"
                  stroke="none"/>
            <text x="33.9048" xml:space="preserve" font-size="14" y="19.5197"
                  stroke="none"></text>
            <path d="M25.6168 400.0262 L41 400.0262 L41 400.8766 L25.6168 400.8766 Z"
                  stroke="none"/>
            <text x="11.0846" xml:space="preserve" y="394.8529" stroke="none">NT1.4</text><line stroke-linecap="butt"
                  fill="none" x1="40.7086" x2="40.7086" y1="355.1545"
                  stroke-linejoin="bevel" y2="445.748" stroke-width="0.8504"/>
            <path d="M41.1338 355.1545 L56 355.1545 L56 356.0049 L41.1338 356.0049 Z"
                  stroke="none"/>
            <text x="26.5752" xml:space="preserve" y="349.9813" stroke="none">NT1.6</text><line stroke-linecap="butt"
                  fill="none" x1="56.2257" x2="56.2257" y1="293.4744"
                  stroke-linejoin="bevel" y2="417.6851" stroke-width="0.8504"/>
            <path d="M56.6509 293.4744 L87 293.4744 L87 294.3248 L56.6509 294.3248 Z"
                  stroke="none"/>
            <text x="51.7154" xml:space="preserve" y="288.3012" stroke="none">NT1.10</text><line stroke-linecap="butt"
                  fill="none" x1="87.2598" x2="87.2598" y1="207.5315"
                  stroke-linejoin="bevel" y2="380.2677" stroke-width="0.8504"/>
            <path d="M87.6849 207.5315 L119 207.5315 L119 208.3819 L87.6849 208.3819 Z"
                  stroke="none"/>
            <text x="83.2343" xml:space="preserve" y="202.3583" stroke="none">NT1.14</text><line stroke-linecap="butt"
                  fill="none" x1="118.7787" x2="118.7787" y1="135.0354"
                  stroke-linejoin="bevel" y2="280.878" stroke-width="0.8504"/>
            <path d="M119.2039 135.0354 L228 135.0354 L228 135.8858 L119.2039 135.8858 Z"
                  stroke="none"/>
            <text x="157.4112" xml:space="preserve" y="129.8622" stroke="none">NT1.28</text><line stroke-linecap="butt"
                  fill="none" x1="228.3679" x2="228.3679" y1="76.5709"
                  stroke-linejoin="bevel" y2="194.3504" stroke-width="0.8504"/>
            <path d="M228.7931 76.5709 L307 76.5709 L307 77.4212 L228.7931 77.4212 Z"
                  stroke="none"/>
            <text x="251.2408" xml:space="preserve" y="71.3976" stroke="none">NT1.38</text><line stroke-linecap="butt"
                  fill="none" x1="306.438" x2="306.438" y1="42.6614"
                  stroke-linejoin="bevel" y2="111.3307" stroke-width="0.8504"/>
            <path d="M306.8632 42.6614 L369 42.6614 L369 43.5118 L306.8632 43.5118 Z"
                  stroke="none"/>
            <text x="321.3165" xml:space="preserve" y="37.4882" stroke="none">NT1.46</text><line stroke-linecap="butt"
                  fill="none" x1="368.5061" x2="368.5061" y1="33.3071"
                  stroke-linejoin="bevel" y2="52.8661" stroke-width="0.8504"/>
            <path d="M368.9314 33.3071 L374.8697 33.3071 L374.8697 34.1575 L368.9314 34.1575 Z"
                  stroke="none"/>
            <text x="377.7043" xml:space="preserve" font-size="14" y="38.2283"
                  stroke="none"></text>
            <path d="M368.9314 52.0158 L390.3867 52.0158 L390.3867 52.8661 L368.9314 52.8661 Z"
                  stroke="none"/>
            <text x="393.2214" xml:space="preserve" font-size="14" y="56.937"
                  stroke="none"></text>
            <path d="M306.8632 110.4803 L352 110.4803 L352 111.3307 L306.8632 111.3307 Z"
                  stroke="none"/>
            <text x="313.0863" xml:space="preserve" y="105.3071" stroke="none">NT1.44</text><line stroke-linecap="butt"
                  fill="none" x1="352.0193" x2="352.0193" y1="94.1102"
                  stroke-linejoin="bevel" y2="127.7008" stroke-width="0.8504"/>
            <path d="M352.4445 94.1102 L338 94.1102 L338 94.9606 L352.4445 94.9606 Z"
                  stroke="none"/>
            <text x="301.9673" xml:space="preserve" y="88.937" stroke="none">NT1.42</text><line stroke-linecap="butt"
                  fill="none" x1="337.4721" x2="337.4721" y1="80.0787"
                  stroke-linejoin="bevel" y2="108.9921" stroke-width="0.8504"/>
            <path d="M337.8973 80.0787 L322 80.0787 L322 80.9291 L337.8973 80.9291 Z"
                  stroke="none"/>
            <text x="285.9257" xml:space="preserve" y="74.9055" stroke="none">NT1.40</text><line stroke-linecap="butt"
                  fill="none" x1="321.4701" x2="321.4701" y1="70.7244"
                  stroke-linejoin="bevel" y2="90.2835" stroke-width="0.8504"/>
            <path d="M321.8953 70.7244 L312.3166 70.7244 L312.3166 71.5748 L321.8953 71.5748 Z"
                  stroke="none"/>
            <text x="315.1512" xml:space="preserve" font-size="14" y="75.6457"
                  stroke="none"></text>
            <path d="M321.8953 89.4331 L328.3185 89.4331 L328.3185 90.2835 L321.8953 90.2835 Z"
                  stroke="none"/>
            <text x="331.1532" xml:space="preserve" font-size="14" y="94.3543"
                  stroke="none"></text>
            <path d="M337.8973 108.1417 L343.8356 108.1417 L343.8356 108.9921 L337.8973 108.9921 Z"
                  stroke="none"/>
            <text x="346.6703" xml:space="preserve" font-size="14" y="113.063"
                  stroke="none"></text>
            <path d="M352.4445 126.8504 L359.3527 126.8504 L359.3527 127.7008 L352.4445 127.7008 Z"
                  stroke="none"/>
            <text x="362.1873" xml:space="preserve" font-size="14" y="131.7717"
                  stroke="none"></text>
            <path d="M228.7931 193.5 L290 193.5 L290 194.3504 L228.7931 194.3504 Z"
                  stroke="none"/>
            <text x="242.7616" xml:space="preserve" y="188.3268" stroke="none">NT1.36</text><line stroke-linecap="butt"
                  fill="none" x1="289.4662" x2="289.4662" y1="166.6063"
                  stroke-linejoin="bevel" y2="221.2441" stroke-width="0.8504"/>
            <path d="M289.8914 166.6063 L275 166.6063 L275 167.4567 L289.8914 167.4567 Z"
                  stroke="none"/>
            <text x="239.3746" xml:space="preserve" y="161.4331" stroke="none">NT1.34</text><line stroke-linecap="butt"
                  fill="none" x1="274.919" x2="274.919" y1="145.5591"
                  stroke-linejoin="bevel" y2="188.504" stroke-width="0.8504"/>
            <path d="M275.3442 145.5591 L280.7976 145.5591 L280.7976 146.4095 L275.3442 146.4095 Z"
                  stroke="none"/>
            <text x="283.6323" xml:space="preserve" font-size="14" y="150.4803"
                  stroke="none"></text>
            <path d="M275.3442 187.6536 L259 187.6536 L259 188.504 L275.3442 188.504 Z"
                  stroke="none"/>
            <text x="223.8972" xml:space="preserve" y="182.4803" stroke="none">NT1.32</text><line stroke-linecap="butt"
                  fill="none" x1="259.402" x2="259.402" y1="173.6221"
                  stroke-linejoin="bevel" y2="202.5354" stroke-width="0.8504"/>
            <path d="M259.8272 173.6221 L243 173.6221 L243 174.4725 L259.8272 174.4725 Z"
                  stroke="none"/>
            <text x="207.8556" xml:space="preserve" y="168.4488" stroke="none">NT1.30</text><line stroke-linecap="butt"
                  fill="none" x1="243.4" x2="243.4" y1="164.2677"
                  stroke-linejoin="bevel" y2="183.8268" stroke-width="0.8504"/>
            <path d="M243.8252 164.2677 L249.7635 164.2677 L249.7635 165.1181 L243.8252 165.1181 Z"
                  stroke="none"/>
            <text x="252.5982" xml:space="preserve" font-size="14" y="169.189"
                  stroke="none"></text>
            <path d="M243.8252 182.9764 L234.2465 182.9764 L234.2465 183.8268 L243.8252 183.8268 Z"
                  stroke="none"/>
            <text x="237.0811" xml:space="preserve" font-size="14" y="187.8976"
                  stroke="none"></text>
            <path d="M259.8272 201.685 L265.2806 201.685 L265.2806 202.5354 L259.8272 202.5354 Z"
                  stroke="none"/>
            <text x="268.1153" xml:space="preserve" font-size="14" y="206.6063"
                  stroke="none"></text>
            <path d="M289.8914 220.3937 L296.7996 220.3937 L296.7996 221.2441 L289.8914 221.2441 Z"
                  stroke="none"/>
            <text x="299.6342" xml:space="preserve" font-size="14" y="225.315"
                  stroke="none"></text>
            <path d="M119.2039 280.0276 L195 280.0276 L195 280.878 L119.2039 280.878 Z"
                  stroke="none"/>
            <text x="140.9442" xml:space="preserve" y="274.8543" stroke="none">NT1.24</text><line stroke-linecap="butt"
                  fill="none" x1="195.3941" x2="195.3941" y1="248.4567"
                  stroke-linejoin="bevel" y2="312.4488" stroke-width="0.8504"/>
            <path d="M195.8193 248.4567 L211 248.4567 L211 249.3071 L195.8193 249.3071 Z"
                  stroke="none"/>
            <text x="175.8252" xml:space="preserve" y="243.2834" stroke="none">NT1.26</text><line stroke-linecap="butt"
                  fill="none" x1="211.3961" x2="211.3961" y1="239.1024"
                  stroke-linejoin="bevel" y2="258.6614" stroke-width="0.8504"/>
            <path d="M211.8213 239.1024 L202.7275 239.1024 L202.7275 239.9528 L211.8213 239.9528 Z"
                  stroke="none"/>
            <text x="205.5621" xml:space="preserve" font-size="14" y="244.0236"
                  stroke="none"></text>
            <path d="M211.8213 257.811 L218.2445 257.811 L218.2445 258.6614 L211.8213 258.6614 Z"
                  stroke="none"/>
            <text x="221.0792" xml:space="preserve" font-size="14" y="262.7323"
                  stroke="none"></text>
            <path d="M195.8193 311.5984 L165 311.5984 L165 312.4488 L195.8193 312.4488 Z"
                  stroke="none"/>
            <text x="129.7854" xml:space="preserve" y="306.4252" stroke="none">NT1.20</text><line stroke-linecap="butt"
                  fill="none" x1="165.3299" x2="165.3299" y1="285.874"
                  stroke-linejoin="bevel" y2="338.1732" stroke-width="0.8504"/>
            <path d="M165.7551 285.874 L180 285.874 L180 286.7244 L165.7551 286.7244 Z"
                  stroke="none"/>
            <text x="144.3723" xml:space="preserve" y="280.7008" stroke="none">NT1.22</text><line stroke-linecap="butt"
                  fill="none" x1="179.8771" x2="179.8771" y1="276.5197"
                  stroke-linejoin="bevel" y2="296.0787" stroke-width="0.8504"/>
            <path d="M180.3023 276.5197 L171.6934 276.5197 L171.6934 277.3701 L180.3023 277.3701 Z"
                  stroke="none"/>
            <text x="174.528" xml:space="preserve" font-size="14" y="281.4409"
                  stroke="none"></text>
            <path d="M180.3023 295.2284 L187.2104 295.2284 L187.2104 296.0788 L180.3023 296.0788 Z"
                  stroke="none"/>
            <text x="190.0451" xml:space="preserve" font-size="14" y="300.1496"
                  stroke="none"></text>
            <path d="M165.7551 337.3228 L150 337.3228 L150 338.1732 L165.7551 338.1732 Z"
                  stroke="none"/>
            <text x="114.2288" xml:space="preserve" y="332.1496" stroke="none">NT1.18</text><line stroke-linecap="butt"
                  fill="none" x1="149.8128" x2="149.8128" y1="323.2913"
                  stroke-linejoin="bevel" y2="352.2047" stroke-width="0.8504"/>
            <path d="M150.238 323.2913 L134 323.2913 L134 324.1417 L150.238 324.1417 Z"
                  stroke="none"/>
            <text x="98.725" xml:space="preserve" y="318.1181" stroke="none">NT1.16</text><line stroke-linecap="butt"
                  fill="none" x1="134.2958" x2="134.2958" y1="313.937"
                  stroke-linejoin="bevel" y2="333.496" stroke-width="0.8504"/>
            <path d="M134.721 313.937 L125.1423 313.937 L125.1423 314.7874 L134.721 314.7874 Z"
                  stroke="none"/>
            <text x="127.9769" xml:space="preserve" font-size="14" y="318.8582"
                  stroke="none"></text>
            <path d="M134.721 332.6457 L140.6593 332.6457 L140.6593 333.4961 L134.721 333.4961 Z"
                  stroke="none"/>
            <text x="143.494" xml:space="preserve" font-size="14" y="337.5669"
                  stroke="none"></text>
            <path d="M150.238 351.3543 L156.1763 351.3543 L156.1763 352.2047 L150.238 352.2047 Z"
                  stroke="none"/>
            <text x="159.011" xml:space="preserve" font-size="14" y="356.2756"
                  stroke="none"></text>
            <path d="M87.6849 379.4174 L102 379.4174 L102 380.2678 L87.6849 380.2678 Z"
                  stroke="none"/>
            <text x="66.3022" xml:space="preserve" y="374.2441" stroke="none">NT1.12</text><line stroke-linecap="butt"
                  fill="none" x1="101.807" x2="101.807" y1="370.063"
                  stroke-linejoin="bevel" y2="389.622" stroke-width="0.8504"/>
            <path d="M102.2322 370.063 L109.1403 370.063 L109.1403 370.9134 L102.2322 370.9134 Z"
                  stroke="none"/>
            <text x="111.975" xml:space="preserve" font-size="14" y="374.9843"
                  stroke="none"></text>
            <path d="M102.2322 388.7717 L93.6233 388.7717 L93.6233 389.6221 L102.2322 389.6221 Z"
                  stroke="none"/>
            <text x="96.4579" xml:space="preserve" font-size="14" y="393.6929"
                  stroke="none"></text>
            <path d="M56.6509 416.8347 L71 416.8347 L71 417.6851 L56.6509 417.6851 Z"
                  stroke="none"/>
            <text x="41.1092" xml:space="preserve" y="411.6615" stroke="none">NT1.8</text><line stroke-linecap="butt"
                  fill="none" x1="70.7729" x2="70.7729" y1="407.4803"
                  stroke-linejoin="bevel" y2="427.0394" stroke-width="0.8504"/>
            <path d="M71.1981 407.4804 L62.1043 407.4804 L62.1043 408.3308 L71.1981 408.3308 Z"
                  stroke="none"/>
            <text x="64.9389" xml:space="preserve" font-size="14" y="412.4016"
                  stroke="none"></text>
            <path d="M71.1981 426.1891 L78.1062 426.1891 L78.1062 427.0395 L71.1981 427.0395 Z"
                  stroke="none"/>
            <text x="80.9409" xml:space="preserve" font-size="14" y="431.1103"
                  stroke="none"></text>
            <path d="M41.1338 444.8977 L46.5872 444.8977 L46.5872 445.7481 L41.1338 445.7481 Z"
                  stroke="none"/>
            <text x="49.4219" xml:space="preserve" font-size="14" y="449.8189"
                  stroke="none"></text>
        </g>
    </g>
</svg>
