<?xml version="1.0"?>
<!DOCTYPE svg PUBLIC '-//W3C//DTD SVG 1.0//EN'
    'http://www.w3.org/TR/2001/REC-SVG-20010904/DTD/svg10.dtd' >

<svg fill-opacity="1" xmlns:xlink="http://www.w3.org/1999/xlink"
     color-rendering="auto" color-interpolation="auto" stroke="black"
     text-rendering="auto" stroke-linecap="square" stroke-miterlimit="10"
     stroke-opacity="1" shape-rendering="auto" fill="black"
     stroke-dasharray="none" font-weight="normal" stroke-width="1"
     xmlns="http://www.w3.org/2000/svg" font-family="&apos;Dialog&apos;"
     font-style="normal" stroke-linejoin="miter" font-size="12"
     stroke-dashoffset="0" image-rendering="auto">
    <!--Generated by the Batik Graphics2D SVG Generator-->
    <defs id="genericDefs"/>
    <g>
        <g fill="white" stroke="white">
            <rect x="0" width="208" height="485" y="0" stroke="none"/>
            <path fill="black"
                  d="M5 193.9983 L44 193.9983 L44 194.8487 L5 194.8487 Z"
                  stroke="none"/>
        </g>
        <g font-family="&apos;Arial&apos;" font-size="9">
            <text x="8.5039" xml:space="preserve" y="188.8251" stroke="none">NT1.49</text><line stroke-linecap="butt"
                  fill="none" x1="44.088" x2="44.088" y1="14.5984"
                  stroke-linejoin="bevel" y2="373.3982" stroke-width="0.8504"/>
            <path d="M44.5132 14.5984 L80.4155 14.5984 L80.4155 15.4488 L44.5132 15.4488 Z"
                  stroke="none"/>
            <text x="83.2501" xml:space="preserve" font-size="14" y="19.5197"
                  stroke="none">M62797</text><path d="M44.5132 372.5478 L61 372.5478 L61 373.3982 L44.5132 373.3982 Z"
                  stroke="none"/>
            <text x="33.0417" xml:space="preserve" y="367.3746" stroke="none">NT1.1</text><line stroke-linecap="butt"
                  fill="none" x1="61.2914" x2="61.2914" y1="304.875"
                  stroke-linejoin="bevel" y2="441.0709" stroke-width="0.8504"/>
            <path d="M61.7166 304.875 L66 304.875 L66 305.7254 L61.7166 305.7254 Z"
                  stroke="none"/>
            <text x="36.5105" xml:space="preserve" y="299.7018" stroke="none">NT1.2</text><line stroke-linecap="butt"
                  fill="none" x1="66.0949" x2="66.0949" y1="225.6555"
                  stroke-linejoin="bevel" y2="384.9449" stroke-width="0.8504"/>
            <path d="M66.5201 225.6555 L95 225.6555 L95 226.5059 L66.5201 226.5059 Z"
                  stroke="none"/>
            <text x="64.8056" xml:space="preserve" y="220.4823" stroke="none">NT1.8</text><line stroke-linecap="butt"
                  fill="none" x1="94.4693" x2="94.4693" y1="143.2205"
                  stroke-linejoin="bevel" y2="308.9409" stroke-width="0.8504"/>
            <path d="M94.8945 143.2205 L103 143.2205 L103 144.0709 L94.8945 144.0709 Z"
                  stroke="none"/>
            <text x="68.3424" xml:space="preserve" y="138.0473" stroke="none">NT1.11</text><line stroke-linecap="butt"
                  fill="none" x1="102.5124" x2="102.5124" y1="87.0945"
                  stroke-linejoin="bevel" y2="200.1969" stroke-width="0.8504"/>
            <path d="M102.9376 87.0945 L104 87.0945 L104 87.9449 L102.9376 87.9449 Z"
                  stroke="none"/>
            <text x="68.3938" xml:space="preserve" y="81.9213" stroke="none">NT1.13</text><line stroke-linecap="butt"
                  fill="none" x1="103.9646" x2="103.9646" y1="49.6772"
                  stroke-linejoin="bevel" y2="125.3622" stroke-width="0.8504"/>
            <path d="M104.3898 49.6772 L111 49.6772 L111 50.5276 L104.3898 50.5276 Z"
                  stroke="none"/>
            <text x="77.0558" xml:space="preserve" y="44.5039" stroke="none">NT1.21</text><line stroke-linecap="butt"
                  fill="none" x1="111.2258" x2="111.2258" y1="33.3071"
                  stroke-linejoin="bevel" y2="66.8976" stroke-width="0.8504"/>
            <path d="M111.651 33.3071 L117.1681 33.3071 L117.1681 34.1575 L111.651 34.1575 Z"
                  stroke="none"/>
            <text x="120.0028" xml:space="preserve" font-size="14" y="38.2283"
                  stroke="none">AY92I817</text><path d="M111.651 66.0472 L113 66.0472 L113 66.8976 L111.651 66.8976 Z"
                  stroke="none"/>
            <text x="77.5805" xml:space="preserve" y="60.874" stroke="none">NT1.24</text><line stroke-linecap="butt"
                  fill="none" x1="113.1249" x2="113.1249" y1="52.0157"
                  stroke-linejoin="bevel" y2="80.9291" stroke-width="0.8504"/>
            <path d="M113.5501 52.0158 L119.8491 52.0158 L119.8491 52.8661 L113.5501 52.8661 Z"
                  stroke="none"/>
            <text x="122.6838" xml:space="preserve" font-size="14" y="56.937"
                  stroke="none">DQI29647</text><path d="M113.5501 80.0787 L117 80.0787 L117 80.9291 L113.5501 80.9291 Z"
                  stroke="none"/>
            <text x="81.7534" xml:space="preserve" y="74.9055" stroke="none">NT1.32</text><line stroke-linecap="butt"
                  fill="none" x1="117.2582" x2="117.2582" y1="70.7244"
                  stroke-linejoin="bevel" y2="90.2835" stroke-width="0.8504"/>
            <path d="M117.6834 70.7244 L117.5032 70.7244 L117.5032 71.5748 L117.6834 71.5748 Z"
                  stroke="none"/>
            <text x="120.3379" xml:space="preserve" font-size="14" y="75.6457"
                  stroke="none">ABZ67476</text><path d="M117.6834 89.4331 L117.7267 89.4331 L117.7267 90.2835 L117.6834 90.2835 Z"
                  stroke="none"/>
            <text x="120.5613" xml:space="preserve" font-size="14" y="94.3543"
                  stroke="none">A3267477</text><path d="M104.3898 124.5118 L108 124.5118 L108 125.3622 L104.3898 125.3622 Z"
                  stroke="none"/>
            <text x="72.5271" xml:space="preserve" y="119.3386" stroke="none">NT1.16</text><line stroke-linecap="butt"
                  fill="none" x1="108.0979" x2="108.0979" y1="108.1417"
                  stroke-linejoin="bevel" y2="141.7323" stroke-width="0.8504"/>
            <path d="M108.5231 108.1417 L116.9447 108.1417 L116.9447 108.9921 L108.5231 108.9921 Z"
                  stroke="none"/>
            <text x="119.7793" xml:space="preserve" font-size="14" y="113.063"
                  stroke="none">DQI29288</text><path d="M108.5231 140.8819 L113 140.8819 L113 141.7323 L108.5231 141.7323 Z"
                  stroke="none"/>
            <text x="76.9499" xml:space="preserve" y="135.7086" stroke="none">NT1.22</text><line stroke-linecap="butt"
                  fill="none" x1="112.4546" x2="112.4546" y1="126.8504"
                  stroke-linejoin="bevel" y2="155.7638" stroke-width="0.8504"/>
            <path d="M112.8799 126.8504 L119.6257 126.8504 L119.6257 127.7008 L112.8799 127.7008 Z"
                  stroke="none"/>
            <text x="122.4604" xml:space="preserve" font-size="14" y="131.7717"
                  stroke="none">AM085477</text><path d="M112.8799 154.9134 L119 154.9134 L119 155.7638 L112.8799 155.7638 Z"
                  stroke="none"/>
            <text x="82.9162" xml:space="preserve" y="149.7401" stroke="none">NT1.37</text><line stroke-linecap="butt"
                  fill="none" x1="118.487" x2="118.487" y1="145.559"
                  stroke-linejoin="bevel" y2="165.1181" stroke-width="0.8504"/>
            <path d="M118.9122 145.5591 L120.296 145.5591 L120.296 146.4095 L118.9122 146.4095 Z"
                  stroke="none"/>
            <text x="123.1307" xml:space="preserve" font-size="14" y="150.4803"
                  stroke="none">DQ244077</text><path d="M118.9122 164.2677 L120.7429 164.2677 L120.7429 165.1181 L118.9122 165.1181 Z"
                  stroke="none"/>
            <text x="123.5775" xml:space="preserve" font-size="14" y="169.189"
                  stroke="none"></text>
            <path d="M102.9376 199.3465 L109 199.3465 L109 200.1969 L102.9376 200.1969 Z"
                  stroke="none"/>
            <text x="73.0856" xml:space="preserve" y="194.1732" stroke="none">NT1.17</text><line stroke-linecap="butt"
                  fill="none" x1="108.6565" x2="108.6565" y1="182.9764"
                  stroke-linejoin="bevel" y2="216.567" stroke-width="0.8504"/>
            <path d="M109.0817 182.9764 L119.514 182.9764 L119.514 183.8268 L109.0817 183.8268 Z"
                  stroke="none"/>
            <text x="122.3487" xml:space="preserve" font-size="14" y="187.8976"
                  stroke="none"></text>
            <path d="M109.0817 215.7166 L111 215.7166 L111 216.567 L109.0817 216.567 Z"
                  stroke="none"/>
            <text x="75.1229" xml:space="preserve" y="210.5433" stroke="none">NT1.20</text><line stroke-linecap="butt"
                  fill="none" x1="110.6672" x2="110.6672" y1="201.6851"
                  stroke-linejoin="bevel" y2="230.5985" stroke-width="0.8504"/>
            <path d="M111.0925 201.6851 L119.8491 201.6851 L119.8491 202.5355 L111.0925 202.5355 Z"
                  stroke="none"/>
            <text x="122.6838" xml:space="preserve" font-size="14" y="206.6063"
                  stroke="none">DQ202140</text><path d="M111.0925 229.7481 L114 229.7481 L114 230.5985 L111.0925 230.5985 Z"
                  stroke="none"/>
            <text x="78.2831" xml:space="preserve" y="224.5748" stroke="none">NT1.25</text><line stroke-linecap="butt"
                  fill="none" x1="113.9069" x2="113.9069" y1="220.3938"
                  stroke-linejoin="bevel" y2="239.9528" stroke-width="0.8504"/>
            <path d="M114.3321 220.3938 L118.1735 220.3938 L118.1735 221.2442 L114.3321 221.2442 Z"
                  stroke="none"/>
            <text x="121.0081" xml:space="preserve" font-size="14" y="225.315"
                  stroke="none">AJ863367</text><path d="M114.3321 239.1024 L121.3014 239.1024 L121.3014 239.9528 L114.3321 239.9528 Z"
                  stroke="none"/>
            <text x="124.136" xml:space="preserve" font-size="14" y="244.0237"
                  stroke="none"></text>
            <path d="M94.8945 308.0906 L100 308.0906 L100 308.941 L94.8945 308.941 Z"
                  stroke="none"/>
            <text x="70.7262" xml:space="preserve" y="302.9174" stroke="none">NT1.9</text><line stroke-linecap="butt"
                  fill="none" x1="100.3899" x2="100.3899" y1="274.1811"
                  stroke-linejoin="bevel" y2="342.8504" stroke-width="0.8504"/>
            <path d="M100.8151 274.1811 L103 274.1811 L103 275.0315 L100.8151 275.0315 Z"
                  stroke="none"/>
            <text x="67.4545" xml:space="preserve" y="269.0079" stroke="none">NT1.12</text><line stroke-linecap="butt"
                  fill="none" x1="102.9593" x2="102.9593" y1="257.811"
                  stroke-linejoin="bevel" y2="291.4016" stroke-width="0.8504"/>
            <path d="M103.3845 257.811 L115.4925 257.811 L115.4925 258.6614 L103.3845 258.6614 Z"
                  stroke="none"/>
            <text x="118.3271" xml:space="preserve" font-size="14" y="262.7323"
                  stroke="none"></text>
            <path d="M103.3845 290.5512 L106 290.5512 L106 291.4016 L103.3845 291.4016 Z"
                  stroke="none"/>
            <text x="70.6545" xml:space="preserve" y="285.378" stroke="none">NT1.14</text><line stroke-linecap="butt"
                  fill="none" x1="106.1989" x2="106.1989" y1="276.5197"
                  stroke-linejoin="bevel" y2="305.4331" stroke-width="0.8504"/>
            <path d="M106.6241 276.5197 L114.2637 276.5197 L114.2637 277.3701 L106.6241 277.3701 Z"
                  stroke="none"/>
            <text x="117.0983" xml:space="preserve" font-size="14" y="281.441"
                  stroke="none">ABO78066</text><path d="M106.6241 304.5827 L110 304.5827 L110 305.4331 L106.6241 305.4331 Z"
                  stroke="none"/>
            <text x="74.0779" xml:space="preserve" y="299.4095" stroke="none">NT1.18</text><line stroke-linecap="butt"
                  fill="none" x1="109.6619" x2="109.6619" y1="295.2284"
                  stroke-linejoin="bevel" y2="314.7874" stroke-width="0.8504"/>
            <path d="M110.0871 295.2284 L114.4871 295.2284 L114.4871 296.0788 L110.0871 296.0788 Z"
                  stroke="none"/>
            <text x="117.3217" xml:space="preserve" font-size="14" y="300.1497"
                  stroke="none"></text>
            <path d="M110.0871 313.9371 L120.7429 313.9371 L120.7429 314.7875 L110.0871 314.7875 Z"
                  stroke="none"/>
            <text x="123.5775" xml:space="preserve" font-size="14" y="318.8583"
                  stroke="none"></text>
            <path d="M100.8151 342 L102 342 L102 342.8504 L100.8151 342.8504 Z"
                  stroke="none"/>
            <text x="66.4095" xml:space="preserve" y="336.8268" stroke="none">NT1.10</text><line stroke-linecap="butt"
                  fill="none" x1="101.9539" x2="101.9539" y1="332.6457"
                  stroke-linejoin="bevel" y2="352.2047" stroke-width="0.8504"/>
            <path d="M102.3791 332.6457 L112.1411 332.6457 L112.1411 333.4961 L102.3791 333.4961 Z"
                  stroke="none"/>
            <text x="114.9758" xml:space="preserve" font-size="14" y="337.5669"
                  stroke="none"></text>
            <path d="M102.3791 351.3543 L114.4871 351.3543 L114.4871 352.2047 L102.3791 352.2047 Z"
                  stroke="none"/>
            <text x="117.3217" xml:space="preserve" font-size="14" y="356.2756"
                  stroke="none">D12657</text><path d="M66.5201 384.0945 L75 384.0945 L75 384.9449 L66.5201 384.9449 Z"
                  stroke="none"/>
            <text x="45.5194" xml:space="preserve" y="378.9213" stroke="none">NT1.4</text><line stroke-linecap="butt"
                  fill="none" x1="75.1434" x2="75.1434" y1="370.063"
                  stroke-linejoin="bevel" y2="398.9764" stroke-width="0.8504"/>
            <path d="M75.5686 370.063 L114.1519 370.063 L114.1519 370.9135 L75.5686 370.9135 Z"
                  stroke="none"/>
            <text x="116.9866" xml:space="preserve" font-size="14" y="374.9843"
                  stroke="none">\458795</text><path d="M75.5686 398.1261 L80 398.1261 L80 398.9765 L75.5686 398.9765 Z"
                  stroke="none"/>
            <text x="50.2965" xml:space="preserve" y="392.9529" stroke="none">NT1.6</text><line stroke-linecap="butt"
                  fill="none" x1="79.947" x2="79.947" y1="388.7717"
                  stroke-linejoin="bevel" y2="408.3307" stroke-width="0.8504"/>
            <path d="M80.3722 388.7717 L105.8854 388.7717 L105.8854 389.6221 L80.3722 389.6221 Z"
                  stroke="none"/>
            <text x="108.72" xml:space="preserve" font-size="14" y="393.693"
                  stroke="none">M58790</text><path d="M80.3722 407.4804 L122.0834 407.4804 L122.0834 408.3308 L80.3722 408.3308 Z"
                  stroke="none"/>
            <text x="124.918" xml:space="preserve" font-size="14" y="412.4016"
                  stroke="none"></text>
            <path d="M61.7166 440.2206 L69 440.2206 L69 441.071 L61.7166 441.071 Z"
                  stroke="none"/>
            <text x="39.0138" xml:space="preserve" y="435.0473" stroke="none">NT1.3</text><line stroke-linecap="butt"
                  fill="none" x1="68.6642" x2="68.6642" y1="426.189"
                  stroke-linejoin="bevel" y2="455.1024" stroke-width="0.8504"/>
            <path d="M69.0895 426.1891 L109.3484 426.1891 L109.3484 427.0395 L69.0895 427.0395 Z"
                  stroke="none"/>
            <text x="112.183" xml:space="preserve" font-size="14" y="431.1103"
                  stroke="none">AB078063</text><path d="M69.0895 454.2521 L78 454.2521 L78 455.1025 L69.0895 455.1025 Z"
                  stroke="none"/>
            <text x="48.2329" xml:space="preserve" y="449.0788" stroke="none">NT1.5</text><line stroke-linecap="butt"
                  fill="none" x1="77.9362" x2="77.9362" y1="444.8977"
                  stroke-linejoin="bevel" y2="464.4568" stroke-width="0.8504"/>
            <path d="M78.3614 444.8977 L120.7428 444.8977 L120.7428 445.7481 L78.3614 445.7481 Z"
                  stroke="none"/>
            <text x="123.5775" xml:space="preserve" font-size="14" y="449.819"
                  stroke="none"></text>
            <path d="M78.3614 463.6064 L113.9285 463.6064 L113.9285 464.4568 L78.3614 464.4568 Z"
                  stroke="none"/>
            <text x="116.7632" xml:space="preserve" font-size="14" y="468.5276"
                  stroke="none"></text>
        </g>
    </g>
</svg>
