<?xml version="1.0"?>
<!DOCTYPE svg PUBLIC '-//W3C//DTD SVG 1.0//EN'
    'http://www.w3.org/TR/2001/REC-SVG-20010904/DTD/svg10.dtd' >

<svg fill-opacity="1" xmlns:xlink="http://www.w3.org/1999/xlink"
     color-rendering="auto" color-interpolation="auto" stroke="black"
     text-rendering="auto" stroke-linecap="square" stroke-miterlimit="10"
     stroke-opacity="1" shape-rendering="auto" fill="black"
     stroke-dasharray="none" font-weight="normal" stroke-width="1"
     xmlns="http://www.w3.org/2000/svg" font-family="&apos;Dialog&apos;"
     font-style="normal" stroke-linejoin="miter" font-size="12"
     stroke-dashoffset="0" image-rendering="auto">
    <!--Generated by the Batik Graphics2D SVG Generator-->
    <defs id="genericDefs"/>
    <g>
        <g fill="white" stroke="white">
            <rect x="0" width="242" height="747" y="0" stroke="none"/>
            <path fill="black"
                  d="M5 188.6634 L43 188.6634 L43 189.5138 L5 189.5138 Z"
                  stroke="none"/>
        </g>
        <g font-family="&apos;Arial&apos;" font-size="9">
            <text x="8.5039" xml:space="preserve" y="183.4902" stroke="none">NT1.61</text><line stroke-linecap="butt"
                  fill="none" x1="42.674" x2="42.674" y1="14.5984"
                  stroke-linejoin="bevel" y2="362.7284" stroke-width="0.8504"/>
            <path d="M43.0992 14.5984 L83.6461 14.5984 L83.6461 15.4488 L43.0992 15.4488 Z"
                  stroke="none"/>
            <text x="86.4807" xml:space="preserve" font-size="14" y="19.5197"
                  stroke="none">X60646</text><path d="M43.0992 361.878 L84 361.878 L84 362.7284 L43.0992 362.7284 Z"
                  stroke="none"/>
            <text x="50.7832" xml:space="preserve" y="356.7047" stroke="none">NT1.1</text><line stroke-linecap="butt"
                  fill="none" x1="83.8823" x2="83.8823" y1="171.2835"
                  stroke-linejoin="bevel" y2="553.3229" stroke-width="0.8504"/>
            <path d="M84.3074 171.2835 L94 171.2835 L94 172.1339 L84.3074 172.1339 Z"
                  stroke="none"/>
            <text x="64.4658" xml:space="preserve" y="166.1102" stroke="none">NT1.4</text><line stroke-linecap="butt"
                  fill="none" x1="94.0898" x2="94.0898" y1="33.3071"
                  stroke-linejoin="bevel" y2="310.1103" stroke-width="0.8504"/>
            <path d="M94.515 33.3071 L94.4207 33.3071 L94.4207 34.1575 L94.515 34.1575 Z"
                  stroke="none"/>
            <text x="97.2554" xml:space="preserve" font-size="14" y="38.2284"
                  stroke="none"></text>
            <path d="M94 105.2185 L105 105.2185 L105 106.0689 L94 106.0689 Z"
                  stroke="none"/>
            <text x="75.0117" xml:space="preserve" y="100.0453" stroke="none">NT1.9</text><line stroke-linecap="butt"
                  fill="none" x1="104.6754" x2="104.6754" y1="52.0158"
                  stroke-linejoin="bevel" y2="159.2717" stroke-width="0.8504"/>
            <path d="M105.1006 52.0158 L105.0063 52.0158 L105.0063 52.8662 L105.1006 52.8662 Z"
                  stroke="none"/>
            <text x="107.841" xml:space="preserve" font-size="14" y="56.937"
                  stroke="none"></text>
            <path d="M105 70.7244 L136.3851 70.7244 L136.3851 71.5748 L105 71.5748 Z"
                  stroke="none"/>
            <text x="139.2198" xml:space="preserve" font-size="14" y="75.6457"
                  stroke="none">AF202057</text><path d="M105.1006 158.4213 L109 158.4213 L109 159.2717 L105.1006 159.2717 Z"
                  stroke="none"/>
            <text x="74.475" xml:space="preserve" y="153.248" stroke="none">NT1.11</text><line stroke-linecap="butt"
                  fill="none" x1="108.645" x2="108.645" y1="115.1575"
                  stroke-linejoin="bevel" y2="202.5355" stroke-width="0.8504"/>
            <path d="M109.0702 115.1575 L111 115.1575 L111 116.0079 L109.0702 116.0079 Z"
                  stroke="none"/>
            <text x="75.1799" xml:space="preserve" y="109.9843" stroke="none">NT1.14</text><line stroke-linecap="butt"
                  fill="none" x1="110.7244" x2="110.7244" y1="89.4331"
                  stroke-linejoin="bevel" y2="141.7323" stroke-width="0.8504"/>
            <path d="M111.1496 89.4331 L135.062 89.4331 L135.062 90.2835 L111.1496 90.2835 Z"
                  stroke="none"/>
            <text x="137.8966" xml:space="preserve" font-size="14" y="94.3543"
                  stroke="none">AF202056</text><path d="M111 108.1417 L147.1598 108.1417 L147.1598 108.9921 L111 108.9921 Z"
                  stroke="none"/>
            <text x="149.9945" xml:space="preserve" font-size="14" y="113.063"
                  stroke="none">X60631</text><path d="M111.1496 140.8819 L114 140.8819 L114 141.7323 L111.1496 141.7323 Z"
                  stroke="none"/>
            <text x="77.9361" xml:space="preserve" y="135.7086" stroke="none">NT1.15</text><line stroke-linecap="butt"
                  fill="none" x1="113.5598" x2="113.5598" y1="126.8504"
                  stroke-linejoin="bevel" y2="155.7638" stroke-width="0.8504"/>
            <path d="M113.985 126.8504 L131.4704 126.8504 L131.4704 127.7008 L113.985 127.7008 Z"
                  stroke="none"/>
            <text x="134.3051" xml:space="preserve" font-size="14" y="131.7717"
                  stroke="none">AB243859</text><path d="M113.985 154.9134 L116 154.9134 L116 155.7638 L113.985 155.7638 Z"
                  stroke="none"/>
            <text x="80.8905" xml:space="preserve" y="149.7401" stroke="none">NT1.22</text><line stroke-linecap="butt"
                  fill="none" x1="116.3952" x2="116.3952" y1="145.559"
                  stroke-linejoin="bevel" y2="165.1181" stroke-width="0.8504"/>
            <path d="M116.8204 145.5591 L127.1228 145.5591 L127.1228 146.4095 L116.8204 146.4095 Z"
                  stroke="none"/>
            <text x="129.9574" xml:space="preserve" font-size="14" y="150.4803"
                  stroke="none"></text>
            <path d="M116.8204 164.2677 L122.7751 164.2677 L122.7751 165.1181 L116.8204 165.1181 Z"
                  stroke="none"/>
            <text x="125.6097" xml:space="preserve" font-size="14" y="169.189"
                  stroke="none">DQ073393</text><path d="M109.0702 201.685 L134 201.685 L134 202.5354 L109.0702 202.5354 Z"
                  stroke="none"/>
            <text x="97.9732" xml:space="preserve" y="196.5118" stroke="none">NT1.45</text><line stroke-linecap="butt"
                  fill="none" x1="133.5969" x2="133.5969" y1="182.9764"
                  stroke-linejoin="bevel" y2="221.2441" stroke-width="0.8504"/>
            <path d="M134.0221 182.9764 L134.1168 182.9764 L134.1168 183.8268 L134.0221 183.8268 Z"
                  stroke="none"/>
            <text x="136.9515" xml:space="preserve" font-size="14" y="187.8976"
                  stroke="none"></text>
            <path d="M134 201.6851 L137.7084 201.6851 L137.7084 202.5355 L134 202.5355 Z"
                  stroke="none"/>
            <text x="140.543" xml:space="preserve" font-size="14" y="206.6063"
                  stroke="none">D16277</text><path d="M134.0221 220.3938 L138.2755 220.3938 L138.2755 221.2442 L134.0221 221.2442 Z"
                  stroke="none"/>
            <text x="141.1101" xml:space="preserve" font-size="14" y="225.315"
                  stroke="none">X68415</text><path d="M94.515 309.2599 L98 309.2599 L98 310.1103 L94.515 310.1103 Z"
                  stroke="none"/>
            <text x="68.0309" xml:space="preserve" y="304.0866" stroke="none">NT1.6</text><line stroke-linecap="butt"
                  fill="none" x1="97.6814" x2="97.6814" y1="267.1654"
                  stroke-linejoin="bevel" y2="352.2047" stroke-width="0.8504"/>
            <path d="M98.1066 267.1654 L115 267.1654 L115 268.0158 L98.1066 268.0158 Z"
                  stroke="none"/>
            <text x="79.1099" xml:space="preserve" y="261.9922" stroke="none">NT1.19</text><line stroke-linecap="butt"
                  fill="none" x1="114.694" x2="114.694" y1="239.1024"
                  stroke-linejoin="bevel" y2="296.0788" stroke-width="0.8504"/>
            <path d="M115.1192 239.1024 L115.2139 239.1024 L115.2139 239.9528 L115.1192 239.9528 Z"
                  stroke="none"/>
            <text x="118.0486" xml:space="preserve" font-size="14" y="244.0237"
                  stroke="none"></text>
            <path d="M115 257.8111 L122.397 257.8111 L122.397 258.6615 L115 258.6615 Z"
                  stroke="none"/>
            <text x="125.2317" xml:space="preserve" font-size="14" y="262.7323"
                  stroke="none">X60642</text><path d="M115.1192 295.2284 L126 295.2284 L126 296.0788 L115.1192 296.0788 Z"
                  stroke="none"/>
            <text x="90.6539" xml:space="preserve" y="290.0552" stroke="none">NT1.33</text><line stroke-linecap="butt"
                  fill="none" x1="126.2248" x2="126.2248" y1="276.5198"
                  stroke-linejoin="bevel" y2="314.7875" stroke-width="0.8504"/>
            <path d="M126.65 276.5198 L126.7447 276.5198 L126.7447 277.3702 L126.65 277.3702 Z"
                  stroke="none"/>
            <text x="129.5793" xml:space="preserve" font-size="14" y="281.441"
                  stroke="none"></text>
            <path d="M126 295.2285 L125.7996 295.2285 L125.7996 296.0789 L126 296.0789 Z"
                  stroke="none"/>
            <text x="128.6342" xml:space="preserve" font-size="14" y="300.1497"
                  stroke="none">AJ277984</text><path d="M126.65 313.9371 L129.0131 313.9371 L129.0131 314.7875 L126.65 314.7875 Z"
                  stroke="none"/>
            <text x="131.8477" xml:space="preserve" font-size="14" y="318.8584"
                  stroke="none">AJ277983</text><path d="M98.1066 351.3544 L114 351.3544 L114 352.2048 L98.1066 352.2048 Z"
                  stroke="none"/>
            <text x="78.178" xml:space="preserve" y="346.1812" stroke="none">NT1.16</text><line stroke-linecap="butt"
                  fill="none" x1="113.7488" x2="113.7488" y1="332.6457"
                  stroke-linejoin="bevel" y2="370.9135" stroke-width="0.8504"/>
            <path d="M114.174 332.6457 L114.0798 332.6457 L114.0798 333.4961 L114.174 333.4961 Z"
                  stroke="none"/>
            <text x="116.9144" xml:space="preserve" font-size="14" y="337.567"
                  stroke="none"></text>
            <path d="M114 351.3544 L122.5861 351.3544 L122.5861 352.2048 L114 352.2048 Z"
                  stroke="none"/>
            <text x="125.4207" xml:space="preserve" font-size="14" y="356.2757"
                  stroke="none">DQ333897</text><path d="M114.174 370.0631 L129.013 370.0631 L129.013 370.9135 L114.174 370.9135 Z"
                  stroke="none"/>
            <text x="131.8477" xml:space="preserve" font-size="14" y="374.9843"
                  stroke="none">AJ514408</text><path d="M84.3074 552.4725 L90 552.4725 L90 553.3228 L84.3074 553.3228 Z"
                  stroke="none"/>
            <text x="60.0917" xml:space="preserve" y="547.2993" stroke="none">NT1.3</text><line stroke-linecap="butt"
                  fill="none" x1="89.7421" x2="89.7421" y1="458.9291"
                  stroke-linejoin="bevel" y2="646.8661" stroke-width="0.8504"/>
            <path d="M90.1674 458.9292 L109 458.9292 L109 459.7796 L90.1674 459.7796 Z"
                  stroke="none"/>
            <text x="73.3293" xml:space="preserve" y="453.756" stroke="none">NT1.12</text><line stroke-linecap="butt"
                  fill="none" x1="108.8341" x2="108.8341" y1="388.7717"
                  stroke-linejoin="bevel" y2="529.937" stroke-width="0.8504"/>
            <path d="M109.2593 388.7717 L109.165 388.7717 L109.165 389.6221 L109.2593 389.6221 Z"
                  stroke="none"/>
            <text x="111.9996" xml:space="preserve" font-size="14" y="393.6929"
                  stroke="none"></text>
            <path d="M109 435.5433 L118 435.5433 L118 436.3937 L109 436.3937 Z"
                  stroke="none"/>
            <text x="82.7411" xml:space="preserve" y="430.3701" stroke="none">NT1.24</text><line stroke-linecap="butt"
                  fill="none" x1="118.2855" x2="118.2855" y1="407.4803"
                  stroke-linejoin="bevel" y2="464.4567" stroke-width="0.8504"/>
            <path d="M118.7107 407.4804 L118.6165 407.4804 L118.6165 408.3308 L118.7107 408.3308 Z"
                  stroke="none"/>
            <text x="121.4511" xml:space="preserve" font-size="14" y="412.4016"
                  stroke="none"></text>
            <path d="M118 426.1891 L152.4526 426.1891 L152.4526 427.0395 L118 427.0395 Z"
                  stroke="none"/>
            <text x="155.2873" xml:space="preserve" font-size="14" y="431.1103"
                  stroke="none">AF169520</text><path d="M118.7107 463.6064 L132 463.6064 L132 464.4568 L118.7107 464.4568 Z"
                  stroke="none"/>
            <text x="97.7256" xml:space="preserve" y="458.4331" stroke="none">NT1.41</text><line stroke-linecap="butt"
                  fill="none" x1="131.8956" x2="131.8956" y1="444.8977"
                  stroke-linejoin="bevel" y2="483.1654" stroke-width="0.8504"/>
            <path d="M132.3208 444.8977 L132.4156 444.8977 L132.4156 445.7481 L132.3208 445.7481 Z"
                  stroke="none"/>
            <text x="135.2502" xml:space="preserve" font-size="14" y="449.819"
                  stroke="none"></text>
            <path d="M132 463.6064 L132.2265 463.6064 L132.2265 464.4568 L132 464.4568 Z"
                  stroke="none"/>
            <text x="135.0612" xml:space="preserve" font-size="14" y="468.5276"
                  stroke="none">AJ627211</text><path d="M132.3208 482.3151 L131.6595 482.3151 L131.6595 483.1655 L132.3208 483.1655 Z"
                  stroke="none"/>
            <text x="134.4941" xml:space="preserve" font-size="14" y="487.2363"
                  stroke="none">AJ627212</text><path d="M109.2593 529.0867 L114 529.0867 L114 529.937 L109.2593 529.937 Z"
                  stroke="none"/>
            <text x="78.367" xml:space="preserve" y="523.9135" stroke="none">NT1.17</text><line stroke-linecap="butt"
                  fill="none" x1="113.9379" x2="113.9379" y1="501.0237"
                  stroke-linejoin="bevel" y2="558.0001" stroke-width="0.8504"/>
            <path d="M114.3631 501.0237 L114.4578 501.0237 L114.4578 501.8741 L114.3631 501.8741 Z"
                  stroke="none"/>
            <text x="117.2925" xml:space="preserve" font-size="14" y="505.9449"
                  stroke="none"></text>
            <path d="M114 519.7324 L138.4645 519.7324 L138.4645 520.5827 L114 520.5827 Z"
                  stroke="none"/>
            <text x="141.2991" xml:space="preserve" font-size="14" y="524.6536"
                  stroke="none">AF169531</text><path d="M114.3631 557.1497 L135 557.1497 L135 558 L114.3631 558 Z"
                  stroke="none"/>
            <text x="99.5383" xml:space="preserve" y="551.9764" stroke="none">NT1.47</text><line stroke-linecap="butt"
                  fill="none" x1="135.1091" x2="135.1091" y1="538.441"
                  stroke-linejoin="bevel" y2="576.7087" stroke-width="0.8504"/>
            <path d="M135.5343 538.441 L135.44 538.441 L135.44 539.2914 L135.5343 539.2914 Z"
                  stroke="none"/>
            <text x="138.2747" xml:space="preserve" font-size="14" y="543.3623"
                  stroke="none"></text>
            <path d="M135 557.1497 L144.8915 557.1497 L144.8915 558.0001 L135 558.0001 Z"
                  stroke="none"/>
            <text x="147.7261" xml:space="preserve" font-size="14" y="562.071"
                  stroke="none">X70320</text><path d="M135.5343 575.8584 L156.6113 575.8584 L156.6113 576.7087 L135.5343 576.7087 Z"
                  stroke="none"/>
            <text x="159.4459" xml:space="preserve" font-size="14" y="580.7797"
                  stroke="none"></text>
            <path d="M90.1674 646.0158 L103 646.0158 L103 646.8661 L90.1674 646.8661 Z"
                  stroke="none"/>
            <text x="73.5127" xml:space="preserve" y="640.8426" stroke="none">NT1.7</text><line stroke-linecap="butt"
                  fill="none" x1="103.1632" x2="103.1632" y1="594.567"
                  stroke-linejoin="bevel" y2="698.3151" stroke-width="0.8504"/>
            <path d="M103.5884 594.567 L103.4941 594.567 L103.4941 595.4174 L103.5884 595.4174 Z"
                  stroke="none"/>
            <text x="106.3288" xml:space="preserve" font-size="14" y="599.4882"
                  stroke="none"></text>
            <path d="M103 631.9843 L123 631.9843 L123 632.8347 L103 632.8347 Z"
                  stroke="none"/>
            <text x="86.8733" xml:space="preserve" y="626.8111" stroke="none">NT1.27</text><line stroke-linecap="butt"
                  fill="none" x1="122.4442" x2="122.4442" y1="613.2757"
                  stroke-linejoin="bevel" y2="651.5434" stroke-width="0.8504"/>
            <path d="M122.8694 613.2757 L122.9641 613.2757 L122.9641 614.126 L122.8694 614.126 Z"
                  stroke="none"/>
            <text x="125.7988" xml:space="preserve" font-size="14" y="618.1969"
                  stroke="none"></text>
            <path d="M122 631.9844 L129.3911 631.9844 L129.3911 632.8347 L122 632.8347 Z"
                  stroke="none"/>
            <text x="132.2257" xml:space="preserve" font-size="14" y="636.9056"
                  stroke="none">X60639</text><path d="M122.8694 650.6931 L129.9582 650.6931 L129.9582 651.5434 L122.8694 651.5434 Z"
                  stroke="none"/>
            <text x="132.7928" xml:space="preserve" font-size="14" y="655.6143"
                  stroke="none"></text>
            <path d="M103.5884 697.4646 L118 697.4646 L118 698.3149 L103.5884 698.3149 Z"
                  stroke="none"/>
            <text x="82.7147" xml:space="preserve" y="692.2914" stroke="none">NT1.23</text><line stroke-linecap="butt"
                  fill="none" x1="118.2855" x2="118.2855" y1="669.4016"
                  stroke-linejoin="bevel" y2="726.378" stroke-width="0.8504"/>
            <path d="M118.7107 669.4016 L118.6165 669.4016 L118.6165 670.252 L118.7107 670.252 Z"
                  stroke="none"/>
            <text x="121.4511" xml:space="preserve" font-size="14" y="674.3229"
                  stroke="none"></text>
            <path d="M118 688.1103 L138.4645 688.1103 L138.4645 688.9606 L118 688.9606 Z"
                  stroke="none"/>
            <text x="141.2991" xml:space="preserve" font-size="14" y="693.0316"
                  stroke="none">AJ491303</text><path d="M118 706.819 L143.1902 706.819 L143.1902 707.6693 L118 707.6693 Z"
                  stroke="none"/>
            <text x="146.0249" xml:space="preserve" font-size="14" y="711.7402"
                  stroke="none">AJ006086</text><path d="M118.7107 725.5276 L146.2147 725.5276 L146.2147 726.3779 L118.7107 726.3779 Z"
                  stroke="none"/>
            <text x="149.0493" xml:space="preserve" font-size="14" y="730.4489"
                  stroke="none">AJ491302</text>
        </g>
    </g>
</svg>
