<?xml version="1.0"?>
<!DOCTYPE svg PUBLIC '-//W3C//DTD SVG 1.0//EN'
    'http://www.w3.org/TR/2001/REC-SVG-20010904/DTD/svg10.dtd' >

<svg fill-opacity="1" xmlns:xlink="http://www.w3.org/1999/xlink"
     color-rendering="auto" color-interpolation="auto" stroke="black"
     text-rendering="auto" stroke-linecap="square" stroke-miterlimit="10"
     stroke-opacity="1" shape-rendering="auto" fill="black"
     stroke-dasharray="none" font-weight="normal" stroke-width="1"
     xmlns="http://www.w3.org/2000/svg" font-family="&apos;Dialog&apos;"
     font-style="normal" stroke-linejoin="miter" font-size="12"
     stroke-dashoffset="0" image-rendering="auto">
    <!--Generated by the Batik Graphics2D SVG Generator-->
    <defs id="genericDefs"/>
    <g>
        <g fill="white" stroke="white">
            <rect x="0" width="215" height="261" y="0" stroke="none"/>
            <path fill="black"
                  d="M5 103.8898 L44 103.8898 L44 104.7402 L5 104.7402 Z"
                  stroke="none"/>
        </g>
        <g font-family="&apos;Arial&apos;" font-size="9">
            <text x="8.5039" xml:space="preserve" y="98.7165" stroke="none">NT1.20</text><line stroke-linecap="butt"
                  fill="none" x1="44.0484" x2="44.0484" y1="47.3386"
                  stroke-linejoin="bevel" y2="160.4409" stroke-width="0.8504"/>
            <path d="M44.4735 47.3386 L48 47.3386 L48 48.189 L44.4735 48.189 Z"
                  stroke="none"/>
            <text x="20.0563" xml:space="preserve" y="42.1654" stroke="none">NT1.1</text><line stroke-linecap="butt"
                  fill="none" x1="48.3059" x2="48.3059" y1="23.9528"
                  stroke-linejoin="bevel" y2="71.5748" stroke-width="0.8504"/>
            <path d="M48.7311 23.9528 L83 23.9528 L83 24.8032 L48.7311 24.8032 Z"
                  stroke="none"/>
            <text x="46.966" xml:space="preserve" y="18.7795" stroke="none">NT1.13</text><line stroke-linecap="butt"
                  fill="none" x1="82.5368" x2="82.5368" y1="14.5984"
                  stroke-linejoin="bevel" y2="34.1575" stroke-width="0.8504"/>
            <path d="M82.962 14.5984 L121.8773 14.5984 L121.8773 15.4488 L82.962 15.4488 Z"
                  stroke="none"/>
            <text x="124.7119" xml:space="preserve" font-size="14" y="19.5197"
                  stroke="none">AE000641</text><path d="M82.962 33.3071 L122.3031 33.3071 L122.3031 34.1575 L82.962 34.1575 Z"
                  stroke="none"/>
            <text x="125.1377" xml:space="preserve" font-size="14" y="38.2283"
                  stroke="none">AE001553</text><path d="M48.7311 70.7244 L84 70.7244 L84 71.5748 L48.7311 71.5748 Z"
                  stroke="none"/>
            <text x="48.6103" xml:space="preserve" y="65.5512" stroke="none">NT1.14</text><line stroke-linecap="butt"
                  fill="none" x1="84.1547" x2="84.1547" y1="52.0157"
                  stroke-linejoin="bevel" y2="90.2835" stroke-width="0.8504"/>
            <path d="M84.5799 52.0158 L83.9849 52.0158 L83.9849 52.8661 L84.5799 52.8661 Z"
                  stroke="none"/>
            <text x="86.8196" xml:space="preserve" font-size="14" y="56.937"
                  stroke="none"></text>
            <path d="M84 70.7244 L88.4979 70.7244 L88.4979 71.5748 L84 71.5748 Z"
                  stroke="none"/>
            <text x="91.3326" xml:space="preserve" font-size="14" y="75.6457"
                  stroke="none">EF204596</text><path d="M84.5799 89.4331 L88.3276 89.4331 L88.3276 90.2835 L84.5799 90.2835 Z"
                  stroke="none"/>
            <text x="91.1623" xml:space="preserve" font-size="14" y="94.3543"
                  stroke="none">EF204595</text><path d="M44.4735 159.5906 L48 159.5906 L48 160.441 L44.4735 160.441 Z"
                  stroke="none"/>
            <text x="18.8067" xml:space="preserve" y="154.4173" stroke="none">NT1.2</text><line stroke-linecap="butt"
                  fill="none" x1="48.3911" x2="48.3911" y1="108.1417"
                  stroke-linejoin="bevel" y2="211.8898" stroke-width="0.8504"/>
            <path d="M48.8163 108.1417 L48.2213 108.1417 L48.2213 108.9921 L48.8163 108.9921 Z"
                  stroke="none"/>
            <text x="51.056" xml:space="preserve" font-size="14" y="113.063"
                  stroke="none"></text>
            <path d="M48 140.8819 L50 140.8819 L50 141.7323 L48 141.7323 Z"
                  stroke="none"/>
            <text x="20.0179" xml:space="preserve" y="135.7086" stroke="none">NT1.6</text><line stroke-linecap="butt"
                  fill="none" x1="49.6683" x2="49.6683" y1="126.8504"
                  stroke-linejoin="bevel" y2="155.7638" stroke-width="0.8504"/>
            <path d="M50.0935 126.8504 L56.6513 126.8504 L56.6513 127.7008 L50.0935 127.7008 Z"
                  stroke="none"/>
            <text x="59.486" xml:space="preserve" font-size="14" y="131.7717"
                  stroke="none">AY596215</text><path d="M50.0935 154.9134 L56 154.9134 L56 155.7638 L50.0935 155.7638 Z"
                  stroke="none"/>
            <text x="25.9785" xml:space="preserve" y="149.7401" stroke="none">NT1.7</text><line stroke-linecap="butt"
                  fill="none" x1="55.6289" x2="55.6289" y1="145.559"
                  stroke-linejoin="bevel" y2="165.1181" stroke-width="0.8504"/>
            <path d="M56.0541 145.5591 L58.695 145.5591 L58.695 146.4095 L56.0541 146.4095 Z"
                  stroke="none"/>
            <text x="61.5296" xml:space="preserve" font-size="14" y="150.4803"
                  stroke="none">AY596216</text><path d="M56.0541 164.2677 L59.7168 164.2677 L59.7168 165.1181 L56.0541 165.1181 Z"
                  stroke="none"/>
            <text x="62.5514" xml:space="preserve" font-size="14" y="169.189"
                  stroke="none">AY596217</text><path d="M48.8163 211.0394 L49 211.0394 L49 211.8898 L48.8163 211.8898 Z"
                  stroke="none"/>
            <text x="19.6185" xml:space="preserve" y="205.8661" stroke="none">NT1.4</text><line stroke-linecap="butt"
                  fill="none" x1="49.2426" x2="49.2426" y1="182.9764"
                  stroke-linejoin="bevel" y2="239.9528" stroke-width="0.8504"/>
            <path d="M49.6678 182.9764 L49.0728 182.9764 L49.0728 183.8268 L49.6678 183.8268 Z"
                  stroke="none"/>
            <text x="51.9075" xml:space="preserve" font-size="14" y="187.8976"
                  stroke="none"></text>
            <path d="M49 201.6851 L59.5465 201.6851 L59.5465 202.5355 L49 202.5355 Z"
                  stroke="none"/>
            <text x="62.3811" xml:space="preserve" font-size="14" y="206.6063"
                  stroke="none">AY596218</text><path d="M49 220.3938 L61.0064 220.3938 L61.0064 221.2442 L49 221.2442 Z"
                  stroke="none"/>
            <text x="63.841" xml:space="preserve" font-size="14" y="225.315"
                  stroke="none">H</text><path d="M49.6678 239.1024 L61.2495 239.1024 L61.2495 239.9528 L49.6678 239.9528 Z"
                  stroke="none"/>
            <text x="64.0841" xml:space="preserve" font-size="14" y="244.0237"
                  stroke="none">felisLee085</text>
        </g>
    </g>
</svg>
