<?xml version="1.0"?>
<!DOCTYPE svg PUBLIC '-//W3C//DTD SVG 1.0//EN'
    'http://www.w3.org/TR/2001/REC-SVG-20010904/DTD/svg10.dtd' >

<svg fill-opacity="1" xmlns:xlink="http://www.w3.org/1999/xlink"
     color-rendering="auto" color-interpolation="auto" stroke="black"
     text-rendering="auto" stroke-linecap="square" stroke-miterlimit="10"
     stroke-opacity="1" shape-rendering="auto" fill="black"
     stroke-dasharray="none" font-weight="normal" stroke-width="1"
     xmlns="http://www.w3.org/2000/svg" font-family="&apos;Dialog&apos;"
     font-style="normal" stroke-linejoin="miter" font-size="12"
     stroke-dashoffset="0" image-rendering="auto">
    <!--Generated by the Batik Graphics2D SVG Generator-->
    <defs id="genericDefs"/>
    <g>
        <g fill="white" stroke="white">
            <rect x="0" width="219" height="803" y="0" stroke="none"/>
            <path fill="black"
                  d="M5 419.6624 L44 419.6624 L44 420.5128 L5 420.5128 Z"
                  stroke="none"/>
        </g>
        <g font-family="&apos;Arial&apos;" font-size="9">
            <text x="8.5039" xml:space="preserve" y="414.4892" stroke="none">NT1.73</text><line stroke-linecap="butt"
                  fill="none" x1="44.0748" x2="44.0748" y1="94.2381"
                  stroke-linejoin="bevel" y2="745.0867" stroke-width="0.8504"/>
            <path d="M44.5 94.2381 L49 94.2381 L49 95.0885 L44.5 95.0885 Z"
                  stroke="none"/>
            <text x="20.9732" xml:space="preserve" y="89.0649" stroke="none">NT1.1</text><line stroke-linecap="butt"
                  fill="none" x1="49.2229" x2="49.2229" y1="14.5984"
                  stroke-linejoin="bevel" y2="174.7282" stroke-width="0.8504"/>
            <path d="M49.6481 14.5984 L92.15 14.5984 L92.15 15.4488 L49.6481 15.4488 Z"
                  stroke="none"/>
            <text x="94.9846" xml:space="preserve" font-size="14" y="19.5197"
                  stroke="none">X83806</text><path d="M49.6481 173.8779 L65 173.8779 L65 174.7283 L49.6481 174.7283 Z"
                  stroke="none"/>
            <text x="35.1522" xml:space="preserve" y="168.7046" stroke="none">NT1.3</text><line stroke-linecap="butt"
                  fill="none" x1="64.8026" x2="64.8026" y1="33.3071"
                  stroke-linejoin="bevel" y2="315.299" stroke-width="0.8504"/>
            <path d="M65.2278 33.3071 L109.6264 33.3071 L109.6264 34.1575 L65.2278 34.1575 Z"
                  stroke="none"/>
            <text x="112.461" xml:space="preserve" font-size="14" y="38.2283"
                  stroke="none">DQ372707</text><path d="M65.2278 314.4486 L69 314.4486 L69 315.299 L65.2278 315.299 Z"
                  stroke="none"/>
            <text x="39.5138" xml:space="preserve" y="309.2754" stroke="none">NT1.4</text><line stroke-linecap="butt"
                  fill="none" x1="69.1379" x2="69.1379" y1="98.7874"
                  stroke-linejoin="bevel" y2="530.9602" stroke-width="0.8504"/>
            <path d="M69.5631 98.7874 L80 98.7874 L80 99.6378 L69.5631 99.6378 Z"
                  stroke="none"/>
            <text x="50.1768" xml:space="preserve" y="93.6142" stroke="none">NT1.9</text><line stroke-linecap="butt"
                  fill="none" x1="79.8405" x2="79.8405" y1="52.0157"
                  stroke-linejoin="bevel" y2="146.4095" stroke-width="0.8504"/>
            <path d="M80.2657 52.0158 L80.0927 52.0158 L80.0927 52.8661 L80.2657 52.8661 Z"
                  stroke="none"/>
            <text x="82.9274" xml:space="preserve" font-size="14" y="56.937"
                  stroke="none"></text>
            <path d="M80 89.4331 L92 89.4331 L92 90.2835 L80 90.2835 Z"
                  stroke="none"/>
            <text x="56.0032" xml:space="preserve" y="84.2598" stroke="none">NT1.25</text><line stroke-linecap="butt"
                  fill="none" x1="91.6269" x2="91.6269" y1="70.7244"
                  stroke-linejoin="bevel" y2="108.9921" stroke-width="0.8504"/>
            <path d="M92.0522 70.7244 L91.7437 70.7244 L91.7437 71.5748 L92.0522 71.5748 Z"
                  stroke="none"/>
            <text x="94.5783" xml:space="preserve" font-size="14" y="75.6457"
                  stroke="none"></text>
            <path d="M92 89.4331 L96.7563 89.4331 L96.7563 90.2835 L92 90.2835 Z"
                  stroke="none"/>
            <text x="99.5909" xml:space="preserve" font-size="14" y="94.3543"
                  stroke="none">X83812</text><path d="M92.0522 108.1417 L97.9756 108.1417 L97.9756 108.9921 L92.0522 108.9921 Z"
                  stroke="none"/>
            <text x="100.8102" xml:space="preserve" font-size="14" y="113.063"
                  stroke="none"></text>
            <path d="M80.2657 145.5591 L87 145.5591 L87 146.4095 L80.2657 146.4095 Z"
                  stroke="none"/>
            <text x="51.4367" xml:space="preserve" y="140.3858" stroke="none">NT1.19</text><line stroke-linecap="butt"
                  fill="none" x1="87.0207" x2="87.0207" y1="126.8504"
                  stroke-linejoin="bevel" y2="165.1181" stroke-width="0.8504"/>
            <path d="M87.4459 126.8504 L87.1375 126.8504 L87.1375 127.7008 L87.4459 127.7008 Z"
                  stroke="none"/>
            <text x="89.9721" xml:space="preserve" font-size="14" y="131.7717"
                  stroke="none"></text>
            <path d="M87 145.5591 L105.1557 145.5591 L105.1557 146.4095 L87 146.4095 Z"
                  stroke="none"/>
            <text x="107.9904" xml:space="preserve" font-size="14" y="150.4803"
                  stroke="none"></text>
            <path d="M87.4459 164.2677 L106.7815 164.2677 L106.7815 165.1181 L87.4459 165.1181 Z"
                  stroke="none"/>
            <text x="109.6161" xml:space="preserve" font-size="14" y="169.189"
                  stroke="none">Y11928</text><path d="M69.5631 530.1098 L73 530.1098 L73 530.9601 L69.5631 530.9601 Z"
                  stroke="none"/>
            <text x="43.3634" xml:space="preserve" y="524.9366" stroke="none">NT1.5</text><line stroke-linecap="butt"
                  fill="none" x1="73.0667" x2="73.0667" y1="400.1723"
                  stroke-linejoin="bevel" y2="660.8977" stroke-width="0.8504"/>
            <path d="M73.4919 400.1723 L79 400.1723 L79 401.0227 L73.4919 401.0227 Z"
                  stroke="none"/>
            <text x="49.5127" xml:space="preserve" y="394.9991" stroke="none">NT1.6</text><line stroke-linecap="butt"
                  fill="none" x1="79.1631" x2="79.1631" y1="251.9646"
                  stroke-linejoin="bevel" y2="549.2303" stroke-width="0.8504"/>
            <path d="M79.5883 251.9646 L80 251.9646 L80 252.815 L79.5883 252.815 Z"
                  stroke="none"/>
            <text x="49.7836" xml:space="preserve" y="246.7914" stroke="none">NT1.7</text><line stroke-linecap="butt"
                  fill="none" x1="79.4341" x2="79.4341" y1="182.9764"
                  stroke-linejoin="bevel" y2="321.8032" stroke-width="0.8504"/>
            <path d="M79.8593 182.9764 L79.4153 182.9764 L79.4153 183.8268 L79.8593 183.8268 Z"
                  stroke="none"/>
            <text x="82.2499" xml:space="preserve" font-size="14" y="187.8976"
                  stroke="none"></text>
            <path d="M79.8593 320.9528 L82 320.9528 L82 321.8032 L79.8593 321.8032 Z"
                  stroke="none"/>
            <text x="47.5671" xml:space="preserve" y="315.7796" stroke="none">NT1.11</text><line stroke-linecap="butt"
                  fill="none" x1="81.7372" x2="81.7372" y1="201.6851"
                  stroke-linejoin="bevel" y2="441.0709" stroke-width="0.8504"/>
            <path d="M82.1624 201.6851 L81.8539 201.6851 L81.8539 202.5355 L82.1624 202.5355 Z"
                  stroke="none"/>
            <text x="84.6885" xml:space="preserve" font-size="14" y="206.6063"
                  stroke="none"></text>
            <path d="M82 265.9961 L87 265.9961 L87 266.8465 L82 266.8465 Z"
                  stroke="none"/>
            <text x="51.3012" xml:space="preserve" y="260.8229" stroke="none">NT1.18</text><line stroke-linecap="butt"
                  fill="none" x1="86.8853" x2="86.8853" y1="220.3938"
                  stroke-linejoin="bevel" y2="312.4489" stroke-width="0.8504"/>
            <path d="M87.3105 220.3938 L112.4715 220.3938 L112.4715 221.2442 L87.3105 221.2442 Z"
                  stroke="none"/>
            <text x="115.3061" xml:space="preserve" font-size="14" y="225.315"
                  stroke="none"></text>
            <path d="M87.3105 311.5985 L89 311.5985 L89 312.4489 L87.3105 312.4489 Z"
                  stroke="none"/>
            <text x="53.1417" xml:space="preserve" y="306.4253" stroke="none">NT1.22</text><line stroke-linecap="butt"
                  fill="none" x1="88.6464" x2="88.6464" y1="239.1024"
                  stroke-linejoin="bevel" y2="384.9449" stroke-width="0.8504"/>
            <path d="M89.0717 239.1024 L88.8986 239.1024 L88.8986 239.9528 L89.0717 239.9528 Z"
                  stroke="none"/>
            <text x="91.7333" xml:space="preserve" font-size="14" y="244.0237"
                  stroke="none"></text>
            <path d="M89 276.5198 L102 276.5198 L102 277.3702 L89 277.3702 Z"
                  stroke="none"/>
            <text x="66.0813" xml:space="preserve" y="271.3465" stroke="none">NT1.43</text><line stroke-linecap="butt"
                  fill="none" x1="101.6522" x2="101.6522" y1="257.8111"
                  stroke-linejoin="bevel" y2="296.0788" stroke-width="0.8504"/>
            <path d="M102.0774 257.8111 L124.5288 257.8111 L124.5288 258.6615 L102.0774 258.6615 Z"
                  stroke="none"/>
            <text x="127.3635" xml:space="preserve" font-size="14" y="262.7324"
                  stroke="none">Y14595</text><path d="M102.0774 295.2285 L102 295.2285 L102 296.0789 L102.0774 296.0789 Z"
                  stroke="none"/>
            <text x="66.3787" xml:space="preserve" y="290.0552" stroke="none">NT1.44</text><line stroke-linecap="butt"
                  fill="none" x1="101.9231" x2="101.9231" y1="276.5198"
                  stroke-linejoin="bevel" y2="314.7875" stroke-width="0.8504"/>
            <path d="M102.3484 276.5198 L101.7689 276.5198 L101.7689 277.3702 L102.3484 277.3702 Z"
                  stroke="none"/>
            <text x="104.6036" xml:space="preserve" font-size="14" y="281.441"
                  stroke="none"></text>
            <path d="M102.3484 313.9371 L109 313.9371 L109 314.7875 L102.3484 314.7875 Z"
                  stroke="none"/>
            <text x="73.0171" xml:space="preserve" y="308.7639" stroke="none">NT1.54</text><line stroke-linecap="butt"
                  fill="none" x1="108.5615" x2="108.5615" y1="295.2285"
                  stroke-linejoin="bevel" y2="333.4962" stroke-width="0.8504"/>
            <path d="M108.9867 295.2285 L122.0903 295.2285 L122.0903 296.0789 L108.9867 296.0789 Z"
                  stroke="none"/>
            <text x="124.925" xml:space="preserve" font-size="14" y="300.1497"
                  stroke="none"></text>
            <path d="M108.9867 332.6458 L112 332.6458 L112 333.4962 L108.9867 333.4962 Z"
                  stroke="none"/>
            <text x="76.133" xml:space="preserve" y="327.4726" stroke="none">NT1.60</text><line stroke-linecap="butt"
                  fill="none" x1="111.6774" x2="111.6774" y1="313.9371"
                  stroke-linejoin="bevel" y2="352.2049" stroke-width="0.8504"/>
            <path d="M112.1026 313.9371 L111.7942 313.9371 L111.7942 314.7875 L112.1026 314.7875 Z"
                  stroke="none"/>
            <text x="114.6288" xml:space="preserve" font-size="14" y="318.8584"
                  stroke="none"></text>
            <path d="M112 332.6458 L126.832 332.6458 L126.832 333.4962 L112 333.4962 Z"
                  stroke="none"/>
            <text x="129.6666" xml:space="preserve" font-size="14" y="337.5671"
                  stroke="none"></text>
            <path d="M112.1026 351.3545 L125.7482 351.3545 L125.7482 352.2049 L112.1026 352.2049 Z"
                  stroke="none"/>
            <text x="128.5828" xml:space="preserve" font-size="14" y="356.2758"
                  stroke="none">DQOOY320</text><path d="M89.0717 384.0946 L93 384.0946 L93 384.945 L89.0717 384.945 Z"
                  stroke="none"/>
            <text x="57.3976" xml:space="preserve" y="378.9214" stroke="none">NT1.29</text><line stroke-linecap="butt"
                  fill="none" x1="92.9817" x2="92.9817" y1="370.0631"
                  stroke-linejoin="bevel" y2="398.9765" stroke-width="0.8504"/>
            <path d="M93.4069 370.0631 L106.7815 370.0631 L106.7815 370.9135 L93.4069 370.9135 Z"
                  stroke="none"/>
            <text x="109.6161" xml:space="preserve" font-size="14" y="374.9843"
                  stroke="none">ABO72496</text><path d="M93.4069 398.1261 L93 398.1261 L93 398.9765 L93.4069 398.9765 Z"
                  stroke="none"/>
            <text x="57.7083" xml:space="preserve" y="392.9529" stroke="none">NT1.30</text><line stroke-linecap="butt"
                  fill="none" x1="93.2527" x2="93.2527" y1="388.7718"
                  stroke-linejoin="bevel" y2="408.3308" stroke-width="0.8504"/>
            <path d="M93.6779 388.7718 L93.2339 388.7718 L93.2339 389.6222 L93.6779 389.6222 Z"
                  stroke="none"/>
            <text x="96.0686" xml:space="preserve" font-size="14" y="393.693"
                  stroke="none"></text>
            <path d="M93.6779 407.4805 L112.4715 407.4805 L112.4715 408.3309 L93.6779 408.3309 Z"
                  stroke="none"/>
            <text x="115.3061" xml:space="preserve" font-size="14" y="412.4017"
                  stroke="none"></text>
            <path d="M82.1624 440.2206 L94 440.2206 L94 441.071 L82.1624 441.071 Z"
                  stroke="none"/>
            <text x="58.5607" xml:space="preserve" y="435.0473" stroke="none">NT1.32</text><line stroke-linecap="butt"
                  fill="none" x1="94.0655" x2="94.0655" y1="426.189"
                  stroke-linejoin="bevel" y2="455.1024" stroke-width="0.8504"/>
            <path d="M94.4907 426.1891 L127.9157 426.1891 L127.9157 427.0395 L94.4907 427.0395 Z"
                  stroke="none"/>
            <text x="130.7504" xml:space="preserve" font-size="14" y="431.1103"
                  stroke="none">Y17869</text><path d="M94.4907 454.2521 L94 454.2521 L94 455.1025 L94.4907 455.1025 Z"
                  stroke="none"/>
            <text x="58.7656" xml:space="preserve" y="449.0788" stroke="none">NT1.33</text><line stroke-linecap="butt"
                  fill="none" x1="94.3365" x2="94.3365" y1="444.8977"
                  stroke-linejoin="bevel" y2="464.4568" stroke-width="0.8504"/>
            <path d="M94.7617 444.8977 L94.3177 444.8977 L94.3177 445.7481 L94.7617 445.7481 Z"
                  stroke="none"/>
            <text x="97.1524" xml:space="preserve" font-size="14" y="449.819"
                  stroke="none"></text>
            <path d="M94.7617 463.6064 L125.7482 463.6064 L125.7482 464.4568 L94.7617 464.4568 Z"
                  stroke="none"/>
            <text x="128.5828" xml:space="preserve" font-size="14" y="468.5276"
                  stroke="none">AB193174</text><path d="M79.5883 548.38 L86 548.38 L86 549.2303 L79.5883 549.2303 Z"
                  stroke="none"/>
            <text x="50.5016" xml:space="preserve" y="543.2068" stroke="none">NT1.16</text><line stroke-linecap="butt"
                  fill="none" x1="86.0724" x2="86.0724" y1="502.193"
                  stroke-linejoin="bevel" y2="595.4174" stroke-width="0.8504"/>
            <path d="M86.4976 502.193 L93 502.193 L93 503.0434 L86.4976 503.0434 Z"
                  stroke="none"/>
            <text x="56.9912" xml:space="preserve" y="497.0197" stroke="none">NT1.28</text><line stroke-linecap="butt"
                  fill="none" x1="92.5752" x2="92.5752" y1="482.315"
                  stroke-linejoin="bevel" y2="522.9213" stroke-width="0.8504"/>
            <path d="M93.0004 482.315 L105.5622 482.315 L105.5622 483.1654 L93.0004 483.1654 Z"
                  stroke="none"/>
            <text x="108.3968" xml:space="preserve" font-size="14" y="487.2363"
                  stroke="none">AY522568</text><path d="M93.0004 522.071 L98 522.071 L98 522.9213 L93.0004 522.9213 Z"
                  stroke="none"/>
            <text x="62.8166" xml:space="preserve" y="516.8977" stroke="none">NT1.39</text><line stroke-linecap="butt"
                  fill="none" x1="98.4007" x2="98.4007" y1="501.0237"
                  stroke-linejoin="bevel" y2="543.9686" stroke-width="0.8504"/>
            <path d="M98.8259 501.0237 L107.5943 501.0237 L107.5943 501.8741 L98.8259 501.8741 Z"
                  stroke="none"/>
            <text x="110.429" xml:space="preserve" font-size="14" y="505.945"
                  stroke="none">AY837752</text><path d="M98.8259 543.1182 L99 543.1182 L99 543.9686 L98.8259 543.9686 Z"
                  stroke="none"/>
            <text x="63.5337" xml:space="preserve" y="537.945" stroke="none">NT1.40</text><line stroke-linecap="butt"
                  fill="none" x1="99.0781" x2="99.0781" y1="529.0867"
                  stroke-linejoin="bevel" y2="558.0001" stroke-width="0.8504"/>
            <path d="M99.5033 529.0867 L99 529.0867 L99 529.9371 L99.5033 529.9371 Z"
                  stroke="none"/>
            <text x="65.179" xml:space="preserve" y="523.9135" stroke="none">NT1.41</text><line stroke-linecap="butt"
                  fill="none" x1="99.3491" x2="99.3491" y1="519.7324"
                  stroke-linejoin="bevel" y2="539.2915" stroke-width="0.8504"/>
            <path d="M99.7743 519.7324 L99.1948 519.7324 L99.1948 520.5828 L99.7743 520.5828 Z"
                  stroke="none"/>
            <text x="102.0295" xml:space="preserve" font-size="14" y="524.6537"
                  stroke="none"></text>
            <path d="M99.7743 538.4411 L109.6265 538.4411 L109.6265 539.2914 L99.7743 539.2914 Z"
                  stroke="none"/>
            <text x="112.4611" xml:space="preserve" font-size="14" y="543.3623"
                  stroke="none">AF176948</text><path d="M99.5033 557.1498 L108.6781 557.1498 L108.6781 558.0001 L99.5033 558.0001 Z"
                  stroke="none"/>
            <text x="111.5128" xml:space="preserve" font-size="14" y="562.071"
                  stroke="none">Y08539</text><path d="M86.4976 594.567 L97 594.567 L97 595.4174 L86.4976 595.4174 Z"
                  stroke="none"/>
            <text x="61.2868" xml:space="preserve" y="589.3937" stroke="none">NT1.35</text><line stroke-linecap="butt"
                  fill="none" x1="96.9105" x2="96.9105" y1="575.8583"
                  stroke-linejoin="bevel" y2="614.126" stroke-width="0.8504"/>
            <path d="M97.3357 575.8583 L97.1627 575.8583 L97.1627 576.7087 L97.3357 576.7087 Z"
                  stroke="none"/>
            <text x="99.9973" xml:space="preserve" font-size="14" y="580.7796"
                  stroke="none"></text>
            <path d="M97 594.567 L105.6976 594.567 L105.6976 595.4174 L97 595.4174 Z"
                  stroke="none"/>
            <text x="108.5323" xml:space="preserve" font-size="14" y="599.4883"
                  stroke="none"></text>
            <path d="M97.3357 613.2757 L110.4393 613.2757 L110.4393 614.126 L97.3357 614.126 Z"
                  stroke="none"/>
            <text x="113.2739" xml:space="preserve" font-size="14" y="618.197"
                  stroke="none">AJ294413</text><path d="M73.4919 660.0473 L84 660.0473 L84 660.8976 L73.4919 660.8976 Z"
                  stroke="none"/>
            <text x="48.3339" xml:space="preserve" y="654.8741" stroke="none">NT1.13</text><line stroke-linecap="butt"
                  fill="none" x1="83.9048" x2="83.9048" y1="631.9844"
                  stroke-linejoin="bevel" y2="688.9608" stroke-width="0.8504"/>
            <path d="M84.33 631.9844 L83.886 631.9844 L83.886 632.8347 L84.33 632.8347 Z"
                  stroke="none"/>
            <text x="86.7207" xml:space="preserve" font-size="14" y="636.9056"
                  stroke="none"></text>
            <path d="M84 650.6931 L110.5748 650.6931 L110.5748 651.5434 L84 651.5434 Z"
                  stroke="none"/>
            <text x="113.4094" xml:space="preserve" font-size="14" y="655.6143"
                  stroke="none">DQ345443</text><path d="M84.33 688.1104 L88 688.1104 L88 688.9607 L84.33 688.9607 Z"
                  stroke="none"/>
            <text x="54.07" xml:space="preserve" y="682.9371" stroke="none">NT1.21</text><line stroke-linecap="butt"
                  fill="none" x1="88.24" x2="88.24" y1="669.4017"
                  stroke-linejoin="bevel" y2="707.6694" stroke-width="0.8504"/>
            <path d="M88.6652 669.4017 L88.4922 669.4017 L88.4922 670.2521 L88.6652 670.2521 Z"
                  stroke="none"/>
            <text x="91.3268" xml:space="preserve" font-size="14" y="674.3229"
                  stroke="none"></text>
            <path d="M88 688.1104 L102.9881 688.1104 L102.9881 688.9608 L88 688.9608 Z"
                  stroke="none"/>
            <text x="105.8228" xml:space="preserve" font-size="14" y="693.0316"
                  stroke="none"></text>
            <path d="M88.6652 706.8191 L104.3429 706.8191 L104.3429 707.6694 L88.6652 707.6694 Z"
                  stroke="none"/>
            <text x="107.1775" xml:space="preserve" font-size="14" y="711.7403"
                  stroke="none">EF493847</text><path d="M44.5 744.2363 L50 744.2363 L50 745.0866 L44.5 745.0866 Z"
                  stroke="none"/>
            <text x="20.0449" xml:space="preserve" y="739.063" stroke="none">NT1.2</text><line stroke-linecap="butt"
                  fill="none" x1="49.6293" x2="49.6293" y1="725.5276"
                  stroke-linejoin="bevel" y2="763.7953" stroke-width="0.8504"/>
            <path d="M50.0545 725.5276 L116.6712 725.5276 L116.6712 726.3779 L50.0545 726.3779 Z"
                  stroke="none"/>
            <text x="119.5058" xml:space="preserve" font-size="14" y="730.4489"
                  stroke="none">X83808</text><path d="M50.0545 762.9449 L86 762.9449 L86 763.7952 L50.0545 763.7952 Z"
                  stroke="none"/>
            <text x="50.1777" xml:space="preserve" y="757.7717" stroke="none">NT1.15</text><line stroke-linecap="butt"
                  fill="none" x1="85.8014" x2="85.8014" y1="744.2362"
                  stroke-linejoin="bevel" y2="782.5039" stroke-width="0.8504"/>
            <path d="M86.2266 744.2362 L85.9181 744.2362 L85.9181 745.0865 L86.2266 745.0865 Z"
                  stroke="none"/>
            <text x="88.7528" xml:space="preserve" font-size="14" y="749.1575"
                  stroke="none"></text>
            <path d="M86 762.9448 L123.0385 762.9448 L123.0385 763.7952 L86 763.7952 Z"
                  stroke="none"/>
            <text x="125.8732" xml:space="preserve" font-size="14" y="767.8661"
                  stroke="none">X77441</text><path d="M86.2266 781.6534 L127.9157 781.6534 L127.9157 782.5037 L86.2266 782.5037 Z"
                  stroke="none"/>
            <text x="130.7503" xml:space="preserve" font-size="14" y="786.5747"
                  stroke="none">X92492</text>
        </g>
    </g>
</svg>
