<?xml version="1.0"?>
<!DOCTYPE svg PUBLIC '-//W3C//DTD SVG 1.0//EN'
    'http://www.w3.org/TR/2001/REC-SVG-20010904/DTD/svg10.dtd' >

<svg fill-opacity="1" xmlns:xlink="http://www.w3.org/1999/xlink"
     color-rendering="auto" color-interpolation="auto" stroke="black"
     text-rendering="auto" stroke-linecap="square" stroke-miterlimit="10"
     stroke-opacity="1" shape-rendering="auto" fill="black"
     stroke-dasharray="none" font-weight="normal" stroke-width="1"
     xmlns="http://www.w3.org/2000/svg" font-family="&apos;Dialog&apos;"
     font-style="normal" stroke-linejoin="miter" font-size="12"
     stroke-dashoffset="0" image-rendering="auto">
    <!--Generated by the Batik Graphics2D SVG Generator-->
    <defs id="genericDefs"/>
    <g>
        <g fill="white" stroke="white">
            <rect x="0" width="169" height="336" y="0" stroke="none"/>
            <path fill="black"
                  d="M5 255.0805 L18 255.0805 L18 255.9309 L5 255.9309 Z"
                  stroke="none"/>
            <circle fill="black" r="1.2756" cx="17.4331" cy="255.0805"
                    stroke="none"/>
            <path fill="black"
                  d="M17.8583 254.2301 L18 254.2301 L18 255.0805 L17.8583 255.0805 Z"
                  stroke="none"/>
        </g>
        <g font-family="&apos;Arial&apos;" font-size="9">
            <text x="-11.3828" xml:space="preserve" y="249.0569" stroke="none">NT1.2</text><line stroke-linecap="butt"
                  fill="none" x1="18.2016" x2="18.2016" y1="194.5231"
                  stroke-linejoin="bevel" y2="314.7874" stroke-width="0.8504"/>
            <path d="M18.6268 194.5231 L23 194.5231 L23 195.3736 L18.6268 195.3736 Z"
                  stroke="none"/>
            <text x="-7.222" xml:space="preserve" y="189.3499" stroke="none">NT1.3</text><line stroke-linecap="butt"
                  fill="none" x1="22.4284" x2="22.4284" y1="134.7431"
                  stroke-linejoin="bevel" y2="255.1536" stroke-width="0.8504"/>
            <path d="M22.8536 134.7431 L29 134.7431 L29 135.5935 L22.8536 135.5935 Z"
                  stroke="none"/>
            <text x="-0.6464" xml:space="preserve" y="129.5699" stroke="none">NT1.5</text><line stroke-linecap="butt"
                  fill="none" x1="29.0569" x2="29.0569" y1="95.8642"
                  stroke-linejoin="bevel" y2="174.4725" stroke-width="0.8504"/>
            <path d="M29.4821 95.8642 L35 95.8642 L35 96.7146 L29.4821 96.7146 Z"
                  stroke="none"/>
            <text x="4.8822" xml:space="preserve" y="90.6909" stroke="none">NT1.7</text><line stroke-linecap="butt"
                  fill="none" x1="34.5326" x2="34.5326" y1="60.2008"
                  stroke-linejoin="bevel" y2="132.378" stroke-width="0.8504"/>
            <path d="M34.9578 60.2008 L40 60.2008 L40 61.0512 L34.9578 61.0512 Z"
                  stroke="none"/>
            <text x="10.7289" xml:space="preserve" y="55.0276" stroke="none">NT1.8</text><line stroke-linecap="butt"
                  fill="none" x1="40.3926" x2="40.3926" y1="30.9685"
                  stroke-linejoin="bevel" y2="90.2835" stroke-width="0.8504"/>
            <path d="M40.8178 30.9685 L41 30.9685 L41 31.8189 L40.8178 31.8189 Z"
                  stroke="none"/>
            <text x="11.5935" xml:space="preserve" y="25.7953" stroke="none">NT1.9</text><line stroke-linecap="butt"
                  fill="none" x1="41.2572" x2="41.2572" y1="14.5984"
                  stroke-linejoin="bevel" y2="48.189" stroke-width="0.8504"/>
            <path d="M41.6824 14.5984 L52.4559 14.5984 L52.4559 15.4488 L41.6824 15.4488 Z"
                  stroke="none"/>
            <text x="55.2905" xml:space="preserve" font-size="14" y="19.5197"
                  stroke="none">AF124343</text><path d="M41.6824 47.3386 L50 47.3386 L50 48.189 L41.6824 48.189 Z"
                  stroke="none"/>
            <text x="13.9744" xml:space="preserve" y="42.1654" stroke="none">NT1.14</text><line stroke-linecap="butt"
                  fill="none" x1="49.5188" x2="49.5188" y1="33.3071"
                  stroke-linejoin="bevel" y2="62.2205" stroke-width="0.8504"/>
            <path d="M49.944 33.3071 L52.4559 33.3071 L52.4559 34.1575 L49.944 34.1575 Z"
                  stroke="none"/>
            <text x="55.2905" xml:space="preserve" font-size="14" y="38.2283"
                  stroke="none">Z37138</text><path d="M49.944 61.3701 L53 61.3701 L53 62.2205 L49.944 62.2205 Z"
                  stroke="none"/>
            <text x="17.1181" xml:space="preserve" y="56.1968" stroke="none">NT1.16</text><line stroke-linecap="butt"
                  fill="none" x1="52.6889" x2="52.6889" y1="52.0157"
                  stroke-linejoin="bevel" y2="71.5748" stroke-width="0.8504"/>
            <path d="M53.1141 52.0158 L63.1191 52.0158 L63.1191 52.8661 L53.1141 52.8661 Z"
                  stroke="none"/>
            <text x="65.9537" xml:space="preserve" font-size="14" y="56.937"
                  stroke="none">X92114</text><path d="M53.1141 70.7244 L57.6434 70.7244 L57.6434 71.5748 L53.1141 71.5748 Z"
                  stroke="none"/>
            <text x="60.478" xml:space="preserve" font-size="14" y="75.6457"
                  stroke="none">X80630</text><path d="M40.8178 89.4331 L55.7221 89.4331 L55.7221 90.2835 L40.8178 90.2835 Z"
                  stroke="none"/>
            <text x="58.5567" xml:space="preserve" font-size="14" y="94.3543"
                  stroke="none">X80617</text><path d="M34.9578 131.5276 L45 131.5276 L45 132.378 L34.9578 132.378 Z"
                  stroke="none"/>
            <text x="10.2573" xml:space="preserve" y="126.3543" stroke="none">NT1.11</text><line stroke-linecap="butt"
                  fill="none" x1="44.4273" x2="44.4273" y1="117.4961"
                  stroke-linejoin="bevel" y2="146.4095" stroke-width="0.8504"/>
            <path d="M44.8526 117.4961 L51 117.4961 L51 118.3464 L44.8526 118.3464 Z"
                  stroke="none"/>
            <text x="15.4321" xml:space="preserve" y="112.3228" stroke="none">NT1.15</text><line stroke-linecap="butt"
                  fill="none" x1="51.0558" x2="51.0558" y1="108.1417"
                  stroke-linejoin="bevel" y2="127.7008" stroke-width="0.8504"/>
            <path d="M51.481 108.1417 L55.2418 108.1417 L55.2418 108.9921 L51.481 108.9921 Z"
                  stroke="none"/>
            <text x="58.0764" xml:space="preserve" font-size="14" y="113.063"
                  stroke="none">X79289</text><path d="M51.481 126.8504 L61.8702 126.8504 L61.8702 127.7008 L51.481 127.7008 Z"
                  stroke="none"/>
            <text x="64.7049" xml:space="preserve" font-size="14" y="131.7717"
                  stroke="none">AB071951</text><path d="M44.8526 145.5591 L59.0844 145.5591 L59.0844 146.4095 L44.8526 146.4095 Z"
                  stroke="none"/>
            <text x="61.919" xml:space="preserve" font-size="14" y="150.4803"
                  stroke="none">X80619</text><path d="M29.4821 173.6221 L56 173.6221 L56 174.4725 L29.4821 174.4725 Z"
                  stroke="none"/>
            <text x="21.8812" xml:space="preserve" y="168.4488" stroke="none">NT1.21</text><line stroke-linecap="butt"
                  fill="none" x1="56.0512" x2="56.0512" y1="164.2677"
                  stroke-linejoin="bevel" y2="183.8268" stroke-width="0.8504"/>
            <path d="M56.4764 164.2677 L65.0404 164.2677 L65.0404 165.1181 L56.4764 165.1181 Z"
                  stroke="none"/>
            <text x="67.875" xml:space="preserve" font-size="14" y="169.189"
                  stroke="none">X79186</text><path d="M56.4764 182.9764 L67.0577 182.9764 L67.0577 183.8268 L56.4764 183.8268 Z"
                  stroke="none"/>
            <text x="69.8924" xml:space="preserve" font-size="14" y="187.8976"
                  stroke="none">AY602219</text><path d="M22.8536 254.3032 L24 254.3032 L24 255.1536 L22.8536 255.1536 Z"
                  stroke="none"/>
            <text x="-5.2743" xml:space="preserve" y="249.13" stroke="none">NT1.4</text><line stroke-linecap="butt"
                  fill="none" x1="24.3497" x2="24.3497" y1="222.7323"
                  stroke-linejoin="bevel" y2="286.7244" stroke-width="0.8504"/>
            <path d="M24.7749 222.7323 L45 222.7323 L45 223.5827 L24.7749 223.5827 Z"
                  stroke="none"/>
            <text x="8.9226" xml:space="preserve" y="217.5591" stroke="none">NT1.12</text><line stroke-linecap="butt"
                  fill="none" x1="44.4273" x2="44.4273" y1="201.6851"
                  stroke-linejoin="bevel" y2="244.63" stroke-width="0.8504"/>
            <path d="M44.8525 201.6851 L65.905 201.6851 L65.905 202.5355 L44.8525 202.5355 Z"
                  stroke="none"/>
            <text x="68.7396" xml:space="preserve" font-size="14" y="206.6063"
                  stroke="none">X80626</text><path d="M44.8525 243.7796 L54 243.7796 L54 244.63 L44.8525 244.63 Z"
                  stroke="none"/>
            <text x="18.5458" xml:space="preserve" y="238.6064" stroke="none">NT1.19</text><line stroke-linecap="butt"
                  fill="none" x1="54.1299" x2="54.1299" y1="229.7481"
                  stroke-linejoin="bevel" y2="258.6614" stroke-width="0.8504"/>
            <path d="M54.5551 229.7481 L70 229.7481 L70 230.5985 L54.5551 230.5985 Z"
                  stroke="none"/>
            <text x="36.1948" xml:space="preserve" y="224.5748" stroke="none">NT1.31</text><line stroke-linecap="butt"
                  fill="none" x1="70.3649" x2="70.3649" y1="220.3938"
                  stroke-linejoin="bevel" y2="239.9528" stroke-width="0.8504"/>
            <path d="M70.7901 220.3938 L75.0311 220.3938 L75.0311 221.2442 L70.7901 221.2442 Z"
                  stroke="none"/>
            <text x="77.8658" xml:space="preserve" font-size="14" y="225.315"
                  stroke="none">X79288</text><path d="M70.7901 239.1024 L87.3274 239.1024 L87.3274 239.9528 L70.7901 239.9528 Z"
                  stroke="none"/>
            <text x="90.1621" xml:space="preserve" font-size="14" y="244.0237"
                  stroke="none">AF173005</text><path d="M54.5551 257.8111 L79.6422 257.8111 L79.6422 258.6615 L54.5551 258.6615 Z"
                  stroke="none"/>
            <text x="82.4769" xml:space="preserve" font-size="14" y="262.7323"
                  stroke="none">X80625</text><path d="M24.7749 285.8741 L32 285.8741 L32 286.7245 L24.7749 286.7245 Z"
                  stroke="none"/>
            <text x="1.9041" xml:space="preserve" y="280.7008" stroke="none">NT1.6</text><line stroke-linecap="butt"
                  fill="none" x1="31.5546" x2="31.5546" y1="276.5197"
                  stroke-linejoin="bevel" y2="296.0788" stroke-width="0.8504"/>
            <path d="M31.9798 276.5197 L43.3297 276.5197 L43.3297 277.3701 L31.9798 277.3701 Z"
                  stroke="none"/>
            <text x="46.1643" xml:space="preserve" font-size="14" y="281.441"
                  stroke="none">AJ854055</text><path d="M31.9798 295.2284 L61.0056 295.2284 L61.0056 296.0788 L31.9798 296.0788 Z"
                  stroke="none"/>
            <text x="63.8403" xml:space="preserve" font-size="14" y="300.1497"
                  stroke="none">X80621</text><path d="M18.6268 313.937 L46.8841 313.937 L46.8841 314.7874 L18.6268 314.7874 Z"
                  stroke="none"/>
            <text x="49.7188" xml:space="preserve" font-size="14" y="318.8583"
                  stroke="none">X80614</text>
        </g>
    </g>
</svg>
