<?xml version="1.0"?>
<!DOCTYPE svg PUBLIC '-//W3C//DTD SVG 1.0//EN'
    'http://www.w3.org/TR/2001/REC-SVG-20010904/DTD/svg10.dtd' >

<svg fill-opacity="1" xmlns:xlink="http://www.w3.org/1999/xlink"
     color-rendering="auto" color-interpolation="auto" stroke="black"
     text-rendering="auto" stroke-linecap="square" stroke-miterlimit="10"
     stroke-opacity="1" shape-rendering="auto" fill="black"
     stroke-dasharray="none" font-weight="normal" stroke-width="1"
     xmlns="http://www.w3.org/2000/svg" font-family="&apos;Dialog&apos;"
     font-style="normal" stroke-linejoin="miter" font-size="12"
     stroke-dashoffset="0" image-rendering="auto">
    <!--Generated by the Batik Graphics2D SVG Generator-->
    <defs id="genericDefs"/>
    <g>
        <g fill="white" stroke="white">
            <rect x="0" width="191" height="242" y="0" stroke="none"/>
            <path fill="black" d="M5 90.1506 L44 90.1506 L44 91.001 L5 91.001 Z"
                  stroke="none"/>
        </g>
        <g font-family="&apos;Arial&apos;" font-size="9">
            <text x="8.5039" xml:space="preserve" y="84.9774" stroke="none">NT1.23</text><line stroke-linecap="butt"
                  fill="none" x1="44.0748" x2="44.0748" y1="14.5984"
                  stroke-linejoin="bevel" y2="165.7028" stroke-width="0.8504"/>
            <path d="M44.5 14.5984 L106.42 14.5984 L106.42 15.4488 L44.5 15.4488 Z"
                  stroke="none"/>
            <text x="109.2546" xml:space="preserve" font-size="14" y="19.5197"
                  stroke="none">D32226</text><path d="M44.5 164.8524 L44 164.8524 L44 165.7028 L44.5 165.7028 Z"
                  stroke="none"/>
            <text x="16.0065" xml:space="preserve" y="159.6791" stroke="none">NT1.1</text><line stroke-linecap="butt"
                  fill="none" x1="44.2562" x2="44.2562" y1="118.6654"
                  stroke-linejoin="bevel" y2="211.8898" stroke-width="0.8504"/>
            <path d="M44.6814 118.6654 L61 118.6654 L61 119.5158 L44.6814 119.5158 Z"
                  stroke="none"/>
            <text x="31.1147" xml:space="preserve" y="113.4921" stroke="none">NT1.3</text><line stroke-linecap="butt"
                  fill="none" x1="60.7652" x2="60.7652" y1="63.7087"
                  stroke-linejoin="bevel" y2="174.4725" stroke-width="0.8504"/>
            <path d="M61.1904 63.7087 L64 63.7087 L64 64.5591 L61.1904 64.5591 Z"
                  stroke="none"/>
            <text x="33.8624" xml:space="preserve" y="58.5354" stroke="none">NT1.4</text><line stroke-linecap="butt"
                  fill="none" x1="63.4864" x2="63.4864" y1="33.3071"
                  stroke-linejoin="bevel" y2="94.9606" stroke-width="0.8504"/>
            <path d="M63.9116 33.3071 L78.1189 33.3071 L78.1189 34.1575 L63.9116 34.1575 Z"
                  stroke="none"/>
            <text x="80.9535" xml:space="preserve" font-size="14" y="38.2284"
                  stroke="none">EF067859</text><path d="M63.9116 94.1103 L68 94.1103 L68 94.9606 L63.9116 94.9606 Z"
                  stroke="none"/>
            <text x="38.5" xml:space="preserve" y="88.937" stroke="none">NT1.5</text><line stroke-linecap="butt"
                  fill="none" x1="68.2033" x2="68.2033" y1="66.0473"
                  stroke-linejoin="bevel" y2="123.0237" stroke-width="0.8504"/>
            <path d="M68.6285 66.0473 L73 66.0473 L73 66.8976 L68.6285 66.8976 Z"
                  stroke="none"/>
            <text x="43.2565" xml:space="preserve" y="60.874" stroke="none">NT1.9</text><line stroke-linecap="butt"
                  fill="none" x1="72.9202" x2="72.9202" y1="52.0158"
                  stroke-linejoin="bevel" y2="80.9291" stroke-width="0.8504"/>
            <path d="M73.3454 52.0158 L82.6543 52.0158 L82.6543 52.8662 L73.3454 52.8662 Z"
                  stroke="none"/>
            <text x="85.489" xml:space="preserve" font-size="14" y="56.937"
                  stroke="none">AF469072</text><path d="M73.3454 80.0788 L75 80.0788 L75 80.9291 L73.3454 80.9291 Z"
                  stroke="none"/>
            <text x="40.7457" xml:space="preserve" y="74.9055" stroke="none">NT1.11</text><line stroke-linecap="butt"
                  fill="none" x1="74.9157" x2="74.9157" y1="70.7244"
                  stroke-linejoin="bevel" y2="90.2835" stroke-width="0.8504"/>
            <path d="M75.341 70.7244 L86.8269 70.7244 L86.8269 71.5748 L75.341 71.5748 Z"
                  stroke="none"/>
            <text x="89.6616" xml:space="preserve" font-size="14" y="75.6457"
                  stroke="none">AJ548825</text><path d="M75.341 89.4331 L84.4685 89.4331 L84.4685 90.2835 L75.341 90.2835 Z"
                  stroke="none"/>
            <text x="87.3032" xml:space="preserve" font-size="14" y="94.3543"
                  stroke="none">AJ786801</text><path d="M68.6285 122.1732 L69 122.1732 L69 123.0236 L68.6285 123.0236 Z"
                  stroke="none"/>
            <text x="39.4599" xml:space="preserve" y="117" stroke="none">NT1.6</text><line stroke-linecap="butt"
                  fill="none" x1="69.1104" x2="69.1104" y1="108.1418"
                  stroke-linejoin="bevel" y2="137.0551" stroke-width="0.8504"/>
            <path d="M69.5356 108.1418 L79.3888 108.1418 L79.3888 108.9921 L69.5356 108.9921 Z"
                  stroke="none"/>
            <text x="82.2235" xml:space="preserve" font-size="14" y="113.063"
                  stroke="none">AM293857</text><path d="M69.5356 136.2047 L78 136.2047 L78 137.0551 L69.5356 137.0551 Z"
                  stroke="none"/>
            <text x="42.2476" xml:space="preserve" y="131.0315" stroke="none">NT1.13</text><line stroke-linecap="butt"
                  fill="none" x1="77.8184" x2="77.8184" y1="126.8504"
                  stroke-linejoin="bevel" y2="146.4095" stroke-width="0.8504"/>
            <path d="M78.2436 126.8504 L83.0172 126.8504 L83.0172 127.7008 L78.2436 127.7008 Z"
                  stroke="none"/>
            <text x="85.8518" xml:space="preserve" font-size="14" y="131.7717"
                  stroke="none"></text>
            <path d="M78.2436 145.5591 L85.0127 145.5591 L85.0127 146.4095 L78.2436 146.4095 Z"
                  stroke="none"/>
            <text x="87.8474" xml:space="preserve" font-size="14" y="150.4803"
                  stroke="none"></text>
            <path d="M61.1904 173.6221 L72 173.6221 L72 174.4725 L61.1904 174.4725 Z"
                  stroke="none"/>
            <text x="42.544" xml:space="preserve" y="168.4489" stroke="none">NT1.7</text><line stroke-linecap="butt"
                  fill="none" x1="72.1944" x2="72.1944" y1="164.2677"
                  stroke-linejoin="bevel" y2="183.8268" stroke-width="0.8504"/>
            <path d="M72.6197 164.2677 L75.9419 164.2677 L75.9419 165.1181 L72.6197 165.1181 Z"
                  stroke="none"/>
            <text x="78.7765" xml:space="preserve" font-size="14" y="169.189"
                  stroke="none">ABZ71045</text><path d="M72.6197 182.9764 L73.7648 182.9764 L73.7648 183.8268 L72.6197 183.8268 Z"
                  stroke="none"/>
            <text x="76.5995" xml:space="preserve" font-size="14" y="187.8976"
                  stroke="none">EFO12357</text><path d="M44.6814 211.0394 L57 211.0394 L57 211.8898 L44.6814 211.8898 Z"
                  stroke="none"/>
            <text x="27.1896" xml:space="preserve" y="205.8662" stroke="none">NT1.2</text><line stroke-linecap="butt"
                  fill="none" x1="56.774" x2="56.774" y1="201.6851"
                  stroke-linejoin="bevel" y2="221.2441" stroke-width="0.8504"/>
            <path d="M57.1992 201.6851 L85.0127 201.6851 L85.0127 202.5355 L57.1992 202.5355 Z"
                  stroke="none"/>
            <text x="87.8474" xml:space="preserve" font-size="14" y="206.6063"
                  stroke="none"></text>
            <path d="M57.1992 220.3938 L72.3135 220.3938 L72.3135 221.2442 L57.1992 221.2442 Z"
                  stroke="none"/>
            <text x="75.1482" xml:space="preserve" font-size="14" y="225.315"
                  stroke="none">D12789</text>
        </g>
    </g>
</svg>
