<?xml version="1.0"?>
<!DOCTYPE svg PUBLIC '-//W3C//DTD SVG 1.0//EN'
    'http://www.w3.org/TR/2001/REC-SVG-20010904/DTD/svg10.dtd' >

<svg fill-opacity="1" xmlns:xlink="http://www.w3.org/1999/xlink"
     color-rendering="auto" color-interpolation="auto" stroke="black"
     text-rendering="auto" stroke-linecap="square" stroke-miterlimit="10"
     stroke-opacity="1" shape-rendering="auto" fill="black"
     stroke-dasharray="none" font-weight="normal" stroke-width="1"
     xmlns="http://www.w3.org/2000/svg" font-family="&apos;Dialog&apos;"
     font-style="normal" stroke-linejoin="miter" font-size="12"
     stroke-dashoffset="0" image-rendering="auto">
    <!--Generated by the Batik Graphics2D SVG Generator-->
    <defs id="genericDefs"/>
    <g>
        <g fill="white" stroke="white">
            <rect x="0" width="160" height="336" y="0" stroke="none"/>
            <path fill="black"
                  d="M5 213.9361 L18 213.9361 L18 214.7865 L5 214.7865 Z"
                  stroke="none"/>
            <circle fill="black" r="1.2756" cx="17.4331" cy="213.9361"
                    stroke="none"/>
            <path fill="black"
                  d="M17.8583 213.0857 L20 213.0857 L20 213.9361 L17.8583 213.9361 Z"
                  stroke="none"/>
        </g>
        <g font-family="&apos;Arial&apos;" font-size="9">
            <text x="-9.6732" xml:space="preserve" y="207.9124" stroke="none">NT1.2</text><line stroke-linecap="butt"
                  fill="none" x1="19.9112" x2="19.9112" y1="112.2343"
                  stroke-linejoin="bevel" y2="314.7874" stroke-width="0.8504"/>
            <path d="M20.3364 112.2343 L25 112.2343 L25 113.0846 L20.3364 113.0846 Z"
                  stroke="none"/>
            <text x="-4.5221" xml:space="preserve" y="107.061" stroke="none">NT1.3</text><line stroke-linecap="butt"
                  fill="none" x1="25.1283" x2="25.1283" y1="14.5984"
                  stroke-linejoin="bevel" y2="210.7205" stroke-width="0.8504"/>
            <path d="M25.5535 14.5984 L65.5273 14.5984 L65.5273 15.4488 L25.5535 15.4488 Z"
                  stroke="none"/>
            <text x="68.3619" xml:space="preserve" font-size="14" y="19.5197"
                  stroke="none">AJ238042</text><path d="M25.5535 209.8701 L26 209.8701 L26 210.7205 L25.5535 210.7205 Z"
                  stroke="none"/>
            <text x="-3.4523" xml:space="preserve" y="204.6969" stroke="none">NT1.4</text><line stroke-linecap="butt"
                  fill="none" x1="26.1718" x2="26.1718" y1="124.5118"
                  stroke-linejoin="bevel" y2="296.0788" stroke-width="0.8504"/>
            <path d="M26.597 124.5118 L30 124.5118 L30 125.3622 L26.597 125.3622 Z"
                  stroke="none"/>
            <text x="0.5117" xml:space="preserve" y="119.3386" stroke="none">NT1.5</text><line stroke-linecap="butt"
                  fill="none" x1="30.2151" x2="30.2151" y1="33.3071"
                  stroke-linejoin="bevel" y2="216.567" stroke-width="0.8504"/>
            <path d="M30.6403 33.3071 L71.527 33.3071 L71.527 34.1575 L30.6403 34.1575 Z"
                  stroke="none"/>
            <text x="74.3617" xml:space="preserve" font-size="14" y="38.2284"
                  stroke="none">D78477</text><path d="M30.6403 215.7166 L41 215.7166 L41 216.567 L30.6403 216.567 Z"
                  stroke="none"/>
            <text x="11.5206" xml:space="preserve" y="210.5433" stroke="none">NT1.6</text><line stroke-linecap="butt"
                  fill="none" x1="41.171" x2="41.171" y1="154.9134"
                  stroke-linejoin="bevel" y2="277.3701" stroke-width="0.8504"/>
            <path d="M41.5963 154.9134 L52 154.9134 L52 155.7638 L41.5963 155.7638 Z"
                  stroke="none"/>
            <text x="21.8244" xml:space="preserve" y="149.7402" stroke="none">NT1.7</text><line stroke-linecap="butt"
                  fill="none" x1="51.4749" x2="51.4749" y1="52.0157"
                  stroke-linejoin="bevel" y2="258.6614" stroke-width="0.8504"/>
            <path d="M51.9001 52.0158 L56.006 52.0158 L56.006 52.8661 L51.9001 52.8661 Z"
                  stroke="none"/>
            <text x="58.8407" xml:space="preserve" font-size="14" y="56.937"
                  stroke="none"></text>
            <path d="M51 70.7244 L68.788 70.7244 L68.788 71.5748 L51 71.5748 Z"
                  stroke="none"/>
            <text x="71.6226" xml:space="preserve" font-size="14" y="75.6457"
                  stroke="none">X62174</text><path d="M51 171.8681 L54 171.8681 L54 172.7185 L51 172.7185 Z"
                  stroke="none"/>
            <text x="23.7677" xml:space="preserve" y="166.6949" stroke="none">NT1.8</text><line stroke-linecap="butt"
                  fill="none" x1="53.4313" x2="53.4313" y1="113.9882"
                  stroke-linejoin="bevel" y2="230.5984" stroke-width="0.8504"/>
            <path d="M53.8565 113.9882 L55 113.9882 L55 114.8386 L53.8565 114.8386 Z"
                  stroke="none"/>
            <text x="24.9415" xml:space="preserve" y="108.815" stroke="none">NT1.9</text><line stroke-linecap="butt"
                  fill="none" x1="54.6052" x2="54.6052" y1="89.4331"
                  stroke-linejoin="bevel" y2="139.3937" stroke-width="0.8504"/>
            <path d="M55.0304 89.4331 L60.0493 89.4331 L60.0493 90.2835 L55.0304 90.2835 Z"
                  stroke="none"/>
            <text x="62.8839" xml:space="preserve" font-size="14" y="94.3543"
                  stroke="none">AY881246</text><path d="M55.0304 138.5433 L60 138.5433 L60 139.3937 L55.0304 139.3937 Z"
                  stroke="none"/>
            <text x="24.5784" xml:space="preserve" y="133.3701" stroke="none">NT1.12</text><line stroke-linecap="butt"
                  fill="none" x1="60.0832" x2="60.0832" y1="108.1417"
                  stroke-linejoin="bevel" y2="169.7953" stroke-width="0.8504"/>
            <path d="M60.5084 108.1417 L62.9187 108.1417 L62.9187 108.9921 L60.5084 108.9921 Z"
                  stroke="none"/>
            <text x="65.7533" xml:space="preserve" font-size="14" y="113.063"
                  stroke="none">X94558</text><path d="M60.5084 168.9449 L61 168.9449 L61 169.7953 L60.5084 169.7953 Z"
                  stroke="none"/>
            <text x="25.1909" xml:space="preserve" y="163.7716" stroke="none">NT1.14</text><line stroke-linecap="butt"
                  fill="none" x1="60.7353" x2="60.7353" y1="145.559"
                  stroke-linejoin="bevel" y2="193.1811" stroke-width="0.8504"/>
            <path d="M61.1605 145.5591 L63 145.5591 L63 146.4095 L61.1605 146.4095 Z"
                  stroke="none"/>
            <text x="27.2381" xml:space="preserve" y="140.3858" stroke="none">NT1.18</text><line stroke-linecap="butt"
                  fill="none" x1="62.8222" x2="62.8222" y1="126.8504"
                  stroke-linejoin="bevel" y2="165.1181" stroke-width="0.8504"/>
            <path d="M63.2474 126.8504 L63.8317 126.8504 L63.8317 127.7008 L63.2474 127.7008 Z"
                  stroke="none"/>
            <text x="66.6663" xml:space="preserve" font-size="14" y="131.7716"
                  stroke="none">AJ310149</text><path d="M63 145.559 L63.0491 145.559 L63.0491 146.4094 L63 146.4094 Z"
                  stroke="none"/>
            <text x="65.8838" xml:space="preserve" font-size="14" y="150.4803"
                  stroke="none"></text>
            <path d="M63.2474 164.2677 L69.4401 164.2677 L69.4401 165.1181 L63.2474 165.1181 Z"
                  stroke="none"/>
            <text x="72.2748" xml:space="preserve" font-size="14" y="169.1889"
                  stroke="none">AY351389</text><path d="M61.1605 192.3307 L62 192.3307 L62 193.1811 L61.1605 193.1811 Z"
                  stroke="none"/>
            <text x="26.0246" xml:space="preserve" y="187.1575" stroke="none">NT1.15</text><line stroke-linecap="butt"
                  fill="none" x1="61.6483" x2="61.6483" y1="182.9764"
                  stroke-linejoin="bevel" y2="202.5354" stroke-width="0.8504"/>
            <path d="M62.0735 182.9764 L63.5709 182.9764 L63.5709 183.8268 L62.0735 183.8268 Z"
                  stroke="none"/>
            <text x="66.4055" xml:space="preserve" font-size="14" y="187.8976"
                  stroke="none">AY351395</text><path d="M62.0735 201.685 L67.3533 201.685 L67.3533 202.5354 L62.0735 202.5354 Z"
                  stroke="none"/>
            <text x="70.1879" xml:space="preserve" font-size="14" y="206.6063"
                  stroke="none">AJ486874</text><path d="M53.8565 229.748 L55 229.748 L55 230.5984 L53.8565 230.5984 Z"
                  stroke="none"/>
            <text x="19.7129" xml:space="preserve" y="224.5748" stroke="none">NT1.10</text><line stroke-linecap="butt"
                  fill="none" x1="55.2574" x2="55.2574" y1="220.3937"
                  stroke-linejoin="bevel" y2="239.9528" stroke-width="0.8504"/>
            <path d="M55.6826 220.3937 L71.0053 220.3937 L71.0053 221.2441 L55.6826 221.2441 Z"
                  stroke="none"/>
            <text x="73.8399" xml:space="preserve" font-size="14" y="225.315"
                  stroke="none">AF500003</text><path d="M55.6826 239.1024 L63.5709 239.1024 L63.5709 239.9528 L55.6826 239.9528 Z"
                  stroke="none"/>
            <text x="66.4055" xml:space="preserve" font-size="14" y="244.0237"
                  stroke="none">AY190534</text><path d="M51.9001 257.811 L61.484 257.811 L61.484 258.6614 L51.9001 258.6614 Z"
                  stroke="none"/>
            <text x="64.3186" xml:space="preserve" font-size="14" y="262.7323"
                  stroke="none">EF486356</text><path d="M41.5963 276.5197 L62.2666 276.5197 L62.2666 277.3701 L41.5963 277.3701 Z"
                  stroke="none"/>
            <text x="65.1012" xml:space="preserve" font-size="14" y="281.441"
                  stroke="none">AJ717299</text><path d="M26.597 295.2284 L69.8314 295.2284 L69.8314 296.0788 L26.597 296.0788 Z"
                  stroke="none"/>
            <text x="72.666" xml:space="preserve" font-size="14" y="300.1497"
                  stroke="none">AF036922</text><path d="M20.3364 313.937 L78.5701 313.937 L78.5701 314.7874 L20.3364 314.7874 Z"
                  stroke="none"/>
            <text x="81.4048" xml:space="preserve" font-size="14" y="318.8583"
                  stroke="none">X60646</text>
        </g>
    </g>
</svg>
