<?xml version="1.0"?>
<!DOCTYPE svg PUBLIC '-//W3C//DTD SVG 1.0//EN'
    'http://www.w3.org/TR/2001/REC-SVG-20010904/DTD/svg10.dtd' >

<svg fill-opacity="1" xmlns:xlink="http://www.w3.org/1999/xlink"
     color-rendering="auto" color-interpolation="auto" stroke="black"
     text-rendering="auto" stroke-linecap="square" stroke-miterlimit="10"
     stroke-opacity="1" shape-rendering="auto" fill="black"
     stroke-dasharray="none" font-weight="normal" stroke-width="1"
     xmlns="http://www.w3.org/2000/svg" font-family="&apos;Dialog&apos;"
     font-style="normal" stroke-linejoin="miter" font-size="12"
     stroke-dashoffset="0" image-rendering="auto">
    <!--Generated by the Batik Graphics2D SVG Generator-->
    <defs id="genericDefs"/>
    <g>
        <g fill="white" stroke="white">
            <rect x="0" width="176" height="186" y="0" stroke="none"/>
            <path fill="black"
                  d="M5 108.2746 L44 108.2746 L44 109.125 L5 109.125 Z"
                  stroke="none"/>
        </g>
        <g font-family="&apos;Arial&apos;" font-size="9">
            <text x="8.5039" xml:space="preserve" y="103.1014" stroke="none">NT1.16</text><line stroke-linecap="butt"
                  fill="none" x1="44.0748" x2="44.0748" y1="51.4311"
                  stroke-linejoin="bevel" y2="165.1181" stroke-width="0.8504"/>
            <path d="M44.5 51.4311 L54 51.4311 L54 52.2815 L44.5 52.2815 Z"
                  stroke="none"/>
            <text x="25.3267" xml:space="preserve" y="46.2579" stroke="none">NT1.1</text><line stroke-linecap="butt"
                  fill="none" x1="53.5764" x2="53.5764" y1="14.5984"
                  stroke-linejoin="bevel" y2="89.1142" stroke-width="0.8504"/>
            <path d="M54.0016 14.5984 L59.7159 14.5984 L59.7159 15.4488 L54.0016 15.4488 Z"
                  stroke="none"/>
            <text x="62.5506" xml:space="preserve" font-size="14" y="19.5197"
                  stroke="none"></text>
            <path d="M54.0016 88.2638 L64 88.2638 L64 89.1142 L54.0016 89.1142 Z"
                  stroke="none"/>
            <text x="34.2314" xml:space="preserve" y="83.0906" stroke="none">NT1.4</text><line stroke-linecap="butt"
                  fill="none" x1="63.8554" x2="63.8554" y1="52.0157"
                  stroke-linejoin="bevel" y2="125.3622" stroke-width="0.8504"/>
            <path d="M64.2806 52.0158 L72 52.0158 L72 52.8661 L64.2806 52.8661 Z"
                  stroke="none"/>
            <text x="42.1517" xml:space="preserve" y="46.8425" stroke="none">NT1.7</text><line stroke-linecap="butt"
                  fill="none" x1="71.8022" x2="71.8022" y1="33.3071"
                  stroke-linejoin="bevel" y2="71.5748" stroke-width="0.8504"/>
            <path d="M72.2274 33.3071 L80.6195 33.3071 L80.6195 34.1575 L72.2274 34.1575 Z"
                  stroke="none"/>
            <text x="83.4541" xml:space="preserve" font-size="14" y="38.2283"
                  stroke="none"></text>
            <path d="M72 52.0158 L94.0945 52.0158 L94.0945 52.8661 L72 52.8661 Z"
                  stroke="none"/>
            <text x="96.9291" xml:space="preserve" font-size="14" y="56.937"
                  stroke="none"></text>
            <path d="M72.2274 70.7244 L90.6394 70.7244 L90.6394 71.5748 L72.2274 71.5748 Z"
                  stroke="none"/>
            <text x="93.474" xml:space="preserve" font-size="14" y="75.6457"
                  stroke="none">AJ238042</text><path d="M64.2806 124.5118 L66 124.5118 L66 125.3622 L64.2806 125.3622 Z"
                  stroke="none"/>
            <text x="35.8797" xml:space="preserve" y="119.3386" stroke="none">NT1.5</text><line stroke-linecap="butt"
                  fill="none" x1="65.583" x2="65.583" y1="103.4646"
                  stroke-linejoin="bevel" y2="146.4095" stroke-width="0.8504"/>
            <path d="M66.0082 103.4646 L70 103.4646 L70 104.315 L66.0082 104.315 Z"
                  stroke="none"/>
            <text x="39.9059" xml:space="preserve" y="98.2913" stroke="none">NT1.6</text><line stroke-linecap="butt"
                  fill="none" x1="69.5564" x2="69.5564" y1="89.4331"
                  stroke-linejoin="bevel" y2="118.3465" stroke-width="0.8504"/>
            <path d="M69.9816 89.4331 L87.0115 89.4331 L87.0115 90.2835 L69.9816 90.2835 Z"
                  stroke="none"/>
            <text x="89.8461" xml:space="preserve" font-size="14" y="94.3543"
                  stroke="none"></text>
            <path d="M69.9816 117.4961 L81 117.4961 L81 118.3464 L69.9816 118.3464 Z"
                  stroke="none"/>
            <text x="51.2946" xml:space="preserve" y="112.3228" stroke="none">NT1.9</text><line stroke-linecap="butt"
                  fill="none" x1="80.9583" x2="80.9583" y1="108.1417"
                  stroke-linejoin="bevel" y2="127.7008" stroke-width="0.8504"/>
            <path d="M81.3835 108.1417 L95.7357 108.1417 L95.7357 108.9921 L81.3835 108.9921 Z"
                  stroke="none"/>
            <text x="98.5703" xml:space="preserve" font-size="14" y="113.063"
                  stroke="none"></text>
            <path d="M81.3835 126.8504 L85.4567 126.8504 L85.4567 127.7008 L81.3835 127.7008 Z"
                  stroke="none"/>
            <text x="88.2913" xml:space="preserve" font-size="14" y="131.7717"
                  stroke="none"></text>
            <path d="M66.0082 145.5591 L80.0148 145.5591 L80.0148 146.4095 L66.0082 146.4095 Z"
                  stroke="none"/>
            <text x="82.8495" xml:space="preserve" font-size="14" y="150.4803"
                  stroke="none"></text>
            <path d="M44.5 164.2677 L58.2475 164.2677 L58.2475 165.1181 L44.5 165.1181 Z"
                  stroke="none"/>
            <text x="61.0822" xml:space="preserve" font-size="14" y="169.189"
                  stroke="none">X62174</text>
        </g>
    </g>
</svg>
