<?xml version="1.0"?>
<!DOCTYPE svg PUBLIC '-//W3C//DTD SVG 1.0//EN'
    'http://www.w3.org/TR/2001/REC-SVG-20010904/DTD/svg10.dtd' >

<svg fill-opacity="1" xmlns:xlink="http://www.w3.org/1999/xlink"
     color-rendering="auto" color-interpolation="auto" stroke="black"
     text-rendering="auto" stroke-linecap="square" stroke-miterlimit="10"
     stroke-opacity="1" shape-rendering="auto" fill="black"
     stroke-dasharray="none" font-weight="normal" stroke-width="1"
     xmlns="http://www.w3.org/2000/svg" font-family="&apos;Dialog&apos;"
     font-style="normal" stroke-linejoin="miter" font-size="12"
     stroke-dashoffset="0" image-rendering="auto">
    <!--Generated by the Batik Graphics2D SVG Generator-->
    <defs id="genericDefs"/>
    <g>
        <g fill="white" stroke="white">
            <rect x="0" width="444" height="579" y="0" stroke="none"/>
            <path fill="black"
                  d="M5 240.1122 L44 240.1122 L44 240.9626 L5 240.9626 Z"
                  stroke="none"/>
        </g>
        <g font-family="&apos;Arial&apos;" font-size="9">
            <text x="8.5039" xml:space="preserve" y="234.939" stroke="none">NT1.57</text><line stroke-linecap="butt"
                  fill="none" x1="44.0748" x2="44.0748" y1="95.8642"
                  stroke-linejoin="bevel" y2="384.3603" stroke-width="0.8504"/>
            <path d="M44.5 95.8642 L45 95.8642 L45 96.7146 L44.5 96.7146 Z"
                  stroke="none"/>
            <text x="16.3719" xml:space="preserve" y="90.691" stroke="none">NT1.1</text><line stroke-linecap="butt"
                  fill="none" x1="44.6215" x2="44.6215" y1="14.5984"
                  stroke-linejoin="bevel" y2="177.9803" stroke-width="0.8504"/>
            <path d="M45.0467 14.5984 L84.8382 14.5984 L84.8382 15.4488 L45.0467 15.4488 Z"
                  stroke="none"/>
            <text x="87.6728" xml:space="preserve" font-size="14" y="19.5197"
                  stroke="none">AB184597</text><path d="M45.0467 177.1299 L60 177.1299 L60 177.9803 L45.0467 177.9803 Z"
                  stroke="none"/>
            <text x="30.671" xml:space="preserve" y="171.9567" stroke="none">NT1.4</text><line stroke-linecap="butt"
                  fill="none" x1="60.2951" x2="60.2951" y1="115.1575"
                  stroke-linejoin="bevel" y2="239.9528" stroke-width="0.8504"/>
            <path d="M60.7202 115.1575 L77 115.1575 L77 116.0079 L60.7202 116.0079 Z"
                  stroke="none"/>
            <text x="43.0743" xml:space="preserve" y="109.9843" stroke="none">NT1.11</text><line stroke-linecap="butt"
                  fill="none" x1="77.2443" x2="77.2443" y1="75.4016"
                  stroke-linejoin="bevel" y2="155.7638" stroke-width="0.8504"/>
            <path d="M77.6695 75.4016 L80 75.4016 L80 76.252 L77.6695 76.252 Z"
                  stroke="none"/>
            <text x="43.8605" xml:space="preserve" y="70.2283" stroke="none">NT1.13</text><line stroke-linecap="butt"
                  fill="none" x1="79.4314" x2="79.4314" y1="47.3386"
                  stroke-linejoin="bevel" y2="104.315" stroke-width="0.8504"/>
            <path d="M79.8566 47.3386 L101 47.3386 L101 48.189 L79.8566 48.189 Z"
                  stroke="none"/>
            <text x="64.9884" xml:space="preserve" y="42.1654" stroke="none">NT1.29</text><line stroke-linecap="butt"
                  fill="none" x1="100.5724" x2="100.5724" y1="33.3071"
                  stroke-linejoin="bevel" y2="62.2205" stroke-width="0.8504"/>
            <path d="M100.9976 33.3071 L126.5736 33.3071 L126.5736 34.1575 L100.9976 34.1575 Z"
                  stroke="none"/>
            <text x="129.4082" xml:space="preserve" font-size="14" y="38.2283"
                  stroke="none">AY999826</text><path d="M100.9976 61.3701 L102 61.3701 L102 62.2205 L100.9976 62.2205 Z"
                  stroke="none"/>
            <text x="65.9393" xml:space="preserve" y="56.1968" stroke="none">NT1.30</text><line stroke-linecap="butt"
                  fill="none" x1="101.4837" x2="101.4837" y1="52.0157"
                  stroke-linejoin="bevel" y2="71.5748" stroke-width="0.8504"/>
            <path d="M101.9089 52.0158 L113.087 52.0158 L113.087 52.8661 L101.9089 52.8661 Z"
                  stroke="none"/>
            <text x="115.9217" xml:space="preserve" font-size="14" y="56.937"
                  stroke="none">AB184437</text><path d="M101.9089 70.7244 L111.2645 70.7244 L111.2645 71.5748 L101.9089 71.5748 Z"
                  stroke="none"/>
            <text x="114.0992" xml:space="preserve" font-size="14" y="75.6457"
                  stroke="none">AB184248</text><path d="M79.8566 103.4646 L104 103.4646 L104 104.315 L79.8566 104.315 Z"
                  stroke="none"/>
            <text x="69.6829" xml:space="preserve" y="98.2913" stroke="none">NT1.31</text><line stroke-linecap="butt"
                  fill="none" x1="103.8529" x2="103.8529" y1="89.4331"
                  stroke-linejoin="bevel" y2="118.3465" stroke-width="0.8504"/>
            <path d="M104.2782 89.4331 L120.5593 89.4331 L120.5593 90.2835 L104.2782 90.2835 Z"
                  stroke="none"/>
            <text x="123.3939" xml:space="preserve" font-size="14" y="94.3543"
                  stroke="none">AB184639</text><path d="M104.2782 117.4961 L108 117.4961 L108 118.3464 L104.2782 118.3464 Z"
                  stroke="none"/>
            <text x="73.3279" xml:space="preserve" y="112.3228" stroke="none">NT1.41</text><line stroke-linecap="butt"
                  fill="none" x1="107.4979" x2="107.4979" y1="108.1417"
                  stroke-linejoin="bevel" y2="127.7008" stroke-width="0.8504"/>
            <path d="M107.9232 108.1417 L118.19 108.1417 L118.19 108.9921 L107.9232 108.9921 Z"
                  stroke="none"/>
            <text x="121.0247" xml:space="preserve" font-size="14" y="113.063"
                  stroke="none"></text>
            <path d="M107.9232 126.8504 L123.4753 126.8504 L123.4753 127.7008 L107.9232 127.7008 Z"
                  stroke="none"/>
            <text x="126.31" xml:space="preserve" font-size="14" y="131.7717"
                  stroke="none">AB184‘I10</text><path d="M77.6695 154.9134 L107 154.9134 L107 155.7638 L77.6695 155.7638 Z"
                  stroke="none"/>
            <text x="71.3671" xml:space="preserve" y="149.7402" stroke="none">NT1.38</text><line stroke-linecap="butt"
                  fill="none" x1="106.9512" x2="106.9512" y1="145.5591"
                  stroke-linejoin="bevel" y2="165.1181" stroke-width="0.8504"/>
            <path d="M107.3764 145.5591 L106.7082 145.5591 L106.7082 146.4095 L107.3764 146.4095 Z"
                  stroke="none"/>
            <text x="109.5429" xml:space="preserve" font-size="14" y="150.4803"
                  stroke="none">AB184316</text><path d="M107.3764 164.2677 L106.7082 164.2677 L106.7082 165.1181 L107.3764 165.1181 Z"
                  stroke="none"/>
            <text x="109.5429" xml:space="preserve" font-size="14" y="169.189"
                  stroke="none">AJ399485</text><path d="M60.7202 239.1024 L89 239.1024 L89 239.9528 L60.7202 239.9528 Z"
                  stroke="none"/>
            <text x="53.5198" xml:space="preserve" y="233.9291" stroke="none">NT1.23</text><line stroke-linecap="butt"
                  fill="none" x1="89.0906" x2="89.0906" y1="211.0394"
                  stroke-linejoin="bevel" y2="268.0158" stroke-width="0.8504"/>
            <path d="M89.5158 211.0394 L95 211.0394 L95 211.8898 L89.5158 211.8898 Z"
                  stroke="none"/>
            <text x="59.1167" xml:space="preserve" y="205.8662" stroke="none">NT1.25</text><line stroke-linecap="butt"
                  fill="none" x1="94.7404" x2="94.7404" y1="192.3307"
                  stroke-linejoin="bevel" y2="230.5984" stroke-width="0.8504"/>
            <path d="M95.1656 192.3307 L114 192.3307 L114 193.1811 L95.1656 193.1811 Z"
                  stroke="none"/>
            <text x="78.3059" xml:space="preserve" y="187.1575" stroke="none">NT1.46</text><line stroke-linecap="butt"
                  fill="none" x1="113.8767" x2="113.8767" y1="182.9764"
                  stroke-linejoin="bevel" y2="202.5355" stroke-width="0.8504"/>
            <path d="M114.3019 182.9764 L116.1853 182.9764 L116.1853 183.8268 L114.3019 183.8268 Z"
                  stroke="none"/>
            <text x="119.0199" xml:space="preserve" font-size="14" y="187.8977"
                  stroke="none">AB184844</text><path d="M114.3019 201.6851 L116.1853 201.6851 L116.1853 202.5355 L114.3019 202.5355 Z"
                  stroke="none"/>
            <text x="119.0199" xml:space="preserve" font-size="14" y="206.6063"
                  stroke="none">AB184882</text><path d="M95.1656 229.748 L106 229.748 L106 230.5984 L95.1656 230.5984 Z"
                  stroke="none"/>
            <text x="70.4691" xml:space="preserve" y="224.5748" stroke="none">NT1.33</text><line stroke-linecap="butt"
                  fill="none" x1="106.0399" x2="106.0399" y1="220.3937"
                  stroke-linejoin="bevel" y2="239.9528" stroke-width="0.8504"/>
            <path d="M106.4651 220.3937 L106.526 220.3937 L106.526 221.2441 L106.4651 221.2441 Z"
                  stroke="none"/>
            <text x="109.3606" xml:space="preserve" font-size="14" y="225.315"
                  stroke="none">AB184846</text><path d="M106.4651 239.1024 L107.6195 239.1024 L107.6195 239.9528 L106.4651 239.9528 Z"
                  stroke="none"/>
            <text x="110.4541" xml:space="preserve" font-size="14" y="244.0237"
                  stroke="none">AB184869</text><path d="M89.5158 267.1654 L99 267.1654 L99 268.0158 L89.5158 268.0158 Z"
                  stroke="none"/>
            <text x="62.9968" xml:space="preserve" y="261.9921" stroke="none">NT1.27</text><line stroke-linecap="butt"
                  fill="none" x1="98.5676" x2="98.5676" y1="257.811"
                  stroke-linejoin="bevel" y2="277.3701" stroke-width="0.8504"/>
            <path d="M98.9929 257.811 L115.274 257.811 L115.274 258.6614 L98.9929 258.6614 Z"
                  stroke="none"/>
            <text x="118.1087" xml:space="preserve" font-size="14" y="262.7323"
                  stroke="none">DQ462649</text><path d="M98.9929 276.5197 L127.8493 276.5197 L127.8493 277.3701 L98.9929 277.3701 Z"
                  stroke="none"/>
            <text x="130.6839" xml:space="preserve" font-size="14" y="281.441"
                  stroke="none">AB249968</text><path d="M44.5 383.5099 L45 383.5099 L45 384.3603 L44.5 384.3603 Z"
                  stroke="none"/>
            <text x="15.0371" xml:space="preserve" y="378.3367" stroke="none">NT1.2</text><line stroke-linecap="butt"
                  fill="none" x1="44.6215" x2="44.6215" y1="318.0296"
                  stroke-linejoin="bevel" y2="449.8406" stroke-width="0.8504"/>
            <path d="M45.0467 318.0296 L51 318.0296 L51 318.88 L45.0467 318.88 Z"
                  stroke="none"/>
            <text x="20.9853" xml:space="preserve" y="312.8564" stroke="none">NT1.3</text><line stroke-linecap="butt"
                  fill="none" x1="50.6358" x2="50.6358" y1="295.2284"
                  stroke-linejoin="bevel" y2="341.6812" stroke-width="0.8504"/>
            <path d="M51.061 295.2284 L95.4087 295.2284 L95.4087 296.0788 L51.061 296.0788 Z"
                  stroke="none"/>
            <text x="98.2433" xml:space="preserve" font-size="14" y="300.1497"
                  stroke="none">ABZ49930</text><path d="M51.061 340.8308 L88 340.8308 L88 341.6812 L51.061 341.6812 Z"
                  stroke="none"/>
            <text x="53.8271" xml:space="preserve" y="335.6575" stroke="none">NT1.21</text><line stroke-linecap="butt"
                  fill="none" x1="87.9971" x2="87.9971" y1="313.9371"
                  stroke-linejoin="bevel" y2="368.5749" stroke-width="0.8504"/>
            <path d="M88.4223 313.9371 L128.0315 313.9371 L128.0315 314.7875 L88.4223 314.7875 Z"
                  stroke="none"/>
            <text x="130.8662" xml:space="preserve" font-size="14" y="318.8583"
                  stroke="none">AB249933</text><path d="M88.4223 367.7245 L100 367.7245 L100 368.5749 L88.4223 368.5749 Z"
                  stroke="none"/>
            <text x="64.4416" xml:space="preserve" y="362.5513" stroke="none">NT1.28</text><line stroke-linecap="butt"
                  fill="none" x1="100.0257" x2="100.0257" y1="346.6772"
                  stroke-linejoin="bevel" y2="389.6221" stroke-width="0.8504"/>
            <path d="M100.4509 346.6772 L106 346.6772 L106 347.5276 L100.4509 347.5276 Z"
                  stroke="none"/>
            <text x="70.3529" xml:space="preserve" y="341.504" stroke="none">NT1.32</text><line stroke-linecap="butt"
                  fill="none" x1="105.8577" x2="105.8577" y1="332.6458"
                  stroke-linejoin="bevel" y2="361.5591" stroke-width="0.8504"/>
            <path d="M106.2829 332.6458 L107.4373 332.6458 L107.4373 333.4962 L106.2829 333.4962 Z"
                  stroke="none"/>
            <text x="110.2719" xml:space="preserve" font-size="14" y="337.567"
                  stroke="none">AB184640</text><path d="M106.2829 360.7088 L107 360.7088 L107 361.5592 L106.2829 361.5592 Z"
                  stroke="none"/>
            <text x="71.2246" xml:space="preserve" y="355.5355" stroke="none">NT1.34</text><line stroke-linecap="butt"
                  fill="none" x1="106.769" x2="106.769" y1="351.3544"
                  stroke-linejoin="bevel" y2="370.9135" stroke-width="0.8504"/>
            <path d="M107.1942 351.3544 L106.526 351.3544 L106.526 352.2048 L107.1942 352.2048 Z"
                  stroke="none"/>
            <text x="109.3607" xml:space="preserve" font-size="14" y="356.2757"
                  stroke="none">AB184671</text><path d="M107.1942 370.0631 L106.526 370.0631 L106.526 370.9135 L107.1942 370.9135 Z"
                  stroke="none"/>
            <text x="109.3607" xml:space="preserve" font-size="14" y="374.9844"
                  stroke="none">S.hygroscopicussubsp.glebosusJCM4954T</text><path d="M100.4509 388.7718 L115.8208 388.7718 L115.8208 389.6222 L100.4509 389.6222 Z"
                  stroke="none"/>
            <text x="118.6554" xml:space="preserve" font-size="14" y="393.693"
                  stroke="none">D0026662</text><path d="M45.0467 448.9903 L71 448.9903 L71 449.8407 L45.0467 449.8407 Z"
                  stroke="none"/>
            <text x="41.5268" xml:space="preserve" y="443.817" stroke="none">NT1.5</text><line stroke-linecap="butt"
                  fill="none" x1="71.2301" x2="71.2301" y1="416.8347"
                  stroke-linejoin="bevel" y2="481.9962" stroke-width="0.8504"/>
            <path d="M71.6553 416.8347 L75 416.8347 L75 417.6852 L71.6553 417.6852 Z"
                  stroke="none"/>
            <text x="45.2114" xml:space="preserve" y="411.6615" stroke="none">NT1.9</text><line stroke-linecap="butt"
                  fill="none" x1="74.8751" x2="74.8751" y1="407.4804"
                  stroke-linejoin="bevel" y2="427.0394" stroke-width="0.8504"/>
            <path d="M75.3003 407.4804 L88.3009 407.4804 L88.3009 408.3308 L75.3003 408.3308 Z"
                  stroke="none"/>
            <text x="91.1356" xml:space="preserve" font-size="14" y="412.4016"
                  stroke="none">AB184798</text><path d="M75.3003 426.1891 L93.2217 426.1891 L93.2217 427.0395 L75.3003 427.0395 Z"
                  stroke="none"/>
            <text x="96.0563" xml:space="preserve" font-size="14" y="431.1103"
                  stroke="none">AB184410</text><path d="M71.6553 481.1458 L75 481.1458 L75 481.9962 L71.6553 481.9962 Z"
                  stroke="none"/>
            <text x="45.0292" xml:space="preserve" y="475.9726" stroke="none">NT1.8</text><line stroke-linecap="butt"
                  fill="none" x1="74.6928" x2="74.6928" y1="444.8977"
                  stroke-linejoin="bevel" y2="518.2442" stroke-width="0.8504"/>
            <path d="M75.118 444.8978 L73.7209 444.8978 L73.7209 445.7482 L75.118 445.7482 Z"
                  stroke="none"/>
            <text x="76.5555" xml:space="preserve" font-size="14" y="449.819"
                  stroke="none"></text>
            <path d="M75 463.6064 L74.9966 463.6064 L74.9966 464.4568 L75 464.4568 Z"
                  stroke="none"/>
            <text x="77.8313" xml:space="preserve" font-size="14" y="468.5277"
                  stroke="none">m</text><path d="M75 482.3151 L74.2676 482.3151 L74.2676 483.1655 L75 483.1655 Z"
                  stroke="none"/>
            <text x="77.1023" xml:space="preserve" font-size="14" y="487.2364"
                  stroke="none"></text>
            <path d="M75.118 517.3939 L78 517.3939 L78 518.2442 L75.118 518.2442 Z"
                  stroke="none"/>
            <text x="42.4686" xml:space="preserve" y="512.2206" stroke="none">NT1.12</text><line stroke-linecap="butt"
                  fill="none" x1="77.9733" x2="77.9733" y1="501.0238"
                  stroke-linejoin="bevel" y2="534.6143" stroke-width="0.8504"/>
            <path d="M78.3985 501.0238 L81.9222 501.0238 L81.9222 501.8742 L78.3985 501.8742 Z"
                  stroke="none"/>
            <text x="84.7568" xml:space="preserve" font-size="14" y="505.945"
                  stroke="none"></text>
            <path d="M78.3985 533.764 L81 533.764 L81 534.6143 L78.3985 534.6143 Z"
                  stroke="none"/>
            <text x="45.5272" xml:space="preserve" y="528.5908" stroke="none">NT1.14</text><line stroke-linecap="butt"
                  fill="none" x1="81.0716" x2="81.0716" y1="519.7325"
                  stroke-linejoin="bevel" y2="548.6459" stroke-width="0.8504"/>
            <path d="M81.4968 519.7325 L87.0252 519.7325 L87.0252 520.5828 L81.4968 520.5828 Z"
                  stroke="none"/>
            <text x="89.8598" xml:space="preserve" font-size="14" y="524.6537"
                  stroke="none">AB184385</text><path d="M81.4968 547.7955 L83 547.7955 L83 548.6459 L81.4968 548.6459 Z"
                  stroke="none"/>
            <text x="47.3233" xml:space="preserve" y="542.6223" stroke="none">NT1.16</text><line stroke-linecap="butt"
                  fill="none" x1="82.8941" x2="82.8941" y1="538.4412"
                  stroke-linejoin="bevel" y2="558.0002" stroke-width="0.8504"/>
            <path d="M83.3193 538.4412 L82.8334 538.4412 L82.8334 539.2915 L83.3193 539.2915 Z"
                  stroke="none"/>
            <text x="85.6681" xml:space="preserve" font-size="14" y="543.3624"
                  stroke="none"></text>
            <path d="M83.3193 557.1498 L85.5672 557.1498 L85.5672 558.0002 L83.3193 558.0002 Z"
                  stroke="none"/>
            <text x="88.4018" xml:space="preserve" font-size="14" y="562.0711"
                  stroke="none"></text>
        </g>
    </g>
</svg>
