<?xml version="1.0"?>
<!DOCTYPE svg PUBLIC '-//W3C//DTD SVG 1.0//EN'
    'http://www.w3.org/TR/2001/REC-SVG-20010904/DTD/svg10.dtd' >

<svg fill-opacity="1" xmlns:xlink="http://www.w3.org/1999/xlink"
     color-rendering="auto" color-interpolation="auto" stroke="black"
     text-rendering="auto" stroke-linecap="square" stroke-miterlimit="10"
     stroke-opacity="1" shape-rendering="auto" fill="black"
     stroke-dasharray="none" font-weight="normal" stroke-width="1"
     xmlns="http://www.w3.org/2000/svg" font-family="&apos;Dialog&apos;"
     font-style="normal" stroke-linejoin="miter" font-size="12"
     stroke-dashoffset="0" image-rendering="auto">
    <!--Generated by the Batik Graphics2D SVG Generator-->
    <defs id="genericDefs"/>
    <g>
        <g fill="white" stroke="white">
            <rect x="0" width="243" height="224" y="0" stroke="none"/>
            <path fill="black"
                  d="M5 89.2603 L18 89.2603 L18 90.1107 L5 90.1107 Z"
                  stroke="none"/>
            <circle fill="black" r="1.2756" cx="17.4331" cy="89.2603"
                    stroke="none"/>
            <path fill="black"
                  d="M17.8583 88.4099 L18 88.4099 L18 89.2603 L17.8583 89.2603 Z"
                  stroke="none"/>
        </g>
        <g font-family="&apos;Arial&apos;" font-size="9">
            <text x="-11.8023" xml:space="preserve" y="83.2367" stroke="none">NT1.2</text><line stroke-linecap="butt"
                  fill="none" x1="17.7821" x2="17.7821" y1="33.3071"
                  stroke-linejoin="bevel" y2="144.3632" stroke-width="0.8504"/>
            <path d="M18.2073 33.3071 L20 33.3071 L20 34.1575 L18.2073 34.1575 Z"
                  stroke="none"/>
            <text x="-9.6576" xml:space="preserve" y="28.1339" stroke="none">NT1.3</text><line stroke-linecap="butt"
                  fill="none" x1="19.9928" x2="19.9928" y1="14.5984"
                  stroke-linejoin="bevel" y2="52.8661" stroke-width="0.8504"/>
            <path d="M20.418 14.5984 L53.8917 14.5984 L53.8917 15.4488 L20.418 15.4488 Z"
                  stroke="none"/>
            <text x="56.7264" xml:space="preserve" font-size="14" y="19.5197"
                  stroke="none">X70907</text><path d="M20 33.3071 L48.5395 33.3071 L48.5395 34.1575 L20 34.1575 Z"
                  stroke="none"/>
            <text x="51.3741" xml:space="preserve" font-size="14" y="38.2283"
                  stroke="none">X59765</text><path d="M20.418 52.0158 L101.9454 52.0158 L101.9454 52.8661 L20.418 52.8661 Z"
                  stroke="none"/>
            <text x="104.7801" xml:space="preserve" font-size="14" y="56.937"
                  stroke="none">Clostridiumisatidis</text><path d="M18.2073 143.5128 L27 143.5128 L27 144.3632 L18.2073 144.3632 Z"
                  stroke="none"/>
            <text x="-2.7664" xml:space="preserve" y="138.3396" stroke="none">NT1.4</text><line stroke-linecap="butt"
                  fill="none" x1="26.8576" x2="26.8576" y1="94.6949"
                  stroke-linejoin="bevel" y2="193.1811" stroke-width="0.8504"/>
            <path d="M27.2828 94.6949 L33 94.6949 L33 95.5453 L27.2828 95.5453 Z"
                  stroke="none"/>
            <text x="3.0883" xml:space="preserve" y="89.5217" stroke="none">NT1.5</text><line stroke-linecap="butt"
                  fill="none" x1="32.7916" x2="32.7916" y1="70.7244"
                  stroke-linejoin="bevel" y2="119.5158" stroke-width="0.8504"/>
            <path d="M33.2168 70.7244 L48.5395 70.7244 L48.5395 71.5748 L33.2168 71.5748 Z"
                  stroke="none"/>
            <text x="51.3741" xml:space="preserve" font-size="14" y="75.6457"
                  stroke="none">AB188091</text><path d="M33.2168 118.6654 L35 118.6654 L35 119.5157 L33.2168 119.5157 Z"
                  stroke="none"/>
            <text x="5.3387" xml:space="preserve" y="113.4921" stroke="none">NT1.8</text><line stroke-linecap="butt"
                  fill="none" x1="35.0023" x2="35.0023" y1="89.4331"
                  stroke-linejoin="bevel" y2="148.748" stroke-width="0.8504"/>
            <path d="M35.4275 89.4331 L43.0709 89.4331 L43.0709 90.2835 L35.4275 90.2835 Z"
                  stroke="none"/>
            <text x="45.9055" xml:space="preserve" font-size="14" y="94.3543"
                  stroke="none">AB125938</text><path d="M35.4275 147.8976 L37 147.8976 L37 148.748 L35.4275 148.748 Z"
                  stroke="none"/>
            <text x="7.6657" xml:space="preserve" y="142.7244" stroke="none">NT1.9</text><line stroke-linecap="butt"
                  fill="none" x1="37.3294" x2="37.3294" y1="131.5276"
                  stroke-linejoin="bevel" y2="165.1181" stroke-width="0.8504"/>
            <path d="M37.7546 131.5276 L41 131.5276 L41 132.378 L37.7546 132.378 Z"
                  stroke="none"/>
            <text x="6.65" xml:space="preserve" y="126.3543" stroke="none">NT1.11</text><line stroke-linecap="butt"
                  fill="none" x1="40.82" x2="40.82" y1="117.4961"
                  stroke-linejoin="bevel" y2="146.4095" stroke-width="0.8504"/>
            <path d="M41.2452 117.4961 L45 117.4961 L45 118.3464 L41.2452 118.3464 Z"
                  stroke="none"/>
            <text x="9.0888" xml:space="preserve" y="112.3228" stroke="none">NT1.16</text><line stroke-linecap="butt"
                  fill="none" x1="44.6596" x2="44.6596" y1="108.1417"
                  stroke-linejoin="bevel" y2="127.7008" stroke-width="0.8504"/>
            <path d="M45.0848 108.1417 L44.2344 108.1417 L44.2344 108.9921 L45.0848 108.9921 Z"
                  stroke="none"/>
            <text x="47.0691" xml:space="preserve" font-size="14" y="113.063"
                  stroke="none"></text>
            <path d="M45.0848 126.8504 L49.8194 126.8504 L49.8194 127.7008 L45.0848 127.7008 Z"
                  stroke="none"/>
            <text x="52.654" xml:space="preserve" font-size="14" y="131.7717"
                  stroke="none">A3268550</text><path d="M41.2452 145.5591 L42.8382 145.5591 L42.8382 146.4095 L41.2452 146.4095 Z"
                  stroke="none"/>
            <text x="45.6729" xml:space="preserve" font-size="14" y="150.4803"
                  stroke="none">ABZ68549</text><path d="M37.7546 164.2677 L42.4892 164.2677 L42.4892 165.1181 L37.7546 165.1181 Z"
                  stroke="none"/>
            <text x="45.3238" xml:space="preserve" font-size="14" y="169.189"
                  stroke="none">AF143511</text><path d="M27.2828 192.3307 L33 192.3307 L33 193.1811 L27.2828 193.1811 Z"
                  stroke="none"/>
            <text x="3.7229" xml:space="preserve" y="187.1575" stroke="none">NT1.6</text><line stroke-linecap="butt"
                  fill="none" x1="33.3734" x2="33.3734" y1="182.9764"
                  stroke-linejoin="bevel" y2="202.5354" stroke-width="0.8504"/>
            <path d="M33.7986 182.9764 L33.0646 182.9764 L33.0646 183.8268 L33.7986 183.8268 Z"
                  stroke="none"/>
            <text x="35.8992" xml:space="preserve" font-size="14" y="187.8976"
                  stroke="none"></text>
            <path d="M33.7986 201.6851 L39.6967 201.6851 L39.6967 202.5355 L33.7986 202.5355 Z"
                  stroke="none"/>
            <text x="42.5313" xml:space="preserve" font-size="14" y="206.6063"
                  stroke="none">ABOB3406</text>
        </g>
    </g>
</svg>
