<?xml version="1.0"?>
<!DOCTYPE svg PUBLIC '-//W3C//DTD SVG 1.0//EN'
    'http://www.w3.org/TR/2001/REC-SVG-20010904/DTD/svg10.dtd' >

<svg fill-opacity="1" xmlns:xlink="http://www.w3.org/1999/xlink"
     color-rendering="auto" color-interpolation="auto" stroke="black"
     text-rendering="auto" stroke-linecap="square" stroke-miterlimit="10"
     stroke-opacity="1" shape-rendering="auto" fill="black"
     stroke-dasharray="none" font-weight="normal" stroke-width="1"
     xmlns="http://www.w3.org/2000/svg" font-family="&apos;Dialog&apos;"
     font-style="normal" stroke-linejoin="miter" font-size="12"
     stroke-dashoffset="0" image-rendering="auto">
    <!--Generated by the Batik Graphics2D SVG Generator-->
    <defs id="genericDefs"/>
    <g>
        <g fill="white" stroke="white">
            <rect x="0" width="270" height="280" y="0" stroke="none"/>
            <path fill="black"
                  d="M5 115.7156 L18 115.7156 L18 116.5659 L5 116.5659 Z"
                  stroke="none"/>
            <circle fill="black" r="1.2756" cx="17.4331" cy="115.7156"
                    stroke="none"/>
            <path fill="black"
                  d="M17.8583 114.8652 L18 114.8652 L18 115.7155 L17.8583 115.7155 Z"
                  stroke="none"/>
        </g>
        <g font-family="&apos;Arial&apos;" font-size="9">
            <text x="-11.8054" xml:space="preserve" y="109.6919" stroke="none">NT1.2</text><line stroke-linecap="butt"
                  fill="none" x1="17.779" x2="17.779" y1="14.5984"
                  stroke-linejoin="bevel" y2="215.9823" stroke-width="0.8504"/>
            <path d="M18.2042 14.5984 L70.28 14.5984 L70.28 15.4488 L18.2042 15.4488 Z"
                  stroke="none"/>
            <text x="73.1146" xml:space="preserve" font-size="14" y="19.5197"
                  stroke="none"></text>
            <path d="M18.2042 215.1319 L31 215.1319 L31 215.9823 L18.2042 215.9823 Z"
                  stroke="none"/>
            <text x="1.2736" xml:space="preserve" y="209.9586" stroke="none">NT1.3</text><line stroke-linecap="butt"
                  fill="none" x1="30.9241" x2="30.9241" y1="172.4528"
                  stroke-linejoin="bevel" y2="258.6614" stroke-width="0.8504"/>
            <path d="M31.3492 172.4528 L74 172.4528 L74 173.3032 L31.3492 173.3032 Z"
                  stroke="none"/>
            <text x="39.3489" xml:space="preserve" y="167.2795" stroke="none">NT1.6</text><line stroke-linecap="butt"
                  fill="none" x1="74.1644" x2="74.1644" y1="119.8347"
                  stroke-linejoin="bevel" y2="225.9213" stroke-width="0.8504"/>
            <path d="M74.5896 119.8347 L93 119.8347 L93 120.685 L74.5896 120.685 Z"
                  stroke="none"/>
            <text x="62.8346" xml:space="preserve" y="114.6614" stroke="none">NT1.8</text><line stroke-linecap="butt"
                  fill="none" x1="92.4983" x2="92.4983" y1="80.0788"
                  stroke-linejoin="bevel" y2="160.441" stroke-width="0.8504"/>
            <path d="M92.9235 80.0788 L96 80.0788 L96 80.9291 L92.9235 80.9291 Z"
                  stroke="none"/>
            <text x="61.4416" xml:space="preserve" y="74.9055" stroke="none">NT1.11</text><line stroke-linecap="butt"
                  fill="none" x1="95.6116" x2="95.6116" y1="47.3386"
                  stroke-linejoin="bevel" y2="113.6693" stroke-width="0.8504"/>
            <path d="M96.0368 47.3386 L102 47.3386 L102 48.189 L96.0368 48.189 Z"
                  stroke="none"/>
            <text x="66.7334" xml:space="preserve" y="42.1654" stroke="none">NT1.15</text><line stroke-linecap="butt"
                  fill="none" x1="102.3571" x2="102.3571" y1="33.3071"
                  stroke-linejoin="bevel" y2="62.2205" stroke-width="0.8504"/>
            <path d="M102.7823 33.3071 L118.1903 33.3071 L118.1903 34.1575 L102.7823 34.1575 Z"
                  stroke="none"/>
            <text x="121.025" xml:space="preserve" font-size="14" y="38.2284"
                  stroke="none">Alishewanellafetalis</text><path d="M102.7823 61.3701 L115 61.3701 L115 62.2205 L102.7823 62.2205 Z"
                  stroke="none"/>
            <text x="79.093" xml:space="preserve" y="56.1969" stroke="none">NT1.24</text><line stroke-linecap="butt"
                  fill="none" x1="114.6374" x2="114.6374" y1="52.0158"
                  stroke-linejoin="bevel" y2="71.5748" stroke-width="0.8504"/>
            <path d="M115.0626 52.0158 L120.0929 52.0158 L120.0929 52.8662 L115.0626 52.8662 Z"
                  stroke="none"/>
            <text x="122.9275" xml:space="preserve" font-size="14" y="56.937"
                  stroke="none"></text>
            <path d="M115.0626 70.7244 L115.7689 70.7244 L115.7689 71.5748 L115.0626 71.5748 Z"
                  stroke="none"/>
            <text x="118.6035" xml:space="preserve" font-size="14" y="75.6457"
                  stroke="none"></text>
            <path d="M96.0368 112.8189 L101 112.8189 L101 113.6693 L96.0368 113.6693 Z"
                  stroke="none"/>
            <text x="65.602" xml:space="preserve" y="107.6457" stroke="none">NT1.14</text><line stroke-linecap="butt"
                  fill="none" x1="101.1464" x2="101.1464" y1="98.7874"
                  stroke-linejoin="bevel" y2="127.7008" stroke-width="0.8504"/>
            <path d="M101.5716 98.7874 L107 98.7874 L107 99.6378 L101.5716 99.6378 Z"
                  stroke="none"/>
            <text x="71.616" xml:space="preserve" y="93.6142" stroke="none">NT1.18</text><line stroke-linecap="butt"
                  fill="none" x1="107.2" x2="107.2" y1="89.4331"
                  stroke-linejoin="bevel" y2="108.9921" stroke-width="0.8504"/>
            <path d="M107.6252 89.4331 L109.0233 89.4331 L109.0233 90.2835 L107.6252 90.2835 Z"
                  stroke="none"/>
            <text x="111.858" xml:space="preserve" font-size="14" y="94.3543"
                  stroke="none"></text>
            <path d="M107.6252 108.1417 L118.1903 108.1417 L118.1903 108.9921 L107.6252 108.9921 Z"
                  stroke="none"/>
            <text x="121.0249" xml:space="preserve" font-size="14" y="113.063"
                  stroke="none"></text>
            <path d="M101.5716 126.8504 L107.4667 126.8504 L107.4667 127.7008 L101.5716 127.7008 Z"
                  stroke="none"/>
            <text x="110.3013" xml:space="preserve" font-size="14" y="131.7717"
                  stroke="none"></text>
            <path d="M92.9235 159.5906 L96 159.5906 L96 160.441 L92.9235 160.441 Z"
                  stroke="none"/>
            <text x="60.7987" xml:space="preserve" y="154.4173" stroke="none">NT1.12</text><line stroke-linecap="butt"
                  fill="none" x1="96.3035" x2="96.3035" y1="145.5591"
                  stroke-linejoin="bevel" y2="174.4725" stroke-width="0.8504"/>
            <path d="M96.7287 145.5591 L110.4071 145.5591 L110.4071 146.4095 L96.7287 146.4095 Z"
                  stroke="none"/>
            <text x="113.2417" xml:space="preserve" font-size="14" y="150.4803"
                  stroke="none"></text>
            <path d="M96.7287 173.6221 L106 173.6221 L106 174.4725 L96.7287 174.4725 Z"
                  stroke="none"/>
            <text x="69.8996" xml:space="preserve" y="168.4488" stroke="none">NT1.17</text><line stroke-linecap="butt"
                  fill="none" x1="105.4704" x2="105.4704" y1="164.2677"
                  stroke-linejoin="bevel" y2="183.8268" stroke-width="0.8504"/>
            <path d="M105.8957 164.2677 L109.3693 164.2677 L109.3693 165.1181 L105.8957 165.1181 Z"
                  stroke="none"/>
            <text x="112.2039" xml:space="preserve" font-size="14" y="169.189"
                  stroke="none"></text>
            <path d="M105.8957 182.9764 L107.6397 182.9764 L107.6397 183.8268 L105.8957 183.8268 Z"
                  stroke="none"/>
            <text x="110.4743" xml:space="preserve" font-size="14" y="187.8976"
                  stroke="none"></text>
            <path d="M74.5896 225.0709 L90 225.0709 L90 225.9213 L74.5896 225.9213 Z"
                  stroke="none"/>
            <text x="60.0805" xml:space="preserve" y="219.8976" stroke="none">NT1.7</text><line stroke-linecap="butt"
                  fill="none" x1="89.7309" x2="89.7309" y1="211.0394"
                  stroke-linejoin="bevel" y2="239.9528" stroke-width="0.8504"/>
            <path d="M90.1561 211.0394 L94 211.0394 L94 211.8898 L90.1561 211.8898 Z"
                  stroke="none"/>
            <text x="58.6835" xml:space="preserve" y="205.8661" stroke="none">NT1.10</text><line stroke-linecap="butt"
                  fill="none" x1="94.2279" x2="94.2279" y1="201.685"
                  stroke-linejoin="bevel" y2="221.2441" stroke-width="0.8504"/>
            <path d="M94.6531 201.685 L98.8186 201.685 L98.8186 202.5354 L94.6531 202.5354 Z"
                  stroke="none"/>
            <text x="101.6533" xml:space="preserve" font-size="14" y="206.6063"
                  stroke="none"></text>
            <path d="M94.6531 220.3937 L104.6993 220.3937 L104.6993 221.2441 L94.6531 221.2441 Z"
                  stroke="none"/>
            <text x="107.534" xml:space="preserve" font-size="14" y="225.315"
                  stroke="none"></text>
            <path d="M90.1561 239.1024 L93.6298 239.1024 L93.6298 239.9528 L90.1561 239.9528 Z"
                  stroke="none"/>
            <text x="96.4644" xml:space="preserve" font-size="14" y="244.0236"
                  stroke="none"></text>
            <path d="M31.3492 257.811 L56.0971 257.811 L56.0971 258.6614 L31.3492 258.6614 Z"
                  stroke="none"/>
            <text x="58.9318" xml:space="preserve" font-size="14" y="262.7323"
                  stroke="none"></text>
        </g>
    </g>
</svg>
