<?xml version="1.0"?>
<!DOCTYPE svg PUBLIC '-//W3C//DTD SVG 1.0//EN'
    'http://www.w3.org/TR/2001/REC-SVG-20010904/DTD/svg10.dtd' >

<svg fill-opacity="1" xmlns:xlink="http://www.w3.org/1999/xlink"
     color-rendering="auto" color-interpolation="auto" stroke="black"
     text-rendering="auto" stroke-linecap="square" stroke-miterlimit="10"
     stroke-opacity="1" shape-rendering="auto" fill="black"
     stroke-dasharray="none" font-weight="normal" stroke-width="1"
     xmlns="http://www.w3.org/2000/svg" font-family="&apos;Dialog&apos;"
     font-style="normal" stroke-linejoin="miter" font-size="12"
     stroke-dashoffset="0" image-rendering="auto">
    <!--Generated by the Batik Graphics2D SVG Generator-->
    <defs id="genericDefs"/>
    <g>
        <g fill="white" stroke="white">
            <rect x="0" width="194" height="635" y="0" stroke="none"/>
            <path fill="black"
                  d="M5 241.9667 L44 241.9667 L44 242.8171 L5 242.8171 Z"
                  stroke="none"/>
        </g>
        <g font-family="&apos;Arial&apos;" font-size="9">
            <text x="8.5039" xml:space="preserve" y="236.7934" stroke="none">NT1.64</text><line stroke-linecap="butt"
                  fill="none" x1="44.0484" x2="44.0484" y1="14.5984"
                  stroke-linejoin="bevel" y2="469.3349" stroke-width="0.8504"/>
            <path d="M44.4736 14.5984 L108.1969 14.5984 L108.1969 15.4488 L44.4736 15.4488 Z"
                  stroke="none"/>
            <text x="111.0315" xml:space="preserve" font-size="14" y="19.5197"
                  stroke="none">X80725</text><path d="M44.4736 468.4845 L50 468.4845 L50 469.3349 L44.4736 469.3349 Z"
                  stroke="none"/>
            <text x="21.187" xml:space="preserve" y="463.3113" stroke="none">NT1.1</text><line stroke-linecap="butt"
                  fill="none" x1="49.4366" x2="49.4366" y1="347.0791"
                  stroke-linejoin="bevel" y2="590.7402" stroke-width="0.8504"/>
            <path d="M49.8618 347.0791 L52 347.0791 L52 347.9295 L49.8618 347.9295 Z"
                  stroke="none"/>
            <text x="22.247" xml:space="preserve" y="341.9059" stroke="none">NT1.2</text><line stroke-linecap="butt"
                  fill="none" x1="51.8314" x2="51.8314" y1="189.0421"
                  stroke-linejoin="bevel" y2="505.9666" stroke-width="0.8504"/>
            <path d="M52.2566 189.0421 L71 189.0421 L71 189.8925 L52.2566 189.8925 Z"
                  stroke="none"/>
            <text x="41.326" xml:space="preserve" y="183.8689" stroke="none">NT1.9</text><line stroke-linecap="butt"
                  fill="none" x1="70.9897" x2="70.9897" y1="68.532"
                  stroke-linejoin="bevel" y2="310.4026" stroke-width="0.8504"/>
            <path d="M71.4149 68.532 L75 68.532 L75 69.3824 L71.4149 69.3824 Z"
                  stroke="none"/>
            <text x="39.5242" xml:space="preserve" y="63.3587" stroke="none">NT1.13</text><line stroke-linecap="butt"
                  fill="none" x1="75.0951" x2="75.0951" y1="33.3071"
                  stroke-linejoin="bevel" y2="104.6073" stroke-width="0.8504"/>
            <path d="M75.5203 33.3071 L92.4597 33.3071 L92.4597 34.1575 L75.5203 34.1575 Z"
                  stroke="none"/>
            <text x="95.2944" xml:space="preserve" font-size="14" y="38.2283"
                  stroke="none">AF075271</text><path d="M75.5203 103.7569 L86 103.7569 L86 104.6073 L75.5203 104.6073 Z"
                  stroke="none"/>
            <text x="49.8599" xml:space="preserve" y="98.5836" stroke="none">NT1.19</text><line stroke-linecap="butt"
                  fill="none" x1="85.444" x2="85.444" y1="52.0157"
                  stroke-linejoin="bevel" y2="156.3484" stroke-width="0.8504"/>
            <path d="M85.8692 52.0157 L95.7098 52.0157 L95.7098 52.8661 L85.8692 52.8661 Z"
                  stroke="none"/>
            <text x="98.5444" xml:space="preserve" font-size="14" y="56.937"
                  stroke="none">AY587231</text><path d="M85.8692 155.498 L87 155.498 L87 156.3484 L85.8692 156.3484 Z"
                  stroke="none"/>
            <text x="51.6101" xml:space="preserve" y="150.3248" stroke="none">NT1.20</text><line stroke-linecap="butt"
                  fill="none" x1="87.1545" x2="87.1545" y1="95.2795"
                  stroke-linejoin="bevel" y2="216.5669" stroke-width="0.8504"/>
            <path d="M87.5797 95.2795 L91 95.2795 L91 96.1299 L87.5797 96.1299 Z"
                  stroke="none"/>
            <text x="55.0709" xml:space="preserve" y="90.1063" stroke="none">NT1.22</text><line stroke-linecap="butt"
                  fill="none" x1="90.5757" x2="90.5757" y1="70.7244"
                  stroke-linejoin="bevel" y2="120.685" stroke-width="0.8504"/>
            <path d="M91.0009 70.7244 L93.9137 70.7244 L93.9137 71.5748 L91.0009 71.5748 Z"
                  stroke="none"/>
            <text x="96.7484" xml:space="preserve" font-size="14" y="75.6457"
                  stroke="none">X99392</text><path d="M91.0009 119.8346 L92 119.8346 L92 120.685 L91.0009 120.685 Z"
                  stroke="none"/>
            <text x="55.9457" xml:space="preserve" y="114.6614" stroke="none">NT1.23</text><line stroke-linecap="butt"
                  fill="none" x1="91.5165" x2="91.5165" y1="89.4331"
                  stroke-linejoin="bevel" y2="151.0866" stroke-width="0.8504"/>
            <path d="M91.9417 89.4331 L95.1966 89.4331 L95.1966 90.2834 L91.9417 90.2834 Z"
                  stroke="none"/>
            <text x="98.0313" xml:space="preserve" font-size="14" y="94.3543"
                  stroke="none"></text>
            <path d="M91.9417 150.2362 L94 150.2362 L94 151.0866 L91.9417 151.0866 Z"
                  stroke="none"/>
            <text x="58.2417" xml:space="preserve" y="145.063" stroke="none">NT1.29</text><line stroke-linecap="butt"
                  fill="none" x1="93.8257" x2="93.8257" y1="126.8504"
                  stroke-linejoin="bevel" y2="174.4724" stroke-width="0.8504"/>
            <path d="M94.2509 126.8504 L97 126.8504 L97 127.7008 L94.2509 127.7008 Z"
                  stroke="none"/>
            <text x="60.9786" xml:space="preserve" y="121.6771" stroke="none">NT1.39</text><line stroke-linecap="butt"
                  fill="none" x1="96.5626" x2="96.5626" y1="108.1417"
                  stroke-linejoin="bevel" y2="146.4094" stroke-width="0.8504"/>
            <path d="M96.9878 108.1417 L96.1374 108.1417 L96.1374 108.9921 L96.9878 108.9921 Z"
                  stroke="none"/>
            <text x="98.9721" xml:space="preserve" font-size="14" y="113.063"
                  stroke="none"></text>
            <path d="M96 126.8504 L96.6506 126.8504 L96.6506 127.7008 L96 127.7008 Z"
                  stroke="none"/>
            <text x="99.4853" xml:space="preserve" font-size="14" y="131.7716"
                  stroke="none">AJ229239</text><path d="M96.9878 145.559 L96.223 145.559 L96.223 146.4094 L96.9878 146.4094 Z"
                  stroke="none"/>
            <text x="99.0576" xml:space="preserve" font-size="14" y="150.4803"
                  stroke="none">AJ229246</text><path d="M94.2509 173.622 L98 173.622 L98 174.4724 L94.2509 174.4724 Z"
                  stroke="none"/>
            <text x="61.8797" xml:space="preserve" y="168.4488" stroke="none">NT1.45</text><line stroke-linecap="butt"
                  fill="none" x1="97.5034" x2="97.5034" y1="164.2677"
                  stroke-linejoin="bevel" y2="183.8268" stroke-width="0.8504"/>
            <path d="M97.9286 164.2677 L97.1638 164.2677 L97.1638 165.1181 L97.9286 165.1181 Z"
                  stroke="none"/>
            <text x="99.9984" xml:space="preserve" font-size="14" y="169.189"
                  stroke="none">X99391</text><path d="M97.9286 182.9764 L97.1638 182.9764 L97.1638 183.8268 L97.9286 183.8268 Z"
                  stroke="none"/>
            <text x="99.9984" xml:space="preserve" font-size="14" y="187.8976"
                  stroke="none"></text>
            <path d="M87.5797 215.7165 L90 215.7165 L90 216.5669 L87.5797 216.5669 Z"
                  stroke="none"/>
            <text x="55.3793" xml:space="preserve" y="210.5433" stroke="none">NT1.21</text><line stroke-linecap="butt"
                  fill="none" x1="89.5493" x2="89.5493" y1="201.685"
                  stroke-linejoin="bevel" y2="230.5984" stroke-width="0.8504"/>
            <path d="M89.9745 201.685 L94.769 201.685 L94.769 202.5354 L89.9745 202.5354 Z"
                  stroke="none"/>
            <text x="97.6037" xml:space="preserve" font-size="14" y="206.6063"
                  stroke="none"></text>
            <path d="M89.9745 229.748 L101 229.748 L101 230.5984 L89.9745 230.5984 Z"
                  stroke="none"/>
            <text x="65.8078" xml:space="preserve" y="224.5748" stroke="none">NT1.54</text><line stroke-linecap="butt"
                  fill="none" x1="101.3522" x2="101.3522" y1="220.3937"
                  stroke-linejoin="bevel" y2="239.9528" stroke-width="0.8504"/>
            <path d="M101.7775 220.3937 L101.0126 220.3937 L101.0126 221.2441 L101.7775 221.2441 Z"
                  stroke="none"/>
            <text x="103.8472" xml:space="preserve" font-size="14" y="225.315"
                  stroke="none"></text>
            <path d="M101.7775 239.1024 L102.1245 239.1024 L102.1245 239.9528 L101.7775 239.9528 Z"
                  stroke="none"/>
            <text x="104.9591" xml:space="preserve" font-size="14" y="244.0237"
                  stroke="none">AY587232</text><path d="M71.4149 309.5522 L74 309.5522 L74 310.4026 L71.4149 310.4026 Z"
                  stroke="none"/>
            <text x="39.3" xml:space="preserve" y="304.379" stroke="none">NT1.11</text><line stroke-linecap="butt"
                  fill="none" x1="73.47" x2="73.47" y1="281.1969"
                  stroke-linejoin="bevel" y2="338.7579" stroke-width="0.8504"/>
            <path d="M73.8952 281.1969 L92 281.1969 L92 282.0473 L73.8952 282.0473 Z"
                  stroke="none"/>
            <text x="56.577" xml:space="preserve" y="276.0237" stroke="none">NT1.25</text><line stroke-linecap="butt"
                  fill="none" x1="92.2007" x2="92.2007" y1="267.1654"
                  stroke-linejoin="bevel" y2="296.0788" stroke-width="0.8504"/>
            <path d="M92.6259 267.1654 L93 267.1654 L93 268.0158 L92.6259 268.0158 Z"
                  stroke="none"/>
            <text x="57.7417" xml:space="preserve" y="261.9921" stroke="none">NT1.27</text><line stroke-linecap="butt"
                  fill="none" x1="93.3125" x2="93.3125" y1="257.811"
                  stroke-linejoin="bevel" y2="277.3701" stroke-width="0.8504"/>
            <path d="M93.7377 257.811 L96.9927 257.811 L96.9927 258.6614 L93.7377 258.6614 Z"
                  stroke="none"/>
            <text x="99.8273" xml:space="preserve" font-size="14" y="262.7323"
                  stroke="none"></text>
            <path d="M93.7377 276.5197 L98.4466 276.5197 L98.4466 277.3701 L93.7377 277.3701 Z"
                  stroke="none"/>
            <text x="101.2813" xml:space="preserve" font-size="14" y="281.441"
                  stroke="none"></text>
            <path d="M92.6259 295.2284 L95.8808 295.2284 L95.8808 296.0788 L92.6259 296.0788 Z"
                  stroke="none"/>
            <text x="98.7155" xml:space="preserve" font-size="14" y="300.1496"
                  stroke="none">A8286015</text><path d="M73.8952 337.9075 L75 337.9075 L75 338.7579 L73.8952 338.7579 Z"
                  stroke="none"/>
            <text x="39.2482" xml:space="preserve" y="332.7343" stroke="none">NT1.12</text><line stroke-linecap="butt"
                  fill="none" x1="74.7529" x2="74.7529" y1="313.937"
                  stroke-linejoin="bevel" y2="362.7284" stroke-width="0.8504"/>
            <path d="M75.1781 313.937 L98.9598 313.937 L98.9598 314.7874 L75.1781 314.7874 Z"
                  stroke="none"/>
            <text x="101.7945" xml:space="preserve" font-size="14" y="318.8583"
                  stroke="none">AY695840</text><path d="M75.1781 361.878 L77 361.878 L77 362.7284 L75.1781 362.7284 Z"
                  stroke="none"/>
            <text x="41.5178" xml:space="preserve" y="356.7048" stroke="none">NT1.14</text><line stroke-linecap="butt"
                  fill="none" x1="77.0622" x2="77.0622" y1="332.6457"
                  stroke-linejoin="bevel" y2="391.9607" stroke-width="0.8504"/>
            <path d="M77.4874 332.6457 L94.769 332.6457 L94.769 333.4961 L77.4874 333.4961 Z"
                  stroke="none"/>
            <text x="97.6036" xml:space="preserve" font-size="14" y="337.567"
                  stroke="none"></text>
            <path d="M77.4874 391.1103 L81 391.1103 L81 391.9607 L77.4874 391.9607 Z"
                  stroke="none"/>
            <text x="44.9452" xml:space="preserve" y="385.9371" stroke="none">NT1.15</text><line stroke-linecap="butt"
                  fill="none" x1="80.5689" x2="80.5689" y1="365.3859"
                  stroke-linejoin="bevel" y2="417.6851" stroke-width="0.8504"/>
            <path d="M80.9941 365.3859 L82 365.3859 L82 366.2363 L80.9941 366.2363 Z"
                  stroke="none"/>
            <text x="46.7941" xml:space="preserve" y="360.2127" stroke="none">NT1.16</text><line stroke-linecap="butt"
                  fill="none" x1="82.365" x2="82.365" y1="351.3544"
                  stroke-linejoin="bevel" y2="380.2678" stroke-width="0.8504"/>
            <path d="M82.7902 351.3544 L106.8284 351.3544 L106.8284 352.2048 L82.7902 352.2048 Z"
                  stroke="none"/>
            <text x="109.6631" xml:space="preserve" font-size="14" y="356.2757"
                  stroke="none">DQ539046</text><path d="M82.7902 379.4174 L85 379.4174 L85 380.2679 L82.7902 380.2679 Z"
                  stroke="none"/>
            <text x="49.1757" xml:space="preserve" y="374.2442" stroke="none">NT1.18</text><line stroke-linecap="butt"
                  fill="none" x1="84.7597" x2="84.7597" y1="370.0631"
                  stroke-linejoin="bevel" y2="389.6221" stroke-width="0.8504"/>
            <path d="M85.1849 370.0631 L104.7758 370.0631 L104.7758 370.9135 L85.1849 370.9135 Z"
                  stroke="none"/>
            <text x="107.6104" xml:space="preserve" font-size="14" y="374.9843"
                  stroke="none">DQ302109</text><path d="M85.1849 388.7718 L108.1969 388.7718 L108.1969 389.6222 L85.1849 389.6222 Z"
                  stroke="none"/>
            <text x="111.0315" xml:space="preserve" font-size="14" y="393.693"
                  stroke="none">A3292183</text><path d="M80.9941 416.8347 L92 416.8347 L92 417.6852 L80.9941 417.6852 Z"
                  stroke="none"/>
            <text x="55.9721" xml:space="preserve" y="411.6615" stroke="none">NT1.24</text><line stroke-linecap="butt"
                  fill="none" x1="91.5165" x2="91.5165" y1="407.4804"
                  stroke-linejoin="bevel" y2="427.0394" stroke-width="0.8504"/>
            <path d="M91.9417 407.4804 L99.7296 407.4804 L99.7296 408.3308 L91.9417 408.3308 Z"
                  stroke="none"/>
            <text x="102.5643" xml:space="preserve" font-size="14" y="412.4016"
                  stroke="none">ABO73978</text><path d="M91.9417 426.1891 L101.3547 426.1891 L101.3547 427.0395 L91.9417 427.0395 Z"
                  stroke="none"/>
            <text x="104.1893" xml:space="preserve" font-size="14" y="431.1103"
                  stroke="none"></text>
            <path d="M52.2566 505.1162 L55 505.1162 L55 505.9666 L52.2566 505.9666 Z"
                  stroke="none"/>
            <text x="25.6021" xml:space="preserve" y="499.9429" stroke="none">NT1.3</text><line stroke-linecap="butt"
                  fill="none" x1="55.2526" x2="55.2526" y1="462.437"
                  stroke-linejoin="bevel" y2="548.6457" stroke-width="0.8504"/>
            <path d="M55.6778 462.437 L63 462.437 L63 463.2874 L55.6778 463.2874 Z"
                  stroke="none"/>
            <text x="32.8984" xml:space="preserve" y="457.2638" stroke="none">NT1.4</text><line stroke-linecap="butt"
                  fill="none" x1="62.5225" x2="62.5225" y1="444.8977"
                  stroke-linejoin="bevel" y2="480.8268" stroke-width="0.8504"/>
            <path d="M62.9477 444.8977 L101.5257 444.8977 L101.5257 445.7481 L62.9477 445.7481 Z"
                  stroke="none"/>
            <text x="104.3604" xml:space="preserve" font-size="14" y="449.8189"
                  stroke="none">AF009974</text><path d="M62.9477 479.9764 L66 479.9764 L66 480.8268 L62.9477 480.8268 Z"
                  stroke="none"/>
            <text x="35.951" xml:space="preserve" y="474.8032" stroke="none">NT1.6</text><line stroke-linecap="butt"
                  fill="none" x1="65.6015" x2="65.6015" y1="463.6064"
                  stroke-linejoin="bevel" y2="497.1969" stroke-width="0.8504"/>
            <path d="M66.0267 463.6064 L97.5914 463.6064 L97.5914 464.4568 L66.0267 464.4568 Z"
                  stroke="none"/>
            <text x="100.4261" xml:space="preserve" font-size="14" y="468.5276"
                  stroke="none">AY234519</text><path d="M66.0267 496.3465 L69 496.3465 L69 497.1969 L66.0267 497.1969 Z"
                  stroke="none"/>
            <text x="39.4445" xml:space="preserve" y="491.1733" stroke="none">NT1.8</text><line stroke-linecap="butt"
                  fill="none" x1="69.1082" x2="69.1082" y1="482.315"
                  stroke-linejoin="bevel" y2="511.2284" stroke-width="0.8504"/>
            <path d="M69.5334 482.315 L93.144 482.315 L93.144 483.1654 L69.5334 483.1654 Z"
                  stroke="none"/>
            <text x="95.9786" xml:space="preserve" font-size="14" y="487.2363"
                  stroke="none">AY388649</text><path d="M69.5334 510.3781 L83 510.3781 L83 511.2285 L69.5334 511.2285 Z"
                  stroke="none"/>
            <text x="47.3929" xml:space="preserve" y="505.2048" stroke="none">NT1.17</text><line stroke-linecap="butt"
                  fill="none" x1="82.9637" x2="82.9637" y1="501.0237"
                  stroke-linejoin="bevel" y2="520.5828" stroke-width="0.8504"/>
            <path d="M83.3889 501.0237 L96.7362 501.0237 L96.7362 501.8741 L83.3889 501.8741 Z"
                  stroke="none"/>
            <text x="99.5708" xml:space="preserve" font-size="14" y="505.945"
                  stroke="none">U60015</text><path d="M83.3889 519.7324 L97.5914 519.7324 L97.5914 520.5828 L83.3889 520.5828 Z"
                  stroke="none"/>
            <text x="100.4261" xml:space="preserve" font-size="14" y="524.6537"
                  stroke="none">X90515</text><path d="M55.6778 547.7953 L66 547.7953 L66 548.6457 L55.6778 548.6457 Z"
                  stroke="none"/>
            <text x="36.2076" xml:space="preserve" y="542.6221" stroke="none">NT1.7</text><line stroke-linecap="butt"
                  fill="none" x1="65.858" x2="65.858" y1="538.441"
                  stroke-linejoin="bevel" y2="558.0001" stroke-width="0.8504"/>
            <path d="M66.2832 538.441 L95.7098 538.441 L95.7098 539.2913 L66.2832 539.2913 Z"
                  stroke="none"/>
            <text x="98.5444" xml:space="preserve" font-size="14" y="543.3622"
                  stroke="none">AY271254</text><path d="M66.2832 557.1497 L96.223 557.1497 L96.223 558 L66.2832 558 Z"
                  stroke="none"/>
            <text x="99.0576" xml:space="preserve" font-size="14" y="562.0709"
                  stroke="none">DQ302104</text><path d="M49.8618 589.8898 L64 589.8898 L64 590.7401 L49.8618 590.7401 Z"
                  stroke="none"/>
            <text x="34.7007" xml:space="preserve" y="584.7166" stroke="none">NT1.5</text><line stroke-linecap="butt"
                  fill="none" x1="64.4041" x2="64.4041" y1="575.8583"
                  stroke-linejoin="bevel" y2="604.7717" stroke-width="0.8504"/>
            <path d="M64.8293 575.8583 L93.9137 575.8583 L93.9137 576.7087 L64.8293 576.7087 Z"
                  stroke="none"/>
            <text x="96.7484" xml:space="preserve" font-size="14" y="580.7795"
                  stroke="none">AY114317</text><path d="M64.8293 603.9213 L72 603.9213 L72 604.7717 L64.8293 604.7717 Z"
                  stroke="none"/>
            <text x="35.9585" xml:space="preserve" y="598.7481" stroke="none">NT1.10</text><line stroke-linecap="butt"
                  fill="none" x1="71.5029" x2="71.5029" y1="594.567"
                  stroke-linejoin="bevel" y2="614.1261" stroke-width="0.8504"/>
            <path d="M71.9281 594.567 L100.0718 594.567 L100.0718 595.4174 L71.9281 595.4174 Z"
                  stroke="none"/>
            <text x="102.9064" xml:space="preserve" font-size="14" y="599.4882"
                  stroke="none"></text>
            <path d="M71.9281 613.2757 L107.8548 613.2757 L107.8548 614.126 L71.9281 614.126 Z"
                  stroke="none"/>
            <text x="110.6895" xml:space="preserve" font-size="14" y="618.1969"
                  stroke="none">AF050559</text>
        </g>
    </g>
</svg>
