<?xml version="1.0"?>
<!DOCTYPE svg PUBLIC '-//W3C//DTD SVG 1.0//EN'
    'http://www.w3.org/TR/2001/REC-SVG-20010904/DTD/svg10.dtd' >

<svg fill-opacity="1" xmlns:xlink="http://www.w3.org/1999/xlink"
     color-rendering="auto" color-interpolation="auto" stroke="black"
     text-rendering="auto" stroke-linecap="square" stroke-miterlimit="10"
     stroke-opacity="1" shape-rendering="auto" fill="black"
     stroke-dasharray="none" font-weight="normal" stroke-width="1"
     xmlns="http://www.w3.org/2000/svg" font-family="&apos;Dialog&apos;"
     font-style="normal" stroke-linejoin="miter" font-size="12"
     stroke-dashoffset="0" image-rendering="auto">
    <!--Generated by the Batik Graphics2D SVG Generator-->
    <defs id="genericDefs"/>
    <g>
        <g fill="white" stroke="white">
            <rect x="0" width="295" height="393" y="0" stroke="none"/>
            <path fill="black"
                  d="M5 108.9921 L18 108.9921 L18 109.8425 L5 109.8425 Z"
                  stroke="none"/>
            <circle fill="black" r="1.2756" cx="17.4331" cy="108.9921"
                    stroke="none"/>
            <path fill="black"
                  d="M17.8583 108.1417 L18 108.1417 L18 108.9921 L17.8583 108.9921 Z"
                  stroke="none"/>
        </g>
        <g font-family="&apos;Arial&apos;" font-size="9">
            <text x="-12.0557" xml:space="preserve" y="102.9685" stroke="none">NT1.2</text><line stroke-linecap="butt"
                  fill="none" x1="17.5287" x2="17.5287" y1="14.5984"
                  stroke-linejoin="bevel" y2="202.5355" stroke-width="0.8504"/>
            <path d="M17.9539 14.5984 L73.2457 14.5984 L73.2457 15.4488 L17.9539 15.4488 Z"
                  stroke="none"/>
            <text x="76.0803" xml:space="preserve" font-size="14" y="19.5197"
                  stroke="none">X80725</text><path d="M17.9539 201.685 L27 201.685 L27 202.5354 L17.9539 202.5354 Z"
                  stroke="none"/>
            <text x="-2.7488" xml:space="preserve" y="196.5118" stroke="none">NT1.3</text><line stroke-linecap="butt"
                  fill="none" x1="26.9017" x2="26.9017" y1="33.3071"
                  stroke-linejoin="bevel" y2="370.9135" stroke-width="0.8504"/>
            <path d="M27.3269 33.3071 L41.6836 33.3071 L41.6836 34.1575 L27.3269 34.1575 Z"
                  stroke="none"/>
            <text x="44.5183" xml:space="preserve" font-size="14" y="38.2283"
                  stroke="none"></text>
            <path d="M27 52.0158 L49.8132 52.0158 L49.8132 52.8661 L27 52.8661 Z"
                  stroke="none"/>
            <text x="52.6479" xml:space="preserve" font-size="14" y="56.937"
                  stroke="none">M22365</text><path d="M27 173.6221 L38 173.6221 L38 174.4725 L27 174.4725 Z"
                  stroke="none"/>
            <text x="7.9896" xml:space="preserve" y="168.4488" stroke="none">NT1.4</text><line stroke-linecap="butt"
                  fill="none" x1="37.6136" x2="37.6136" y1="70.7244"
                  stroke-linejoin="bevel" y2="277.3701" stroke-width="0.8504"/>
            <path d="M38.0388 70.7244 L41.9706 70.7244 L41.9706 71.5748 L38.0388 71.5748 Z"
                  stroke="none"/>
            <text x="44.8052" xml:space="preserve" font-size="14" y="75.6457"
                  stroke="none"></text>
            <path d="M38 89.4331 L48.5699 89.4331 L48.5699 90.2835 L38 90.2835 Z"
                  stroke="none"/>
            <text x="51.4045" xml:space="preserve" font-size="14" y="94.3543"
                  stroke="none"></text>
            <path d="M38 108.1417 L54.5954 108.1417 L54.5954 108.9921 L38 108.9921 Z"
                  stroke="none"/>
            <text x="57.43" xml:space="preserve" font-size="14" y="113.063"
                  stroke="none">276667.0</text><path d="M38 184.1457 L40 184.1457 L40 184.9961 L38 184.9961 Z"
                  stroke="none"/>
            <text x="10.4926" xml:space="preserve" y="178.9724" stroke="none">NT1.5</text><line stroke-linecap="butt"
                  fill="none" x1="40.196" x2="40.196" y1="147.8976"
                  stroke-linejoin="bevel" y2="221.2441" stroke-width="0.8504"/>
            <path d="M40.6212 147.8976 L44 147.8976 L44 148.748 L40.6212 148.748 Z"
                  stroke="none"/>
            <text x="8.4773" xml:space="preserve" y="142.7244" stroke="none">NT1.10</text><line stroke-linecap="butt"
                  fill="none" x1="44.0217" x2="44.0217" y1="126.8504"
                  stroke-linejoin="bevel" y2="169.7953" stroke-width="0.8504"/>
            <path d="M44.4469 126.8504 L50.4827 126.8504 L50.4827 127.7008 L44.4469 127.7008 Z"
                  stroke="none"/>
            <text x="53.3174" xml:space="preserve" font-size="14" y="131.7717"
                  stroke="none">AF500006</text><path d="M44.4469 168.9449 L46 168.9449 L46 169.7953 L44.4469 169.7953 Z"
                  stroke="none"/>
            <text x="12.1471" xml:space="preserve" y="163.7717" stroke="none">NT1.11</text><line stroke-linecap="butt"
                  fill="none" x1="46.3171" x2="46.3171" y1="154.9134"
                  stroke-linejoin="bevel" y2="183.8268" stroke-width="0.8504"/>
            <path d="M46.7423 154.9134 L47 154.9134 L47 155.7638 L46.7423 155.7638 Z"
                  stroke="none"/>
            <text x="11.0036" xml:space="preserve" y="149.7401" stroke="none">NT1.12</text><line stroke-linecap="butt"
                  fill="none" x1="46.5084" x2="46.5084" y1="145.559"
                  stroke-linejoin="bevel" y2="165.1181" stroke-width="0.8504"/>
            <path d="M46.9336 145.5591 L55.0736 145.5591 L55.0736 146.4095 L46.9336 146.4095 Z"
                  stroke="none"/>
            <text x="57.9082" xml:space="preserve" font-size="14" y="150.4803"
                  stroke="none">EF486352</text><path d="M46.9336 164.2677 L51.3435 164.2677 L51.3435 165.1181 L46.9336 165.1181 Z"
                  stroke="none"/>
            <text x="54.1782" xml:space="preserve" font-size="14" y="169.189"
                  stroke="none">U58338</text><path d="M46.7423 182.9764 L48.4743 182.9764 L48.4743 183.8268 L46.7423 183.8268 Z"
                  stroke="none"/>
            <text x="51.3089" xml:space="preserve" font-size="14" y="187.8976"
                  stroke="none">AF479688</text><path d="M40.6212 220.3937 L47 220.3937 L47 221.2441 L40.6212 221.2441 Z"
                  stroke="none"/>
            <text x="11.6335" xml:space="preserve" y="215.2205" stroke="none">NT1.14</text><line stroke-linecap="butt"
                  fill="none" x1="47.1779" x2="47.1779" y1="201.685"
                  stroke-linejoin="bevel" y2="239.9528" stroke-width="0.8504"/>
            <path d="M47.6031 201.685 L47.3265 201.685 L47.3265 202.5354 L47.6031 202.5354 Z"
                  stroke="none"/>
            <text x="50.1612" xml:space="preserve" font-size="14" y="206.6063"
                  stroke="none"></text>
            <path d="M47 220.3937 L53.0651 220.3937 L53.0651 221.2441 L47 221.2441 Z"
                  stroke="none"/>
            <text x="55.8997" xml:space="preserve" font-size="14" y="225.315"
                  stroke="none">AJ510266</text><path d="M47.6031 239.1024 L55.2649 239.1024 L55.2649 239.9528 L47.6031 239.9528 Z"
                  stroke="none"/>
            <text x="58.0995" xml:space="preserve" font-size="14" y="244.0237"
                  stroke="none">AY377986</text><path d="M38 257.811 L56.6995 257.811 L56.6995 258.6614 L38 258.6614 Z"
                  stroke="none"/>
            <text x="59.5341" xml:space="preserve" font-size="14" y="262.7323"
                  stroke="none">276651.0</text><path d="M38.0388 276.5197 L55.9344 276.5197 L55.9344 277.3701 L38.0388 277.3701 Z"
                  stroke="none"/>
            <text x="58.769" xml:space="preserve" font-size="14" y="281.441"
                  stroke="none">PseudomonasﬂuorescensIAM</text><path d="M27 313.937 L40 313.937 L40 314.7874 L27 314.7874 Z"
                  stroke="none"/>
            <text x="10.6412" xml:space="preserve" y="308.7638" stroke="none">NT1.6</text><line stroke-linecap="butt"
                  fill="none" x1="40.2916" x2="40.2916" y1="295.2284"
                  stroke-linejoin="bevel" y2="333.4961" stroke-width="0.8504"/>
            <path d="M40.7168 295.2284 L40.4403 295.2284 L40.4403 296.0788 L40.7168 296.0788 Z"
                  stroke="none"/>
            <text x="43.2749" xml:space="preserve" font-size="14" y="300.1496"
                  stroke="none"></text>
            <path d="M40 313.937 L51.1522 313.937 L51.1522 314.7874 L40 314.7874 Z"
                  stroke="none"/>
            <text x="53.9869" xml:space="preserve" font-size="14" y="318.8583"
                  stroke="none">X67022</text><path d="M40.7168 332.6457 L53.6389 332.6457 L53.6389 333.4961 L40.7168 333.4961 Z"
                  stroke="none"/>
            <text x="56.4736" xml:space="preserve" font-size="14" y="337.567"
                  stroke="none">AF479689</text><path d="M27 351.3543 L54.5954 351.3543 L54.5954 352.2047 L27 352.2047 Z"
                  stroke="none"/>
            <text x="57.43" xml:space="preserve" font-size="14" y="356.2756"
                  stroke="none">M93355</text><path d="M27.3269 370.063 L46.4657 370.063 L46.4657 370.9135 L27.3269 370.9135 Z"
                  stroke="none"/>
            <text x="49.3004" xml:space="preserve" font-size="14" y="374.9843"
                  stroke="none"></text>
        </g>
    </g>
</svg>
