<?xml version="1.0"?>
<!DOCTYPE svg PUBLIC '-//W3C//DTD SVG 1.0//EN'
    'http://www.w3.org/TR/2001/REC-SVG-20010904/DTD/svg10.dtd' >

<svg fill-opacity="1" xmlns:xlink="http://www.w3.org/1999/xlink"
     color-rendering="auto" color-interpolation="auto" stroke="black"
     text-rendering="auto" stroke-linecap="square" stroke-miterlimit="10"
     stroke-opacity="1" shape-rendering="auto" fill="black"
     stroke-dasharray="none" font-weight="normal" stroke-width="1"
     xmlns="http://www.w3.org/2000/svg" font-family="&apos;Dialog&apos;"
     font-style="normal" stroke-linejoin="miter" font-size="12"
     stroke-dashoffset="0" image-rendering="auto">
    <!--Generated by the Batik Graphics2D SVG Generator-->
    <defs id="genericDefs"/>
    <g>
        <g fill="white" stroke="white">
            <rect x="0" width="65" height="112" y="0" stroke="none"/>
            <path fill="black"
                  d="M5 44.6811 L18 44.6811 L18 45.5315 L5 45.5315 Z"
                  stroke="none"/>
            <circle fill="black" r="1.2756" cx="17.4331" cy="44.6811"
                    stroke="none"/>
            <path fill="black"
                  d="M17.8583 43.8307 L21 43.8307 L21 44.6811 L17.8583 44.6811 Z"
                  stroke="none"/>
        </g>
        <g font-family="&apos;Arial&apos;" font-size="9">
            <text x="-8.5068" xml:space="preserve" y="38.6575" stroke="none">NT1.2</text><line stroke-linecap="butt"
                  fill="none" x1="21.0776" x2="21.0776" y1="14.5984"
                  stroke-linejoin="bevel" y2="73.9134" stroke-width="0.8504"/>
            <path d="M21.5028 14.5984 L53.6228 14.5984 L53.6228 15.4488 L21.5028 15.4488 Z"
                  stroke="none"/>
            <text x="56.4575" xml:space="preserve" font-size="14" y="19.5197"
                  stroke="none"></text>
            <path d="M21.5028 73.063 L32 73.063 L32 73.9134 L21.5028 73.9134 Z"
                  stroke="none"/>
            <text x="2.6151" xml:space="preserve" y="67.8898" stroke="none">NT1.3</text><line stroke-linecap="butt"
                  fill="none" x1="32.2655" x2="32.2655" y1="56.6929"
                  stroke-linejoin="bevel" y2="90.2835" stroke-width="0.8504"/>
            <path d="M32.6907 56.6929 L36 56.6929 L36 57.5433 L32.6907 57.5433 Z"
                  stroke="none"/>
            <text x="6.2013" xml:space="preserve" y="51.5197" stroke="none">NT1.4</text><line stroke-linecap="butt"
                  fill="none" x1="35.8253" x2="35.8253" y1="42.6614"
                  stroke-linejoin="bevel" y2="71.5748" stroke-width="0.8504"/>
            <path d="M36.2505 42.6614 L43 42.6614 L43 43.5118 L36.2505 43.5118 Z"
                  stroke="none"/>
            <text x="13.6653" xml:space="preserve" y="37.4882" stroke="none">NT1.5</text><line stroke-linecap="butt"
                  fill="none" x1="43.3687" x2="43.3687" y1="33.3071"
                  stroke-linejoin="bevel" y2="52.8661" stroke-width="0.8504"/>
            <path d="M43.7939 33.3071 L51.2496 33.3071 L51.2496 34.1575 L43.7939 34.1575 Z"
                  stroke="none"/>
            <text x="54.0843" xml:space="preserve" font-size="14" y="38.2283"
                  stroke="none"></text>
            <path d="M43.7939 52.0158 L47.6051 52.0158 L47.6051 52.8661 L43.7939 52.8661 Z"
                  stroke="none"/>
            <text x="50.4397" xml:space="preserve" font-size="14" y="56.937"
                  stroke="none"></text>
            <path d="M36.2505 70.7244 L52.3515 70.7244 L52.3515 71.5748 L36.2505 71.5748 Z"
                  stroke="none"/>
            <text x="55.1861" xml:space="preserve" font-size="14" y="75.6457"
                  stroke="none"></text>
            <path d="M32.6907 89.4331 L45.0624 89.4331 L45.0624 90.2835 L32.6907 90.2835 Z"
                  stroke="none"/>
            <text x="47.897" xml:space="preserve" font-size="14" y="94.3543"
                  stroke="none"></text>
        </g>
    </g>
</svg>
