<?xml version="1.0"?>
<!DOCTYPE svg PUBLIC '-//W3C//DTD SVG 1.0//EN'
    'http://www.w3.org/TR/2001/REC-SVG-20010904/DTD/svg10.dtd' >

<svg fill-opacity="1" xmlns:xlink="http://www.w3.org/1999/xlink"
     color-rendering="auto" color-interpolation="auto" stroke="black"
     text-rendering="auto" stroke-linecap="square" stroke-miterlimit="10"
     stroke-opacity="1" shape-rendering="auto" fill="black"
     stroke-dasharray="none" font-weight="normal" stroke-width="1"
     xmlns="http://www.w3.org/2000/svg" font-family="&apos;Dialog&apos;"
     font-style="normal" stroke-linejoin="miter" font-size="12"
     stroke-dashoffset="0" image-rendering="auto">
    <!--Generated by the Batik Graphics2D SVG Generator-->
    <defs id="genericDefs"/>
    <g>
        <g fill="white" stroke="white">
            <rect x="0" width="161" height="130" y="0" stroke="none"/>
            <path fill="black"
                  d="M5 44.2559 L43 44.2559 L43 45.1063 L5 45.1063 Z"
                  stroke="none"/>
        </g>
        <g font-family="&apos;Arial&apos;" font-size="9">
            <text x="8.5039" xml:space="preserve" y="39.0827" stroke="none">NT1.11</text><line stroke-linecap="butt"
                  fill="none" x1="42.674" x2="42.674" y1="14.5984"
                  stroke-linejoin="bevel" y2="73.9134" stroke-width="0.8504"/>
            <path d="M43.0992 14.5984 L69.859 14.5984 L69.859 15.4488 L43.0992 15.4488 Z"
                  stroke="none"/>
            <text x="72.6936" xml:space="preserve" font-size="14" y="19.5197"
                  stroke="none">Y08539</text><path d="M43.0992 73.063 L48 73.063 L48 73.9134 L43.0992 73.9134 Z"
                  stroke="none"/>
            <text x="19.7009" xml:space="preserve" y="67.8898" stroke="none">NT1.1</text><line stroke-linecap="butt"
                  fill="none" x1="47.9506" x2="47.9506" y1="47.3386"
                  stroke-linejoin="bevel" y2="99.6378" stroke-width="0.8504"/>
            <path d="M48.3758 47.3386 L56 47.3386 L56 48.189 L48.3758 48.189 Z"
                  stroke="none"/>
            <text x="26.7106" xml:space="preserve" y="42.1654" stroke="none">NT1.2</text><line stroke-linecap="butt"
                  fill="none" x1="56.295" x2="56.295" y1="33.3071"
                  stroke-linejoin="bevel" y2="62.2205" stroke-width="0.8504"/>
            <path d="M56.7202 33.3071 L75.5037 33.3071 L75.5037 34.1575 L56.7202 34.1575 Z"
                  stroke="none"/>
            <text x="78.3384" xml:space="preserve" font-size="14" y="38.2283"
                  stroke="none">Y11928</text><path d="M56.7202 61.3701 L71 61.3701 L71 62.2205 L56.7202 62.2205 Z"
                  stroke="none"/>
            <text x="41.1245" xml:space="preserve" y="56.1969" stroke="none">NT1.7</text><line stroke-linecap="butt"
                  fill="none" x1="70.775" x2="70.775" y1="52.0157"
                  stroke-linejoin="bevel" y2="71.5748" stroke-width="0.8504"/>
            <path d="M71.2002 52.0158 L79.3078 52.0158 L79.3078 52.8661 L71.2002 52.8661 Z"
                  stroke="none"/>
            <text x="82.1424" xml:space="preserve" font-size="14" y="56.937"
                  stroke="none">AJ566282</text><path d="M71.2002 70.7244 L79.3078 70.7244 L79.3078 71.5748 L71.2002 71.5748 Z"
                  stroke="none"/>
            <text x="82.1424" xml:space="preserve" font-size="14" y="75.6457"
                  stroke="none">A3282887</text><path d="M48.3758 98.7874 L58 98.7874 L58 99.6378 L48.3758 99.6378 Z"
                  stroke="none"/>
            <text x="27.9944" xml:space="preserve" y="93.6142" stroke="none">NT1.3</text><line stroke-linecap="butt"
                  fill="none" x1="57.6448" x2="57.6448" y1="89.4331"
                  stroke-linejoin="bevel" y2="108.9921" stroke-width="0.8504"/>
            <path d="M58.07 89.4331 L60.5329 89.4331 L60.5329 90.2835 L58.07 90.2835 Z"
                  stroke="none"/>
            <text x="63.3675" xml:space="preserve" font-size="14" y="94.3543"
                  stroke="none">X83812</text><path d="M58.07 108.1417 L64.3369 108.1417 L64.3369 108.9921 L58.07 108.9921 Z"
                  stroke="none"/>
            <text x="67.1716" xml:space="preserve" font-size="14" y="113.063"
                  stroke="none">AY944176</text>
        </g>
    </g>
</svg>
