<?xml version="1.0"?>
<!DOCTYPE svg PUBLIC '-//W3C//DTD SVG 1.0//EN'
    'http://www.w3.org/TR/2001/REC-SVG-20010904/DTD/svg10.dtd' >

<svg fill-opacity="1" xmlns:xlink="http://www.w3.org/1999/xlink"
     color-rendering="auto" color-interpolation="auto" stroke="black"
     text-rendering="auto" stroke-linecap="square" stroke-miterlimit="10"
     stroke-opacity="1" shape-rendering="auto" fill="black"
     stroke-dasharray="none" font-weight="normal" stroke-width="1"
     xmlns="http://www.w3.org/2000/svg" font-family="&apos;Dialog&apos;"
     font-style="normal" stroke-linejoin="miter" font-size="12"
     stroke-dashoffset="0" image-rendering="auto">
    <!--Generated by the Batik Graphics2D SVG Generator-->
    <defs id="genericDefs"/>
    <g>
        <g fill="white" stroke="white">
            <rect x="0" width="222" height="149" y="0" stroke="none"/>
            <path fill="black"
                  d="M5 49.3583 L18 49.3583 L18 50.2087 L5 50.2087 Z"
                  stroke="none"/>
            <circle fill="black" r="1.2756" cx="17.4331" cy="49.3583"
                    stroke="none"/>
            <path fill="black"
                  d="M17.8583 48.5079 L18 48.5079 L18 49.3583 L17.8583 49.3583 Z"
                  stroke="none"/>
        </g>
        <g font-family="&apos;Arial&apos;" font-size="9">
            <text x="-11.9595" xml:space="preserve" y="43.3346" stroke="none">NT1.2</text><line stroke-linecap="butt"
                  fill="none" x1="17.6248" x2="17.6248" y1="14.5984"
                  stroke-linejoin="bevel" y2="83.2677" stroke-width="0.8504"/>
            <path d="M18.05 14.5984 L48.7463 14.5984 L48.7463 15.4488 L18.05 15.4488 Z"
                  stroke="none"/>
            <text x="51.581" xml:space="preserve" font-size="14" y="19.5197"
                  stroke="none">EscherichiacoliATCC</text><path d="M18.05 82.4173 L31 82.4173 L31 83.2677 L18.05 83.2677 Z"
                  stroke="none"/>
            <text x="1.3026" xml:space="preserve" y="77.2441" stroke="none">NT1.3</text><line stroke-linecap="butt"
                  fill="none" x1="30.9531" x2="30.9531" y1="56.6929"
                  stroke-linejoin="bevel" y2="108.9921" stroke-width="0.8504"/>
            <path d="M31.3783 56.6929 L42 56.6929 L42 57.5433 L31.3783 57.5433 Z"
                  stroke="none"/>
            <text x="11.7973" xml:space="preserve" y="51.5197" stroke="none">NT1.5</text><line stroke-linecap="butt"
                  fill="none" x1="41.5006" x2="41.5006" y1="42.6614"
                  stroke-linejoin="bevel" y2="71.5748" stroke-width="0.8504"/>
            <path d="M41.9258 42.6614 L42 42.6614 L42 43.5118 L41.9258 43.5118 Z"
                  stroke="none"/>
            <text x="12.5213" xml:space="preserve" y="37.4882" stroke="none">NT1.6</text><line stroke-linecap="butt"
                  fill="none" x1="42.1718" x2="42.1718" y1="33.3071"
                  stroke-linejoin="bevel" y2="52.8661" stroke-width="0.8504"/>
            <path d="M42.597 33.3071 L46.6368 33.3071 L46.6368 34.1575 L42.597 34.1575 Z"
                  stroke="none"/>
            <text x="49.4715" xml:space="preserve" font-size="14" y="38.2283"
                  stroke="none">X92130</text><path d="M42.597 52.0158 L48.171 52.0158 L48.171 52.8661 L42.597 52.8661 Z"
                  stroke="none"/>
            <text x="51.0056" xml:space="preserve" font-size="14" y="56.937"
                  stroke="none">A3270706</text><path d="M41.9258 70.7244 L49.8011 70.7244 L49.8011 71.5748 L41.9258 71.5748 Z"
                  stroke="none"/>
            <text x="52.6357" xml:space="preserve" font-size="14" y="75.6457"
                  stroke="none"></text>
            <path d="M31.3783 108.1417 L37 108.1417 L37 108.9921 L31.3783 108.9921 Z"
                  stroke="none"/>
            <text x="7.0822" xml:space="preserve" y="102.9685" stroke="none">NT1.4</text><line stroke-linecap="butt"
                  fill="none" x1="36.7063" x2="36.7063" y1="89.4331"
                  stroke-linejoin="bevel" y2="127.7008" stroke-width="0.8504"/>
            <path d="M37.1315 89.4331 L48.2669 89.4331 L48.2669 90.2835 L37.1315 90.2835 Z"
                  stroke="none"/>
            <text x="51.1015" xml:space="preserve" font-size="14" y="94.3543"
                  stroke="none">AF144407</text><path d="M37 108.1417 L49.4175 108.1417 L49.4175 108.9921 L37 108.9921 Z"
                  stroke="none"/>
            <text x="52.2522" xml:space="preserve" font-size="14" y="113.063"
                  stroke="none">AJ441080</text><path d="M37.1315 126.8504 L65.1429 126.8504 L65.1429 127.7008 L37.1315 127.7008 Z"
                  stroke="none"/>
            <text x="67.9776" xml:space="preserve" font-size="14" y="131.7717"
                  stroke="none">ABO73132</text>
        </g>
    </g>
</svg>
