<?xml version="1.0"?>
<!DOCTYPE svg PUBLIC '-//W3C//DTD SVG 1.0//EN'
    'http://www.w3.org/TR/2001/REC-SVG-20010904/DTD/svg10.dtd' >

<svg fill-opacity="1" xmlns:xlink="http://www.w3.org/1999/xlink"
     color-rendering="auto" color-interpolation="auto" stroke="black"
     text-rendering="auto" stroke-linecap="square" stroke-miterlimit="10"
     stroke-opacity="1" shape-rendering="auto" fill="black"
     stroke-dasharray="none" font-weight="normal" stroke-width="1"
     xmlns="http://www.w3.org/2000/svg" font-family="&apos;Dialog&apos;"
     font-style="normal" stroke-linejoin="miter" font-size="12"
     stroke-dashoffset="0" image-rendering="auto">
    <!--Generated by the Batik Graphics2D SVG Generator-->
    <defs id="genericDefs"/>
    <g>
        <g fill="white" stroke="white">
            <rect x="0" width="212" height="354" y="0" stroke="none"/>
            <path fill="black"
                  d="M5 100.3088 L44 100.3088 L44 101.1592 L5 101.1592 Z"
                  stroke="none"/>
        </g>
        <g font-family="&apos;Arial&apos;" font-size="9">
            <text x="8.5039" xml:space="preserve" y="95.1356" stroke="none">NT1.35</text><line stroke-linecap="butt"
                  fill="none" x1="44.1276" x2="44.1276" y1="14.5984"
                  stroke-linejoin="bevel" y2="186.0192" stroke-width="0.8504"/>
            <path d="M44.5528 14.5984 L69.7088 14.5984 L69.7088 15.4488 L44.5528 15.4488 Z"
                  stroke="none"/>
            <text x="72.5435" xml:space="preserve" font-size="14" y="19.5197"
                  stroke="none">D14555</text><path d="M44.5528 185.1688 L63 185.1688 L63 186.0192 L44.5528 186.0192 Z"
                  stroke="none"/>
            <text x="34.5109" xml:space="preserve" y="179.9956" stroke="none">NT1.1</text><line stroke-linecap="butt"
                  fill="none" x1="62.7605" x2="62.7605" y1="115.1575"
                  stroke-linejoin="bevel" y2="256.0305" stroke-width="0.8504"/>
            <path d="M63.1857 115.1575 L92 115.1575 L92 116.0079 L63.1857 116.0079 Z"
                  stroke="none"/>
            <text x="62.2917" xml:space="preserve" y="109.9843" stroke="none">NT1.9</text><line stroke-linecap="butt"
                  fill="none" x1="91.9554" x2="91.9554" y1="75.4016"
                  stroke-linejoin="bevel" y2="155.7638" stroke-width="0.8504"/>
            <path d="M92.3806 75.4016 L98 75.4016 L98 76.252 L92.3806 76.252 Z"
                  stroke="none"/>
            <text x="62.4627" xml:space="preserve" y="70.2283" stroke="none">NT1.13</text><line stroke-linecap="butt"
                  fill="none" x1="98.0335" x2="98.0335" y1="47.3386"
                  stroke-linejoin="bevel" y2="104.315" stroke-width="0.8504"/>
            <path d="M98.4587 47.3386 L106 47.3386 L106 48.189 L98.4587 48.189 Z"
                  stroke="none"/>
            <text x="70.4604" xml:space="preserve" y="42.1654" stroke="none">NT1.20</text><line stroke-linecap="butt"
                  fill="none" x1="106.0048" x2="106.0048" y1="33.3071"
                  stroke-linejoin="bevel" y2="62.2205" stroke-width="0.8504"/>
            <path d="M106.43 33.3071 L109.7646 33.3071 L109.7646 34.1575 L106.43 34.1575 Z"
                  stroke="none"/>
            <text x="112.5992" xml:space="preserve" font-size="14" y="38.2283"
                  stroke="none">AJ295143</text><path d="M106.43 61.3701 L110 61.3701 L110 62.2205 L106.43 62.2205 Z"
                  stroke="none"/>
            <text x="75.9201" xml:space="preserve" y="56.1968" stroke="none">NT1.21</text><line stroke-linecap="butt"
                  fill="none" x1="110.0901" x2="110.0901" y1="52.0157"
                  stroke-linejoin="bevel" y2="71.5748" stroke-width="0.8504"/>
            <path d="M110.5153 52.0158 L119.2305 52.0158 L119.2305 52.8661 L110.5153 52.8661 Z"
                  stroke="none"/>
            <text x="122.0651" xml:space="preserve" font-size="14" y="56.937"
                  stroke="none">AY373448</text><path d="M110.5153 70.7244 L125.0097 70.7244 L125.0097 71.5748 L110.5153 71.5748 Z"
                  stroke="none"/>
            <text x="127.8443" xml:space="preserve" font-size="14" y="75.6457"
                  stroke="none">AJ277205</text><path d="M98.4587 103.4646 L114 103.4646 L114 104.315 L98.4587 104.315 Z"
                  stroke="none"/>
            <text x="78.8303" xml:space="preserve" y="98.2913" stroke="none">NT1.24</text><line stroke-linecap="butt"
                  fill="none" x1="114.3747" x2="114.3747" y1="89.4331"
                  stroke-linejoin="bevel" y2="118.3465" stroke-width="0.8504"/>
            <path d="M114.7999 89.4331 L126.4046 89.4331 L126.4046 90.2835 L114.7999 90.2835 Z"
                  stroke="none"/>
            <text x="129.2393" xml:space="preserve" font-size="14" y="94.3543"
                  stroke="none">X87219</text><path d="M114.7999 117.4961 L120 117.4961 L120 118.3464 L114.7999 118.3464 Z"
                  stroke="none"/>
            <text x="83.8327" xml:space="preserve" y="112.3228" stroke="none">NT1.25</text><line stroke-linecap="butt"
                  fill="none" x1="119.4564" x2="119.4564" y1="108.1417"
                  stroke-linejoin="bevel" y2="127.7008" stroke-width="0.8504"/>
            <path d="M119.8816 108.1417 L124.2126 108.1417 L124.2126 108.9921 L119.8816 108.9921 Z"
                  stroke="none"/>
            <text x="127.0472" xml:space="preserve" font-size="14" y="113.063"
                  stroke="none">ABOZ1386</text><path d="M119.8816 126.8504 L125.209 126.8504 L125.209 127.7008 L119.8816 127.7008 Z"
                  stroke="none"/>
            <text x="128.0436" xml:space="preserve" font-size="14" y="131.7717"
                  stroke="none">AB105159</text><path d="M92.3806 154.9134 L101 154.9134 L101 155.7638 L92.3806 155.7638 Z"
                  stroke="none"/>
            <text x="65.5516" xml:space="preserve" y="149.7402" stroke="none">NT1.16</text><line stroke-linecap="butt"
                  fill="none" x1="101.1224" x2="101.1224" y1="145.5591"
                  stroke-linejoin="bevel" y2="165.1181" stroke-width="0.8504"/>
            <path d="M101.5476 145.5591 L101.7932 145.5591 L101.7932 146.4095 L101.5476 146.4095 Z"
                  stroke="none"/>
            <text x="104.6279" xml:space="preserve" font-size="14" y="150.4803"
                  stroke="none">AJ295144</text><path d="M101.5476 164.2677 L101.7932 164.2677 L101.7932 165.1181 L101.5476 165.1181 Z"
                  stroke="none"/>
            <text x="104.6279" xml:space="preserve" font-size="14" y="169.189"
                  stroke="none">AJ295146</text><path d="M63.1857 255.1801 L74 255.1801 L74 256.0305 L63.1857 256.0305 Z"
                  stroke="none"/>
            <text x="44.0706" xml:space="preserve" y="250.0069" stroke="none">NT1.3</text><line stroke-linecap="butt"
                  fill="none" x1="73.7211" x2="73.7211" y1="201.1004"
                  stroke-linejoin="bevel" y2="310.1102" stroke-width="0.8504"/>
            <path d="M74.1463 201.1004 L81 201.1004 L81 201.9508 L74.1463 201.9508 Z"
                  stroke="none"/>
            <text x="51.1919" xml:space="preserve" y="195.9272" stroke="none">NT1.5</text><line stroke-linecap="butt"
                  fill="none" x1="80.8952" x2="80.8952" y1="182.9764"
                  stroke-linejoin="bevel" y2="220.0748" stroke-width="0.8504"/>
            <path d="M81.3204 182.9764 L113.1523 182.9764 L113.1523 183.8268 L81.3204 183.8268 Z"
                  stroke="none"/>
            <text x="115.987" xml:space="preserve" font-size="14" y="187.8976"
                  stroke="none">L42619</text><path d="M81.3204 219.2244 L86 219.2244 L86 220.0748 L81.3204 220.0748 Z"
                  stroke="none"/>
            <text x="55.8283" xml:space="preserve" y="214.0512" stroke="none">NT1.7</text><line stroke-linecap="butt"
                  fill="none" x1="85.4787" x2="85.4787" y1="201.6851"
                  stroke-linejoin="bevel" y2="237.6142" stroke-width="0.8504"/>
            <path d="M85.9039 201.6851 L95.0176 201.6851 L95.0176 202.5355 L85.9039 202.5355 Z"
                  stroke="none"/>
            <text x="97.8523" xml:space="preserve" font-size="14" y="206.6063"
                  stroke="none">AY268080</text><path d="M85.9039 236.7638 L90 236.7638 L90 237.6142 L85.9039 237.6142 Z"
                  stroke="none"/>
            <text x="59.9003" xml:space="preserve" y="231.5906" stroke="none">NT1.8</text><line stroke-linecap="butt"
                  fill="none" x1="89.564" x2="89.564" y1="220.3938"
                  stroke-linejoin="bevel" y2="253.9843" stroke-width="0.8504"/>
            <path d="M89.9892 220.3938 L100.6972 220.3938 L100.6972 221.2442 L89.9892 221.2442 Z"
                  stroke="none"/>
            <text x="103.5319" xml:space="preserve" font-size="14" y="225.315"
                  stroke="none">L42616</text><path d="M89.9892 253.1339 L98 253.1339 L98 253.9843 L89.9892 253.9843 Z"
                  stroke="none"/>
            <text x="61.9309" xml:space="preserve" y="247.9607" stroke="none">NT1.12</text><line stroke-linecap="butt"
                  fill="none" x1="97.4357" x2="97.4357" y1="239.1024"
                  stroke-linejoin="bevel" y2="268.0158" stroke-width="0.8504"/>
            <path d="M97.8609 239.1024 L119.2305 239.1024 L119.2305 239.9528 L97.8609 239.9528 Z"
                  stroke="none"/>
            <text x="122.0651" xml:space="preserve" font-size="14" y="244.0237"
                  stroke="none">M93353</text><path d="M97.8609 267.1654 L121 267.1654 L121 268.0158 L97.8609 268.0158 Z"
                  stroke="none"/>
            <text x="85.3669" xml:space="preserve" y="261.9922" stroke="none">NT1.28</text><line stroke-linecap="butt"
                  fill="none" x1="120.951" x2="120.951" y1="257.8111"
                  stroke-linejoin="bevel" y2="277.3701" stroke-width="0.8504"/>
            <path d="M121.3762 257.8111 L123.2161 257.8111 L123.2161 258.6615 L121.3762 258.6615 Z"
                  stroke="none"/>
            <text x="126.0508" xml:space="preserve" font-size="14" y="262.7324"
                  stroke="none">X87218</text><path d="M121.3762 276.5198 L126.305 276.5198 L126.305 277.3702 L121.3762 277.3702 Z"
                  stroke="none"/>
            <text x="129.1396" xml:space="preserve" font-size="14" y="281.441"
                  stroke="none">X67023</text><path d="M74.1463 309.2599 L77 309.2599 L77 310.1103 L74.1463 310.1103 Z"
                  stroke="none"/>
            <text x="47.0863" xml:space="preserve" y="304.0866" stroke="none">NT1.4</text><line stroke-linecap="butt"
                  fill="none" x1="76.7103" x2="76.7103" y1="295.2284"
                  stroke-linejoin="bevel" y2="324.1418" stroke-width="0.8504"/>
            <path d="M77.1355 295.2284 L94.918 295.2284 L94.918 296.0788 L77.1355 296.0788 Z"
                  stroke="none"/>
            <text x="97.7527" xml:space="preserve" font-size="14" y="300.1496"
                  stroke="none">X92417</text><path d="M77.1355 323.2914 L84 323.2914 L84 324.1418 L77.1355 324.1418 Z"
                  stroke="none"/>
            <text x="54.0347" xml:space="preserve" y="318.1181" stroke="none">NT1.6</text><line stroke-linecap="butt"
                  fill="none" x1="83.6852" x2="83.6852" y1="313.937"
                  stroke-linejoin="bevel" y2="333.4961" stroke-width="0.8504"/>
            <path d="M84.1104 313.937 L100.4979 313.937 L100.4979 314.7874 L84.1104 314.7874 Z"
                  stroke="none"/>
            <text x="103.3326" xml:space="preserve" font-size="14" y="318.8583"
                  stroke="none">X93493</text><path d="M84.1104 332.6457 L102.1918 332.6457 L102.1918 333.4961 L84.1104 333.4961 Z"
                  stroke="none"/>
            <text x="105.0265" xml:space="preserve" font-size="14" y="337.567"
                  stroke="none">AJ320530</text>
        </g>
    </g>
</svg>
