<?xml version="1.0"?>
<!DOCTYPE svg PUBLIC '-//W3C//DTD SVG 1.0//EN'
    'http://www.w3.org/TR/2001/REC-SVG-20010904/DTD/svg10.dtd' >

<svg fill-opacity="1" xmlns:xlink="http://www.w3.org/1999/xlink"
     color-rendering="auto" color-interpolation="auto" stroke="black"
     text-rendering="auto" stroke-linecap="square" stroke-miterlimit="10"
     stroke-opacity="1" shape-rendering="auto" fill="black"
     stroke-dasharray="none" font-weight="normal" stroke-width="1"
     xmlns="http://www.w3.org/2000/svg" font-family="&apos;Dialog&apos;"
     font-style="normal" stroke-linejoin="miter" font-size="12"
     stroke-dashoffset="0" image-rendering="auto">
    <!--Generated by the Batik Graphics2D SVG Generator-->
    <defs id="genericDefs"/>
    <g>
        <g fill="white" stroke="white">
            <rect x="0" width="201" height="336" y="0" stroke="none"/>
            <path fill="black"
                  d="M5 115.4365 L44 115.4365 L44 116.2869 L5 116.2869 Z"
                  stroke="none"/>
        </g>
        <g font-family="&apos;Arial&apos;" font-size="9">
            <text x="8.5039" xml:space="preserve" y="110.2633" stroke="none">NT1.33</text><line stroke-linecap="butt"
                  fill="none" x1="44.0748" x2="44.0748" y1="14.5984"
                  stroke-linejoin="bevel" y2="216.2746" stroke-width="0.8504"/>
            <path d="M44.5 14.5984 L114.8948 14.5984 L114.8948 15.4488 L44.5 15.4488 Z"
                  stroke="none"/>
            <text x="117.7295" xml:space="preserve" font-size="14" y="19.5197"
                  stroke="none">AY226510</text><path d="M44.5 215.4242 L63 215.4242 L63 216.2746 L44.5 216.2746 Z"
                  stroke="none"/>
            <text x="34.9264" xml:space="preserve" y="210.251" stroke="none">NT1.1</text><line stroke-linecap="butt"
                  fill="none" x1="63.1761" x2="63.1761" y1="148.4823"
                  stroke-linejoin="bevel" y2="283.2166" stroke-width="0.8504"/>
            <path d="M63.6013 148.4823 L70 148.4823 L70 149.3327 L63.6013 149.3327 Z"
                  stroke="none"/>
            <text x="40.2247" xml:space="preserve" y="143.3091" stroke="none">NT1.3</text><line stroke-linecap="butt"
                  fill="none" x1="69.8751" x2="69.8751" y1="104.6339"
                  stroke-linejoin="bevel" y2="193.1811" stroke-width="0.8504"/>
            <path d="M70.3003 104.6339 L75 104.6339 L75 105.4842 L70.3003 105.4842 Z"
                  stroke="none"/>
            <text x="45.1508" xml:space="preserve" y="99.4606" stroke="none">NT1.5</text><line stroke-linecap="butt"
                  fill="none" x1="74.8541" x2="74.8541" y1="54.3543"
                  stroke-linejoin="bevel" y2="155.7638" stroke-width="0.8504"/>
            <path d="M75.2793 54.3543 L82 54.3543 L82 55.2047 L75.2793 55.2047 Z"
                  stroke="none"/>
            <text x="52.5364" xml:space="preserve" y="49.1811" stroke="none">NT1.7</text><line stroke-linecap="butt"
                  fill="none" x1="82.1869" x2="82.1869" y1="33.3071"
                  stroke-linejoin="bevel" y2="76.252" stroke-width="0.8504"/>
            <path d="M82.6121 33.3071 L93.3492 33.3071 L93.3492 34.1575 L82.6121 34.1575 Z"
                  stroke="none"/>
            <text x="96.1839" xml:space="preserve" font-size="14" y="38.2283"
                  stroke="none">AF275710</text><path d="M82.6121 75.4016 L84 75.4016 L84 76.252 L82.6121 76.252 Z"
                  stroke="none"/>
            <text x="54.3338" xml:space="preserve" y="70.2283" stroke="none">NT1.8</text><line stroke-linecap="butt"
                  fill="none" x1="83.9974" x2="83.9974" y1="52.0157"
                  stroke-linejoin="bevel" y2="99.6378" stroke-width="0.8504"/>
            <path d="M84.4226 52.0158 L92.3534 52.0158 L92.3534 52.8661 L84.4226 52.8661 Z"
                  stroke="none"/>
            <text x="95.1881" xml:space="preserve" font-size="14" y="56.937"
                  stroke="none">AY028927</text><path d="M84.4226 98.7874 L85 98.7874 L85 99.6378 L84.4226 99.6378 Z"
                  stroke="none"/>
            <text x="54.7864" xml:space="preserve" y="93.6142" stroke="none">NT1.9</text><line stroke-linecap="butt"
                  fill="none" x1="84.4501" x2="84.4501" y1="80.0787"
                  stroke-linejoin="bevel" y2="118.3465" stroke-width="0.8504"/>
            <path d="M84.8753 80.0787 L88 80.0787 L88 80.9291 L84.8753 80.9291 Z"
                  stroke="none"/>
            <text x="52.6173" xml:space="preserve" y="74.9055" stroke="none">NT1.10</text><line stroke-linecap="butt"
                  fill="none" x1="88.1617" x2="88.1617" y1="70.7244"
                  stroke-linejoin="bevel" y2="90.2835" stroke-width="0.8504"/>
            <path d="M88.5869 70.7244 L89.8186 70.7244 L89.8186 71.5748 L88.5869 71.5748 Z"
                  stroke="none"/>
            <text x="92.6533" xml:space="preserve" font-size="14" y="75.6457"
                  stroke="none">X94559</text><path d="M88.5869 89.4331 L101.3156 89.4331 L101.3156 90.2835 L88.5869 90.2835 Z"
                  stroke="none"/>
            <text x="104.1503" xml:space="preserve" font-size="14" y="94.3543"
                  stroke="none">352839.0</text><path d="M84.8753 117.4961 L93 117.4961 L93 118.3464 L84.8753 118.3464 Z"
                  stroke="none"/>
            <text x="57.8282" xml:space="preserve" y="112.3228" stroke="none">NT1.19</text><line stroke-linecap="butt"
                  fill="none" x1="93.4123" x2="93.4123" y1="108.1417"
                  stroke-linejoin="bevel" y2="127.7008" stroke-width="0.8504"/>
            <path d="M93.8375 108.1417 L93.9829 108.1417 L93.9829 108.9921 L93.8375 108.9921 Z"
                  stroke="none"/>
            <text x="96.8176" xml:space="preserve" font-size="14" y="113.063"
                  stroke="none">DQ471329</text><path d="M93.8375 126.8504 L94.4355 126.8504 L94.4355 127.7008 L93.8375 127.7008 Z"
                  stroke="none"/>
            <text x="97.2702" xml:space="preserve" font-size="14" y="131.7717"
                  stroke="none">DQ333949</text><path d="M75.2793 154.9134 L92 154.9134 L92 155.7638 L75.2793 155.7638 Z"
                  stroke="none"/>
            <text x="56.212" xml:space="preserve" y="149.7402" stroke="none">NT1.16</text><line stroke-linecap="butt"
                  fill="none" x1="91.7828" x2="91.7828" y1="145.5591"
                  stroke-linejoin="bevel" y2="165.1181" stroke-width="0.8504"/>
            <path d="M92.208 145.5591 L94.9787 145.5591 L94.9787 146.4095 L92.208 146.4095 Z"
                  stroke="none"/>
            <text x="97.8134" xml:space="preserve" font-size="14" y="150.4803"
                  stroke="none"></text>
            <path d="M92.208 164.2677 L97.7851 164.2677 L97.7851 165.1181 L92.208 165.1181 Z"
                  stroke="none"/>
            <text x="100.6197" xml:space="preserve" font-size="14" y="169.189"
                  stroke="none">AY028926</text><path d="M70.3003 192.3307 L89 192.3307 L89 193.1811 L70.3003 193.1811 Z"
                  stroke="none"/>
            <text x="55.078" xml:space="preserve" y="187.1575" stroke="none">NT1.11</text><line stroke-linecap="butt"
                  fill="none" x1="89.248" x2="89.248" y1="182.9764"
                  stroke-linejoin="bevel" y2="202.5354" stroke-width="0.8504"/>
            <path d="M89.6732 182.9764 L90.4523 182.9764 L90.4523 183.8268 L89.6732 183.8268 Z"
                  stroke="none"/>
            <text x="93.287" xml:space="preserve" font-size="14" y="187.8976"
                  stroke="none">Y15713</text><path d="M89.6732 201.6851 L90.2713 201.6851 L90.2713 202.5355 L89.6732 202.5355 Z"
                  stroke="none"/>
            <text x="93.1059" xml:space="preserve" font-size="14" y="206.6063"
                  stroke="none">Y15714</text><path d="M63.6013 282.3661 L66 282.3661 L66 283.2166 L63.6013 283.2166 Z"
                  stroke="none"/>
            <text x="36.7602" xml:space="preserve" y="277.1929" stroke="none">NT1.2</text><line stroke-linecap="butt"
                  fill="none" x1="66.3446" x2="66.3446" y1="250.7953"
                  stroke-linejoin="bevel" y2="314.7874" stroke-width="0.8504"/>
            <path d="M66.7697 250.7953 L72 250.7953 L72 251.6457 L66.7697 251.6457 Z"
                  stroke="none"/>
            <text x="41.8806" xml:space="preserve" y="245.6221" stroke="none">NT1.4</text><line stroke-linecap="butt"
                  fill="none" x1="71.5046" x2="71.5046" y1="229.748"
                  stroke-linejoin="bevel" y2="272.6929" stroke-width="0.8504"/>
            <path d="M71.9298 229.748 L90 229.748 L90 230.5984 L71.9298 230.5984 Z"
                  stroke="none"/>
            <text x="53.9244" xml:space="preserve" y="224.5748" stroke="none">NT1.12</text><line stroke-linecap="butt"
                  fill="none" x1="89.4291" x2="89.4291" y1="220.3937"
                  stroke-linejoin="bevel" y2="239.9528" stroke-width="0.8504"/>
            <path d="M89.8543 220.3937 L93.8019 220.3937 L93.8019 221.2441 L89.8543 221.2441 Z"
                  stroke="none"/>
            <text x="96.6366" xml:space="preserve" font-size="14" y="225.315"
                  stroke="none"></text>
            <path d="M89.8543 239.1024 L96.9704 239.1024 L96.9704 239.9528 L89.8543 239.9528 Z"
                  stroke="none"/>
            <text x="99.805" xml:space="preserve" font-size="14" y="244.0236"
                  stroke="none"></text>
            <path d="M71.9298 271.8425 L77 271.8425 L77 272.6929 L71.9298 272.6929 Z"
                  stroke="none"/>
            <text x="47.4669" xml:space="preserve" y="266.6693" stroke="none">NT1.6</text><line stroke-linecap="butt"
                  fill="none" x1="77.1174" x2="77.1174" y1="257.811"
                  stroke-linejoin="bevel" y2="286.7244" stroke-width="0.8504"/>
            <path d="M77.5426 257.811 L114.8948 257.811 L114.8948 258.6614 L77.5426 258.6614 Z"
                  stroke="none"/>
            <text x="117.7295" xml:space="preserve" font-size="14" y="262.7323"
                  stroke="none"></text>
            <path d="M77.5426 285.874 L93 285.874 L93 286.7244 L77.5426 286.7244 Z"
                  stroke="none"/>
            <text x="57.6472" xml:space="preserve" y="280.7008" stroke="none">NT1.18</text><line stroke-linecap="butt"
                  fill="none" x1="93.2313" x2="93.2313" y1="276.5197"
                  stroke-linejoin="bevel" y2="296.0788" stroke-width="0.8504"/>
            <path d="M93.6565 276.5197 L97.0609 276.5197 L97.0609 277.3701 L93.6565 277.3701 Z"
                  stroke="none"/>
            <text x="99.8955" xml:space="preserve" font-size="14" y="281.441"
                  stroke="none"></text>
            <path d="M93.6565 295.2284 L100.0483 295.2284 L100.0483 296.0788 L93.6565 296.0788 Z"
                  stroke="none"/>
            <text x="102.8829" xml:space="preserve" font-size="14" y="300.1497"
                  stroke="none">X62174</text><path d="M66.7697 313.937 L106.1136 313.937 L106.1136 314.7874 L66.7697 314.7874 Z"
                  stroke="none"/>
            <text x="108.9483" xml:space="preserve" font-size="14" y="318.8583"
                  stroke="none">D88824</text>
        </g>
    </g>
</svg>
