<?xml version="1.0"?>
<!DOCTYPE svg PUBLIC '-//W3C//DTD SVG 1.0//EN'
    'http://www.w3.org/TR/2001/REC-SVG-20010904/DTD/svg10.dtd' >

<svg fill-opacity="1" xmlns:xlink="http://www.w3.org/1999/xlink"
     color-rendering="auto" color-interpolation="auto" stroke="black"
     text-rendering="auto" stroke-linecap="square" stroke-miterlimit="10"
     stroke-opacity="1" shape-rendering="auto" fill="black"
     stroke-dasharray="none" font-weight="normal" stroke-width="1"
     xmlns="http://www.w3.org/2000/svg" font-family="&apos;Dialog&apos;"
     font-style="normal" stroke-linejoin="miter" font-size="12"
     stroke-dashoffset="0" image-rendering="auto">
    <!--Generated by the Batik Graphics2D SVG Generator-->
    <defs id="genericDefs"/>
    <g>
        <g fill="white" stroke="white">
            <rect x="0" width="187" height="279" y="0" stroke="none"/>
            <path fill="black"
                  d="M5 88.5428 L44 88.5428 L44 89.3932 L5 89.3932 Z"
                  stroke="none"/>
        </g>
        <g font-family="&apos;Arial&apos;" font-size="9">
            <text x="8.5039" xml:space="preserve" y="83.3696" stroke="none">NT1.27</text><line stroke-linecap="butt"
                  fill="none" x1="44.0748" x2="44.0748" y1="14.5984"
                  stroke-linejoin="bevel" y2="162.4872" stroke-width="0.8504"/>
            <path d="M44.5 14.5984 L79.9952 14.5984 L79.9952 15.4488 L44.5 15.4488 Z"
                  stroke="none"/>
            <text x="82.8298" xml:space="preserve" font-size="14" y="19.5197"
                  stroke="none"></text>
            <path d="M44.5 161.6368 L46 161.6368 L46 162.4872 L44.5 162.4872 Z"
                  stroke="none"/>
            <text x="17.602" xml:space="preserve" y="156.4636" stroke="none">NT1.1</text><line stroke-linecap="butt"
                  fill="none" x1="45.8517" x2="45.8517" y1="74.8169"
                  stroke-linejoin="bevel" y2="249.3071" stroke-width="0.8504"/>
            <path d="M46.2768 74.8169 L57 74.8169 L57 75.6673 L46.2768 75.6673 Z"
                  stroke="none"/>
            <text x="26.8479" xml:space="preserve" y="69.6437" stroke="none">NT1.2</text><line stroke-linecap="butt"
                  fill="none" x1="56.4323" x2="56.4323" y1="33.3071"
                  stroke-linejoin="bevel" y2="117.1772" stroke-width="0.8504"/>
            <path d="M56.8574 33.3071 L91.3027 33.3071 L91.3027 34.1575 L56.8574 34.1575 Z"
                  stroke="none"/>
            <text x="94.1373" xml:space="preserve" font-size="14" y="38.2283"
                  stroke="none">M62788</text><path d="M56.8574 116.3268 L59 116.3268 L59 117.1772 L56.8574 117.1772 Z"
                  stroke="none"/>
            <text x="29.4471" xml:space="preserve" y="111.1535" stroke="none">NT1.3</text><line stroke-linecap="butt"
                  fill="none" x1="59.0976" x2="59.0976" y1="69.5551"
                  stroke-linejoin="bevel" y2="163.9488" stroke-width="0.8504"/>
            <path d="M59.5228 69.5551 L63 69.5551 L63 70.4055 L59.5228 70.4055 Z"
                  stroke="none"/>
            <text x="33.1081" xml:space="preserve" y="64.3819" stroke="none">NT1.4</text><line stroke-linecap="butt"
                  fill="none" x1="62.7322" x2="62.7322" y1="52.0157"
                  stroke-linejoin="bevel" y2="87.9449" stroke-width="0.8504"/>
            <path d="M63.1574 52.0158 L86.5374 52.0158 L86.5374 52.8661 L63.1574 52.8661 Z"
                  stroke="none"/>
            <text x="89.372" xml:space="preserve" font-size="14" y="56.937"
                  stroke="none"></text>
            <path d="M63.1574 87.0945 L74 87.0945 L74 87.9449 L63.1574 87.9449 Z"
                  stroke="none"/>
            <text x="44.3892" xml:space="preserve" y="81.9213" stroke="none">NT1.7</text><line stroke-linecap="butt"
                  fill="none" x1="74.0397" x2="74.0397" y1="70.7244"
                  stroke-linejoin="bevel" y2="104.315" stroke-width="0.8504"/>
            <path d="M74.4649 70.7244 L89.7681 70.7244 L89.7681 71.5748 L74.4649 71.5748 Z"
                  stroke="none"/>
            <text x="92.6027" xml:space="preserve" font-size="14" y="75.6457"
                  stroke="none"></text>
            <path d="M74.4649 103.4646 L87 103.4646 L87 104.3149 L74.4649 104.3149 Z"
                  stroke="none"/>
            <text x="51.7412" xml:space="preserve" y="98.2913" stroke="none">NT1.14</text><line stroke-linecap="butt"
                  fill="none" x1="87.2857" x2="87.2857" y1="89.4331"
                  stroke-linejoin="bevel" y2="118.3465" stroke-width="0.8504"/>
            <path d="M87.7109 89.4331 L87.4258 89.4331 L87.4258 90.2835 L87.7109 90.2835 Z"
                  stroke="none"/>
            <text x="90.2605" xml:space="preserve" font-size="14" y="94.3543"
                  stroke="none"></text>
            <path d="M87.7109 117.4961 L89 117.4961 L89 118.3464 L87.7109 118.3464 Z"
                  stroke="none"/>
            <text x="53.0071" xml:space="preserve" y="112.3228" stroke="none">NT1.16</text><line stroke-linecap="butt"
                  fill="none" x1="88.5779" x2="88.5779" y1="108.1417"
                  stroke-linejoin="bevel" y2="127.7008" stroke-width="0.8504"/>
            <path d="M89.0031 108.1417 L88.7181 108.1417 L88.7181 108.9921 L89.0031 108.9921 Z"
                  stroke="none"/>
            <text x="91.5528" xml:space="preserve" font-size="14" y="113.063"
                  stroke="none">A3284517</text><path d="M89.0031 126.8504 L89.2027 126.8504 L89.2027 127.7008 L89.0031 127.7008 Z"
                  stroke="none"/>
            <text x="92.0374" xml:space="preserve" font-size="14" y="131.7716"
                  stroke="none">A3265192</text><path d="M59.5228 163.0984 L67 163.0984 L67 163.9489 L59.5228 163.9489 Z"
                  stroke="none"/>
            <text x="37.148" xml:space="preserve" y="157.9252" stroke="none">NT1.5</text><line stroke-linecap="butt"
                  fill="none" x1="66.8513" x2="66.8513" y1="145.5591"
                  stroke-linejoin="bevel" y2="181.4882" stroke-width="0.8504"/>
            <path d="M67.2765 145.5591 L94.8564 145.5591 L94.8564 146.4095 L67.2765 146.4095 Z"
                  stroke="none"/>
            <text x="97.6911" xml:space="preserve" font-size="14" y="150.4803"
                  stroke="none">ABZ76355</text><path d="M67.2765 180.6378 L86 180.6378 L86 181.4882 L67.2765 181.4882 Z"
                  stroke="none"/>
            <text x="51.9041" xml:space="preserve" y="175.4646" stroke="none">NT1.11</text><line stroke-linecap="butt"
                  fill="none" x1="86.0741" x2="86.0741" y1="164.2677"
                  stroke-linejoin="bevel" y2="197.8583" stroke-width="0.8504"/>
            <path d="M86.4993 164.2677 L96.7949 164.2677 L96.7949 165.1181 L86.4993 165.1181 Z"
                  stroke="none"/>
            <text x="99.6296" xml:space="preserve" font-size="14" y="169.189"
                  stroke="none"></text>
            <path d="M86.4993 197.0079 L87 197.0079 L87 197.8583 L86.4993 197.8583 Z"
                  stroke="none"/>
            <text x="51.634" xml:space="preserve" y="191.8347" stroke="none">NT1.13</text><line stroke-linecap="butt"
                  fill="none" x1="87.2049" x2="87.2049" y1="182.9764"
                  stroke-linejoin="bevel" y2="211.8898" stroke-width="0.8504"/>
            <path d="M87.6301 182.9764 L98.0064 182.9764 L98.0064 183.8268 L87.6301 183.8268 Z"
                  stroke="none"/>
            <text x="100.8411" xml:space="preserve" font-size="14" y="187.8976"
                  stroke="none">ABZS1933</text><path d="M87.6301 211.0394 L89 211.0394 L89 211.8898 L87.6301 211.8898 Z"
                  stroke="none"/>
            <text x="53.7208" xml:space="preserve" y="205.8662" stroke="none">NT1.18</text><line stroke-linecap="butt"
                  fill="none" x1="89.3048" x2="89.3048" y1="201.6851"
                  stroke-linejoin="bevel" y2="221.2441" stroke-width="0.8504"/>
            <path d="M89.73 201.6851 L94.7757 201.6851 L94.7757 202.5355 L89.73 202.5355 Z"
                  stroke="none"/>
            <text x="97.6104" xml:space="preserve" font-size="14" y="206.6063"
                  stroke="none"></text>
            <path d="M89.73 220.3938 L102.2064 220.3938 L102.2064 221.2442 L89.73 221.2442 Z"
                  stroke="none"/>
            <text x="105.041" xml:space="preserve" font-size="14" y="225.315"
                  stroke="none"></text>
            <path d="M46.2768 248.4567 L72 248.4567 L72 249.3071 L46.2768 249.3071 Z"
                  stroke="none"/>
            <text x="42.4508" xml:space="preserve" y="243.2835" stroke="none">NT1.6</text><line stroke-linecap="butt"
                  fill="none" x1="72.1012" x2="72.1012" y1="239.1024"
                  stroke-linejoin="bevel" y2="258.6614" stroke-width="0.8504"/>
            <path d="M72.5264 239.1024 L76.4414 239.1024 L76.4414 239.9528 L72.5264 239.9528 Z"
                  stroke="none"/>
            <text x="79.276" xml:space="preserve" font-size="14" y="244.0236"
                  stroke="none"></text>
            <path d="M72.5264 257.8111 L76.5221 257.8111 L76.5221 258.6615 L72.5264 258.6615 Z"
                  stroke="none"/>
            <text x="79.3568" xml:space="preserve" font-size="14" y="262.7323"
                  stroke="none"></text>
        </g>
    </g>
</svg>
