<?xml version="1.0"?>
<!DOCTYPE svg PUBLIC '-//W3C//DTD SVG 1.0//EN'
    'http://www.w3.org/TR/2001/REC-SVG-20010904/DTD/svg10.dtd' >

<svg fill-opacity="1" xmlns:xlink="http://www.w3.org/1999/xlink"
     color-rendering="auto" color-interpolation="auto" stroke="black"
     text-rendering="auto" stroke-linecap="square" stroke-miterlimit="10"
     stroke-opacity="1" shape-rendering="auto" fill="black"
     stroke-dasharray="none" font-weight="normal" stroke-width="1"
     xmlns="http://www.w3.org/2000/svg" font-family="&apos;Dialog&apos;"
     font-style="normal" stroke-linejoin="miter" font-size="12"
     stroke-dashoffset="0" image-rendering="auto">
    <!--Generated by the Batik Graphics2D SVG Generator-->
    <defs id="genericDefs"/>
    <g>
        <g fill="white" stroke="white">
            <rect x="0" width="166" height="223" y="0" stroke="none"/>
            <path fill="black" d="M5 48.4946 L43 48.4946 L43 49.345 L5 49.345 Z"
                  stroke="none"/>
        </g>
        <g font-family="&apos;Arial&apos;" font-size="9">
            <text x="8.5039" xml:space="preserve" y="43.3214" stroke="none">NT1.21</text><line stroke-linecap="butt"
                  fill="none" x1="42.674" x2="42.674" y1="14.5984"
                  stroke-linejoin="bevel" y2="82.3907" stroke-width="0.8504"/>
            <path d="M43.0992 14.5984 L84.2952 14.5984 L84.2952 15.4488 L43.0992 15.4488 Z"
                  stroke="none"/>
            <text x="87.1298" xml:space="preserve" font-size="14" y="19.5197"
                  stroke="none">X80736</text><path d="M43.0992 81.5404 L48 81.5404 L48 82.3907 L43.0992 82.3907 Z"
                  stroke="none"/>
            <text x="19.2068" xml:space="preserve" y="76.3671" stroke="none">NT1.1</text><line stroke-linecap="butt"
                  fill="none" x1="47.4565" x2="47.4565" y1="33.3071"
                  stroke-linejoin="bevel" y2="130.624" stroke-width="0.8504"/>
            <path d="M47.8817 33.3071 L72.9367 33.3071 L72.9367 34.1575 L47.8817 34.1575 Z"
                  stroke="none"/>
            <text x="75.7713" xml:space="preserve" font-size="14" y="38.2283"
                  stroke="none">AJ558133</text><path d="M47.8817 129.7736 L54 129.7736 L54 130.624 L47.8817 130.624 Z"
                  stroke="none"/>
            <text x="24.5477" xml:space="preserve" y="124.6004" stroke="none">NT1.2</text><line stroke-linecap="butt"
                  fill="none" x1="54.1321" x2="54.1321" y1="81.248"
                  stroke-linejoin="bevel" y2="179.1496" stroke-width="0.8504"/>
            <path d="M54.5573 81.248 L57 81.248 L57 82.0984 L54.5573 82.0984 Z"
                  stroke="none"/>
            <text x="27.5704" xml:space="preserve" y="76.0748" stroke="none">NT1.3</text><line stroke-linecap="butt"
                  fill="none" x1="57.2208" x2="57.2208" y1="52.0157"
                  stroke-linejoin="bevel" y2="111.3307" stroke-width="0.8504"/>
            <path d="M57.646 52.0158 L76.125 52.0158 L76.125 52.8661 L57.646 52.8661 Z"
                  stroke="none"/>
            <text x="78.9597" xml:space="preserve" font-size="14" y="56.937"
                  stroke="none">Y08539</text><path d="M57.646 110.4803 L65 110.4803 L65 111.3307 L57.646 111.3307 Z"
                  stroke="none"/>
            <text x="35.0431" xml:space="preserve" y="105.3071" stroke="none">NT1.6</text><line stroke-linecap="butt"
                  fill="none" x1="64.6935" x2="64.6935" y1="84.7559"
                  stroke-linejoin="bevel" y2="137.0551" stroke-width="0.8504"/>
            <path d="M65.1187 84.7559 L72 84.7559 L72 85.6063 L65.1187 85.6063 Z"
                  stroke="none"/>
            <text x="42.2036" xml:space="preserve" y="79.5827" stroke="none">NT1.8</text><line stroke-linecap="butt"
                  fill="none" x1="71.8673" x2="71.8673" y1="70.7244"
                  stroke-linejoin="bevel" y2="99.6378" stroke-width="0.8504"/>
            <path d="M72.2925 70.7244 L74.7301 70.7244 L74.7301 71.5748 L72.2925 71.5748 Z"
                  stroke="none"/>
            <text x="77.5648" xml:space="preserve" font-size="14" y="75.6457"
                  stroke="none">X83812</text><path d="M72.2925 98.7874 L73 98.7874 L73 99.6378 L72.2925 99.6378 Z"
                  stroke="none"/>
            <text x="42.8015" xml:space="preserve" y="93.6142" stroke="none">NT1.9</text><line stroke-linecap="butt"
                  fill="none" x1="72.4651" x2="72.4651" y1="89.4331"
                  stroke-linejoin="bevel" y2="108.9921" stroke-width="0.8504"/>
            <path d="M72.8903 89.4331 L78.4166 89.4331 L78.4166 90.2835 L72.8903 90.2835 Z"
                  stroke="none"/>
            <text x="81.2513" xml:space="preserve" font-size="14" y="94.3543"
                  stroke="none">EF212039</text><path d="M72.8903 108.1417 L76.8225 108.1417 L76.8225 108.9921 L72.8903 108.9921 Z"
                  stroke="none"/>
            <text x="79.6571" xml:space="preserve" font-size="14" y="113.063"
                  stroke="none">AY944176</text><path d="M65.1187 136.2047 L68 136.2047 L68 137.0551 L65.1187 137.0551 Z"
                  stroke="none"/>
            <text x="38.2314" xml:space="preserve" y="131.0315" stroke="none">NT1.7</text><line stroke-linecap="butt"
                  fill="none" x1="67.8819" x2="67.8819" y1="126.8504"
                  stroke-linejoin="bevel" y2="146.4095" stroke-width="0.8504"/>
            <path d="M68.3071 126.8504 L78.0181 126.8504 L78.0181 127.7008 L68.3071 127.7008 Z"
                  stroke="none"/>
            <text x="80.8527" xml:space="preserve" font-size="14" y="131.7717"
                  stroke="none">Y11928</text><path d="M68.3071 145.5591 L82.9999 145.5591 L82.9999 146.4095 L68.3071 146.4095 Z"
                  stroke="none"/>
            <text x="85.8345" xml:space="preserve" font-size="14" y="150.4803"
                  stroke="none">AJ566282</text><path d="M54.5573 178.2992 L59 178.2992 L59 179.1496 L54.5573 179.1496 Z"
                  stroke="none"/>
            <text x="29.6892" xml:space="preserve" y="173.126" stroke="none">NT1.4</text><line stroke-linecap="butt"
                  fill="none" x1="59.3132" x2="59.3132" y1="164.2677"
                  stroke-linejoin="bevel" y2="193.1811" stroke-width="0.8504"/>
            <path d="M59.7384 164.2677 L84.2952 164.2677 L84.2952 165.1181 L59.7384 165.1181 Z"
                  stroke="none"/>
            <text x="87.1298" xml:space="preserve" font-size="14" y="169.189"
                  stroke="none">Y17869</text><path d="M59.7384 192.3307 L63 192.3307 L63 193.1811 L59.7384 193.1811 Z"
                  stroke="none"/>
            <text x="33.1968" xml:space="preserve" y="187.1575" stroke="none">NT1.5</text><line stroke-linecap="butt"
                  fill="none" x1="62.9001" x2="62.9001" y1="182.9764"
                  stroke-linejoin="bevel" y2="202.5354" stroke-width="0.8504"/>
            <path d="M63.3253 182.9764 L75.1287 182.9764 L75.1287 183.8268 L63.3253 183.8268 Z"
                  stroke="none"/>
            <text x="77.9633" xml:space="preserve" font-size="14" y="187.8976"
                  stroke="none">AJ294412</text><path d="M63.3253 201.6851 L81.605 201.6851 L81.605 202.5355 L63.3253 202.5355 Z"
                  stroke="none"/>
            <text x="84.4397" xml:space="preserve" font-size="14" y="206.6063"
                  stroke="none">AF125092</text>
        </g>
    </g>
</svg>
