<?xml version="1.0"?>
<!DOCTYPE svg PUBLIC '-//W3C//DTD SVG 1.0//EN'
    'http://www.w3.org/TR/2001/REC-SVG-20010904/DTD/svg10.dtd' >

<svg fill-opacity="1" xmlns:xlink="http://www.w3.org/1999/xlink"
     color-rendering="auto" color-interpolation="auto" stroke="black"
     text-rendering="auto" stroke-linecap="square" stroke-miterlimit="10"
     stroke-opacity="1" shape-rendering="auto" fill="black"
     stroke-dasharray="none" font-weight="normal" stroke-width="1"
     xmlns="http://www.w3.org/2000/svg" font-family="&apos;Dialog&apos;"
     font-style="normal" stroke-linejoin="miter" font-size="12"
     stroke-dashoffset="0" image-rendering="auto">
    <!--Generated by the Batik Graphics2D SVG Generator-->
    <defs id="genericDefs"/>
    <g>
        <g fill="white" stroke="white">
            <rect x="0" width="326" height="766" y="0" stroke="none"/>
            <path fill="black"
                  d="M5 321.9444 L44 321.9444 L44 322.7948 L5 322.7948 Z"
                  stroke="none"/>
        </g>
        <g font-family="&apos;Arial&apos;" font-size="9">
            <text x="8.5039" xml:space="preserve" y="316.7711" stroke="none">NT1.77</text><line stroke-linecap="butt"
                  fill="none" x1="44.0748" x2="44.0748" y1="14.5984"
                  stroke-linejoin="bevel" y2="629.2903" stroke-width="0.8504"/>
            <path d="M44.5 14.5984 L81.575 14.5984 L81.575 15.4488 L44.5 15.4488 Z"
                  stroke="none"/>
            <text x="84.4097" xml:space="preserve" font-size="14" y="19.5197"
                  stroke="none">AY268172</text><path d="M44.5 628.4399 L61 628.4399 L61 629.2903 L44.5 629.2903 Z"
                  stroke="none"/>
            <text x="32.8091" xml:space="preserve" y="623.2667" stroke="none">NT1.1</text><line stroke-linecap="butt"
                  fill="none" x1="61.0588" x2="61.0588" y1="547.7223"
                  stroke-linejoin="bevel" y2="710.008" stroke-width="0.8504"/>
            <path d="M61.484 547.7223 L63 547.7223 L63 548.5726 L61.484 548.5726 Z"
                  stroke="none"/>
            <text x="33.4531" xml:space="preserve" y="542.5491" stroke="none">NT1.2</text><line stroke-linecap="butt"
                  fill="none" x1="63.0375" x2="63.0375" y1="454.1058"
                  stroke-linejoin="bevel" y2="642.189" stroke-width="0.8504"/>
            <path d="M63.4627 454.1059 L68 454.1059 L68 454.9563 L63.4627 454.9563 Z"
                  stroke="none"/>
            <text x="38.1954" xml:space="preserve" y="448.9326" stroke="none">NT1.4</text><line stroke-linecap="butt"
                  fill="none" x1="67.8194" x2="67.8194" y1="344.0463"
                  stroke-linejoin="bevel" y2="565.0158" stroke-width="0.8504"/>
            <path d="M68.2446 344.0463 L71 344.0463 L71 344.8967 L68.2446 344.8967 Z"
                  stroke="none"/>
            <text x="41.5789" xml:space="preserve" y="338.8731" stroke="none">NT1.5</text><line stroke-linecap="butt"
                  fill="none" x1="71.2822" x2="71.2822" y1="264.2422"
                  stroke-linejoin="bevel" y2="424.7008" stroke-width="0.8504"/>
            <path d="M71.7074 264.2422 L79 264.2422 L79 265.0926 L71.7074 265.0926 Z"
                  stroke="none"/>
            <text x="49.2036" xml:space="preserve" y="259.0689" stroke="none">NT1.8</text><line stroke-linecap="butt"
                  fill="none" x1="78.8673" x2="78.8673" y1="172.4528"
                  stroke-linejoin="bevel" y2="356.8819" stroke-width="0.8504"/>
            <path d="M79.2925 172.4528 L88 172.4528 L88 173.3032 L79.2925 173.3032 Z"
                  stroke="none"/>
            <text x="52.3656" xml:space="preserve" y="167.2795" stroke="none">NT1.16</text><line stroke-linecap="butt"
                  fill="none" x1="87.9364" x2="87.9364" y1="88.2638"
                  stroke-linejoin="bevel" y2="257.4922" stroke-width="0.8504"/>
            <path d="M88.3617 88.2638 L95 88.2638 L95 89.1142 L88.3617 89.1142 Z"
                  stroke="none"/>
            <text x="59.1262" xml:space="preserve" y="83.0906" stroke="none">NT1.23</text><line stroke-linecap="butt"
                  fill="none" x1="94.6971" x2="94.6971" y1="33.3071"
                  stroke-linejoin="bevel" y2="144.0709" stroke-width="0.8504"/>
            <path d="M95.1223 33.3071 L120.4899 33.3071 L120.4899 34.1575 L95.1223 34.1575 Z"
                  stroke="none"/>
            <text x="123.3246" xml:space="preserve" font-size="14" y="38.2284"
                  stroke="none">B.xenovoransLB400T</text><path d="M95.1223 143.2205 L97 143.2205 L97 144.0709 L95.1223 144.0709 Z"
                  stroke="none"/>
            <text x="61.4348" xml:space="preserve" y="138.0473" stroke="none">NT1.27</text><line stroke-linecap="butt"
                  fill="none" x1="97.0056" x2="97.0056" y1="75.4016"
                  stroke-linejoin="bevel" y2="211.8898" stroke-width="0.8504"/>
            <path d="M97.4308 75.4016 L101 75.4016 L101 76.252 L97.4308 76.252 Z"
                  stroke="none"/>
            <text x="66.4632" xml:space="preserve" y="70.2284" stroke="none">NT1.31</text><line stroke-linecap="butt"
                  fill="none" x1="100.6332" x2="100.6332" y1="52.0158"
                  stroke-linejoin="bevel" y2="99.6378" stroke-width="0.8504"/>
            <path d="M101.0585 52.0158 L101.5272 52.0158 L101.5272 52.8662 L101.0585 52.8662 Z"
                  stroke="none"/>
            <text x="104.3619" xml:space="preserve" font-size="14" y="56.937"
                  stroke="none"></text>
            <path d="M101.0585 98.7874 L105 98.7874 L105 99.6378 L101.0585 99.6378 Z"
                  stroke="none"/>
            <text x="69.0859" xml:space="preserve" y="93.6142" stroke="none">NT1.42</text><line stroke-linecap="butt"
                  fill="none" x1="104.5907" x2="104.5907" y1="70.7244"
                  stroke-linejoin="bevel" y2="127.7008" stroke-width="0.8504"/>
            <path d="M105.0159 70.7244 L104.3304 70.7244 L104.3304 71.5748 L105.0159 71.5748 Z"
                  stroke="none"/>
            <text x="107.165" xml:space="preserve" font-size="14" y="75.6457"
                  stroke="none">AJ300693</text><path d="M105.0159 126.8504 L105 126.8504 L105 127.7008 L105.0159 127.7008 Z"
                  stroke="none"/>
            <text x="69.3761" xml:space="preserve" y="121.6772" stroke="none">NT1.44</text><line stroke-linecap="butt"
                  fill="none" x1="104.9205" x2="104.9205" y1="98.7874"
                  stroke-linejoin="bevel" y2="155.7638" stroke-width="0.8504"/>
            <path d="M105.3457 98.7874 L106 98.7874 L106 99.6378 L105.3457 99.6378 Z"
                  stroke="none"/>
            <text x="69.996" xml:space="preserve" y="93.6142" stroke="none">NT1.49</text><line stroke-linecap="butt"
                  fill="none" x1="105.5801" x2="105.5801" y1="89.4331"
                  stroke-linejoin="bevel" y2="108.9922" stroke-width="0.8504"/>
            <path d="M106.0053 89.4331 L105.3198 89.4331 L105.3198 90.2835 L106.0053 90.2835 Z"
                  stroke="none"/>
            <text x="108.1544" xml:space="preserve" font-size="14" y="94.3544"
                  stroke="none"></text>
            <path d="M106.0053 108.1418 L105.3198 108.1418 L105.3198 108.9921 L106.0053 108.9921 Z"
                  stroke="none"/>
            <text x="108.1544" xml:space="preserve" font-size="14" y="113.063"
                  stroke="none"></text>
            <path d="M105.3457 154.9134 L105 154.9134 L105 155.7638 L105.3457 155.7638 Z"
                  stroke="none"/>
            <text x="69.5013" xml:space="preserve" y="149.7402" stroke="none">NT1.48</text><line stroke-linecap="butt"
                  fill="none" x1="105.0854" x2="105.0854" y1="136.2047"
                  stroke-linejoin="bevel" y2="174.4725" stroke-width="0.8504"/>
            <path d="M105.5106 136.2047 L111 136.2047 L111 137.0551 L105.5106 137.0551 Z"
                  stroke="none"/>
            <text x="75.121" xml:space="preserve" y="131.0315" stroke="none">NT1.57</text><line stroke-linecap="butt"
                  fill="none" x1="110.6918" x2="110.6918" y1="126.8504"
                  stroke-linejoin="bevel" y2="146.4095" stroke-width="0.8504"/>
            <path d="M111.117 126.8504 L111.4208 126.8504 L111.4208 127.7008 L111.117 127.7008 Z"
                  stroke="none"/>
            <text x="114.2555" xml:space="preserve" font-size="14" y="131.7717"
                  stroke="none"></text>
            <path d="M111.117 145.5591 L111.9155 145.5591 L111.9155 146.4095 L111.117 146.4095 Z"
                  stroke="none"/>
            <text x="114.7502" xml:space="preserve" font-size="14" y="150.4803"
                  stroke="none">AM489499</text><path d="M105.5106 173.6221 L115 173.6221 L115 174.4725 L105.5106 174.4725 Z"
                  stroke="none"/>
            <text x="79.5731" xml:space="preserve" y="168.4488" stroke="none">NT1.63</text><line stroke-linecap="butt"
                  fill="none" x1="115.1439" x2="115.1439" y1="164.2677"
                  stroke-linejoin="bevel" y2="183.8268" stroke-width="0.8504"/>
            <path d="M115.5691 164.2677 L114.8836 164.2677 L114.8836 165.1181 L115.5691 165.1181 Z"
                  stroke="none"/>
            <text x="117.7182" xml:space="preserve" font-size="14" y="169.189"
                  stroke="none"></text>
            <path d="M115.5691 182.9764 L114.8836 182.9764 L114.8836 183.8268 L115.5691 183.8268 Z"
                  stroke="none"/>
            <text x="117.7182" xml:space="preserve" font-size="14" y="187.8976"
                  stroke="none">AM489501</text><path d="M97.4308 211.0394 L98 211.0394 L98 211.8898 L97.4308 211.8898 Z"
                  stroke="none"/>
            <text x="62.0811" xml:space="preserve" y="205.8662" stroke="none">NT1.28</text><line stroke-linecap="butt"
                  fill="none" x1="97.6652" x2="97.6652" y1="201.6851"
                  stroke-linejoin="bevel" y2="221.2441" stroke-width="0.8504"/>
            <path d="M98.0904 201.6851 L97.4049 201.6851 L97.4049 202.5355 L98.0904 202.5355 Z"
                  stroke="none"/>
            <text x="100.2395" xml:space="preserve" font-size="14" y="206.6063"
                  stroke="none">AY949200</text><path d="M98.0904 220.3938 L128.4048 220.3938 L128.4048 221.2442 L98.0904 221.2442 Z"
                  stroke="none"/>
            <text x="131.2395" xml:space="preserve" font-size="14" y="225.315"
                  stroke="none">ABZO1286</text><path d="M88.3617 256.6418 L96 256.6418 L96 257.4922 L88.3617 257.4922 Z"
                  stroke="none"/>
            <text x="60.0627" xml:space="preserve" y="251.4685" stroke="none">NT1.25</text><line stroke-linecap="butt"
                  fill="none" x1="95.6864" x2="95.6864" y1="239.1024"
                  stroke-linejoin="bevel" y2="275.0315" stroke-width="0.8504"/>
            <path d="M96.1116 239.1024 L108.6176 239.1024 L108.6176 239.9528 L96.1116 239.9528 Z"
                  stroke="none"/>
            <text x="111.4523" xml:space="preserve" font-size="14" y="244.0236"
                  stroke="none">AF215704</text><path d="M96.1116 274.1812 L100 274.1812 L100 275.0316 L96.1116 275.0316 Z"
                  stroke="none"/>
            <text x="64.7591" xml:space="preserve" y="269.0079" stroke="none">NT1.30</text><line stroke-linecap="butt"
                  fill="none" x1="100.3035" x2="100.3035" y1="257.8111"
                  stroke-linejoin="bevel" y2="291.4016" stroke-width="0.8504"/>
            <path d="M100.7287 257.8111 L112.4102 257.8111 L112.4102 258.6615 L100.7287 258.6615 Z"
                  stroke="none"/>
            <text x="115.2448" xml:space="preserve" font-size="14" y="262.7323"
                  stroke="none">AY497470</text><path d="M100.7287 290.5512 L103 290.5512 L103 291.4016 L100.7287 291.4016 Z"
                  stroke="none"/>
            <text x="66.8762" xml:space="preserve" y="285.378" stroke="none">NT1.36</text><line stroke-linecap="butt"
                  fill="none" x1="102.4471" x2="102.4471" y1="276.5197"
                  stroke-linejoin="bevel" y2="305.4331" stroke-width="0.8504"/>
            <path d="M102.8723 276.5197 L110.9261 276.5197 L110.9261 277.3701 L102.8723 277.3701 Z"
                  stroke="none"/>
            <text x="113.7608" xml:space="preserve" font-size="14" y="281.441"
                  stroke="none"></text>
            <path d="M102.8723 304.5827 L103 304.5827 L103 305.4331 L102.8723 305.4331 Z"
                  stroke="none"/>
            <text x="67.6875" xml:space="preserve" y="299.4095" stroke="none">NT1.39</text><line stroke-linecap="butt"
                  fill="none" x1="103.2715" x2="103.2715" y1="295.2284"
                  stroke-linejoin="bevel" y2="314.7875" stroke-width="0.8504"/>
            <path d="M103.6968 295.2284 L119.6655 295.2284 L119.6655 296.0788 L103.6968 296.0788 Z"
                  stroke="none"/>
            <text x="122.5001" xml:space="preserve" font-size="14" y="300.1497"
                  stroke="none"></text>
            <path d="M103.6968 313.9371 L121.974 313.9371 L121.974 314.7875 L103.6968 314.7875 Z"
                  stroke="none"/>
            <text x="124.8086" xml:space="preserve" font-size="14" y="318.8584"
                  stroke="none">U96936</text><path d="M79.2925 356.0316 L82 356.0316 L82 356.882 L79.2925 356.882 Z"
                  stroke="none"/>
            <text x="46.4955" xml:space="preserve" y="350.8583" stroke="none">NT1.12</text><line stroke-linecap="butt"
                  fill="none" x1="82.0002" x2="82.0002" y1="332.6457"
                  stroke-linejoin="bevel" y2="380.2678" stroke-width="0.8504"/>
            <path d="M82.4254 332.6457 L135.4822 332.6457 L135.4822 333.4961 L82.4254 333.4961 Z"
                  stroke="none"/>
            <text x="138.3169" xml:space="preserve" font-size="14" y="337.567"
                  stroke="none">B</text><path d="M82 351.3544 L94.4367 351.3544 L94.4367 352.2048 L82 352.2048 Z"
                  stroke="none"/>
            <text x="97.2714" xml:space="preserve" font-size="14" y="356.2757"
                  stroke="none"></text>
            <path d="M82.4254 379.4174 L87 379.4174 L87 380.2679 L82.4254 380.2679 Z"
                  stroke="none"/>
            <text x="50.8287" xml:space="preserve" y="374.2442" stroke="none">NT1.15</text><line stroke-linecap="butt"
                  fill="none" x1="86.4524" x2="86.4524" y1="370.0631"
                  stroke-linejoin="bevel" y2="389.6221" stroke-width="0.8504"/>
            <path d="M86.8776 370.0631 L104.6601 370.0631 L104.6601 370.9135 L86.8776 370.9135 Z"
                  stroke="none"/>
            <text x="107.4948" xml:space="preserve" font-size="14" y="374.9843"
                  stroke="none">AY435213</text><path d="M86.8776 388.7718 L106.3091 388.7718 L106.3091 389.6222 L86.8776 389.6222 Z"
                  stroke="none"/>
            <text x="109.1437" xml:space="preserve" font-size="14" y="393.693"
                  stroke="none">U96939</text><path d="M71.7074 423.8504 L82 423.8504 L82 424.7008 L71.7074 424.7008 Z"
                  stroke="none"/>
            <text x="46.291" xml:space="preserve" y="418.6772" stroke="none">NT1.10</text><line stroke-linecap="butt"
                  fill="none" x1="81.8354" x2="81.8354" y1="407.4803"
                  stroke-linejoin="bevel" y2="441.0709" stroke-width="0.8504"/>
            <path d="M82.2606 407.4804 L102.6814 407.4804 L102.6814 408.3308 L82.2606 408.3308 Z"
                  stroke="none"/>
            <text x="105.516" xml:space="preserve" font-size="14" y="412.4016"
                  stroke="none">AJ302312</text><path d="M82.2606 440.2206 L84 440.2206 L84 441.071 L82.2606 441.071 Z"
                  stroke="none"/>
            <text x="48.7644" xml:space="preserve" y="435.0473" stroke="none">NT1.14</text><line stroke-linecap="butt"
                  fill="none" x1="84.3088" x2="84.3088" y1="426.189"
                  stroke-linejoin="bevel" y2="455.1024" stroke-width="0.8504"/>
            <path d="M84.734 426.1891 L93.9421 426.1891 L93.9421 427.0395 L84.734 427.0395 Z"
                  stroke="none"/>
            <text x="96.7768" xml:space="preserve" font-size="14" y="431.1103"
                  stroke="none"></text>
            <path d="M84.734 454.2521 L92 454.2521 L92 455.1025 L84.734 455.1025 Z"
                  stroke="none"/>
            <text x="56.6793" xml:space="preserve" y="449.0788" stroke="none">NT1.20</text><line stroke-linecap="butt"
                  fill="none" x1="92.2237" x2="92.2237" y1="444.8977"
                  stroke-linejoin="bevel" y2="464.4568" stroke-width="0.8504"/>
            <path d="M92.6489 444.8977 L101.1974 444.8977 L101.1974 445.7481 L92.6489 445.7481 Z"
                  stroke="none"/>
            <text x="104.0321" xml:space="preserve" font-size="14" y="449.819"
                  stroke="none"></text>
            <path d="M92.6489 463.6064 L102.0219 463.6064 L102.0219 464.4568 L92.6489 464.4568 Z"
                  stroke="none"/>
            <text x="104.8566" xml:space="preserve" font-size="14" y="468.5276"
                  stroke="none"></text>
            <path d="M68.2446 564.1655 L80 564.1655 L80 565.0158 L68.2446 565.0158 Z"
                  stroke="none"/>
            <text x="50.0281" xml:space="preserve" y="558.9922" stroke="none">NT1.9</text><line stroke-linecap="butt"
                  fill="none" x1="79.6918" x2="79.6918" y1="524.4095"
                  stroke-linejoin="bevel" y2="604.7717" stroke-width="0.8504"/>
            <path d="M80.117 524.4095 L89 524.4095 L89 525.2599 L80.117 525.2599 Z"
                  stroke="none"/>
            <text x="53.1769" xml:space="preserve" y="519.2363" stroke="none">NT1.19</text><line stroke-linecap="butt"
                  fill="none" x1="88.761" x2="88.761" y1="496.3466"
                  stroke-linejoin="bevel" y2="553.3229" stroke-width="0.8504"/>
            <path d="M89.1862 496.3466 L93 496.3466 L93 497.197 L89.1862 497.197 Z"
                  stroke="none"/>
            <text x="59.0431" xml:space="preserve" y="491.1733" stroke="none">NT1.21</text><line stroke-linecap="butt"
                  fill="none" x1="93.2131" x2="93.2131" y1="482.3151"
                  stroke-linejoin="bevel" y2="511.2285" stroke-width="0.8504"/>
            <path d="M93.6383 482.3151 L107.9581 482.3151 L107.9581 483.1655 L93.6383 483.1655 Z"
                  stroke="none"/>
            <text x="110.7927" xml:space="preserve" font-size="14" y="487.2363"
                  stroke="none">AJ420332</text><path d="M93.6383 510.3781 L105 510.3781 L105 511.2285 L93.6383 511.2285 Z"
                  stroke="none"/>
            <text x="69.2968" xml:space="preserve" y="505.2049" stroke="none">NT1.45</text><line stroke-linecap="butt"
                  fill="none" x1="104.9205" x2="104.9205" y1="501.0237"
                  stroke-linejoin="bevel" y2="520.5828" stroke-width="0.8504"/>
            <path d="M105.3457 501.0238 L114.8836 501.0238 L114.8836 501.8742 L105.3457 501.8742 Z"
                  stroke="none"/>
            <text x="117.7183" xml:space="preserve" font-size="14" y="505.945"
                  stroke="none"></text>
            <path d="M105.3457 519.7324 L121.6442 519.7324 L121.6442 520.5828 L105.3457 520.5828 Z"
                  stroke="none"/>
            <text x="124.4789" xml:space="preserve" font-size="14" y="524.6537"
                  stroke="none"></text>
            <path d="M89.1862 552.4726 L101 552.4726 L101 553.3229 L89.1862 553.3229 Z"
                  stroke="none"/>
            <text x="65.7881" xml:space="preserve" y="547.2993" stroke="none">NT1.32</text><line stroke-linecap="butt"
                  fill="none" x1="101.2929" x2="101.2929" y1="538.4411"
                  stroke-linejoin="bevel" y2="567.3545" stroke-width="0.8504"/>
            <path d="M101.7181 538.4411 L125.4368 538.4411 L125.4368 539.2914 L101.7181 539.2914 Z"
                  stroke="none"/>
            <text x="128.2714" xml:space="preserve" font-size="14" y="543.3623"
                  stroke="none">DQ514537</text><path d="M101.7181 566.5041 L107 566.5041 L107 567.3544 L101.7181 567.3544 Z"
                  stroke="none"/>
            <text x="71.1635" xml:space="preserve" y="561.3309" stroke="none">NT1.53</text><line stroke-linecap="butt"
                  fill="none" x1="106.7344" x2="106.7344" y1="557.1498"
                  stroke-linejoin="bevel" y2="576.7089" stroke-width="0.8504"/>
            <path d="M107.1596 557.1498 L116.6974 557.1498 L116.6974 558.0001 L107.1596 558.0001 Z"
                  stroke="none"/>
            <text x="119.5321" xml:space="preserve" font-size="14" y="562.071"
                  stroke="none"></text>
            <path d="M107.1596 575.8585 L132.3623 575.8585 L132.3623 576.7088 L107.1596 576.7088 Z"
                  stroke="none"/>
            <text x="135.1969" xml:space="preserve" font-size="14" y="580.7797"
                  stroke="none">AY965240</text><path d="M80.117 603.9214 L88 603.9214 L88 604.7717 L80.117 604.7717 Z"
                  stroke="none"/>
            <text x="52.6954" xml:space="preserve" y="598.7482" stroke="none">NT1.17</text><line stroke-linecap="butt"
                  fill="none" x1="88.2663" x2="88.2663" y1="594.567"
                  stroke-linejoin="bevel" y2="614.1261" stroke-width="0.8504"/>
            <path d="M88.6915 594.567 L112.5751 594.567 L112.5751 595.4174 L88.6915 595.4174 Z"
                  stroke="none"/>
            <text x="115.4097" xml:space="preserve" font-size="14" y="599.4883"
                  stroke="none">AJ302311</text><path d="M88.6915 613.2757 L123.1282 613.2757 L123.1282 614.126 L88.6915 614.126 Z"
                  stroke="none"/>
            <text x="125.9629" xml:space="preserve" font-size="14" y="618.197"
                  stroke="none">ABOZ4310</text><path d="M63.4627 641.3387 L84 641.3387 L84 642.189 L63.4627 642.189 Z"
                  stroke="none"/>
            <text x="48.0783" xml:space="preserve" y="636.1655" stroke="none">NT1.13</text><line stroke-linecap="butt"
                  fill="none" x1="83.6491" x2="83.6491" y1="631.9844"
                  stroke-linejoin="bevel" y2="651.5435" stroke-width="0.8504"/>
            <path d="M84.0743 631.9844 L104.0005 631.9844 L104.0005 632.8347 L84.0743 632.8347 Z"
                  stroke="none"/>
            <text x="106.8352" xml:space="preserve" font-size="14" y="636.9056"
                  stroke="none">B.caryophylliATCC25418T</text><path d="M84.0743 650.6931 L108.1228 650.6931 L108.1228 651.5434 L84.0743 651.5434 Z"
                  stroke="none"/>
            <text x="110.9575" xml:space="preserve" font-size="14" y="655.6143"
                  stroke="none">DQ465451</text><path d="M61.484 709.1576 L68 709.1576 L68 710.0079 L61.484 710.0079 Z"
                  stroke="none"/>
            <text x="37.8392" xml:space="preserve" y="703.9844" stroke="none">NT1.3</text><line stroke-linecap="butt"
                  fill="none" x1="67.4897" x2="67.4897" y1="683.4332"
                  stroke-linejoin="bevel" y2="735.7324" stroke-width="0.8504"/>
            <path d="M67.9149 683.4332 L74 683.4332 L74 684.2835 L67.9149 684.2835 Z"
                  stroke="none"/>
            <text x="44.2701" xml:space="preserve" y="678.2599" stroke="none">NT1.7</text><line stroke-linecap="butt"
                  fill="none" x1="73.9205" x2="73.9205" y1="669.4017"
                  stroke-linejoin="bevel" y2="698.3151" stroke-width="0.8504"/>
            <path d="M74.3457 669.4017 L128.4048 669.4017 L128.4048 670.2521 L74.3457 670.2521 Z"
                  stroke="none"/>
            <text x="131.2394" xml:space="preserve" font-size="14" y="674.3229"
                  stroke="none">X67037</text><path d="M74.3457 697.4647 L88 697.4647 L88 698.3151 L74.3457 698.3151 Z"
                  stroke="none"/>
            <text x="52.6822" xml:space="preserve" y="692.2915" stroke="none">NT1.18</text><line stroke-linecap="butt"
                  fill="none" x1="88.2662" x2="88.2662" y1="688.1104"
                  stroke-linejoin="bevel" y2="707.6695" stroke-width="0.8504"/>
            <path d="M88.6914 688.1104 L102.5165 688.1104 L102.5165 688.9608 L88.6914 688.9608 Z"
                  stroke="none"/>
            <text x="105.3512" xml:space="preserve" font-size="14" y="693.0316"
                  stroke="none">B.cepaciaATCC25416’</text><path d="M88.6914 706.8191 L104.6601 706.8191 L104.6601 707.6694 L88.6914 707.6694 Z"
                  stroke="none"/>
            <text x="107.4948" xml:space="preserve" font-size="14" y="711.7403"
                  stroke="none"></text>
            <path d="M67.9149 734.882 L74 734.882 L74 735.7324 L67.9149 735.7324 Z"
                  stroke="none"/>
            <text x="43.9403" xml:space="preserve" y="729.7087" stroke="none">NT1.6</text><line stroke-linecap="butt"
                  fill="none" x1="73.5908" x2="73.5908" y1="725.5277"
                  stroke-linejoin="bevel" y2="745.0868" stroke-width="0.8504"/>
            <path d="M74.016 725.5277 L95.4262 725.5277 L95.4262 726.3781 L74.016 726.3781 Z"
                  stroke="none"/>
            <text x="98.2608" xml:space="preserve" font-size="14" y="730.4489"
                  stroke="none">Y17052</text><path d="M74.016 744.2363 L103.5059 744.2363 L103.5059 745.0866 L74.016 745.0866 Z"
                  stroke="none"/>
            <text x="106.3406" xml:space="preserve" font-size="14" y="749.1576"
                  stroke="none">AF512826</text>
        </g>
    </g>
</svg>
