<?xml version="1.0"?>
<!DOCTYPE svg PUBLIC '-//W3C//DTD SVG 1.0//EN'
    'http://www.w3.org/TR/2001/REC-SVG-20010904/DTD/svg10.dtd' >

<svg fill-opacity="1" xmlns:xlink="http://www.w3.org/1999/xlink"
     color-rendering="auto" color-interpolation="auto" stroke="black"
     text-rendering="auto" stroke-linecap="square" stroke-miterlimit="10"
     stroke-opacity="1" shape-rendering="auto" fill="black"
     stroke-dasharray="none" font-weight="normal" stroke-width="1"
     xmlns="http://www.w3.org/2000/svg" font-family="&apos;Dialog&apos;"
     font-style="normal" stroke-linejoin="miter" font-size="12"
     stroke-dashoffset="0" image-rendering="auto">
    <!--Generated by the Batik Graphics2D SVG Generator-->
    <defs id="genericDefs"/>
    <g>
        <g fill="white" stroke="white">
            <rect x="0" width="149" height="224" y="0" stroke="none"/>
            <path fill="black" d="M5 84.437 L18 84.437 L18 85.2874 L5 85.2874 Z"
                  stroke="none"/>
            <circle fill="black" r="1.2756" cx="17.4331" cy="84.437"
                    stroke="none"/>
            <path fill="black"
                  d="M17.8583 83.5866 L22 83.5866 L22 84.437 L17.8583 84.437 Z"
                  stroke="none"/>
        </g>
        <g font-family="&apos;Arial&apos;" font-size="9">
            <text x="-7.9856" xml:space="preserve" y="78.4134" stroke="none">NT1.2</text><line stroke-linecap="butt"
                  fill="none" x1="21.5988" x2="21.5988" y1="23.9528"
                  stroke-linejoin="bevel" y2="144.0709" stroke-width="0.8504"/>
            <path d="M22.024 23.9528 L27 23.9528 L27 24.8032 L22.024 24.8032 Z"
                  stroke="none"/>
            <text x="-2.5266" xml:space="preserve" y="18.7795" stroke="none">NT1.4</text><line stroke-linecap="butt"
                  fill="none" x1="27.0975" x2="27.0975" y1="14.5984"
                  stroke-linejoin="bevel" y2="34.1575" stroke-width="0.8504"/>
            <path d="M27.5227 14.5984 L30.8379 14.5984 L30.8379 15.4488 L27.5227 15.4488 Z"
                  stroke="none"/>
            <text x="33.6726" xml:space="preserve" font-size="14" y="19.5197"
                  stroke="none"></text>
            <path d="M27.5227 33.3071 L53.166 33.3071 L53.166 34.1575 L27.5227 34.1575 Z"
                  stroke="none"/>
            <text x="56.0006" xml:space="preserve" font-size="14" y="38.2283"
                  stroke="none">AY253862</text><path d="M22.024 143.2205 L26 143.2205 L26 144.0709 L22.024 144.0709 Z"
                  stroke="none"/>
            <text x="-3.7194" xml:space="preserve" y="138.0473" stroke="none">NT1.3</text><line stroke-linecap="butt"
                  fill="none" x1="25.9311" x2="25.9311" y1="108.1417"
                  stroke-linejoin="bevel" y2="179.1496" stroke-width="0.8504"/>
            <path d="M26.3563 108.1417 L28 108.1417 L28 108.9921 L26.3563 108.9921 Z"
                  stroke="none"/>
            <text x="-1.9394" xml:space="preserve" y="102.9685" stroke="none">NT1.5</text><line stroke-linecap="butt"
                  fill="none" x1="27.764" x2="27.764" y1="80.0788"
                  stroke-linejoin="bevel" y2="137.0551" stroke-width="0.8504"/>
            <path d="M28.1892 80.0788 L30 80.0788 L30 80.9291 L28.1892 80.9291 Z"
                  stroke="none"/>
            <text x="0.4463" xml:space="preserve" y="74.9055" stroke="none">NT1.6</text><line stroke-linecap="butt"
                  fill="none" x1="30.0967" x2="30.0967" y1="61.3701"
                  stroke-linejoin="bevel" y2="99.6378" stroke-width="0.8504"/>
            <path d="M30.5219 61.3701 L32 61.3701 L32 62.2205 L30.5219 62.2205 Z"
                  stroke="none"/>
            <text x="1.7661" xml:space="preserve" y="56.1969" stroke="none">NT1.9</text><line stroke-linecap="butt"
                  fill="none" x1="31.4297" x2="31.4297" y1="52.0157"
                  stroke-linejoin="bevel" y2="71.5748" stroke-width="0.8504"/>
            <path d="M31.8549 52.0158 L45.6677 52.0158 L45.6677 52.8661 L31.8549 52.8661 Z"
                  stroke="none"/>
            <text x="48.5024" xml:space="preserve" font-size="14" y="56.937"
                  stroke="none">AY253863</text><path d="M31.8549 70.7244 L49.3335 70.7244 L49.3335 71.5748 L31.8549 71.5748 Z"
                  stroke="none"/>
            <text x="52.1682" xml:space="preserve" font-size="14" y="75.6457"
                  stroke="none">AY08262</text><path d="M30.5219 98.7874 L33 98.7874 L33 99.6378 L30.5219 99.6378 Z"
                  stroke="none"/>
            <text x="-2.9483" xml:space="preserve" y="93.6142" stroke="none">NT1.10</text><line stroke-linecap="butt"
                  fill="none" x1="32.5961" x2="32.5961" y1="89.4331"
                  stroke-linejoin="bevel" y2="108.9921" stroke-width="0.8504"/>
            <path d="M33.0213 89.4331 L48.1672 89.4331 L48.1672 90.2835 L33.0213 90.2835 Z"
                  stroke="none"/>
            <text x="51.0018" xml:space="preserve" font-size="14" y="94.3543"
                  stroke="none">AY995146</text><path d="M33.0213 108.1417 L57.6649 108.1417 L57.6649 108.9921 L33.0213 108.9921 Z"
                  stroke="none"/>
            <text x="60.4996" xml:space="preserve" font-size="14" y="113.063"
                  stroke="none">AJ811962</text><path d="M28.1892 136.2047 L35 136.2047 L35 137.0551 L28.1892 137.0551 Z"
                  stroke="none"/>
            <text x="0.4256" xml:space="preserve" y="131.0315" stroke="none">NT1.11</text><line stroke-linecap="butt"
                  fill="none" x1="34.5957" x2="34.5957" y1="126.8504"
                  stroke-linejoin="bevel" y2="146.4095" stroke-width="0.8504"/>
            <path d="M35.0209 126.8504 L46.8341 126.8504 L46.8341 127.7008 L35.0209 127.7008 Z"
                  stroke="none"/>
            <text x="49.6688" xml:space="preserve" font-size="14" y="131.7717"
                  stroke="none">AB245391</text><path d="M35.0209 145.5591 L54.1657 145.5591 L54.1657 146.4095 L35.0209 146.4095 Z"
                  stroke="none"/>
            <text x="57.0004" xml:space="preserve" font-size="14" y="150.4803"
                  stroke="none">AY253865</text><path d="M26.3563 178.2992 L31 178.2992 L31 179.1496 L26.3563 179.1496 Z"
                  stroke="none"/>
            <text x="1.1128" xml:space="preserve" y="173.126" stroke="none">NT1.7</text><line stroke-linecap="butt"
                  fill="none" x1="30.7633" x2="30.7633" y1="164.2677"
                  stroke-linejoin="bevel" y2="193.1811" stroke-width="0.8504"/>
            <path d="M31.1884 164.2677 L54.9989 164.2677 L54.9989 165.1181 L31.1884 165.1181 Z"
                  stroke="none"/>
            <text x="57.8335" xml:space="preserve" font-size="14" y="169.189"
                  stroke="none">A3082063</text><path d="M31.1884 192.3307 L38 192.3307 L38 193.1811 L31.1884 193.1811 Z"
                  stroke="none"/>
            <text x="2.7567" xml:space="preserve" y="187.1575" stroke="none">NT1.12</text><line stroke-linecap="butt"
                  fill="none" x1="38.2615" x2="38.2615" y1="182.9764"
                  stroke-linejoin="bevel" y2="202.5354" stroke-width="0.8504"/>
            <path d="M38.6867 182.9764 L66.996 182.9764 L66.996 183.8268 L38.6867 183.8268 Z"
                  stroke="none"/>
            <text x="69.8307" xml:space="preserve" font-size="14" y="187.8976"
                  stroke="none">AY082061</text><path d="M38.6867 201.6851 L43.1683 201.6851 L43.1683 202.5355 L38.6867 202.5355 Z"
                  stroke="none"/>
            <text x="46.003" xml:space="preserve" font-size="14" y="206.6063"
                  stroke="none">AY253864</text>
        </g>
    </g>
</svg>
