<?xml version="1.0"?>
<!DOCTYPE svg PUBLIC '-//W3C//DTD SVG 1.0//EN'
    'http://www.w3.org/TR/2001/REC-SVG-20010904/DTD/svg10.dtd' >

<svg fill-opacity="1" xmlns:xlink="http://www.w3.org/1999/xlink"
     color-rendering="auto" color-interpolation="auto" stroke="black"
     text-rendering="auto" stroke-linecap="square" stroke-miterlimit="10"
     stroke-opacity="1" shape-rendering="auto" fill="black"
     stroke-dasharray="none" font-weight="normal" stroke-width="1"
     xmlns="http://www.w3.org/2000/svg" font-family="&apos;Dialog&apos;"
     font-style="normal" stroke-linejoin="miter" font-size="12"
     stroke-dashoffset="0" image-rendering="auto">
    <!--Generated by the Batik Graphics2D SVG Generator-->
    <defs id="genericDefs"/>
    <g>
        <g fill="white" stroke="white">
            <rect x="0" width="195" height="579" y="0" stroke="none"/>
            <path fill="black"
                  d="M5 155.3386 L44 155.3386 L44 156.189 L5 156.189 Z"
                  stroke="none"/>
        </g>
        <g font-family="&apos;Arial&apos;" font-size="9">
            <text x="8.5039" xml:space="preserve" y="150.1654" stroke="none">NT1.58</text><line stroke-linecap="butt"
                  fill="none" x1="44.088" x2="44.088" y1="14.5984"
                  stroke-linejoin="bevel" y2="296.0788" stroke-width="0.8504"/>
            <path d="M44.5132 14.5984 L81.6123 14.5984 L81.6123 15.4488 L44.5132 15.4488 Z"
                  stroke="none"/>
            <text x="84.4469" xml:space="preserve" font-size="14" y="19.5197"
                  stroke="none"></text>
            <path d="M44.5132 295.2284 L46 295.2284 L46 296.0788 L44.5132 296.0788 Z"
                  stroke="none"/>
            <text x="17.7982" xml:space="preserve" y="290.0552" stroke="none">NT1.1</text><line stroke-linecap="butt"
                  fill="none" x1="46.0478" x2="46.0478" y1="33.3071"
                  stroke-linejoin="bevel" y2="558.0001" stroke-width="0.8504"/>
            <path d="M46.473 33.3071 L68.9624 33.3071 L68.9624 34.1575 L46.473 34.1575 Z"
                  stroke="none"/>
            <text x="71.7971" xml:space="preserve" font-size="14" y="38.2283"
                  stroke="none">AY061974</text><path d="M46 425.8602 L51 425.8602 L51 426.7106 L46 426.7106 Z"
                  stroke="none"/>
            <text x="21.4521" xml:space="preserve" y="420.687" stroke="none">NT1.2</text><line stroke-linecap="butt"
                  fill="none" x1="51.0365" x2="51.0365" y1="333.1573"
                  stroke-linejoin="bevel" y2="519.4135" stroke-width="0.8504"/>
            <path d="M51.4617 333.1573 L53 333.1573 L53 334.0077 L51.4617 334.0077 Z"
                  stroke="none"/>
            <text x="23.4349" xml:space="preserve" y="327.984" stroke="none">NT1.3</text><line stroke-linecap="butt"
                  fill="none" x1="53.0854" x2="53.0854" y1="230.7712"
                  stroke-linejoin="bevel" y2="436.3937" stroke-width="0.8504"/>
            <path d="M53.5106 230.7712 L57 230.7712 L57 231.6216 L53.5106 231.6216 Z"
                  stroke="none"/>
            <text x="26.9454" xml:space="preserve" y="225.5979" stroke="none">NT1.5</text><line stroke-linecap="butt"
                  fill="none" x1="56.6487" x2="56.6487" y1="131.8199"
                  stroke-linejoin="bevel" y2="330.5728" stroke-width="0.8504"/>
            <path d="M57.0739 131.8199 L66 131.8199 L66 132.6703 L57.0739 132.6703 Z"
                  stroke="none"/>
            <text x="36.6951" xml:space="preserve" y="126.6467" stroke="none">NT1.8</text><line stroke-linecap="butt"
                  fill="none" x1="66.3588" x2="66.3588" y1="52.0157"
                  stroke-linejoin="bevel" y2="212.4744" stroke-width="0.8504"/>
            <path d="M66.784 52.0157 L93.6385 52.0157 L93.6385 52.8661 L66.784 52.8661 Z"
                  stroke="none"/>
            <text x="96.4732" xml:space="preserve" font-size="14" y="56.937"
                  stroke="none"></text>
            <path d="M66.784 211.624 L67 211.624 L67 212.4744 L66.784 212.4744 Z"
                  stroke="none"/>
            <text x="31.5271" xml:space="preserve" y="206.4508" stroke="none">NT1.10</text><line stroke-linecap="butt"
                  fill="none" x1="67.0715" x2="67.0715" y1="170.1142"
                  stroke-linejoin="bevel" y2="253.9843" stroke-width="0.8504"/>
            <path d="M67.4967 170.1142 L70 170.1142 L70 170.9646 L67.4967 170.9646 Z"
                  stroke="none"/>
            <text x="34.1105" xml:space="preserve" y="164.9409" stroke="none">NT1.14</text><line stroke-linecap="butt"
                  fill="none" x1="69.6549" x2="69.6549" y1="129.189"
                  stroke-linejoin="bevel" y2="211.8898" stroke-width="0.8504"/>
            <path d="M70.0801 129.189 L75 129.189 L75 130.0394 L70.0801 130.0394 Z"
                  stroke="none"/>
            <text x="38.8813" xml:space="preserve" y="124.0157" stroke="none">NT1.19</text><line stroke-linecap="butt"
                  fill="none" x1="74.4654" x2="74.4654" y1="98.7874"
                  stroke-linejoin="bevel" y2="160.4409" stroke-width="0.8504"/>
            <path d="M74.8906 98.7874 L98 98.7874 L98 99.6378 L74.8906 99.6378 Z"
                  stroke="none"/>
            <text x="62.5281" xml:space="preserve" y="93.6142" stroke="none">NT1.44</text><line stroke-linecap="butt"
                  fill="none" x1="98.0725" x2="98.0725" y1="80.0787"
                  stroke-linejoin="bevel" y2="118.3465" stroke-width="0.8504"/>
            <path d="M98.4977 80.0787 L98 80.0787 L98 80.9291 L98.4977 80.9291 Z"
                  stroke="none"/>
            <text x="62.6798" xml:space="preserve" y="74.9055" stroke="none">NT1.46</text><line stroke-linecap="butt"
                  fill="none" x1="98.2506" x2="98.2506" y1="70.7244"
                  stroke-linejoin="bevel" y2="90.2835" stroke-width="0.8504"/>
            <path d="M98.6758 70.7244 L97.7363 70.7244 L97.7363 71.5748 L98.6758 71.5748 Z"
                  stroke="none"/>
            <text x="100.571" xml:space="preserve" font-size="14" y="75.6457"
                  stroke="none"></text>
            <path d="M98.6758 89.4331 L98.2708 89.4331 L98.2708 90.2835 L98.6758 90.2835 Z"
                  stroke="none"/>
            <text x="101.1055" xml:space="preserve" font-size="14" y="94.3543"
                  stroke="none">AF481216</text><path d="M98.4977 117.4961 L99 117.4961 L99 118.3464 L98.4977 118.3464 Z"
                  stroke="none"/>
            <text x="62.8447" xml:space="preserve" y="112.3228" stroke="none">NT1.48</text><line stroke-linecap="butt"
                  fill="none" x1="98.4288" x2="98.4288" y1="108.1417"
                  stroke-linejoin="bevel" y2="127.7008" stroke-width="0.8504"/>
            <path d="M98.854 108.1417 L98.2708 108.1417 L98.2708 108.9921 L98.854 108.9921 Z"
                  stroke="none"/>
            <text x="101.1055" xml:space="preserve" font-size="14" y="113.063"
                  stroke="none">DQ412723</text><path d="M98.854 126.8504 L97.9145 126.8504 L97.9145 127.7008 L98.854 127.7008 Z"
                  stroke="none"/>
            <text x="100.7492" xml:space="preserve" font-size="14" y="131.7717"
                  stroke="none">EF436499</text><path d="M74.8906 159.5906 L92 159.5906 L92 160.441 L74.8906 160.441 Z"
                  stroke="none"/>
            <text x="56.5331" xml:space="preserve" y="154.4173" stroke="none">NT1.33</text><line stroke-linecap="butt"
                  fill="none" x1="92.1039" x2="92.1039" y1="145.5591"
                  stroke-linejoin="bevel" y2="174.4724" stroke-width="0.8504"/>
            <path d="M92.5291 145.5591 L95.4202 145.5591 L95.4202 146.4095 L92.5291 146.4095 Z"
                  stroke="none"/>
            <text x="98.2548" xml:space="preserve" font-size="14" y="150.4803"
                  stroke="none"></text>
            <path d="M92.5291 173.6221 L94 173.6221 L94 174.4725 L92.5291 174.4725 Z"
                  stroke="none"/>
            <text x="57.8164" xml:space="preserve" y="168.4488" stroke="none">NT1.35</text><line stroke-linecap="butt"
                  fill="none" x1="93.4401" x2="93.4401" y1="164.2677"
                  stroke-linejoin="bevel" y2="183.8268" stroke-width="0.8504"/>
            <path d="M93.8653 164.2677 L93.104 164.2677 L93.104 165.1181 L93.8653 165.1181 Z"
                  stroke="none"/>
            <text x="95.9387" xml:space="preserve" font-size="14" y="169.189"
                  stroke="none"></text>
            <path d="M93.8653 182.9764 L93.2822 182.9764 L93.2822 183.8268 L93.8653 183.8268 Z"
                  stroke="none"/>
            <text x="96.1168" xml:space="preserve" font-size="14" y="187.8976"
                  stroke="none">AF234542</text><path d="M70.0801 211.0394 L74 211.0394 L74 211.8898 L70.0801 211.8898 Z"
                  stroke="none"/>
            <text x="38.0037" xml:space="preserve" y="205.8661" stroke="none">NT1.17</text><line stroke-linecap="butt"
                  fill="none" x1="73.5745" x2="73.5745" y1="201.685"
                  stroke-linejoin="bevel" y2="221.2441" stroke-width="0.8504"/>
            <path d="M73.9998 201.685 L90.0752 201.685 L90.0752 202.5354 L73.9998 202.5354 Z"
                  stroke="none"/>
            <text x="92.9098" xml:space="preserve" font-size="14" y="206.6063"
                  stroke="none">DQO71273</text><path d="M73.9998 220.3937 L96.6673 220.3937 L96.6673 221.2441 L73.9998 221.2441 Z"
                  stroke="none"/>
            <text x="99.502" xml:space="preserve" font-size="14" y="225.315"
                  stroke="none">AFO73521</text><path d="M67.4967 253.1339 L69 253.1339 L69 253.9843 L67.4967 253.9843 Z"
                  stroke="none"/>
            <text x="34.3268" xml:space="preserve" y="247.9606" stroke="none">NT1.11</text><line stroke-linecap="butt"
                  fill="none" x1="68.4968" x2="68.4968" y1="239.1024"
                  stroke-linejoin="bevel" y2="268.0157" stroke-width="0.8504"/>
            <path d="M68.922 239.1024 L102.725 239.1024 L102.725 239.9528 L68.922 239.9528 Z"
                  stroke="none"/>
            <text x="105.5597" xml:space="preserve" font-size="14" y="244.0236"
                  stroke="none">L08066</text><path d="M68.922 267.1654 L74 267.1654 L74 268.0158 L68.922 268.0158 Z"
                  stroke="none"/>
            <text x="38.7032" xml:space="preserve" y="261.9921" stroke="none">NT1.18</text><line stroke-linecap="butt"
                  fill="none" x1="74.2872" x2="74.2872" y1="257.811"
                  stroke-linejoin="bevel" y2="277.3701" stroke-width="0.8504"/>
            <path d="M74.7124 257.811 L92.3913 257.811 L92.3913 258.6614 L74.7124 258.6614 Z"
                  stroke="none"/>
            <text x="95.226" xml:space="preserve" font-size="14" y="262.7323"
                  stroke="none">AF161069</text><path d="M74.7124 276.5197 L93.6385 276.5197 L93.6385 277.3701 L74.7124 277.3701 Z"
                  stroke="none"/>
            <text x="96.4731" xml:space="preserve" font-size="14" y="281.441"
                  stroke="none">AF072581</text><path d="M57.0739 329.7224 L59 329.7224 L59 330.5728 L57.0739 330.5728 Z"
                  stroke="none"/>
            <text x="29.1363" xml:space="preserve" y="324.5492" stroke="none">NT1.6</text><line stroke-linecap="butt"
                  fill="none" x1="58.7867" x2="58.7867" y1="295.2284"
                  stroke-linejoin="bevel" y2="365.067" stroke-width="0.8504"/>
            <path d="M59.2119 295.2284 L93.1931 295.2284 L93.1931 296.0788 L59.2119 296.0788 Z"
                  stroke="none"/>
            <text x="96.0278" xml:space="preserve" font-size="14" y="300.1496"
                  stroke="none"></text>
            <path d="M59.2119 364.2166 L73 364.2166 L73 365.067 L59.2119 365.067 Z"
                  stroke="none"/>
            <text x="37.8256" xml:space="preserve" y="359.0434" stroke="none">NT1.16</text><line stroke-linecap="butt"
                  fill="none" x1="73.3964" x2="73.3964" y1="330.3071"
                  stroke-linejoin="bevel" y2="398.9764" stroke-width="0.8504"/>
            <path d="M73.8216 330.3071 L77 330.3071 L77 331.1575 L73.8216 331.1575 Z"
                  stroke="none"/>
            <text x="41.9004" xml:space="preserve" y="325.1339" stroke="none">NT1.22</text><line stroke-linecap="butt"
                  fill="none" x1="77.4051" x2="77.4051" y1="313.937"
                  stroke-linejoin="bevel" y2="347.5276" stroke-width="0.8504"/>
            <path d="M77.8304 313.937 L104.7739 313.937 L104.7739 314.7874 L77.8304 314.7874 Z"
                  stroke="none"/>
            <text x="107.6086" xml:space="preserve" font-size="14" y="318.8583"
                  stroke="none">AY387670</text><path d="M77.8304 346.6772 L80 346.6772 L80 347.5276 L77.8304 347.5276 Z"
                  stroke="none"/>
            <text x="44.3286" xml:space="preserve" y="341.504" stroke="none">NT1.27</text><line stroke-linecap="butt"
                  fill="none" x1="79.8995" x2="79.8995" y1="332.6457"
                  stroke-linejoin="bevel" y2="361.5591" stroke-width="0.8504"/>
            <path d="M80.3247 332.6457 L105.6648 332.6457 L105.6648 333.4961 L80.3247 333.4961 Z"
                  stroke="none"/>
            <text x="108.4994" xml:space="preserve" font-size="14" y="337.567"
                  stroke="none">AF146526</text><path d="M80.3247 360.7087 L100 360.7087 L100 361.5591 L80.3247 361.5591 Z"
                  stroke="none"/>
            <text x="66.2186" xml:space="preserve" y="355.5355" stroke="none">NT1.51</text><line stroke-linecap="butt"
                  fill="none" x1="100.3886" x2="100.3886" y1="351.3544"
                  stroke-linejoin="bevel" y2="370.9135" stroke-width="0.8504"/>
            <path d="M100.8138 351.3544 L103.8831 351.3544 L103.8831 352.2048 L100.8138 352.2048 Z"
                  stroke="none"/>
            <text x="106.7178" xml:space="preserve" font-size="14" y="356.2757"
                  stroke="none">AJ299402</text><path d="M100.8138 370.0631 L106.3774 370.0631 L106.3774 370.9135 L100.8138 370.9135 Z"
                  stroke="none"/>
            <text x="109.2121" xml:space="preserve" font-size="14" y="374.9843"
                  stroke="none"></text>
            <path d="M73.8216 398.126 L79 398.126 L79 398.9764 L73.8216 398.9764 Z"
                  stroke="none"/>
            <text x="43.2068" xml:space="preserve" y="392.9528" stroke="none">NT1.25</text><line stroke-linecap="butt"
                  fill="none" x1="78.8305" x2="78.8305" y1="388.7717"
                  stroke-linejoin="bevel" y2="408.3307" stroke-width="0.8504"/>
            <path d="M79.2557 388.7717 L96.4001 388.7717 L96.4001 389.6221 L79.2557 389.6221 Z"
                  stroke="none"/>
            <text x="99.2347" xml:space="preserve" font-size="14" y="393.6929"
                  stroke="none"></text>
            <path d="M79.2557 407.4804 L100.587 407.4804 L100.587 408.3308 L79.2557 408.3308 Z"
                  stroke="none"/>
            <text x="103.4217" xml:space="preserve" font-size="14" y="412.4016"
                  stroke="none">M59231</text><path d="M53.5106 435.5434 L55 435.5434 L55 436.3938 L53.5106 436.3938 Z"
                  stroke="none"/>
            <text x="25.5994" xml:space="preserve" y="430.3701" stroke="none">NT1.4</text><line stroke-linecap="butt"
                  fill="none" x1="55.2234" x2="55.2234" y1="426.189"
                  stroke-linejoin="bevel" y2="445.7481" stroke-width="0.8504"/>
            <path d="M55.6486 426.1891 L79.4742 426.1891 L79.4742 427.0395 L55.6486 427.0395 Z"
                  stroke="none"/>
            <text x="82.3089" xml:space="preserve" font-size="14" y="431.1103"
                  stroke="none">A8011495</text><path d="M55.6486 444.8977 L85.7101 444.8977 L85.7101 445.7481 L55.6486 445.7481 Z"
                  stroke="none"/>
            <text x="88.5447" xml:space="preserve" font-size="14" y="449.819"
                  stroke="none"></text>
            <path d="M51.4617 518.5631 L63 518.5631 L63 519.4135 L51.4617 519.4135 Z"
                  stroke="none"/>
            <text x="32.9669" xml:space="preserve" y="513.3899" stroke="none">NT1.7</text><line stroke-linecap="butt"
                  fill="none" x1="62.6173" x2="62.6173" y1="498.6851"
                  stroke-linejoin="bevel" y2="539.2914" stroke-width="0.8504"/>
            <path d="M63.0425 498.6852 L66 498.6852 L66 499.5356 L63.0425 499.5356 Z"
                  stroke="none"/>
            <text x="36.6952" xml:space="preserve" y="493.5119" stroke="none">NT1.9</text><line stroke-linecap="butt"
                  fill="none" x1="66.3588" x2="66.3588" y1="477.6379"
                  stroke-linejoin="bevel" y2="520.5828" stroke-width="0.8504"/>
            <path d="M66.784 477.6379 L69 477.6379 L69 478.4883 L66.784 478.4883 Z"
                  stroke="none"/>
            <text x="33.7048" xml:space="preserve" y="472.4647" stroke="none">NT1.12</text><line stroke-linecap="butt"
                  fill="none" x1="69.2095" x2="69.2095" y1="463.6064"
                  stroke-linejoin="bevel" y2="492.5198" stroke-width="0.8504"/>
            <path d="M69.6347 463.6064 L80.5433 463.6064 L80.5433 464.4568 L69.6347 464.4568 Z"
                  stroke="none"/>
            <text x="83.3779" xml:space="preserve" font-size="14" y="468.5276"
                  stroke="none">M26491</text><path d="M69.6347 491.6694 L70 491.6694 L70 492.5198 L69.6347 492.5198 Z"
                  stroke="none"/>
            <text x="34.4766" xml:space="preserve" y="486.4962" stroke="none">NT1.15</text><line stroke-linecap="butt"
                  fill="none" x1="70.1003" x2="70.1003" y1="482.3151"
                  stroke-linejoin="bevel" y2="501.8741" stroke-width="0.8504"/>
            <path d="M70.5255 482.3151 L77.3363 482.3151 L77.3363 483.1655 L70.5255 483.1655 Z"
                  stroke="none"/>
            <text x="80.171" xml:space="preserve" font-size="14" y="487.2363"
                  stroke="none">AY290767</text><path d="M70.5255 501.0238 L83.4831 501.0238 L83.4831 501.8742 L70.5255 501.8742 Z"
                  stroke="none"/>
            <text x="86.3177" xml:space="preserve" font-size="14" y="505.945"
                  stroke="none">AJ251214</text><path d="M66.784 519.7324 L78.4053 519.7324 L78.4053 520.5828 L66.784 520.5828 Z"
                  stroke="none"/>
            <text x="81.24" xml:space="preserve" font-size="14" y="524.6537"
                  stroke="none">X99980</text><path d="M63.0425 538.4411 L75.1983 538.4411 L75.1983 539.2914 L63.0425 539.2914 Z"
                  stroke="none"/>
            <text x="78.033" xml:space="preserve" font-size="14" y="543.3623"
                  stroke="none"></text>
            <path d="M46.473 557.1497 L76.2673 557.1497 L76.2673 558.0001 L46.473 558.0001 Z"
                  stroke="none"/>
            <text x="79.102" xml:space="preserve" font-size="14" y="562.071"
                  stroke="none"></text>
        </g>
    </g>
</svg>
