<?xml version="1.0"?>
<!DOCTYPE svg PUBLIC '-//W3C//DTD SVG 1.0//EN'
    'http://www.w3.org/TR/2001/REC-SVG-20010904/DTD/svg10.dtd' >

<svg fill-opacity="1" xmlns:xlink="http://www.w3.org/1999/xlink"
     color-rendering="auto" color-interpolation="auto" stroke="black"
     text-rendering="auto" stroke-linecap="square" stroke-miterlimit="10"
     stroke-opacity="1" shape-rendering="auto" fill="black"
     stroke-dasharray="none" font-weight="normal" stroke-width="1"
     xmlns="http://www.w3.org/2000/svg" font-family="&apos;Dialog&apos;"
     font-style="normal" stroke-linejoin="miter" font-size="12"
     stroke-dashoffset="0" image-rendering="auto">
    <!--Generated by the Batik Graphics2D SVG Generator-->
    <defs id="genericDefs"/>
    <g>
        <g fill="white" stroke="white">
            <rect x="0" width="185" height="186" y="0" stroke="none"/>
            <path fill="black"
                  d="M5 106.813 L44 106.813 L44 107.6634 L5 107.6634 Z"
                  stroke="none"/>
        </g>
        <g font-family="&apos;Arial&apos;" font-size="9">
            <text x="8.5039" xml:space="preserve" y="101.6398" stroke="none">NT1.17</text><line stroke-linecap="butt"
                  fill="none" x1="44.0748" x2="44.0748" y1="48.5079"
                  stroke-linejoin="bevel" y2="165.1181" stroke-width="0.8504"/>
            <path d="M44.5 48.5079 L50 48.5079 L50 49.3583 L44.5 49.3583 Z"
                  stroke="none"/>
            <text x="21.3571" xml:space="preserve" y="43.3346" stroke="none">NT1.1</text><line stroke-linecap="butt"
                  fill="none" x1="49.6068" x2="49.6068" y1="14.5984"
                  stroke-linejoin="bevel" y2="83.2677" stroke-width="0.8504"/>
            <path d="M50.032 14.5984 L92.2987 14.5984 L92.2987 15.4488 L50.032 15.4488 Z"
                  stroke="none"/>
            <text x="95.1334" xml:space="preserve" font-size="14" y="19.5197"
                  stroke="none">AJ233419</text><path d="M50.032 82.4173 L71 82.4173 L71 83.2677 L50.032 83.2677 Z"
                  stroke="none"/>
            <text x="41.2555" xml:space="preserve" y="77.2441" stroke="none">NT1.2</text><line stroke-linecap="butt"
                  fill="none" x1="70.8399" x2="70.8399" y1="47.3386"
                  stroke-linejoin="bevel" y2="118.3465" stroke-width="0.8504"/>
            <path d="M71.2651 47.3386 L81 47.3386 L81 48.189 L71.2651 48.189 Z"
                  stroke="none"/>
            <text x="50.8705" xml:space="preserve" y="42.1654" stroke="none">NT1.6</text><line stroke-linecap="butt"
                  fill="none" x1="80.5209" x2="80.5209" y1="33.3071"
                  stroke-linejoin="bevel" y2="62.2205" stroke-width="0.8504"/>
            <path d="M80.9461 33.3071 L80.1771 33.3071 L80.1771 34.1575 L80.9461 34.1575 Z"
                  stroke="none"/>
            <text x="83.0117" xml:space="preserve" font-size="14" y="38.2284"
                  stroke="none">AJ441082</text><path d="M80.9461 61.3701 L81 61.3701 L81 62.2205 L80.9461 62.2205 Z"
                  stroke="none"/>
            <text x="51.02" xml:space="preserve" y="56.1969" stroke="none">NT1.8</text><line stroke-linecap="butt"
                  fill="none" x1="80.6836" x2="80.6836" y1="52.0158"
                  stroke-linejoin="bevel" y2="71.5748" stroke-width="0.8504"/>
            <path d="M81.1088 52.0158 L80.6652 52.0158 L80.6652 52.8662 L81.1088 52.8662 Z"
                  stroke="none"/>
            <text x="83.4999" xml:space="preserve" font-size="14" y="56.937"
                  stroke="none">AJOOZOOB</text><path d="M81.1088 70.7244 L80.9093 70.7244 L80.9093 71.5748 L81.1088 71.5748 Z"
                  stroke="none"/>
            <text x="83.7439" xml:space="preserve" font-size="14" y="75.6457"
                  stroke="none">AJ441080</text><path d="M71.2651 117.4961 L72 117.4961 L72 118.3465 L71.2651 118.3465 Z"
                  stroke="none"/>
            <text x="42.3284" xml:space="preserve" y="112.3229" stroke="none">NT1.3</text><line stroke-linecap="butt"
                  fill="none" x1="71.9789" x2="71.9789" y1="98.7874"
                  stroke-linejoin="bevel" y2="137.0551" stroke-width="0.8504"/>
            <path d="M72.404 98.7874 L76 98.7874 L76 99.6378 L72.404 99.6378 Z"
                  stroke="none"/>
            <text x="46.0991" xml:space="preserve" y="93.6142" stroke="none">NT1.5</text><line stroke-linecap="butt"
                  fill="none" x1="75.8024" x2="75.8024" y1="89.4331"
                  stroke-linejoin="bevel" y2="108.9921" stroke-width="0.8504"/>
            <path d="M76.2276 89.4331 L90.5903 89.4331 L90.5903 90.2835 L76.2276 90.2835 Z"
                  stroke="none"/>
            <text x="93.4249" xml:space="preserve" font-size="14" y="94.3543"
                  stroke="none">AF144407</text><path d="M76.2276 108.1417 L84.2447 108.1417 L84.2447 108.9921 L76.2276 108.9921 Z"
                  stroke="none"/>
            <text x="87.0794" xml:space="preserve" font-size="14" y="113.063"
                  stroke="none">AM183347</text><path d="M72.404 136.2047 L75 136.2047 L75 137.0551 L72.404 137.0551 Z"
                  stroke="none"/>
            <text x="45.7716" xml:space="preserve" y="131.0315" stroke="none">NT1.4</text><line stroke-linecap="butt"
                  fill="none" x1="75.3957" x2="75.3957" y1="126.8504"
                  stroke-linejoin="bevel" y2="146.4095" stroke-width="0.8504"/>
            <path d="M75.8209 126.8504 L83.838 126.8504 L83.838 127.7008 L75.8209 127.7008 Z"
                  stroke="none"/>
            <text x="86.6726" xml:space="preserve" font-size="14" y="131.7717"
                  stroke="none">ABO73132</text><path d="M75.8209 145.5591 L85.5464 145.5591 L85.5464 146.4095 L75.8209 146.4095 Z"
                  stroke="none"/>
            <text x="88.381" xml:space="preserve" font-size="14" y="150.4803"
                  stroke="none">D0298025</text><path d="M44.5 164.2677 L92.2987 164.2677 L92.2987 165.1181 L44.5 165.1181 Z"
                  stroke="none"/>
            <text x="95.1334" xml:space="preserve" font-size="14" y="169.189"
                  stroke="none">ABOQ4412</text>
        </g>
    </g>
</svg>
