<?xml version="1.0"?>
<!DOCTYPE svg PUBLIC '-//W3C//DTD SVG 1.0//EN'
    'http://www.w3.org/TR/2001/REC-SVG-20010904/DTD/svg10.dtd' >

<svg fill-opacity="1" xmlns:xlink="http://www.w3.org/1999/xlink"
     color-rendering="auto" color-interpolation="auto" stroke="black"
     text-rendering="auto" stroke-linecap="square" stroke-miterlimit="10"
     stroke-opacity="1" shape-rendering="auto" fill="black"
     stroke-dasharray="none" font-weight="normal" stroke-width="1"
     xmlns="http://www.w3.org/2000/svg" font-family="&apos;Dialog&apos;"
     font-style="normal" stroke-linejoin="miter" font-size="12"
     stroke-dashoffset="0" image-rendering="auto">
    <!--Generated by the Batik Graphics2D SVG Generator-->
    <defs id="genericDefs"/>
    <g>
        <g fill="white" stroke="white">
            <rect x="0" width="185" height="205" y="0" stroke="none"/>
            <path fill="black"
                  d="M5 88.8219 L18 88.8219 L18 89.6722 L5 89.6722 Z"
                  stroke="none"/>
            <circle fill="black" r="1.2756" cx="17.4331" cy="88.8219"
                    stroke="none"/>
            <path fill="black"
                  d="M17.8583 87.9715 L31 87.9715 L31 88.8219 L17.8583 88.8219 Z"
                  stroke="none"/>
        </g>
        <g font-family="&apos;Arial&apos;" font-size="9">
            <text x="1.7536" xml:space="preserve" y="82.7982" stroke="none">NT1.2</text><line stroke-linecap="butt"
                  fill="none" x1="31.338" x2="31.338" y1="32.7224"
                  stroke-linejoin="bevel" y2="144.0709" stroke-width="0.8504"/>
            <path d="M31.7632 32.7224 L35 32.7224 L35 33.5728 L31.7632 33.5728 Z"
                  stroke="none"/>
            <text x="5.3955" xml:space="preserve" y="27.5492" stroke="none">NT1.3</text><line stroke-linecap="butt"
                  fill="none" x1="35.0459" x2="35.0459" y1="14.5984"
                  stroke-linejoin="bevel" y2="51.6969" stroke-width="0.8504"/>
            <path d="M35.4711 14.5984 L52.6044 14.5984 L52.6044 15.4488 L35.4711 15.4488 Z"
                  stroke="none"/>
            <text x="55.439" xml:space="preserve" font-size="14" y="19.5197"
                  stroke="none"></text>
            <path d="M35.4711 50.8465 L48 50.8465 L48 51.6969 L35.4711 51.6969 Z"
                  stroke="none"/>
            <text x="18.3601" xml:space="preserve" y="45.6732" stroke="none">NT1.9</text><line stroke-linecap="butt"
                  fill="none" x1="48.0238" x2="48.0238" y1="33.3071"
                  stroke-linejoin="bevel" y2="69.2362" stroke-width="0.8504"/>
            <path d="M48.449 33.3071 L65.0261 33.3071 L65.0261 34.1575 L48.449 34.1575 Z"
                  stroke="none"/>
            <text x="67.8607" xml:space="preserve" font-size="14" y="38.2283"
                  stroke="none">A114813</text><path d="M48.449 68.3858 L52 68.3858 L52 69.2362 L48.449 69.2362 Z"
                  stroke="none"/>
            <text x="16.7436" xml:space="preserve" y="63.2126" stroke="none">NT1.10</text><line stroke-linecap="butt"
                  fill="none" x1="52.288" x2="52.288" y1="52.0157"
                  stroke-linejoin="bevel" y2="85.6063" stroke-width="0.8504"/>
            <path d="M52.7132 52.0158 L60.7619 52.0158 L60.7619 52.8661 L52.7132 52.8661 Z"
                  stroke="none"/>
            <text x="63.5966" xml:space="preserve" font-size="14" y="56.937"
                  stroke="none">ABOOG176</text><path d="M52.7132 84.7559 L60 84.7559 L60 85.6063 L52.7132 85.6063 Z"
                  stroke="none"/>
            <text x="24.5039" xml:space="preserve" y="79.5827" stroke="none">NT1.13</text><line stroke-linecap="butt"
                  fill="none" x1="60.0747" x2="60.0747" y1="70.7244"
                  stroke-linejoin="bevel" y2="99.6378" stroke-width="0.8504"/>
            <path d="M60.4999 70.7244 L94.6898 70.7244 L94.6898 71.5748 L60.4999 71.5748 Z"
                  stroke="none"/>
            <text x="97.5245" xml:space="preserve" font-size="14" y="75.6457"
                  stroke="none"></text>
            <path d="M60.4999 98.7874 L71 98.7874 L71 99.6378 L60.4999 99.6378 Z"
                  stroke="none"/>
            <text x="35.6278" xml:space="preserve" y="93.6142" stroke="none">NT1.17</text><line stroke-linecap="butt"
                  fill="none" x1="71.1986" x2="71.1986" y1="89.4331"
                  stroke-linejoin="bevel" y2="108.9921" stroke-width="0.8504"/>
            <path d="M71.6238 89.4331 L90.9819 89.4331 L90.9819 90.2835 L71.6238 90.2835 Z"
                  stroke="none"/>
            <text x="93.8165" xml:space="preserve" font-size="14" y="94.3543"
                  stroke="none">X84321</text><path d="M71.6238 108.1417 L83.9367 108.1417 L83.9367 108.9921 L71.6238 108.9921 Z"
                  stroke="none"/>
            <text x="86.7714" xml:space="preserve" font-size="14" y="113.063"
                  stroke="none">AF183957</text><path d="M31.7632 143.2205 L35 143.2205 L35 144.0709 L31.7632 144.0709 Z"
                  stroke="none"/>
            <text x="5.4219" xml:space="preserve" y="138.0473" stroke="none">NT1.4</text><line stroke-linecap="butt"
                  fill="none" x1="35.0459" x2="35.0459" y1="126.8504"
                  stroke-linejoin="bevel" y2="160.4409" stroke-width="0.8504"/>
            <path d="M35.4711 126.8504 L62.6159 126.8504 L62.6159 127.7008 L35.4711 127.7008 Z"
                  stroke="none"/>
            <text x="65.4506" xml:space="preserve" font-size="14" y="131.7717"
                  stroke="none">AF114809</text><path d="M35.4711 159.5906 L45 159.5906 L45 160.441 L35.4711 160.441 Z"
                  stroke="none"/>
            <text x="15.5792" xml:space="preserve" y="154.4173" stroke="none">NT1.8</text><line stroke-linecap="butt"
                  fill="none" x1="45.2428" x2="45.2428" y1="145.5591"
                  stroke-linejoin="bevel" y2="174.4724" stroke-width="0.8504"/>
            <path d="M45.668 145.5591 L55.0146 145.5591 L55.0146 146.4095 L45.668 146.4095 Z"
                  stroke="none"/>
            <text x="57.8492" xml:space="preserve" font-size="14" y="150.4803"
                  stroke="none">X84447</text><path d="M45.668 173.6221 L45 173.6221 L45 174.4725 L45.668 174.4725 Z"
                  stroke="none"/>
            <text x="15.0362" xml:space="preserve" y="168.4488" stroke="none">NT1.7</text><line stroke-linecap="butt"
                  fill="none" x1="44.6866" x2="44.6866" y1="164.2677"
                  stroke-linejoin="bevel" y2="183.8268" stroke-width="0.8504"/>
            <path d="M45.1118 164.2677 L42.7783 164.2677 L42.7783 165.1181 L45.1118 165.1181 Z"
                  stroke="none"/>
            <text x="45.6129" xml:space="preserve" font-size="14" y="169.189"
                  stroke="none"></text>
            <path d="M45.1118 182.9764 L43.149 182.9764 L43.149 183.8268 L45.1118 183.8268 Z"
                  stroke="none"/>
            <text x="45.9837" xml:space="preserve" font-size="14" y="187.8976"
                  stroke="none"></text>
        </g>
    </g>
</svg>
