<?xml version="1.0"?>
<!DOCTYPE svg PUBLIC '-//W3C//DTD SVG 1.0//EN'
    'http://www.w3.org/TR/2001/REC-SVG-20010904/DTD/svg10.dtd' >

<svg fill-opacity="1" xmlns:xlink="http://www.w3.org/1999/xlink"
     color-rendering="auto" color-interpolation="auto" stroke="black"
     text-rendering="auto" stroke-linecap="square" stroke-miterlimit="10"
     stroke-opacity="1" shape-rendering="auto" fill="black"
     stroke-dasharray="none" font-weight="normal" stroke-width="1"
     xmlns="http://www.w3.org/2000/svg" font-family="&apos;Dialog&apos;"
     font-style="normal" stroke-linejoin="miter" font-size="12"
     stroke-dashoffset="0" image-rendering="auto">
    <!--Generated by the Batik Graphics2D SVG Generator-->
    <defs id="genericDefs"/>
    <g>
        <g fill="white" stroke="white">
            <rect x="0" width="201" height="541" y="0" stroke="none"/>
            <path fill="black"
                  d="M5 327.06 L44 327.06 L44 327.9104 L5 327.9104 Z"
                  stroke="none"/>
        </g>
        <g font-family="&apos;Arial&apos;" font-size="9">
            <text x="8.5039" xml:space="preserve" y="321.8867" stroke="none">NT1.55</text><line stroke-linecap="butt"
                  fill="none" x1="44.1276" x2="44.1276" y1="156.9231"
                  stroke-linejoin="bevel" y2="497.1968" stroke-width="0.8504"/>
            <path d="M44.5528 156.9231 L64 156.9231 L64 157.7735 L44.5528 157.7735 Z"
                  stroke="none"/>
            <text x="34.7711" xml:space="preserve" y="151.7499" stroke="none">NT1.2</text><line stroke-linecap="butt"
                  fill="none" x1="64.3554" x2="64.3554" y1="14.5984"
                  stroke-linejoin="bevel" y2="300.0982" stroke-width="0.8504"/>
            <path d="M64.7806 14.5984 L101.4302 14.5984 L101.4302 15.4488 L64.7806 15.4488 Z"
                  stroke="none"/>
            <text x="104.2648" xml:space="preserve" font-size="14" y="19.5197"
                  stroke="none">DQ883809</text><path d="M64.7806 299.2478 L66 299.2478 L66 300.0982 L64.7806 300.0982 Z"
                  stroke="none"/>
            <text x="36.3675" xml:space="preserve" y="294.0746" stroke="none">NT1.3</text><line stroke-linecap="butt"
                  fill="none" x1="66.018" x2="66.018" y1="174.6452"
                  stroke-linejoin="bevel" y2="424.7008" stroke-width="0.8504"/>
            <path d="M66.4432 174.6452 L71 174.6452 L71 175.4956 L66.4432 175.4956 Z"
                  stroke="none"/>
            <text x="41.1176" xml:space="preserve" y="169.472" stroke="none">NT1.5</text><line stroke-linecap="butt"
                  fill="none" x1="70.8209" x2="70.8209" y1="33.3071"
                  stroke-linejoin="bevel" y2="316.8337" stroke-width="0.8504"/>
            <path d="M71.2461 33.3071 L91.4548 33.3071 L91.4548 34.1575 L71.2461 34.1575 Z"
                  stroke="none"/>
            <text x="94.2895" xml:space="preserve" font-size="14" y="38.2284"
                  stroke="none">AY743283</text><path d="M71.2461 315.9833 L74 315.9833 L74 316.8337 L71.2461 316.8337 Z"
                  stroke="none"/>
            <text x="44.3109" xml:space="preserve" y="310.8101" stroke="none">NT1.7</text><line stroke-linecap="butt"
                  fill="none" x1="73.9613" x2="73.9613" y1="252.5492"
                  stroke-linejoin="bevel" y2="380.2678" stroke-width="0.8504"/>
            <path d="M74.3865 252.5492 L76 252.5492 L76 253.3996 L74.3865 253.3996 Z"
                  stroke="none"/>
            <text x="46.3297" xml:space="preserve" y="247.376" stroke="none">NT1.8</text><line stroke-linecap="butt"
                  fill="none" x1="75.9933" x2="75.9933" y1="193.5"
                  stroke-linejoin="bevel" y2="312.4489" stroke-width="0.8504"/>
            <path d="M76.4185 193.5 L78 193.5 L78 194.3504 L76.4185 194.3504 Z"
                  stroke="none"/>
            <text x="41.9268" xml:space="preserve" y="188.3268" stroke="none">NT1.10</text><line stroke-linecap="butt"
                  fill="none" x1="77.4712" x2="77.4712" y1="133.8662"
                  stroke-linejoin="bevel" y2="253.9843" stroke-width="0.8504"/>
            <path d="M77.8964 133.8662 L80 133.8662 L80 134.7166 L77.8964 134.7166 Z"
                  stroke="none"/>
            <text x="44.5789" xml:space="preserve" y="128.6929" stroke="none">NT1.13</text><line stroke-linecap="butt"
                  fill="none" x1="80.1497" x2="80.1497" y1="94.1103"
                  stroke-linejoin="bevel" y2="174.4725" stroke-width="0.8504"/>
            <path d="M80.5749 94.1103 L82 94.1103 L82 94.9606 L80.5749 94.9606 Z"
                  stroke="none"/>
            <text x="46.3733" xml:space="preserve" y="88.937" stroke="none">NT1.15</text><line stroke-linecap="butt"
                  fill="none" x1="81.997" x2="81.997" y1="66.0473"
                  stroke-linejoin="bevel" y2="123.0237" stroke-width="0.8504"/>
            <path d="M82.4222 66.0473 L87 66.0473 L87 66.8976 L82.4222 66.8976 Z"
                  stroke="none"/>
            <text x="50.9388" xml:space="preserve" y="60.874" stroke="none">NT1.19</text><line stroke-linecap="butt"
                  fill="none" x1="86.5229" x2="86.5229" y1="52.0158"
                  stroke-linejoin="bevel" y2="80.9291" stroke-width="0.8504"/>
            <path d="M86.9481 52.0158 L93.8563 52.0158 L93.8563 52.8662 L86.9481 52.8662 Z"
                  stroke="none"/>
            <text x="96.691" xml:space="preserve" font-size="14" y="56.937"
                  stroke="none">AY876378</text><path d="M86.9481 80.0788 L92 80.0788 L92 80.9291 L86.9481 80.9291 Z"
                  stroke="none"/>
            <text x="56.4016" xml:space="preserve" y="74.9055" stroke="none">NT1.23</text><line stroke-linecap="butt"
                  fill="none" x1="91.9724" x2="91.9724" y1="70.7244"
                  stroke-linejoin="bevel" y2="90.2835" stroke-width="0.8504"/>
            <path d="M92.3976 70.7244 L94.78 70.7244 L94.78 71.5748 L92.3976 71.5748 Z"
                  stroke="none"/>
            <text x="97.6146" xml:space="preserve" font-size="14" y="75.6457"
                  stroke="none">AY743256</text><path d="M92.3976 89.4331 L95.6112 89.4331 L95.6112 90.2835 L92.3976 90.2835 Z"
                  stroke="none"/>
            <text x="98.4459" xml:space="preserve" font-size="14" y="94.3543"
                  stroke="none">AY743259</text><path d="M82.4222 122.1732 L84 122.1732 L84 123.0236 L82.4222 123.0236 Z"
                  stroke="none"/>
            <text x="48.5506" xml:space="preserve" y="117" stroke="none">NT1.17</text><line stroke-linecap="butt"
                  fill="none" x1="84.1214" x2="84.1214" y1="108.1418"
                  stroke-linejoin="bevel" y2="137.0551" stroke-width="0.8504"/>
            <path d="M84.5467 108.1418 L94.3182 108.1418 L94.3182 108.9921 L84.5467 108.9921 Z"
                  stroke="none"/>
            <text x="97.1528" xml:space="preserve" font-size="14" y="113.063"
                  stroke="none">Y11329</text><path d="M84.5467 136.2047 L99 136.2047 L99 137.0551 L84.5467 137.0551 Z"
                  stroke="none"/>
            <text x="63.4213" xml:space="preserve" y="131.0315" stroke="none">NT1.36</text><line stroke-linecap="butt"
                  fill="none" x1="98.9921" x2="98.9921" y1="126.8504"
                  stroke-linejoin="bevel" y2="146.4095" stroke-width="0.8504"/>
            <path d="M99.4173 126.8504 L99.0287 126.8504 L99.0287 127.7008 L99.4173 127.7008 Z"
                  stroke="none"/>
            <text x="101.8634" xml:space="preserve" font-size="14" y="131.7717"
                  stroke="none"></text>
            <path d="M99.4173 145.5591 L99.3058 145.5591 L99.3058 146.4095 L99.4173 146.4095 Z"
                  stroke="none"/>
            <text x="102.1405" xml:space="preserve" font-size="14" y="150.4803"
                  stroke="none">DQOO3135</text><path d="M80.5749 173.6221 L89 173.6221 L89 174.4725 L80.5749 174.4725 Z"
                  stroke="none"/>
            <text x="52.9181" xml:space="preserve" y="168.4489" stroke="none">NT1.20</text><line stroke-linecap="butt"
                  fill="none" x1="88.4625" x2="88.4625" y1="164.2677"
                  stroke-linejoin="bevel" y2="183.8268" stroke-width="0.8504"/>
            <path d="M88.8877 164.2677 L95.6112 164.2677 L95.6112 165.1181 L88.8877 165.1181 Z"
                  stroke="none"/>
            <text x="98.4459" xml:space="preserve" font-size="14" y="169.189"
                  stroke="none">AJ549111</text><path d="M88.8877 182.9764 L99.7676 182.9764 L99.7676 183.8268 L88.8877 183.8268 Z"
                  stroke="none"/>
            <text x="102.6023" xml:space="preserve" font-size="14" y="187.8976"
                  stroke="none">Y11332</text><path d="M77.8964 253.1339 L80 253.1339 L80 253.9843 L77.8964 253.9843 Z"
                  stroke="none"/>
            <text x="44.1832" xml:space="preserve" y="247.9607" stroke="none">NT1.12</text><line stroke-linecap="butt"
                  fill="none" x1="79.6879" x2="79.6879" y1="229.7481"
                  stroke-linejoin="bevel" y2="277.3701" stroke-width="0.8504"/>
            <path d="M80.1131 229.7481 L95 229.7481 L95 230.5985 L80.1131 230.5985 Z"
                  stroke="none"/>
            <text x="59.7531" xml:space="preserve" y="224.5748" stroke="none">NT1.30</text><line stroke-linecap="butt"
                  fill="none" x1="95.2975" x2="95.2975" y1="211.0394"
                  stroke-linejoin="bevel" y2="249.3071" stroke-width="0.8504"/>
            <path d="M95.7227 211.0394 L96 211.0394 L96 211.8898 L95.7227 211.8898 Z"
                  stroke="none"/>
            <text x="60.558" xml:space="preserve" y="205.8662" stroke="none">NT1.33</text><line stroke-linecap="butt"
                  fill="none" x1="96.1288" x2="96.1288" y1="201.6851"
                  stroke-linejoin="bevel" y2="221.2441" stroke-width="0.8504"/>
            <path d="M96.554 201.6851 L100.9684 201.6851 L100.9684 202.5355 L96.554 202.5355 Z"
                  stroke="none"/>
            <text x="103.803" xml:space="preserve" font-size="14" y="206.6063"
                  stroke="none">AJ585986</text><path d="M96.554 220.3938 L100.9684 220.3938 L100.9684 221.2442 L96.554 221.2442 Z"
                  stroke="none"/>
            <text x="103.803" xml:space="preserve" font-size="14" y="225.315"
                  stroke="none">Y11334</text><path d="M95.7227 248.4567 L99 248.4567 L99 249.3071 L95.7227 249.3071 Z"
                  stroke="none"/>
            <text x="63.4213" xml:space="preserve" y="243.2835" stroke="none">NT1.37</text><line stroke-linecap="butt"
                  fill="none" x1="98.9921" x2="98.9921" y1="239.1024"
                  stroke-linejoin="bevel" y2="258.6615" stroke-width="0.8504"/>
            <path d="M99.4173 239.1024 L102.6309 239.1024 L102.6309 239.9528 L99.4173 239.9528 Z"
                  stroke="none"/>
            <text x="105.4656" xml:space="preserve" font-size="14" y="244.0237"
                  stroke="none">AJ585984</text><path d="M99.4173 257.8111 L104.8477 257.8111 L104.8477 258.6615 L99.4173 258.6615 Z"
                  stroke="none"/>
            <text x="107.6823" xml:space="preserve" font-size="14" y="262.7323"
                  stroke="none">AJ585981</text><path d="M80.1131 276.5197 L94.6876 276.5197 L94.6876 277.3701 L80.1131 277.3701 Z"
                  stroke="none"/>
            <text x="97.5222" xml:space="preserve" font-size="14" y="281.441"
                  stroke="none">AY743262</text><path d="M76.4185 311.5984 L78 311.5984 L78 312.4489 L76.4185 312.4489 Z"
                  stroke="none"/>
            <text x="43.763" xml:space="preserve" y="306.4252" stroke="none">NT1.11</text><line stroke-linecap="butt"
                  fill="none" x1="77.933" x2="77.933" y1="295.2284"
                  stroke-linejoin="bevel" y2="328.8189" stroke-width="0.8504"/>
            <path d="M78.3582 295.2284 L100.3218 295.2284 L100.3218 296.0788 L78.3582 296.0788 Z"
                  stroke="none"/>
            <text x="103.1564" xml:space="preserve" font-size="14" y="300.1497"
                  stroke="none">DQS44634</text><path d="M78.3582 327.9685 L82 327.9685 L82 328.8189 L78.3582 328.8189 Z"
                  stroke="none"/>
            <text x="46.7033" xml:space="preserve" y="322.7953" stroke="none">NT1.16</text><line stroke-linecap="butt"
                  fill="none" x1="82.2741" x2="82.2741" y1="313.9371"
                  stroke-linejoin="bevel" y2="342.8505" stroke-width="0.8504"/>
            <path d="M82.6993 313.9371 L98.2898 313.9371 L98.2898 314.7875 L82.6993 314.7875 Z"
                  stroke="none"/>
            <text x="101.1244" xml:space="preserve" font-size="14" y="318.8583"
                  stroke="none">Y13041</text><path d="M82.6993 342.0001 L92 342.0001 L92 342.8505 L82.6993 342.8505 Z"
                  stroke="none"/>
            <text x="56.7051" xml:space="preserve" y="336.8268" stroke="none">NT1.24</text><line stroke-linecap="butt"
                  fill="none" x1="92.2495" x2="92.2495" y1="332.6458"
                  stroke-linejoin="bevel" y2="352.2048" stroke-width="0.8504"/>
            <path d="M92.6747 332.6458 L108.6346 332.6458 L108.6346 333.4962 L92.6747 333.4962 Z"
                  stroke="none"/>
            <text x="111.4693" xml:space="preserve" font-size="14" y="337.567"
                  stroke="none">Y13038</text><path d="M92.6747 351.3544 L110.2972 351.3544 L110.2972 352.2048 L92.6747 352.2048 Z"
                  stroke="none"/>
            <text x="113.1318" xml:space="preserve" font-size="14" y="356.2757"
                  stroke="none">AY743264</text><path d="M74.3865 379.4174 L90 379.4174 L90 380.2678 L74.3865 380.2678 Z"
                  stroke="none"/>
            <text x="55.3085" xml:space="preserve" y="374.2442" stroke="none">NT1.21</text><line stroke-linecap="butt"
                  fill="none" x1="89.4785" x2="89.4785" y1="370.063"
                  stroke-linejoin="bevel" y2="389.6221" stroke-width="0.8504"/>
            <path d="M89.9037 370.063 L100.137 370.063 L100.137 370.9135 L89.9037 370.9135 Z"
                  stroke="none"/>
            <text x="102.9717" xml:space="preserve" font-size="14" y="374.9843"
                  stroke="none">Y11333</text><path d="M89.9037 388.7717 L101.6149 388.7717 L101.6149 389.6221 L89.9037 389.6221 Z"
                  stroke="none"/>
            <text x="104.4495" xml:space="preserve" font-size="14" y="393.693"
                  stroke="none">Y11331</text><path d="M66.4432 423.8504 L70 423.8504 L70 424.7008 L66.4432 424.7008 Z"
                  stroke="none"/>
            <text x="40.7351" xml:space="preserve" y="418.6772" stroke="none">NT1.4</text><line stroke-linecap="butt"
                  fill="none" x1="70.3591" x2="70.3591" y1="407.4803"
                  stroke-linejoin="bevel" y2="441.0709" stroke-width="0.8504"/>
            <path d="M70.7843 407.4804 L92.1938 407.4804 L92.1938 408.3308 L70.7843 408.3308 Z"
                  stroke="none"/>
            <text x="95.0284" xml:space="preserve" font-size="14" y="412.4016"
                  stroke="none">AY743274</text><path d="M70.7843 440.2206 L76 440.2206 L76 441.071 L70.7843 441.071 Z"
                  stroke="none"/>
            <text x="46.6991" xml:space="preserve" y="435.0473" stroke="none">NT1.9</text><line stroke-linecap="butt"
                  fill="none" x1="76.3628" x2="76.3628" y1="426.189"
                  stroke-linejoin="bevel" y2="455.1024" stroke-width="0.8504"/>
            <path d="M76.788 426.1891 L98.1051 426.1891 L98.1051 427.0395 L76.788 427.0395 Z"
                  stroke="none"/>
            <text x="100.9398" xml:space="preserve" font-size="14" y="431.1103"
                  stroke="none">AY743277</text><path d="M76.788 454.2521 L82 454.2521 L82 455.1025 L76.788 455.1025 Z"
                  stroke="none"/>
            <text x="46.2679" xml:space="preserve" y="449.0788" stroke="none">NT1.14</text><line stroke-linecap="butt"
                  fill="none" x1="81.8123" x2="81.8123" y1="444.8977"
                  stroke-linejoin="bevel" y2="464.4568" stroke-width="0.8504"/>
            <path d="M82.2376 444.8977 L102.1692 444.8977 L102.1692 445.7481 L82.2376 445.7481 Z"
                  stroke="none"/>
            <text x="105.0038" xml:space="preserve" font-size="14" y="449.819"
                  stroke="none">AY743279</text><path d="M82.2376 463.6064 L103.0928 463.6064 L103.0928 464.4568 L82.2376 464.4568 Z"
                  stroke="none"/>
            <text x="105.9274" xml:space="preserve" font-size="14" y="468.5276"
                  stroke="none">AY743280</text><path d="M44.5528 496.3465 L45 496.3465 L45 497.1969 L44.5528 497.1969 Z"
                  stroke="none"/>
            <text x="16.4322" xml:space="preserve" y="491.1732" stroke="none">NT1.1</text><line stroke-linecap="butt"
                  fill="none" x1="44.6819" x2="44.6819" y1="482.315"
                  stroke-linejoin="bevel" y2="511.2284" stroke-width="0.8504"/>
            <path d="M45.1071 482.315 L84.6199 482.315 L84.6199 483.1654 L45.1071 483.1654 Z"
                  stroke="none"/>
            <text x="87.4546" xml:space="preserve" font-size="14" y="487.2362"
                  stroke="none">D0022076</text><path d="M45.1071 510.378 L71 510.378 L71 511.2284 L45.1071 511.2284 Z"
                  stroke="none"/>
            <text x="41.1705" xml:space="preserve" y="505.2048" stroke="none">NT1.6</text><line stroke-linecap="butt"
                  fill="none" x1="70.821" x2="70.821" y1="501.0237"
                  stroke-linejoin="bevel" y2="520.5827" stroke-width="0.8504"/>
            <path d="M71.2462 501.0237 L106.5103 501.0237 L106.5103 501.8741 L71.2462 501.8741 Z"
                  stroke="none"/>
            <text x="109.3449" xml:space="preserve" font-size="14" y="505.9449"
                  stroke="none">215059.0</text><path d="M71.2462 519.7324 L110.2972 519.7324 L110.2972 520.5827 L71.2462 520.5827 Z"
                  stroke="none"/>
            <text x="113.1319" xml:space="preserve" font-size="14" y="524.6536"
                  stroke="none">L09663</text>
        </g>
    </g>
</svg>
