<?xml version="1.0"?>
<!DOCTYPE svg PUBLIC '-//W3C//DTD SVG 1.0//EN'
    'http://www.w3.org/TR/2001/REC-SVG-20010904/DTD/svg10.dtd' >

<svg fill-opacity="1" xmlns:xlink="http://www.w3.org/1999/xlink"
     color-rendering="auto" color-interpolation="auto" stroke="black"
     text-rendering="auto" stroke-linecap="square" stroke-miterlimit="10"
     stroke-opacity="1" shape-rendering="auto" fill="black"
     stroke-dasharray="none" font-weight="normal" stroke-width="1"
     xmlns="http://www.w3.org/2000/svg" font-family="&apos;Dialog&apos;"
     font-style="normal" stroke-linejoin="miter" font-size="12"
     stroke-dashoffset="0" image-rendering="auto">
    <!--Generated by the Batik Graphics2D SVG Generator-->
    <defs id="genericDefs"/>
    <g>
        <g fill="white" stroke="white">
            <rect x="0" width="168" height="336" y="0" stroke="none"/>
            <path fill="black"
                  d="M5 205.0335 L43 205.0335 L43 205.8839 L5 205.8839 Z"
                  stroke="none"/>
        </g>
        <g font-family="&apos;Arial&apos;" font-size="9">
            <text x="8.5039" xml:space="preserve" y="199.8602" stroke="none">NT1.31</text><line stroke-linecap="butt"
                  fill="none" x1="42.674" x2="42.674" y1="142.0512"
                  stroke-linejoin="bevel" y2="268.0157" stroke-width="0.8504"/>
            <path d="M43.0992 142.0512 L46 142.0512 L46 142.9016 L43.0992 142.9016 Z"
                  stroke="none"/>
            <text x="17.7109" xml:space="preserve" y="136.878" stroke="none">NT1.1</text><line stroke-linecap="butt"
                  fill="none" x1="45.9605" x2="45.9605" y1="91.7717"
                  stroke-linejoin="bevel" y2="193.1811" stroke-width="0.8504"/>
            <path d="M46.3857 91.7717 L47 91.7717 L47 92.622 L46.3857 92.622 Z"
                  stroke="none"/>
            <text x="16.9923" xml:space="preserve" y="86.5984" stroke="none">NT1.2</text><line stroke-linecap="butt"
                  fill="none" x1="46.5767" x2="46.5767" y1="42.6614"
                  stroke-linejoin="bevel" y2="141.7323" stroke-width="0.8504"/>
            <path d="M47.0019 42.6614 L50 42.6614 L50 43.5118 L47.0019 43.5118 Z"
                  stroke="none"/>
            <text x="20.1365" xml:space="preserve" y="37.4882" stroke="none">NT1.4</text><line stroke-linecap="butt"
                  fill="none" x1="49.7606" x2="49.7606" y1="23.9528"
                  stroke-linejoin="bevel" y2="62.2205" stroke-width="0.8504"/>
            <path d="M50.1858 23.9528 L55 23.9528 L55 24.8032 L50.1858 24.8032 Z"
                  stroke="none"/>
            <text x="20.9312" xml:space="preserve" y="18.7795" stroke="none">NT1.11</text><line stroke-linecap="butt"
                  fill="none" x1="55.1012" x2="55.1012" y1="14.5984"
                  stroke-linejoin="bevel" y2="34.1575" stroke-width="0.8504"/>
            <path d="M55.5264 14.5984 L67.7195 14.5984 L67.7195 15.4488 L55.5264 15.4488 Z"
                  stroke="none"/>
            <text x="70.5541" xml:space="preserve" font-size="14" y="19.5197"
                  stroke="none">X74724</text><path d="M55.5264 33.3071 L69.0546 33.3071 L69.0546 34.1575 L55.5264 34.1575 Z"
                  stroke="none"/>
            <text x="71.8893" xml:space="preserve" font-size="14" y="38.2283"
                  stroke="none">Y08430</text><path d="M50.1858 61.3701 L51 61.3701 L51 62.2205 L50.1858 62.2205 Z"
                  stroke="none"/>
            <text x="21.4453" xml:space="preserve" y="56.1969" stroke="none">NT1.7</text><line stroke-linecap="butt"
                  fill="none" x1="51.0957" x2="51.0957" y1="52.0157"
                  stroke-linejoin="bevel" y2="71.5748" stroke-width="0.8504"/>
            <path d="M51.5209 52.0158 L58.9896 52.0158 L58.9896 52.8661 L51.5209 52.8661 Z"
                  stroke="none"/>
            <text x="61.8242" xml:space="preserve" font-size="14" y="56.937"
                  stroke="none">X74689</text><path d="M51.5209 70.7244 L67.4114 70.7244 L67.4114 71.5748 L51.5209 71.5748 Z"
                  stroke="none"/>
            <text x="70.246" xml:space="preserve" font-size="14" y="75.6457"
                  stroke="none">U46579</text><path d="M47.0019 140.8819 L49 140.8819 L49 141.7323 L47.0019 141.7323 Z"
                  stroke="none"/>
            <text x="18.9804" xml:space="preserve" y="135.7087" stroke="none">NT1.3</text><line stroke-linecap="butt"
                  fill="none" x1="48.6308" x2="48.6308" y1="117.4961"
                  stroke-linejoin="bevel" y2="165.1181" stroke-width="0.8504"/>
            <path d="M49.056 117.4961 L50 117.4961 L50 118.3465 L49.056 118.3465 Z"
                  stroke="none"/>
            <text x="20.1599" xml:space="preserve" y="112.3228" stroke="none">NT1.5</text><line stroke-linecap="butt"
                  fill="none" x1="49.8633" x2="49.8633" y1="98.7874"
                  stroke-linejoin="bevel" y2="137.0551" stroke-width="0.8504"/>
            <path d="M50.2885 98.7874 L55 98.7874 L55 99.6378 L50.2885 99.6378 Z"
                  stroke="none"/>
            <text x="19.2487" xml:space="preserve" y="93.6142" stroke="none">NT1.10</text><line stroke-linecap="butt"
                  fill="none" x1="54.7931" x2="54.7931" y1="89.4331"
                  stroke-linejoin="bevel" y2="108.9921" stroke-width="0.8504"/>
            <path d="M55.2183 89.4331 L67.4114 89.4331 L67.4114 90.2835 L55.2183 90.2835 Z"
                  stroke="none"/>
            <text x="70.246" xml:space="preserve" font-size="14" y="94.3543"
                  stroke="none">X74712</text><path d="M55.2183 108.1417 L77.9899 108.1417 L77.9899 108.9921 L55.2183 108.9921 Z"
                  stroke="none"/>
            <text x="80.8246" xml:space="preserve" font-size="14" y="113.063"
                  stroke="none"></text>
            <path d="M50.2885 136.2047 L53 136.2047 L53 137.0551 L50.2885 137.0551 Z"
                  stroke="none"/>
            <text x="23.5888" xml:space="preserve" y="131.0315" stroke="none">NT1.9</text><line stroke-linecap="butt"
                  fill="none" x1="53.2525" x2="53.2525" y1="126.8504"
                  stroke-linejoin="bevel" y2="146.4095" stroke-width="0.8504"/>
            <path d="M53.6777 126.8504 L65.8708 126.8504 L65.8708 127.7008 L53.6777 127.7008 Z"
                  stroke="none"/>
            <text x="68.7054" xml:space="preserve" font-size="14" y="131.7717"
                  stroke="none"></text>
            <path d="M53.6777 145.5591 L65.0492 145.5591 L65.0492 146.4095 L53.6777 146.4095 Z"
                  stroke="none"/>
            <text x="67.8838" xml:space="preserve" font-size="14" y="150.4803"
                  stroke="none">X74701</text><path d="M49.056 164.2677 L62.687 164.2677 L62.687 165.1181 L49.056 165.1181 Z"
                  stroke="none"/>
            <text x="65.5216" xml:space="preserve" font-size="14" y="169.189"
                  stroke="none">X76333</text><path d="M46.3857 192.3307 L53 192.3307 L53 193.1811 L46.3857 193.1811 Z"
                  stroke="none"/>
            <text x="23.3834" xml:space="preserve" y="187.1575" stroke="none">NT1.8</text><line stroke-linecap="butt"
                  fill="none" x1="53.0471" x2="53.0471" y1="182.9764"
                  stroke-linejoin="bevel" y2="202.5354" stroke-width="0.8504"/>
            <path d="M53.4723 182.9764 L59.5031 182.9764 L59.5031 183.8268 L53.4723 183.8268 Z"
                  stroke="none"/>
            <text x="62.3378" xml:space="preserve" font-size="14" y="187.8976"
                  stroke="none">X74715</text><path d="M53.4723 201.6851 L83.1252 201.6851 L83.1252 202.5355 L53.4723 202.5355 Z"
                  stroke="none"/>
            <text x="85.9598" xml:space="preserve" font-size="14" y="206.6063"
                  stroke="none">Y13830</text><path d="M43.0992 267.1654 L50 267.1654 L50 268.0158 L43.0992 268.0158 Z"
                  stroke="none"/>
            <text x="20.7263" xml:space="preserve" y="261.9921" stroke="none">NT1.6</text><line stroke-linecap="butt"
                  fill="none" x1="50.3768" x2="50.3768" y1="220.3937"
                  stroke-linejoin="bevel" y2="314.7874" stroke-width="0.8504"/>
            <path d="M50.802 220.3937 L79.1197 220.3937 L79.1197 221.2441 L50.802 221.2441 Z"
                  stroke="none"/>
            <text x="81.9544" xml:space="preserve" font-size="14" y="225.315"
                  stroke="none">X74713</text><path d="M50 262.4882 L74 262.4882 L74 263.3386 L50 263.3386 Z"
                  stroke="none"/>
            <text x="40.2396" xml:space="preserve" y="257.315" stroke="none">NT1.21</text><line stroke-linecap="butt"
                  fill="none" x1="74.4097" x2="74.4097" y1="248.4567"
                  stroke-linejoin="bevel" y2="277.3701" stroke-width="0.8504"/>
            <path d="M74.8349 248.4567 L77 248.4567 L77 249.3071 L74.8349 249.3071 Z"
                  stroke="none"/>
            <text x="41.5752" xml:space="preserve" y="243.2835" stroke="none">NT1.22</text><line stroke-linecap="butt"
                  fill="none" x1="77.08" x2="77.08" y1="239.1024"
                  stroke-linejoin="bevel" y2="258.6614" stroke-width="0.8504"/>
            <path d="M77.5052 239.1024 L80.1468 239.1024 L80.1468 239.9528 L77.5052 239.9528 Z"
                  stroke="none"/>
            <text x="82.9814" xml:space="preserve" font-size="14" y="244.0236"
                  stroke="none"></text>
            <path d="M77.5052 257.8111 L82.509 257.8111 L82.509 258.6615 L77.5052 258.6615 Z"
                  stroke="none"/>
            <text x="85.3436" xml:space="preserve" font-size="14" y="262.7323"
                  stroke="none">AF462458</text><path d="M74.8349 276.5197 L79.9413 276.5197 L79.9413 277.3701 L74.8349 277.3701 Z"
                  stroke="none"/>
            <text x="82.776" xml:space="preserve" font-size="14" y="281.441"
                  stroke="none">D0847123</text><path d="M50 295.2284 L77.271 295.2284 L77.271 296.0788 L50 296.0788 Z"
                  stroke="none"/>
            <text x="80.1057" xml:space="preserve" font-size="14" y="300.1497"
                  stroke="none">AF124055</text><path d="M50.802 313.9371 L85.1793 313.9371 L85.1793 314.7875 L50.802 314.7875 Z"
                  stroke="none"/>
            <text x="88.0139" xml:space="preserve" font-size="14" y="318.8583"
                  stroke="none">X74705</text>
        </g>
    </g>
</svg>
