<?xml version="1.0"?>
<!DOCTYPE svg PUBLIC '-//W3C//DTD SVG 1.0//EN'
    'http://www.w3.org/TR/2001/REC-SVG-20010904/DTD/svg10.dtd' >

<svg fill-opacity="1" xmlns:xlink="http://www.w3.org/1999/xlink"
     color-rendering="auto" color-interpolation="auto" stroke="black"
     text-rendering="auto" stroke-linecap="square" stroke-miterlimit="10"
     stroke-opacity="1" shape-rendering="auto" fill="black"
     stroke-dasharray="none" font-weight="normal" stroke-width="1"
     xmlns="http://www.w3.org/2000/svg" font-family="&apos;Dialog&apos;"
     font-style="normal" stroke-linejoin="miter" font-size="12"
     stroke-dashoffset="0" image-rendering="auto">
    <!--Generated by the Batik Graphics2D SVG Generator-->
    <defs id="genericDefs"/>
    <g>
        <g fill="white" stroke="white">
            <rect x="0" width="215" height="504" y="0" stroke="none"/>
            <path fill="black"
                  d="M5 283.3943 L43 283.3943 L43 284.2447 L5 284.2447 Z"
                  stroke="none"/>
        </g>
        <g font-family="&apos;Arial&apos;" font-size="9">
            <text x="8.5039" xml:space="preserve" y="278.221" stroke="none">NT1.51</text><line stroke-linecap="butt"
                  fill="none" x1="42.674" x2="42.674" y1="211.6606"
                  stroke-linejoin="bevel" y2="355.1279" stroke-width="0.8504"/>
            <path d="M43.0992 211.6606 L67 211.6606 L67 212.511 L43.0992 212.511 Z"
                  stroke="none"/>
            <text x="37.5177" xml:space="preserve" y="206.4873" stroke="none">NT1.5</text><line stroke-linecap="butt"
                  fill="none" x1="67.221" x2="67.221" y1="132.7699"
                  stroke-linejoin="bevel" y2="291.4016" stroke-width="0.8504"/>
            <path d="M67.6462 132.7699 L70 132.7699 L70 133.6203 L67.6462 133.6203 Z"
                  stroke="none"/>
            <text x="40.132" xml:space="preserve" y="127.5967" stroke="none">NT1.6</text><line stroke-linecap="butt"
                  fill="none" x1="69.7824" x2="69.7824" y1="47.4847"
                  stroke-linejoin="bevel" y2="218.9055" stroke-width="0.8504"/>
            <path d="M70.2076 47.4847 L74 47.4847 L74 48.3351 L70.2076 48.3351 Z"
                  stroke="none"/>
            <text x="43.9741" xml:space="preserve" y="42.3115" stroke="none">NT1.7</text><line stroke-linecap="butt"
                  fill="none" x1="73.6245" x2="73.6245" y1="14.5984"
                  stroke-linejoin="bevel" y2="81.2215" stroke-width="0.8504"/>
            <path d="M74.0497 14.5984 L87.7141 14.5984 L87.7141 15.4488 L74.0497 15.4488 Z"
                  stroke="none"/>
            <text x="90.5488" xml:space="preserve" font-size="14" y="19.5197"
                  stroke="none">X97888</text><path d="M74.0497 80.3711 L76 80.3711 L76 81.2215 L74.0497 81.2215 Z"
                  stroke="none"/>
            <text x="40.4281" xml:space="preserve" y="75.1978" stroke="none">NT1.10</text><line stroke-linecap="butt"
                  fill="none" x1="75.9725" x2="75.9725" y1="33.3071"
                  stroke-linejoin="bevel" y2="128.2854" stroke-width="0.8504"/>
            <path d="M76.3977 33.3071 L89.6352 33.3071 L89.6352 34.1575 L76.3977 34.1575 Z"
                  stroke="none"/>
            <text x="92.4698" xml:space="preserve" font-size="14" y="38.2283"
                  stroke="none">AJ539401</text><path d="M76.3977 127.435 L79 127.435 L79 128.2854 L76.3977 128.2854 Z"
                  stroke="none"/>
            <text x="43.8433" xml:space="preserve" y="122.2618" stroke="none">NT1.14</text><line stroke-linecap="butt"
                  fill="none" x1="79.3877" x2="79.3877" y1="81.248"
                  stroke-linejoin="bevel" y2="174.4725" stroke-width="0.8504"/>
            <path d="M79.813 81.248 L81 81.248 L81 82.0984 L79.813 82.0984 Z"
                  stroke="none"/>
            <text x="44.8313" xml:space="preserve" y="76.0748" stroke="none">NT1.15</text><line stroke-linecap="butt"
                  fill="none" x1="80.455" x2="80.455" y1="52.0157"
                  stroke-linejoin="bevel" y2="111.3307" stroke-width="0.8504"/>
            <path d="M80.8802 52.0158 L90.489 52.0158 L90.489 52.8661 L80.8802 52.8661 Z"
                  stroke="none"/>
            <text x="93.3236" xml:space="preserve" font-size="14" y="56.937"
                  stroke="none">X97883</text><path d="M80.8802 110.4803 L87 110.4803 L87 111.3307 L80.8802 111.3307 Z"
                  stroke="none"/>
            <text x="51.7411" xml:space="preserve" y="105.3071" stroke="none">NT1.20</text><line stroke-linecap="butt"
                  fill="none" x1="87.2855" x2="87.2855" y1="84.7559"
                  stroke-linejoin="bevel" y2="137.0551" stroke-width="0.8504"/>
            <path d="M87.7107 84.7559 L94 84.7559 L94 85.6063 L87.7107 85.6063 Z"
                  stroke="none"/>
            <text x="58.5716" xml:space="preserve" y="79.5827" stroke="none">NT1.34</text><line stroke-linecap="butt"
                  fill="none" x1="94.116" x2="94.116" y1="70.7244"
                  stroke-linejoin="bevel" y2="99.6378" stroke-width="0.8504"/>
            <path d="M94.5412 70.7244 L99.454 70.7244 L99.454 71.5748 L94.5412 71.5748 Z"
                  stroke="none"/>
            <text x="102.2886" xml:space="preserve" font-size="14" y="75.6457"
                  stroke="none"></text>
            <path d="M94.5412 98.7874 L98 98.7874 L98 99.6378 L94.5412 99.6378 Z"
                  stroke="none"/>
            <text x="61.9604" xml:space="preserve" y="93.6142" stroke="none">NT1.36</text><line stroke-linecap="butt"
                  fill="none" x1="97.5312" x2="97.5312" y1="89.4331"
                  stroke-linejoin="bevel" y2="108.9921" stroke-width="0.8504"/>
            <path d="M97.9564 89.4331 L106.4979 89.4331 L106.4979 90.2835 L97.9564 90.2835 Z"
                  stroke="none"/>
            <text x="109.3326" xml:space="preserve" font-size="14" y="94.3543"
                  stroke="none"></text>
            <path d="M97.9564 108.1417 L103.0827 108.1417 L103.0827 108.9921 L97.9564 108.9921 Z"
                  stroke="none"/>
            <text x="105.9173" xml:space="preserve" font-size="14" y="113.063"
                  stroke="none">AYOSGOOO</text><path d="M87.7107 136.2047 L90 136.2047 L90 137.0551 L87.7107 137.0551 Z"
                  stroke="none"/>
            <text x="54.2232" xml:space="preserve" y="131.0315" stroke="none">NT1.25</text><line stroke-linecap="butt"
                  fill="none" x1="89.8469" x2="89.8469" y1="126.8504"
                  stroke-linejoin="bevel" y2="146.4095" stroke-width="0.8504"/>
            <path d="M90.2721 126.8504 L101.802 126.8504 L101.802 127.7008 L90.2721 127.7008 Z"
                  stroke="none"/>
            <text x="104.6366" xml:space="preserve" font-size="14" y="131.7717"
                  stroke="none"></text>
            <path d="M90.2721 145.5591 L113.5418 145.5591 L113.5418 146.4095 L90.2721 146.4095 Z"
                  stroke="none"/>
            <text x="116.3765" xml:space="preserve" font-size="14" y="150.4803"
                  stroke="none">AY230848</text><path d="M79.813 173.6221 L101 173.6221 L101 174.4725 L79.813 174.4725 Z"
                  stroke="none"/>
            <text x="64.9751" xml:space="preserve" y="168.4488" stroke="none">NT1.40</text><line stroke-linecap="butt"
                  fill="none" x1="100.5195" x2="100.5195" y1="164.2677"
                  stroke-linejoin="bevel" y2="183.8268" stroke-width="0.8504"/>
            <path d="M100.9447 164.2677 L108.2055 164.2677 L108.2055 165.1181 L100.9447 165.1181 Z"
                  stroke="none"/>
            <text x="111.0402" xml:space="preserve" font-size="14" y="169.189"
                  stroke="none">AF105971</text><path d="M100.9447 182.9764 L108.6324 182.9764 L108.6324 183.8268 L100.9447 183.8268 Z"
                  stroke="none"/>
            <text x="111.4671" xml:space="preserve" font-size="14" y="187.8976"
                  stroke="none"></text>
            <path d="M70.2076 218.0551 L75 218.0551 L75 218.9055 L70.2076 218.9055 Z"
                  stroke="none"/>
            <text x="45.6685" xml:space="preserve" y="212.8819" stroke="none">NT1.8</text><line stroke-linecap="butt"
                  fill="none" x1="75.3322" x2="75.3322" y1="201.685"
                  stroke-linejoin="bevel" y2="235.2756" stroke-width="0.8504"/>
            <path d="M75.7574 201.685 L101.5885 201.685 L101.5885 202.5354 L75.7574 202.5354 Z"
                  stroke="none"/>
            <text x="104.4231" xml:space="preserve" font-size="14" y="206.6063"
                  stroke="none">AJ290448</text><path d="M75.7574 234.4252 L81 234.4252 L81 235.2756 L75.7574 235.2756 Z"
                  stroke="none"/>
            <text x="44.8842" xml:space="preserve" y="229.252" stroke="none">NT1.16</text><line stroke-linecap="butt"
                  fill="none" x1="80.455" x2="80.455" y1="220.3937"
                  stroke-linejoin="bevel" y2="249.3071" stroke-width="0.8504"/>
            <path d="M80.8802 220.3937 L86.4334 220.3937 L86.4334 221.2441 L80.8802 221.2441 Z"
                  stroke="none"/>
            <text x="89.2681" xml:space="preserve" font-size="14" y="225.315"
                  stroke="none">X97886</text><path d="M80.8802 248.4567 L84 248.4567 L84 249.3071 L80.8802 249.3071 Z"
                  stroke="none"/>
            <text x="48.5129" xml:space="preserve" y="243.2835" stroke="none">NT1.17</text><line stroke-linecap="butt"
                  fill="none" x1="84.0837" x2="84.0837" y1="239.1024"
                  stroke-linejoin="bevel" y2="258.6615" stroke-width="0.8504"/>
            <path d="M84.5089 239.1024 L87.0738 239.1024 L87.0738 239.9528 L84.5089 239.9528 Z"
                  stroke="none"/>
            <text x="89.9084" xml:space="preserve" font-size="14" y="244.0237"
                  stroke="none"></text>
            <path d="M84.5089 257.8111 L89.6352 257.8111 L89.6352 258.6615 L84.5089 258.6615 Z"
                  stroke="none"/>
            <text x="92.4699" xml:space="preserve" font-size="14" y="262.7323"
                  stroke="none"></text>
            <path d="M67.6462 290.5512 L86 290.5512 L86 291.4016 L67.6462 291.4016 Z"
                  stroke="none"/>
            <text x="49.9938" xml:space="preserve" y="285.378" stroke="none">NT1.18</text><line stroke-linecap="butt"
                  fill="none" x1="85.5779" x2="85.5779" y1="276.5197"
                  stroke-linejoin="bevel" y2="305.4331" stroke-width="0.8504"/>
            <path d="M86.0031 276.5197 L99.0271 276.5197 L99.0271 277.3701 L86.0031 277.3701 Z"
                  stroke="none"/>
            <text x="101.8617" xml:space="preserve" font-size="14" y="281.441"
                  stroke="none">AY373031</text><path d="M86.0031 304.5827 L94 304.5827 L94 305.4331 L86.0031 305.4331 Z"
                  stroke="none"/>
            <text x="58.1183" xml:space="preserve" y="299.4095" stroke="none">NT1.33</text><line stroke-linecap="butt"
                  fill="none" x1="93.6891" x2="93.6891" y1="295.2284"
                  stroke-linejoin="bevel" y2="314.7874" stroke-width="0.8504"/>
            <path d="M94.1143 295.2284 L113.5418 295.2284 L113.5418 296.0788 L94.1143 296.0788 Z"
                  stroke="none"/>
            <text x="116.3765" xml:space="preserve" font-size="14" y="300.1497"
                  stroke="none">AF195412</text><path d="M94.1143 313.9371 L118.8782 313.9371 L118.8782 314.7875 L94.1143 314.7875 Z"
                  stroke="none"/>
            <text x="121.7128" xml:space="preserve" font-size="14" y="318.8583"
                  stroke="none">AF251709</text><path d="M43.0992 354.2776 L45 354.2776 L45 355.128 L43.0992 355.128 Z"
                  stroke="none"/>
            <text x="16.9858" xml:space="preserve" y="349.1043" stroke="none">NT1.1</text><line stroke-linecap="butt"
                  fill="none" x1="45.2354" x2="45.2354" y1="332.6457"
                  stroke-linejoin="bevel" y2="376.7598" stroke-width="0.8504"/>
            <path d="M45.6606 332.6457 L75.7608 332.6457 L75.7608 333.4961 L45.6606 333.4961 Z"
                  stroke="none"/>
            <text x="78.5954" xml:space="preserve" font-size="14" y="337.5669"
                  stroke="none">AF105972</text><path d="M45.6606 375.9095 L54 375.9095 L54 376.7599 L45.6606 376.7599 Z"
                  stroke="none"/>
            <text x="23.9757" xml:space="preserve" y="370.7362" stroke="none">NT1.2</text><line stroke-linecap="butt"
                  fill="none" x1="53.5601" x2="53.5601" y1="351.3543"
                  stroke-linejoin="bevel" y2="401.315" stroke-width="0.8504"/>
            <path d="M53.9853 351.3543 L92.837 351.3543 L92.837 352.2047 L53.9853 352.2047 Z"
                  stroke="none"/>
            <text x="95.6716" xml:space="preserve" font-size="14" y="356.2756"
                  stroke="none">EF095149</text><path d="M53.9853 400.4646 L59 400.4646 L59 401.315 L53.9853 401.315 Z"
                  stroke="none"/>
            <text x="29.2459" xml:space="preserve" y="395.2914" stroke="none">NT1.3</text><line stroke-linecap="butt"
                  fill="none" x1="58.8964" x2="58.8964" y1="370.063"
                  stroke-linejoin="bevel" y2="431.7166" stroke-width="0.8504"/>
            <path d="M59.3216 370.063 L76.4012 370.063 L76.4012 370.9135 L59.3216 370.9135 Z"
                  stroke="none"/>
            <text x="79.2358" xml:space="preserve" font-size="14" y="374.9843"
                  stroke="none">AF360734</text><path d="M59.3216 430.8662 L63 430.8662 L63 431.7166 L59.3216 431.7166 Z"
                  stroke="none"/>
            <text x="33.1145" xml:space="preserve" y="425.693" stroke="none">NT1.4</text><line stroke-linecap="butt"
                  fill="none" x1="62.7385" x2="62.7385" y1="402.8032"
                  stroke-linejoin="bevel" y2="459.7796" stroke-width="0.8504"/>
            <path d="M63.1637 402.8032 L78 402.8032 L78 403.6536 L63.1637 403.6536 Z"
                  stroke="none"/>
            <text x="42.7497" xml:space="preserve" y="397.63" stroke="none">NT1.13</text><line stroke-linecap="butt"
                  fill="none" x1="78.3206" x2="78.3206" y1="388.7717"
                  stroke-linejoin="bevel" y2="417.6851" stroke-width="0.8504"/>
            <path d="M78.7458 388.7717 L97.533 388.7717 L97.533 389.6221 L78.7458 389.6221 Z"
                  stroke="none"/>
            <text x="100.3676" xml:space="preserve" font-size="14" y="393.693"
                  stroke="none">AY619712</text><path d="M78.7458 416.8347 L90 416.8347 L90 417.6852 L78.7458 417.6852 Z"
                  stroke="none"/>
            <text x="54.2761" xml:space="preserve" y="411.6615" stroke="none">NT1.26</text><line stroke-linecap="butt"
                  fill="none" x1="89.847" x2="89.847" y1="407.4804"
                  stroke-linejoin="bevel" y2="427.0394" stroke-width="0.8504"/>
            <path d="M90.2722 407.4804 L96.6792 407.4804 L96.6792 408.3308 L90.2722 408.3308 Z"
                  stroke="none"/>
            <text x="99.5138" xml:space="preserve" font-size="14" y="412.4016"
                  stroke="none"></text>
            <path d="M90.2722 426.1891 L115.6764 426.1891 L115.6764 427.0395 L90.2722 427.0395 Z"
                  stroke="none"/>
            <text x="118.5111" xml:space="preserve" font-size="14" y="431.1103"
                  stroke="none">AY619713</text><path d="M63.1637 458.9292 L76 458.9292 L76 459.7796 L63.1637 459.7796 Z"
                  stroke="none"/>
            <text x="46.0954" xml:space="preserve" y="453.756" stroke="none">NT1.9</text><line stroke-linecap="butt"
                  fill="none" x1="75.7591" x2="75.7591" y1="444.8977"
                  stroke-linejoin="bevel" y2="473.8111" stroke-width="0.8504"/>
            <path d="M76.1843 444.8977 L89.8487 444.8977 L89.8487 445.7481 L76.1843 445.7481 Z"
                  stroke="none"/>
            <text x="92.6833" xml:space="preserve" font-size="14" y="449.819"
                  stroke="none">AY619715</text><path d="M76.1843 472.9608 L87 472.9608 L87 473.8112 L76.1843 473.8112 Z"
                  stroke="none"/>
            <text x="53.1155" xml:space="preserve" y="467.7875" stroke="none">NT1.21</text><line stroke-linecap="butt"
                  fill="none" x1="87.2856" x2="87.2856" y1="463.6064"
                  stroke-linejoin="bevel" y2="483.1654" stroke-width="0.8504"/>
            <path d="M87.7108 463.6064 L88.1411 463.6064 L88.1411 464.4568 L87.7108 464.4568 Z"
                  stroke="none"/>
            <text x="90.9758" xml:space="preserve" font-size="14" y="468.5276"
                  stroke="none"></text>
            <path d="M87.7108 482.3151 L89.6353 482.3151 L89.6353 483.1655 L87.7108 483.1655 Z"
                  stroke="none"/>
            <text x="92.4699" xml:space="preserve" font-size="14" y="487.2363"
                  stroke="none">AY619716</text>
        </g>
    </g>
</svg>
