<?xml version="1.0"?>
<!DOCTYPE svg PUBLIC '-//W3C//DTD SVG 1.0//EN'
    'http://www.w3.org/TR/2001/REC-SVG-20010904/DTD/svg10.dtd' >

<svg fill-opacity="1" xmlns:xlink="http://www.w3.org/1999/xlink"
     color-rendering="auto" color-interpolation="auto" stroke="black"
     text-rendering="auto" stroke-linecap="square" stroke-miterlimit="10"
     stroke-opacity="1" shape-rendering="auto" fill="black"
     stroke-dasharray="none" font-weight="normal" stroke-width="1"
     xmlns="http://www.w3.org/2000/svg" font-family="&apos;Dialog&apos;"
     font-style="normal" stroke-linejoin="miter" font-size="12"
     stroke-dashoffset="0" image-rendering="auto">
    <!--Generated by the Batik Graphics2D SVG Generator-->
    <defs id="genericDefs"/>
    <g>
        <g fill="white" stroke="white">
            <rect x="0" width="171" height="373" y="0" stroke="none"/>
            <path fill="black"
                  d="M5 131.9528 L44 131.9528 L44 132.8032 L5 132.8032 Z"
                  stroke="none"/>
        </g>
        <g font-family="&apos;Arial&apos;" font-size="9">
            <text x="8.5039" xml:space="preserve" y="126.7795" stroke="none">NT1.36</text><line stroke-linecap="butt"
                  fill="none" x1="44.0748" x2="44.0748" y1="45"
                  stroke-linejoin="bevel" y2="218.9055" stroke-width="0.8504"/>
            <path d="M44.5 45 L52 45 L52 45.8504 L44.5 45.8504 Z" stroke="none"/>
            <text x="22.7727" xml:space="preserve" y="39.8268" stroke="none">NT1.7</text><line stroke-linecap="butt"
                  fill="none" x1="52.4232" x2="52.4232" y1="14.5984"
                  stroke-linejoin="bevel" y2="76.252" stroke-width="0.8504"/>
            <path d="M52.8484 14.5984 L74.9863 14.5984 L74.9863 15.4488 L52.8484 15.4488 Z"
                  stroke="none"/>
            <text x="77.8209" xml:space="preserve" font-size="14" y="19.5197"
                  stroke="none">X80725</text><path d="M52 33.3071 L81.5198 33.3071 L81.5198 34.1575 L52 34.1575 Z"
                  stroke="none"/>
            <text x="84.3544" xml:space="preserve" font-size="14" y="38.2283"
                  stroke="none">L16498</text><path d="M52.8484 75.4016 L64 75.4016 L64 76.252 L52.8484 76.252 Z"
                  stroke="none"/>
            <text x="27.9286" xml:space="preserve" y="70.2284" stroke="none">NT1.12</text><line stroke-linecap="butt"
                  fill="none" x1="63.4334" x2="63.4334" y1="61.3701"
                  stroke-linejoin="bevel" y2="90.2835" stroke-width="0.8504"/>
            <path d="M63.8586 61.3701 L67 61.3701 L67 62.2205 L63.8586 62.2205 Z"
                  stroke="none"/>
            <text x="31.5604" xml:space="preserve" y="56.1969" stroke="none">NT1.15</text><line stroke-linecap="butt"
                  fill="none" x1="67.1841" x2="67.1841" y1="52.0158"
                  stroke-linejoin="bevel" y2="71.5748" stroke-width="0.8504"/>
            <path d="M67.6093 52.0158 L85.3915 52.0158 L85.3915 52.8662 L67.6093 52.8662 Z"
                  stroke="none"/>
            <text x="88.2262" xml:space="preserve" font-size="14" y="56.937"
                  stroke="none">X83935</text><path d="M67.6093 70.7244 L87.2064 70.7244 L87.2064 71.5748 L67.6093 71.5748 Z"
                  stroke="none"/>
            <text x="90.041" xml:space="preserve" font-size="14" y="75.6457"
                  stroke="none">L16469</text><path d="M63.8586 89.4331 L85.1495 89.4331 L85.1495 90.2835 L63.8586 90.2835 Z"
                  stroke="none"/>
            <text x="87.9842" xml:space="preserve" font-size="14" y="94.3543"
                  stroke="none">X73964</text><path d="M44.5 218.0551 L48 218.0551 L48 218.9055 L44.5 218.9055 Z"
                  stroke="none"/>
            <text x="19.4549" xml:space="preserve" y="212.8819" stroke="none">NT1.1</text><line stroke-linecap="butt"
                  fill="none" x1="47.7045" x2="47.7045" y1="129.189"
                  stroke-linejoin="bevel" y2="307.7716" stroke-width="0.8504"/>
            <path d="M48.1297 129.189 L49 129.189 L49 130.0394 L48.1297 130.0394 Z"
                  stroke="none"/>
            <text x="19.5059" xml:space="preserve" y="124.0157" stroke="none">NT1.3</text><line stroke-linecap="butt"
                  fill="none" x1="49.1564" x2="49.1564" y1="108.1417"
                  stroke-linejoin="bevel" y2="151.0866" stroke-width="0.8504"/>
            <path d="M49.5816 108.1417 L72.0825 108.1417 L72.0825 108.9921 L49.5816 108.9921 Z"
                  stroke="none"/>
            <text x="74.9171" xml:space="preserve" font-size="14" y="113.063"
                  stroke="none">AJ413954</text><path d="M49.5816 150.2362 L52 150.2362 L52 151.0866 L49.5816 151.0866 Z"
                  stroke="none"/>
            <text x="21.7519" xml:space="preserve" y="145.063" stroke="none">NT1.5</text><line stroke-linecap="butt"
                  fill="none" x1="51.4552" x2="51.4552" y1="126.8504"
                  stroke-linejoin="bevel" y2="174.4724" stroke-width="0.8504"/>
            <path d="M51.8804 126.8504 L73.6553 126.8504 L73.6553 127.7008 L51.8804 127.7008 Z"
                  stroke="none"/>
            <text x="76.49" xml:space="preserve" font-size="14" y="131.7717"
                  stroke="none">X55797</text><path d="M51.8804 173.622 L58 173.622 L58 174.4724 L51.8804 174.4724 Z"
                  stroke="none"/>
            <text x="28.2041" xml:space="preserve" y="168.4488" stroke="none">NT1.8</text><line stroke-linecap="butt"
                  fill="none" x1="57.8677" x2="57.8677" y1="145.559"
                  stroke-linejoin="bevel" y2="202.5354" stroke-width="0.8504"/>
            <path d="M58.2929 145.5591 L74.7443 145.5591 L74.7443 146.4095 L58.2929 146.4095 Z"
                  stroke="none"/>
            <text x="77.5789" xml:space="preserve" font-size="14" y="150.4803"
                  stroke="none">X78017</text><path d="M58.2929 201.685 L58 201.685 L58 202.5354 L58.2929 202.5354 Z"
                  stroke="none"/>
            <text x="22.8073" xml:space="preserve" y="196.5118" stroke="none">NT1.10</text><line stroke-linecap="butt"
                  fill="none" x1="58.3517" x2="58.3517" y1="173.622"
                  stroke-linejoin="bevel" y2="230.5984" stroke-width="0.8504"/>
            <path d="M58.7769 173.622 L64 173.622 L64 174.4724 L58.7769 174.4724 Z"
                  stroke="none"/>
            <text x="28.3464" xml:space="preserve" y="168.4488" stroke="none">NT1.13</text><line stroke-linecap="butt"
                  fill="none" x1="63.9173" x2="63.9173" y1="164.2677"
                  stroke-linejoin="bevel" y2="183.8268" stroke-width="0.8504"/>
            <path d="M64.3425 164.2677 L76.0751 164.2677 L76.0751 165.1181 L64.3425 165.1181 Z"
                  stroke="none"/>
            <text x="78.9098" xml:space="preserve" font-size="14" y="169.189"
                  stroke="none">U95027</text><path d="M64.3425 182.9764 L76.8011 182.9764 L76.8011 183.8268 L64.3425 183.8268 Z"
                  stroke="none"/>
            <text x="79.6357" xml:space="preserve" font-size="14" y="187.8976"
                  stroke="none">X84005</text><path d="M58.7769 229.748 L61 229.748 L61 230.5984 L58.7769 230.5984 Z"
                  stroke="none"/>
            <text x="26.3595" xml:space="preserve" y="224.5748" stroke="none">NT1.11</text><line stroke-linecap="butt"
                  fill="none" x1="60.5296" x2="60.5296" y1="211.0394"
                  stroke-linejoin="bevel" y2="249.3071" stroke-width="0.8504"/>
            <path d="M60.9548 211.0394 L69 211.0394 L69 211.8898 L60.9548 211.8898 Z"
                  stroke="none"/>
            <text x="33.0651" xml:space="preserve" y="205.8661" stroke="none">NT1.16</text><line stroke-linecap="butt"
                  fill="none" x1="68.636" x2="68.636" y1="201.685"
                  stroke-linejoin="bevel" y2="221.2441" stroke-width="0.8504"/>
            <path d="M69.0612 201.685 L73.6554 201.685 L73.6554 202.5354 L69.0612 202.5354 Z"
                  stroke="none"/>
            <text x="76.49" xml:space="preserve" font-size="14" y="206.6063"
                  stroke="none">X81878</text><path d="M69.0612 220.3937 L74.7443 220.3937 L74.7443 221.2441 L69.0612 221.2441 Z"
                  stroke="none"/>
            <text x="77.5789" xml:space="preserve" font-size="14" y="225.315"
                  stroke="none"></text>
            <path d="M60.9548 248.4567 L66 248.4567 L66 249.3071 L60.9548 249.3071 Z"
                  stroke="none"/>
            <text x="30.0668" xml:space="preserve" y="243.2834" stroke="none">NT1.14</text><line stroke-linecap="butt"
                  fill="none" x1="65.6112" x2="65.6112" y1="239.1023"
                  stroke-linejoin="bevel" y2="258.6614" stroke-width="0.8504"/>
            <path d="M66.0364 239.1023 L76.9221 239.1023 L76.9221 239.9527 L66.0364 239.9527 Z"
                  stroke="none"/>
            <text x="79.7568" xml:space="preserve" font-size="14" y="244.0236"
                  stroke="none">AJ420107</text><path d="M66.0364 257.811 L77.1641 257.811 L77.1641 258.6614 L66.0364 258.6614 Z"
                  stroke="none"/>
            <text x="79.9988" xml:space="preserve" font-size="14" y="262.7323"
                  stroke="none">DQ223731</text><path d="M48.1297 306.9213 L48 306.9213 L48 307.7717 L48.1297 307.7717 Z"
                  stroke="none"/>
            <text x="18.7251" xml:space="preserve" y="301.748" stroke="none">NT1.2</text><line stroke-linecap="butt"
                  fill="none" x1="48.3095" x2="48.3095" y1="285.874"
                  stroke-linejoin="bevel" y2="328.8189" stroke-width="0.8504"/>
            <path d="M48.7347 285.874 L58 285.874 L58 286.7244 L48.7347 286.7244 Z"
                  stroke="none"/>
            <text x="28.4461" xml:space="preserve" y="280.7008" stroke="none">NT1.9</text><line stroke-linecap="butt"
                  fill="none" x1="58.1097" x2="58.1097" y1="276.5197"
                  stroke-linejoin="bevel" y2="296.0787" stroke-width="0.8504"/>
            <path d="M58.5349 276.5197 L69.9046 276.5197 L69.9046 277.3701 L58.5349 277.3701 Z"
                  stroke="none"/>
            <text x="72.7393" xml:space="preserve" font-size="14" y="281.4409"
                  stroke="none">AJ312385</text><path d="M58.5349 295.2284 L70.3886 295.2284 L70.3886 296.0788 L58.5349 296.0788 Z"
                  stroke="none"/>
            <text x="73.2233" xml:space="preserve" font-size="14" y="300.1496"
                  stroke="none">AJ270487</text><path d="M48.7347 327.9685 L50 327.9685 L50 328.8189 L48.7347 328.8189 Z"
                  stroke="none"/>
            <text x="20.6213" xml:space="preserve" y="322.7953" stroke="none">NT1.4</text><line stroke-linecap="butt"
                  fill="none" x1="50.2454" x2="50.2454" y1="313.937"
                  stroke-linejoin="bevel" y2="342.8504" stroke-width="0.8504"/>
            <path d="M50.6706 313.937 L69.1787 313.937 L69.1787 314.7874 L50.6706 314.7874 Z"
                  stroke="none"/>
            <text x="72.0134" xml:space="preserve" font-size="14" y="318.8582"
                  stroke="none">X75907</text><path d="M50.6706 342 L52 342 L52 342.8504 L50.6706 342.8504 Z"
                  stroke="none"/>
            <text x="21.8048" xml:space="preserve" y="336.8268" stroke="none">NT1.6</text><line stroke-linecap="butt"
                  fill="none" x1="51.4553" x2="51.4553" y1="332.6457"
                  stroke-linejoin="bevel" y2="352.2047" stroke-width="0.8504"/>
            <path d="M51.8805 332.6457 L72.0825 332.6457 L72.0825 333.4961 L51.8805 333.4961 Z"
                  stroke="none"/>
            <text x="74.9172" xml:space="preserve" font-size="14" y="337.5669"
                  stroke="none">M59120</text><path d="M51.8805 351.3543 L72.0825 351.3543 L72.0825 352.2047 L51.8805 352.2047 Z"
                  stroke="none"/>
            <text x="74.9172" xml:space="preserve" font-size="14" y="356.2756"
                  stroke="none">L04168</text>
        </g>
    </g>
</svg>
