<?xml version="1.0"?>
<!DOCTYPE svg PUBLIC '-//W3C//DTD SVG 1.0//EN'
    'http://www.w3.org/TR/2001/REC-SVG-20010904/DTD/svg10.dtd' >

<svg fill-opacity="1" xmlns:xlink="http://www.w3.org/1999/xlink"
     color-rendering="auto" color-interpolation="auto" stroke="black"
     text-rendering="auto" stroke-linecap="square" stroke-miterlimit="10"
     stroke-opacity="1" shape-rendering="auto" fill="black"
     stroke-dasharray="none" font-weight="normal" stroke-width="1"
     xmlns="http://www.w3.org/2000/svg" font-family="&apos;Dialog&apos;"
     font-style="normal" stroke-linejoin="miter" font-size="12"
     stroke-dashoffset="0" image-rendering="auto">
    <!--Generated by the Batik Graphics2D SVG Generator-->
    <defs id="genericDefs"/>
    <g>
        <g fill="white" stroke="white">
            <rect x="0" width="206" height="523" y="0" stroke="none"/>
            <path fill="black"
                  d="M5 86.6427 L44 86.6427 L44 87.4931 L5 87.4931 Z"
                  stroke="none"/>
        </g>
        <g font-family="&apos;Arial&apos;" font-size="9">
            <text x="8.5039" xml:space="preserve" y="81.4695" stroke="none">NT1.53</text><line stroke-linecap="butt"
                  fill="none" x1="44.0748" x2="44.0748" y1="14.5984"
                  stroke-linejoin="bevel" y2="158.687" stroke-width="0.8504"/>
            <path d="M44.5 14.5984 L98.7856 14.5984 L98.7856 15.4488 L44.5 15.4488 Z"
                  stroke="none"/>
            <text x="101.6203" xml:space="preserve" font-size="14" y="19.5197"
                  stroke="none">X80725</text><path d="M44.5 157.8366 L56 157.8366 L56 158.687 L44.5 158.687 Z"
                  stroke="none"/>
            <text x="27.7648" xml:space="preserve" y="152.6634" stroke="none">NT1.1</text><line stroke-linecap="butt"
                  fill="none" x1="56.0145" x2="56.0145" y1="42.6614"
                  stroke-linejoin="bevel" y2="273.8622" stroke-width="0.8504"/>
            <path d="M56.4397 42.6614 L65 42.6614 L65 43.5118 L56.4397 43.5118 Z"
                  stroke="none"/>
            <text x="34.9062" xml:space="preserve" y="37.4882" stroke="none">NT1.3</text><line stroke-linecap="butt"
                  fill="none" x1="64.5567" x2="64.5567" y1="33.3071"
                  stroke-linejoin="bevel" y2="52.8661" stroke-width="0.8504"/>
            <path d="M64.9819 33.3071 L89.3698 33.3071 L89.3698 34.1575 L64.9819 34.1575 Z"
                  stroke="none"/>
            <text x="92.2045" xml:space="preserve" font-size="14" y="38.2283"
                  stroke="none">M59151</text><path d="M64.9819 52.0158 L102.3773 52.0158 L102.3773 52.8661 L64.9819 52.8661 Z"
                  stroke="none"/>
            <text x="105.2119" xml:space="preserve" font-size="14" y="56.937"
                  stroke="none">M26630</text><path d="M56.4397 273.0118 L64 273.0118 L64 273.8622 L56.4397 273.8622 Z"
                  stroke="none"/>
            <text x="34.6811" xml:space="preserve" y="267.8386" stroke="none">NT1.2</text><line stroke-linecap="butt"
                  fill="none" x1="64.2654" x2="64.2654" y1="179.4685"
                  stroke-linejoin="bevel" y2="367.4055" stroke-width="0.8504"/>
            <path d="M64.6906 179.4685 L68 179.4685 L68 180.3189 L64.6906 180.3189 Z"
                  stroke="none"/>
            <text x="38.1359" xml:space="preserve" y="174.2953" stroke="none">NT1.4</text><line stroke-linecap="butt"
                  fill="none" x1="67.76" x2="67.76" y1="133.8661"
                  stroke-linejoin="bevel" y2="225.9213" stroke-width="0.8504"/>
            <path d="M68.1852 133.8661 L75 133.8661 L75 134.7165 L68.1852 134.7165 Z"
                  stroke="none"/>
            <text x="45.1957" xml:space="preserve" y="128.6929" stroke="none">NT1.7</text><line stroke-linecap="butt"
                  fill="none" x1="74.8461" x2="74.8461" y1="94.1102"
                  stroke-linejoin="bevel" y2="174.4724" stroke-width="0.8504"/>
            <path d="M75.2713 94.1102 L76 94.1102 L76 94.9606 L75.2713 94.9606 Z"
                  stroke="none"/>
            <text x="46.6385" xml:space="preserve" y="88.937" stroke="none">NT1.9</text><line stroke-linecap="butt"
                  fill="none" x1="76.3022" x2="76.3022" y1="70.7244"
                  stroke-linejoin="bevel" y2="118.3465" stroke-width="0.8504"/>
            <path d="M76.7274 70.7244 L89.5639 70.7244 L89.5639 71.5748 L76.7274 71.5748 Z"
                  stroke="none"/>
            <text x="92.3986" xml:space="preserve" font-size="14" y="75.6457"
                  stroke="none">Y11315</text><path d="M76.7274 117.4961 L86 117.4961 L86 118.3464 L76.7274 118.3464 Z"
                  stroke="none"/>
            <text x="49.953" xml:space="preserve" y="112.3228" stroke="none">NT1.16</text><line stroke-linecap="butt"
                  fill="none" x1="85.5239" x2="85.5239" y1="98.7874"
                  stroke-linejoin="bevel" y2="137.0551" stroke-width="0.8504"/>
            <path d="M85.9491 98.7874 L91 98.7874 L91 99.6378 L85.9491 99.6378 Z"
                  stroke="none"/>
            <text x="56.4986" xml:space="preserve" y="93.6142" stroke="none">NT1.31</text><line stroke-linecap="butt"
                  fill="none" x1="90.6686" x2="90.6686" y1="89.4331"
                  stroke-linejoin="bevel" y2="108.9921" stroke-width="0.8504"/>
            <path d="M91.0938 89.4331 L90.4376 89.4331 L90.4376 90.2835 L91.0938 90.2835 Z"
                  stroke="none"/>
            <text x="93.2722" xml:space="preserve" font-size="14" y="94.3543"
                  stroke="none">M26629</text><path d="M91.0938 108.1417 L94.6116 108.1417 L94.6116 108.9921 L91.0938 108.9921 Z"
                  stroke="none"/>
            <text x="97.4463" xml:space="preserve" font-size="14" y="113.063"
                  stroke="none">Y12369</text><path d="M85.9491 136.2047 L95 136.2047 L95 137.0551 L85.9491 137.0551 Z"
                  stroke="none"/>
            <text x="58.8307" xml:space="preserve" y="131.0315" stroke="none">NT1.35</text><line stroke-linecap="butt"
                  fill="none" x1="94.4544" x2="94.4544" y1="126.8504"
                  stroke-linejoin="bevel" y2="146.4095" stroke-width="0.8504"/>
            <path d="M94.8796 126.8504 L113.8316 126.8504 L113.8316 127.7008 L94.8796 127.7008 Z"
                  stroke="none"/>
            <text x="116.6662" xml:space="preserve" font-size="14" y="131.7717"
                  stroke="none">Y12365</text><path d="M94.8796 145.5591 L121.5972 145.5591 L121.5972 146.4095 L94.8796 146.4095 Z"
                  stroke="none"/>
            <text x="124.4318" xml:space="preserve" font-size="14" y="150.4803"
                  stroke="none"></text>
            <path d="M75.2713 173.6221 L80 173.6221 L80 174.4725 L75.2713 174.4725 Z"
                  stroke="none"/>
            <text x="44.0582" xml:space="preserve" y="168.4488" stroke="none">NT1.10</text><line stroke-linecap="butt"
                  fill="none" x1="79.6026" x2="79.6026" y1="164.2677"
                  stroke-linejoin="bevel" y2="183.8268" stroke-width="0.8504"/>
            <path d="M80.0278 164.2677 L89.7581 164.2677 L89.7581 165.1181 L80.0278 165.1181 Z"
                  stroke="none"/>
            <text x="92.5927" xml:space="preserve" font-size="14" y="169.189"
                  stroke="none">Y11317</text><path d="M80.0278 182.9764 L97.912 182.9764 L97.912 183.8268 L80.0278 183.8268 Z"
                  stroke="none"/>
            <text x="100.7466" xml:space="preserve" font-size="14" y="187.8976"
                  stroke="none">Y12376</text><path d="M68.1852 225.0709 L84 225.0709 L84 225.9213 L68.1852 225.9213 Z"
                  stroke="none"/>
            <text x="47.9588" xml:space="preserve" y="219.8976" stroke="none">NT1.15</text><line stroke-linecap="butt"
                  fill="none" x1="83.5825" x2="83.5825" y1="211.0394"
                  stroke-linejoin="bevel" y2="239.9528" stroke-width="0.8504"/>
            <path d="M84.0077 211.0394 L86 211.0394 L86 211.8898 L84.0077 211.8898 Z"
                  stroke="none"/>
            <text x="50.2443" xml:space="preserve" y="205.8661" stroke="none">NT1.17</text><line stroke-linecap="butt"
                  fill="none" x1="85.8151" x2="85.8151" y1="201.685"
                  stroke-linejoin="bevel" y2="221.2441" stroke-width="0.8504"/>
            <path d="M86.2403 201.685 L89.5639 201.685 L89.5639 202.5354 L86.2403 202.5354 Z"
                  stroke="none"/>
            <text x="92.3986" xml:space="preserve" font-size="14" y="206.6063"
                  stroke="none">Y12364</text><path d="M86.2403 220.3937 L102.086 220.3937 L102.086 221.2441 L86.2403 221.2441 Z"
                  stroke="none"/>
            <text x="104.9207" xml:space="preserve" font-size="14" y="225.315"
                  stroke="none">AJ006062</text><path d="M84.0077 239.1024 L97.6208 239.1024 L97.6208 239.9528 L84.0077 239.9528 Z"
                  stroke="none"/>
            <text x="100.4554" xml:space="preserve" font-size="14" y="244.0236"
                  stroke="none">AJ002797</text><path d="M64.6906 366.5552 L69 366.5552 L69 367.4056 L64.6906 367.4056 Z"
                  stroke="none"/>
            <text x="39.1244" xml:space="preserve" y="361.382" stroke="none">NT1.5</text><line stroke-linecap="butt"
                  fill="none" x1="68.8278" x2="68.8278" y1="289.3819"
                  stroke-linejoin="bevel" y2="444.5788" stroke-width="0.8504"/>
            <path d="M69.253 289.3819 L73 289.3819 L73 290.2323 L69.253 290.2323 Z"
                  stroke="none"/>
            <text x="42.9631" xml:space="preserve" y="284.2087" stroke="none">NT1.6</text><line stroke-linecap="butt"
                  fill="none" x1="72.6135" x2="72.6135" y1="267.1654"
                  stroke-linejoin="bevel" y2="312.4489" stroke-width="0.8504"/>
            <path d="M73.0387 267.1654 L81 267.1654 L81 268.0158 L73.0387 268.0158 Z"
                  stroke="none"/>
            <text x="46.8886" xml:space="preserve" y="261.9921" stroke="none">NT1.11</text><line stroke-linecap="butt"
                  fill="none" x1="81.0587" x2="81.0587" y1="257.811"
                  stroke-linejoin="bevel" y2="277.3701" stroke-width="0.8504"/>
            <path d="M81.4839 257.811 L85.8753 257.811 L85.8753 258.6614 L81.4839 258.6614 Z"
                  stroke="none"/>
            <text x="88.7099" xml:space="preserve" font-size="14" y="262.7323"
                  stroke="none">Y11316</text><path d="M81.4839 276.5197 L87.9138 276.5197 L87.9138 277.3701 L81.4839 277.3701 Z"
                  stroke="none"/>
            <text x="90.7484" xml:space="preserve" font-size="14" y="281.441"
                  stroke="none"></text>
            <path d="M73.0387 311.5984 L83 311.5984 L83 312.4488 L73.0387 312.4488 Z"
                  stroke="none"/>
            <text x="47.2615" xml:space="preserve" y="306.4252" stroke="none">NT1.14</text><line stroke-linecap="butt"
                  fill="none" x1="82.8059" x2="82.8059" y1="295.2284"
                  stroke-linejoin="bevel" y2="328.8189" stroke-width="0.8504"/>
            <path d="M83.2311 295.2284 L87.0401 295.2284 L87.0401 296.0788 L83.2311 296.0788 Z"
                  stroke="none"/>
            <text x="89.8748" xml:space="preserve" font-size="14" y="300.1496"
                  stroke="none"></text>
            <path d="M83.2311 327.9685 L86 327.9685 L86 328.8189 L83.2311 328.8189 Z"
                  stroke="none"/>
            <text x="50.6193" xml:space="preserve" y="322.7953" stroke="none">NT1.18</text><line stroke-linecap="butt"
                  fill="none" x1="86.2034" x2="86.2034" y1="313.937"
                  stroke-linejoin="bevel" y2="342.8504" stroke-width="0.8504"/>
            <path d="M86.6286 313.937 L87.2343 313.937 L87.2343 314.7874 L86.6286 314.7874 Z"
                  stroke="none"/>
            <text x="90.0689" xml:space="preserve" font-size="14" y="318.8583"
                  stroke="none">AJ543328</text><path d="M86.6286 342 L89 342 L89 342.8504 L86.6286 342.8504 Z"
                  stroke="none"/>
            <text x="53.4918" xml:space="preserve" y="336.8268" stroke="none">NT1.25</text><line stroke-linecap="butt"
                  fill="none" x1="89.1155" x2="89.1155" y1="332.6457"
                  stroke-linejoin="bevel" y2="352.2048" stroke-width="0.8504"/>
            <path d="M89.5407 332.6457 L100.2417 332.6457 L100.2417 333.4961 L89.5407 333.4961 Z"
                  stroke="none"/>
            <text x="103.0764" xml:space="preserve" font-size="14" y="337.567"
                  stroke="none">X93473</text><path d="M89.5407 351.3544 L109.5605 351.3544 L109.5605 352.2048 L89.5407 352.2048 Z"
                  stroke="none"/>
            <text x="112.3952" xml:space="preserve" font-size="14" y="356.2757"
                  stroke="none"></text>
            <path d="M69.253 443.7284 L76 443.7284 L76 444.5788 L69.253 444.5788 Z"
                  stroke="none"/>
            <text x="46.3473" xml:space="preserve" y="438.5552" stroke="none">NT1.8</text><line stroke-linecap="butt"
                  fill="none" x1="76.011" x2="76.011" y1="409.8189"
                  stroke-linejoin="bevel" y2="478.4882" stroke-width="0.8504"/>
            <path d="M76.4362 409.8189 L82 409.8189 L82 410.6693 L76.4362 410.6693 Z"
                  stroke="none"/>
            <text x="45.9422" xml:space="preserve" y="404.6457" stroke="none">NT1.12</text><line stroke-linecap="butt"
                  fill="none" x1="81.4469" x2="81.4469" y1="384.0945"
                  stroke-linejoin="bevel" y2="436.3937" stroke-width="0.8504"/>
            <path d="M81.8721 384.0945 L87 384.0945 L87 384.9449 L81.8721 384.9449 Z"
                  stroke="none"/>
            <text x="53.1982" xml:space="preserve" y="378.9213" stroke="none">NT1.21</text><line stroke-linecap="butt"
                  fill="none" x1="87.3682" x2="87.3682" y1="370.063"
                  stroke-linejoin="bevel" y2="398.9764" stroke-width="0.8504"/>
            <path d="M87.7934 370.063 L92.8643 370.063 L92.8643 370.9135 L87.7934 370.9135 Z"
                  stroke="none"/>
            <text x="95.699" xml:space="preserve" font-size="14" y="374.9843"
                  stroke="none">AM283535</text><path d="M87.7934 398.1261 L91 398.1261 L91 398.9765 L87.7934 398.9765 Z"
                  stroke="none"/>
            <text x="55.0272" xml:space="preserve" y="392.9529" stroke="none">NT1.30</text><line stroke-linecap="butt"
                  fill="none" x1="90.5716" x2="90.5716" y1="388.7717"
                  stroke-linejoin="bevel" y2="408.3307" stroke-width="0.8504"/>
            <path d="M90.9968 388.7717 L101.5036 388.7717 L101.5036 389.6221 L90.9968 389.6221 Z"
                  stroke="none"/>
            <text x="104.3383" xml:space="preserve" font-size="14" y="393.693"
                  stroke="none">X93472</text><path d="M90.9968 407.4804 L102.1831 407.4804 L102.1831 408.3308 L90.9968 408.3308 Z"
                  stroke="none"/>
            <text x="105.0178" xml:space="preserve" font-size="14" y="412.4016"
                  stroke="none">X98597</text><path d="M81.8721 435.5434 L87 435.5434 L87 436.3938 L81.8721 436.3938 Z"
                  stroke="none"/>
            <text x="51.6297" xml:space="preserve" y="430.3701" stroke="none">NT1.20</text><line stroke-linecap="butt"
                  fill="none" x1="87.1741" x2="87.1741" y1="426.189"
                  stroke-linejoin="bevel" y2="445.7481" stroke-width="0.8504"/>
            <path d="M87.5993 426.1891 L100.5329 426.1891 L100.5329 427.0395 L87.5993 427.0395 Z"
                  stroke="none"/>
            <text x="103.3675" xml:space="preserve" font-size="14" y="431.1103"
                  stroke="none">AJ002796</text><path d="M87.5993 444.8977 L111.7931 444.8977 L111.7931 445.7481 L87.5993 445.7481 Z"
                  stroke="none"/>
            <text x="114.6277" xml:space="preserve" font-size="14" y="449.819"
                  stroke="none"></text>
            <path d="M76.4362 477.6378 L82 477.6378 L82 478.4883 L76.4362 478.4883 Z"
                  stroke="none"/>
            <text x="46.1673" xml:space="preserve" y="472.4646" stroke="none">NT1.13</text><line stroke-linecap="butt"
                  fill="none" x1="81.7381" x2="81.7381" y1="463.6064"
                  stroke-linejoin="bevel" y2="492.5197" stroke-width="0.8504"/>
            <path d="M82.1634 463.6064 L113.8316 463.6064 L113.8316 464.4568 L82.1634 464.4568 Z"
                  stroke="none"/>
            <text x="116.6662" xml:space="preserve" font-size="14" y="468.5276"
                  stroke="none">AJ277023</text><path d="M82.1634 491.6694 L92 491.6694 L92 492.5198 L82.1634 492.5198 Z"
                  stroke="none"/>
            <text x="56.3597" xml:space="preserve" y="486.4962" stroke="none">NT1.33</text><line stroke-linecap="butt"
                  fill="none" x1="91.9305" x2="91.9305" y1="482.315"
                  stroke-linejoin="bevel" y2="501.8741" stroke-width="0.8504"/>
            <path d="M92.3558 482.315 L98.1062 482.315 L98.1062 483.1654 L92.3558 483.1654 Z"
                  stroke="none"/>
            <text x="100.9408" xml:space="preserve" font-size="14" y="487.2363"
                  stroke="none">AJ006214</text><path d="M92.3558 501.0237 L110.337 501.0237 L110.337 501.8741 L92.3558 501.8741 Z"
                  stroke="none"/>
            <text x="113.1717" xml:space="preserve" font-size="14" y="505.945"
                  stroke="none"></text>
        </g>
    </g>
</svg>
