<?xml version="1.0"?>
<!DOCTYPE svg PUBLIC '-//W3C//DTD SVG 1.0//EN'
    'http://www.w3.org/TR/2001/REC-SVG-20010904/DTD/svg10.dtd' >

<svg fill-opacity="1" xmlns:xlink="http://www.w3.org/1999/xlink"
     color-rendering="auto" color-interpolation="auto" stroke="black"
     text-rendering="auto" stroke-linecap="square" stroke-miterlimit="10"
     stroke-opacity="1" shape-rendering="auto" fill="black"
     stroke-dasharray="none" font-weight="normal" stroke-width="1"
     xmlns="http://www.w3.org/2000/svg" font-family="&apos;Dialog&apos;"
     font-style="normal" stroke-linejoin="miter" font-size="12"
     stroke-dashoffset="0" image-rendering="auto">
    <!--Generated by the Batik Graphics2D SVG Generator-->
    <defs id="genericDefs"/>
    <g>
        <g fill="white" stroke="white">
            <rect x="0" width="190" height="392" y="0" stroke="none"/>
            <path fill="black"
                  d="M5 253.5591 L44 253.5591 L44 254.4095 L5 254.4095 Z"
                  stroke="none"/>
        </g>
        <g font-family="&apos;Arial&apos;" font-size="9">
            <text x="8.5039" xml:space="preserve" y="248.3858" stroke="none">NT1.39</text><line stroke-linecap="butt"
                  fill="none" x1="44.088" x2="44.088" y1="180.6378"
                  stroke-linejoin="bevel" y2="326.4803" stroke-width="0.8504"/>
            <path d="M44.5132 180.6378 L47 180.6378 L47 181.4882 L44.5132 181.4882 Z"
                  stroke="none"/>
            <text x="18.3975" xml:space="preserve" y="175.4646" stroke="none">NT1.1</text><line stroke-linecap="butt"
                  fill="none" x1="46.6472" x2="46.6472" y1="112.8189"
                  stroke-linejoin="bevel" y2="249.3071" stroke-width="0.8504"/>
            <path d="M47.0724 112.8189 L64 112.8189 L64 113.6693 L47.0724 113.6693 Z"
                  stroke="none"/>
            <text x="34.7328" xml:space="preserve" y="107.6457" stroke="none">NT1.4</text><line stroke-linecap="butt"
                  fill="none" x1="64.3568" x2="64.3568" y1="63.7087"
                  stroke-linejoin="bevel" y2="162.7795" stroke-width="0.8504"/>
            <path d="M64.782 63.7087 L68 63.7087 L68 64.5591 L64.782 64.5591 Z"
                  stroke="none"/>
            <text x="38.0317" xml:space="preserve" y="58.5354" stroke="none">NT1.5</text><line stroke-linecap="butt"
                  fill="none" x1="67.735" x2="67.735" y1="28.6299"
                  stroke-linejoin="bevel" y2="99.6378" stroke-width="0.8504"/>
            <path d="M68.1602 28.6299 L69 28.6299 L69 29.4803 L68.1602 29.4803 Z"
                  stroke="none"/>
            <text x="39.4153" xml:space="preserve" y="23.4567" stroke="none">NT1.6</text><line stroke-linecap="butt"
                  fill="none" x1="69.0657" x2="69.0657" y1="14.5984"
                  stroke-linejoin="bevel" y2="43.5118" stroke-width="0.8504"/>
            <path d="M69.491 14.5984 L86.862 14.5984 L86.862 15.4488 L69.491 15.4488 Z"
                  stroke="none"/>
            <text x="89.6967" xml:space="preserve" font-size="14" y="19.5197"
                  stroke="none">X91814</text><path d="M69.491 42.6614 L83 42.6614 L83 43.5118 L69.491 43.5118 Z"
                  stroke="none"/>
            <text x="47.3146" xml:space="preserve" y="37.4882" stroke="none">NT1.13</text><line stroke-linecap="butt"
                  fill="none" x1="82.8854" x2="82.8854" y1="33.3071"
                  stroke-linejoin="bevel" y2="52.8661" stroke-width="0.8504"/>
            <path d="M83.3106 33.3071 L89.7283 33.3071 L89.7283 34.1575 L83.3106 34.1575 Z"
                  stroke="none"/>
            <text x="92.563" xml:space="preserve" font-size="14" y="38.2283"
                  stroke="none">AM490402</text><path d="M83.3106 52.0158 L90.8544 52.0158 L90.8544 52.8661 L83.3106 52.8661 Z"
                  stroke="none"/>
            <text x="93.689" xml:space="preserve" font-size="14" y="56.937"
                  stroke="none">AM490403</text><path d="M68.1602 98.7874 L80 98.7874 L80 99.6378 L68.1602 99.6378 Z"
                  stroke="none"/>
            <text x="43.9629" xml:space="preserve" y="93.6142" stroke="none">NT1.10</text><line stroke-linecap="butt"
                  fill="none" x1="79.5072" x2="79.5072" y1="80.0788"
                  stroke-linejoin="bevel" y2="118.3465" stroke-width="0.8504"/>
            <path d="M79.9325 80.0788 L87 80.0788 L87 80.9291 L79.9325 80.9291 Z"
                  stroke="none"/>
            <text x="50.9866" xml:space="preserve" y="74.9055" stroke="none">NT1.19</text><line stroke-linecap="butt"
                  fill="none" x1="86.5706" x2="86.5706" y1="70.7244"
                  stroke-linejoin="bevel" y2="90.2835" stroke-width="0.8504"/>
            <path d="M86.9958 70.7244 L87.8857 70.7244 L87.8857 71.5748 L86.9958 71.5748 Z"
                  stroke="none"/>
            <text x="90.7203" xml:space="preserve" font-size="14" y="75.6457"
                  stroke="none"></text>
            <path d="M86.9958 89.4331 L89.0117 89.4331 L89.0117 90.2835 L86.9958 90.2835 Z"
                  stroke="none"/>
            <text x="91.8464" xml:space="preserve" font-size="14" y="94.3543"
                  stroke="none"></text>
            <path d="M79.9325 117.4961 L83 117.4961 L83 118.3464 L79.9325 118.3464 Z"
                  stroke="none"/>
            <text x="47.5457" xml:space="preserve" y="112.3228" stroke="none">NT1.14</text><line stroke-linecap="butt"
                  fill="none" x1="83.0901" x2="83.0901" y1="108.1417"
                  stroke-linejoin="bevel" y2="127.7008" stroke-width="0.8504"/>
            <path d="M83.5153 108.1417 L85.6336 108.1417 L85.6336 108.9921 L83.5153 108.9921 Z"
                  stroke="none"/>
            <text x="88.4683" xml:space="preserve" font-size="14" y="113.063"
                  stroke="none"></text>
            <path d="M83.5153 126.8504 L87.7833 126.8504 L87.7833 127.7008 L83.5153 127.7008 Z"
                  stroke="none"/>
            <text x="90.618" xml:space="preserve" font-size="14" y="131.7717"
                  stroke="none"></text>
            <path d="M64.782 161.9291 L77 161.9291 L77 162.7795 L64.782 162.7795 Z"
                  stroke="none"/>
            <text x="47.2844" xml:space="preserve" y="156.7559" stroke="none">NT1.9</text><line stroke-linecap="butt"
                  fill="none" x1="76.9481" x2="76.9481" y1="145.5591"
                  stroke-linejoin="bevel" y2="179.1496" stroke-width="0.8504"/>
            <path d="M77.3733 145.5591 L97.3036 145.5591 L97.3036 146.4095 L77.3733 146.4095 Z"
                  stroke="none"/>
            <text x="100.1382" xml:space="preserve" font-size="14" y="150.4803"
                  stroke="none">M58778</text><path d="M77.3733 178.2992 L81 178.2992 L81 179.1496 L77.3733 179.1496 Z"
                  stroke="none"/>
            <text x="45.0262" xml:space="preserve" y="173.126" stroke="none">NT1.12</text><line stroke-linecap="butt"
                  fill="none" x1="80.5309" x2="80.5309" y1="164.2677"
                  stroke-linejoin="bevel" y2="193.1811" stroke-width="0.8504"/>
            <path d="M80.9561 164.2677 L93.5159 164.2677 L93.5159 165.1181 L80.9561 165.1181 Z"
                  stroke="none"/>
            <text x="96.3506" xml:space="preserve" font-size="14" y="169.189"
                  stroke="none">AJ438176</text><path d="M80.9561 192.3307 L85 192.3307 L85 193.1811 L80.9561 193.1811 Z"
                  stroke="none"/>
            <text x="49.5138" xml:space="preserve" y="187.1575" stroke="none">NT1.15</text><line stroke-linecap="butt"
                  fill="none" x1="85.1375" x2="85.1375" y1="182.9764"
                  stroke-linejoin="bevel" y2="202.5354" stroke-width="0.8504"/>
            <path d="M85.5627 182.9764 L91.1615 182.9764 L91.1615 183.8268 L85.5627 183.8268 Z"
                  stroke="none"/>
            <text x="93.9961" xml:space="preserve" font-size="14" y="187.8976"
                  stroke="none"></text>
            <path d="M85.5627 201.685 L92.0828 201.685 L92.0828 202.5354 L85.5627 202.5354 Z"
                  stroke="none"/>
            <text x="94.9174" xml:space="preserve" font-size="14" y="206.6063"
                  stroke="none">M58779</text><path d="M47.0724 248.4567 L56 248.4567 L56 249.3071 L47.0724 249.3071 Z"
                  stroke="none"/>
            <text x="26.583" xml:space="preserve" y="243.2835" stroke="none">NT1.2</text><line stroke-linecap="butt"
                  fill="none" x1="56.1674" x2="56.1674" y1="229.748"
                  stroke-linejoin="bevel" y2="268.0158" stroke-width="0.8504"/>
            <path d="M56.5926 229.748 L59 229.748 L59 230.5984 L56.5926 230.5984 Z"
                  stroke="none"/>
            <text x="29.588" xml:space="preserve" y="224.5748" stroke="none">NT1.3</text><line stroke-linecap="butt"
                  fill="none" x1="59.2384" x2="59.2384" y1="220.3937"
                  stroke-linejoin="bevel" y2="239.9528" stroke-width="0.8504"/>
            <path d="M59.6636 220.3937 L87.5786 220.3937 L87.5786 221.2441 L59.6636 221.2441 Z"
                  stroke="none"/>
            <text x="90.4132" xml:space="preserve" font-size="14" y="225.315"
                  stroke="none">AJ310654</text><path d="M59.6636 239.1024 L90.6496 239.1024 L90.6496 239.9528 L59.6636 239.9528 Z"
                  stroke="none"/>
            <text x="93.4843" xml:space="preserve" font-size="14" y="244.0237"
                  stroke="none">M58768</text><path d="M56.5926 267.1654 L74 267.1654 L74 268.0158 L56.5926 268.0158 Z"
                  stroke="none"/>
            <text x="44.7384" xml:space="preserve" y="261.9921" stroke="none">NT1.7</text><line stroke-linecap="butt"
                  fill="none" x1="74.3889" x2="74.3889" y1="257.811"
                  stroke-linejoin="bevel" y2="277.3701" stroke-width="0.8504"/>
            <path d="M74.8141 257.811 L88.4999 257.811 L88.4999 258.6614 L74.8141 258.6614 Z"
                  stroke="none"/>
            <text x="91.3346" xml:space="preserve" font-size="14" y="262.7323"
                  stroke="none">AJ564642</text><path d="M74.8141 276.5197 L95.1538 276.5197 L95.1538 277.3701 L74.8141 277.3701 Z"
                  stroke="none"/>
            <text x="97.9885" xml:space="preserve" font-size="14" y="281.441"
                  stroke="none">M62788</text><path d="M44.5132 325.6299 L76 325.6299 L76 326.4803 L44.5132 326.4803 Z"
                  stroke="none"/>
            <text x="46.3631" xml:space="preserve" y="320.4567" stroke="none">NT1.8</text><line stroke-linecap="butt"
                  fill="none" x1="76.0268" x2="76.0268" y1="304.5827"
                  stroke-linejoin="bevel" y2="347.5276" stroke-width="0.8504"/>
            <path d="M76.452 304.5827 L86 304.5827 L86 305.4331 L76.452 305.4331 Z"
                  stroke="none"/>
            <text x="50.3856" xml:space="preserve" y="299.4095" stroke="none">NT1.17</text><line stroke-linecap="butt"
                  fill="none" x1="85.9564" x2="85.9564" y1="295.2284"
                  stroke-linejoin="bevel" y2="314.7874" stroke-width="0.8504"/>
            <path d="M86.3816 295.2284 L94.9491 295.2284 L94.9491 296.0788 L86.3816 296.0788 Z"
                  stroke="none"/>
            <text x="97.7837" xml:space="preserve" font-size="14" y="300.1496"
                  stroke="none">M62797</text><path d="M86.3816 313.937 L98.0201 313.937 L98.0201 314.7874 L86.3816 314.7874 Z"
                  stroke="none"/>
            <text x="100.8548" xml:space="preserve" font-size="14" y="318.8583"
                  stroke="none">AB075230</text><path d="M76.452 346.6772 L80 346.6772 L80 347.5276 L76.452 347.5276 Z"
                  stroke="none"/>
            <text x="45.4396" xml:space="preserve" y="341.5039" stroke="none">NT1.11</text><line stroke-linecap="butt"
                  fill="none" x1="79.6096" x2="79.6096" y1="332.6457"
                  stroke-linejoin="bevel" y2="361.5591" stroke-width="0.8504"/>
            <path d="M80.0348 332.6457 L98.7367 332.6457 L98.7367 333.4961 L80.0348 333.4961 Z"
                  stroke="none"/>
            <text x="101.5713" xml:space="preserve" font-size="14" y="337.5669"
                  stroke="none">M58770</text><path d="M80.0348 360.7087 L86 360.7087 L86 361.5591 L80.0348 361.5591 Z"
                  stroke="none"/>
            <text x="50.0785" xml:space="preserve" y="355.5354" stroke="none">NT1.16</text><line stroke-linecap="butt"
                  fill="none" x1="85.6493" x2="85.6493" y1="351.3543"
                  stroke-linejoin="bevel" y2="370.9134" stroke-width="0.8504"/>
            <path d="M86.0745 351.3543 L98.532 351.3543 L98.532 352.2047 L86.0745 352.2047 Z"
                  stroke="none"/>
            <text x="101.3666" xml:space="preserve" font-size="14" y="356.2756"
                  stroke="none">AJ005973</text><path d="M86.0745 370.063 L106.1072 370.063 L106.1072 370.9135 L86.0745 370.9135 Z"
                  stroke="none"/>
            <text x="108.9418" xml:space="preserve" font-size="14" y="374.9843"
                  stroke="none"></text>
        </g>
    </g>
</svg>
