<?xml version="1.0"?>
<!DOCTYPE svg PUBLIC '-//W3C//DTD SVG 1.0//EN'
    'http://www.w3.org/TR/2001/REC-SVG-20010904/DTD/svg10.dtd' >

<svg fill-opacity="1" xmlns:xlink="http://www.w3.org/1999/xlink"
     color-rendering="auto" color-interpolation="auto" stroke="black"
     text-rendering="auto" stroke-linecap="square" stroke-miterlimit="10"
     stroke-opacity="1" shape-rendering="auto" fill="black"
     stroke-dasharray="none" font-weight="normal" stroke-width="1"
     xmlns="http://www.w3.org/2000/svg" font-family="&apos;Dialog&apos;"
     font-style="normal" stroke-linejoin="miter" font-size="12"
     stroke-dashoffset="0" image-rendering="auto">
    <!--Generated by the Batik Graphics2D SVG Generator-->
    <defs id="genericDefs"/>
    <g>
        <g fill="white" stroke="white">
            <rect x="0" width="177" height="410" y="0" stroke="none"/>
            <path fill="black"
                  d="M5 346.6456 L44 346.6456 L44 347.496 L5 347.496 Z"
                  stroke="none"/>
        </g>
        <g font-family="&apos;Arial&apos;" font-size="9">
            <text x="8.5039" xml:space="preserve" y="341.4724" stroke="none">NT1.40</text><line stroke-linecap="butt"
                  fill="none" x1="44.0484" x2="44.0484" y1="303.6692"
                  stroke-linejoin="bevel" y2="389.6221" stroke-width="0.8504"/>
            <path d="M44.4736 303.6692 L45 303.6692 L45 304.5196 L44.4736 304.5196 Z"
                  stroke="none"/>
            <text x="16.8784" xml:space="preserve" y="298.496" stroke="none">NT1.1</text><line stroke-linecap="butt"
                  fill="none" x1="45.1281" x2="45.1281" y1="246.6297"
                  stroke-linejoin="bevel" y2="361.5591" stroke-width="0.8504"/>
            <path d="M45.5533 246.6297 L48 246.6297 L48 247.4801 L45.5533 247.4801 Z"
                  stroke="none"/>
            <text x="18.183" xml:space="preserve" y="241.4565" stroke="none">NT1.2</text><line stroke-linecap="butt"
                  fill="none" x1="47.7674" x2="47.7674" y1="188.6767"
                  stroke-linejoin="bevel" y2="305.4331" stroke-width="0.8504"/>
            <path d="M48.1926 188.6767 L49 188.6767 L49 189.5271 L48.1926 189.5271 Z"
                  stroke="none"/>
            <text x="19.3431" xml:space="preserve" y="183.5034" stroke="none">NT1.4</text><line stroke-linecap="butt"
                  fill="none" x1="48.9671" x2="48.9671" y1="128.8967"
                  stroke-linejoin="bevel" y2="249.3071" stroke-width="0.8504"/>
            <path d="M49.3923 128.8967 L51 128.8967 L51 129.7471 L49.3923 129.7471 Z"
                  stroke="none"/>
            <text x="21.2361" xml:space="preserve" y="123.7234" stroke="none">NT1.6</text><line stroke-linecap="butt"
                  fill="none" x1="50.8866" x2="50.8866" y1="46.7539"
                  stroke-linejoin="bevel" y2="211.8898" stroke-width="0.8504"/>
            <path d="M51.3118 46.7539 L56 46.7539 L56 47.6043 L51.3118 47.6043 Z"
                  stroke="none"/>
            <text x="26.7415" xml:space="preserve" y="41.5807" stroke="none">NT1.9</text><line stroke-linecap="butt"
                  fill="none" x1="56.4052" x2="56.4052" y1="14.5984"
                  stroke-linejoin="bevel" y2="79.7598" stroke-width="0.8504"/>
            <path d="M56.8304 14.5984 L73.1355 14.5984 L73.1355 15.4488 L56.8304 15.4488 Z"
                  stroke="none"/>
            <text x="75.9702" xml:space="preserve" font-size="14" y="19.5197"
                  stroke="none">AJ626894</text><path d="M56.8304 78.9094 L64 78.9094 L64 79.7598 L56.8304 79.7598 Z"
                  stroke="none"/>
            <text x="29.9131" xml:space="preserve" y="73.7362" stroke="none">NT1.11</text><line stroke-linecap="butt"
                  fill="none" x1="64.0832" x2="64.0832" y1="33.3071"
                  stroke-linejoin="bevel" y2="125.3622" stroke-width="0.8504"/>
            <path d="M64.5084 33.3071 L78.774 33.3071 L78.774 34.1575 L64.5084 34.1575 Z"
                  stroke="none"/>
            <text x="81.6087" xml:space="preserve" font-size="14" y="38.2283"
                  stroke="none">Y18838</text><path d="M64.5084 124.5118 L71 124.5118 L71 125.3622 L64.5084 125.3622 Z"
                  stroke="none"/>
            <text x="35.7105" xml:space="preserve" y="119.3386" stroke="none">NT1.13</text><line stroke-linecap="butt"
                  fill="none" x1="71.2813" x2="71.2813" y1="89.4331"
                  stroke-linejoin="bevel" y2="160.4409" stroke-width="0.8504"/>
            <path d="M71.7065 89.4331 L74 89.4331 L74 90.2835 L71.7065 90.2835 Z"
                  stroke="none"/>
            <text x="38.4962" xml:space="preserve" y="84.2598" stroke="none">NT1.20</text><line stroke-linecap="butt"
                  fill="none" x1="74.0406" x2="74.0406" y1="52.0157"
                  stroke-linejoin="bevel" y2="127.7008" stroke-width="0.8504"/>
            <path d="M74.4658 52.0158 L80.6936 52.0158 L80.6936 52.8661 L74.4658 52.8661 Z"
                  stroke="none"/>
            <text x="83.5282" xml:space="preserve" font-size="14" y="56.937"
                  stroke="none">AJ276901</text><path d="M74 84.7559 L74 84.7559 L74 85.6063 L74 85.6063 Z"
                  stroke="none"/>
            <text x="37.9899" xml:space="preserve" y="79.5827" stroke="none">NT1.16</text><line stroke-linecap="butt"
                  fill="none" x1="73.5607" x2="73.5607" y1="70.7244"
                  stroke-linejoin="bevel" y2="99.6378" stroke-width="0.8504"/>
            <path d="M73.9859 70.7244 L80.8135 70.7244 L80.8135 71.5748 L73.9859 71.5748 Z"
                  stroke="none"/>
            <text x="83.6482" xml:space="preserve" font-size="14" y="75.6457"
                  stroke="none">Y18836</text><path d="M73.9859 98.7874 L76 98.7874 L76 99.6378 L73.9859 99.6378 Z"
                  stroke="none"/>
            <text x="42.03" xml:space="preserve" y="93.6142" stroke="none">NT1.21</text><line stroke-linecap="butt"
                  fill="none" x1="76.2001" x2="76.2001" y1="89.4331"
                  stroke-linejoin="bevel" y2="108.9921" stroke-width="0.8504"/>
            <path d="M76.6253 89.4331 L78.6541 89.4331 L78.6541 90.2835 L76.6253 90.2835 Z"
                  stroke="none"/>
            <text x="81.4888" xml:space="preserve" font-size="14" y="94.3543"
                  stroke="none">D0089669</text><path d="M76.6253 108.1417 L81.7733 108.1417 L81.7733 108.9921 L76.6253 108.9921 Z"
                  stroke="none"/>
            <text x="84.608" xml:space="preserve" font-size="14" y="113.063"
                  stroke="none">DQ888329</text><path d="M74.4658 126.8504 L79.134 126.8504 L79.134 127.7008 L74.4658 127.7008 Z"
                  stroke="none"/>
            <text x="81.9686" xml:space="preserve" font-size="14" y="131.7717"
                  stroke="none">Y17356</text><path d="M71.7065 159.5906 L72 159.5906 L72 160.441 L71.7065 160.441 Z"
                  stroke="none"/>
            <text x="36.6967" xml:space="preserve" y="154.4173" stroke="none">NT1.14</text><line stroke-linecap="butt"
                  fill="none" x1="72.2411" x2="72.2411" y1="145.5591"
                  stroke-linejoin="bevel" y2="174.4724" stroke-width="0.8504"/>
            <path d="M72.6663 145.5591 L79.134 145.5591 L79.134 146.4095 L72.6663 146.4095 Z"
                  stroke="none"/>
            <text x="81.9686" xml:space="preserve" font-size="14" y="150.4803"
                  stroke="none">Y18837</text><path d="M72.6663 173.6221 L74 173.6221 L74 174.4725 L72.6663 174.4725 Z"
                  stroke="none"/>
            <text x="37.9899" xml:space="preserve" y="168.4488" stroke="none">NT1.17</text><line stroke-linecap="butt"
                  fill="none" x1="73.5608" x2="73.5608" y1="164.2677"
                  stroke-linejoin="bevel" y2="183.8268" stroke-width="0.8504"/>
            <path d="M73.986 164.2677 L80.4537 164.2677 L80.4537 165.1181 L73.986 165.1181 Z"
                  stroke="none"/>
            <text x="83.2883" xml:space="preserve" font-size="14" y="169.189"
                  stroke="none">AJ549285</text><path d="M73.986 182.9764 L86.2122 182.9764 L86.2122 183.8268 L73.986 183.8268 Z"
                  stroke="none"/>
            <text x="89.0468" xml:space="preserve" font-size="14" y="187.8976"
                  stroke="none">Y18833</text><path d="M51.3118 211.0394 L55 211.0394 L55 211.8898 L51.3118 211.8898 Z"
                  stroke="none"/>
            <text x="25.6618" xml:space="preserve" y="205.8661" stroke="none">NT1.8</text><line stroke-linecap="butt"
                  fill="none" x1="55.3254" x2="55.3254" y1="201.685"
                  stroke-linejoin="bevel" y2="221.2441" stroke-width="0.8504"/>
            <path d="M55.7506 201.685 L78.774 201.685 L78.774 202.5354 L55.7506 202.5354 Z"
                  stroke="none"/>
            <text x="81.6087" xml:space="preserve" font-size="14" y="206.6063"
                  stroke="none">A3058919</text><path d="M55.7506 220.3937 L78.894 220.3937 L78.894 221.2441 L55.7506 221.2441 Z"
                  stroke="none"/>
            <text x="81.7286" xml:space="preserve" font-size="14" y="225.315"
                  stroke="none">D12660</text><path d="M49.3923 248.4567 L64 248.4567 L64 249.3071 L49.3923 249.3071 Z"
                  stroke="none"/>
            <text x="28.5784" xml:space="preserve" y="243.2834" stroke="none">NT1.12</text><line stroke-linecap="butt"
                  fill="none" x1="64.0831" x2="64.0831" y1="239.1024"
                  stroke-linejoin="bevel" y2="258.6614" stroke-width="0.8504"/>
            <path d="M64.5083 239.1024 L91.0108 239.1024 L91.0108 239.9528 L64.5083 239.9528 Z"
                  stroke="none"/>
            <text x="93.8455" xml:space="preserve" font-size="14" y="244.0236"
                  stroke="none">M62786</text><path d="M64.5083 257.811 L79.7338 257.811 L79.7338 258.6614 L64.5083 258.6614 Z"
                  stroke="none"/>
            <text x="82.5684" xml:space="preserve" font-size="14" y="262.7323"
                  stroke="none">AF137029</text><path d="M48.1926 304.5827 L48 304.5827 L48 305.4331 L48.1926 305.4331 Z"
                  stroke="none"/>
            <text x="18.5968" xml:space="preserve" y="299.4095" stroke="none">NT1.3</text><line stroke-linecap="butt"
                  fill="none" x1="48.2473" x2="48.2473" y1="285.874"
                  stroke-linejoin="bevel" y2="324.1418" stroke-width="0.8504"/>
            <path d="M48.6725 285.874 L53 285.874 L53 286.7244 L48.6725 286.7244 Z"
                  stroke="none"/>
            <text x="23.2756" xml:space="preserve" y="280.7008" stroke="none">NT1.7</text><line stroke-linecap="butt"
                  fill="none" x1="52.926" x2="52.926" y1="276.5197"
                  stroke-linejoin="bevel" y2="296.0788" stroke-width="0.8504"/>
            <path d="M53.3513 276.5197 L76.6146 276.5197 L76.6146 277.3701 L53.3513 277.3701 Z"
                  stroke="none"/>
            <text x="79.4492" xml:space="preserve" font-size="14" y="281.441"
                  stroke="none">D12663</text><path d="M53.3513 295.2284 L73.4954 295.2284 L73.4954 296.0788 L53.3513 296.0788 Z"
                  stroke="none"/>
            <text x="76.33" xml:space="preserve" font-size="14" y="300.1497"
                  stroke="none">AJ310654</text><path d="M48.6725 323.2913 L61 323.2913 L61 324.1417 L48.6725 324.1417 Z"
                  stroke="none"/>
            <text x="25.5396" xml:space="preserve" y="318.1181" stroke="none">NT1.10</text><line stroke-linecap="butt"
                  fill="none" x1="61.0839" x2="61.0839" y1="313.937"
                  stroke-linejoin="bevel" y2="333.4961" stroke-width="0.8504"/>
            <path d="M61.5091 313.937 L80.6935 313.937 L80.6935 314.7874 L61.5091 314.7874 Z"
                  stroke="none"/>
            <text x="83.5282" xml:space="preserve" font-size="14" y="318.8583"
                  stroke="none">AJ438172</text><path d="M61.5091 332.6457 L81.0534 332.6457 L81.0534 333.4961 L61.5091 333.4961 Z"
                  stroke="none"/>
            <text x="83.8881" xml:space="preserve" font-size="14" y="337.567"
                  stroke="none">AJ459411</text><path d="M45.5533 360.7087 L50 360.7087 L50 361.5591 L45.5533 361.5591 Z"
                  stroke="none"/>
            <text x="19.7436" xml:space="preserve" y="355.5354" stroke="none">NT1.5</text><line stroke-linecap="butt"
                  fill="none" x1="49.447" x2="49.447" y1="351.3543"
                  stroke-linejoin="bevel" y2="370.9134" stroke-width="0.8504"/>
            <path d="M49.8722 351.3543 L73.4954 351.3543 L73.4954 352.2047 L49.8722 352.2047 Z"
                  stroke="none"/>
            <text x="76.3301" xml:space="preserve" font-size="14" y="356.2756"
                  stroke="none">M62787</text><path d="M49.8722 370.063 L77.6943 370.063 L77.6943 370.9135 L49.8722 370.9135 Z"
                  stroke="none"/>
            <text x="80.529" xml:space="preserve" font-size="14" y="374.9843"
                  stroke="none">M62794</text><path d="M44.4736 388.7717 L90.411 388.7717 L90.411 389.6221 L44.4736 389.6221 Z"
                  stroke="none"/>
            <text x="93.2456" xml:space="preserve" font-size="14" y="393.6929"
                  stroke="none">M62797</text>
        </g>
    </g>
</svg>
