<?xml version="1.0"?>
<!DOCTYPE svg PUBLIC '-//W3C//DTD SVG 1.0//EN'
    'http://www.w3.org/TR/2001/REC-SVG-20010904/DTD/svg10.dtd' >

<svg fill-opacity="1" xmlns:xlink="http://www.w3.org/1999/xlink"
     color-rendering="auto" color-interpolation="auto" stroke="black"
     text-rendering="auto" stroke-linecap="square" stroke-miterlimit="10"
     stroke-opacity="1" shape-rendering="auto" fill="black"
     stroke-dasharray="none" font-weight="normal" stroke-width="1"
     xmlns="http://www.w3.org/2000/svg" font-family="&apos;Dialog&apos;"
     font-style="normal" stroke-linejoin="miter" font-size="12"
     stroke-dashoffset="0" image-rendering="auto">
    <!--Generated by the Batik Graphics2D SVG Generator-->
    <defs id="genericDefs"/>
    <g>
        <g fill="white" stroke="white">
            <rect x="0" width="163" height="299" y="0" stroke="none"/>
            <path fill="black"
                  d="M5 187.3347 L18 187.3347 L18 188.1851 L5 188.1851 Z"
                  stroke="none"/>
            <circle fill="black" r="1.2756" cx="17.4331" cy="187.3347"
                    stroke="none"/>
            <path fill="black"
                  d="M17.8583 186.4843 L18 186.4843 L18 187.3347 L17.8583 187.3347 Z"
                  stroke="none"/>
        </g>
        <g font-family="&apos;Arial&apos;" font-size="9">
            <text x="-11.7897" xml:space="preserve" y="181.3111" stroke="none">NT1.2</text><line stroke-linecap="butt"
                  fill="none" x1="17.7947" x2="17.7947" y1="124.5118"
                  stroke-linejoin="bevel" y2="249.3071" stroke-width="0.8504"/>
            <path d="M18.2199 124.5118 L24 124.5118 L24 125.3622 L18.2199 125.3622 Z"
                  stroke="none"/>
            <text x="-6.16" xml:space="preserve" y="119.3386" stroke="none">NT1.3</text><line stroke-linecap="butt"
                  fill="none" x1="23.4905" x2="23.4905" y1="71.8937"
                  stroke-linejoin="bevel" y2="177.9803" stroke-width="0.8504"/>
            <path d="M23.9157 71.8937 L33 71.8937 L33 72.7441 L23.9157 72.7441 Z"
                  stroke="none"/>
            <text x="-2.3801" xml:space="preserve" y="66.7205" stroke="none">NT1.10</text><line stroke-linecap="butt"
                  fill="none" x1="33.1643" x2="33.1643" y1="54.3543"
                  stroke-linejoin="bevel" y2="90.2835" stroke-width="0.8504"/>
            <path d="M33.5895 54.3543 L40 54.3543 L40 55.2047 L33.5895 55.2047 Z"
                  stroke="none"/>
            <text x="4.5925" xml:space="preserve" y="49.1811" stroke="none">NT1.15</text><line stroke-linecap="butt"
                  fill="none" x1="40.2162" x2="40.2162" y1="37.9843"
                  stroke-linejoin="bevel" y2="71.5748" stroke-width="0.8504"/>
            <path d="M40.6414 37.9843 L45 37.9843 L45 38.8347 L40.6414 38.8347 Z"
                  stroke="none"/>
            <text x="8.985" xml:space="preserve" y="32.811" stroke="none">NT1.17</text><line stroke-linecap="butt"
                  fill="none" x1="44.5559" x2="44.5559" y1="23.9528"
                  stroke-linejoin="bevel" y2="52.8661" stroke-width="0.8504"/>
            <path d="M44.9811 23.9528 L47 23.9528 L47 24.8032 L44.9811 24.8032 Z"
                  stroke="none"/>
            <text x="11.4525" xml:space="preserve" y="18.7795" stroke="none">NT1.20</text><line stroke-linecap="butt"
                  fill="none" x1="46.9969" x2="46.9969" y1="14.5984"
                  stroke-linejoin="bevel" y2="34.1575" stroke-width="0.8504"/>
            <path d="M47.4221 14.5984 L56.1551 14.5984 L56.1551 15.4488 L47.4221 15.4488 Z"
                  stroke="none"/>
            <text x="58.9898" xml:space="preserve" font-size="14" y="19.5197"
                  stroke="none">X95917</text><path d="M47.4221 33.3071 L66.4618 33.3071 L66.4618 34.1575 L47.4221 34.1575 Z"
                  stroke="none"/>
            <text x="69.2965" xml:space="preserve" font-size="14" y="38.2283"
                  stroke="none">AJO12231</text><path d="M44.9811 52.0158 L66.4618 52.0158 L66.4618 52.8661 L44.9811 52.8661 Z"
                  stroke="none"/>
            <text x="69.2964" xml:space="preserve" font-size="14" y="56.937"
                  stroke="none">M59158</text><path d="M40.6414 70.7244 L77.763 70.7244 L77.763 71.5748 L40.6414 71.5748 Z"
                  stroke="none"/>
            <text x="80.5976" xml:space="preserve" font-size="14" y="75.6457"
                  stroke="none">AF192343</text><path d="M33.5895 89.4331 L63.2071 89.4331 L63.2071 90.2835 L33.5895 90.2835 Z"
                  stroke="none"/>
            <text x="66.0417" xml:space="preserve" font-size="14" y="94.3543"
                  stroke="none">AB161360</text><path d="M23.9157 177.1299 L26 177.1299 L26 177.9803 L23.9157 177.9803 Z"
                  stroke="none"/>
            <text x="-3.591" xml:space="preserve" y="171.9567" stroke="none">NT1.5</text><line stroke-linecap="butt"
                  fill="none" x1="26.1123" x2="26.1123" y1="152.5748"
                  stroke-linejoin="bevel" y2="202.5354" stroke-width="0.8504"/>
            <path d="M26.5375 152.5748 L29 152.5748 L29 153.4252 L26.5375 153.4252 Z"
                  stroke="none"/>
            <text x="-0.5678" xml:space="preserve" y="147.4016" stroke="none">NT1.8</text><line stroke-linecap="butt"
                  fill="none" x1="29.0958" x2="29.0958" y1="131.5276"
                  stroke-linejoin="bevel" y2="174.4725" stroke-width="0.8504"/>
            <path d="M29.521 131.5276 L35 131.5276 L35 132.378 L29.521 132.378 Z"
                  stroke="none"/>
            <text x="0.5312" xml:space="preserve" y="126.3543" stroke="none">NT1.11</text><line stroke-linecap="butt"
                  fill="none" x1="34.7012" x2="34.7012" y1="117.4961"
                  stroke-linejoin="bevel" y2="146.4095" stroke-width="0.8504"/>
            <path d="M35.1264 117.4961 L43 117.4961 L43 118.3464 L35.1264 118.3464 Z"
                  stroke="none"/>
            <text x="7.5385" xml:space="preserve" y="112.3228" stroke="none">NT1.16</text><line stroke-linecap="butt"
                  fill="none" x1="43.1093" x2="43.1093" y1="108.1417"
                  stroke-linejoin="bevel" y2="127.7008" stroke-width="0.8504"/>
            <path d="M43.5345 108.1417 L45.758 108.1417 L45.758 108.9921 L43.5345 108.9921 Z"
                  stroke="none"/>
            <text x="48.5927" xml:space="preserve" font-size="14" y="113.063"
                  stroke="none">ABO19582</text><path d="M43.5345 126.8504 L46.0293 126.8504 L46.0293 127.7008 L43.5345 127.7008 Z"
                  stroke="none"/>
            <text x="48.8639" xml:space="preserve" font-size="14" y="131.7717"
                  stroke="none">AB161361</text><path d="M35.1264 145.5591 L56.3359 145.5591 L56.3359 146.4095 L35.1264 146.4095 Z"
                  stroke="none"/>
            <text x="59.1706" xml:space="preserve" font-size="14" y="150.4803"
                  stroke="none">AB166878</text><path d="M29.521 173.6221 L39 173.6221 L39 174.4725 L29.521 174.4725 Z"
                  stroke="none"/>
            <text x="3.1084" xml:space="preserve" y="168.4488" stroke="none">NT1.13</text><line stroke-linecap="butt"
                  fill="none" x1="38.6792" x2="38.6792" y1="164.2677"
                  stroke-linejoin="bevel" y2="183.8268" stroke-width="0.8504"/>
            <path d="M39.1044 164.2677 L38.1636 164.2677 L38.1636 165.1181 L39.1044 165.1181 Z"
                  stroke="none"/>
            <text x="40.9983" xml:space="preserve" font-size="14" y="169.189"
                  stroke="none"></text>
            <path d="M39.1044 182.9764 L57.24 182.9764 L57.24 183.8268 L39.1044 183.8268 Z"
                  stroke="none"/>
            <text x="60.0746" xml:space="preserve" font-size="14" y="187.8976"
                  stroke="none">AJ298291</text><path d="M26.5375 201.685 L53.3524 201.685 L53.3524 202.5354 L26.5375 202.5354 Z"
                  stroke="none"/>
            <text x="56.1871" xml:space="preserve" font-size="14" y="206.6063"
                  stroke="none">DQ191179</text><path d="M18.2199 248.4567 L24 248.4567 L24 249.3071 L18.2199 249.3071 Z"
                  stroke="none"/>
            <text x="-6.1335" xml:space="preserve" y="243.2835" stroke="none">NT1.4</text><line stroke-linecap="butt"
                  fill="none" x1="23.4905" x2="23.4905" y1="229.748"
                  stroke-linejoin="bevel" y2="268.0158" stroke-width="0.8504"/>
            <path d="M23.9157 229.748 L31 229.748 L31 230.5984 L23.9157 230.5984 Z"
                  stroke="none"/>
            <text x="1.6924" xml:space="preserve" y="224.5748" stroke="none">NT1.9</text><line stroke-linecap="butt"
                  fill="none" x1="31.3561" x2="31.3561" y1="220.3937"
                  stroke-linejoin="bevel" y2="239.9528" stroke-width="0.8504"/>
            <path d="M31.7813 220.3937 L49.3744 220.3937 L49.3744 221.2441 L31.7813 221.2441 Z"
                  stroke="none"/>
            <text x="52.209" xml:space="preserve" font-size="14" y="225.315"
                  stroke="none">AB161359</text><path d="M31.7813 239.1024 L57.8729 239.1024 L57.8729 239.9528 L31.7813 239.9528 Z"
                  stroke="none"/>
            <text x="60.7075" xml:space="preserve" font-size="14" y="244.0237"
                  stroke="none">AM283465</text><path d="M23.9157 267.1654 L29 267.1654 L29 268.0158 L23.9157 268.0158 Z"
                  stroke="none"/>
            <text x="-0.8258" xml:space="preserve" y="261.9921" stroke="none">NT1.7</text><line stroke-linecap="butt"
                  fill="none" x1="28.8246" x2="28.8246" y1="257.811"
                  stroke-linejoin="bevel" y2="277.3701" stroke-width="0.8504"/>
            <path d="M29.2498 257.811 L28.309 257.811 L28.309 258.6614 L29.2498 258.6614 Z"
                  stroke="none"/>
            <text x="31.1437" xml:space="preserve" font-size="14" y="262.7323"
                  stroke="none"></text>
            <path d="M29.2498 276.5197 L38.9773 276.5197 L38.9773 277.3701 L29.2498 277.3701 Z"
                  stroke="none"/>
            <text x="41.812" xml:space="preserve" font-size="14" y="281.441"
                  stroke="none">D0191178</text>
        </g>
    </g>
</svg>
