<?xml version="1.0"?>
<!DOCTYPE svg PUBLIC '-//W3C//DTD SVG 1.0//EN'
    'http://www.w3.org/TR/2001/REC-SVG-20010904/DTD/svg10.dtd' >

<svg fill-opacity="1" xmlns:xlink="http://www.w3.org/1999/xlink"
     color-rendering="auto" color-interpolation="auto" stroke="black"
     text-rendering="auto" stroke-linecap="square" stroke-miterlimit="10"
     stroke-opacity="1" shape-rendering="auto" fill="black"
     stroke-dasharray="none" font-weight="normal" stroke-width="1"
     xmlns="http://www.w3.org/2000/svg" font-family="&apos;Dialog&apos;"
     font-style="normal" stroke-linejoin="miter" font-size="12"
     stroke-dashoffset="0" image-rendering="auto">
    <!--Generated by the Batik Graphics2D SVG Generator-->
    <defs id="genericDefs"/>
    <g>
        <g fill="white" stroke="white">
            <rect x="0" width="163" height="224" y="0" stroke="none"/>
            <path fill="black"
                  d="M5 155.1791 L18 155.1791 L18 156.0295 L5 156.0295 Z"
                  stroke="none"/>
            <circle fill="black" r="1.2756" cx="17.4331" cy="155.1791"
                    stroke="none"/>
            <path fill="black"
                  d="M17.8583 154.3287 L27 154.3287 L27 155.1791 L17.8583 155.1791 Z"
                  stroke="none"/>
        </g>
        <g font-family="&apos;Arial&apos;" font-size="9">
            <text x="-3.0804" xml:space="preserve" y="149.1555" stroke="none">NT1.2</text><line stroke-linecap="butt"
                  fill="none" x1="26.5039" x2="26.5039" y1="106.9725"
                  stroke-linejoin="bevel" y2="202.5355" stroke-width="0.8504"/>
            <path d="M26.9291 106.9724 L30 106.9724 L30 107.8228 L26.9291 107.8228 Z"
                  stroke="none"/>
            <text x="0.741" xml:space="preserve" y="101.7992" stroke="none">NT1.3</text><line stroke-linecap="butt"
                  fill="none" x1="30.3915" x2="30.3915" y1="54.3543"
                  stroke-linejoin="bevel" y2="160.4409" stroke-width="0.8504"/>
            <path d="M30.8166 54.3543 L41 54.3543 L41 55.2047 L30.8166 55.2047 Z"
                  stroke="none"/>
            <text x="10.7957" xml:space="preserve" y="49.1811" stroke="none">NT1.5</text><line stroke-linecap="butt"
                  fill="none" x1="40.499" x2="40.499" y1="14.5984"
                  stroke-linejoin="bevel" y2="94.9606" stroke-width="0.8504"/>
            <path d="M40.9242 14.5984 L57.1788 14.5984 L57.1788 15.4488 L40.9242 15.4488 Z"
                  stroke="none"/>
            <text x="60.0135" xml:space="preserve" font-size="14" y="19.5197"
                  stroke="none">U20149</text><path d="M40.9242 94.1102 L42 94.1102 L42 94.9606 L40.9242 94.9606 Z"
                  stroke="none"/>
            <text x="12.1444" xml:space="preserve" y="88.937" stroke="none">NT1.6</text><line stroke-linecap="butt"
                  fill="none" x1="41.7948" x2="41.7948" y1="70.7244"
                  stroke-linejoin="bevel" y2="118.3465" stroke-width="0.8504"/>
            <path d="M42.22 70.7244 L44 70.7244 L44 71.5748 L42.22 71.5748 Z"
                  stroke="none"/>
            <text x="14.7228" xml:space="preserve" y="65.5512" stroke="none">NT1.8</text><line stroke-linecap="butt"
                  fill="none" x1="44.3865" x2="44.3865" y1="52.0157"
                  stroke-linejoin="bevel" y2="90.2835" stroke-width="0.8504"/>
            <path d="M44.8117 52.0158 L46 52.0158 L46 52.8661 L44.8117 52.8661 Z"
                  stroke="none"/>
            <text x="10.1379" xml:space="preserve" y="46.8425" stroke="none">NT1.10</text><line stroke-linecap="butt"
                  fill="none" x1="45.6823" x2="45.6823" y1="33.3071"
                  stroke-linejoin="bevel" y2="71.5748" stroke-width="0.8504"/>
            <path d="M46.1075 33.3071 L56.9197 33.3071 L56.9197 34.1575 L46.1075 34.1575 Z"
                  stroke="none"/>
            <text x="59.7543" xml:space="preserve" font-size="14" y="38.2283"
                  stroke="none">M59133</text><path d="M46 52.0158 L59.5113 52.0158 L59.5113 52.8661 L46 52.8661 Z"
                  stroke="none"/>
            <text x="62.346" xml:space="preserve" font-size="14" y="56.937"
                  stroke="none">M59135</text><path d="M46.1075 70.7244 L58.2155 70.7244 L58.2155 71.5748 L46.1075 71.5748 Z"
                  stroke="none"/>
            <text x="61.0502" xml:space="preserve" font-size="14" y="75.6457"
                  stroke="none">M59127</text><path d="M44.8117 89.4331 L55.1055 89.4331 L55.1055 90.2835 L44.8117 90.2835 Z"
                  stroke="none"/>
            <text x="57.9401" xml:space="preserve" font-size="14" y="94.3543"
                  stroke="none">AY260433</text><path d="M42.22 117.4961 L44 117.4961 L44 118.3464 L42.22 118.3464 Z"
                  stroke="none"/>
            <text x="14.2177" xml:space="preserve" y="112.3228" stroke="none">NT1.7</text><line stroke-linecap="butt"
                  fill="none" x1="43.8681" x2="43.8681" y1="108.1417"
                  stroke-linejoin="bevel" y2="127.7008" stroke-width="0.8504"/>
            <path d="M44.2934 108.1417 L58.7338 108.1417 L58.7338 108.9921 L44.2934 108.9921 Z"
                  stroke="none"/>
            <text x="61.5685" xml:space="preserve" font-size="14" y="113.063"
                  stroke="none">AJO12094</text><path d="M44.2934 126.8504 L77.3939 126.8504 L77.3939 127.7008 L44.2934 127.7008 Z"
                  stroke="none"/>
            <text x="80.2286" xml:space="preserve" font-size="14" y="131.7717"
                  stroke="none">AJ238002</text><path d="M30.8166 159.5906 L38 159.5906 L38 160.441 L30.8166 160.441 Z"
                  stroke="none"/>
            <text x="8.0241" xml:space="preserve" y="154.4173" stroke="none">NT1.4</text><line stroke-linecap="butt"
                  fill="none" x1="37.6482" x2="37.6482" y1="145.5591"
                  stroke-linejoin="bevel" y2="174.4724" stroke-width="0.8504"/>
            <path d="M38.0734 145.5591 L50.1813 145.5591 L50.1813 146.4095 L38.0734 146.4095 Z"
                  stroke="none"/>
            <text x="53.016" xml:space="preserve" font-size="14" y="150.4803"
                  stroke="none">AY817738</text><path d="M38.0734 173.6221 L45 173.6221 L45 174.4725 L38.0734 174.4725 Z"
                  stroke="none"/>
            <text x="15.5003" xml:space="preserve" y="168.4488" stroke="none">NT1.9</text><line stroke-linecap="butt"
                  fill="none" x1="45.164" x2="45.164" y1="164.2677"
                  stroke-linejoin="bevel" y2="183.8268" stroke-width="0.8504"/>
            <path d="M45.5892 164.2677 L60.2889 164.2677 L60.2889 165.1181 L45.5892 165.1181 Z"
                  stroke="none"/>
            <text x="63.1235" xml:space="preserve" font-size="14" y="169.189"
                  stroke="none">M59146</text><path d="M45.5892 182.9764 L62.1031 182.9764 L62.1031 183.8268 L45.5892 183.8268 Z"
                  stroke="none"/>
            <text x="64.9377" xml:space="preserve" font-size="14" y="187.8976"
                  stroke="none">M59141</text><path d="M26.9291 201.685 L45.5163 201.685 L45.5163 202.5354 L26.9291 202.5354 Z"
                  stroke="none"/>
            <text x="48.351" xml:space="preserve" font-size="14" y="206.6063"
                  stroke="none">DQ787474</text>
        </g>
    </g>
</svg>
