<?xml version="1.0"?>
<!DOCTYPE svg PUBLIC '-//W3C//DTD SVG 1.0//EN'
    'http://www.w3.org/TR/2001/REC-SVG-20010904/DTD/svg10.dtd' >

<svg fill-opacity="1" xmlns:xlink="http://www.w3.org/1999/xlink"
     color-rendering="auto" color-interpolation="auto" stroke="black"
     text-rendering="auto" stroke-linecap="square" stroke-miterlimit="10"
     stroke-opacity="1" shape-rendering="auto" fill="black"
     stroke-dasharray="none" font-weight="normal" stroke-width="1"
     xmlns="http://www.w3.org/2000/svg" font-family="&apos;Dialog&apos;"
     font-style="normal" stroke-linejoin="miter" font-size="12"
     stroke-dashoffset="0" image-rendering="auto">
    <!--Generated by the Batik Graphics2D SVG Generator-->
    <defs id="genericDefs"/>
    <g>
        <g fill="white" stroke="white">
            <rect x="0" width="116" height="261" y="0" stroke="none"/>
            <path fill="black"
                  d="M5 52.8429 L44 52.8429 L44 53.6933 L5 53.6933 Z"
                  stroke="none"/>
        </g>
        <g font-family="&apos;Arial&apos;" font-size="9">
            <text x="8.5039" xml:space="preserve" y="47.6697" stroke="none">NT1.25</text><line stroke-linecap="butt"
                  fill="none" x1="44.1276" x2="44.1276" y1="14.5984"
                  stroke-linejoin="bevel" y2="91.0874" stroke-width="0.8504"/>
            <path d="M44.5528 14.5984 L94.248 14.5984 L94.248 15.4488 L44.5528 15.4488 Z"
                  stroke="none"/>
            <text x="97.0827" xml:space="preserve" font-size="14" y="19.5197"
                  stroke="none"></text>
            <path d="M44.5528 90.237 L54 90.237 L54 91.0874 L44.5528 91.0874 Z"
                  stroke="none"/>
            <text x="26.0758" xml:space="preserve" y="85.0637" stroke="none">NT1.1</text><line stroke-linecap="butt"
                  fill="none" x1="54.3254" x2="54.3254" y1="33.3071"
                  stroke-linejoin="bevel" y2="148.0172" stroke-width="0.8504"/>
            <path d="M54.7506 33.3071 L97.5734 33.3071 L97.5734 34.1575 L54.7506 34.1575 Z"
                  stroke="none"/>
            <text x="100.4081" xml:space="preserve" font-size="14" y="38.2283"
                  stroke="none"></text>
            <path d="M54.7506 147.1668 L66 147.1668 L66 148.0172 L54.7506 148.0172 Z"
                  stroke="none"/>
            <text x="36.3798" xml:space="preserve" y="141.9936" stroke="none">NT1.2</text><line stroke-linecap="butt"
                  fill="none" x1="65.9642" x2="65.9642" y1="78.6171"
                  stroke-linejoin="bevel" y2="216.567" stroke-width="0.8504"/>
            <path d="M66.3894 78.6171 L71 78.6171 L71 79.4675 L66.3894 79.4675 Z"
                  stroke="none"/>
            <text x="41.3018" xml:space="preserve" y="73.4439" stroke="none">NT1.3</text><line stroke-linecap="butt"
                  fill="none" x1="70.9523" x2="70.9523" y1="52.0157"
                  stroke-linejoin="bevel" y2="106.0689" stroke-width="0.8504"/>
            <path d="M71.3775 52.0158 L103.0048 52.0158 L103.0048 52.8661 L71.3775 52.8661 Z"
                  stroke="none"/>
            <text x="105.8395" xml:space="preserve" font-size="14" y="56.937"
                  stroke="none"></text>
            <path d="M71.3775 105.2185 L75 105.2185 L75 106.0689 L71.3775 106.0689 Z"
                  stroke="none"/>
            <text x="45.4295" xml:space="preserve" y="100.0453" stroke="none">NT1.4</text><line stroke-linecap="butt"
                  fill="none" x1="75.0536" x2="75.0536" y1="70.7244"
                  stroke-linejoin="bevel" y2="140.563" stroke-width="0.8504"/>
            <path d="M75.4787 70.7244 L98.1276 70.7244 L98.1276 71.5748 L75.4787 71.5748 Z"
                  stroke="none"/>
            <text x="100.9623" xml:space="preserve" font-size="14" y="75.6457"
                  stroke="none"></text>
            <path d="M75.4787 139.7126 L77 139.7126 L77 140.563 L75.4787 140.563 Z"
                  stroke="none"/>
            <text x="47.678" xml:space="preserve" y="134.5394" stroke="none">NT1.5</text><line stroke-linecap="butt"
                  fill="none" x1="77.3813" x2="77.3813" y1="105.8032"
                  stroke-linejoin="bevel" y2="174.4724" stroke-width="0.8504"/>
            <path d="M77.8065 105.8031 L78 105.8031 L78 106.6535 L77.8065 106.6535 Z"
                  stroke="none"/>
            <text x="47.9525" xml:space="preserve" y="100.6299" stroke="none">NT1.7</text><line stroke-linecap="butt"
                  fill="none" x1="77.603" x2="77.603" y1="89.4331"
                  stroke-linejoin="bevel" y2="123.0236" stroke-width="0.8504"/>
            <path d="M78.0282 89.4331 L77.067 89.4331 L77.067 90.2835 L78.0282 90.2835 Z"
                  stroke="none"/>
            <text x="79.9016" xml:space="preserve" font-size="14" y="94.3543"
                  stroke="none"></text>
            <path d="M78.0282 122.1732 L82 122.1732 L82 123.0236 L78.0282 123.0236 Z"
                  stroke="none"/>
            <text x="51.8189" xml:space="preserve" y="117" stroke="none">NT1.8</text><line stroke-linecap="butt"
                  fill="none" x1="81.4826" x2="81.4826" y1="108.1417"
                  stroke-linejoin="bevel" y2="137.0551" stroke-width="0.8504"/>
            <path d="M81.9078 108.1417 L85.4913 108.1417 L85.4913 108.9921 L81.9078 108.9921 Z"
                  stroke="none"/>
            <text x="88.3259" xml:space="preserve" font-size="14" y="113.063"
                  stroke="none"></text>
            <path d="M81.9078 136.2047 L83 136.2047 L83 137.0551 L81.9078 137.0551 Z"
                  stroke="none"/>
            <text x="53.7033" xml:space="preserve" y="131.0315" stroke="none">NT1.9</text><line stroke-linecap="butt"
                  fill="none" x1="83.367" x2="83.367" y1="126.8504"
                  stroke-linejoin="bevel" y2="146.4094" stroke-width="0.8504"/>
            <path d="M83.7922 126.8504 L88.1516 126.8504 L88.1516 127.7008 L83.7922 127.7008 Z"
                  stroke="none"/>
            <text x="90.9862" xml:space="preserve" font-size="14" y="131.7716"
                  stroke="none"></text>
            <path d="M83.7922 145.559 L85.6021 145.559 L85.6021 146.4094 L83.7922 146.4094 Z"
                  stroke="none"/>
            <text x="88.4368" xml:space="preserve" font-size="14" y="150.4803"
                  stroke="none"></text>
            <path d="M77.8065 173.6221 L87 173.6221 L87 174.4725 L77.8065 174.4725 Z"
                  stroke="none"/>
            <text x="51.5201" xml:space="preserve" y="168.4488" stroke="none">NT1.12</text><line stroke-linecap="butt"
                  fill="none" x1="87.0249" x2="87.0249" y1="164.2677"
                  stroke-linejoin="bevel" y2="183.8268" stroke-width="0.8504"/>
            <path d="M87.4501 164.2677 L95.1348 164.2677 L95.1348 165.1181 L87.4501 165.1181 Z"
                  stroke="none"/>
            <text x="97.9694" xml:space="preserve" font-size="14" y="169.189"
                  stroke="none"></text>
            <path d="M87.4501 182.9764 L104.335 182.9764 L104.335 183.8268 L87.4501 183.8268 Z"
                  stroke="none"/>
            <text x="107.1696" xml:space="preserve" font-size="14" y="187.8976"
                  stroke="none"></text>
            <path d="M66.3894 215.7165 L88 215.7165 L88 216.5669 L66.3894 216.5669 Z"
                  stroke="none"/>
            <text x="52.6733" xml:space="preserve" y="210.5433" stroke="none">NT1.13</text><line stroke-linecap="butt"
                  fill="none" x1="88.2442" x2="88.2442" y1="201.685"
                  stroke-linejoin="bevel" y2="230.5984" stroke-width="0.8504"/>
            <path d="M88.6694 201.685 L90.5901 201.685 L90.5901 202.5354 L88.6694 202.5354 Z"
                  stroke="none"/>
            <text x="93.4248" xml:space="preserve" font-size="14" y="206.6063"
                  stroke="none"></text>
            <path d="M88.6694 229.748 L92 229.748 L92 230.5984 L88.6694 230.5984 Z"
                  stroke="none"/>
            <text x="56.4421" xml:space="preserve" y="224.5748" stroke="none">NT1.16</text><line stroke-linecap="butt"
                  fill="none" x1="92.0129" x2="92.0129" y1="220.3937"
                  stroke-linejoin="bevel" y2="239.9528" stroke-width="0.8504"/>
            <path d="M92.4381 220.3937 L95.2456 220.3937 L95.2456 221.2441 L92.4381 221.2441 Z"
                  stroke="none"/>
            <text x="98.0803" xml:space="preserve" font-size="14" y="225.315"
                  stroke="none"></text>
            <path d="M92.4381 239.1024 L93.6938 239.1024 L93.6938 239.9528 L92.4381 239.9528 Z"
                  stroke="none"/>
            <text x="96.5284" xml:space="preserve" font-size="14" y="244.0237"
                  stroke="none"></text>
        </g>
    </g>
</svg>
