<?xml version="1.0"?>
<!DOCTYPE svg PUBLIC '-//W3C//DTD SVG 1.0//EN'
    'http://www.w3.org/TR/2001/REC-SVG-20010904/DTD/svg10.dtd' >

<svg fill-opacity="1" xmlns:xlink="http://www.w3.org/1999/xlink"
     color-rendering="auto" color-interpolation="auto" stroke="black"
     text-rendering="auto" stroke-linecap="square" stroke-miterlimit="10"
     stroke-opacity="1" shape-rendering="auto" fill="black"
     stroke-dasharray="none" font-weight="normal" stroke-width="1"
     xmlns="http://www.w3.org/2000/svg" font-family="&apos;Dialog&apos;"
     font-style="normal" stroke-linejoin="miter" font-size="12"
     stroke-dashoffset="0" image-rendering="auto">
    <!--Generated by the Batik Graphics2D SVG Generator-->
    <defs id="genericDefs"/>
    <g>
        <g fill="white" stroke="white">
            <rect x="0" width="362" height="317" y="0" stroke="none"/>
            <path fill="black"
                  d="M5 116.0029 L43 116.0029 L43 116.8533 L5 116.8533 Z"
                  stroke="none"/>
        </g>
        <g font-family="&apos;Arial&apos;" font-size="9">
            <text x="8.5039" xml:space="preserve" y="110.8297" stroke="none">NT1.31</text><line stroke-linecap="butt"
                  fill="none" x1="42.674" x2="42.674" y1="14.5984"
                  stroke-linejoin="bevel" y2="217.4074" stroke-width="0.8504"/>
            <path d="M43.0992 14.5984 L124.826 14.5984 L124.826 15.4488 L43.0992 15.4488 Z"
                  stroke="none"/>
            <text x="127.6606" xml:space="preserve" font-size="14" y="19.5197"
                  stroke="none">PseudoalteromonasatlanticaT6c</text><path d="M43.0992 216.557 L75 216.557 L75 217.4074 L43.0992 217.4074 Z"
                  stroke="none"/>
            <text x="46.4131" xml:space="preserve" y="211.3837" stroke="none">NT1.1</text><line stroke-linecap="butt"
                  fill="none" x1="75.1421" x2="75.1421" y1="161.2714"
                  stroke-linejoin="bevel" y2="272.6929" stroke-width="0.8504"/>
            <path d="M75.5673 161.2714 L84 161.2714 L84 162.1218 L75.5673 162.1218 Z"
                  stroke="none"/>
            <text x="54.1498" xml:space="preserve" y="156.0982" stroke="none">NT1.3</text><line stroke-linecap="butt"
                  fill="none" x1="83.8002" x2="83.8002" y1="92.7948"
                  stroke-linejoin="bevel" y2="230.5984" stroke-width="0.8504"/>
            <path d="M84.2254 92.7948 L89 92.7948 L89 93.6452 L84.2254 93.6452 Z"
                  stroke="none"/>
            <text x="59.5082" xml:space="preserve" y="87.6216" stroke="none">NT1.5</text><line stroke-linecap="butt"
                  fill="none" x1="89.2116" x2="89.2116" y1="33.3071"
                  stroke-linejoin="bevel" y2="153.1329" stroke-width="0.8504"/>
            <path d="M89.6368 33.3071 L100.6913 33.3071 L100.6913 34.1575 L89.6368 34.1575 Z"
                  stroke="none"/>
            <text x="103.526" xml:space="preserve" font-size="14" y="38.2283"
                  stroke="none">EF185161</text><path d="M89.6368 152.2825 L92 152.2825 L92 153.1329 L89.6368 153.1329 Z"
                  stroke="none"/>
            <text x="62.4832" xml:space="preserve" y="147.1092" stroke="none">NT1.6</text><line stroke-linecap="butt"
                  fill="none" x1="92.1337" x2="92.1337" y1="112.2343"
                  stroke-linejoin="bevel" y2="193.1811" stroke-width="0.8504"/>
            <path d="M92.5589 112.2343 L98 112.2343 L98 113.0846 L92.5589 113.0846 Z"
                  stroke="none"/>
            <text x="68.4357" xml:space="preserve" y="107.061" stroke="none">NT1.7</text><line stroke-linecap="butt"
                  fill="none" x1="98.0862" x2="98.0862" y1="69.5551"
                  stroke-linejoin="bevel" y2="155.7638" stroke-width="0.8504"/>
            <path d="M98.5114 69.5551 L104 69.5551 L104 70.4055 L98.5114 70.4055 Z"
                  stroke="none"/>
            <text x="68.2778" xml:space="preserve" y="64.3819" stroke="none">NT1.10</text><line stroke-linecap="butt"
                  fill="none" x1="103.8222" x2="103.8222" y1="52.0157"
                  stroke-linejoin="bevel" y2="87.9449" stroke-width="0.8504"/>
            <path d="M104.2474 52.0158 L105.2369 52.0158 L105.2369 52.8661 L104.2474 52.8661 Z"
                  stroke="none"/>
            <text x="108.0715" xml:space="preserve" font-size="14" y="56.937"
                  stroke="none"></text>
            <path d="M104.2474 87.0945 L104 87.0945 L104 87.9449 L104.2474 87.9449 Z"
                  stroke="none"/>
            <text x="70.0851" xml:space="preserve" y="81.9213" stroke="none">NT1.11</text><line stroke-linecap="butt"
                  fill="none" x1="104.2551" x2="104.2551" y1="70.7244"
                  stroke-linejoin="bevel" y2="104.315" stroke-width="0.8504"/>
            <path d="M104.6804 70.7244 L103.9382 70.7244 L103.9382 71.5748 L104.6804 71.5748 Z"
                  stroke="none"/>
            <text x="106.7728" xml:space="preserve" font-size="14" y="75.6457"
                  stroke="none"></text>
            <path d="M104.6804 103.4646 L105 103.4646 L105 104.3149 L104.6804 104.3149 Z"
                  stroke="none"/>
            <text x="69.2519" xml:space="preserve" y="98.2913" stroke="none">NT1.14</text><line stroke-linecap="butt"
                  fill="none" x1="104.7963" x2="104.7963" y1="89.4331"
                  stroke-linejoin="bevel" y2="118.3465" stroke-width="0.8504"/>
            <path d="M105.2215 89.4331 L104.2629 89.4331 L104.2629 90.2835 L105.2215 90.2835 Z"
                  stroke="none"/>
            <text x="107.0975" xml:space="preserve" font-size="14" y="94.3543"
                  stroke="none"></text>
            <path d="M105.2215 117.4961 L105 117.4961 L105 118.3464 L105.2215 118.3464 Z"
                  stroke="none"/>
            <text x="69.7534" xml:space="preserve" y="112.3228" stroke="none">NT1.18</text><line stroke-linecap="butt"
                  fill="none" x1="105.3374" x2="105.3374" y1="108.1417"
                  stroke-linejoin="bevel" y2="127.7008" stroke-width="0.8504"/>
            <path d="M105.7626 108.1417 L105.0205 108.1417 L105.0205 108.9921 L105.7626 108.9921 Z"
                  stroke="none"/>
            <text x="107.8551" xml:space="preserve" font-size="14" y="113.063"
                  stroke="none">EF211831</text><path d="M105.7626 126.8504 L105.0205 126.8504 L105.0205 127.7008 L105.7626 127.7008 Z"
                  stroke="none"/>
            <text x="107.8551" xml:space="preserve" font-size="14" y="131.7716"
                  stroke="none">V.rogosaeCF84</text><path d="M98.5114 154.9134 L105 154.9134 L105 155.7638 L98.5114 155.7638 Z"
                  stroke="none"/>
            <text x="69.389" xml:space="preserve" y="149.7402" stroke="none">NT1.15</text><line stroke-linecap="butt"
                  fill="none" x1="105.0127" x2="105.0127" y1="145.5591"
                  stroke-linejoin="bevel" y2="165.1181" stroke-width="0.8504"/>
            <path d="M105.4379 145.5591 L104.804 145.5591 L104.804 146.4095 L105.4379 146.4095 Z"
                  stroke="none"/>
            <text x="107.6386" xml:space="preserve" font-size="14" y="150.4803"
                  stroke="none"></text>
            <path d="M105.4379 164.2677 L104.6958 164.2677 L104.6958 165.1181 L105.4379 165.1181 Z"
                  stroke="none"/>
            <text x="107.5304" xml:space="preserve" font-size="14" y="169.189"
                  stroke="none"></text>
            <path d="M92.5589 192.3307 L112 192.3307 L112 193.1811 L92.5589 193.1811 Z"
                  stroke="none"/>
            <text x="76.8277" xml:space="preserve" y="187.1575" stroke="none">NT1.24</text><line stroke-linecap="butt"
                  fill="none" x1="112.3722" x2="112.3722" y1="182.9764"
                  stroke-linejoin="bevel" y2="202.5354" stroke-width="0.8504"/>
            <path d="M112.7974 182.9764 L116.6007 182.9764 L116.6007 183.8268 L112.7974 183.8268 Z"
                  stroke="none"/>
            <text x="119.4354" xml:space="preserve" font-size="14" y="187.8976"
                  stroke="none"></text>
            <path d="M112.7974 201.6851 L115.302 201.6851 L115.302 202.5355 L112.7974 202.5355 Z"
                  stroke="none"/>
            <text x="118.1367" xml:space="preserve" font-size="14" y="206.6063"
                  stroke="none">EF185166</text><path d="M84.2254 229.748 L86 229.748 L86 230.5984 L84.2254 230.5984 Z"
                  stroke="none"/>
            <text x="56.449" xml:space="preserve" y="224.5748" stroke="none">NT1.4</text><line stroke-linecap="butt"
                  fill="none" x1="86.073" x2="86.073" y1="220.3937"
                  stroke-linejoin="bevel" y2="239.9528" stroke-width="0.8504"/>
            <path d="M86.4982 220.3937 L101.1243 220.3937 L101.1243 221.2441 L86.4982 221.2441 Z"
                  stroke="none"/>
            <text x="103.9589" xml:space="preserve" font-size="14" y="225.315"
                  stroke="none">EF185159</text><path d="M86.4982 239.1024 L106.4274 239.1024 L106.4274 239.9528 L86.4982 239.9528 Z"
                  stroke="none"/>
            <text x="109.2621" xml:space="preserve" font-size="14" y="244.0237"
                  stroke="none">EF185163</text><path d="M75.5673 271.8425 L82 271.8425 L82 272.6929 L75.5673 272.6929 Z"
                  stroke="none"/>
            <text x="52.8089" xml:space="preserve" y="266.6693" stroke="none">NT1.2</text><line stroke-linecap="butt"
                  fill="none" x1="82.3933" x2="82.3933" y1="257.811"
                  stroke-linejoin="bevel" y2="286.7244" stroke-width="0.8504"/>
            <path d="M82.8185 257.811 L124.826 257.811 L124.826 258.6614 L82.8185 258.6614 Z"
                  stroke="none"/>
            <text x="127.6606" xml:space="preserve" font-size="14" y="262.7323"
                  stroke="none">EF411194</text><path d="M82.8185 285.8741 L106 285.8741 L106 286.7245 L82.8185 286.7245 Z"
                  stroke="none"/>
            <text x="70.5902" xml:space="preserve" y="280.7008" stroke="none">NT1.22</text><line stroke-linecap="butt"
                  fill="none" x1="106.095" x2="106.095" y1="276.5197"
                  stroke-linejoin="bevel" y2="296.0788" stroke-width="0.8504"/>
            <path d="M106.5202 276.5197 L120.2804 276.5197 L120.2804 277.3701 L106.5202 277.3701 Z"
                  stroke="none"/>
            <text x="123.1151" xml:space="preserve" font-size="14" y="281.441"
                  stroke="none"></text>
            <path d="M106.5202 295.2284 L124.1766 295.2284 L124.1766 296.0788 L106.5202 296.0788 Z"
                  stroke="none"/>
            <text x="127.0113" xml:space="preserve" font-size="14" y="300.1497"
                  stroke="none">EF185165</text>
        </g>
    </g>
</svg>
