<?xml version="1.0"?>
<!DOCTYPE svg PUBLIC '-//W3C//DTD SVG 1.0//EN'
    'http://www.w3.org/TR/2001/REC-SVG-20010904/DTD/svg10.dtd' >

<svg fill-opacity="1" xmlns:xlink="http://www.w3.org/1999/xlink"
     color-rendering="auto" color-interpolation="auto" stroke="black"
     text-rendering="auto" stroke-linecap="square" stroke-miterlimit="10"
     stroke-opacity="1" shape-rendering="auto" fill="black"
     stroke-dasharray="none" font-weight="normal" stroke-width="1"
     xmlns="http://www.w3.org/2000/svg" font-family="&apos;Dialog&apos;"
     font-style="normal" stroke-linejoin="miter" font-size="12"
     stroke-dashoffset="0" image-rendering="auto">
    <!--Generated by the Batik Graphics2D SVG Generator-->
    <defs id="genericDefs"/>
    <g>
        <g fill="white" stroke="white">
            <rect x="0" width="187" height="299" y="0" stroke="none"/>
            <path fill="black"
                  d="M5 91.9278 L18 91.9278 L18 92.7782 L5 92.7782 Z"
                  stroke="none"/>
            <circle fill="black" r="1.2756" cx="17.433" cy="91.9278"
                    stroke="none"/>
            <path fill="black"
                  d="M17.8582 91.0774 L18 91.0774 L18 91.9278 L17.8582 91.9278 Z"
                  stroke="none"/>
        </g>
        <g font-family="&apos;Arial&apos;" font-size="9">
            <text x="-12.0004" xml:space="preserve" y="85.9042" stroke="none">NT1.2</text><line stroke-linecap="butt"
                  fill="none" x1="17.584" x2="17.584" y1="14.5984"
                  stroke-linejoin="bevel" y2="168.4068" stroke-width="0.8504"/>
            <path d="M18.0092 14.5984 L19.5738 14.5984 L19.5738 15.4488 L18.0092 15.4488 Z"
                  stroke="none"/>
            <text x="22.4085" xml:space="preserve" font-size="14" y="19.5197"
                  stroke="none"></text>
            <path d="M18.0092 167.5564 L20 167.5564 L20 168.4068 L18.0092 168.4068 Z"
                  stroke="none"/>
            <text x="-9.5496" xml:space="preserve" y="162.3831" stroke="none">NT1.4</text><line stroke-linecap="butt"
                  fill="none" x1="20.0745" x2="20.0745" y1="72.6245"
                  stroke-linejoin="bevel" y2="263.3386" stroke-width="0.8504"/>
            <path d="M20.4997 72.6245 L22 72.6245 L22 73.4749 L20.4997 73.4749 Z"
                  stroke="none"/>
            <text x="-8.1949" xml:space="preserve" y="67.4513" stroke="none">NT1.5</text><line stroke-linecap="butt"
                  fill="none" x1="21.5084" x2="21.5084" y1="33.3071"
                  stroke-linejoin="bevel" y2="112.7923" stroke-width="0.8504"/>
            <path d="M21.9336 33.3071 L31.1206 33.3071 L31.1206 34.1575 L21.9336 34.1575 Z"
                  stroke="none"/>
            <text x="33.9552" xml:space="preserve" font-size="14" y="38.2283"
                  stroke="none">AJ012231</text><path d="M21.9336 111.9419 L24 111.9419 L24 112.7923 L21.9336 112.7923 Z"
                  stroke="none"/>
            <text x="-5.6516" xml:space="preserve" y="106.7687" stroke="none">NT1.6</text><line stroke-linecap="butt"
                  fill="none" x1="23.9989" x2="23.9989" y1="52.0157"
                  stroke-linejoin="bevel" y2="172.7185" stroke-width="0.8504"/>
            <path d="M24.424 52.0158 L61.912 52.0158 L61.912 52.8661 L24.424 52.8661 Z"
                  stroke="none"/>
            <text x="64.7466" xml:space="preserve" font-size="14" y="56.937"
                  stroke="none">AF427039</text><path d="M24.424 171.8681 L29 171.8681 L29 172.7185 L24.424 172.7185 Z"
                  stroke="none"/>
            <text x="-1.1367" xml:space="preserve" y="166.6949" stroke="none">NT1.8</text><line stroke-linecap="butt"
                  fill="none" x1="28.527" x2="28.527" y1="132.6969"
                  stroke-linejoin="bevel" y2="211.8898" stroke-width="0.8504"/>
            <path d="M28.9522 132.6969 L31 132.6969 L31 133.5473 L28.9522 133.5473 Z"
                  stroke="none"/>
            <text x="-4.4515" xml:space="preserve" y="127.5236" stroke="none">NT1.10</text><line stroke-linecap="butt"
                  fill="none" x1="31.093" x2="31.093" y1="105.8032"
                  stroke-linejoin="bevel" y2="160.4409" stroke-width="0.8504"/>
            <path d="M31.5182 105.8031 L35 105.8031 L35 106.6535 L31.5182 106.6535 Z"
                  stroke="none"/>
            <text x="-0.2252" xml:space="preserve" y="100.6299" stroke="none">NT1.14</text><line stroke-linecap="butt"
                  fill="none" x1="35.3192" x2="35.3192" y1="84.7559"
                  stroke-linejoin="bevel" y2="127.7008" stroke-width="0.8504"/>
            <path d="M35.7445 84.7559 L37 84.7559 L37 85.6063 L35.7445 85.6063 Z"
                  stroke="none"/>
            <text x="1.7861" xml:space="preserve" y="79.5827" stroke="none">NT1.17</text><line stroke-linecap="butt"
                  fill="none" x1="37.3569" x2="37.3569" y1="70.7244"
                  stroke-linejoin="bevel" y2="99.6378" stroke-width="0.8504"/>
            <path d="M37.7821 70.7244 L80.7038 70.7244 L80.7038 71.5748 L37.7821 71.5748 Z"
                  stroke="none"/>
            <text x="83.5385" xml:space="preserve" font-size="14" y="75.6457"
                  stroke="none">AF203391</text><path d="M37.7821 98.7874 L50 98.7874 L50 99.6378 L37.7821 99.6378 Z"
                  stroke="none"/>
            <text x="14.163" xml:space="preserve" y="93.6142" stroke="none">NT1.23</text><line stroke-linecap="butt"
                  fill="none" x1="49.7339" x2="49.7339" y1="89.4331"
                  stroke-linejoin="bevel" y2="108.9921" stroke-width="0.8504"/>
            <path d="M50.1591 89.4331 L65.4591 89.4331 L65.4591 90.2835 L50.1591 90.2835 Z"
                  stroke="none"/>
            <text x="68.2937" xml:space="preserve" font-size="14" y="94.3543"
                  stroke="none">M59158</text><path d="M50.1591 108.1417 L101.6842 108.1417 L101.6842 108.9921 L50.1591 108.9921 Z"
                  stroke="none"/>
            <text x="104.5189" xml:space="preserve" font-size="14" y="113.063"
                  stroke="none">AJ298291</text><path d="M35.7445 126.8504 L48.4785 126.8504 L48.4785 127.7008 L35.7445 127.7008 Z"
                  stroke="none"/>
            <text x="51.3131" xml:space="preserve" font-size="14" y="131.7717"
                  stroke="none">X95917</text><path d="M31.5182 159.5905 L37 159.5905 L37 160.4409 L31.5182 160.4409 Z"
                  stroke="none"/>
            <text x="1.5597" xml:space="preserve" y="154.4173" stroke="none">NT1.16</text><line stroke-linecap="butt"
                  fill="none" x1="37.1305" x2="37.1305" y1="145.559"
                  stroke-linejoin="bevel" y2="174.4724" stroke-width="0.8504"/>
            <path d="M37.5557 145.5591 L59.4215 145.5591 L59.4215 146.4095 L37.5557 146.4095 Z"
                  stroke="none"/>
            <text x="62.2561" xml:space="preserve" font-size="14" y="150.4803"
                  stroke="none">AY686710</text><path d="M37.5557 173.622 L41 173.622 L41 174.4724 L37.5557 174.4724 Z"
                  stroke="none"/>
            <text x="5.6973" xml:space="preserve" y="168.4488" stroke="none">NT1.19</text><line stroke-linecap="butt"
                  fill="none" x1="41.2813" x2="41.2813" y1="164.2677"
                  stroke-linejoin="bevel" y2="183.8268" stroke-width="0.8504"/>
            <path d="M41.7065 164.2677 L63.195 164.2677 L63.195 165.1181 L41.7065 165.1181 Z"
                  stroke="none"/>
            <text x="66.0296" xml:space="preserve" font-size="14" y="169.189"
                  stroke="none">DQ438977</text><path d="M41.7065 182.9764 L65.0062 182.9764 L65.0062 183.8268 L41.7065 183.8268 Z"
                  stroke="none"/>
            <text x="67.8409" xml:space="preserve" font-size="14" y="187.8976"
                  stroke="none">AM418384</text><path d="M28.9522 211.0394 L41 211.0394 L41 211.8898 L28.9522 211.8898 Z"
                  stroke="none"/>
            <text x="5.6218" xml:space="preserve" y="205.8661" stroke="none">NT1.18</text><line stroke-linecap="butt"
                  fill="none" x1="41.2058" x2="41.2058" y1="201.685"
                  stroke-linejoin="bevel" y2="221.2441" stroke-width="0.8504"/>
            <path d="M41.631 201.685 L42.4409 201.685 L42.4409 202.5354 L41.631 202.5354 Z"
                  stroke="none"/>
            <text x="45.2756" xml:space="preserve" font-size="14" y="206.6063"
                  stroke="none"></text>
            <path d="M41.631 220.3937 L43.3466 220.3937 L43.3466 221.2441 L41.631 221.2441 Z"
                  stroke="none"/>
            <text x="46.1812" xml:space="preserve" font-size="14" y="225.315"
                  stroke="none">AB008507</text><path d="M20.4997 262.4882 L26 262.4882 L26 263.3386 L20.4997 263.3386 Z"
                  stroke="none"/>
            <text x="-3.3875" xml:space="preserve" y="257.315" stroke="none">NT1.7</text><line stroke-linecap="butt"
                  fill="none" x1="26.2629" x2="26.2629" y1="248.4567"
                  stroke-linejoin="bevel" y2="277.3701" stroke-width="0.8504"/>
            <path d="M26.6881 248.4567 L29 248.4567 L29 249.3071 L26.6881 249.3071 Z"
                  stroke="none"/>
            <text x="-1.1367" xml:space="preserve" y="243.2835" stroke="none">NT1.9</text><line stroke-linecap="butt"
                  fill="none" x1="28.527" x2="28.527" y1="239.1024"
                  stroke-linejoin="bevel" y2="258.6615" stroke-width="0.8504"/>
            <path d="M28.9522 239.1024 L30.8942 239.1024 L30.8942 239.9528 L28.9522 239.9528 Z"
                  stroke="none"/>
            <text x="33.7288" xml:space="preserve" font-size="14" y="244.0237"
                  stroke="none">AY550264</text><path d="M28.9522 257.8111 L31.2715 257.8111 L31.2715 258.6615 L28.9522 258.6615 Z"
                  stroke="none"/>
            <text x="34.1062" xml:space="preserve" font-size="14" y="262.7323"
                  stroke="none">AY550263</text><path d="M26.6881 276.5197 L34.9695 276.5197 L34.9695 277.3701 L26.6881 277.3701 Z"
                  stroke="none"/>
            <text x="37.8042" xml:space="preserve" font-size="14" y="281.441"
                  stroke="none">AY650027</text>
        </g>
    </g>
</svg>
