<?xml version="1.0"?>
<!DOCTYPE svg PUBLIC '-//W3C//DTD SVG 1.0//EN'
    'http://www.w3.org/TR/2001/REC-SVG-20010904/DTD/svg10.dtd' >

<svg fill-opacity="1" xmlns:xlink="http://www.w3.org/1999/xlink"
     color-rendering="auto" color-interpolation="auto" stroke="black"
     text-rendering="auto" stroke-linecap="square" stroke-miterlimit="10"
     stroke-opacity="1" shape-rendering="auto" fill="black"
     stroke-dasharray="none" font-weight="normal" stroke-width="1"
     xmlns="http://www.w3.org/2000/svg" font-family="&apos;Dialog&apos;"
     font-style="normal" stroke-linejoin="miter" font-size="12"
     stroke-dashoffset="0" image-rendering="auto">
    <!--Generated by the Batik Graphics2D SVG Generator-->
    <defs id="genericDefs"/>
    <g>
        <g fill="white" stroke="white">
            <rect x="0" width="309" height="168" y="0" stroke="none"/>
            <path fill="black"
                  d="M5 50.2352 L18 50.2352 L18 51.0856 L5 51.0856 Z"
                  stroke="none"/>
            <circle fill="black" r="1.2756" cx="17.4331" cy="50.2352"
                    stroke="none"/>
            <path fill="black"
                  d="M17.8583 49.3848 L18 49.3848 L18 50.2352 L17.8583 50.2352 Z"
                  stroke="none"/>
        </g>
        <g font-family="&apos;Arial&apos;" font-size="9">
            <text x="-11.9977" xml:space="preserve" y="44.2116" stroke="none">NT1.2</text><line stroke-linecap="butt"
                  fill="none" x1="17.5867" x2="17.5867" y1="23.9528"
                  stroke-linejoin="bevel" y2="75.6673" stroke-width="0.8504"/>
            <path d="M18.0119 23.9528 L46 23.9528 L46 24.8032 L18.0119 24.8032 Z"
                  stroke="none"/>
            <text x="16.4231" xml:space="preserve" y="18.7795" stroke="none">NT1.8</text><line stroke-linecap="butt"
                  fill="none" x1="46.0868" x2="46.0868" y1="14.5984"
                  stroke-linejoin="bevel" y2="34.1575" stroke-width="0.8504"/>
            <path d="M46.512 14.5984 L52.2681 14.5984 L52.2681 15.4488 L46.512 15.4488 Z"
                  stroke="none"/>
            <text x="55.1027" xml:space="preserve" font-size="14" y="19.5197"
                  stroke="none"></text>
            <path d="M46.512 33.3071 L55.6482 33.3071 L55.6482 34.1575 L46.512 34.1575 Z"
                  stroke="none"/>
            <text x="58.4828" xml:space="preserve" font-size="14" y="38.2283"
                  stroke="none"></text>
            <path d="M18.0119 74.8169 L32 74.8169 L32 75.6673 L18.0119 75.6673 Z"
                  stroke="none"/>
            <text x="2.3783" xml:space="preserve" y="69.6437" stroke="none">NT1.3</text><line stroke-linecap="butt"
                  fill="none" x1="32.0288" x2="32.0288" y1="52.0157"
                  stroke-linejoin="bevel" y2="98.4685" stroke-width="0.8504"/>
            <path d="M32.454 52.0158 L55.6482 52.0158 L55.6482 52.8661 L32.454 52.8661 Z"
                  stroke="none"/>
            <text x="58.4828" xml:space="preserve" font-size="14" y="56.937"
                  stroke="none"></text>
            <path d="M32.454 97.6181 L35 97.6181 L35 98.4685 L32.454 98.4685 Z"
                  stroke="none"/>
            <text x="5.3239" xml:space="preserve" y="92.4449" stroke="none">NT1.4</text><line stroke-linecap="butt"
                  fill="none" x1="34.948" x2="34.948" y1="70.7244"
                  stroke-linejoin="bevel" y2="125.3622" stroke-width="0.8504"/>
            <path d="M35.3732 70.7244 L55.6482 70.7244 L55.6482 71.5748 L35.3732 71.5748 Z"
                  stroke="none"/>
            <text x="58.4828" xml:space="preserve" font-size="14" y="75.6457"
                  stroke="none"></text>
            <path d="M35.3732 124.5118 L40 124.5118 L40 125.3622 L35.3732 125.3622 Z"
                  stroke="none"/>
            <text x="10.0843" xml:space="preserve" y="119.3386" stroke="none">NT1.5</text><line stroke-linecap="butt"
                  fill="none" x1="39.7876" x2="39.7876" y1="103.4646"
                  stroke-linejoin="bevel" y2="146.4095" stroke-width="0.8504"/>
            <path d="M40.2128 103.4646 L41 103.4646 L41 104.3149 L40.2128 104.3149 Z"
                  stroke="none"/>
            <text x="11.5967" xml:space="preserve" y="98.2913" stroke="none">NT1.6</text><line stroke-linecap="butt"
                  fill="none" x1="41.2472" x2="41.2472" y1="89.4331"
                  stroke-linejoin="bevel" y2="118.3465" stroke-width="0.8504"/>
            <path d="M41.6724 89.4331 L55.6482 89.4331 L55.6482 90.2835 L41.6724 90.2835 Z"
                  stroke="none"/>
            <text x="58.4828" xml:space="preserve" font-size="14" y="94.3543"
                  stroke="none">WB2.1-25T</text><path d="M41.6724 117.4961 L46 117.4961 L46 118.3464 L41.6724 118.3464 Z"
                  stroke="none"/>
            <text x="16.3595" xml:space="preserve" y="112.3228" stroke="none">NT1.7</text><line stroke-linecap="butt"
                  fill="none" x1="46.01" x2="46.01" y1="108.1417"
                  stroke-linejoin="bevel" y2="127.7008" stroke-width="0.8504"/>
            <path d="M46.4352 108.1417 L55.6482 108.1417 L55.6482 108.9921 L46.4352 108.9921 Z"
                  stroke="none"/>
            <text x="58.4828" xml:space="preserve" font-size="14" y="113.063"
                  stroke="none">Pedobactercryoconitr'sDSM148257</text><path d="M46.4352 126.8504 L55.6482 126.8504 L55.6482 127.7008 L46.4352 127.7008 Z"
                  stroke="none"/>
            <text x="58.4828" xml:space="preserve" font-size="14" y="131.7716"
                  stroke="none">WB3.3—22T</text><path d="M40.2128 145.5591 L55.6482 145.5591 L55.6482 146.4095 L40.2128 146.4095 Z"
                  stroke="none"/>
            <text x="58.4828" xml:space="preserve" font-size="14" y="150.4803"
                  stroke="none">PedobactercaeniDSM16990T</text>
        </g>
    </g>
</svg>
