<?xml version="1.0"?>
<!DOCTYPE svg PUBLIC '-//W3C//DTD SVG 1.0//EN'
    'http://www.w3.org/TR/2001/REC-SVG-20010904/DTD/svg10.dtd' >

<svg fill-opacity="1" xmlns:xlink="http://www.w3.org/1999/xlink"
     color-rendering="auto" color-interpolation="auto" stroke="black"
     text-rendering="auto" stroke-linecap="square" stroke-miterlimit="10"
     stroke-opacity="1" shape-rendering="auto" fill="black"
     stroke-dasharray="none" font-weight="normal" stroke-width="1"
     xmlns="http://www.w3.org/2000/svg" font-family="&apos;Dialog&apos;"
     font-style="normal" stroke-linejoin="miter" font-size="12"
     stroke-dashoffset="0" image-rendering="auto">
    <!--Generated by the Batik Graphics2D SVG Generator-->
    <defs id="genericDefs"/>
    <g>
        <g fill="white" stroke="white">
            <rect x="0" width="267" height="617" y="0" stroke="none"/>
            <path fill="black"
                  d="M5 496.6122 L18 496.6122 L18 497.4626 L5 497.4626 Z"
                  stroke="none"/>
            <circle fill="black" r="1.2756" cx="17.4331" cy="496.6122"
                    stroke="none"/>
            <path fill="black"
                  d="M17.8583 495.7618 L18 495.7618 L18 496.6122 L17.8583 496.6122 Z"
                  stroke="none"/>
        </g>
        <g font-family="&apos;Arial&apos;" font-size="9">
            <text x="-11.3951" xml:space="preserve" y="490.5886" stroke="none">NT1.2</text><line stroke-linecap="butt"
                  fill="none" x1="18.1892" x2="18.1892" y1="454.252"
                  stroke-linejoin="bevel" y2="538.1221" stroke-width="0.8504"/>
            <path d="M18.6144 454.252 L38 454.252 L38 455.1024 L18.6144 455.1024 Z"
                  stroke="none"/>
            <text x="8.4516" xml:space="preserve" y="449.0788" stroke="none">NT1.7</text><line stroke-linecap="butt"
                  fill="none" x1="38.102" x2="38.102" y1="407.4803"
                  stroke-linejoin="bevel" y2="501.874" stroke-width="0.8504"/>
            <path d="M38.5272 407.4803 L45 407.4803 L45 408.3307 L38.5272 408.3307 Z"
                  stroke="none"/>
            <text x="9.3632" xml:space="preserve" y="402.3071" stroke="none">NT1.10</text><line stroke-linecap="butt"
                  fill="none" x1="44.9076" x2="44.9076" y1="349.0157"
                  stroke-linejoin="bevel" y2="466.7953" stroke-width="0.8504"/>
            <path d="M45.3328 349.0157 L53 349.0157 L53 349.8661 L45.3328 349.8661 Z"
                  stroke="none"/>
            <text x="17.6548" xml:space="preserve" y="343.8425" stroke="none">NT1.13</text><line stroke-linecap="butt"
                  fill="none" x1="53.2256" x2="53.2256" y1="290.5512"
                  stroke-linejoin="bevel" y2="408.3307" stroke-width="0.8504"/>
            <path d="M53.6508 290.5512 L55 290.5512 L55 291.4016 L53.6508 291.4016 Z"
                  stroke="none"/>
            <text x="19.4456" xml:space="preserve" y="285.378" stroke="none">NT1.14</text><line stroke-linecap="butt"
                  fill="none" x1="54.99" x2="54.99" y1="192.3307"
                  stroke-linejoin="bevel" y2="389.6221" stroke-width="0.8504"/>
            <path d="M55.4152 192.3307 L60 192.3307 L60 193.1811 L55.4152 193.1811 Z"
                  stroke="none"/>
            <text x="24.4604" xml:space="preserve" y="187.1575" stroke="none">NT1.17</text><line stroke-linecap="butt"
                  fill="none" x1="60.0312" x2="60.0312" y1="103.4646"
                  stroke-linejoin="bevel" y2="282.0473" stroke-width="0.8504"/>
            <path d="M60.4564 103.4646 L72 103.4646 L72 104.315 L60.4564 104.315 Z"
                  stroke="none"/>
            <text x="36.5593" xml:space="preserve" y="98.2913" stroke="none">NT1.27</text><line stroke-linecap="butt"
                  fill="none" x1="72.1301" x2="72.1301" y1="42.6614"
                  stroke-linejoin="bevel" y2="165.1181" stroke-width="0.8504"/>
            <path d="M72.5553 42.6614 L77 42.6614 L77 43.5118 L72.5553 43.5118 Z"
                  stroke="none"/>
            <text x="41.3484" xml:space="preserve" y="37.4882" stroke="none">NT1.36</text><line stroke-linecap="butt"
                  fill="none" x1="76.9193" x2="76.9193" y1="23.9528"
                  stroke-linejoin="bevel" y2="62.2205" stroke-width="0.8504"/>
            <path d="M77.3445 23.9528 L82 23.9528 L82 24.8032 L77.3445 24.8032 Z"
                  stroke="none"/>
            <text x="46.2037" xml:space="preserve" y="18.7795" stroke="none">NT1.42</text><line stroke-linecap="butt"
                  fill="none" x1="81.7084" x2="81.7084" y1="14.5984"
                  stroke-linejoin="bevel" y2="34.1575" stroke-width="0.8504"/>
            <path d="M82.1336 14.5984 L81.5353 14.5984 L81.5353 15.4488 L82.1336 15.4488 Z"
                  stroke="none"/>
            <text x="84.3699" xml:space="preserve" font-size="14" y="19.5197"
                  stroke="none">EF151262</text><path d="M82.1336 33.3071 L85.0641 33.3071 L85.0641 34.1575 L82.1336 34.1575 Z"
                  stroke="none"/>
            <text x="87.8988" xml:space="preserve" font-size="14" y="38.2283"
                  stroke="none">EF151259</text><path d="M77.3445 61.3701 L80 61.3701 L80 62.2205 L77.3445 62.2205 Z"
                  stroke="none"/>
            <text x="44.36" xml:space="preserve" y="56.1969" stroke="none">NT1.38</text><line stroke-linecap="butt"
                  fill="none" x1="79.944" x2="79.944" y1="52.0157"
                  stroke-linejoin="bevel" y2="71.5748" stroke-width="0.8504"/>
            <path d="M80.3692 52.0158 L79.7709 52.0158 L79.7709 52.8661 L80.3692 52.8661 Z"
                  stroke="none"/>
            <text x="82.6055" xml:space="preserve" font-size="14" y="56.937"
                  stroke="none">EF151252</text><path d="M80.3692 70.7244 L79.7709 70.7244 L79.7709 71.5748 L80.3692 71.5748 Z"
                  stroke="none"/>
            <text x="82.6055" xml:space="preserve" font-size="14" y="75.6457"
                  stroke="none">EF151254</text><path d="M72 105.8032 L74 105.8032 L74 106.6535 L72 106.6535 Z"
                  stroke="none"/>
            <text x="39.9766" xml:space="preserve" y="100.6299" stroke="none">NT1.31</text><line stroke-linecap="butt"
                  fill="none" x1="74.1466" x2="74.1466" y1="89.4331"
                  stroke-linejoin="bevel" y2="123.0236" stroke-width="0.8504"/>
            <path d="M74.5718 89.4331 L78.5106 89.4331 L78.5106 90.2835 L74.5718 90.2835 Z"
                  stroke="none"/>
            <text x="81.3452" xml:space="preserve" font-size="14" y="94.3543"
                  stroke="none">AM235743</text><path d="M74.5718 122.1732 L74 122.1732 L74 123.0236 L74.5718 123.0236 Z"
                  stroke="none"/>
            <text x="38.6419" xml:space="preserve" y="117" stroke="none">NT1.32</text><line stroke-linecap="butt"
                  fill="none" x1="74.1467" x2="74.1467" y1="108.1417"
                  stroke-linejoin="bevel" y2="137.0551" stroke-width="0.8504"/>
            <path d="M74.5719 108.1417 L74.9818 108.1417 L74.9818 108.9921 L74.5719 108.9921 Z"
                  stroke="none"/>
            <text x="77.8164" xml:space="preserve" font-size="14" y="113.063"
                  stroke="none">AM235745</text><path d="M74.5719 136.2047 L74 136.2047 L74 137.0551 L74.5719 137.0551 Z"
                  stroke="none"/>
            <text x="38.5758" xml:space="preserve" y="131.0315" stroke="none">NT1.33</text><line stroke-linecap="butt"
                  fill="none" x1="74.1467" x2="74.1467" y1="126.8504"
                  stroke-linejoin="bevel" y2="146.4095" stroke-width="0.8504"/>
            <path d="M74.5719 126.8504 L73.4694 126.8504 L73.4694 127.7008 L74.5719 127.7008 Z"
                  stroke="none"/>
            <text x="76.3041" xml:space="preserve" font-size="14" y="131.7717"
                  stroke="none">AM235744</text><path d="M74.5719 145.5591 L74.9818 145.5591 L74.9818 146.4095 L74.5719 146.4095 Z"
                  stroke="none"/>
            <text x="77.8164" xml:space="preserve" font-size="14" y="150.4803"
                  stroke="none">AM235744</text><path d="M72.5553 164.2677 L73.4694 164.2677 L73.4694 165.1181 L72.5553 165.1181 Z"
                  stroke="none"/>
            <text x="76.304" xml:space="preserve" font-size="14" y="169.189"
                  stroke="none">AM235747</text><path d="M60.4564 281.1969 L65 281.1969 L65 282.0473 L60.4564 282.0473 Z"
                  stroke="none"/>
            <text x="28.9843" xml:space="preserve" y="276.0237" stroke="none">NT1.19</text><line stroke-linecap="butt"
                  fill="none" x1="64.5684" x2="64.5684" y1="206.3622"
                  stroke-linejoin="bevel" y2="356.8819" stroke-width="0.8504"/>
            <path d="M64.9936 206.3622 L74 206.3622 L74 207.2126 L64.9936 207.2126 Z"
                  stroke="none"/>
            <text x="38.0585" xml:space="preserve" y="201.189" stroke="none">NT1.28</text><line stroke-linecap="butt"
                  fill="none" x1="73.6425" x2="73.6425" y1="192.3307"
                  stroke-linejoin="bevel" y2="221.2441" stroke-width="0.8504"/>
            <path d="M74.0677 192.3307 L104 192.3307 L104 193.1811 L74.0677 193.1811 Z"
                  stroke="none"/>
            <text x="68.385" xml:space="preserve" y="187.1575" stroke="none">NT1.52</text><line stroke-linecap="butt"
                  fill="none" x1="103.8898" x2="103.8898" y1="182.9764"
                  stroke-linejoin="bevel" y2="202.5354" stroke-width="0.8504"/>
            <path d="M104.315 182.9764 L122.117 182.9764 L122.117 183.8268 L104.315 183.8268 Z"
                  stroke="none"/>
            <text x="124.9517" xml:space="preserve" font-size="14" y="187.8976"
                  stroke="none">AY213000</text><path d="M104.315 201.6851 L135.7283 201.6851 L135.7283 202.5355 L104.315 202.5355 Z"
                  stroke="none"/>
            <text x="138.5629" xml:space="preserve" font-size="14" y="206.6063"
                  stroke="none">AY213002</text><path d="M74.0677 220.3937 L86.8286 220.3937 L86.8286 221.2441 L74.0677 221.2441 Z"
                  stroke="none"/>
            <text x="89.6632" xml:space="preserve" font-size="14" y="225.315"
                  stroke="none">AF189905</text><path d="M64 274.1811 L81 274.1811 L81 275.0315 L64 275.0315 Z"
                  stroke="none"/>
            <text x="46.2781" xml:space="preserve" y="269.0079" stroke="none">NT1.41</text><line stroke-linecap="butt"
                  fill="none" x1="80.4482" x2="80.4482" y1="248.4567"
                  stroke-linejoin="bevel" y2="300.7559" stroke-width="0.8504"/>
            <path d="M80.8734 248.4567 L94 248.4567 L94 249.3071 L80.8734 249.3071 Z"
                  stroke="none"/>
            <text x="58.2233" xml:space="preserve" y="243.2835" stroke="none">NT1.48</text><line stroke-linecap="butt"
                  fill="none" x1="93.8074" x2="93.8074" y1="239.1024"
                  stroke-linejoin="bevel" y2="258.6614" stroke-width="0.8504"/>
            <path d="M94.2326 239.1024 L98.6754 239.1024 L98.6754 239.9528 L94.2326 239.9528 Z"
                  stroke="none"/>
            <text x="101.5101" xml:space="preserve" font-size="14" y="244.0236"
                  stroke="none">AYO40647</text><path d="M94.2326 257.8111 L103.7167 257.8111 L103.7167 258.6615 L94.2326 258.6615 Z"
                  stroke="none"/>
            <text x="106.5513" xml:space="preserve" font-size="14" y="262.7323"
                  stroke="none">AY212991</text><path d="M80.8734 299.9055 L102 299.9055 L102 300.7559 L80.8734 300.7559 Z"
                  stroke="none"/>
            <text x="67.9553" xml:space="preserve" y="294.7323" stroke="none">NT1.51</text><line stroke-linecap="butt"
                  fill="none" x1="102.1254" x2="102.1254" y1="285.874"
                  stroke-linejoin="bevel" y2="314.7874" stroke-width="0.8504"/>
            <path d="M102.5506 285.874 L107 285.874 L107 286.7244 L102.5506 286.7244 Z"
                  stroke="none"/>
            <text x="71.6222" xml:space="preserve" y="280.7008" stroke="none">NT1.54</text><line stroke-linecap="butt"
                  fill="none" x1="107.1666" x2="107.1666" y1="276.5197"
                  stroke-linejoin="bevel" y2="296.0788" stroke-width="0.8504"/>
            <path d="M107.5918 276.5197 L108.7579 276.5197 L108.7579 277.3701 L107.5918 277.3701 Z"
                  stroke="none"/>
            <text x="111.5925" xml:space="preserve" font-size="14" y="281.441"
                  stroke="none">AF189906</text><path d="M107.5918 295.2284 L125.6459 295.2284 L125.6459 296.0788 L107.5918 296.0788 Z"
                  stroke="none"/>
            <text x="128.4805" xml:space="preserve" font-size="14" y="300.1497"
                  stroke="none">AY033640</text><path d="M102.5506 313.937 L106.9935 313.937 L106.9935 314.7874 L102.5506 314.7874 Z"
                  stroke="none"/>
            <text x="109.8281" xml:space="preserve" font-size="14" y="318.8583"
                  stroke="none">AYO40645</text><path d="M64.9936 356.0316 L70 356.0316 L70 356.882 L64.9936 356.882 Z"
                  stroke="none"/>
            <text x="35.9437" xml:space="preserve" y="350.8583" stroke="none">NT1.21</text><line stroke-linecap="butt"
                  fill="none" x1="70.1137" x2="70.1137" y1="342"
                  stroke-linejoin="bevel" y2="370.9134" stroke-width="0.8504"/>
            <path d="M70.5389 342 L71 342 L71 342.8504 L70.5389 342.8504 Z"
                  stroke="none"/>
            <text x="35.047" xml:space="preserve" y="336.8268" stroke="none">NT1.23</text><line stroke-linecap="butt"
                  fill="none" x1="70.6178" x2="70.6178" y1="332.6457"
                  stroke-linejoin="bevel" y2="352.2048" stroke-width="0.8504"/>
            <path d="M71.0431 332.6457 L71.705 332.6457 L71.705 333.4961 L71.0431 333.4961 Z"
                  stroke="none"/>
            <text x="74.5397" xml:space="preserve" font-size="14" y="337.567"
                  stroke="none">EF151256</text><path d="M71.0431 351.3544 L71.705 351.3544 L71.705 352.2048 L71.0431 352.2048 Z"
                  stroke="none"/>
            <text x="74.5397" xml:space="preserve" font-size="14" y="356.2757"
                  stroke="none">EF151257</text><path d="M70.5389 370.063 L71.705 370.063 L71.705 370.9135 L70.5389 370.9135 Z"
                  stroke="none"/>
            <text x="74.5396" xml:space="preserve" font-size="14" y="374.9843"
                  stroke="none">EF151255</text><path d="M55.4152 388.7717 L93.6342 388.7717 L93.6342 389.6221 L55.4152 389.6221 Z"
                  stroke="none"/>
            <text x="96.4688" xml:space="preserve" font-size="14" y="393.6929"
                  stroke="none">AF189963</text><path d="M53.6508 407.4804 L58.0937 407.4804 L58.0937 408.3308 L53.6508 408.3308 Z"
                  stroke="none"/>
            <text x="60.9283" xml:space="preserve" font-size="14" y="412.4016"
                  stroke="none">AY731807</text><path d="M45.3328 465.9449 L50 465.9449 L50 466.7953 L45.3328 466.7953 Z"
                  stroke="none"/>
            <text x="14.4441" xml:space="preserve" y="460.7717" stroke="none">NT1.12</text><line stroke-linecap="butt"
                  fill="none" x1="49.9488" x2="49.9488" y1="449.5748"
                  stroke-linejoin="bevel" y2="483.1653" stroke-width="0.8504"/>
            <path d="M50.374 449.5748 L57 449.5748 L57 450.4252 L50.374 450.4252 Z"
                  stroke="none"/>
            <text x="21.1308" xml:space="preserve" y="444.4016" stroke="none">NT1.15</text><line stroke-linecap="butt"
                  fill="none" x1="56.7545" x2="56.7545" y1="435.5433"
                  stroke-linejoin="bevel" y2="464.4567" stroke-width="0.8504"/>
            <path d="M57.1797 435.5433 L70 435.5433 L70 436.3937 L57.1797 436.3937 Z"
                  stroke="none"/>
            <text x="34.6089" xml:space="preserve" y="430.3701" stroke="none">NT1.22</text><line stroke-linecap="butt"
                  fill="none" x1="70.1137" x2="70.1137" y1="426.189"
                  stroke-linejoin="bevel" y2="445.748" stroke-width="0.8504"/>
            <path d="M70.5389 426.189 L83.5518 426.189 L83.5518 427.0394 L70.5389 427.0394 Z"
                  stroke="none"/>
            <text x="86.3864" xml:space="preserve" font-size="14" y="431.1103"
                  stroke="none">AF363653</text><path d="M70.5389 444.8977 L91.8698 444.8977 L91.8698 445.7481 L70.5389 445.7481 Z"
                  stroke="none"/>
            <text x="94.7044" xml:space="preserve" font-size="14" y="449.8189"
                  stroke="none">AF189923</text><path d="M57.1797 463.6064 L61.6225 463.6064 L61.6225 464.4568 L57.1797 464.4568 Z"
                  stroke="none"/>
            <text x="64.4572" xml:space="preserve" font-size="14" y="468.5276"
                  stroke="none">AF189896</text><path d="M50.374 482.315 L68.4282 482.315 L68.4282 483.1654 L50.374 483.1654 Z"
                  stroke="none"/>
            <text x="71.2628" xml:space="preserve" font-size="14" y="487.2362"
                  stroke="none">AF189922</text><path d="M38.5272 501.0237 L44.7345 501.0237 L44.7345 501.8741 L38.5272 501.8741 Z"
                  stroke="none"/>
            <text x="47.5691" xml:space="preserve" font-size="14" y="505.9449"
                  stroke="none">AF189943</text><path d="M18.6144 537.2717 L19 537.2717 L19 538.122 L18.6144 538.122 Z"
                  stroke="none"/>
            <text x="-10.9571" xml:space="preserve" y="532.0984" stroke="none">NT1.3</text><line stroke-linecap="butt"
                  fill="none" x1="18.6934" x2="18.6934" y1="519.7323"
                  stroke-linejoin="bevel" y2="555.6614" stroke-width="0.8504"/>
            <path d="M19.1186 519.7323 L36.4166 519.7323 L36.4166 520.5826 L19.1186 520.5826 Z"
                  stroke="none"/>
            <text x="39.2512" xml:space="preserve" font-size="14" y="524.6536"
                  stroke="none">AF189971</text><path d="M19.1186 554.811 L19 554.811 L19 555.6614 L19.1186 555.6614 Z"
                  stroke="none"/>
            <text x="-10.9306" xml:space="preserve" y="549.6378" stroke="none">NT1.4</text><line stroke-linecap="butt"
                  fill="none" x1="18.6934" x2="18.6934" y1="538.441"
                  stroke-linejoin="bevel" y2="572.0316" stroke-width="0.8504"/>
            <path d="M19.1186 538.441 L37.9289 538.441 L37.9289 539.2913 L19.1186 539.2913 Z"
                  stroke="none"/>
            <text x="40.7636" xml:space="preserve" font-size="14" y="543.3622"
                  stroke="none">AF189986</text><path d="M19.1186 571.1812 L19 571.1812 L19 572.0315 L19.1186 572.0315 Z"
                  stroke="none"/>
            <text x="-11.0099" xml:space="preserve" y="566.0079" stroke="none">NT1.5</text><line stroke-linecap="butt"
                  fill="none" x1="18.6934" x2="18.6934" y1="557.1497"
                  stroke-linejoin="bevel" y2="586.063" stroke-width="0.8504"/>
            <path d="M19.1186 557.1497 L42.9702 557.1497 L42.9702 558 L19.1186 558 Z"
                  stroke="none"/>
            <text x="45.8048" xml:space="preserve" font-size="14" y="562.0709"
                  stroke="none">AB176591</text><path d="M19.1186 585.2127 L139 585.2127 L139 586.063 L19.1186 586.063 Z"
                  stroke="none"/>
            <text x="62.7936" xml:space="preserve" y="580.0395" stroke="none">NT1.60</text><line stroke-linecap="butt"
                  fill="none" x1="139.1783" x2="139.1783" y1="575.8583"
                  stroke-linejoin="bevel" y2="595.4174" stroke-width="0.8504"/>
            <path d="M139.6035 575.8583 L165.9756 575.8583 L165.9756 576.7087 L139.6035 576.7087 Z"
                  stroke="none"/>
            <text x="168.8102" xml:space="preserve" font-size="14" y="580.7796"
                  stroke="none">AF131062</text><path d="M139.6035 594.567 L182.8636 594.567 L182.8636 595.4174 L139.6035 595.4174 Z"
                  stroke="none"/>
            <text x="185.6982" xml:space="preserve" font-size="14" y="599.4883"
                  stroke="none">AF189945</text>
        </g>
    </g>
</svg>
