<?xml version="1.0"?>
<!DOCTYPE svg PUBLIC '-//W3C//DTD SVG 1.0//EN'
    'http://www.w3.org/TR/2001/REC-SVG-20010904/DTD/svg10.dtd' >

<svg fill-opacity="1" xmlns:xlink="http://www.w3.org/1999/xlink"
     color-rendering="auto" color-interpolation="auto" stroke="black"
     text-rendering="auto" stroke-linecap="square" stroke-miterlimit="10"
     stroke-opacity="1" shape-rendering="auto" fill="black"
     stroke-dasharray="none" font-weight="normal" stroke-width="1"
     xmlns="http://www.w3.org/2000/svg" font-family="&apos;Dialog&apos;"
     font-style="normal" stroke-linejoin="miter" font-size="12"
     stroke-dashoffset="0" image-rendering="auto">
    <!--Generated by the Batik Graphics2D SVG Generator-->
    <defs id="genericDefs"/>
    <g>
        <g fill="white" stroke="white">
            <rect x="0" width="216" height="504" y="0" stroke="none"/>
            <path fill="black"
                  d="M5 67.4773 L44 67.4773 L44 68.3277 L5 68.3277 Z"
                  stroke="none"/>
        </g>
        <g font-family="&apos;Arial&apos;" font-size="9">
            <text x="8.5039" xml:space="preserve" y="62.3041" stroke="none">NT1.50</text><line stroke-linecap="butt"
                  fill="none" x1="44.0484" x2="44.0484" y1="14.5984"
                  stroke-linejoin="bevel" y2="120.3562" stroke-width="0.8504"/>
            <path d="M44.4736 14.5984 L130.4271 14.5984 L130.4271 15.4488 L44.4736 15.4488 Z"
                  stroke="none"/>
            <text x="133.2617" xml:space="preserve" font-size="14" y="19.5197"
                  stroke="none"></text>
            <path d="M44.4736 119.5058 L92 119.5058 L92 120.3562 L44.4736 120.3562 Z"
                  stroke="none"/>
            <text x="55.2996" xml:space="preserve" y="114.3326" stroke="none">NT1.1</text><line stroke-linecap="butt"
                  fill="none" x1="91.5406" x2="91.5406" y1="33.3071"
                  stroke-linejoin="bevel" y2="206.5549" stroke-width="0.8504"/>
            <path d="M91.9658 33.3071 L113.498 33.3071 L113.498 34.1575 L91.9658 34.1575 Z"
                  stroke="none"/>
            <text x="116.3327" xml:space="preserve" font-size="14" y="38.2283"
                  stroke="none">AB187584</text><path d="M91.9658 205.7045 L97 205.7045 L97 206.5549 L91.9658 206.5549 Z"
                  stroke="none"/>
            <text x="67.2962" xml:space="preserve" y="200.5313" stroke="none">NT1.2</text><line stroke-linecap="butt"
                  fill="none" x1="96.8806" x2="96.8806" y1="52.0157"
                  stroke-linejoin="bevel" y2="360.2436" stroke-width="0.8504"/>
            <path d="M97.3058 52.0158 L118.1564 52.0158 L118.1564 52.8661 L97.3058 52.8661 Z"
                  stroke="none"/>
            <text x="120.991" xml:space="preserve" font-size="14" y="56.937"
                  stroke="none">AJ534211</text><path d="M97.3058 359.3932 L100 359.3932 L100 360.2436 L97.3058 360.2436 Z"
                  stroke="none"/>
            <text x="70.6387" xml:space="preserve" y="354.22" stroke="none">NT1.3</text><line stroke-linecap="butt"
                  fill="none" x1="100.2891" x2="100.2891" y1="271.5502"
                  stroke-linejoin="bevel" y2="448.0867" stroke-width="0.8504"/>
            <path d="M100.7143 271.5502 L101 271.5502 L101 272.4006 L100.7143 272.4006 Z"
                  stroke="none"/>
            <text x="71.4947" xml:space="preserve" y="266.377" stroke="none">NT1.5</text><line stroke-linecap="butt"
                  fill="none" x1="101.1981" x2="101.1981" y1="202.2697"
                  stroke-linejoin="bevel" y2="341.6811" stroke-width="0.8504"/>
            <path d="M101.6233 202.2697 L104 202.2697 L104 203.1201 L101.6233 203.1201 Z"
                  stroke="none"/>
            <text x="74.1608" xml:space="preserve" y="197.0965" stroke="none">NT1.7</text><line stroke-linecap="butt"
                  fill="none" x1="103.8113" x2="103.8113" y1="144.3898"
                  stroke-linejoin="bevel" y2="261" stroke-width="0.8504"/>
            <path d="M104.2365 144.3898 L106 144.3898 L106 145.2402 L104.2365 145.2402 Z"
                  stroke="none"/>
            <text x="72.1408" xml:space="preserve" y="139.2166" stroke="none">NT1.11</text><line stroke-linecap="butt"
                  fill="none" x1="106.3109" x2="106.3109" y1="110.4803"
                  stroke-linejoin="bevel" y2="179.1496" stroke-width="0.8504"/>
            <path d="M106.7361 110.4803 L109 110.4803 L109 111.3307 L106.7361 111.3307 Z"
                  stroke="none"/>
            <text x="73.0731" xml:space="preserve" y="105.3071" stroke="none">NT1.15</text><line stroke-linecap="butt"
                  fill="none" x1="108.6968" x2="108.6968" y1="84.7559"
                  stroke-linejoin="bevel" y2="137.0551" stroke-width="0.8504"/>
            <path d="M109.1221 84.7559 L110 84.7559 L110 85.6063 L109.1221 85.6063 Z"
                  stroke="none"/>
            <text x="74.6031" xml:space="preserve" y="79.5827" stroke="none">NT1.16</text><line stroke-linecap="butt"
                  fill="none" x1="110.1739" x2="110.1739" y1="70.7244"
                  stroke-linejoin="bevel" y2="99.6378" stroke-width="0.8504"/>
            <path d="M110.5991 70.7244 L130.4271 70.7244 L130.4271 71.5748 L110.5991 71.5748 Z"
                  stroke="none"/>
            <text x="133.2618" xml:space="preserve" font-size="14" y="75.6457"
                  stroke="none">AJ748748</text><path d="M110.5991 98.7874 L113 98.7874 L113 99.6378 L110.5991 99.6378 Z"
                  stroke="none"/>
            <text x="77.203" xml:space="preserve" y="93.6142" stroke="none">NT1.19</text><line stroke-linecap="butt"
                  fill="none" x1="112.7871" x2="112.7871" y1="89.4331"
                  stroke-linejoin="bevel" y2="108.9921" stroke-width="0.8504"/>
            <path d="M113.2123 89.4331 L124.0645 89.4331 L124.0645 90.2835 L113.2123 90.2835 Z"
                  stroke="none"/>
            <text x="126.8992" xml:space="preserve" font-size="14" y="94.3543"
                  stroke="none">AJ631302</text><path d="M113.2123 108.1417 L129.5182 108.1417 L129.5182 108.9921 L113.2123 108.9921 Z"
                  stroke="none"/>
            <text x="132.3528" xml:space="preserve" font-size="14" y="113.063"
                  stroke="none"></text>
            <path d="M109.1221 136.2047 L114 136.2047 L114 137.0551 L109.1221 137.0551 Z"
                  stroke="none"/>
            <text x="78.4925" xml:space="preserve" y="131.0315" stroke="none">NT1.24</text><line stroke-linecap="butt"
                  fill="none" x1="114.0369" x2="114.0369" y1="126.8504"
                  stroke-linejoin="bevel" y2="146.4095" stroke-width="0.8504"/>
            <path d="M114.4621 126.8504 L120.7696 126.8504 L120.7696 127.7008 L114.4621 127.7008 Z"
                  stroke="none"/>
            <text x="123.6042" xml:space="preserve" font-size="14" y="131.7717"
                  stroke="none">D88523</text><path d="M114.4621 145.5591 L129.859 145.5591 L129.859 146.4095 L114.4621 146.4095 Z"
                  stroke="none"/>
            <text x="132.6936" xml:space="preserve" font-size="14" y="150.4803"
                  stroke="none">U14583</text><path d="M106.7361 178.2992 L113 178.2992 L113 179.1496 L106.7361 179.1496 Z"
                  stroke="none"/>
            <text x="78.9579" xml:space="preserve" y="173.126" stroke="none">NT1.21</text><line stroke-linecap="butt"
                  fill="none" x1="113.1279" x2="113.1279" y1="164.2677"
                  stroke-linejoin="bevel" y2="193.1811" stroke-width="0.8504"/>
            <path d="M113.5531 164.2677 L122.8147 164.2677 L122.8147 165.1181 L113.5531 165.1181 Z"
                  stroke="none"/>
            <text x="125.6494" xml:space="preserve" font-size="14" y="169.189"
                  stroke="none">AJ550939</text><path d="M113.5531 192.3307 L114 192.3307 L114 193.1811 L113.5531 193.1811 Z"
                  stroke="none"/>
            <text x="78.1913" xml:space="preserve" y="187.1575" stroke="none">NT1.22</text><line stroke-linecap="butt"
                  fill="none" x1="113.696" x2="113.696" y1="182.9764"
                  stroke-linejoin="bevel" y2="202.5354" stroke-width="0.8504"/>
            <path d="M114.1212 182.9764 L122.133 182.9764 L122.133 183.8268 L114.1212 183.8268 Z"
                  stroke="none"/>
            <text x="124.9677" xml:space="preserve" font-size="14" y="187.8976"
                  stroke="none"></text>
            <path d="M114.1212 201.6851 L123.61 201.6851 L123.61 202.5355 L114.1212 202.5355 Z"
                  stroke="none"/>
            <text x="126.4447" xml:space="preserve" font-size="14" y="206.6063"
                  stroke="none">Y16427</text><path d="M104.2365 260.1496 L106 260.1496 L106 261 L104.2365 261 Z"
                  stroke="none"/>
            <text x="69.9711" xml:space="preserve" y="254.9764" stroke="none">NT1.10</text><line stroke-linecap="butt"
                  fill="none" x1="105.5156" x2="105.5156" y1="234.4252"
                  stroke-linejoin="bevel" y2="286.7244" stroke-width="0.8504"/>
            <path d="M105.9408 234.4252 L106 234.4252 L106 235.2756 L105.9408 235.2756 Z"
                  stroke="none"/>
            <text x="70.8061" xml:space="preserve" y="229.252" stroke="none">NT1.12</text><line stroke-linecap="butt"
                  fill="none" x1="106.3109" x2="106.3109" y1="220.3937"
                  stroke-linejoin="bevel" y2="249.3071" stroke-width="0.8504"/>
            <path d="M106.7361 220.3937 L120.5424 220.3937 L120.5424 221.2441 L106.7361 221.2441 Z"
                  stroke="none"/>
            <text x="123.3771" xml:space="preserve" font-size="14" y="225.315"
                  stroke="none">AF098495</text><path d="M106.7361 248.4567 L113 248.4567 L113 249.3071 L106.7361 249.3071 Z"
                  stroke="none"/>
            <text x="77.47" xml:space="preserve" y="243.2835" stroke="none">NT1.20</text><line stroke-linecap="butt"
                  fill="none" x1="113.0143" x2="113.0143" y1="239.1024"
                  stroke-linejoin="bevel" y2="258.6615" stroke-width="0.8504"/>
            <path d="M113.4396 239.1024 L122.9284 239.1024 L122.9284 239.9528 L113.4396 239.9528 Z"
                  stroke="none"/>
            <text x="125.763" xml:space="preserve" font-size="14" y="244.0237"
                  stroke="none">Y13155</text><path d="M113.4396 257.8111 L123.3828 257.8111 L123.3828 258.6615 L113.4396 258.6615 Z"
                  stroke="none"/>
            <text x="126.2175" xml:space="preserve" font-size="14" y="262.7323"
                  stroke="none">U77644</text><path d="M105.9408 285.8741 L110 285.8741 L110 286.7245 L105.9408 286.7245 Z"
                  stroke="none"/>
            <text x="74.7167" xml:space="preserve" y="280.7008" stroke="none">NT1.17</text><line stroke-linecap="butt"
                  fill="none" x1="110.2875" x2="110.2875" y1="276.5197"
                  stroke-linejoin="bevel" y2="296.0788" stroke-width="0.8504"/>
            <path d="M110.7127 276.5197 L117.5883 276.5197 L117.5883 277.3701 L110.7127 277.3701 Z"
                  stroke="none"/>
            <text x="120.423" xml:space="preserve" font-size="14" y="281.441"
                  stroke="none">X78315</text><path d="M110.7127 295.2284 L119.5198 295.2284 L119.5198 296.0788 L110.7127 296.0788 Z"
                  stroke="none"/>
            <text x="122.3545" xml:space="preserve" font-size="14" y="300.1497"
                  stroke="none">AY005463</text><path d="M101.6233 340.8307 L104 340.8307 L104 341.6811 L101.6233 341.6811 Z"
                  stroke="none"/>
            <text x="74.2612" xml:space="preserve" y="335.6575" stroke="none">NT1.8</text><line stroke-linecap="butt"
                  fill="none" x1="103.9249" x2="103.9249" y1="313.937"
                  stroke-linejoin="bevel" y2="368.5749" stroke-width="0.8504"/>
            <path d="M104.3501 313.937 L123.8373 313.937 L123.8373 314.7874 L104.3501 314.7874 Z"
                  stroke="none"/>
            <text x="126.6719" xml:space="preserve" font-size="14" y="318.8583"
                  stroke="none">U58356</text><path d="M104 332.6457 L125.4279 332.6457 L125.4279 333.4961 L104 333.4961 Z"
                  stroke="none"/>
            <text x="128.2626" xml:space="preserve" font-size="14" y="337.567"
                  stroke="none">Y11552</text><path d="M104.3501 367.7245 L105 367.7245 L105 368.5749 L104.3501 368.5749 Z"
                  stroke="none"/>
            <text x="75.1702" xml:space="preserve" y="362.5512" stroke="none">NT1.9</text><line stroke-linecap="butt"
                  fill="none" x1="104.8339" x2="104.8339" y1="351.3544"
                  stroke-linejoin="bevel" y2="384.9449" stroke-width="0.8504"/>
            <path d="M105.2591 351.3544 L121.9058 351.3544 L121.9058 352.2048 L105.2591 352.2048 Z"
                  stroke="none"/>
            <text x="124.7404" xml:space="preserve" font-size="14" y="356.2757"
                  stroke="none">AJ877265</text><path d="M105.2591 384.0946 L108 384.0946 L108 384.945 L105.2591 384.945 Z"
                  stroke="none"/>
            <text x="72.2435" xml:space="preserve" y="378.9214" stroke="none">NT1.14</text><line stroke-linecap="butt"
                  fill="none" x1="107.7879" x2="107.7879" y1="370.0631"
                  stroke-linejoin="bevel" y2="398.9765" stroke-width="0.8504"/>
            <path d="M108.2131 370.0631 L125.0871 370.0631 L125.0871 370.9135 L108.2131 370.9135 Z"
                  stroke="none"/>
            <text x="127.9217" xml:space="preserve" font-size="14" y="374.9843"
                  stroke="none">D85831</text><path d="M108.2131 398.1261 L111 398.1261 L111 398.9765 L108.2131 398.9765 Z"
                  stroke="none"/>
            <text x="75.1579" xml:space="preserve" y="392.9529" stroke="none">NT1.18</text><line stroke-linecap="butt"
                  fill="none" x1="110.742" x2="110.742" y1="388.7718"
                  stroke-linejoin="bevel" y2="408.3308" stroke-width="0.8504"/>
            <path d="M111.1672 388.7718 L118.9517 388.7718 L118.9517 389.6222 L111.1672 389.6222 Z"
                  stroke="none"/>
            <text x="121.7864" xml:space="preserve" font-size="14" y="393.693"
                  stroke="none">DQ178660</text><path d="M111.1672 407.4805 L122.2466 407.4805 L122.2466 408.3309 L111.1672 408.3309 Z"
                  stroke="none"/>
            <text x="125.0813" xml:space="preserve" font-size="14" y="412.4017"
                  stroke="none">AY527274</text><path d="M100.7143 447.2363 L101 447.2363 L101 448.0867 L100.7143 448.0867 Z"
                  stroke="none"/>
            <text x="71.1195" xml:space="preserve" y="442.0631" stroke="none">NT1.4</text><line stroke-linecap="butt"
                  fill="none" x1="100.7436" x2="100.7436" y1="426.189"
                  stroke-linejoin="bevel" y2="469.1339" stroke-width="0.8504"/>
            <path d="M101.1688 426.1891 L122.2466 426.1891 L122.2466 427.0395 L101.1688 427.0395 Z"
                  stroke="none"/>
            <text x="125.0813" xml:space="preserve" font-size="14" y="431.1103"
                  stroke="none">AY424896</text><path d="M101.1688 468.2836 L104 468.2836 L104 469.134 L101.1688 469.134 Z"
                  stroke="none"/>
            <text x="73.8199" xml:space="preserve" y="463.1103" stroke="none">NT1.6</text><line stroke-linecap="butt"
                  fill="none" x1="103.4704" x2="103.4704" y1="454.252"
                  stroke-linejoin="bevel" y2="483.1654" stroke-width="0.8504"/>
            <path d="M103.8956 454.2521 L106 454.2521 L106 455.1025 L103.8956 455.1025 Z"
                  stroke="none"/>
            <text x="70.8537" xml:space="preserve" y="449.0788" stroke="none">NT1.13</text><line stroke-linecap="butt"
                  fill="none" x1="106.4245" x2="106.4245" y1="444.8977"
                  stroke-linejoin="bevel" y2="464.4568" stroke-width="0.8504"/>
            <path d="M106.8497 444.8977 L116.4521 444.8977 L116.4521 445.7481 L106.8497 445.7481 Z"
                  stroke="none"/>
            <text x="119.2868" xml:space="preserve" font-size="14" y="449.819"
                  stroke="none"></text>
            <path d="M106.8497 463.6064 L120.2015 463.6064 L120.2015 464.4568 L106.8497 464.4568 Z"
                  stroke="none"/>
            <text x="123.0362" xml:space="preserve" font-size="14" y="468.5276"
                  stroke="none"></text>
            <path d="M103.8956 482.3151 L116.5657 482.3151 L116.5657 483.1655 L103.8956 483.1655 Z"
                  stroke="none"/>
            <text x="119.4004" xml:space="preserve" font-size="14" y="487.2363"
                  stroke="none">D0822569</text>
        </g>
    </g>
</svg>
