<?xml version="1.0"?>
<!DOCTYPE svg PUBLIC '-//W3C//DTD SVG 1.0//EN'
    'http://www.w3.org/TR/2001/REC-SVG-20010904/DTD/svg10.dtd' >

<svg fill-opacity="1" xmlns:xlink="http://www.w3.org/1999/xlink"
     color-rendering="auto" color-interpolation="auto" stroke="black"
     text-rendering="auto" stroke-linecap="square" stroke-miterlimit="10"
     stroke-opacity="1" shape-rendering="auto" fill="black"
     stroke-dasharray="none" font-weight="normal" stroke-width="1"
     xmlns="http://www.w3.org/2000/svg" font-family="&apos;Dialog&apos;"
     font-style="normal" stroke-linejoin="miter" font-size="12"
     stroke-dashoffset="0" image-rendering="auto">
    <!--Generated by the Batik Graphics2D SVG Generator-->
    <defs id="genericDefs"/>
    <g>
        <g fill="white" stroke="white">
            <rect x="0" width="186" height="430" y="0" stroke="none"/>
            <path fill="black"
                  d="M5 282.1934 L18 282.1934 L18 283.0438 L5 283.0438 Z"
                  stroke="none"/>
            <circle fill="black" r="1.2756" cx="17.4331" cy="282.1934"
                    stroke="none"/>
            <path fill="black"
                  d="M17.8583 281.343 L19 281.343 L19 282.1934 L17.8583 282.1934 Z"
                  stroke="none"/>
        </g>
        <g font-family="&apos;Arial&apos;" font-size="9">
            <text x="-10.9987" xml:space="preserve" y="276.1698" stroke="none">NT1.2</text><line stroke-linecap="butt"
                  fill="none" x1="18.5857" x2="18.5857" y1="199.6388"
                  stroke-linejoin="bevel" y2="363.8976" stroke-width="0.8504"/>
            <path d="M19.0109 199.6388 L33 199.6388 L33 200.4892 L19.0109 200.4892 Z"
                  stroke="none"/>
            <text x="2.9828" xml:space="preserve" y="194.4655" stroke="none">NT1.3</text><line stroke-linecap="butt"
                  fill="none" x1="32.6333" x2="32.6333" y1="136.7894"
                  stroke-linejoin="bevel" y2="263.3386" stroke-width="0.8504"/>
            <path d="M33.0585 136.7894 L34 136.7894 L34 137.6398 L33.0585 137.6398 Z"
                  stroke="none"/>
            <text x="3.8017" xml:space="preserve" y="131.6161" stroke="none">NT1.4</text><line stroke-linecap="butt"
                  fill="none" x1="33.4257" x2="33.4257" y1="81.248"
                  stroke-linejoin="bevel" y2="193.1811" stroke-width="0.8504"/>
            <path d="M33.8509 81.248 L43 81.248 L43 82.0984 L33.8509 82.0984 Z"
                  stroke="none"/>
            <text x="13.3564" xml:space="preserve" y="76.0748" stroke="none">NT1.7</text><line stroke-linecap="butt"
                  fill="none" x1="43.0069" x2="43.0069" y1="37.9843"
                  stroke-linejoin="bevel" y2="125.3622" stroke-width="0.8504"/>
            <path d="M43.4321 37.9843 L48 37.9843 L48 38.8346 L43.4321 38.8346 Z"
                  stroke="none"/>
            <text x="18.4579" xml:space="preserve" y="32.811" stroke="none">NT1.9</text><line stroke-linecap="butt"
                  fill="none" x1="48.1216" x2="48.1216" y1="14.5984"
                  stroke-linejoin="bevel" y2="62.2205" stroke-width="0.8504"/>
            <path d="M48.5468 14.5984 L70.965 14.5984 L70.965 15.4488 L48.5468 15.4488 Z"
                  stroke="none"/>
            <text x="73.7996" xml:space="preserve" font-size="14" y="19.5197"
                  stroke="none">X62911</text><path d="M48.5468 61.3701 L74 61.3701 L74 62.2205 L48.5468 62.2205 Z"
                  stroke="none"/>
            <text x="38.079" xml:space="preserve" y="56.1969" stroke="none">NT1.30</text><line stroke-linecap="butt"
                  fill="none" x1="73.6234" x2="73.6234" y1="42.6614"
                  stroke-linejoin="bevel" y2="80.9291" stroke-width="0.8504"/>
            <path d="M74.0486 42.6614 L79 42.6614 L79 43.5118 L74.0486 43.5118 Z"
                  stroke="none"/>
            <text x="43.698" xml:space="preserve" y="37.4882" stroke="none">NT1.40</text><line stroke-linecap="butt"
                  fill="none" x1="79.2424" x2="79.2424" y1="33.3071"
                  stroke-linejoin="bevel" y2="52.8661" stroke-width="0.8504"/>
            <path d="M79.6676 33.3071 L78.8893 33.3071 L78.8893 34.1575 L79.6676 34.1575 Z"
                  stroke="none"/>
            <text x="81.7239" xml:space="preserve" font-size="14" y="38.2283"
                  stroke="none">StrainMOB77</text><path d="M79.6676 52.0158 L78.8893 52.0158 L78.8893 52.8661 L79.6676 52.8661 Z"
                  stroke="none"/>
            <text x="81.7239" xml:space="preserve" font-size="14" y="56.937"
                  stroke="none">StrainSB2</text><path d="M74.0486 80.0788 L76 80.0788 L76 80.9291 L74.0486 80.9291 Z"
                  stroke="none"/>
            <text x="40.646" xml:space="preserve" y="74.9055" stroke="none">NT1.37</text><line stroke-linecap="butt"
                  fill="none" x1="76.2168" x2="76.2168" y1="70.7244"
                  stroke-linejoin="bevel" y2="90.2835" stroke-width="0.8504"/>
            <path d="M76.642 70.7244 L76.0798 70.7244 L76.0798 71.5748 L76.642 71.5748 Z"
                  stroke="none"/>
            <text x="78.9144" xml:space="preserve" font-size="14" y="75.6457"
                  stroke="none"></text>
            <path d="M76.642 89.4331 L76.2959 89.4331 L76.2959 90.2835 L76.642 90.2835 Z"
                  stroke="none"/>
            <text x="79.1305" xml:space="preserve" font-size="14" y="94.3543"
                  stroke="none">X81950</text><path d="M43.4321 124.5118 L49 124.5118 L49 125.3622 L43.4321 125.3622 Z"
                  stroke="none"/>
            <text x="13.3696" xml:space="preserve" y="119.3386" stroke="none">NT1.10</text><line stroke-linecap="butt"
                  fill="none" x1="48.9141" x2="48.9141" y1="108.1417"
                  stroke-linejoin="bevel" y2="141.7323" stroke-width="0.8504"/>
            <path d="M49.3393 108.1417 L72.766 108.1417 L72.766 108.9921 L49.3393 108.9921 Z"
                  stroke="none"/>
            <text x="75.6006" xml:space="preserve" font-size="14" y="113.063"
                  stroke="none">X81956</text><path d="M49.3393 140.8819 L54 140.8819 L54 141.7323 L49.3393 141.7323 Z"
                  stroke="none"/>
            <text x="17.9478" xml:space="preserve" y="135.7086" stroke="none">NT1.12</text><line stroke-linecap="butt"
                  fill="none" x1="53.4525" x2="53.4525" y1="126.8504"
                  stroke-linejoin="bevel" y2="155.7638" stroke-width="0.8504"/>
            <path d="M53.8778 126.8504 L73.0542 126.8504 L73.0542 127.7008 L53.8778 127.7008 Z"
                  stroke="none"/>
            <text x="75.8888" xml:space="preserve" font-size="14" y="131.7717"
                  stroke="none">AJ231190</text><path d="M53.8778 154.9134 L68 154.9134 L68 155.7638 L53.8778 155.7638 Z"
                  stroke="none"/>
            <text x="32.7217" xml:space="preserve" y="149.7401" stroke="none">NT1.23</text><line stroke-linecap="butt"
                  fill="none" x1="68.2925" x2="68.2925" y1="145.559"
                  stroke-linejoin="bevel" y2="165.1181" stroke-width="0.8504"/>
            <path d="M68.7178 145.5591 L72.766 145.5591 L72.766 146.4095 L68.7178 146.4095 Z"
                  stroke="none"/>
            <text x="75.6006" xml:space="preserve" font-size="14" y="150.4803"
                  stroke="none">AJ231184</text><path d="M68.7178 164.2677 L75.2874 164.2677 L75.2874 165.1181 L68.7178 165.1181 Z"
                  stroke="none"/>
            <text x="78.122" xml:space="preserve" font-size="14" y="169.189"
                  stroke="none">X81952</text><path d="M33.8509 192.3307 L41 192.3307 L41 193.1811 L33.8509 193.1811 Z"
                  stroke="none"/>
            <text x="11.6995" xml:space="preserve" y="187.1575" stroke="none">NT1.6</text><line stroke-linecap="butt"
                  fill="none" x1="41.35" x2="41.35" y1="182.9764"
                  stroke-linejoin="bevel" y2="202.5354" stroke-width="0.8504"/>
            <path d="M41.7752 182.9764 L64.6976 182.9764 L64.6976 183.8268 L41.7752 183.8268 Z"
                  stroke="none"/>
            <text x="67.5322" xml:space="preserve" font-size="14" y="187.8976"
                  stroke="none">X81946</text><path d="M41.7752 201.6851 L66.7867 201.6851 L66.7867 202.5355 L41.7752 202.5355 Z"
                  stroke="none"/>
            <text x="69.6214" xml:space="preserve" font-size="14" y="206.6063"
                  stroke="none">X62912</text><path d="M33.0585 262.4882 L37 262.4882 L37 263.3386 L33.0585 263.3386 Z"
                  stroke="none"/>
            <text x="7.4684" xml:space="preserve" y="257.3149" stroke="none">NT1.5</text><line stroke-linecap="butt"
                  fill="none" x1="37.1717" x2="37.1717" y1="234.4252"
                  stroke-linejoin="bevel" y2="291.4016" stroke-width="0.8504"/>
            <path d="M37.5969 234.4252 L61 234.4252 L61 235.2756 L37.5969 235.2756 Z"
                  stroke="none"/>
            <text x="25.7531" xml:space="preserve" y="229.252" stroke="none">NT1.15</text><line stroke-linecap="butt"
                  fill="none" x1="61.3768" x2="61.3768" y1="220.3937"
                  stroke-linejoin="bevel" y2="249.3071" stroke-width="0.8504"/>
            <path d="M61.802 220.3937 L84.5083 220.3937 L84.5083 221.2441 L61.802 221.2441 Z"
                  stroke="none"/>
            <text x="87.343" xml:space="preserve" font-size="14" y="225.315"
                  stroke="none">AJ231195</text><path d="M61.802 248.4567 L62 248.4567 L62 249.3071 L61.802 249.3071 Z"
                  stroke="none"/>
            <text x="26.8145" xml:space="preserve" y="243.2835" stroke="none">NT1.16</text><line stroke-linecap="butt"
                  fill="none" x1="62.3853" x2="62.3853" y1="239.1024"
                  stroke-linejoin="bevel" y2="258.6614" stroke-width="0.8504"/>
            <path d="M62.8105 239.1024 L79.8258 239.1024 L79.8258 239.9528 L62.8105 239.9528 Z"
                  stroke="none"/>
            <text x="82.6604" xml:space="preserve" font-size="14" y="244.0236"
                  stroke="none">AF239692</text><path d="M62.8105 257.8111 L74.3508 257.8111 L74.3508 258.6615 L62.8105 258.6615 Z"
                  stroke="none"/>
            <text x="77.1855" xml:space="preserve" font-size="14" y="262.7323"
                  stroke="none">X81958</text><path d="M37.5969 290.5512 L51 290.5512 L51 291.4016 L37.5969 291.4016 Z"
                  stroke="none"/>
            <text x="17.1933" xml:space="preserve" y="285.378" stroke="none">NT1.11</text><line stroke-linecap="butt"
                  fill="none" x1="51.3634" x2="51.3634" y1="276.5197"
                  stroke-linejoin="bevel" y2="305.4331" stroke-width="0.8504"/>
            <path d="M51.7886 276.5197 L73.7024 276.5197 L73.7024 277.3701 L51.7886 277.3701 Z"
                  stroke="none"/>
            <text x="76.5371" xml:space="preserve" font-size="14" y="281.441"
                  stroke="none">AF239695</text><path d="M51.7886 304.5827 L66 304.5827 L66 305.4331 L51.7886 305.4331 Z"
                  stroke="none"/>
            <text x="30.7634" xml:space="preserve" y="299.4095" stroke="none">NT1.19</text><line stroke-linecap="butt"
                  fill="none" x1="66.3474" x2="66.3474" y1="295.2284"
                  stroke-linejoin="bevel" y2="314.7874" stroke-width="0.8504"/>
            <path d="M66.7726 295.2284 L74.3508 295.2284 L74.3508 296.0788 L66.7726 296.0788 Z"
                  stroke="none"/>
            <text x="77.1854" xml:space="preserve" font-size="14" y="300.1497"
                  stroke="none">X54522</text><path d="M66.7726 313.9371 L74.2067 313.9371 L74.2067 314.7875 L66.7726 314.7875 Z"
                  stroke="none"/>
            <text x="77.0414" xml:space="preserve" font-size="14" y="318.8583"
                  stroke="none">AF239697</text><path d="M19.0109 363.0472 L48 363.0472 L48 363.8976 L19.0109 363.8976 Z"
                  stroke="none"/>
            <text x="18.3139" xml:space="preserve" y="357.874" stroke="none">NT1.8</text><line stroke-linecap="butt"
                  fill="none" x1="47.9775" x2="47.9775" y1="342"
                  stroke-linejoin="bevel" y2="384.9449" stroke-width="0.8504"/>
            <path d="M48.4027 342 L54 342 L54 342.8504 L48.4027 342.8504 Z"
                  stroke="none"/>
            <text x="18.53" xml:space="preserve" y="336.8268" stroke="none">NT1.13</text><line stroke-linecap="butt"
                  fill="none" x1="54.1008" x2="54.1008" y1="332.6457"
                  stroke-linejoin="bevel" y2="352.2047" stroke-width="0.8504"/>
            <path d="M54.526 332.6457 L65.2739 332.6457 L65.2739 333.4961 L54.526 333.4961 Z"
                  stroke="none"/>
            <text x="68.1086" xml:space="preserve" font-size="14" y="337.5669"
                  stroke="none">AF375994</text><path d="M54.526 351.3543 L67.8673 351.3543 L67.8673 352.2047 L54.526 352.2047 Z"
                  stroke="none"/>
            <text x="70.702" xml:space="preserve" font-size="14" y="356.2756"
                  stroke="none">AF375995</text><path d="M48.4027 384.0945 L57 384.0945 L57 384.9449 L48.4027 384.9449 Z"
                  stroke="none"/>
            <text x="21.0058" xml:space="preserve" y="378.9213" stroke="none">NT1.14</text><line stroke-linecap="butt"
                  fill="none" x1="56.5502" x2="56.5502" y1="370.063"
                  stroke-linejoin="bevel" y2="398.9764" stroke-width="0.8504"/>
            <path d="M56.9754 370.063 L73.8465 370.063 L73.8465 370.9134 L56.9754 370.9134 Z"
                  stroke="none"/>
            <text x="76.6812" xml:space="preserve" font-size="14" y="374.9843"
                  stroke="none">AY254882</text><path d="M56.9754 398.126 L67 398.126 L67 398.9764 L56.9754 398.9764 Z"
                  stroke="none"/>
            <text x="33.186" xml:space="preserve" y="392.9528" stroke="none">NT1.21</text><line stroke-linecap="butt"
                  fill="none" x1="67.356" x2="67.356" y1="388.7717"
                  stroke-linejoin="bevel" y2="408.3307" stroke-width="0.8504"/>
            <path d="M67.7812 388.7717 L70.3166 388.7717 L70.3166 389.6221 L67.7812 389.6221 Z"
                  stroke="none"/>
            <text x="73.1513" xml:space="preserve" font-size="14" y="393.6929"
                  stroke="none">AY257181</text><path d="M67.7812 407.4804 L72.4058 407.4804 L72.4058 408.3308 L67.7812 408.3308 Z"
                  stroke="none"/>
            <text x="75.2404" xml:space="preserve" font-size="14" y="412.4016"
                  stroke="none">AY254883</text>
        </g>
    </g>
</svg>
