<?xml version="1.0"?>
<!DOCTYPE svg PUBLIC '-//W3C//DTD SVG 1.0//EN'
    'http://www.w3.org/TR/2001/REC-SVG-20010904/DTD/svg10.dtd' >

<svg fill-opacity="1" xmlns:xlink="http://www.w3.org/1999/xlink"
     color-rendering="auto" color-interpolation="auto" stroke="black"
     text-rendering="auto" stroke-linecap="square" stroke-miterlimit="10"
     stroke-opacity="1" shape-rendering="auto" fill="black"
     stroke-dasharray="none" font-weight="normal" stroke-width="1"
     xmlns="http://www.w3.org/2000/svg" font-family="&apos;Dialog&apos;"
     font-style="normal" stroke-linejoin="miter" font-size="12"
     stroke-dashoffset="0" image-rendering="auto">
    <!--Generated by the Batik Graphics2D SVG Generator-->
    <defs id="genericDefs"/>
    <g>
        <g fill="white" stroke="white">
            <rect x="0" width="201" height="336" y="0" stroke="none"/>
            <path fill="black"
                  d="M5 54.4507 L44 54.4507 L44 55.3011 L5 55.3011 Z"
                  stroke="none"/>
        </g>
        <g font-family="&apos;Arial&apos;" font-size="9">
            <text x="8.5039" xml:space="preserve" y="49.2774" stroke="none">NT1.33</text><line stroke-linecap="butt"
                  fill="none" x1="44.0748" x2="44.0748" y1="14.5984"
                  stroke-linejoin="bevel" y2="94.3029" stroke-width="0.8504"/>
            <path d="M44.5 14.5984 L115.0207 14.5984 L115.0207 15.4488 L44.5 15.4488 Z"
                  stroke="none"/>
            <text x="117.8553" xml:space="preserve" font-size="14" y="19.5197"
                  stroke="none">AF500006</text><path d="M44.5 93.4525 L60 93.4525 L60 94.3029 L44.5 94.3029 Z"
                  stroke="none"/>
            <text x="31.9596" xml:space="preserve" y="88.2793" stroke="none">NT1.1</text><line stroke-linecap="butt"
                  fill="none" x1="60.2092" x2="60.2092" y1="33.3071"
                  stroke-linejoin="bevel" y2="154.4483" stroke-width="0.8504"/>
            <path d="M60.6344 33.3071 L77.5319 33.3071 L77.5319 34.1575 L60.6344 34.1575 Z"
                  stroke="none"/>
            <text x="80.3665" xml:space="preserve" font-size="14" y="38.2283"
                  stroke="none">AF288157</text><path d="M60.6344 153.5979 L67 153.5979 L67 154.4483 L60.6344 154.4483 Z"
                  stroke="none"/>
            <text x="36.9837" xml:space="preserve" y="148.4247" stroke="none">NT1.2</text><line stroke-linecap="butt"
                  fill="none" x1="66.5681" x2="66.5681" y1="102.2953"
                  stroke-linejoin="bevel" y2="205.751" stroke-width="0.8504"/>
            <path d="M66.9933 102.2953 L77 102.2953 L77 103.1457 L66.9933 103.1457 Z"
                  stroke="none"/>
            <text x="47.1677" xml:space="preserve" y="97.1221" stroke="none">NT1.6</text><line stroke-linecap="butt"
                  fill="none" x1="76.8182" x2="76.8182" y1="68.3858"
                  stroke-linejoin="bevel" y2="137.0551" stroke-width="0.8504"/>
            <path d="M77.2434 68.3858 L83 68.3858 L83 69.2362 L77.2434 69.2362 Z"
                  stroke="none"/>
            <text x="48.7223" xml:space="preserve" y="63.2126" stroke="none">NT1.11</text><line stroke-linecap="butt"
                  fill="none" x1="82.8923" x2="82.8923" y1="52.0157"
                  stroke-linejoin="bevel" y2="85.6063" stroke-width="0.8504"/>
            <path d="M83.3175 52.0158 L102.6826 52.0158 L102.6826 52.8661 L83.3175 52.8661 Z"
                  stroke="none"/>
            <text x="105.5173" xml:space="preserve" font-size="14" y="56.937"
                  stroke="none">AY517633</text><path d="M83.3175 84.7559 L91 84.7559 L91 85.6063 L83.3175 85.6063 Z"
                  stroke="none"/>
            <text x="55.2806" xml:space="preserve" y="79.5827" stroke="none">NT1.19</text><line stroke-linecap="butt"
                  fill="none" x1="90.8646" x2="90.8646" y1="70.7244"
                  stroke-linejoin="bevel" y2="99.6378" stroke-width="0.8504"/>
            <path d="M91.2898 70.7244 L100.6895 70.7244 L100.6895 71.5748 L91.2898 71.5748 Z"
                  stroke="none"/>
            <text x="103.5242" xml:space="preserve" font-size="14" y="75.6457"
                  stroke="none">D0235263</text><path d="M91.2898 98.7874 L93 98.7874 L93 99.6378 L91.2898 99.6378 Z"
                  stroke="none"/>
            <text x="59.1622" xml:space="preserve" y="93.6142" stroke="none">NT1.21</text><line stroke-linecap="butt"
                  fill="none" x1="93.3322" x2="93.3322" y1="89.4331"
                  stroke-linejoin="bevel" y2="108.9921" stroke-width="0.8504"/>
            <path d="M93.7575 89.4331 L103.9164 89.4331 L103.9164 90.2835 L93.7575 90.2835 Z"
                  stroke="none"/>
            <text x="106.7511" xml:space="preserve" font-size="14" y="94.3543"
                  stroke="none">AY180101</text><path d="M93.7575 108.1417 L115.0207 108.1417 L115.0207 108.9921 L93.7575 108.9921 Z"
                  stroke="none"/>
            <text x="117.8554" xml:space="preserve" font-size="14" y="113.063"
                  stroke="none"></text>
            <path d="M77.2434 136.2047 L86 136.2047 L86 137.0551 L77.2434 137.0551 Z"
                  stroke="none"/>
            <text x="50.1951" xml:space="preserve" y="131.0315" stroke="none">NT1.14</text><line stroke-linecap="butt"
                  fill="none" x1="85.7395" x2="85.7395" y1="126.8504"
                  stroke-linejoin="bevel" y2="146.4095" stroke-width="0.8504"/>
            <path d="M86.1647 126.8504 L85.4092 126.8504 L85.4092 127.7008 L86.1647 127.7008 Z"
                  stroke="none"/>
            <text x="88.2439" xml:space="preserve" font-size="14" y="131.7717"
                  stroke="none">AJ000726</text><path d="M86.1647 145.5591 L88.9209 145.5591 L88.9209 146.4095 L86.1647 146.4095 Z"
                  stroke="none"/>
            <text x="91.7555" xml:space="preserve" font-size="14" y="150.4803"
                  stroke="none">X67022</text><path d="M66.9933 204.9006 L72 204.9006 L72 205.751 L66.9933 205.751 Z"
                  stroke="none"/>
            <text x="41.8528" xml:space="preserve" y="199.7274" stroke="none">NT1.3</text><line stroke-linecap="butt"
                  fill="none" x1="71.5033" x2="71.5033" y1="164.2677"
                  stroke-linejoin="bevel" y2="246.3839" stroke-width="0.8504"/>
            <path d="M71.9285 164.2677 L90.7241 164.2677 L90.7241 165.1181 L71.9285 165.1181 Z"
                  stroke="none"/>
            <text x="93.5588" xml:space="preserve" font-size="14" y="169.189"
                  stroke="none">DQ325514</text><path d="M71.9285 245.5335 L74 245.5335 L74 246.3839 L71.9285 246.3839 Z"
                  stroke="none"/>
            <text x="44.7265" xml:space="preserve" y="240.3602" stroke="none">NT1.4</text><line stroke-linecap="butt"
                  fill="none" x1="74.3505" x2="74.3505" y1="200.5158"
                  stroke-linejoin="bevel" y2="291.4016" stroke-width="0.8504"/>
            <path d="M74.7757 200.5158 L76 200.5158 L76 201.3662 L74.7757 201.3662 Z"
                  stroke="none"/>
            <text x="46.1658" xml:space="preserve" y="195.3425" stroke="none">NT1.5</text><line stroke-linecap="butt"
                  fill="none" x1="75.8691" x2="75.8691" y1="182.9764"
                  stroke-linejoin="bevel" y2="218.9055" stroke-width="0.8504"/>
            <path d="M76.2943 182.9764 L100.4048 182.9764 L100.4048 183.8268 L76.2943 183.8268 Z"
                  stroke="none"/>
            <text x="103.2394" xml:space="preserve" font-size="14" y="187.8976"
                  stroke="none">AJ704395</text><path d="M76.2943 218.0552 L79 218.0552 L79 218.9056 L76.2943 218.9056 Z"
                  stroke="none"/>
            <text x="49.4323" xml:space="preserve" y="212.8819" stroke="none">NT1.8</text><line stroke-linecap="butt"
                  fill="none" x1="79.096" x2="79.096" y1="201.6851"
                  stroke-linejoin="bevel" y2="235.2756" stroke-width="0.8504"/>
            <path d="M79.5212 201.6851 L95.5645 201.6851 L95.5645 202.5355 L79.5212 202.5355 Z"
                  stroke="none"/>
            <text x="98.3991" xml:space="preserve" font-size="14" y="206.6063"
                  stroke="none">AJ609270</text><path d="M79.5212 234.4252 L80 234.4252 L80 235.2756 L79.5212 235.2756 Z"
                  stroke="none"/>
            <text x="50.4763" xml:space="preserve" y="229.252" stroke="none">NT1.9</text><line stroke-linecap="butt"
                  fill="none" x1="80.1399" x2="80.1399" y1="220.3938"
                  stroke-linejoin="bevel" y2="249.3071" stroke-width="0.8504"/>
            <path d="M80.5651 220.3938 L88.2565 220.3938 L88.2565 221.2442 L80.5651 221.2442 Z"
                  stroke="none"/>
            <text x="91.0912" xml:space="preserve" font-size="14" y="225.315"
                  stroke="none">AY147906</text><path d="M80.5651 248.4567 L84 248.4567 L84 249.3071 L80.5651 249.3071 Z"
                  stroke="none"/>
            <text x="48.4315" xml:space="preserve" y="243.2835" stroke="none">NT1.12</text><line stroke-linecap="butt"
                  fill="none" x1="83.9363" x2="83.9363" y1="239.1024"
                  stroke-linejoin="bevel" y2="258.6615" stroke-width="0.8504"/>
            <path d="M84.3615 239.1024 L94.5205 239.1024 L94.5205 239.9528 L84.3615 239.9528 Z"
                  stroke="none"/>
            <text x="97.3551" xml:space="preserve" font-size="14" y="244.0237"
                  stroke="none">AY517632</text><path d="M84.3615 257.8111 L98.0321 257.8111 L98.0321 258.6615 L84.3615 258.6615 Z"
                  stroke="none"/>
            <text x="100.8667" xml:space="preserve" font-size="14" y="262.7324"
                  stroke="none">AY258110</text><path d="M74.7757 290.5512 L80 290.5512 L80 291.4016 L74.7757 291.4016 Z"
                  stroke="none"/>
            <text x="44.8803" xml:space="preserve" y="285.378" stroke="none">NT1.10</text><line stroke-linecap="butt"
                  fill="none" x1="80.4247" x2="80.4247" y1="276.5197"
                  stroke-linejoin="bevel" y2="305.4331" stroke-width="0.8504"/>
            <path d="M80.8499 276.5197 L85.0296 276.5197 L85.0296 277.3701 L80.8499 277.3701 Z"
                  stroke="none"/>
            <text x="87.8643" xml:space="preserve" font-size="14" y="281.441"
                  stroke="none">DQ414419</text><path d="M80.8499 304.5827 L90 304.5827 L90 305.4331 L80.8499 305.4331 Z"
                  stroke="none"/>
            <text x="54.2365" xml:space="preserve" y="299.4095" stroke="none">NT1.18</text><line stroke-linecap="butt"
                  fill="none" x1="89.8206" x2="89.8206" y1="295.2284"
                  stroke-linejoin="bevel" y2="314.7874" stroke-width="0.8504"/>
            <path d="M90.2458 295.2284 L95.1848 295.2284 L95.1848 296.0788 L90.2458 296.0788 Z"
                  stroke="none"/>
            <text x="98.0195" xml:space="preserve" font-size="14" y="300.1497"
                  stroke="none">EF157832</text><path d="M90.2458 313.9371 L98.4117 313.9371 L98.4117 314.7875 L90.2458 314.7875 Z"
                  stroke="none"/>
            <text x="101.2463" xml:space="preserve" font-size="14" y="318.8583"
                  stroke="none">AJ609271</text>
        </g>
    </g>
</svg>
