<?xml version="1.0"?>
<!DOCTYPE svg PUBLIC '-//W3C//DTD SVG 1.0//EN'
    'http://www.w3.org/TR/2001/REC-SVG-20010904/DTD/svg10.dtd' >

<svg fill-opacity="1" xmlns:xlink="http://www.w3.org/1999/xlink"
     color-rendering="auto" color-interpolation="auto" stroke="black"
     text-rendering="auto" stroke-linecap="square" stroke-miterlimit="10"
     stroke-opacity="1" shape-rendering="auto" fill="black"
     stroke-dasharray="none" font-weight="normal" stroke-width="1"
     xmlns="http://www.w3.org/2000/svg" font-family="&apos;Dialog&apos;"
     font-style="normal" stroke-linejoin="miter" font-size="12"
     stroke-dashoffset="0" image-rendering="auto">
    <!--Generated by the Batik Graphics2D SVG Generator-->
    <defs id="genericDefs"/>
    <g>
        <g fill="white" stroke="white">
            <rect x="0" width="160" height="598" y="0" stroke="none"/>
            <path fill="black"
                  d="M5 522.8665 L18 522.8665 L18 523.7169 L5 523.7169 Z"
                  stroke="none"/>
            <circle fill="black" r="1.2756" cx="17.4331" cy="522.8665"
                    stroke="none"/>
            <path fill="black"
                  d="M17.8583 522.0161 L18 522.0161 L18 522.8665 L17.8583 522.8665 Z"
                  stroke="none"/>
        </g>
        <g font-family="&apos;Arial&apos;" font-size="9">
            <text x="-11.9884" xml:space="preserve" y="516.8429" stroke="none">NT1.2</text><line stroke-linecap="butt"
                  fill="none" x1="17.596" x2="17.596" y1="468.1739"
                  stroke-linejoin="bevel" y2="576.7087" stroke-width="0.8504"/>
            <path d="M18.0212 468.1739 L30 468.1739 L30 469.0243 L18.0212 469.0243 Z"
                  stroke="none"/>
            <text x="-0.1067" xml:space="preserve" y="463.0007" stroke="none">NT1.3</text><line stroke-linecap="butt"
                  fill="none" x1="29.5437" x2="29.5437" y1="388.5525"
                  stroke-linejoin="bevel" y2="548.6458" stroke-width="0.8504"/>
            <path d="M29.9689 388.5525 L32 388.5525 L32 389.4029 L29.9689 389.4029 Z"
                  stroke="none"/>
            <text x="1.8748" xml:space="preserve" y="383.3792" stroke="none">NT1.4</text><line stroke-linecap="butt"
                  fill="none" x1="31.4988" x2="31.4988" y1="266.7269"
                  stroke-linejoin="bevel" y2="511.2284" stroke-width="0.8504"/>
            <path d="M31.924 266.7269 L34 266.7269 L34 267.5773 L31.924 267.5773 Z"
                  stroke="none"/>
            <text x="4.5109" xml:space="preserve" y="261.5537" stroke="none">NT1.5</text><line stroke-linecap="butt"
                  fill="none" x1="34.2142" x2="34.2142" y1="132.1122"
                  stroke-linejoin="bevel" y2="402.192" stroke-width="0.8504"/>
            <path d="M34.6394 132.1122 L36 132.1122 L36 132.9626 L34.6394 132.9626 Z"
                  stroke="none"/>
            <text x="6.2473" xml:space="preserve" y="126.939" stroke="none">NT1.7</text><line stroke-linecap="butt"
                  fill="none" x1="35.8977" x2="35.8977" y1="83.5866"
                  stroke-linejoin="bevel" y2="181.4882" stroke-width="0.8504"/>
            <path d="M36.3229 83.5866 L37 83.5866 L37 84.437 L36.3229 84.437 Z"
                  stroke="none"/>
            <text x="7.3745" xml:space="preserve" y="78.4134" stroke="none">NT1.9</text><line stroke-linecap="butt"
                  fill="none" x1="37.0382" x2="37.0382" y1="59.0315"
                  stroke-linejoin="bevel" y2="108.9921" stroke-width="0.8504"/>
            <path d="M37.4634 59.0315 L40 59.0315 L40 59.8819 L37.4634 59.8819 Z"
                  stroke="none"/>
            <text x="4.1402" xml:space="preserve" y="53.8583" stroke="none">NT1.12</text><line stroke-linecap="butt"
                  fill="none" x1="39.645" x2="39.645" y1="37.9843"
                  stroke-linejoin="bevel" y2="80.9291" stroke-width="0.8504"/>
            <path d="M40.0702 37.9843 L43 37.9843 L43 38.8347 L40.0702 38.8347 Z"
                  stroke="none"/>
            <text x="7.4956" xml:space="preserve" y="32.811" stroke="none">NT1.16</text><line stroke-linecap="butt"
                  fill="none" x1="43.0664" x2="43.0664" y1="23.9528"
                  stroke-linejoin="bevel" y2="52.8661" stroke-width="0.8504"/>
            <path d="M43.4916 23.9528 L54 23.9528 L54 24.8032 L43.4916 24.8032 Z"
                  stroke="none"/>
            <text x="18.2353" xml:space="preserve" y="18.7795" stroke="none">NT1.29</text><line stroke-linecap="butt"
                  fill="none" x1="53.8194" x2="53.8194" y1="14.5984"
                  stroke-linejoin="bevel" y2="34.1575" stroke-width="0.8504"/>
            <path d="M54.2446 14.5984 L59.8025 14.5984 L59.8025 15.4488 L54.2446 15.4488 Z"
                  stroke="none"/>
            <text x="62.6372" xml:space="preserve" font-size="14" y="19.5197"
                  stroke="none">L16481</text><path d="M54.2446 33.3071 L64.7989 33.3071 L64.7989 34.1575 L54.2446 34.1575 Z"
                  stroke="none"/>
            <text x="67.6335" xml:space="preserve" font-size="14" y="38.2283"
                  stroke="none">AB108825</text><path d="M43.4916 52.0158 L72.0218 52.0158 L72.0218 52.8661 L43.4916 52.8661 Z"
                  stroke="none"/>
            <text x="74.8565" xml:space="preserve" font-size="14" y="56.937"
                  stroke="none">L16478</text><path d="M40.0702 80.0788 L49 80.0788 L49 80.9291 L40.0702 80.9291 Z"
                  stroke="none"/>
            <text x="13.6985" xml:space="preserve" y="74.9055" stroke="none">NT1.22</text><line stroke-linecap="butt"
                  fill="none" x1="49.2032" x2="49.2032" y1="70.7244"
                  stroke-linejoin="bevel" y2="90.2835" stroke-width="0.8504"/>
            <path d="M49.6284 70.7244 L68.003 70.7244 L68.003 71.5748 L49.6284 71.5748 Z"
                  stroke="none"/>
            <text x="70.8377" xml:space="preserve" font-size="14" y="75.6457"
                  stroke="none">AY840553</text><path d="M49.6284 89.4331 L75.3889 89.4331 L75.3889 90.2835 L49.6284 90.2835 Z"
                  stroke="none"/>
            <text x="78.2235" xml:space="preserve" font-size="14" y="94.3543"
                  stroke="none">AY350613</text><path d="M37.4634 108.1417 L74.6286 108.1417 L74.6286 108.9921 L37.4634 108.9921 Z"
                  stroke="none"/>
            <text x="77.4632" xml:space="preserve" font-size="14" y="113.063"
                  stroke="none">AB200414</text><path d="M36.3229 180.6378 L41 180.6378 L41 181.4882 L36.3229 181.4882 Z"
                  stroke="none"/>
            <text x="5.0517" xml:space="preserve" y="175.4646" stroke="none">NT1.13</text><line stroke-linecap="butt"
                  fill="none" x1="40.6225" x2="40.6225" y1="150.2362"
                  stroke-linejoin="bevel" y2="211.8898" stroke-width="0.8504"/>
            <path d="M41.0477 150.2362 L43 150.2362 L43 151.0866 L41.0477 151.0866 Z"
                  stroke="none"/>
            <text x="7.2255" xml:space="preserve" y="145.063" stroke="none">NT1.15</text><line stroke-linecap="butt"
                  fill="none" x1="42.8492" x2="42.8492" y1="136.2047"
                  stroke-linejoin="bevel" y2="165.1181" stroke-width="0.8504"/>
            <path d="M43.2744 136.2047 L47 136.2047 L47 137.0551 L43.2744 137.0551 Z"
                  stroke="none"/>
            <text x="10.9581" xml:space="preserve" y="131.0315" stroke="none">NT1.19</text><line stroke-linecap="butt"
                  fill="none" x1="46.5421" x2="46.5421" y1="126.8504"
                  stroke-linejoin="bevel" y2="146.4095" stroke-width="0.8504"/>
            <path d="M46.9673 126.8504 L54.3174 126.8504 L54.3174 127.7008 L46.9673 127.7008 Z"
                  stroke="none"/>
            <text x="57.152" xml:space="preserve" font-size="14" y="131.7717"
                  stroke="none">AB108826</text><path d="M46.9673 145.5591 L55.6751 145.5591 L55.6751 146.4095 L46.9673 146.4095 Z"
                  stroke="none"/>
            <text x="58.5097" xml:space="preserve" font-size="14" y="150.4803"
                  stroke="none">L16472</text><path d="M43.2744 164.2677 L55.0777 164.2677 L55.0777 165.1181 L43.2744 165.1181 Z"
                  stroke="none"/>
            <text x="57.9124" xml:space="preserve" font-size="14" y="169.189"
                  stroke="none">L16474</text><path d="M41.0477 211.0394 L46 211.0394 L46 211.8898 L41.0477 211.8898 Z"
                  stroke="none"/>
            <text x="10.0348" xml:space="preserve" y="205.8662" stroke="none">NT1.18</text><line stroke-linecap="butt"
                  fill="none" x1="45.6189" x2="45.6189" y1="192.3307"
                  stroke-linejoin="bevel" y2="230.5984" stroke-width="0.8504"/>
            <path d="M46.0441 192.3307 L59 192.3307 L59 193.1811 L46.0441 193.1811 Z"
                  stroke="none"/>
            <text x="23.1905" xml:space="preserve" y="187.1575" stroke="none">NT1.37</text><line stroke-linecap="butt"
                  fill="none" x1="58.7614" x2="58.7614" y1="182.9764"
                  stroke-linejoin="bevel" y2="202.5354" stroke-width="0.8504"/>
            <path d="M59.1866 182.9764 L60.3999 182.9764 L60.3999 183.8268 L59.1866 183.8268 Z"
                  stroke="none"/>
            <text x="63.2345" xml:space="preserve" font-size="14" y="187.8976"
                  stroke="none">L16466</text><path d="M59.1866 201.6851 L66.4281 201.6851 L66.4281 202.5355 L59.1866 202.5355 Z"
                  stroke="none"/>
            <text x="69.2627" xml:space="preserve" font-size="14" y="206.6063"
                  stroke="none">AB182483</text><path d="M46.0441 229.748 L52 229.748 L52 230.5984 L46.0441 230.5984 Z"
                  stroke="none"/>
            <text x="16.3477" xml:space="preserve" y="224.5748" stroke="none">NT1.26</text><line stroke-linecap="butt"
                  fill="none" x1="51.9186" x2="51.9186" y1="220.3937"
                  stroke-linejoin="bevel" y2="239.9528" stroke-width="0.8504"/>
            <path d="M52.3438 220.3937 L60.0197 220.3937 L60.0197 221.2441 L52.3438 221.2441 Z"
                  stroke="none"/>
            <text x="62.8544" xml:space="preserve" font-size="14" y="225.315"
                  stroke="none">L16469</text><path d="M52.3438 239.1024 L64.5273 239.1024 L64.5273 239.9528 L52.3438 239.9528 Z"
                  stroke="none"/>
            <text x="67.3619" xml:space="preserve" font-size="14" y="244.0236"
                  stroke="none">L16473</text><path d="M34.6394 401.3416 L36 401.3416 L36 402.192 L34.6394 402.192 Z"
                  stroke="none"/>
            <text x="6.2473" xml:space="preserve" y="396.1684" stroke="none">NT1.6</text><line stroke-linecap="butt"
                  fill="none" x1="35.8977" x2="35.8977" y1="353.1083"
                  stroke-linejoin="bevel" y2="450.4253" stroke-width="0.8504"/>
            <path d="M36.3229 353.1083 L37 353.1083 L37 353.9587 L36.3229 353.9587 Z"
                  stroke="none"/>
            <text x="7.3202" xml:space="preserve" y="347.9351" stroke="none">NT1.8</text><line stroke-linecap="butt"
                  fill="none" x1="36.9839" x2="36.9839" y1="317.4449"
                  stroke-linejoin="bevel" y2="389.6221" stroke-width="0.8504"/>
            <path d="M37.4091 317.4449 L42 317.4449 L42 318.2953 L37.4091 318.2953 Z"
                  stroke="none"/>
            <text x="6.816" xml:space="preserve" y="312.2717" stroke="none">NT1.14</text><line stroke-linecap="butt"
                  fill="none" x1="42.3604" x2="42.3604" y1="281.1969"
                  stroke-linejoin="bevel" y2="354.5434" stroke-width="0.8504"/>
            <path d="M42.7856 281.1969 L48 281.1969 L48 282.0473 L42.7856 282.0473 Z"
                  stroke="none"/>
            <text x="12.0295" xml:space="preserve" y="276.0237" stroke="none">NT1.20</text><line stroke-linecap="butt"
                  fill="none" x1="47.574" x2="47.574" y1="267.1654"
                  stroke-linejoin="bevel" y2="296.0788" stroke-width="0.8504"/>
            <path d="M47.9992 267.1654 L52 267.1654 L52 268.0158 L47.9992 268.0158 Z"
                  stroke="none"/>
            <text x="16.4021" xml:space="preserve" y="261.9922" stroke="none">NT1.27</text><line stroke-linecap="butt"
                  fill="none" x1="51.9729" x2="51.9729" y1="257.8111"
                  stroke-linejoin="bevel" y2="277.3701" stroke-width="0.8504"/>
            <path d="M52.3981 257.8111 L51.4934 257.8111 L51.4934 258.6615 L52.3981 258.6615 Z"
                  stroke="none"/>
            <text x="54.328" xml:space="preserve" font-size="14" y="262.7323"
                  stroke="none"></text>
            <path d="M52.3981 276.5197 L60.5085 276.5197 L60.5085 277.3701 L52.3981 277.3701 Z"
                  stroke="none"/>
            <text x="63.3431" xml:space="preserve" font-size="14" y="281.441"
                  stroke="none">AM422125</text><path d="M47.9992 295.2284 L60.1827 295.2284 L60.1827 296.0788 L47.9992 296.0788 Z"
                  stroke="none"/>
            <text x="63.0173" xml:space="preserve" font-size="14" y="300.1497"
                  stroke="none">L16475</text><path d="M42.7856 353.693 L48 353.693 L48 354.5434 L42.7856 354.5434 Z"
                  stroke="none"/>
            <text x="13.5668" xml:space="preserve" y="348.5197" stroke="none">NT1.21</text><line stroke-linecap="butt"
                  fill="none" x1="47.7369" x2="47.7369" y1="337.3229"
                  stroke-linejoin="bevel" y2="370.9134" stroke-width="0.8504"/>
            <path d="M48.1621 337.3229 L50 337.3229 L50 338.1733 L48.1621 338.1733 Z"
                  stroke="none"/>
            <text x="14.3384" xml:space="preserve" y="332.1497" stroke="none">NT1.23</text><line stroke-linecap="butt"
                  fill="none" x1="49.9092" x2="49.9092" y1="323.2914"
                  stroke-linejoin="bevel" y2="352.2048" stroke-width="0.8504"/>
            <path d="M50.3344 323.2914 L52 323.2914 L52 324.1418 L50.3344 324.1418 Z"
                  stroke="none"/>
            <text x="16.4975" xml:space="preserve" y="318.1182" stroke="none">NT1.28</text><line stroke-linecap="butt"
                  fill="none" x1="52.0815" x2="52.0815" y1="313.9371"
                  stroke-linejoin="bevel" y2="333.4961" stroke-width="0.8504"/>
            <path d="M52.5067 313.9371 L62.8981 313.9371 L62.8981 314.7875 L52.5067 314.7875 Z"
                  stroke="none"/>
            <text x="65.7327" xml:space="preserve" font-size="14" y="318.8583"
                  stroke="none">L16471</text><path d="M52.5067 332.6458 L69.5236 332.6458 L69.5236 333.4962 L52.5067 333.4962 Z"
                  stroke="none"/>
            <text x="72.3583" xml:space="preserve" font-size="14" y="337.567"
                  stroke="none">Y13105</text><path d="M50.3344 351.3544 L70.6641 351.3544 L70.6641 352.2048 L50.3344 352.2048 Z"
                  stroke="none"/>
            <text x="73.4987" xml:space="preserve" font-size="14" y="356.2756"
                  stroke="none">L16468</text><path d="M48.1621 370.063 L68.003 370.063 L68.003 370.9135 L48.1621 370.9135 Z"
                  stroke="none"/>
            <text x="70.8376" xml:space="preserve" font-size="14" y="374.9843"
                  stroke="none">L16483</text><path d="M37.4091 388.7717 L57.8474 388.7717 L57.8474 389.6221 L37.4091 389.6221 Z"
                  stroke="none"/>
            <text x="60.682" xml:space="preserve" font-size="14" y="393.693"
                  stroke="none">L16465</text><path d="M36.3229 449.5749 L43 449.5749 L43 450.4253 L36.3229 450.4253 Z"
                  stroke="none"/>
            <text x="7.7128" xml:space="preserve" y="444.4017" stroke="none">NT1.17</text><line stroke-linecap="butt"
                  fill="none" x1="43.2836" x2="43.2836" y1="416.8347"
                  stroke-linejoin="bevel" y2="483.1654" stroke-width="0.8504"/>
            <path d="M43.7088 416.8347 L54 416.8347 L54 417.6852 L43.7088 417.6852 Z"
                  stroke="none"/>
            <text x="20.1381" xml:space="preserve" y="411.6615" stroke="none">NT1.31</text><line stroke-linecap="butt"
                  fill="none" x1="54.3081" x2="54.3081" y1="407.4804"
                  stroke-linejoin="bevel" y2="427.0394" stroke-width="0.8504"/>
            <path d="M54.7333 407.4804 L53.8829 407.4804 L53.8829 408.3308 L54.7333 408.3308 Z"
                  stroke="none"/>
            <text x="56.7176" xml:space="preserve" font-size="14" y="412.4016"
                  stroke="none"></text>
            <path d="M54.7333 426.1891 L70.0124 426.1891 L70.0124 427.0395 L54.7333 427.0395 Z"
                  stroke="none"/>
            <text x="72.847" xml:space="preserve" font-size="14" y="431.1103"
                  stroke="none">AJ005635</text><path d="M43 454.2521 L51 454.2521 L51 455.1025 L43 455.1025 Z"
                  stroke="none"/>
            <text x="15.3423" xml:space="preserve" y="449.0789" stroke="none">NT1.24</text><line stroke-linecap="butt"
                  fill="none" x1="50.8867" x2="50.8867" y1="444.8977"
                  stroke-linejoin="bevel" y2="464.4568" stroke-width="0.8504"/>
            <path d="M51.3119 444.8978 L67.0254 444.8978 L67.0254 445.7482 L51.3119 445.7482 Z"
                  stroke="none"/>
            <text x="69.8601" xml:space="preserve" font-size="14" y="449.819"
                  stroke="none">L16480</text><path d="M51.3119 463.6064 L72.9993 463.6064 L72.9993 464.4568 L51.3119 464.4568 Z"
                  stroke="none"/>
            <text x="75.834" xml:space="preserve" font-size="14" y="468.5277"
                  stroke="none">AF481227</text><path d="M43.7088 482.3151 L58.4991 482.3151 L58.4991 483.1655 L43.7088 483.1655 Z"
                  stroke="none"/>
            <text x="61.3338" xml:space="preserve" font-size="14" y="487.2364"
                  stroke="none">L16476</text><path d="M31.924 510.378 L37 510.378 L37 511.2284 L31.924 511.2284 Z"
                  stroke="none"/>
            <text x="1.7653" xml:space="preserve" y="505.2048" stroke="none">NT1.10</text><line stroke-linecap="butt"
                  fill="none" x1="37.3097" x2="37.3097" y1="501.0237"
                  stroke-linejoin="bevel" y2="520.5827" stroke-width="0.8504"/>
            <path d="M37.7349 501.0237 L56.0552 501.0237 L56.0552 501.8741 L37.7349 501.8741 Z"
                  stroke="none"/>
            <text x="58.8899" xml:space="preserve" font-size="14" y="505.9449"
                  stroke="none">AJO11683</text><path d="M37.7349 519.7324 L63.4411 519.7324 L63.4411 520.5827 L37.7349 520.5827 Z"
                  stroke="none"/>
            <text x="66.2757" xml:space="preserve" font-size="14" y="524.6536"
                  stroke="none">AJ006457</text><path d="M29.9689 547.7953 L39 547.7953 L39 548.6457 L29.9689 548.6457 Z"
                  stroke="none"/>
            <text x="4.6603" xml:space="preserve" y="542.6221" stroke="none">NT1.11</text><line stroke-linecap="butt"
                  fill="none" x1="38.8304" x2="38.8304" y1="538.441"
                  stroke-linejoin="bevel" y2="558.0001" stroke-width="0.8504"/>
            <path d="M39.2556 538.441 L63.1696 538.441 L63.1696 539.2914 L39.2556 539.2914 Z"
                  stroke="none"/>
            <text x="66.0042" xml:space="preserve" font-size="14" y="543.3623"
                  stroke="none">L16482</text><path d="M39.2556 557.1497 L65.5591 557.1497 L65.5591 558.0001 L39.2556 558.0001 Z"
                  stroke="none"/>
            <text x="68.3938" xml:space="preserve" font-size="14" y="562.071"
                  stroke="none">AJ011682</text><path d="M18.0212 575.8583 L71.9675 575.8583 L71.9675 576.7087 L18.0212 576.7087 Z"
                  stroke="none"/>
            <text x="74.8021" xml:space="preserve" font-size="14" y="580.7796"
                  stroke="none">M11656</text>
        </g>
    </g>
</svg>
