<?xml version="1.0"?>
<!DOCTYPE svg PUBLIC '-//W3C//DTD SVG 1.0//EN'
    'http://www.w3.org/TR/2001/REC-SVG-20010904/DTD/svg10.dtd' >

<svg fill-opacity="1" xmlns:xlink="http://www.w3.org/1999/xlink"
     color-rendering="auto" color-interpolation="auto" stroke="black"
     text-rendering="auto" stroke-linecap="square" stroke-miterlimit="10"
     stroke-opacity="1" shape-rendering="auto" fill="black"
     stroke-dasharray="none" font-weight="normal" stroke-width="1"
     xmlns="http://www.w3.org/2000/svg" font-family="&apos;Dialog&apos;"
     font-style="normal" stroke-linejoin="miter" font-size="12"
     stroke-dashoffset="0" image-rendering="auto">
    <!--Generated by the Batik Graphics2D SVG Generator-->
    <defs id="genericDefs"/>
    <g>
        <g fill="white" stroke="white">
            <rect x="0" width="197" height="354" y="0" stroke="none"/>
            <path fill="black"
                  d="M5 280.3066 L44 280.3066 L44 281.157 L5 281.157 Z"
                  stroke="none"/>
        </g>
        <g font-family="&apos;Arial&apos;" font-size="9">
            <text x="8.5039" xml:space="preserve" y="275.1334" stroke="none">NT1.32</text><line stroke-linecap="butt"
                  fill="none" x1="44.0087" x2="44.0087" y1="227.1171"
                  stroke-linejoin="bevel" y2="333.4961" stroke-width="0.8504"/>
            <path d="M44.4339 227.1171 L47 227.1171 L47 227.9675 L44.4339 227.9675 Z"
                  stroke="none"/>
            <text x="18.3576" xml:space="preserve" y="221.9439" stroke="none">NT1.1</text><line stroke-linecap="butt"
                  fill="none" x1="46.6072" x2="46.6072" y1="168.3602"
                  stroke-linejoin="bevel" y2="286.7244" stroke-width="0.8504"/>
            <path d="M47.0324 168.3602 L60 168.3602 L60 169.2106 L47.0324 169.2106 Z"
                  stroke="none"/>
            <text x="30.5353" xml:space="preserve" y="163.187" stroke="none">NT1.2</text><line stroke-linecap="butt"
                  fill="none" x1="60.1197" x2="60.1197" y1="97.6181"
                  stroke-linejoin="bevel" y2="239.9528" stroke-width="0.8504"/>
            <path d="M60.5448 97.6181 L63 97.6181 L63 98.4685 L60.5448 98.4685 Z"
                  stroke="none"/>
            <text x="33.4142" xml:space="preserve" y="92.4449" stroke="none">NT1.3</text><line stroke-linecap="butt"
                  fill="none" x1="63.0647" x2="63.0647" y1="14.5984"
                  stroke-linejoin="bevel" y2="181.4882" stroke-width="0.8504"/>
            <path d="M63.4899 14.5984 L81.349 14.5984 L81.349 15.4488 L63.4899 15.4488 Z"
                  stroke="none"/>
            <text x="84.1836" xml:space="preserve" font-size="14" y="19.5197"
                  stroke="none">D85827</text><path d="M63 84.7559 L67 84.7559 L67 85.6063 L63 85.6063 Z"
                  stroke="none"/>
            <text x="37.5983" xml:space="preserve" y="79.5827" stroke="none">NT1.4</text><line stroke-linecap="butt"
                  fill="none" x1="67.2223" x2="67.2223" y1="42.6614"
                  stroke-linejoin="bevel" y2="127.7008" stroke-width="0.8504"/>
            <path d="M67.6475 42.6614 L78 42.6614 L78 43.5118 L67.6475 43.5118 Z"
                  stroke="none"/>
            <text x="43.6197" xml:space="preserve" y="37.4882" stroke="none">NT1.11</text><line stroke-linecap="butt"
                  fill="none" x1="77.7897" x2="77.7897" y1="33.3071"
                  stroke-linejoin="bevel" y2="52.8661" stroke-width="0.8504"/>
            <path d="M78.2149 33.3071 L83.2546 33.3071 L83.2546 34.1575 L78.2149 34.1575 Z"
                  stroke="none"/>
            <text x="86.0892" xml:space="preserve" font-size="14" y="38.2283"
                  stroke="none">AY150049</text><path d="M78.2149 52.0158 L84.9869 52.0158 L84.9869 52.8661 L78.2149 52.8661 Z"
                  stroke="none"/>
            <text x="87.8216" xml:space="preserve" font-size="14" y="56.937"
                  stroke="none">AY150048</text><path d="M67 80.0788 L77 80.0788 L77 80.9291 L67 80.9291 Z"
                  stroke="none"/>
            <text x="41.0327" xml:space="preserve" y="74.9055" stroke="none">NT1.10</text><line stroke-linecap="butt"
                  fill="none" x1="76.5771" x2="76.5771" y1="70.7244"
                  stroke-linejoin="bevel" y2="90.2835" stroke-width="0.8504"/>
            <path d="M77.0023 70.7244 L86.5461 70.7244 L86.5461 71.5748 L77.0023 71.5748 Z"
                  stroke="none"/>
            <text x="89.3807" xml:space="preserve" font-size="14" y="75.6457"
                  stroke="none">AJ488504</text><path d="M77.0023 89.4331 L87.4122 89.4331 L87.4122 90.2835 L77.0023 90.2835 Z"
                  stroke="none"/>
            <text x="90.2469" xml:space="preserve" font-size="14" y="94.3543"
                  stroke="none">AY150047</text><path d="M67.6475 126.8504 L76 126.8504 L76 127.7008 L67.6475 127.7008 Z"
                  stroke="none"/>
            <text x="46.0472" xml:space="preserve" y="121.6772" stroke="none">NT1.8</text><line stroke-linecap="butt"
                  fill="none" x1="75.7109" x2="75.7109" y1="108.1417"
                  stroke-linejoin="bevel" y2="146.4095" stroke-width="0.8504"/>
            <path d="M76.1361 108.1417 L79.7898 108.1417 L79.7898 108.9921 L76.1361 108.9921 Z"
                  stroke="none"/>
            <text x="82.6245" xml:space="preserve" font-size="14" y="113.063"
                  stroke="none">AM231587</text><path d="M76 126.8504 L91.3967 126.8504 L91.3967 127.7008 L76 127.7008 Z"
                  stroke="none"/>
            <text x="94.2313" xml:space="preserve" font-size="14" y="131.7717"
                  stroke="none">AJ786000</text><path d="M76.1361 145.5591 L93.129 145.5591 L93.129 146.4095 L76.1361 146.4095 Z"
                  stroke="none"/>
            <text x="95.9637" xml:space="preserve" font-size="14" y="150.4803"
                  stroke="none">EF363716</text><path d="M63.4899 180.6378 L67 180.6378 L67 181.4882 L63.4899 181.4882 Z"
                  stroke="none"/>
            <text x="37.519" xml:space="preserve" y="175.4646" stroke="none">NT1.5</text><line stroke-linecap="butt"
                  fill="none" x1="67.2223" x2="67.2223" y1="164.2677"
                  stroke-linejoin="bevel" y2="197.8583" stroke-width="0.8504"/>
            <path d="M67.6475 164.2677 L82.2151 164.2677 L82.2151 165.1181 L67.6475 165.1181 Z"
                  stroke="none"/>
            <text x="85.0498" xml:space="preserve" font-size="14" y="169.189"
                  stroke="none">AJ488505</text><path d="M67.6475 197.0079 L80 197.0079 L80 197.8583 L67.6475 197.8583 Z"
                  stroke="none"/>
            <text x="44.8174" xml:space="preserve" y="191.8347" stroke="none">NT1.13</text><line stroke-linecap="butt"
                  fill="none" x1="80.3883" x2="80.3883" y1="182.9764"
                  stroke-linejoin="bevel" y2="211.8898" stroke-width="0.8504"/>
            <path d="M80.8135 182.9764 L82.7348 182.9764 L82.7348 183.8268 L80.8135 183.8268 Z"
                  stroke="none"/>
            <text x="85.5695" xml:space="preserve" font-size="14" y="187.8976"
                  stroke="none">AF538712</text><path d="M80.8135 211.0394 L84 211.0394 L84 211.8898 L80.8135 211.8898 Z"
                  stroke="none"/>
            <text x="49.8562" xml:space="preserve" y="205.8662" stroke="none">NT1.21</text><line stroke-linecap="butt"
                  fill="none" x1="84.0262" x2="84.0262" y1="201.6851"
                  stroke-linejoin="bevel" y2="221.2441" stroke-width="0.8504"/>
            <path d="M84.4514 201.6851 L84.4672 201.6851 L84.4672 202.5355 L84.4514 202.5355 Z"
                  stroke="none"/>
            <text x="87.3019" xml:space="preserve" font-size="14" y="206.6063"
                  stroke="none"></text>
            <path d="M84.4514 220.3938 L85.3334 220.3938 L85.3334 221.2442 L84.4514 221.2442 Z"
                  stroke="none"/>
            <text x="88.1681" xml:space="preserve" font-size="14" y="225.315"
                  stroke="none">AY150045</text><path d="M60.5448 239.1024 L88.4517 239.1024 L88.4517 239.9528 L60.5448 239.9528 Z"
                  stroke="none"/>
            <text x="91.2863" xml:space="preserve" font-size="14" y="244.0236"
                  stroke="none">X72908</text><path d="M47.0324 285.874 L69 285.874 L69 286.7244 L47.0324 286.7244 Z"
                  stroke="none"/>
            <text x="39.3042" xml:space="preserve" y="280.7008" stroke="none">NT1.6</text><line stroke-linecap="butt"
                  fill="none" x1="68.9547" x2="68.9547" y1="267.1654"
                  stroke-linejoin="bevel" y2="305.4331" stroke-width="0.8504"/>
            <path d="M69.3799 267.1654 L75 267.1654 L75 268.0158 L69.3799 268.0158 Z"
                  stroke="none"/>
            <text x="45.714" xml:space="preserve" y="261.9921" stroke="none">NT1.7</text><line stroke-linecap="butt"
                  fill="none" x1="75.3644" x2="75.3644" y1="257.811"
                  stroke-linejoin="bevel" y2="277.3701" stroke-width="0.8504"/>
            <path d="M75.7896 257.811 L83.6011 257.811 L83.6011 258.6614 L75.7896 258.6614 Z"
                  stroke="none"/>
            <text x="86.4357" xml:space="preserve" font-size="14" y="262.7323"
                  stroke="none">X74066</text><path d="M75.7896 276.5197 L85.3334 276.5197 L85.3334 277.3701 L75.7896 277.3701 Z"
                  stroke="none"/>
            <text x="88.1681" xml:space="preserve" font-size="14" y="281.441"
                  stroke="none">A3032351</text><path d="M69.3799 304.5827 L76 304.5827 L76 305.4331 L69.3799 305.4331 Z"
                  stroke="none"/>
            <text x="46.7402" xml:space="preserve" y="299.4095" stroke="none">NT1.9</text><line stroke-linecap="butt"
                  fill="none" x1="76.4039" x2="76.4039" y1="295.2284"
                  stroke-linejoin="bevel" y2="314.7874" stroke-width="0.8504"/>
            <path d="M76.8291 295.2284 L82.0419 295.2284 L82.0419 296.0788 L76.8291 296.0788 Z"
                  stroke="none"/>
            <text x="84.8766" xml:space="preserve" font-size="14" y="300.1496"
                  stroke="none"></text>
            <path d="M76.8291 313.937 L83.0814 313.937 L83.0814 314.7874 L76.8291 314.7874 Z"
                  stroke="none"/>
            <text x="85.916" xml:space="preserve" font-size="14" y="318.8583"
                  stroke="none">X73820</text><path d="M44.4339 332.6457 L112.185 332.6457 L112.185 333.4961 L44.4339 333.4961 Z"
                  stroke="none"/>
            <text x="115.0197" xml:space="preserve" font-size="14" y="337.567"
                  stroke="none">32226.0</text>
        </g>
    </g>
</svg>
