<?xml version="1.0"?>
<!DOCTYPE svg PUBLIC '-//W3C//DTD SVG 1.0//EN'
    'http://www.w3.org/TR/2001/REC-SVG-20010904/DTD/svg10.dtd' >

<svg fill-opacity="1" xmlns:xlink="http://www.w3.org/1999/xlink"
     color-rendering="auto" color-interpolation="auto" stroke="black"
     text-rendering="auto" stroke-linecap="square" stroke-miterlimit="10"
     stroke-opacity="1" shape-rendering="auto" fill="black"
     stroke-dasharray="none" font-weight="normal" stroke-width="1"
     xmlns="http://www.w3.org/2000/svg" font-family="&apos;Dialog&apos;"
     font-style="normal" stroke-linejoin="miter" font-size="12"
     stroke-dashoffset="0" image-rendering="auto">
    <!--Generated by the Batik Graphics2D SVG Generator-->
    <defs id="genericDefs"/>
    <g>
        <g fill="white" stroke="white">
            <rect x="0" width="223" height="261" y="0" stroke="none"/>
            <path fill="black"
                  d="M5 95.4124 L44 95.4124 L44 96.2628 L5 96.2628 Z"
                  stroke="none"/>
        </g>
        <g font-family="&apos;Arial&apos;" font-size="9">
            <text x="8.5039" xml:space="preserve" y="90.2392" stroke="none">NT1.24</text><line stroke-linecap="butt"
                  fill="none" x1="44.0483" x2="44.0483" y1="43.8307"
                  stroke-linejoin="bevel" y2="146.9941" stroke-width="0.8504"/>
            <path d="M44.4735 43.8307 L61 43.8307 L61 44.6811 L44.4735 44.6811 Z"
                  stroke="none"/>
            <text x="31.0439" xml:space="preserve" y="38.6575" stroke="none">NT1.3</text><line stroke-linecap="butt"
                  fill="none" x1="60.6943" x2="60.6943" y1="14.5984"
                  stroke-linejoin="bevel" y2="73.9134" stroke-width="0.8504"/>
            <path d="M61.1195 14.5984 L68.9885 14.5984 L68.9885 15.4488 L61.1195 15.4488 Z"
                  stroke="none"/>
            <text x="71.8231" xml:space="preserve" font-size="14" y="19.5197"
                  stroke="none">10"“MmmSC-2</text><path d="M61.1195 73.063 L62 73.063 L62 73.9134 L61.1195 73.9134 Z"
                  stroke="none"/>
            <text x="32.3914" xml:space="preserve" y="67.8898" stroke="none">NT1.4</text><line stroke-linecap="butt"
                  fill="none" x1="62.0155" x2="62.0155" y1="47.3386"
                  stroke-linejoin="bevel" y2="99.6378" stroke-width="0.8504"/>
            <path d="M62.4407 47.3386 L75 47.3386 L75 48.189 L62.4407 48.189 Z"
                  stroke="none"/>
            <text x="44.7834" xml:space="preserve" y="42.1654" stroke="none">NT1.7</text><line stroke-linecap="butt"
                  fill="none" x1="74.4339" x2="74.4339" y1="33.3071"
                  stroke-linejoin="bevel" y2="62.2205" stroke-width="0.8504"/>
            <path d="M74.8591 33.3071 L96.4676 33.3071 L96.4676 34.1575 L74.8591 34.1575 Z"
                  stroke="none"/>
            <text x="99.3023" xml:space="preserve" font-size="14" y="38.2283"
                  stroke="none">MmmLC-1</text><path d="M74.8591 61.3701 L90 61.3701 L90 62.2205 L74.8591 62.2205 Z"
                  stroke="none"/>
            <text x="54.188" xml:space="preserve" y="56.1969" stroke="none">NT1.16</text><line stroke-linecap="butt"
                  fill="none" x1="89.7588" x2="89.7588" y1="52.0157"
                  stroke-linejoin="bevel" y2="71.5748" stroke-width="0.8504"/>
            <path d="M90.184 52.0158 L103.6016 52.0158 L103.6016 52.8661 L90.184 52.8661 Z"
                  stroke="none"/>
            <text x="106.4363" xml:space="preserve" font-size="14" y="56.937"
                  stroke="none">Mme-1</text><path d="M90.184 70.7244 L110.9998 70.7244 L110.9998 71.5748 L90.184 71.5748 Z"
                  stroke="none"/>
            <text x="113.8345" xml:space="preserve" font-size="14" y="75.6457"
                  stroke="none">Mme-3</text><path d="M62.4407 98.7874 L76 98.7874 L76 99.6378 L62.4407 99.6378 Z"
                  stroke="none"/>
            <text x="39.9464" xml:space="preserve" y="93.6142" stroke="none">NT1.10</text><line stroke-linecap="butt"
                  fill="none" x1="75.4908" x2="75.4908" y1="89.4331"
                  stroke-linejoin="bevel" y2="108.9921" stroke-width="0.8504"/>
            <path d="M75.916 89.4331 L75.0656 89.4331 L75.0656 90.2835 L75.916 90.2835 Z"
                  stroke="none"/>
            <text x="77.9003" xml:space="preserve" font-size="14" y="94.3543"
                  stroke="none">MmmLC-2</text><path d="M75.916 108.1417 L75.8583 108.1417 L75.8583 108.9921 L75.916 108.9921 Z"
                  stroke="none"/>
            <text x="78.6929" xml:space="preserve" font-size="14" y="113.063"
                  stroke="none">MmmLC-2</text><path d="M44.4735 146.1437 L47 146.1437 L47 146.9941 L44.4735 146.9941 Z"
                  stroke="none"/>
            <text x="18.4409" xml:space="preserve" y="140.9705" stroke="none">NT1.1</text><line stroke-linecap="butt"
                  fill="none" x1="46.6906" x2="46.6906" y1="126.8504"
                  stroke-linejoin="bevel" y2="166.2874" stroke-width="0.8504"/>
            <path d="M47.1157 126.8504 L77.972 126.8504 L77.972 127.7008 L47.1157 127.7008 Z"
                  stroke="none"/>
            <text x="80.8067" xml:space="preserve" font-size="14" y="131.7717"
                  stroke="none">MmmLC-5</text><path d="M47.1157 165.437 L59 165.437 L59 166.2874 L47.1157 166.2874 Z"
                  stroke="none"/>
            <text x="29.7888" xml:space="preserve" y="160.2638" stroke="none">NT1.2</text><line stroke-linecap="butt"
                  fill="none" x1="59.3732" x2="59.3732" y1="145.5591"
                  stroke-linejoin="bevel" y2="186.1654" stroke-width="0.8504"/>
            <path d="M59.7984 145.5591 L85.6345 145.5591 L85.6345 146.4095 L59.7984 146.4095 Z"
                  stroke="none"/>
            <text x="88.4691" xml:space="preserve" font-size="14" y="150.4803"
                  stroke="none">97.0</text><path d="M59.7984 185.315 L68 185.315 L68 186.1654 L59.7984 186.1654 Z"
                  stroke="none"/>
            <text x="38.3892" xml:space="preserve" y="180.1417" stroke="none">NT1.5</text><line stroke-linecap="butt"
                  fill="none" x1="68.0925" x2="68.0925" y1="164.2677"
                  stroke-linejoin="bevel" y2="207.2126" stroke-width="0.8504"/>
            <path d="M68.5177 164.2677 L84.0491 164.2677 L84.0491 165.1181 L68.5177 165.1181 Z"
                  stroke="none"/>
            <text x="86.8838" xml:space="preserve" font-size="14" y="169.189"
                  stroke="none"></text>
            <path d="M68.5177 206.3622 L80 206.3622 L80 207.2126 L68.5177 207.2126 Z"
                  stroke="none"/>
            <text x="44.1475" xml:space="preserve" y="201.189" stroke="none">NT1.13</text><line stroke-linecap="butt"
                  fill="none" x1="79.7183" x2="79.7183" y1="182.9764"
                  stroke-linejoin="bevel" y2="230.5984" stroke-width="0.8504"/>
            <path d="M80.1435 182.9764 L75.0656 182.9764 L75.0656 183.8268 L80.1435 183.8268 Z"
                  stroke="none"/>
            <text x="77.9002" xml:space="preserve" font-size="14" y="187.8976"
                  stroke="none"></text>
            <path d="M80 201.685 L93.0327 201.685 L93.0327 202.5354 L80 202.5354 Z"
                  stroke="none"/>
            <text x="95.8674" xml:space="preserve" font-size="14" y="206.6063"
                  stroke="none"></text>
            <path d="M80.1435 229.748 L94 229.748 L94 230.5984 L80.1435 230.5984 Z"
                  stroke="none"/>
            <text x="57.9135" xml:space="preserve" y="224.5748" stroke="none">NT1.20</text><line stroke-linecap="butt"
                  fill="none" x1="93.4579" x2="93.4579" y1="220.3937"
                  stroke-linejoin="bevel" y2="239.9528" stroke-width="0.8504"/>
            <path d="M93.8831 220.3937 L93.0327 220.3937 L93.0327 221.2441 L93.8831 221.2441 Z"
                  stroke="none"/>
            <text x="95.8674" xml:space="preserve" font-size="14" y="225.315"
                  stroke="none"></text>
            <path d="M93.8831 239.1024 L93.0327 239.1024 L93.0327 239.9528 L93.8831 239.9528 Z"
                  stroke="none"/>
            <text x="95.8674" xml:space="preserve" font-size="14" y="244.0237"
                  stroke="none"></text>
        </g>
    </g>
</svg>
