<?xml version="1.0"?>
<!DOCTYPE svg PUBLIC '-//W3C//DTD SVG 1.0//EN'
    'http://www.w3.org/TR/2001/REC-SVG-20010904/DTD/svg10.dtd' >

<svg fill-opacity="1" xmlns:xlink="http://www.w3.org/1999/xlink"
     color-rendering="auto" color-interpolation="auto" stroke="black"
     text-rendering="auto" stroke-linecap="square" stroke-miterlimit="10"
     stroke-opacity="1" shape-rendering="auto" fill="black"
     stroke-dasharray="none" font-weight="normal" stroke-width="1"
     xmlns="http://www.w3.org/2000/svg" font-family="&apos;Dialog&apos;"
     font-style="normal" stroke-linejoin="miter" font-size="12"
     stroke-dashoffset="0" image-rendering="auto">
    <!--Generated by the Batik Graphics2D SVG Generator-->
    <defs id="genericDefs"/>
    <g>
        <g fill="white" stroke="white">
            <rect x="0" width="177" height="298" y="0" stroke="none"/>
            <path fill="black"
                  d="M5 181.6476 L44 181.6476 L44 182.498 L5 182.498 Z"
                  stroke="none"/>
        </g>
        <g font-family="&apos;Arial&apos;" font-size="9">
            <text x="8.5039" xml:space="preserve" y="176.4744" stroke="none">NT1.29</text><line stroke-linecap="butt"
                  fill="none" x1="44.088" x2="44.088" y1="123.3425"
                  stroke-linejoin="bevel" y2="239.9528" stroke-width="0.8504"/>
            <path d="M44.5132 123.3425 L46 123.3425 L46 124.1929 L44.5132 124.1929 Z"
                  stroke="none"/>
            <text x="17.3959" xml:space="preserve" y="118.1693" stroke="none">NT1.1</text><line stroke-linecap="butt"
                  fill="none" x1="45.6456" x2="45.6456" y1="91.7717"
                  stroke-linejoin="bevel" y2="155.7638" stroke-width="0.8504"/>
            <path d="M46.0708 91.7717 L47 91.7717 L47 92.622 L46.0708 92.622 Z"
                  stroke="none"/>
            <text x="17.7052" xml:space="preserve" y="86.5984" stroke="none">NT1.2</text><line stroke-linecap="butt"
                  fill="none" x1="47.2896" x2="47.2896" y1="56.6929"
                  stroke-linejoin="bevel" y2="127.7008" stroke-width="0.8504"/>
            <path d="M47.7148 56.6929 L48 56.6929 L48 57.5433 L47.7148 57.5433 Z"
                  stroke="none"/>
            <text x="18.5045" xml:space="preserve" y="51.5197" stroke="none">NT1.3</text><line stroke-linecap="butt"
                  fill="none" x1="48.1549" x2="48.1549" y1="28.6299"
                  stroke-linejoin="bevel" y2="85.6063" stroke-width="0.8504"/>
            <path d="M48.5801 28.6299 L76 28.6299 L76 29.4803 L48.5801 29.4803 Z"
                  stroke="none"/>
            <text x="40.5202" xml:space="preserve" y="23.4567" stroke="none">NT1.19</text><line stroke-linecap="butt"
                  fill="none" x1="76.1043" x2="76.1043" y1="14.5984"
                  stroke-linejoin="bevel" y2="43.5118" stroke-width="0.8504"/>
            <path d="M76.5295 14.5984 L89.2644 14.5984 L89.2644 15.4488 L76.5295 15.4488 Z"
                  stroke="none"/>
            <text x="92.099" xml:space="preserve" font-size="14" y="19.5197"
                  stroke="none">AY167820</text><path d="M76.5295 42.6614 L92 42.6614 L92 43.5118 L76.5295 43.5118 Z"
                  stroke="none"/>
            <text x="55.883" xml:space="preserve" y="37.4882" stroke="none">NT1.25</text><line stroke-linecap="butt"
                  fill="none" x1="91.5067" x2="91.5067" y1="33.3071"
                  stroke-linejoin="bevel" y2="52.8661" stroke-width="0.8504"/>
            <path d="M91.9319 33.3071 L91.168 33.3071 L91.168 34.1575 L91.9319 34.1575 Z"
                  stroke="none"/>
            <text x="94.0027" xml:space="preserve" font-size="14" y="38.2283"
                  stroke="none"></text>
            <path d="M91.9319 52.0158 L91.168 52.0158 L91.168 52.8661 L91.9319 52.8661 Z"
                  stroke="none"/>
            <text x="94.0027" xml:space="preserve" font-size="14" y="56.937"
                  stroke="none">AM411529</text><path d="M48.5801 84.7559 L60 84.7559 L60 85.6063 L48.5801 85.6063 Z"
                  stroke="none"/>
            <text x="30.519" xml:space="preserve" y="79.5827" stroke="none">NT1.8</text><line stroke-linecap="butt"
                  fill="none" x1="60.1827" x2="60.1827" y1="70.7244"
                  stroke-linejoin="bevel" y2="99.6378" stroke-width="0.8504"/>
            <path d="M60.6079 70.7244 L78.9672 70.7244 L78.9672 71.5748 L60.6079 71.5748 Z"
                  stroke="none"/>
            <text x="81.8019" xml:space="preserve" font-size="14" y="75.6457"
                  stroke="none">D78466</text><path d="M60.6079 98.7874 L64 98.7874 L64 99.6378 L60.6079 99.6378 Z"
                  stroke="none"/>
            <text x="34.2398" xml:space="preserve" y="93.6142" stroke="none">NT1.9</text><line stroke-linecap="butt"
                  fill="none" x1="63.9035" x2="63.9035" y1="89.4331"
                  stroke-linejoin="bevel" y2="108.9921" stroke-width="0.8504"/>
            <path d="M64.3287 89.4331 L68.8432 89.4331 L68.8432 90.2835 L64.3287 90.2835 Z"
                  stroke="none"/>
            <text x="71.6778" xml:space="preserve" font-size="14" y="94.3543"
                  stroke="none"></text>
            <path d="M64.3287 108.1417 L78.5346 108.1417 L78.5346 108.9921 L64.3287 108.9921 Z"
                  stroke="none"/>
            <text x="81.3692" xml:space="preserve" font-size="14" y="113.063"
                  stroke="none"></text>
            <path d="M47.7148 126.8504 L74.9003 126.8504 L74.9003 127.7008 L47.7148 127.7008 Z"
                  stroke="none"/>
            <text x="77.735" xml:space="preserve" font-size="14" y="131.7717"
                  stroke="none">AY598818</text><path d="M46.0708 154.9134 L52 154.9134 L52 155.7638 L46.0708 155.7638 Z"
                  stroke="none"/>
            <text x="22.4248" xml:space="preserve" y="149.7402" stroke="none">NT1.4</text><line stroke-linecap="butt"
                  fill="none" x1="52.0488" x2="52.0488" y1="145.5591"
                  stroke-linejoin="bevel" y2="165.1181" stroke-width="0.8504"/>
            <path d="M52.474 145.5591 L66.3338 145.5591 L66.3338 146.4095 L52.474 146.4095 Z"
                  stroke="none"/>
            <text x="69.1685" xml:space="preserve" font-size="14" y="150.4803"
                  stroke="none">AF537343</text><path d="M52.474 164.2677 L70.9199 164.2677 L70.9199 165.1181 L52.474 165.1181 Z"
                  stroke="none"/>
            <text x="73.7546" xml:space="preserve" font-size="14" y="169.189"
                  stroke="none"></text>
            <path d="M44.5132 239.1024 L53 239.1024 L53 239.9528 L44.5132 239.9528 Z"
                  stroke="none"/>
            <text x="22.8647" xml:space="preserve" y="233.9291" stroke="none">NT1.5</text><line stroke-linecap="butt"
                  fill="none" x1="52.568" x2="52.568" y1="211.0394"
                  stroke-linejoin="bevel" y2="268.0158" stroke-width="0.8504"/>
            <path d="M52.9932 211.0394 L57 211.0394 L57 211.8898 L52.9932 211.8898 Z"
                  stroke="none"/>
            <text x="27.4171" xml:space="preserve" y="205.8662" stroke="none">NT1.6</text><line stroke-linecap="butt"
                  fill="none" x1="57.0676" x2="57.0676" y1="192.3307"
                  stroke-linejoin="bevel" y2="230.5984" stroke-width="0.8504"/>
            <path d="M57.4928 192.3307 L65 192.3307 L65 193.1811 L57.4928 193.1811 Z"
                  stroke="none"/>
            <text x="29.484" xml:space="preserve" y="187.1575" stroke="none">NT1.10</text><line stroke-linecap="butt"
                  fill="none" x1="65.0284" x2="65.0284" y1="182.9764"
                  stroke-linejoin="bevel" y2="202.5355" stroke-width="0.8504"/>
            <path d="M65.4536 182.9764 L81.9958 182.9764 L81.9958 183.8268 L65.4536 183.8268 Z"
                  stroke="none"/>
            <text x="84.8305" xml:space="preserve" font-size="14" y="187.8977"
                  stroke="none"></text>
            <path d="M65.4536 201.6851 L91.1681 201.6851 L91.1681 202.5355 L65.4536 202.5355 Z"
                  stroke="none"/>
            <text x="94.0027" xml:space="preserve" font-size="14" y="206.6063"
                  stroke="none"></text>
            <path d="M57.4928 229.748 L60 229.748 L60 230.5984 L57.4928 230.5984 Z"
                  stroke="none"/>
            <text x="29.9265" xml:space="preserve" y="224.5748" stroke="none">NT1.7</text><line stroke-linecap="butt"
                  fill="none" x1="59.577" x2="59.577" y1="220.3937"
                  stroke-linejoin="bevel" y2="239.9528" stroke-width="0.8504"/>
            <path d="M60.0022 220.3937 L73.9485 220.3937 L73.9485 221.2441 L60.0022 221.2441 Z"
                  stroke="none"/>
            <text x="76.7831" xml:space="preserve" font-size="14" y="225.315"
                  stroke="none">AJ345020</text><path d="M60.0022 239.1024 L80.4383 239.1024 L80.4383 239.9528 L60.0022 239.9528 Z"
                  stroke="none"/>
            <text x="83.2729" xml:space="preserve" font-size="14" y="244.0237"
                  stroke="none">AY960748</text><path d="M52.9932 267.1654 L66 267.1654 L66 268.0158 L52.9932 268.0158 Z"
                  stroke="none"/>
            <text x="31.8967" xml:space="preserve" y="261.9921" stroke="none">NT1.11</text><line stroke-linecap="butt"
                  fill="none" x1="66.0667" x2="66.0667" y1="257.811"
                  stroke-linejoin="bevel" y2="277.3701" stroke-width="0.8504"/>
            <path d="M66.4919 257.811 L74.3811 257.811 L74.3811 258.6614 L66.4919 258.6614 Z"
                  stroke="none"/>
            <text x="77.2158" xml:space="preserve" font-size="14" y="262.7323"
                  stroke="none">AY839868</text><path d="M66.4919 276.5197 L72.3909 276.5197 L72.3909 277.3701 L66.4919 277.3701 Z"
                  stroke="none"/>
            <text x="75.2256" xml:space="preserve" font-size="14" y="281.441"
                  stroke="none">ABO42938</text>
        </g>
    </g>
</svg>
