<?xml version="1.0"?>
<!DOCTYPE svg PUBLIC '-//W3C//DTD SVG 1.0//EN'
    'http://www.w3.org/TR/2001/REC-SVG-20010904/DTD/svg10.dtd' >

<svg fill-opacity="1" xmlns:xlink="http://www.w3.org/1999/xlink"
     color-rendering="auto" color-interpolation="auto" stroke="black"
     text-rendering="auto" stroke-linecap="square" stroke-miterlimit="10"
     stroke-opacity="1" shape-rendering="auto" fill="black"
     stroke-dasharray="none" font-weight="normal" stroke-width="1"
     xmlns="http://www.w3.org/2000/svg" font-family="&apos;Dialog&apos;"
     font-style="normal" stroke-linejoin="miter" font-size="12"
     stroke-dashoffset="0" image-rendering="auto">
    <!--Generated by the Batik Graphics2D SVG Generator-->
    <defs id="genericDefs"/>
    <g>
        <g fill="white" stroke="white">
            <rect x="0" width="114" height="636" y="0" stroke="none"/>
            <path fill="black"
                  d="M5 248.759 L18 248.759 L18 249.6094 L5 249.6094 Z"
                  stroke="none"/>
            <circle fill="black" r="1.2756" cx="17.4331" cy="248.759"
                    stroke="none"/>
            <path fill="black"
                  d="M17.8583 247.9086 L39 247.9086 L39 248.759 L17.8583 248.759 Z"
                  stroke="none"/>
        </g>
        <g font-family="&apos;Arial&apos;" font-size="9">
            <text x="9.3125" xml:space="preserve" y="242.7354" stroke="none">NT1.2</text><line stroke-linecap="butt"
                  fill="none" x1="38.8969" x2="38.8969" y1="95.2795"
                  stroke-linejoin="bevel" y2="401.3881" stroke-width="0.8504"/>
            <path d="M39.3221 95.2795 L42 95.2795 L42 96.1299 L39.3221 96.1299 Z"
                  stroke="none"/>
            <text x="11.9088" xml:space="preserve" y="90.1063" stroke="none">NT1.4</text><line stroke-linecap="butt"
                  fill="none" x1="41.5328" x2="41.5328" y1="59.0315"
                  stroke-linejoin="bevel" y2="132.378" stroke-width="0.8504"/>
            <path d="M41.958 59.0315 L55 59.0315 L55 59.8819 L41.958 59.8819 Z"
                  stroke="none"/>
            <text x="19.3562" xml:space="preserve" y="53.8583" stroke="none">NT1.10</text><line stroke-linecap="butt"
                  fill="none" x1="54.9006" x2="54.9006" y1="37.9843"
                  stroke-linejoin="bevel" y2="80.9291" stroke-width="0.8504"/>
            <path d="M55.3258 37.9843 L57 37.9843 L57 38.8347 L55.3258 38.8347 Z"
                  stroke="none"/>
            <text x="21.6552" xml:space="preserve" y="32.811" stroke="none">NT1.12</text><line stroke-linecap="butt"
                  fill="none" x1="57.16" x2="57.16" y1="23.9528"
                  stroke-linejoin="bevel" y2="52.8661" stroke-width="0.8504"/>
            <path d="M57.5852 23.9528 L59 23.9528 L59 24.8032 L57.5852 24.8032 Z"
                  stroke="none"/>
            <text x="23.6602" xml:space="preserve" y="18.7795" stroke="none">NT1.16</text><line stroke-linecap="butt"
                  fill="none" x1="59.2311" x2="59.2311" y1="14.5984"
                  stroke-linejoin="bevel" y2="34.1575" stroke-width="0.8504"/>
            <path d="M59.6563 14.5984 L72.9268 14.5984 L72.9268 15.4488 L59.6563 15.4488 Z"
                  stroke="none"/>
            <text x="75.7614" xml:space="preserve" font-size="14" y="19.5197"
                  stroke="none"></text>
            <path d="M59.6563 33.3071 L73.8682 33.3071 L73.8682 34.1575 L59.6563 34.1575 Z"
                  stroke="none"/>
            <text x="76.7029" xml:space="preserve" font-size="14" y="38.2284"
                  stroke="none"></text>
            <path d="M57.5852 52.0158 L74.433 52.0158 L74.433 52.8662 L57.5852 52.8662 Z"
                  stroke="none"/>
            <text x="77.2677" xml:space="preserve" font-size="14" y="56.937"
                  stroke="none"></text>
            <path d="M55.3258 80.0788 L71 80.0788 L71 80.9291 L55.3258 80.9291 Z"
                  stroke="none"/>
            <text x="35.0924" xml:space="preserve" y="74.9055" stroke="none">NT1.25</text><line stroke-linecap="butt"
                  fill="none" x1="70.7161" x2="70.7161" y1="70.7244"
                  stroke-linejoin="bevel" y2="90.2835" stroke-width="0.8504"/>
            <path d="M71.1413 70.7244 L70.4792 70.7244 L70.4792 71.5748 L71.1413 71.5748 Z"
                  stroke="none"/>
            <text x="73.3138" xml:space="preserve" font-size="14" y="75.6457"
                  stroke="none"></text>
            <path d="M71.1413 89.4331 L73.6799 89.4331 L73.6799 90.2835 L71.1413 90.2835 Z"
                  stroke="none"/>
            <text x="76.5145" xml:space="preserve" font-size="14" y="94.3543"
                  stroke="none"></text>
            <path d="M41.958 131.5276 L43 131.5276 L43 132.378 L41.958 132.378 Z"
                  stroke="none"/>
            <text x="12.7709" xml:space="preserve" y="126.3543" stroke="none">NT1.5</text><line stroke-linecap="butt"
                  fill="none" x1="42.4742" x2="42.4742" y1="117.4961"
                  stroke-linejoin="bevel" y2="146.4095" stroke-width="0.8504"/>
            <path d="M42.8994 117.4961 L51 117.4961 L51 118.3465 L42.8994 118.3465 Z"
                  stroke="none"/>
            <text x="21.0948" xml:space="preserve" y="112.3229" stroke="none">NT1.8</text><line stroke-linecap="butt"
                  fill="none" x1="50.7584" x2="50.7584" y1="108.1418"
                  stroke-linejoin="bevel" y2="127.7008" stroke-width="0.8504"/>
            <path d="M51.1836 108.1418 L74.433 108.1418 L74.433 108.9921 L51.1836 108.9921 Z"
                  stroke="none"/>
            <text x="77.2676" xml:space="preserve" font-size="14" y="113.063"
                  stroke="none"></text>
            <path d="M51.1836 126.8504 L78.3868 126.8504 L78.3868 127.7008 L51.1836 127.7008 Z"
                  stroke="none"/>
            <text x="81.2215" xml:space="preserve" font-size="14" y="131.7717"
                  stroke="none"></text>
            <path d="M42.8994 145.5591 L80.4579 145.5591 L80.4579 146.4095 L42.8994 146.4095 Z"
                  stroke="none"/>
            <text x="83.2925" xml:space="preserve" font-size="14" y="150.4803"
                  stroke="none"></text>
            <path d="M39.3221 400.5377 L40 400.5377 L40 401.3881 L39.3221 401.3881 Z"
                  stroke="none"/>
            <text x="10.7527" xml:space="preserve" y="395.3645" stroke="none">NT1.3</text><line stroke-linecap="butt"
                  fill="none" x1="40.4031" x2="40.4031" y1="243.9257"
                  stroke-linejoin="bevel" y2="558.0001" stroke-width="0.8504"/>
            <path d="M40.8283 243.9257 L48 243.9257 L48 244.7761 L40.8283 244.7761 Z"
                  stroke="none"/>
            <text x="18.6604" xml:space="preserve" y="238.7525" stroke="none">NT1.7</text><line stroke-linecap="butt"
                  fill="none" x1="48.3108" x2="48.3108" y1="187.6536"
                  stroke-linejoin="bevel" y2="301.0482" stroke-width="0.8504"/>
            <path d="M48.736 187.6536 L53 187.6536 L53 188.504 L48.736 188.504 Z"
                  stroke="none"/>
            <text x="23.5424" xml:space="preserve" y="182.4803" stroke="none">NT1.9</text><line stroke-linecap="butt"
                  fill="none" x1="53.2061" x2="53.2061" y1="173.6221"
                  stroke-linejoin="bevel" y2="202.5354" stroke-width="0.8504"/>
            <path d="M53.6313 173.6221 L64 173.6221 L64 174.4725 L53.6313 174.4725 Z"
                  stroke="none"/>
            <text x="29.9562" xml:space="preserve" y="168.4488" stroke="none">NT1.21</text><line stroke-linecap="butt"
                  fill="none" x1="64.1263" x2="64.1263" y1="164.2677"
                  stroke-linejoin="bevel" y2="183.8268" stroke-width="0.8504"/>
            <path d="M64.5515 164.2677 L86.6711 164.2677 L86.6711 165.1181 L64.5515 165.1181 Z"
                  stroke="none"/>
            <text x="89.5058" xml:space="preserve" font-size="14" y="169.189"
                  stroke="none"></text>
            <path d="M64.5515 182.9764 L93.0726 182.9764 L93.0726 183.8268 L64.5515 183.8268 Z"
                  stroke="none"/>
            <text x="95.9073" xml:space="preserve" font-size="14" y="187.8976"
                  stroke="none"></text>
            <path d="M53.6313 201.685 L101.7335 201.685 L101.7335 202.5354 L53.6313 202.5354 Z"
                  stroke="none"/>
            <text x="104.5681" xml:space="preserve" font-size="14" y="206.6063"
                  stroke="none"></text>
            <path d="M48.736 300.1978 L57 300.1978 L57 301.0482 L48.736 301.0482 Z"
                  stroke="none"/>
            <text x="21.7774" xml:space="preserve" y="295.0246" stroke="none">NT1.13</text><line stroke-linecap="butt"
                  fill="none" x1="57.3482" x2="57.3482" y1="260.1496"
                  stroke-linejoin="bevel" y2="341.0965" stroke-width="0.8504"/>
            <path d="M57.7734 260.1496 L68 260.1496 L68 261 L57.7734 261 Z"
                  stroke="none"/>
            <text x="32.724" xml:space="preserve" y="254.9764" stroke="none">NT1.24</text><line stroke-linecap="butt"
                  fill="none" x1="68.2684" x2="68.2684" y1="243.7796"
                  stroke-linejoin="bevel" y2="277.3701" stroke-width="0.8504"/>
            <path d="M68.6936 243.7796 L75 243.7796 L75 244.63 L68.6936 244.63 Z"
                  stroke="none"/>
            <text x="39.839" xml:space="preserve" y="238.6063" stroke="none">NT1.39</text><line stroke-linecap="butt"
                  fill="none" x1="75.423" x2="75.423" y1="229.748"
                  stroke-linejoin="bevel" y2="258.6614" stroke-width="0.8504"/>
            <path d="M75.8483 229.748 L77 229.748 L77 230.5984 L75.8483 230.5984 Z"
                  stroke="none"/>
            <text x="41.7614" xml:space="preserve" y="224.5748" stroke="none">NT1.44</text><line stroke-linecap="butt"
                  fill="none" x1="77.3058" x2="77.3058" y1="220.3937"
                  stroke-linejoin="bevel" y2="239.9528" stroke-width="0.8504"/>
            <path d="M77.731 220.3937 L76.6924 220.3937 L76.6924 221.2441 L77.731 221.2441 Z"
                  stroke="none"/>
            <text x="79.527" xml:space="preserve" font-size="14" y="225.315"
                  stroke="none"></text>
            <path d="M77.731 239.1024 L81.0228 239.1024 L81.0228 239.9528 L77.731 239.9528 Z"
                  stroke="none"/>
            <text x="83.8574" xml:space="preserve" font-size="14" y="244.0237"
                  stroke="none"></text>
            <path d="M75.8483 257.811 L77.4455 257.811 L77.4455 258.6614 L75.8483 258.6614 Z"
                  stroke="none"/>
            <text x="80.2801" xml:space="preserve" font-size="14" y="262.7323"
                  stroke="none"></text>
            <path d="M68.6936 276.5197 L79.3282 276.5197 L79.3282 277.3701 L68.6936 277.3701 Z"
                  stroke="none"/>
            <text x="82.1629" xml:space="preserve" font-size="14" y="281.441"
                  stroke="none"></text>
            <path d="M57.7734 340.2461 L64 340.2461 L64 341.0965 L57.7734 341.0965 Z"
                  stroke="none"/>
            <text x="28.1656" xml:space="preserve" y="335.0728" stroke="none">NT1.19</text><line stroke-linecap="butt"
                  fill="none" x1="63.7497" x2="63.7497" y1="304.5827"
                  stroke-linejoin="bevel" y2="376.7598" stroke-width="0.8504"/>
            <path d="M64.1749 304.5827 L66 304.5827 L66 305.4331 L64.1749 305.4331 Z"
                  stroke="none"/>
            <text x="30.316" xml:space="preserve" y="299.4095" stroke="none">NT1.22</text><line stroke-linecap="butt"
                  fill="none" x1="65.8208" x2="65.8208" y1="295.2284"
                  stroke-linejoin="bevel" y2="314.7874" stroke-width="0.8504"/>
            <path d="M66.246 295.2284 L77.822 295.2284 L77.822 296.0788 L66.246 296.0788 Z"
                  stroke="none"/>
            <text x="80.6567" xml:space="preserve" font-size="14" y="300.1496"
                  stroke="none"></text>
            <path d="M66.246 313.937 L81.7759 313.937 L81.7759 314.7874 L66.246 314.7874 Z"
                  stroke="none"/>
            <text x="84.6105" xml:space="preserve" font-size="14" y="318.8583"
                  stroke="none"></text>
            <path d="M64.1749 375.9095 L67 375.9095 L67 376.7599 L64.1749 376.7599 Z"
                  stroke="none"/>
            <text x="31.1913" xml:space="preserve" y="370.7362" stroke="none">NT1.23</text><line stroke-linecap="butt"
                  fill="none" x1="66.7622" x2="66.7622" y1="342"
                  stroke-linejoin="bevel" y2="410.6693" stroke-width="0.8504"/>
            <path d="M67.1874 342 L72 342 L72 342.8504 L67.1874 342.8504 Z"
                  stroke="none"/>
            <text x="37.864" xml:space="preserve" y="336.8268" stroke="none">NT1.31</text><line stroke-linecap="butt"
                  fill="none" x1="72.034" x2="72.034" y1="332.6457"
                  stroke-linejoin="bevel" y2="352.2047" stroke-width="0.8504"/>
            <path d="M72.4592 332.6457 L71.6088 332.6457 L71.6088 333.4961 L72.4592 333.4961 Z"
                  stroke="none"/>
            <text x="74.4435" xml:space="preserve" font-size="14" y="337.5669"
                  stroke="none"></text>
            <path d="M72.4592 351.3543 L82.9056 351.3543 L82.9056 352.2047 L72.4592 352.2047 Z"
                  stroke="none"/>
            <text x="85.7402" xml:space="preserve" font-size="14" y="356.2756"
                  stroke="none"></text>
            <path d="M67.1874 409.8189 L71 409.8189 L71 410.6693 L67.1874 410.6693 Z"
                  stroke="none"/>
            <text x="35.5218" xml:space="preserve" y="404.6457" stroke="none">NT1.27</text><line stroke-linecap="butt"
                  fill="none" x1="71.0926" x2="71.0926" y1="393.4488"
                  stroke-linejoin="bevel" y2="427.0394" stroke-width="0.8504"/>
            <path d="M71.5178 393.4489 L76 393.4489 L76 394.2993 L71.5178 394.2993 Z"
                  stroke="none"/>
            <text x="40.2552" xml:space="preserve" y="388.2756" stroke="none">NT1.40</text><line stroke-linecap="butt"
                  fill="none" x1="75.7996" x2="75.7996" y1="379.4173"
                  stroke-linejoin="bevel" y2="408.3307" stroke-width="0.8504"/>
            <path d="M76.2248 379.4174 L76 379.4174 L76 380.2678 L76.2248 380.2678 Z"
                  stroke="none"/>
            <text x="40.8597" xml:space="preserve" y="374.2441" stroke="none">NT1.42</text><line stroke-linecap="butt"
                  fill="none" x1="76.3644" x2="76.3644" y1="370.063"
                  stroke-linejoin="bevel" y2="389.622" stroke-width="0.8504"/>
            <path d="M76.7896 370.063 L75.751 370.063 L75.751 370.9134 L76.7896 370.9134 Z"
                  stroke="none"/>
            <text x="78.5856" xml:space="preserve" font-size="14" y="374.9843"
                  stroke="none"></text>
            <path d="M76.7896 388.7717 L77.4455 388.7717 L77.4455 389.6221 L76.7896 389.6221 Z"
                  stroke="none"/>
            <text x="80.2801" xml:space="preserve" font-size="14" y="393.6929"
                  stroke="none"></text>
            <path d="M76.2248 407.4804 L81.3993 407.4804 L81.3993 408.3308 L76.2248 408.3308 Z"
                  stroke="none"/>
            <text x="84.234" xml:space="preserve" font-size="14" y="412.4016"
                  stroke="none"></text>
            <path d="M71.5178 426.189 L80.6462 426.189 L80.6462 427.0394 L71.5178 427.0394 Z"
                  stroke="none"/>
            <text x="83.4809" xml:space="preserve" font-size="14" y="431.1103"
                  stroke="none"></text>
            <path d="M40 454.2521 L45 454.2521 L45 455.1025 L40 455.1025 Z"
                  stroke="none"/>
            <text x="15.4596" xml:space="preserve" y="449.0788" stroke="none">NT1.6</text><line stroke-linecap="butt"
                  fill="none" x1="45.1101" x2="45.1101" y1="444.8977"
                  stroke-linejoin="bevel" y2="464.4568" stroke-width="0.8504"/>
            <path d="M45.5353 444.8977 L84.0352 444.8977 L84.0352 445.7481 L45.5353 445.7481 Z"
                  stroke="none"/>
            <text x="86.8699" xml:space="preserve" font-size="14" y="449.819"
                  stroke="none"></text>
            <path d="M45.5353 463.6064 L77.2572 463.6064 L77.2572 464.4568 L45.5353 464.4568 Z"
                  stroke="none"/>
            <text x="80.0918" xml:space="preserve" font-size="14" y="468.5276"
                  stroke="none"></text>
            <path d="M40 491.6694 L64 491.6694 L64 492.5198 L40 492.5198 Z"
                  stroke="none"/>
            <text x="28.2053" xml:space="preserve" y="486.4962" stroke="none">NT1.20</text><line stroke-linecap="butt"
                  fill="none" x1="63.7497" x2="63.7497" y1="482.3151"
                  stroke-linejoin="bevel" y2="501.8741" stroke-width="0.8504"/>
            <path d="M64.1749 482.3151 L72.3619 482.3151 L72.3619 483.1655 L64.1749 483.1655 Z"
                  stroke="none"/>
            <text x="75.1966" xml:space="preserve" font-size="14" y="487.2363"
                  stroke="none"></text>
            <path d="M64.1749 501.0238 L73.6799 501.0238 L73.6799 501.8742 L64.1749 501.8742 Z"
                  stroke="none"/>
            <text x="76.5145" xml:space="preserve" font-size="14" y="505.945"
                  stroke="none"></text>
            <path d="M40.8283 557.1498 L55 557.1498 L55 558.0001 L40.8283 558.0001 Z"
                  stroke="none"/>
            <text x="21.1071" xml:space="preserve" y="551.9765" stroke="none">NT1.11</text><line stroke-linecap="butt"
                  fill="none" x1="55.2772" x2="55.2772" y1="529.0868"
                  stroke-linejoin="bevel" y2="586.0632" stroke-width="0.8504"/>
            <path d="M55.7024 529.0868 L58 529.0868 L58 529.9371 L55.7024 529.9371 Z"
                  stroke="none"/>
            <text x="22.4777" xml:space="preserve" y="523.9136" stroke="none">NT1.15</text><line stroke-linecap="butt"
                  fill="none" x1="58.1014" x2="58.1014" y1="519.7325"
                  stroke-linejoin="bevel" y2="539.2916" stroke-width="0.8504"/>
            <path d="M58.5266 519.7324 L77.2572 519.7324 L77.2572 520.5828 L58.5266 520.5828 Z"
                  stroke="none"/>
            <text x="80.0919" xml:space="preserve" font-size="14" y="524.6537"
                  stroke="none"></text>
            <path d="M58.5266 538.4411 L78.1986 538.4411 L78.1986 539.2914 L58.5266 539.2914 Z"
                  stroke="none"/>
            <text x="81.0332" xml:space="preserve" font-size="14" y="543.3624"
                  stroke="none"></text>
            <path d="M55.7024 585.2128 L58 585.2128 L58 586.0631 L55.7024 586.0631 Z"
                  stroke="none"/>
            <text x="22.3687" xml:space="preserve" y="580.0396" stroke="none">NT1.14</text><line stroke-linecap="butt"
                  fill="none" x1="57.9131" x2="57.9131" y1="566.5042"
                  stroke-linejoin="bevel" y2="604.7719" stroke-width="0.8504"/>
            <path d="M58.3383 566.5042 L59 566.5042 L59 567.3545 L58.3383 567.3545 Z"
                  stroke="none"/>
            <text x="23.6602" xml:space="preserve" y="561.3309" stroke="none">NT1.17</text><line stroke-linecap="butt"
                  fill="none" x1="59.231" x2="59.231" y1="557.1498"
                  stroke-linejoin="bevel" y2="576.7089" stroke-width="0.8504"/>
            <path d="M59.6562 557.1498 L71.6088 557.1498 L71.6088 558.0001 L59.6562 558.0001 Z"
                  stroke="none"/>
            <text x="74.4435" xml:space="preserve" font-size="14" y="562.071"
                  stroke="none"></text>
            <path d="M59.6562 575.8585 L71.6088 575.8585 L71.6088 576.7088 L59.6562 576.7088 Z"
                  stroke="none"/>
            <text x="74.4435" xml:space="preserve" font-size="14" y="580.7797"
                  stroke="none"></text>
            <path d="M58.3383 603.9215 L62 603.9215 L62 604.7719 L58.3383 604.7719 Z"
                  stroke="none"/>
            <text x="26.6594" xml:space="preserve" y="598.7483" stroke="none">NT1.18</text><line stroke-linecap="butt"
                  fill="none" x1="62.2435" x2="62.2435" y1="594.5672"
                  stroke-linejoin="bevel" y2="614.1263" stroke-width="0.8504"/>
            <path d="M62.6687 594.5671 L80.4579 594.5671 L80.4579 595.4175 L62.6687 595.4175 Z"
                  stroke="none"/>
            <text x="83.2925" xml:space="preserve" font-size="14" y="599.4884"
                  stroke="none"></text>
            <path d="M62.6687 613.2758 L81.3993 613.2758 L81.3993 614.1262 L62.6687 614.1262 Z"
                  stroke="none"/>
            <text x="84.234" xml:space="preserve" font-size="14" y="618.1971"
                  stroke="none"></text>
        </g>
    </g>
</svg>
