<?xml version="1.0"?>
<!DOCTYPE svg PUBLIC '-//W3C//DTD SVG 1.0//EN'
    'http://www.w3.org/TR/2001/REC-SVG-20010904/DTD/svg10.dtd' >

<svg fill-opacity="1" xmlns:xlink="http://www.w3.org/1999/xlink"
     color-rendering="auto" color-interpolation="auto" stroke="black"
     text-rendering="auto" stroke-linecap="square" stroke-miterlimit="10"
     stroke-opacity="1" shape-rendering="auto" fill="black"
     stroke-dasharray="none" font-weight="normal" stroke-width="1"
     xmlns="http://www.w3.org/2000/svg" font-family="&apos;Dialog&apos;"
     font-style="normal" stroke-linejoin="miter" font-size="12"
     stroke-dashoffset="0" image-rendering="auto">
    <!--Generated by the Batik Graphics2D SVG Generator-->
    <defs id="genericDefs"/>
    <g>
        <g fill="white" stroke="white">
            <rect x="0" width="173" height="242" y="0" stroke="none"/>
            <path fill="black"
                  d="M5 79.0423 L44 79.0423 L44 79.8927 L5 79.8927 Z"
                  stroke="none"/>
        </g>
        <g font-family="&apos;Arial&apos;" font-size="9">
            <text x="8.5039" xml:space="preserve" y="73.8691" stroke="none">NT1.23</text><line stroke-linecap="butt"
                  fill="none" x1="44.0748" x2="44.0748" y1="14.5984"
                  stroke-linejoin="bevel" y2="143.4862" stroke-width="0.8504"/>
            <path d="M44.5 14.5984 L92.462 14.5984 L92.462 15.4488 L44.5 15.4488 Z"
                  stroke="none"/>
            <text x="95.2967" xml:space="preserve" font-size="14" y="19.5197"
                  stroke="none"></text>
            <path d="M44.5 142.6358 L58 142.6358 L58 143.4862 L44.5 143.4862 Z"
                  stroke="none"/>
            <text x="30.0413" xml:space="preserve" y="137.4626" stroke="none">NT1.1</text><line stroke-linecap="butt"
                  fill="none" x1="58.2909" x2="58.2909" y1="104.6339"
                  stroke-linejoin="bevel" y2="181.4882" stroke-width="0.8504"/>
            <path d="M58.7161 104.6339 L66 104.6339 L66 105.4842 L58.7161 105.4842 Z"
                  stroke="none"/>
            <text x="35.9733" xml:space="preserve" y="99.4606" stroke="none">NT1.5</text><line stroke-linecap="butt"
                  fill="none" x1="65.6767" x2="65.6767" y1="73.063"
                  stroke-linejoin="bevel" y2="137.0551" stroke-width="0.8504"/>
            <path d="M66.1019 73.063 L68 73.063 L68 73.9134 L66.1019 73.9134 Z"
                  stroke="none"/>
            <text x="38.4696" xml:space="preserve" y="67.8898" stroke="none">NT1.6</text><line stroke-linecap="butt"
                  fill="none" x1="68.12" x2="68.12" y1="47.3386"
                  stroke-linejoin="bevel" y2="99.6378" stroke-width="0.8504"/>
            <path d="M68.5452 47.3386 L74 47.3386 L74 48.189 L68.5452 48.189 Z"
                  stroke="none"/>
            <text x="44.5649" xml:space="preserve" y="42.1654" stroke="none">NT1.8</text><line stroke-linecap="butt"
                  fill="none" x1="74.2285" x2="74.2285" y1="33.3071"
                  stroke-linejoin="bevel" y2="62.2205" stroke-width="0.8504"/>
            <path d="M74.6537 33.3071 L88.5748 33.3071 L88.5748 34.1575 L74.6537 34.1575 Z"
                  stroke="none"/>
            <text x="91.4095" xml:space="preserve" font-size="14" y="38.2283"
                  stroke="none">X83810</text><path d="M74.6537 61.3701 L87 61.3701 L87 62.2205 L74.6537 62.2205 Z"
                  stroke="none"/>
            <text x="51.43" xml:space="preserve" y="56.1968" stroke="none">NT1.16</text><line stroke-linecap="butt"
                  fill="none" x1="87.0008" x2="87.0008" y1="52.0157"
                  stroke-linejoin="bevel" y2="71.5748" stroke-width="0.8504"/>
            <path d="M87.4261 52.0158 L86.6312 52.0158 L86.6312 52.8661 L87.4261 52.8661 Z"
                  stroke="none"/>
            <text x="89.4658" xml:space="preserve" font-size="14" y="56.937"
                  stroke="none"></text>
            <path d="M87.4261 70.7244 L91.9067 70.7244 L91.9067 71.5748 L87.4261 71.5748 Z"
                  stroke="none"/>
            <text x="94.7414" xml:space="preserve" font-size="14" y="75.6457"
                  stroke="none">X91030</text><path d="M68.5452 98.7874 L77 98.7874 L77 99.6378 L68.5452 99.6378 Z"
                  stroke="none"/>
            <text x="42.4464" xml:space="preserve" y="93.6142" stroke="none">NT1.11</text><line stroke-linecap="butt"
                  fill="none" x1="76.6164" x2="76.6164" y1="89.4331"
                  stroke-linejoin="bevel" y2="108.9921" stroke-width="0.8504"/>
            <path d="M77.0416 89.4331 L85.0208 89.4331 L85.0208 90.2835 L77.0416 90.2835 Z"
                  stroke="none"/>
            <text x="87.8554" xml:space="preserve" font-size="14" y="94.3543"
                  stroke="none">X91031</text><path d="M77.0416 108.1417 L88.2971 108.1417 L88.2971 108.9921 L77.0416 108.9921 Z"
                  stroke="none"/>
            <text x="91.1318" xml:space="preserve" font-size="14" y="113.063"
                  stroke="none"></text>
            <path d="M66.1019 136.2047 L69 136.2047 L69 137.0551 L66.1019 137.0551 Z"
                  stroke="none"/>
            <text x="38.9138" xml:space="preserve" y="131.0315" stroke="none">NT1.7</text><line stroke-linecap="butt"
                  fill="none" x1="68.5643" x2="68.5643" y1="126.8504"
                  stroke-linejoin="bevel" y2="146.4095" stroke-width="0.8504"/>
            <path d="M68.9895 126.8504 L75.9691 126.8504 L75.9691 127.7008 L68.9895 127.7008 Z"
                  stroke="none"/>
            <text x="78.8037" xml:space="preserve" font-size="14" y="131.7717"
                  stroke="none"></text>
            <path d="M68.9895 145.5591 L79.9674 145.5591 L79.9674 146.4095 L68.9895 146.4095 Z"
                  stroke="none"/>
            <text x="82.802" xml:space="preserve" font-size="14" y="150.4803"
                  stroke="none"></text>
            <path d="M58.7161 180.6378 L59 180.6378 L59 181.4882 L58.7161 181.4882 Z"
                  stroke="none"/>
            <text x="29.8172" xml:space="preserve" y="175.4646" stroke="none">NT1.2</text><line stroke-linecap="butt"
                  fill="none" x1="59.4016" x2="59.4016" y1="164.2677"
                  stroke-linejoin="bevel" y2="197.8583" stroke-width="0.8504"/>
            <path d="M59.8268 164.2677 L76.1357 164.2677 L76.1357 165.1181 L59.8268 165.1181 Z"
                  stroke="none"/>
            <text x="78.9703" xml:space="preserve" font-size="14" y="169.189"
                  stroke="none">AJ537574</text><path d="M59.8268 197.0079 L62 197.0079 L62 197.8583 L59.8268 197.8583 Z"
                  stroke="none"/>
            <text x="32.3056" xml:space="preserve" y="191.8347" stroke="none">NT1.3</text><line stroke-linecap="butt"
                  fill="none" x1="61.956" x2="61.956" y1="182.9764"
                  stroke-linejoin="bevel" y2="211.8898" stroke-width="0.8504"/>
            <path d="M62.3812 182.9764 L81.2446 182.9764 L81.2446 183.8268 L62.3812 183.8268 Z"
                  stroke="none"/>
            <text x="84.0793" xml:space="preserve" font-size="14" y="187.8976"
                  stroke="none"></text>
            <path d="M62.3812 211.0394 L64 211.0394 L64 211.8898 L62.3812 211.8898 Z"
                  stroke="none"/>
            <text x="33.8314" xml:space="preserve" y="205.8662" stroke="none">NT1.4</text><line stroke-linecap="butt"
                  fill="none" x1="63.4554" x2="63.4554" y1="201.6851"
                  stroke-linejoin="bevel" y2="221.2441" stroke-width="0.8504"/>
            <path d="M63.8806 201.6851 L77.1353 201.6851 L77.1353 202.5355 L63.8806 202.5355 Z"
                  stroke="none"/>
            <text x="79.9699" xml:space="preserve" font-size="14" y="206.6063"
                  stroke="none"></text>
            <path d="M63.8806 220.3938 L92.4621 220.3938 L92.4621 221.2442 L63.8806 221.2442 Z"
                  stroke="none"/>
            <text x="95.2967" xml:space="preserve" font-size="14" y="225.315"
                  stroke="none"></text>
        </g>
    </g>
</svg>
