<?xml version="1.0"?>
<!DOCTYPE svg PUBLIC '-//W3C//DTD SVG 1.0//EN'
    'http://www.w3.org/TR/2001/REC-SVG-20010904/DTD/svg10.dtd' >

<svg fill-opacity="1" xmlns:xlink="http://www.w3.org/1999/xlink"
     color-rendering="auto" color-interpolation="auto" stroke="black"
     text-rendering="auto" stroke-linecap="square" stroke-miterlimit="10"
     stroke-opacity="1" shape-rendering="auto" fill="black"
     stroke-dasharray="none" font-weight="normal" stroke-width="1"
     xmlns="http://www.w3.org/2000/svg" font-family="&apos;Dialog&apos;"
     font-style="normal" stroke-linejoin="miter" font-size="12"
     stroke-dashoffset="0" image-rendering="auto">
    <!--Generated by the Batik Graphics2D SVG Generator-->
    <defs id="genericDefs"/>
    <g>
        <g fill="white" stroke="white">
            <rect x="0" width="157" height="224" y="0" stroke="none"/>
            <path fill="black"
                  d="M5 83.7062 L18 83.7062 L18 84.5566 L5 84.5566 Z"
                  stroke="none"/>
            <circle fill="black" r="1.2756" cx="17.4331" cy="83.7062"
                    stroke="none"/>
            <path fill="black"
                  d="M17.8583 82.8558 L18 82.8558 L18 83.7062 L17.8583 83.7062 Z"
                  stroke="none"/>
        </g>
        <g font-family="&apos;Arial&apos;" font-size="9">
            <text x="-11.8813" xml:space="preserve" y="77.6826" stroke="none">NT1.2</text><line stroke-linecap="butt"
                  fill="none" x1="17.703" x2="17.703" y1="14.5984"
                  stroke-linejoin="bevel" y2="151.9636" stroke-width="0.8504"/>
            <path d="M18.1282 14.5984 L67.2216 14.5984 L67.2216 15.4488 L18.1282 15.4488 Z"
                  stroke="none"/>
            <text x="70.0562" xml:space="preserve" font-size="14" y="19.5197"
                  stroke="none"></text>
            <path d="M18.1282 151.1132 L23 151.1132 L23 151.9636 L18.1282 151.9636 Z"
                  stroke="none"/>
            <text x="-6.2781" xml:space="preserve" y="145.94" stroke="none">NT1.3</text><line stroke-linecap="butt"
                  fill="none" x1="23.3723" x2="23.3723" y1="109.8957"
                  stroke-linejoin="bevel" y2="193.1811" stroke-width="0.8504"/>
            <path d="M23.7975 109.8957 L29 109.8957 L29 110.7461 L23.7975 110.7461 Z"
                  stroke="none"/>
            <text x="-0.7174" xml:space="preserve" y="104.7225" stroke="none">NT1.4</text><line stroke-linecap="butt"
                  fill="none" x1="28.9066" x2="28.9066" y1="64.878"
                  stroke-linejoin="bevel" y2="155.7638" stroke-width="0.8504"/>
            <path d="M29.3318 64.878 L60 64.878 L60 65.7283 L29.3318 65.7283 Z"
                  stroke="none"/>
            <text x="30.1673" xml:space="preserve" y="59.7047" stroke="none">NT1.7</text><line stroke-linecap="butt"
                  fill="none" x1="59.8178" x2="59.8178" y1="33.3071"
                  stroke-linejoin="bevel" y2="97.2992" stroke-width="0.8504"/>
            <path d="M60.243 33.3071 L70.3262 33.3071 L70.3262 34.1575 L60.243 34.1575 Z"
                  stroke="none"/>
            <text x="73.1609" xml:space="preserve" font-size="14" y="38.2283"
                  stroke="none"></text>
            <path d="M60.243 96.4488 L61 96.4488 L61 97.2992 L60.243 97.2992 Z"
                  stroke="none"/>
            <text x="30.964" xml:space="preserve" y="91.2756" stroke="none">NT1.8</text><line stroke-linecap="butt"
                  fill="none" x1="60.6277" x2="60.6277" y1="75.4016"
                  stroke-linejoin="bevel" y2="118.3465" stroke-width="0.8504"/>
            <path d="M61.0529 75.4016 L63 75.4016 L63 76.252 L61.0529 76.252 Z"
                  stroke="none"/>
            <text x="32.9887" xml:space="preserve" y="70.2284" stroke="none">NT1.9</text><line stroke-linecap="butt"
                  fill="none" x1="62.6524" x2="62.6524" y1="61.3701"
                  stroke-linejoin="bevel" y2="90.2835" stroke-width="0.8504"/>
            <path d="M63.0776 61.3701 L63 61.3701 L63 62.2205 L63.0776 62.2205 Z"
                  stroke="none"/>
            <text x="27.8225" xml:space="preserve" y="56.1969" stroke="none">NT1.12</text><line stroke-linecap="butt"
                  fill="none" x1="63.3273" x2="63.3273" y1="52.0158"
                  stroke-linejoin="bevel" y2="71.5748" stroke-width="0.8504"/>
            <path d="M63.7525 52.0158 L62.9021 52.0158 L62.9021 52.8662 L63.7525 52.8662 Z"
                  stroke="none"/>
            <text x="65.7368" xml:space="preserve" font-size="14" y="56.937"
                  stroke="none"></text>
            <path d="M63.7525 70.7244 L66.1417 70.7244 L66.1417 71.5748 L63.7525 71.5748 Z"
                  stroke="none"/>
            <text x="68.9764" xml:space="preserve" font-size="14" y="75.6457"
                  stroke="none">ABO78078</text><path d="M63.0776 89.4331 L63.712 89.4331 L63.712 90.2835 L63.0776 90.2835 Z"
                  stroke="none"/>
            <text x="66.5467" xml:space="preserve" font-size="14" y="94.3543"
                  stroke="none"></text>
            <path d="M61.0529 117.4961 L72 117.4961 L72 118.3465 L61.0529 118.3465 Z"
                  stroke="none"/>
            <text x="37.6612" xml:space="preserve" y="112.3229" stroke="none">NT1.21</text><line stroke-linecap="butt"
                  fill="none" x1="71.8312" x2="71.8312" y1="108.1417"
                  stroke-linejoin="bevel" y2="127.7008" stroke-width="0.8504"/>
            <path d="M72.2565 108.1417 L71.4061 108.1417 L71.4061 108.9921 L72.2565 108.9921 Z"
                  stroke="none"/>
            <text x="74.2407" xml:space="preserve" font-size="14" y="113.063"
                  stroke="none"></text>
            <path d="M72.2565 126.8504 L71.676 126.8504 L71.676 127.7008 L72.2565 127.7008 Z"
                  stroke="none"/>
            <text x="74.5107" xml:space="preserve" font-size="14" y="131.7717"
                  stroke="none"></text>
            <path d="M29.3318 154.9134 L33 154.9134 L33 155.7638 L29.3318 155.7638 Z"
                  stroke="none"/>
            <text x="2.8478" xml:space="preserve" y="149.7402" stroke="none">NT1.5</text><line stroke-linecap="butt"
                  fill="none" x1="32.5512" x2="32.5512" y1="145.5591"
                  stroke-linejoin="bevel" y2="165.1181" stroke-width="0.8504"/>
            <path d="M32.9764 145.5591 L67.8965 145.5591 L67.8965 146.4095 L32.9764 146.4095 Z"
                  stroke="none"/>
            <text x="70.7312" xml:space="preserve" font-size="14" y="150.4803"
                  stroke="none"></text>
            <path d="M32.9764 164.2677 L58.4477 164.2677 L58.4477 165.1181 L32.9764 165.1181 Z"
                  stroke="none"/>
            <text x="61.2823" xml:space="preserve" font-size="14" y="169.189"
                  stroke="none"></text>
            <path d="M23.7975 192.3307 L63 192.3307 L63 193.1811 L23.7975 193.1811 Z"
                  stroke="none"/>
            <text x="27.0726" xml:space="preserve" y="187.1575" stroke="none">NT1.10</text><line stroke-linecap="butt"
                  fill="none" x1="63.0573" x2="63.0573" y1="182.9764"
                  stroke-linejoin="bevel" y2="202.5354" stroke-width="0.8504"/>
            <path d="M63.4826 182.9764 L67.2216 182.9764 L67.2216 183.8268 L63.4826 183.8268 Z"
                  stroke="none"/>
            <text x="70.0562" xml:space="preserve" font-size="14" y="187.8976"
                  stroke="none"></text>
            <path d="M63.4826 201.6851 L67.7615 201.6851 L67.7615 202.5355 L63.4826 202.5355 Z"
                  stroke="none"/>
            <text x="70.5962" xml:space="preserve" font-size="14" y="206.6063"
                  stroke="none"></text>
        </g>
    </g>
</svg>
