<?xml version="1.0"?>
<!DOCTYPE svg PUBLIC '-//W3C//DTD SVG 1.0//EN'
    'http://www.w3.org/TR/2001/REC-SVG-20010904/DTD/svg10.dtd' >

<svg fill-opacity="1" xmlns:xlink="http://www.w3.org/1999/xlink"
     color-rendering="auto" color-interpolation="auto" stroke="black"
     text-rendering="auto" stroke-linecap="square" stroke-miterlimit="10"
     stroke-opacity="1" shape-rendering="auto" fill="black"
     stroke-dasharray="none" font-weight="normal" stroke-width="1"
     xmlns="http://www.w3.org/2000/svg" font-family="&apos;Dialog&apos;"
     font-style="normal" stroke-linejoin="miter" font-size="12"
     stroke-dashoffset="0" image-rendering="auto">
    <!--Generated by the Batik Graphics2D SVG Generator-->
    <defs id="genericDefs"/>
    <g>
        <g fill="white" stroke="white">
            <rect x="0" width="445" height="317" y="0" stroke="none"/>
            <path fill="black"
                  d="M5 239.893 L43 239.893 L43 240.7434 L5 240.7434 Z"
                  stroke="none"/>
        </g>
        <g font-family="&apos;Arial&apos;" font-size="9">
            <text x="8.5039" xml:space="preserve" y="234.7198" stroke="none">NT1.31</text><line stroke-linecap="butt"
                  fill="none" x1="42.674" x2="42.674" y1="193.0615"
                  stroke-linejoin="bevel" y2="286.7244" stroke-width="0.8504"/>
            <path d="M43.0992 193.0615 L48 193.0615 L48 193.9119 L43.0992 193.9119 Z"
                  stroke="none"/>
            <text x="19.468" xml:space="preserve" y="187.8883" stroke="none">NT1.1</text><line stroke-linecap="butt"
                  fill="none" x1="47.7177" x2="47.7177" y1="151.6978"
                  stroke-linejoin="bevel" y2="235.2756" stroke-width="0.8504"/>
            <path d="M48.1429 151.6978 L55 151.6978 L55 152.5482 L48.1429 152.5482 Z"
                  stroke="none"/>
            <text x="25.5741" xml:space="preserve" y="146.5246" stroke="none">NT1.3</text><line stroke-linecap="butt"
                  fill="none" x1="55.2246" x2="55.2246" y1="111.065"
                  stroke-linejoin="bevel" y2="193.1811" stroke-width="0.8504"/>
            <path d="M55.6498 111.065 L64 111.065 L64 111.9154 L55.6498 111.9154 Z"
                  stroke="none"/>
            <text x="34.4357" xml:space="preserve" y="105.8917" stroke="none">NT1.5</text><line stroke-linecap="butt"
                  fill="none" x1="64.1391" x2="64.1391" y1="67.2165"
                  stroke-linejoin="bevel" y2="155.7638" stroke-width="0.8504"/>
            <path d="M64.5643 67.2165 L71 67.2165 L71 68.0669 L64.5643 68.0669 Z"
                  stroke="none"/>
            <text x="40.8093" xml:space="preserve" y="62.0433" stroke="none">NT1.8</text><line stroke-linecap="butt"
                  fill="none" x1="70.473" x2="70.473" y1="30.9685"
                  stroke-linejoin="bevel" y2="104.315" stroke-width="0.8504"/>
            <path d="M70.8982 30.9685 L73 30.9685 L73 31.8189 L70.8982 31.8189 Z"
                  stroke="none"/>
            <text x="42.9207" xml:space="preserve" y="25.7953" stroke="none">NT1.9</text><line stroke-linecap="butt"
                  fill="none" x1="72.5843" x2="72.5843" y1="14.5984"
                  stroke-linejoin="bevel" y2="48.189" stroke-width="0.8504"/>
            <path d="M73.0095 14.5984 L84.5925 14.5984 L84.5925 15.4488 L73.0095 15.4488 Z"
                  stroke="none"/>
            <text x="87.4271" xml:space="preserve" font-size="14" y="19.5197"
                  stroke="none">AM422372</text><path d="M73.0095 47.3386 L85 47.3386 L85 48.189 L73.0095 48.189 Z"
                  stroke="none"/>
            <text x="49.7079" xml:space="preserve" y="42.1654" stroke="none">NT1.20</text><line stroke-linecap="butt"
                  fill="none" x1="85.2523" x2="85.2523" y1="33.3071"
                  stroke-linejoin="bevel" y2="62.2205" stroke-width="0.8504"/>
            <path d="M85.6775 33.3071 L93.6243 33.3071 L93.6243 34.1575 L85.6775 34.1575 Z"
                  stroke="none"/>
            <text x="96.4589" xml:space="preserve" font-size="14" y="38.2283"
                  stroke="none">AJ242581</text><path d="M85.6775 61.3701 L94 61.3701 L94 62.2205 L85.6775 62.2205 Z"
                  stroke="none"/>
            <text x="58.0094" xml:space="preserve" y="56.1969" stroke="none">NT1.23</text><line stroke-linecap="butt"
                  fill="none" x1="93.5803" x2="93.5803" y1="52.0157"
                  stroke-linejoin="bevel" y2="71.5748" stroke-width="0.8504"/>
            <path d="M94.0055 52.0158 L93.2724 52.0158 L93.2724 52.8661 L94.0055 52.8661 Z"
                  stroke="none"/>
            <text x="96.107" xml:space="preserve" font-size="14" y="56.937"
                  stroke="none"></text>
            <path d="M94.0055 70.7244 L93.2724 70.7244 L93.2724 71.5748 L94.0055 71.5748 Z"
                  stroke="none"/>
            <text x="96.107" xml:space="preserve" font-size="14" y="75.6457"
                  stroke="none">OchrobactrumpseudogrignonenseCCUG43892</text><path d="M70.8982 103.4646 L77 103.4646 L77 104.315 L70.8982 104.315 Z"
                  stroke="none"/>
            <text x="42.8715" xml:space="preserve" y="98.2913" stroke="none">NT1.11</text><line stroke-linecap="butt"
                  fill="none" x1="77.0416" x2="77.0416" y1="89.4331"
                  stroke-linejoin="bevel" y2="118.3465" stroke-width="0.8504"/>
            <path d="M77.4668 89.4331 L80.1353 89.4331 L80.1353 90.2835 L77.4668 90.2835 Z"
                  stroke="none"/>
            <text x="82.9699" xml:space="preserve" font-size="14" y="94.3543"
                  stroke="none">AJ242584</text><path d="M77.4668 117.4961 L79 117.4961 L79 118.3464 L77.4668 118.3464 Z"
                  stroke="none"/>
            <text x="43.2302" xml:space="preserve" y="112.3228" stroke="none">NT1.13</text><line stroke-linecap="butt"
                  fill="none" x1="78.801" x2="78.801" y1="108.1417"
                  stroke-linejoin="bevel" y2="127.7008" stroke-width="0.8504"/>
            <path d="M79.2262 108.1417 L78.4931 108.1417 L78.4931 108.9921 L79.2262 108.9921 Z"
                  stroke="none"/>
            <text x="81.3278" xml:space="preserve" font-size="14" y="113.063"
                  stroke="none">AY457038</text><path d="M79.2262 126.8504 L80.9564 126.8504 L80.9564 127.7008 L79.2262 127.7008 Z"
                  stroke="none"/>
            <text x="83.791" xml:space="preserve" font-size="14" y="131.7717"
                  stroke="none">D12794</text><path d="M64.5643 154.9134 L70 154.9134 L70 155.7638 L64.5643 155.7638 Z"
                  stroke="none"/>
            <text x="40.588" xml:space="preserve" y="149.7402" stroke="none">NT1.7</text><line stroke-linecap="butt"
                  fill="none" x1="70.2384" x2="70.2384" y1="145.5591"
                  stroke-linejoin="bevel" y2="165.1181" stroke-width="0.8504"/>
            <path d="M70.6636 145.5591 L82.012 145.5591 L82.012 146.4095 L70.6636 146.4095 Z"
                  stroke="none"/>
            <text x="84.8466" xml:space="preserve" font-size="14" y="150.4803"
                  stroke="none">U70978</text><path d="M70.6636 164.2677 L76.0299 164.2677 L76.0299 165.1181 L70.6636 165.1181 Z"
                  stroke="none"/>
            <text x="78.8646" xml:space="preserve" font-size="14" y="169.189"
                  stroke="none"></text>
            <path d="M55.6498 192.3307 L67 192.3307 L67 193.1811 L55.6498 193.1811 Z"
                  stroke="none"/>
            <text x="37.1864" xml:space="preserve" y="187.1575" stroke="none">NT1.6</text><line stroke-linecap="butt"
                  fill="none" x1="66.8369" x2="66.8369" y1="182.9764"
                  stroke-linejoin="bevel" y2="202.5354" stroke-width="0.8504"/>
            <path d="M67.2621 182.9764 L93.0378 182.9764 L93.0378 183.8268 L67.2621 183.8268 Z"
                  stroke="none"/>
            <text x="95.8724" xml:space="preserve" font-size="14" y="187.8976"
                  stroke="none">D12786</text><path d="M67.2621 201.6851 L103.7117 201.6851 L103.7117 202.5355 L67.2621 202.5355 Z"
                  stroke="none"/>
            <text x="106.5463" xml:space="preserve" font-size="14" y="206.6063"
                  stroke="none">AL591782</text><path d="M48.1429 234.4252 L53 234.4252 L53 235.2756 L48.1429 235.2756 Z"
                  stroke="none"/>
            <text x="23.4116" xml:space="preserve" y="229.252" stroke="none">NT1.2</text><line stroke-linecap="butt"
                  fill="none" x1="52.996" x2="52.996" y1="220.3937"
                  stroke-linejoin="bevel" y2="249.3071" stroke-width="0.8504"/>
            <path d="M53.4212 220.3937 L78.4931 220.3937 L78.4931 221.2441 L53.4212 221.2441 Z"
                  stroke="none"/>
            <text x="81.3278" xml:space="preserve" font-size="14" y="225.315"
                  stroke="none">DQB65921</text><path d="M53.4212 248.4567 L59 248.4567 L59 249.3071 L53.4212 249.3071 Z"
                  stroke="none"/>
            <text x="29.0022" xml:space="preserve" y="243.2835" stroke="none">NT1.4</text><line stroke-linecap="butt"
                  fill="none" x1="58.6262" x2="58.6262" y1="239.1024"
                  stroke-linejoin="bevel" y2="258.6615" stroke-width="0.8504"/>
            <path d="M59.0514 239.1024 L77.6721 239.1024 L77.6721 239.9528 L59.0514 239.9528 Z"
                  stroke="none"/>
            <text x="80.5067" xml:space="preserve" font-size="14" y="244.0237"
                  stroke="none"></text>
            <path d="M59.0514 257.8111 L93.0378 257.8111 L93.0378 258.6615 L59.0514 258.6615 Z"
                  stroke="none"/>
            <text x="95.8725" xml:space="preserve" font-size="14" y="262.7323"
                  stroke="none">AJ519939</text><path d="M43.0992 285.8741 L102 285.8741 L102 286.7245 L43.0992 286.7245 Z"
                  stroke="none"/>
            <text x="56.1356" xml:space="preserve" y="280.7008" stroke="none">NT1.27</text><line stroke-linecap="butt"
                  fill="none" x1="101.9083" x2="101.9083" y1="276.5197"
                  stroke-linejoin="bevel" y2="296.0788" stroke-width="0.8504"/>
            <path d="M102.3335 276.5197 L102.0696 276.5197 L102.0696 277.3701 L102.3335 277.3701 Z"
                  stroke="none"/>
            <text x="104.9042" xml:space="preserve" font-size="14" y="281.441"
                  stroke="none"></text>
            <path d="M102.3335 295.2284 L103.7117 295.2284 L103.7117 296.0788 L102.3335 296.0788 Z"
                  stroke="none"/>
            <text x="106.5463" xml:space="preserve" font-size="14" y="300.1497"
                  stroke="none"></text>
        </g>
    </g>
</svg>
