<?xml version="1.0"?>
<!DOCTYPE svg PUBLIC '-//W3C//DTD SVG 1.0//EN'
    'http://www.w3.org/TR/2001/REC-SVG-20010904/DTD/svg10.dtd' >

<svg fill-opacity="1" xmlns:xlink="http://www.w3.org/1999/xlink"
     color-rendering="auto" color-interpolation="auto" stroke="black"
     text-rendering="auto" stroke-linecap="square" stroke-miterlimit="10"
     stroke-opacity="1" shape-rendering="auto" fill="black"
     stroke-dasharray="none" font-weight="normal" stroke-width="1"
     xmlns="http://www.w3.org/2000/svg" font-family="&apos;Dialog&apos;"
     font-style="normal" stroke-linejoin="miter" font-size="12"
     stroke-dashoffset="0" image-rendering="auto">
    <!--Generated by the Batik Graphics2D SVG Generator-->
    <defs id="genericDefs"/>
    <g>
        <g fill="white" stroke="white">
            <rect x="0" width="165" height="542" y="0" stroke="none"/>
            <path fill="black"
                  d="M5 388.3248 L18 388.3248 L18 389.1752 L5 389.1752 Z"
                  stroke="none"/>
            <circle fill="black" r="1.2756" cx="17.4331" cy="388.3248"
                    stroke="none"/>
            <path fill="black"
                  d="M17.8583 387.4745 L20 387.4745 L20 388.3249 L17.8583 388.3249 Z"
                  stroke="none"/>
        </g>
        <g font-family="&apos;Arial&apos;" font-size="9">
            <text x="-10.0824" xml:space="preserve" y="382.3012" stroke="none">NT1.2</text><line stroke-linecap="butt"
                  fill="none" x1="19.502" x2="19.502" y1="278.6025"
                  stroke-linejoin="bevel" y2="497.1969" stroke-width="0.8504"/>
            <path d="M19.9272 278.6025 L22 278.6025 L22 279.4529 L19.9272 279.4529 Z"
                  stroke="none"/>
            <text x="-7.5927" xml:space="preserve" y="273.4293" stroke="none">NT1.3</text><line stroke-linecap="butt"
                  fill="none" x1="22.0578" x2="22.0578" y1="198.5426"
                  stroke-linejoin="bevel" y2="359.5128" stroke-width="0.8504"/>
            <path d="M22.483 198.5426 L25 198.5426 L25 199.393 L22.483 199.393 Z"
                  stroke="none"/>
            <text x="-4.7671" xml:space="preserve" y="193.3693" stroke="none">NT1.4</text><line stroke-linecap="butt"
                  fill="none" x1="24.8569" x2="24.8569" y1="111.2111"
                  stroke-linejoin="bevel" y2="286.7244" stroke-width="0.8504"/>
            <path d="M25.2821 111.2111 L27 111.2111 L27 112.0615 L25.2821 112.0615 Z"
                  stroke="none"/>
            <text x="-2.3595" xml:space="preserve" y="106.0379" stroke="none">NT1.6</text><line stroke-linecap="butt"
                  fill="none" x1="27.2909" x2="27.2909" y1="33.5994"
                  stroke-linejoin="bevel" y2="189.6732" stroke-width="0.8504"/>
            <path d="M27.7161 33.5994 L36 33.5994 L36 34.4498 L27.7161 34.4498 Z"
                  stroke="none"/>
            <text x="1.3967" xml:space="preserve" y="28.4262" stroke="none">NT1.11</text><line stroke-linecap="butt"
                  fill="none" x1="35.5667" x2="35.5667" y1="14.5984"
                  stroke-linejoin="bevel" y2="53.4508" stroke-width="0.8504"/>
            <path d="M35.9919 14.5984 L56.0743 14.5984 L56.0743 15.4488 L35.9919 15.4488 Z"
                  stroke="none"/>
            <text x="58.9089" xml:space="preserve" font-size="14" y="19.5197"
                  stroke="none">AJ843569</text><path d="M35.9919 52.6004 L46 52.6004 L46 53.4508 L35.9919 53.4508 Z"
                  stroke="none"/>
            <text x="10.3405" xml:space="preserve" y="47.4272" stroke="none">NT1.16</text><line stroke-linecap="butt"
                  fill="none" x1="45.9114" x2="45.9114" y1="33.3071"
                  stroke-linejoin="bevel" y2="72.7441" stroke-width="0.8504"/>
            <path d="M46.3366 33.3071 L61.7943 33.3071 L61.7943 34.1575 L46.3366 34.1575 Z"
                  stroke="none"/>
            <text x="64.6289" xml:space="preserve" font-size="14" y="38.2283"
                  stroke="none">AJ843502</text><path d="M46.3366 71.8937 L48 71.8937 L48 72.7441 L46.3366 72.7441 Z"
                  stroke="none"/>
            <text x="12.1529" xml:space="preserve" y="66.7205" stroke="none">NT1.18</text><line stroke-linecap="butt"
                  fill="none" x1="47.7369" x2="47.7369" y1="52.0157"
                  stroke-linejoin="bevel" y2="92.6221" stroke-width="0.8504"/>
            <path d="M48.1621 52.0158 L57.6564 52.0158 L57.6564 52.8661 L48.1621 52.8661 Z"
                  stroke="none"/>
            <text x="60.491" xml:space="preserve" font-size="14" y="56.937"
                  stroke="none">AJ843571</text><path d="M48.1621 91.7717 L49 91.7717 L49 92.622 L48.1621 92.622 Z"
                  stroke="none"/>
            <text x="13.3699" xml:space="preserve" y="86.5984" stroke="none">NT1.19</text><line stroke-linecap="butt"
                  fill="none" x1="48.9539" x2="48.9539" y1="70.7244"
                  stroke-linejoin="bevel" y2="113.6693" stroke-width="0.8504"/>
            <path d="M49.3791 70.7244 L58.63 70.7244 L58.63 71.5748 L49.3791 71.5748 Z"
                  stroke="none"/>
            <text x="61.4646" xml:space="preserve" font-size="14" y="75.6457"
                  stroke="none">AJ843486</text><path d="M49.3791 112.8189 L50 112.8189 L50 113.6693 L49.3791 113.6693 Z"
                  stroke="none"/>
            <text x="14.8699" xml:space="preserve" y="107.6457" stroke="none">NT1.20</text><line stroke-linecap="butt"
                  fill="none" x1="50.4144" x2="50.4144" y1="98.7874"
                  stroke-linejoin="bevel" y2="127.7008" stroke-width="0.8504"/>
            <path d="M50.8396 98.7874 L51 98.7874 L51 99.6378 L50.8396 99.6378 Z"
                  stroke="none"/>
            <text x="16.8528" xml:space="preserve" y="93.6142" stroke="none">NT1.21</text><line stroke-linecap="butt"
                  fill="none" x1="51.0229" x2="51.0229" y1="89.4331"
                  stroke-linejoin="bevel" y2="108.9921" stroke-width="0.8504"/>
            <path d="M51.4481 89.4331 L57.413 89.4331 L57.413 90.2835 L51.4481 90.2835 Z"
                  stroke="none"/>
            <text x="60.2476" xml:space="preserve" font-size="14" y="94.3543"
                  stroke="none">AJ843485</text><path d="M51.4481 108.1417 L58.63 108.1417 L58.63 108.9921 L51.4481 108.9921 Z"
                  stroke="none"/>
            <text x="61.4647" xml:space="preserve" font-size="14" y="113.063"
                  stroke="none">AJ843483</text><path d="M50.8396 126.8504 L56.6828 126.8504 L56.6828 127.7008 L50.8396 127.7008 Z"
                  stroke="none"/>
            <text x="59.5174" xml:space="preserve" font-size="14" y="131.7717"
                  stroke="none"></text>
            <path d="M27.7161 188.8228 L29 188.8228 L29 189.6732 L27.7161 189.6732 Z"
                  stroke="none"/>
            <text x="-0.5472" xml:space="preserve" y="183.6496" stroke="none">NT1.8</text><line stroke-linecap="butt"
                  fill="none" x1="29.1165" x2="29.1165" y1="159.5906"
                  stroke-linejoin="bevel" y2="218.9055" stroke-width="0.8504"/>
            <path d="M29.5417 159.5906 L33 159.5906 L33 160.441 L29.5417 160.441 Z"
                  stroke="none"/>
            <text x="-2.2901" xml:space="preserve" y="154.4173" stroke="none">NT1.10</text><line stroke-linecap="butt"
                  fill="none" x1="33.2544" x2="33.2544" y1="145.5591"
                  stroke-linejoin="bevel" y2="174.4725" stroke-width="0.8504"/>
            <path d="M33.6796 145.5591 L51.4496 145.5591 L51.4496 146.4095 L33.6796 146.4095 Z"
                  stroke="none"/>
            <text x="54.2842" xml:space="preserve" font-size="14" y="150.4803"
                  stroke="none">AJ843521</text><path d="M33.6796 173.6221 L44 173.6221 L44 174.4725 L33.6796 174.4725 Z"
                  stroke="none"/>
            <text x="8.6631" xml:space="preserve" y="168.4488" stroke="none">NT1.14</text><line stroke-linecap="butt"
                  fill="none" x1="44.2076" x2="44.2076" y1="164.2677"
                  stroke-linejoin="bevel" y2="183.8268" stroke-width="0.8504"/>
            <path d="M44.6328 164.2677 L57.6564 164.2677 L57.6564 165.1181 L44.6328 165.1181 Z"
                  stroke="none"/>
            <text x="60.4911" xml:space="preserve" font-size="14" y="169.189"
                  stroke="none"></text>
            <path d="M44.6328 182.9764 L57.6564 182.9764 L57.6564 183.8268 L44.6328 183.8268 Z"
                  stroke="none"/>
            <text x="60.4911" xml:space="preserve" font-size="14" y="187.8976"
                  stroke="none">AJ843492</text><path d="M29.5417 218.0552 L37 218.0552 L37 218.9056 L29.5417 218.9056 Z"
                  stroke="none"/>
            <text x="1.7658" xml:space="preserve" y="212.8819" stroke="none">NT1.12</text><line stroke-linecap="butt"
                  fill="none" x1="37.2705" x2="37.2705" y1="201.6851"
                  stroke-linejoin="bevel" y2="235.2756" stroke-width="0.8504"/>
            <path d="M37.6957 201.6851 L65.3236 201.6851 L65.3236 202.5355 L37.6957 202.5355 Z"
                  stroke="none"/>
            <text x="68.1583" xml:space="preserve" font-size="14" y="206.6063"
                  stroke="none">AJ843491</text><path d="M37.6957 234.4252 L45 234.4252 L45 235.2756 L37.6957 235.2756 Z"
                  stroke="none"/>
            <text x="9.5575" xml:space="preserve" y="229.252" stroke="none">NT1.15</text><line stroke-linecap="butt"
                  fill="none" x1="45.1812" x2="45.1812" y1="220.3938"
                  stroke-linejoin="bevel" y2="249.3071" stroke-width="0.8504"/>
            <path d="M45.6064 220.3938 L59.1168 220.3938 L59.1168 221.2442 L45.6064 221.2442 Z"
                  stroke="none"/>
            <text x="61.9515" xml:space="preserve" font-size="14" y="225.315"
                  stroke="none">EF197993</text><path d="M45.6064 248.4567 L57 248.4567 L57 249.3071 L45.6064 249.3071 Z"
                  stroke="none"/>
            <text x="21.0503" xml:space="preserve" y="243.2835" stroke="none">NT1.27</text><line stroke-linecap="butt"
                  fill="none" x1="56.6212" x2="56.6212" y1="239.1024"
                  stroke-linejoin="bevel" y2="258.6615" stroke-width="0.8504"/>
            <path d="M57.0464 239.1024 L56.3177 239.1024 L56.3177 239.9528 L57.0464 239.9528 Z"
                  stroke="none"/>
            <text x="59.1523" xml:space="preserve" font-size="14" y="244.0237"
                  stroke="none">AJ843479</text><path d="M57.0464 257.8111 L56.3177 257.8111 L56.3177 258.6615 L57.0464 258.6615 Z"
                  stroke="none"/>
            <text x="59.1523" xml:space="preserve" font-size="14" y="262.7324"
                  stroke="none">AJ843480</text><path d="M25.2821 285.874 L46 285.874 L46 286.7244 L25.2821 286.7244 Z"
                  stroke="none"/>
            <text x="10.5839" xml:space="preserve" y="280.7008" stroke="none">NT1.17</text><line stroke-linecap="butt"
                  fill="none" x1="46.1548" x2="46.1548" y1="276.5197"
                  stroke-linejoin="bevel" y2="296.0788" stroke-width="0.8504"/>
            <path d="M46.58 276.5197 L71.0436 276.5197 L71.0436 277.3701 L46.58 277.3701 Z"
                  stroke="none"/>
            <text x="73.8783" xml:space="preserve" font-size="14" y="281.441"
                  stroke="none">AJ843540</text><path d="M46.58 295.2284 L83.5789 295.2284 L83.5789 296.0788 L46.58 296.0788 Z"
                  stroke="none"/>
            <text x="86.4136" xml:space="preserve" font-size="14" y="300.1497"
                  stroke="none">AJ843538</text><path d="M22.483 358.6624 L27 358.6624 L27 359.5128 L22.483 359.5128 Z"
                  stroke="none"/>
            <text x="-2.6558" xml:space="preserve" y="353.4892" stroke="none">NT1.5</text><line stroke-linecap="butt"
                  fill="none" x1="27.0476" x2="27.0476" y1="313.937"
                  stroke-linejoin="bevel" y2="404.2382" stroke-width="0.8504"/>
            <path d="M27.4728 313.937 L71.0437 313.937 L71.0437 314.7874 L27.4728 314.7874 Z"
                  stroke="none"/>
            <text x="73.8783" xml:space="preserve" font-size="14" y="318.8583"
                  stroke="none">AJ843509</text><path d="M27.4728 403.3878 L29 403.3878 L29 404.2382 L27.4728 404.2382 Z"
                  stroke="none"/>
            <text x="-0.3038" xml:space="preserve" y="398.2146" stroke="none">NT1.9</text><line stroke-linecap="butt"
                  fill="none" x1="29.3599" x2="29.3599" y1="352.5237"
                  stroke-linejoin="bevel" y2="455.1024" stroke-width="0.8504"/>
            <path d="M29.7851 352.5237 L53 352.5237 L53 353.3741 L29.7851 353.3741 Z"
                  stroke="none"/>
            <text x="17.3993" xml:space="preserve" y="347.3504" stroke="none">NT1.23</text><line stroke-linecap="butt"
                  fill="none" x1="52.9701" x2="52.9701" y1="332.6457"
                  stroke-linejoin="bevel" y2="373.252" stroke-width="0.8504"/>
            <path d="M53.3954 332.6457 L66.1756 332.6457 L66.1756 333.4961 L53.3954 333.4961 Z"
                  stroke="none"/>
            <text x="69.0102" xml:space="preserve" font-size="14" y="337.567"
                  stroke="none">AJ843510</text><path d="M53.3954 372.4016 L56 372.4016 L56 373.252 L53.3954 373.252 Z"
                  stroke="none"/>
            <text x="20.1032" xml:space="preserve" y="367.2284" stroke="none">NT1.24</text><line stroke-linecap="butt"
                  fill="none" x1="55.6476" x2="55.6476" y1="351.3544"
                  stroke-linejoin="bevel" y2="394.2993" stroke-width="0.8504"/>
            <path d="M56.0728 351.3544 L63.6198 351.3544 L63.6198 352.2048 L56.0728 352.2048 Z"
                  stroke="none"/>
            <text x="66.4545" xml:space="preserve" font-size="14" y="356.2756"
                  stroke="none">AJ843481</text><path d="M56.0728 393.4489 L56 393.4489 L56 394.2993 L56.0728 394.2993 Z"
                  stroke="none"/>
            <text x="20.5107" xml:space="preserve" y="388.2757" stroke="none">NT1.25</text><line stroke-linecap="butt"
                  fill="none" x1="56.1344" x2="56.1344" y1="370.063"
                  stroke-linejoin="bevel" y2="417.6851" stroke-width="0.8504"/>
            <path d="M56.5596 370.063 L63.8633 370.063 L63.8633 370.9135 L56.5596 370.9135 Z"
                  stroke="none"/>
            <text x="66.6979" xml:space="preserve" font-size="14" y="374.9843"
                  stroke="none"></text>
            <path d="M56 388.7717 L70.3135 388.7717 L70.3135 389.6221 L56 389.6221 Z"
                  stroke="none"/>
            <text x="73.1481" xml:space="preserve" font-size="14" y="393.693"
                  stroke="none">AJ843511</text><path d="M56.5596 416.8347 L60 416.8347 L60 417.6852 L56.5596 417.6852 Z"
                  stroke="none"/>
            <text x="24.0797" xml:space="preserve" y="411.6615" stroke="none">NT1.38</text><line stroke-linecap="butt"
                  fill="none" x1="59.6638" x2="59.6638" y1="407.4804"
                  stroke-linejoin="bevel" y2="427.0394" stroke-width="0.8504"/>
            <path d="M60.089 407.4804 L65.0803 407.4804 L65.0803 408.3308 L60.089 408.3308 Z"
                  stroke="none"/>
            <text x="67.9149" xml:space="preserve" font-size="14" y="412.4016"
                  stroke="none"></text>
            <path d="M60.089 426.1891 L67.8794 426.1891 L67.8794 427.0395 L60.089 427.0395 Z"
                  stroke="none"/>
            <text x="70.7141" xml:space="preserve" font-size="14" y="431.1103"
                  stroke="none">AJ843503</text><path d="M29.7851 454.252 L42 454.252 L42 455.1024 L29.7851 455.1024 Z"
                  stroke="none"/>
            <text x="6.2027" xml:space="preserve" y="449.0788" stroke="none">NT1.13</text><line stroke-linecap="butt"
                  fill="none" x1="41.7735" x2="41.7735" y1="444.8977"
                  stroke-linejoin="bevel" y2="464.4567" stroke-width="0.8504"/>
            <path d="M42.1987 444.8977 L59.8471 444.8977 L59.8471 445.7481 L42.1987 445.7481 Z"
                  stroke="none"/>
            <text x="62.6817" xml:space="preserve" font-size="14" y="449.8189"
                  stroke="none">AJ843484</text><path d="M42.1987 463.6064 L62.6462 463.6064 L62.6462 464.4568 L42.1987 464.4568 Z"
                  stroke="none"/>
            <text x="65.4809" xml:space="preserve" font-size="14" y="468.5276"
                  stroke="none">AJ843500</text><path d="M19.9272 496.3465 L28 496.3465 L28 497.1969 L19.9272 497.1969 Z"
                  stroke="none"/>
            <text x="-2.1161" xml:space="preserve" y="491.1732" stroke="none">NT1.7</text><line stroke-linecap="butt"
                  fill="none" x1="27.5343" x2="27.5343" y1="482.315"
                  stroke-linejoin="bevel" y2="511.2284" stroke-width="0.8504"/>
            <path d="M27.9595 482.315 L65.8104 482.315 L65.8104 483.1654 L27.9595 483.1654 Z"
                  stroke="none"/>
            <text x="68.6451" xml:space="preserve" font-size="14" y="487.2362"
                  stroke="none"></text>
            <path d="M27.9595 510.378 L60 510.378 L60 511.2284 L27.9595 511.2284 Z"
                  stroke="none"/>
            <text x="24.5665" xml:space="preserve" y="505.2048" stroke="none">NT1.39</text><line stroke-linecap="butt"
                  fill="none" x1="60.1505" x2="60.1505" y1="501.0237"
                  stroke-linejoin="bevel" y2="520.5827" stroke-width="0.8504"/>
            <path d="M60.5757 501.0237 L63.8632 501.0237 L63.8632 501.8741 L60.5757 501.8741 Z"
                  stroke="none"/>
            <text x="66.6978" xml:space="preserve" font-size="14" y="505.9449"
                  stroke="none"></text>
            <path d="M60.5757 519.7324 L63.8632 519.7324 L63.8632 520.5827 L60.5757 520.5827 Z"
                  stroke="none"/>
            <text x="66.6978" xml:space="preserve" font-size="14" y="524.6536"
                  stroke="none">AJ843493</text>
        </g>
    </g>
</svg>
