<?xml version="1.0"?>
<!DOCTYPE svg PUBLIC '-//W3C//DTD SVG 1.0//EN'
    'http://www.w3.org/TR/2001/REC-SVG-20010904/DTD/svg10.dtd' >

<svg fill-opacity="1" xmlns:xlink="http://www.w3.org/1999/xlink"
     color-rendering="auto" color-interpolation="auto" stroke="black"
     text-rendering="auto" stroke-linecap="square" stroke-miterlimit="10"
     stroke-opacity="1" shape-rendering="auto" fill="black"
     stroke-dasharray="none" font-weight="normal" stroke-width="1"
     xmlns="http://www.w3.org/2000/svg" font-family="&apos;Dialog&apos;"
     font-style="normal" stroke-linejoin="miter" font-size="12"
     stroke-dashoffset="0" image-rendering="auto">
    <!--Generated by the Batik Graphics2D SVG Generator-->
    <defs id="genericDefs"/>
    <g>
        <g fill="white" stroke="white">
            <rect x="0" width="211" height="392" y="0" stroke="none"/>
            <path fill="black"
                  d="M5 295.7997 L44 295.7997 L44 296.6501 L5 296.6501 Z"
                  stroke="none"/>
        </g>
        <g font-family="&apos;Arial&apos;" font-size="9">
            <text x="8.5039" xml:space="preserve" y="290.6265" stroke="none">NT1.35</text><line stroke-linecap="butt"
                  fill="none" x1="44.1276" x2="44.1276" y1="220.686"
                  stroke-linejoin="bevel" y2="370.9134" stroke-width="0.8504"/>
            <path d="M44.5528 220.686 L47 220.686 L47 221.5364 L44.5528 221.5364 Z"
                  stroke="none"/>
            <text x="18.7705" xml:space="preserve" y="215.5128" stroke="none">NT1.1</text><line stroke-linecap="butt"
                  fill="none" x1="47.0202" x2="47.0202" y1="136.7894"
                  stroke-linejoin="bevel" y2="305.4331" stroke-width="0.8504"/>
            <path d="M47.4454 136.7894 L58 136.7894 L58 137.6398 L47.4454 137.6398 Z"
                  stroke="none"/>
            <text x="27.815" xml:space="preserve" y="131.6161" stroke="none">NT1.3</text><line stroke-linecap="butt"
                  fill="none" x1="57.4655" x2="57.4655" y1="71.8937"
                  stroke-linejoin="bevel" y2="202.5355" stroke-width="0.8504"/>
            <path d="M57.8907 71.8937 L62 71.8937 L62 72.7441 L57.8907 72.7441 Z"
                  stroke="none"/>
            <text x="31.7796" xml:space="preserve" y="66.7205" stroke="none">NT1.5</text><line stroke-linecap="butt"
                  fill="none" x1="61.4829" x2="61.4829" y1="14.5984"
                  stroke-linejoin="bevel" y2="130.0394" stroke-width="0.8504"/>
            <path d="M61.9081 14.5984 L74.5562 14.5984 L74.5562 15.4488 L61.9081 15.4488 Z"
                  stroke="none"/>
            <text x="77.3909" xml:space="preserve" font-size="14" y="19.5197"
                  stroke="none">EF100697</text><path d="M61 70.7244 L66 70.7244 L66 71.5748 L61 71.5748 Z"
                  stroke="none"/>
            <text x="35.8366" xml:space="preserve" y="65.5512" stroke="none">NT1.8</text><line stroke-linecap="butt"
                  fill="none" x1="65.5003" x2="65.5003" y1="52.0157"
                  stroke-linejoin="bevel" y2="90.2835" stroke-width="0.8504"/>
            <path d="M65.9255 52.0158 L71 52.0158 L71 52.8661 L65.9255 52.8661 Z"
                  stroke="none"/>
            <text x="35.3403" xml:space="preserve" y="46.8425" stroke="none">NT1.15</text><line stroke-linecap="butt"
                  fill="none" x1="70.964" x2="70.964" y1="33.3071"
                  stroke-linejoin="bevel" y2="71.5748" stroke-width="0.8504"/>
            <path d="M71.3893 33.3071 L78.2523 33.3071 L78.2523 34.1575 L71.3893 34.1575 Z"
                  stroke="none"/>
            <text x="81.087" xml:space="preserve" font-size="14" y="38.2283"
                  stroke="none">AJ438174</text><path d="M71 52.0158 L82.4304 52.0158 L82.4304 52.8661 L71 52.8661 Z"
                  stroke="none"/>
            <text x="85.2651" xml:space="preserve" font-size="14" y="56.937"
                  stroke="none">AJ583425</text><path d="M71.3893 70.7244 L78.5737 70.7244 L78.5737 71.5748 L71.3893 71.5748 Z"
                  stroke="none"/>
            <text x="81.4083" xml:space="preserve" font-size="14" y="75.6457"
                  stroke="none">AJ438170</text><path d="M65.9255 89.4331 L72.7886 89.4331 L72.7886 90.2835 L65.9255 90.2835 Z"
                  stroke="none"/>
            <text x="75.6232" xml:space="preserve" font-size="14" y="94.3543"
                  stroke="none">ABZ45371</text><path d="M61.9081 129.189 L66 129.189 L66 130.0394 L61.9081 130.0394 Z"
                  stroke="none"/>
            <text x="35.8366" xml:space="preserve" y="124.0157" stroke="none">NT1.9</text><line stroke-linecap="butt"
                  fill="none" x1="65.5003" x2="65.5003" y1="108.1417"
                  stroke-linejoin="bevel" y2="151.0866" stroke-width="0.8504"/>
            <path d="M65.9255 108.1417 L70.3781 108.1417 L70.3781 108.9921 L65.9255 108.9921 Z"
                  stroke="none"/>
            <text x="73.2128" xml:space="preserve" font-size="14" y="113.063"
                  stroke="none">AJ786798</text><path d="M65.9255 150.2362 L68 150.2362 L68 151.0866 L65.9255 151.0866 Z"
                  stroke="none"/>
            <text x="31.8843" xml:space="preserve" y="145.063" stroke="none">NT1.10</text><line stroke-linecap="butt"
                  fill="none" x1="67.4287" x2="67.4287" y1="136.2047"
                  stroke-linejoin="bevel" y2="165.1181" stroke-width="0.8504"/>
            <path d="M67.8539 136.2047 L69 136.2047 L69 137.0551 L67.8539 137.0551 Z"
                  stroke="none"/>
            <text x="33.2095" xml:space="preserve" y="131.0315" stroke="none">NT1.12</text><line stroke-linecap="butt"
                  fill="none" x1="68.7142" x2="68.7142" y1="126.8504"
                  stroke-linejoin="bevel" y2="146.4095" stroke-width="0.8504"/>
            <path d="M69.1395 126.8504 L73.5921 126.8504 L73.5921 127.7008 L69.1395 127.7008 Z"
                  stroke="none"/>
            <text x="76.4267" xml:space="preserve" font-size="14" y="131.7717"
                  stroke="none"></text>
            <path d="M69.1395 145.5591 L74.3955 145.5591 L74.3955 146.4095 L69.1395 146.4095 Z"
                  stroke="none"/>
            <text x="77.2302" xml:space="preserve" font-size="14" y="150.4803"
                  stroke="none">AJ438172</text><path d="M67.8539 164.2677 L73.2707 164.2677 L73.2707 165.1181 L67.8539 165.1181 Z"
                  stroke="none"/>
            <text x="76.1053" xml:space="preserve" font-size="14" y="169.189"
                  stroke="none">AJ438171</text><path d="M57.8907 201.685 L59 201.685 L59 202.5354 L57.8907 202.5354 Z"
                  stroke="none"/>
            <text x="29.2877" xml:space="preserve" y="196.5118" stroke="none">NT1.4</text><line stroke-linecap="butt"
                  fill="none" x1="58.9117" x2="58.9117" y1="182.9764"
                  stroke-linejoin="bevel" y2="221.2441" stroke-width="0.8504"/>
            <path d="M59.3369 182.9764 L74.3955 182.9764 L74.3955 183.8268 L59.3369 183.8268 Z"
                  stroke="none"/>
            <text x="77.2302" xml:space="preserve" font-size="14" y="187.8976"
                  stroke="none">AM114396</text><path d="M59.3369 220.3937 L65 220.3937 L65 221.2441 L59.3369 221.2441 Z"
                  stroke="none"/>
            <text x="35.5285" xml:space="preserve" y="215.2205" stroke="none">NT1.7</text><line stroke-linecap="butt"
                  fill="none" x1="65.1789" x2="65.1789" y1="201.6851"
                  stroke-linejoin="bevel" y2="239.9528" stroke-width="0.8504"/>
            <path d="M65.6041 201.6851 L76.3239 201.6851 L76.3239 202.5355 L65.6041 202.5355 Z"
                  stroke="none"/>
            <text x="79.1586" xml:space="preserve" font-size="14" y="206.6063"
                  stroke="none">D0235228</text><path d="M65.6041 239.1024 L68 239.1024 L68 239.9528 L65.6041 239.9528 Z"
                  stroke="none"/>
            <text x="33.4194" xml:space="preserve" y="233.9292" stroke="none">NT1.11</text><line stroke-linecap="butt"
                  fill="none" x1="67.5894" x2="67.5894" y1="220.3938"
                  stroke-linejoin="bevel" y2="258.6615" stroke-width="0.8504"/>
            <path d="M68.0146 220.3938 L72.9493 220.3938 L72.9493 221.2442 L68.0146 221.2442 Z"
                  stroke="none"/>
            <text x="75.784" xml:space="preserve" font-size="14" y="225.315"
                  stroke="none">DQ112353</text><path d="M68 239.1024 L75.5205 239.1024 L75.5205 239.9528 L68 239.9528 Z"
                  stroke="none"/>
            <text x="78.3551" xml:space="preserve" font-size="14" y="244.0237"
                  stroke="none">D0889723</text><path d="M68.0146 257.8111 L75.6812 257.8111 L75.6812 258.6615 L68.0146 258.6615 Z"
                  stroke="none"/>
            <text x="78.5158" xml:space="preserve" font-size="14" y="262.7324"
                  stroke="none">97274.0</text><path d="M47.4454 304.5827 L52 304.5827 L52 305.4331 L47.4454 305.4331 Z"
                  stroke="none"/>
            <text x="22.096" xml:space="preserve" y="299.4095" stroke="none">NT1.2</text><line stroke-linecap="butt"
                  fill="none" x1="51.6804" x2="51.6804" y1="276.5197"
                  stroke-linejoin="bevel" y2="333.4961" stroke-width="0.8504"/>
            <path d="M52.1056 276.5197 L83.5553 276.5197 L83.5553 277.3701 L52.1056 277.3701 Z"
                  stroke="none"/>
            <text x="86.3899" xml:space="preserve" font-size="14" y="281.441"
                  stroke="none">AJ438173</text><path d="M52.1056 332.6457 L64 332.6457 L64 333.4961 L52.1056 333.4961 Z"
                  stroke="none"/>
            <text x="34.725" xml:space="preserve" y="327.4725" stroke="none">NT1.6</text><line stroke-linecap="butt"
                  fill="none" x1="64.3754" x2="64.3754" y1="313.9371"
                  stroke-linejoin="bevel" y2="352.2048" stroke-width="0.8504"/>
            <path d="M64.8007 313.9371 L71 313.9371 L71 314.7875 L64.8007 314.7875 Z"
                  stroke="none"/>
            <text x="34.9111" xml:space="preserve" y="308.7638" stroke="none">NT1.13</text><line stroke-linecap="butt"
                  fill="none" x1="70.4819" x2="70.4819" y1="295.2284"
                  stroke-linejoin="bevel" y2="333.4961" stroke-width="0.8504"/>
            <path d="M70.9071 295.2284 L89.3404 295.2284 L89.3404 296.0788 L70.9071 296.0788 Z"
                  stroke="none"/>
            <text x="92.175" xml:space="preserve" font-size="14" y="300.1497"
                  stroke="none">AJ438176</text><path d="M70 313.9371 L89.1797 313.9371 L89.1797 314.7875 L70 314.7875 Z"
                  stroke="none"/>
            <text x="92.0143" xml:space="preserve" font-size="14" y="318.8583"
                  stroke="none">AJ438177</text><path d="M70.9071 332.6458 L88.3762 332.6458 L88.3762 333.4962 L70.9071 333.4962 Z"
                  stroke="none"/>
            <text x="91.2108" xml:space="preserve" font-size="14" y="337.567"
                  stroke="none">AB100738</text><path d="M64.8007 351.3544 L89.3404 351.3544 L89.3404 352.2048 L64.8007 352.2048 Z"
                  stroke="none"/>
            <text x="92.175" xml:space="preserve" font-size="14" y="356.2757"
                  stroke="none">M58778</text><path d="M44.5528 370.063 L125.1758 370.063 L125.1758 370.9134 L44.5528 370.9134 Z"
                  stroke="none"/>
            <text x="128.0104" xml:space="preserve" font-size="14" y="374.9843"
                  stroke="none"></text>
        </g>
    </g>
</svg>
