<?xml version="1.0"?>
<!DOCTYPE svg PUBLIC '-//W3C//DTD SVG 1.0//EN'
    'http://www.w3.org/TR/2001/REC-SVG-20010904/DTD/svg10.dtd' >

<svg fill-opacity="1" xmlns:xlink="http://www.w3.org/1999/xlink"
     color-rendering="auto" color-interpolation="auto" stroke="black"
     text-rendering="auto" stroke-linecap="square" stroke-miterlimit="10"
     stroke-opacity="1" shape-rendering="auto" fill="black"
     stroke-dasharray="none" font-weight="normal" stroke-width="1"
     xmlns="http://www.w3.org/2000/svg" font-family="&apos;Dialog&apos;"
     font-style="normal" stroke-linejoin="miter" font-size="12"
     stroke-dashoffset="0" image-rendering="auto">
    <!--Generated by the Batik Graphics2D SVG Generator-->
    <defs id="genericDefs"/>
    <g>
        <g fill="white" stroke="white">
            <rect x="0" width="170" height="279" y="0" stroke="none"/>
            <path fill="black"
                  d="M5 96.5817 L44 96.5817 L44 97.4321 L5 97.4321 Z"
                  stroke="none"/>
        </g>
        <g font-family="&apos;Arial&apos;" font-size="9">
            <text x="8.5039" xml:space="preserve" y="91.4085" stroke="none">NT1.27</text><line stroke-linecap="butt"
                  fill="none" x1="44.0748" x2="44.0748" y1="14.5984"
                  stroke-linejoin="bevel" y2="178.565" stroke-width="0.8504"/>
            <path d="M44.5 14.5984 L86.7454 14.5984 L86.7454 15.4488 L44.5 15.4488 Z"
                  stroke="none"/>
            <text x="89.5801" xml:space="preserve" font-size="14" y="19.5197"
                  stroke="none">AJ276351</text><path d="M44.5 177.7146 L46 177.7146 L46 178.565 L44.5 178.565 Z"
                  stroke="none"/>
            <text x="18.1716" xml:space="preserve" y="172.5414" stroke="none">NT1.1</text><line stroke-linecap="butt"
                  fill="none" x1="46.4213" x2="46.4213" y1="121.0039"
                  stroke-linejoin="bevel" y2="235.2756" stroke-width="0.8504"/>
            <path d="M46.8465 121.0039 L50 121.0039 L50 121.8543 L46.8465 121.8543 Z"
                  stroke="none"/>
            <text x="19.9847" xml:space="preserve" y="115.8307" stroke="none">NT1.2</text><line stroke-linecap="butt"
                  fill="none" x1="49.5691" x2="49.5691" y1="63.7087"
                  stroke-linejoin="bevel" y2="179.1496" stroke-width="0.8504"/>
            <path d="M49.9943 63.7087 L52 63.7087 L52 64.5591 L49.9943 64.5591 Z"
                  stroke="none"/>
            <text x="22.2651" xml:space="preserve" y="58.5354" stroke="none">NT1.3</text><line stroke-linecap="butt"
                  fill="none" x1="51.9156" x2="51.9156" y1="33.3071"
                  stroke-linejoin="bevel" y2="94.9606" stroke-width="0.8504"/>
            <path d="M52.3408 33.3071 L67.4582 33.3071 L67.4582 34.1575 L52.3408 34.1575 Z"
                  stroke="none"/>
            <text x="70.2928" xml:space="preserve" font-size="14" y="38.2283"
                  stroke="none">AB087828</text><path d="M52.3408 94.1102 L53 94.1102 L53 94.9606 L52.3408 94.9606 Z"
                  stroke="none"/>
            <text x="23.4714" xml:space="preserve" y="88.937" stroke="none">NT1.5</text><line stroke-linecap="butt"
                  fill="none" x1="53.1747" x2="53.1747" y1="66.0472"
                  stroke-linejoin="bevel" y2="123.0236" stroke-width="0.8504"/>
            <path d="M53.5999 66.0472 L54 66.0472 L54 66.8976 L53.5999 66.8976 Z"
                  stroke="none"/>
            <text x="24.3255" xml:space="preserve" y="60.874" stroke="none">NT1.6</text><line stroke-linecap="butt"
                  fill="none" x1="53.9759" x2="53.9759" y1="52.0157"
                  stroke-linejoin="bevel" y2="80.9291" stroke-width="0.8504"/>
            <path d="M54.4011 52.0158 L76.9587 52.0158 L76.9587 52.8661 L54.4011 52.8661 Z"
                  stroke="none"/>
            <text x="79.7934" xml:space="preserve" font-size="14" y="56.937"
                  stroke="none">AF418603</text><path d="M54.4011 80.0787 L71 80.0787 L71 80.9291 L54.4011 80.9291 Z"
                  stroke="none"/>
            <text x="35.5748" xml:space="preserve" y="74.9055" stroke="none">NT1.16</text><line stroke-linecap="butt"
                  fill="none" x1="71.1456" x2="71.1456" y1="70.7244"
                  stroke-linejoin="bevel" y2="90.2835" stroke-width="0.8504"/>
            <path d="M71.5708 70.7244 L74.2688 70.7244 L74.2688 71.5748 L71.5708 71.5748 Z"
                  stroke="none"/>
            <text x="77.1035" xml:space="preserve" font-size="14" y="75.6457"
                  stroke="none">AB196784</text><path d="M71.5708 89.4331 L74.6122 89.4331 L74.6122 90.2835 L71.5708 90.2835 Z"
                  stroke="none"/>
            <text x="77.4468" xml:space="preserve" font-size="14" y="94.3543"
                  stroke="none">AB196783</text><path d="M53.5999 122.1732 L55 122.1732 L55 123.0236 L53.5999 123.0236 Z"
                  stroke="none"/>
            <text x="25.5141" xml:space="preserve" y="117" stroke="none">NT1.8</text><line stroke-linecap="butt"
                  fill="none" x1="55.1778" x2="55.1778" y1="108.1417"
                  stroke-linejoin="bevel" y2="137.0551" stroke-width="0.8504"/>
            <path d="M55.603 108.1417 L78.4467 108.1417 L78.4467 108.9921 L55.603 108.9921 Z"
                  stroke="none"/>
            <text x="81.2814" xml:space="preserve" font-size="14" y="113.063"
                  stroke="none">AF418602</text><path d="M55.603 136.2047 L57 136.2047 L57 137.0551 L55.603 137.0551 Z"
                  stroke="none"/>
            <text x="27.6889" xml:space="preserve" y="131.0315" stroke="none">NT1.9</text><line stroke-linecap="butt"
                  fill="none" x1="57.3526" x2="57.3526" y1="126.8504"
                  stroke-linejoin="bevel" y2="146.4095" stroke-width="0.8504"/>
            <path d="M57.7778 126.8504 L71.865 126.8504 L71.865 127.7008 L57.7778 127.7008 Z"
                  stroke="none"/>
            <text x="74.6997" xml:space="preserve" font-size="14" y="131.7717"
                  stroke="none">AB243866</text><path d="M57.7778 145.5591 L86.8026 145.5591 L86.8026 146.4095 L57.7778 146.4095 Z"
                  stroke="none"/>
            <text x="89.6373" xml:space="preserve" font-size="14" y="150.4803"
                  stroke="none">D82065</text><path d="M49.9943 178.2992 L53 178.2992 L53 179.1496 L49.9943 179.1496 Z"
                  stroke="none"/>
            <text x="23.15" xml:space="preserve" y="173.126" stroke="none">NT1.4</text><line stroke-linecap="butt"
                  fill="none" x1="52.7741" x2="52.7741" y1="164.2677"
                  stroke-linejoin="bevel" y2="193.1811" stroke-width="0.8504"/>
            <path d="M53.1993 164.2677 L69.8619 164.2677 L69.8619 165.1181 L53.1993 165.1181 Z"
                  stroke="none"/>
            <text x="72.6966" xml:space="preserve" font-size="14" y="169.189"
                  stroke="none">AF036922</text><path d="M53.1993 192.3307 L55 192.3307 L55 193.1811 L53.1993 193.1811 Z"
                  stroke="none"/>
            <text x="25.0123" xml:space="preserve" y="187.1575" stroke="none">NT1.7</text><line stroke-linecap="butt"
                  fill="none" x1="54.6628" x2="54.6628" y1="182.9764"
                  stroke-linejoin="bevel" y2="202.5354" stroke-width="0.8504"/>
            <path d="M55.088 182.9764 L70.4915 182.9764 L70.4915 183.8268 L55.088 183.8268 Z"
                  stroke="none"/>
            <text x="73.3262" xml:space="preserve" font-size="14" y="187.8976"
                  stroke="none"></text>
            <path d="M55.088 201.6851 L72.3229 201.6851 L72.3229 202.5355 L55.088 202.5355 Z"
                  stroke="none"/>
            <text x="75.1576" xml:space="preserve" font-size="14" y="206.6063"
                  stroke="none"></text>
            <path d="M46.8465 234.4252 L60 234.4252 L60 235.2756 L46.8465 235.2756 Z"
                  stroke="none"/>
            <text x="24.3837" xml:space="preserve" y="229.252" stroke="none">NT1.10</text><line stroke-linecap="butt"
                  fill="none" x1="59.9281" x2="59.9281" y1="220.3937"
                  stroke-linejoin="bevel" y2="249.3071" stroke-width="0.8504"/>
            <path d="M60.3533 220.3937 L72.094 220.3937 L72.094 221.2441 L60.3533 221.2441 Z"
                  stroke="none"/>
            <text x="74.9286" xml:space="preserve" font-size="14" y="225.315"
                  stroke="none">AJ717299</text><path d="M60.3533 248.4567 L65 248.4567 L65 249.3071 L60.3533 249.3071 Z"
                  stroke="none"/>
            <text x="31.2524" xml:space="preserve" y="243.2835" stroke="none">NT1.11</text><line stroke-linecap="butt"
                  fill="none" x1="65.4224" x2="65.4224" y1="239.1024"
                  stroke-linejoin="bevel" y2="258.6615" stroke-width="0.8504"/>
            <path d="M65.8476 239.1024 L69.9764 239.1024 L69.9764 239.9528 L65.8476 239.9528 Z"
                  stroke="none"/>
            <text x="72.8111" xml:space="preserve" font-size="14" y="244.0237"
                  stroke="none">AJ310149</text><path d="M65.8476 257.8111 L76.6153 257.8111 L76.6153 258.6615 L65.8476 258.6615 Z"
                  stroke="none"/>
            <text x="79.45" xml:space="preserve" font-size="14" y="262.7323"
                  stroke="none">X62174</text>
        </g>
    </g>
</svg>
