<?xml version="1.0"?>
<!DOCTYPE svg PUBLIC '-//W3C//DTD SVG 1.0//EN'
    'http://www.w3.org/TR/2001/REC-SVG-20010904/DTD/svg10.dtd' >

<svg fill-opacity="1" xmlns:xlink="http://www.w3.org/1999/xlink"
     color-rendering="auto" color-interpolation="auto" stroke="black"
     text-rendering="auto" stroke-linecap="square" stroke-miterlimit="10"
     stroke-opacity="1" shape-rendering="auto" fill="black"
     stroke-dasharray="none" font-weight="normal" stroke-width="1"
     xmlns="http://www.w3.org/2000/svg" font-family="&apos;Dialog&apos;"
     font-style="normal" stroke-linejoin="miter" font-size="12"
     stroke-dashoffset="0" image-rendering="auto">
    <!--Generated by the Batik Graphics2D SVG Generator-->
    <defs id="genericDefs"/>
    <g>
        <g fill="white" stroke="white">
            <rect x="0" width="190" height="243" y="0" stroke="none"/>
            <path fill="black"
                  d="M5 79.3944 L18 79.3944 L18 80.2448 L5 80.2448 Z"
                  stroke="none"/>
            <circle fill="black" r="1.2756" cx="17.4331" cy="79.3944"
                    stroke="none"/>
            <path fill="black"
                  d="M17.8583 78.544 L18 78.544 L18 79.3944 L17.8583 79.3944 Z"
                  stroke="none"/>
        </g>
        <g font-family="&apos;Arial&apos;" font-size="9">
            <text x="-12.0094" xml:space="preserve" y="73.3708" stroke="none">NT1.2</text><line stroke-linecap="butt"
                  fill="none" x1="17.575" x2="17.575" y1="14.5984"
                  stroke-linejoin="bevel" y2="143.3401" stroke-width="0.8504"/>
            <path d="M18.0002 14.5984 L38.078 14.5984 L38.078 15.4488 L18.0002 15.4488 Z"
                  stroke="none"/>
            <text x="40.9127" xml:space="preserve" font-size="14" y="19.5197"
                  stroke="none">Y10109</text><path d="M18.0002 142.4897 L56 142.4897 L56 143.3401 L18.0002 143.3401 Z"
                  stroke="none"/>
            <text x="23.3347" xml:space="preserve" y="137.3165" stroke="none">NT1.4</text><line stroke-linecap="butt"
                  fill="none" x1="55.4586" x2="55.4586" y1="73.94"
                  stroke-linejoin="bevel" y2="211.8898" stroke-width="0.8504"/>
            <path d="M55.8838 73.94 L63 73.94 L63 74.7904 L55.8838 74.7904 Z"
                  stroke="none"/>
            <text x="32.9915" xml:space="preserve" y="68.7667" stroke="none">NT1.5</text><line stroke-linecap="butt"
                  fill="none" x1="62.6949" x2="62.6949" y1="33.3071"
                  stroke-linejoin="bevel" y2="115.4232" stroke-width="0.8504"/>
            <path d="M63.1201 33.3071 L86.816 33.3071 L86.816 34.1575 L63.1201 34.1575 Z"
                  stroke="none"/>
            <text x="89.6507" xml:space="preserve" font-size="14" y="38.2283"
                  stroke="none">X79731</text><path d="M63.1201 114.5728 L68 114.5728 L68 115.4232 L63.1201 115.4232 Z"
                  stroke="none"/>
            <text x="38.3651" xml:space="preserve" y="109.3996" stroke="none">NT1.6</text><line stroke-linecap="butt"
                  fill="none" x1="68.0156" x2="68.0156" y1="69.5551"
                  stroke-linejoin="bevel" y2="160.441" stroke-width="0.8504"/>
            <path d="M68.4408 69.5551 L73 69.5551 L73 70.4055 L68.4408 70.4055 Z"
                  stroke="none"/>
            <text x="43.1761" xml:space="preserve" y="64.3819" stroke="none">NT1.8</text><line stroke-linecap="butt"
                  fill="none" x1="72.8398" x2="72.8398" y1="52.0157"
                  stroke-linejoin="bevel" y2="87.9449" stroke-width="0.8504"/>
            <path d="M73.265 52.0158 L83.127 52.0158 L83.127 52.8661 L73.265 52.8661 Z"
                  stroke="none"/>
            <text x="85.9617" xml:space="preserve" font-size="14" y="56.937"
                  stroke="none">AJ238567</text><path d="M73.265 87.0945 L77 87.0945 L77 87.9449 L73.265 87.9449 Z"
                  stroke="none"/>
            <text x="41.3391" xml:space="preserve" y="81.9213" stroke="none">NT1.10</text><line stroke-linecap="butt"
                  fill="none" x1="76.8835" x2="76.8835" y1="70.7244"
                  stroke-linejoin="bevel" y2="104.315" stroke-width="0.8504"/>
            <path d="M77.3087 70.7244 L82.4176 70.7244 L82.4176 71.5748 L77.3087 71.5748 Z"
                  stroke="none"/>
            <text x="85.2522" xml:space="preserve" font-size="14" y="75.6457"
                  stroke="none">AB185396</text><path d="M77.3087 103.4646 L78 103.4646 L78 104.3149 L77.3087 104.3149 Z"
                  stroke="none"/>
            <text x="43.9195" xml:space="preserve" y="98.2913" stroke="none">NT1.11</text><line stroke-linecap="butt"
                  fill="none" x1="78.0896" x2="78.0896" y1="89.4331"
                  stroke-linejoin="bevel" y2="118.3465" stroke-width="0.8504"/>
            <path d="M78.5148 89.4331 L83.5527 89.4331 L83.5527 90.2835 L78.5148 90.2835 Z"
                  stroke="none"/>
            <text x="86.3873" xml:space="preserve" font-size="14" y="94.3543"
                  stroke="none">M59061</text><path d="M78.5148 117.4961 L80 117.4961 L80 118.3464 L78.5148 118.3464 Z"
                  stroke="none"/>
            <text x="44.6025" xml:space="preserve" y="112.3228" stroke="none">NT1.14</text><line stroke-linecap="butt"
                  fill="none" x1="80.1469" x2="80.1469" y1="108.1417"
                  stroke-linejoin="bevel" y2="127.7008" stroke-width="0.8504"/>
            <path d="M80.5722 108.1417 L91.1436 108.1417 L91.1436 108.9921 L80.5722 108.9921 Z"
                  stroke="none"/>
            <text x="93.9783" xml:space="preserve" font-size="14" y="113.063"
                  stroke="none">D0022958</text><path d="M80.5722 126.8504 L92.8463 126.8504 L92.8463 127.7008 L80.5722 127.7008 Z"
                  stroke="none"/>
            <text x="95.6809" xml:space="preserve" font-size="14" y="131.7716"
                  stroke="none">X90759</text><path d="M68.4408 159.5906 L71 159.5906 L71 160.441 L68.4408 160.441 Z"
                  stroke="none"/>
            <text x="41.061" xml:space="preserve" y="154.4173" stroke="none">NT1.7</text><line stroke-linecap="butt"
                  fill="none" x1="70.7115" x2="70.7115" y1="145.5591"
                  stroke-linejoin="bevel" y2="174.4725" stroke-width="0.8504"/>
            <path d="M71.1367 145.5591 L78.5866 145.5591 L78.5866 146.4095 L71.1367 146.4095 Z"
                  stroke="none"/>
            <text x="81.4213" xml:space="preserve" font-size="14" y="150.4803"
                  stroke="none">229617.0</text><path d="M71.1367 173.6221 L79 173.6221 L79 174.4725 L71.1367 174.4725 Z"
                  stroke="none"/>
            <text x="43.5829" xml:space="preserve" y="168.4488" stroke="none">NT1.13</text><line stroke-linecap="butt"
                  fill="none" x1="79.1537" x2="79.1537" y1="164.2677"
                  stroke-linejoin="bevel" y2="183.8268" stroke-width="0.8504"/>
            <path d="M79.5789 164.2677 L82.4885 164.2677 L82.4885 165.1181 L79.5789 165.1181 Z"
                  stroke="none"/>
            <text x="85.3232" xml:space="preserve" font-size="14" y="169.189"
                  stroke="none">AM419042</text><path d="M79.5789 182.9764 L89.5828 182.9764 L89.5828 183.8268 L79.5789 183.8268 Z"
                  stroke="none"/>
            <text x="92.4175" xml:space="preserve" font-size="14" y="187.8976"
                  stroke="none">DQ393891</text><path d="M55.8838 211.0394 L74 211.0394 L74 211.8898 L55.8838 211.8898 Z"
                  stroke="none"/>
            <text x="44.6659" xml:space="preserve" y="205.8661" stroke="none">NT1.9</text><line stroke-linecap="butt"
                  fill="none" x1="74.3296" x2="74.3296" y1="201.685"
                  stroke-linejoin="bevel" y2="221.2441" stroke-width="0.8504"/>
            <path d="M74.7548 201.685 L95.0455 201.685 L95.0455 202.5354 L74.7548 202.5354 Z"
                  stroke="none"/>
            <text x="97.8801" xml:space="preserve" font-size="14" y="206.6063"
                  stroke="none">229616.0</text><path d="M74.7548 220.3937 L105.3323 220.3937 L105.3323 221.2441 L74.7548 221.2441 Z"
                  stroke="none"/>
            <text x="108.1669" xml:space="preserve" font-size="14" y="225.315"
                  stroke="none">229583.0</text>
        </g>
    </g>
</svg>
