<?xml version="1.0"?>
<!DOCTYPE svg PUBLIC '-//W3C//DTD SVG 1.0//EN'
    'http://www.w3.org/TR/2001/REC-SVG-20010904/DTD/svg10.dtd' >

<svg fill-opacity="1" xmlns:xlink="http://www.w3.org/1999/xlink"
     color-rendering="auto" color-interpolation="auto" stroke="black"
     text-rendering="auto" stroke-linecap="square" stroke-miterlimit="10"
     stroke-opacity="1" shape-rendering="auto" fill="black"
     stroke-dasharray="none" font-weight="normal" stroke-width="1"
     xmlns="http://www.w3.org/2000/svg" font-family="&apos;Dialog&apos;"
     font-style="normal" stroke-linejoin="miter" font-size="12"
     stroke-dashoffset="0" image-rendering="auto">
    <!--Generated by the Batik Graphics2D SVG Generator-->
    <defs id="genericDefs"/>
    <g>
        <g fill="white" stroke="white">
            <rect x="0" width="204" height="336" y="0" stroke="none"/>
            <path fill="black"
                  d="M5 82.6964 L44 82.6964 L44 83.5468 L5 83.5468 Z"
                  stroke="none"/>
        </g>
        <g font-family="&apos;Arial&apos;" font-size="9">
            <text x="8.5039" xml:space="preserve" y="77.5231" stroke="none">NT1.33</text><line stroke-linecap="butt"
                  fill="none" x1="44.0748" x2="44.0748" y1="14.5984"
                  stroke-linejoin="bevel" y2="150.7943" stroke-width="0.8504"/>
            <path d="M44.5 14.5984 L119.8283 14.5984 L119.8283 15.4488 L44.5 15.4488 Z"
                  stroke="none"/>
            <text x="122.6629" xml:space="preserve" font-size="14" y="19.5197"
                  stroke="none">X80725</text><path d="M44.5 149.9439 L71 149.9439 L71 150.7943 L44.5 150.7943 Z"
                  stroke="none"/>
            <text x="42.6018" xml:space="preserve" y="144.7707" stroke="none">NT1.1</text><line stroke-linecap="butt"
                  fill="none" x1="70.8515" x2="70.8515" y1="78.3248"
                  stroke-linejoin="bevel" y2="222.4134" stroke-width="0.8504"/>
            <path d="M71.2767 78.3248 L85 78.3248 L85 79.1752 L71.2767 79.1752 Z"
                  stroke="none"/>
            <text x="55.3819" xml:space="preserve" y="73.1516" stroke="none">NT1.2</text><line stroke-linecap="butt"
                  fill="none" x1="84.9663" x2="84.9663" y1="33.3071"
                  stroke-linejoin="bevel" y2="124.1929" stroke-width="0.8504"/>
            <path d="M85.3915 33.3071 L108.6194 33.3071 L108.6194 34.1575 L85.3915 34.1575 Z"
                  stroke="none"/>
            <text x="111.4541" xml:space="preserve" font-size="14" y="38.2283"
                  stroke="none">AJO12228</text><path d="M85.3915 123.3425 L86 123.3425 L86 124.1929 L85.3915 124.1929 Z"
                  stroke="none"/>
            <text x="56.3537" xml:space="preserve" y="118.1693" stroke="none">NT1.3</text><line stroke-linecap="butt"
                  fill="none" x1="86.0042" x2="86.0042" y1="91.7717"
                  stroke-linejoin="bevel" y2="155.7638" stroke-width="0.8504"/>
            <path d="M86.4294 91.7717 L93 91.7717 L93 92.622 L86.4294 92.622 Z"
                  stroke="none"/>
            <text x="63.23" xml:space="preserve" y="86.5984" stroke="none">NT1.4</text><line stroke-linecap="butt"
                  fill="none" x1="92.854" x2="92.854" y1="66.0472"
                  stroke-linejoin="bevel" y2="118.3465" stroke-width="0.8504"/>
            <path d="M93.2793 66.0472 L98 66.0472 L98 66.8976 L93.2793 66.8976 Z"
                  stroke="none"/>
            <text x="68.5872" xml:space="preserve" y="60.874" stroke="none">NT1.9</text><line stroke-linecap="butt"
                  fill="none" x1="98.2509" x2="98.2509" y1="52.0157"
                  stroke-linejoin="bevel" y2="80.9291" stroke-width="0.8504"/>
            <path d="M98.6761 52.0158 L105.0907 52.0158 L105.0907 52.8661 L98.6761 52.8661 Z"
                  stroke="none"/>
            <text x="107.9254" xml:space="preserve" font-size="14" y="56.937"
                  stroke="none"></text>
            <path d="M98.6761 80.0787 L101 80.0787 L101 80.9291 L98.6761 80.9291 Z"
                  stroke="none"/>
            <text x="66.9869" xml:space="preserve" y="74.9055" stroke="none">NT1.11</text><line stroke-linecap="butt"
                  fill="none" x1="101.1569" x2="101.1569" y1="70.7244"
                  stroke-linejoin="bevel" y2="90.2835" stroke-width="0.8504"/>
            <path d="M101.5821 70.7244 L110.6952 70.7244 L110.6952 71.5748 L101.5821 71.5748 Z"
                  stroke="none"/>
            <text x="113.5298" xml:space="preserve" font-size="14" y="75.6457"
                  stroke="none"></text>
            <path d="M101.5821 89.4331 L105.0907 89.4331 L105.0907 90.2835 L101.5821 90.2835 Z"
                  stroke="none"/>
            <text x="107.9254" xml:space="preserve" font-size="14" y="94.3543"
                  stroke="none"></text>
            <path d="M93.2793 117.4961 L95 117.4961 L95 118.3464 L93.2793 118.3464 Z"
                  stroke="none"/>
            <text x="64.8113" xml:space="preserve" y="112.3228" stroke="none">NT1.5</text><line stroke-linecap="butt"
                  fill="none" x1="94.5146" x2="94.5146" y1="108.1417"
                  stroke-linejoin="bevel" y2="127.7008" stroke-width="0.8504"/>
            <path d="M94.9398 108.1417 L109.0346 108.1417 L109.0346 108.9921 L94.9398 108.9921 Z"
                  stroke="none"/>
            <text x="111.8692" xml:space="preserve" font-size="14" y="113.063"
                  stroke="none">X95923</text><path d="M94.9398 126.8504 L107.9967 126.8504 L107.9967 127.7008 L94.9398 127.7008 Z"
                  stroke="none"/>
            <text x="110.8314" xml:space="preserve" font-size="14" y="131.7717"
                  stroke="none">AJ012231</text><path d="M86.4294 154.9134 L97 154.9134 L97 155.7638 L86.4294 155.7638 Z"
                  stroke="none"/>
            <text x="67.1474" xml:space="preserve" y="149.7402" stroke="none">NT1.7</text><line stroke-linecap="butt"
                  fill="none" x1="96.7979" x2="96.7979" y1="145.5591"
                  stroke-linejoin="bevel" y2="165.1181" stroke-width="0.8504"/>
            <path d="M97.2231 145.5591 L102.3923 145.5591 L102.3923 146.4095 L97.2231 146.4095 Z"
                  stroke="none"/>
            <text x="105.2269" xml:space="preserve" font-size="14" y="150.4803"
                  stroke="none">AB019582</text><path d="M97.2231 164.2677 L107.9967 164.2677 L107.9967 165.1181 L97.2231 165.1181 Z"
                  stroke="none"/>
            <text x="110.8314" xml:space="preserve" font-size="14" y="169.189"
                  stroke="none">AJ298291</text><path d="M71.2767 221.563 L96 221.563 L96 222.4134 L71.2767 222.4134 Z"
                  stroke="none"/>
            <text x="65.902" xml:space="preserve" y="216.3898" stroke="none">NT1.6</text><line stroke-linecap="butt"
                  fill="none" x1="95.5525" x2="95.5525" y1="182.9764"
                  stroke-linejoin="bevel" y2="261" stroke-width="0.8504"/>
            <path d="M95.9777 182.9764 L106.3361 182.9764 L106.3361 183.8268 L95.9777 183.8268 Z"
                  stroke="none"/>
            <text x="109.1708" xml:space="preserve" font-size="14" y="187.8976"
                  stroke="none">AJ311653</text><path d="M95.9777 260.1496 L97 260.1496 L97 261 L95.9777 261 Z"
                  stroke="none"/>
            <text x="67.7569" xml:space="preserve" y="254.9764" stroke="none">NT1.8</text><line stroke-linecap="butt"
                  fill="none" x1="97.4206" x2="97.4206" y1="229.7481"
                  stroke-linejoin="bevel" y2="291.4016" stroke-width="0.8504"/>
            <path d="M97.8458 229.7481 L104 229.7481 L104 230.5985 L97.8458 230.5985 Z"
                  stroke="none"/>
            <text x="68.5185" xml:space="preserve" y="224.5748" stroke="none">NT1.14</text><line stroke-linecap="butt"
                  fill="none" x1="104.0629" x2="104.0629" y1="211.0394"
                  stroke-linejoin="bevel" y2="249.3071" stroke-width="0.8504"/>
            <path d="M104.4881 211.0394 L106 211.0394 L106 211.8898 L104.4881 211.8898 Z"
                  stroke="none"/>
            <text x="70.3602" xml:space="preserve" y="205.8662" stroke="none">NT1.17</text><line stroke-linecap="butt"
                  fill="none" x1="105.931" x2="105.931" y1="201.6851"
                  stroke-linejoin="bevel" y2="221.2441" stroke-width="0.8504"/>
            <path d="M106.3562 201.6851 L115.2617 201.6851 L115.2617 202.5355 L106.3562 202.5355 Z"
                  stroke="none"/>
            <text x="118.0964" xml:space="preserve" font-size="14" y="206.6063"
                  stroke="none">AB286179</text><path d="M106.3562 220.3938 L119.8283 220.3938 L119.8283 221.2442 L106.3562 221.2442 Z"
                  stroke="none"/>
            <text x="122.6629" xml:space="preserve" font-size="14" y="225.315"
                  stroke="none">AF039167</text><path d="M104.4881 248.4567 L109 248.4567 L109 249.3071 L104.4881 249.3071 Z"
                  stroke="none"/>
            <text x="73.5399" xml:space="preserve" y="243.2835" stroke="none">NT1.22</text><line stroke-linecap="butt"
                  fill="none" x1="109.0446" x2="109.0446" y1="239.1024"
                  stroke-linejoin="bevel" y2="258.6615" stroke-width="0.8504"/>
            <path d="M109.4698 239.1024 L112.9784 239.1024 L112.9784 239.9528 L109.4698 239.9528 Z"
                  stroke="none"/>
            <text x="115.8131" xml:space="preserve" font-size="14" y="244.0237"
                  stroke="none">AM087226</text><path d="M109.4698 257.8111 L115.8844 257.8111 L115.8844 258.6615 L109.4698 258.6615 Z"
                  stroke="none"/>
            <text x="118.7191" xml:space="preserve" font-size="14" y="262.7323"
                  stroke="none">AB100608</text><path d="M97.8458 290.5512 L100 290.5512 L100 291.4016 L97.8458 291.4016 Z"
                  stroke="none"/>
            <text x="64.1595" xml:space="preserve" y="285.378" stroke="none">NT1.10</text><line stroke-linecap="butt"
                  fill="none" x1="99.7039" x2="99.7039" y1="276.5197"
                  stroke-linejoin="bevel" y2="305.4331" stroke-width="0.8504"/>
            <path d="M100.1291 276.5197 L114.0163 276.5197 L114.0163 277.3701 L100.1291 277.3701 Z"
                  stroke="none"/>
            <text x="116.8509" xml:space="preserve" font-size="14" y="281.441"
                  stroke="none">AB091194</text><path d="M100.1291 304.5827 L104 304.5827 L104 305.4331 L100.1291 305.4331 Z"
                  stroke="none"/>
            <text x="67.8694" xml:space="preserve" y="299.4095" stroke="none">NT1.13</text><line stroke-linecap="butt"
                  fill="none" x1="103.4402" x2="103.4402" y1="295.2284"
                  stroke-linejoin="bevel" y2="314.7874" stroke-width="0.8504"/>
            <path d="M103.8654 295.2284 L110.9027 295.2284 L110.9027 296.0788 L103.8654 296.0788 Z"
                  stroke="none"/>
            <text x="113.7374" xml:space="preserve" font-size="14" y="300.1497"
                  stroke="none">AB110498</text><path d="M103.8654 313.9371 L112.3557 313.9371 L112.3557 314.7875 L103.8654 314.7875 Z"
                  stroke="none"/>
            <text x="115.1903" xml:space="preserve" font-size="14" y="318.8583"
                  stroke="none"></text>
        </g>
    </g>
</svg>
