<?xml version="1.0"?>
<!DOCTYPE svg PUBLIC '-//W3C//DTD SVG 1.0//EN'
    'http://www.w3.org/TR/2001/REC-SVG-20010904/DTD/svg10.dtd' >

<svg fill-opacity="1" xmlns:xlink="http://www.w3.org/1999/xlink"
     color-rendering="auto" color-interpolation="auto" stroke="black"
     text-rendering="auto" stroke-linecap="square" stroke-miterlimit="10"
     stroke-opacity="1" shape-rendering="auto" fill="black"
     stroke-dasharray="none" font-weight="normal" stroke-width="1"
     xmlns="http://www.w3.org/2000/svg" font-family="&apos;Dialog&apos;"
     font-style="normal" stroke-linejoin="miter" font-size="12"
     stroke-dashoffset="0" image-rendering="auto">
    <!--Generated by the Batik Graphics2D SVG Generator-->
    <defs id="genericDefs"/>
    <g>
        <g fill="white" stroke="white">
            <rect x="0" width="396" height="298" y="0" stroke="none"/>
            <path fill="black"
                  d="M5 197.1407 L44 197.1407 L44 197.9911 L5 197.9911 Z"
                  stroke="none"/>
        </g>
        <g font-family="&apos;Arial&apos;" font-size="9">
            <text x="8.5039" xml:space="preserve" y="191.9675" stroke="none">NT1.28</text><line stroke-linecap="butt"
                  fill="none" x1="44.088" x2="44.088" y1="126.2657"
                  stroke-linejoin="bevel" y2="268.0157" stroke-width="0.8504"/>
            <path d="M44.5132 126.2657 L49 126.2657 L49 127.1161 L44.5132 127.1161 Z"
                  stroke="none"/>
            <text x="20.5197" xml:space="preserve" y="121.0925" stroke="none">NT1.1</text><line stroke-linecap="butt"
                  fill="none" x1="48.7694" x2="48.7694" y1="63.7087"
                  stroke-linejoin="bevel" y2="189.6732" stroke-width="0.8504"/>
            <path d="M49.1946 63.7087 L61 63.7087 L61 64.5591 L49.1946 64.5591 Z"
                  stroke="none"/>
            <text x="31.5538" xml:space="preserve" y="58.5354" stroke="none">NT1.6</text><line stroke-linecap="butt"
                  fill="none" x1="61.2042" x2="61.2042" y1="23.9528"
                  stroke-linejoin="bevel" y2="104.315" stroke-width="0.8504"/>
            <path d="M61.6294 23.9528 L69 23.9528 L69 24.8032 L61.6294 24.8032 Z"
                  stroke="none"/>
            <text x="33.0629" xml:space="preserve" y="18.7795" stroke="none">NT1.12</text><line stroke-linecap="butt"
                  fill="none" x1="68.5676" x2="68.5676" y1="14.5984"
                  stroke-linejoin="bevel" y2="34.1575" stroke-width="0.8504"/>
            <path d="M68.9928 14.5984 L73.2139 14.5984 L73.2139 15.4488 L68.9928 15.4488 Z"
                  stroke="none"/>
            <text x="76.0486" xml:space="preserve" font-size="14" y="19.5197"
                  stroke="none">X76444</text><path d="M68.9928 33.3071 L73.8966 33.3071 L73.8966 34.1575 L68.9928 34.1575 Z"
                  stroke="none"/>
            <text x="76.7313" xml:space="preserve" font-size="14" y="38.2283"
                  stroke="none">AB292819</text><path d="M61 61.3701 L70 61.3701 L70 62.2205 L61 62.2205 Z"
                  stroke="none"/>
            <text x="34.5085" xml:space="preserve" y="56.1969" stroke="none">NT1.13</text><line stroke-linecap="butt"
                  fill="none" x1="70.0793" x2="70.0793" y1="52.0157"
                  stroke-linejoin="bevel" y2="71.5748" stroke-width="0.8504"/>
            <path d="M70.5045 52.0158 L80.0897 52.0158 L80.0897 52.8661 L70.5045 52.8661 Z"
                  stroke="none"/>
            <text x="82.9243" xml:space="preserve" font-size="14" y="56.937"
                  stroke="none">ABO43852</text><path d="M70.5045 70.7244 L80.8699 70.7244 L80.8699 71.5748 L70.5045 71.5748 Z"
                  stroke="none"/>
            <text x="83.7045" xml:space="preserve" font-size="14" y="75.6457"
                  stroke="none">248306.0</text><path d="M61.6294 103.4646 L63 103.4646 L63 104.315 L61.6294 104.315 Z"
                  stroke="none"/>
            <text x="33.3936" xml:space="preserve" y="98.2913" stroke="none">NT1.9</text><line stroke-linecap="butt"
                  fill="none" x1="63.0573" x2="63.0573" y1="89.4331"
                  stroke-linejoin="bevel" y2="118.3465" stroke-width="0.8504"/>
            <path d="M63.4825 89.4331 L89.3549 89.4331 L89.3549 90.2835 L63.4825 90.2835 Z"
                  stroke="none"/>
            <text x="92.1895" xml:space="preserve" font-size="14" y="94.3543"
                  stroke="none">AF064704</text><path d="M63.4825 117.4961 L64 117.4961 L64 118.3464 L63.4825 118.3464 Z"
                  stroke="none"/>
            <text x="29.6675" xml:space="preserve" y="112.3228" stroke="none">NT1.11</text><line stroke-linecap="butt"
                  fill="none" x1="63.8375" x2="63.8375" y1="108.1417"
                  stroke-linejoin="bevel" y2="127.7008" stroke-width="0.8504"/>
            <path d="M64.2627 108.1417 L74.4818 108.1417 L74.4818 108.9921 L64.2627 108.9921 Z"
                  stroke="none"/>
            <text x="77.3164" xml:space="preserve" font-size="14" y="113.063"
                  stroke="none">X76445</text><path d="M64.2627 126.8504 L84.0883 126.8504 L84.0883 127.7008 L64.2627 127.7008 Z"
                  stroke="none"/>
            <text x="86.923" xml:space="preserve" font-size="14" y="131.7717"
                  stroke="none">AJ493660</text><path d="M49.1946 188.8228 L56 188.8228 L56 189.6732 L49.1946 189.6732 Z"
                  stroke="none"/>
            <text x="26.5798" xml:space="preserve" y="183.6496" stroke="none">NT1.3</text><line stroke-linecap="butt"
                  fill="none" x1="56.2303" x2="56.2303" y1="154.9134"
                  stroke-linejoin="bevel" y2="223.5827" stroke-width="0.8504"/>
            <path d="M56.6555 154.9134 L63 154.9134 L63 155.7638 L56.6555 155.7638 Z"
                  stroke="none"/>
            <text x="27.8055" xml:space="preserve" y="149.7402" stroke="none">NT1.10</text><line stroke-linecap="butt"
                  fill="none" x1="63.3499" x2="63.3499" y1="145.5591"
                  stroke-linejoin="bevel" y2="165.1181" stroke-width="0.8504"/>
            <path d="M63.7751 145.5591 L84.3322 145.5591 L84.3322 146.4095 L63.7751 146.4095 Z"
                  stroke="none"/>
            <text x="87.1668" xml:space="preserve" font-size="14" y="150.4803"
                  stroke="none">ABO42061</text><path d="M63.7751 164.2677 L87.6481 164.2677 L87.6481 165.1181 L63.7751 165.1181 Z"
                  stroke="none"/>
            <text x="90.4828" xml:space="preserve" font-size="14" y="169.189"
                  stroke="none">X76437</text><path d="M56.6555 222.7323 L57 222.7323 L57 223.5827 L56.6555 223.5827 Z"
                  stroke="none"/>
            <text x="27.2402" xml:space="preserve" y="217.5591" stroke="none">NT1.4</text><line stroke-linecap="butt"
                  fill="none" x1="56.8642" x2="56.8642" y1="206.3622"
                  stroke-linejoin="bevel" y2="239.9528" stroke-width="0.8504"/>
            <path d="M57.2894 206.3622 L60 206.3622 L60 207.2126 L57.2894 207.2126 Z"
                  stroke="none"/>
            <text x="30.6719" xml:space="preserve" y="201.189" stroke="none">NT1.5</text><line stroke-linecap="butt"
                  fill="none" x1="60.3753" x2="60.3753" y1="192.3307"
                  stroke-linejoin="bevel" y2="221.2441" stroke-width="0.8504"/>
            <path d="M60.8004 192.3307 L62 192.3307 L62 193.1811 L60.8004 193.1811 Z"
                  stroke="none"/>
            <text x="32.2852" xml:space="preserve" y="187.1575" stroke="none">NT1.7</text><line stroke-linecap="butt"
                  fill="none" x1="61.9357" x2="61.9357" y1="182.9764"
                  stroke-linejoin="bevel" y2="202.5354" stroke-width="0.8504"/>
            <path d="M62.3609 182.9764 L74.3843 182.9764 L74.3843 183.8268 L62.3609 183.8268 Z"
                  stroke="none"/>
            <text x="77.2189" xml:space="preserve" font-size="14" y="187.8976"
                  stroke="none">X76436</text><path d="M62.3609 201.6851 L82.1378 201.6851 L82.1378 202.5355 L62.3609 202.5355 Z"
                  stroke="none"/>
            <text x="84.9724" xml:space="preserve" font-size="14" y="206.6063"
                  stroke="none">BacilluskIulWichiaeJCM11691WAB086897</text><path d="M60.8004 220.3937 L83.4056 220.3937 L83.4056 221.2441 L60.8004 221.2441 Z"
                  stroke="none"/>
            <text x="86.2403" xml:space="preserve" font-size="14" y="225.315"
                  stroke="none">X76440</text><path d="M57.2894 239.1024 L72.1899 239.1024 L72.1899 239.9528 L57.2894 239.9528 Z"
                  stroke="none"/>
            <text x="75.0245" xml:space="preserve" font-size="14" y="244.0236"
                  stroke="none">ABOQ1187</text><path d="M44.5132 267.1654 L51 267.1654 L51 268.0158 L44.5132 268.0158 Z"
                  stroke="none"/>
            <text x="21.8182" xml:space="preserve" y="261.9921" stroke="none">NT1.2</text><line stroke-linecap="butt"
                  fill="none" x1="51.4026" x2="51.4026" y1="257.811"
                  stroke-linejoin="bevel" y2="277.3701" stroke-width="0.8504"/>
            <path d="M51.8278 257.811 L73.0189 257.811 L73.0189 258.6614 L51.8278 258.6614 Z"
                  stroke="none"/>
            <text x="75.8535" xml:space="preserve" font-size="14" y="262.7323"
                  stroke="none">D87035</text><path d="M51.8278 276.5197 L61.7056 276.5197 L61.7056 277.3701 L51.8278 277.3701 Z"
                  stroke="none"/>
            <text x="64.5402" xml:space="preserve" font-size="14" y="281.441"
                  stroke="none">ABO43864</text>
        </g>
    </g>
</svg>
