<?xml version="1.0"?>
<!DOCTYPE svg PUBLIC '-//W3C//DTD SVG 1.0//EN'
    'http://www.w3.org/TR/2001/REC-SVG-20010904/DTD/svg10.dtd' >

<svg fill-opacity="1" xmlns:xlink="http://www.w3.org/1999/xlink"
     color-rendering="auto" color-interpolation="auto" stroke="black"
     text-rendering="auto" stroke-linecap="square" stroke-miterlimit="10"
     stroke-opacity="1" shape-rendering="auto" fill="black"
     stroke-dasharray="none" font-weight="normal" stroke-width="1"
     xmlns="http://www.w3.org/2000/svg" font-family="&apos;Dialog&apos;"
     font-style="normal" stroke-linejoin="miter" font-size="12"
     stroke-dashoffset="0" image-rendering="auto">
    <!--Generated by the Batik Graphics2D SVG Generator-->
    <defs id="genericDefs"/>
    <g>
        <g fill="white" stroke="white">
            <rect x="0" width="183" height="373" y="0" stroke="none"/>
            <path fill="black"
                  d="M5 146.5689 L44 146.5689 L44 147.4193 L5 147.4193 Z"
                  stroke="none"/>
        </g>
        <g font-family="&apos;Arial&apos;" font-size="9">
            <text x="8.5039" xml:space="preserve" y="141.3957" stroke="none">NT1.36</text><line stroke-linecap="butt"
                  fill="none" x1="44.0748" x2="44.0748" y1="64.878"
                  stroke-linejoin="bevel" y2="228.2599" stroke-width="0.8504"/>
            <path d="M44.5 64.878 L46 64.878 L46 65.7283 L44.5 65.7283 Z"
                  stroke="none"/>
            <text x="17.3341" xml:space="preserve" y="59.7047" stroke="none">NT1.1</text><line stroke-linecap="butt"
                  fill="none" x1="45.5837" x2="45.5837" y1="30.9685"
                  stroke-linejoin="bevel" y2="99.6378" stroke-width="0.8504"/>
            <path d="M46.0089 30.9685 L52 30.9685 L52 31.8189 L46.0089 31.8189 Z"
                  stroke="none"/>
            <text x="22.7632" xml:space="preserve" y="25.7953" stroke="none">NT1.7</text><line stroke-linecap="butt"
                  fill="none" x1="52.4137" x2="52.4137" y1="14.5984"
                  stroke-linejoin="bevel" y2="48.189" stroke-width="0.8504"/>
            <path d="M52.8389 14.5984 L87.4088 14.5984 L87.4088 15.4488 L52.8389 15.4488 Z"
                  stroke="none"/>
            <text x="90.2434" xml:space="preserve" font-size="14" y="19.5197"
                  stroke="none">AJ243965</text><path d="M52.8389 47.3386 L67 47.3386 L67 48.189 L52.8389 48.189 Z"
                  stroke="none"/>
            <text x="31.2969" xml:space="preserve" y="42.1654" stroke="none">NT1.17</text><line stroke-linecap="butt"
                  fill="none" x1="66.8677" x2="66.8677" y1="33.3071"
                  stroke-linejoin="bevel" y2="62.2205" stroke-width="0.8504"/>
            <path d="M67.2929 33.3071 L80.1023 33.3071 L80.1023 34.1575 L67.2929 34.1575 Z"
                  stroke="none"/>
            <text x="82.937" xml:space="preserve" font-size="14" y="38.2283"
                  stroke="none">AY188349</text><path d="M67.2929 61.3701 L78 61.3701 L78 62.2205 L67.2929 62.2205 Z"
                  stroke="none"/>
            <text x="42.3227" xml:space="preserve" y="56.1969" stroke="none">NT1.28</text><line stroke-linecap="butt"
                  fill="none" x1="77.9067" x2="77.9067" y1="52.0157"
                  stroke-linejoin="bevel" y2="71.5748" stroke-width="0.8504"/>
            <path d="M78.3319 52.0158 L81.9289 52.0158 L81.9289 52.8661 L78.3319 52.8661 Z"
                  stroke="none"/>
            <text x="84.7636" xml:space="preserve" font-size="14" y="56.937"
                  stroke="none">AJ420200</text><path d="M78.3319 70.7244 L83.6761 70.7244 L83.6761 71.5748 L78.3319 71.5748 Z"
                  stroke="none"/>
            <text x="86.5108" xml:space="preserve" font-size="14" y="75.6457"
                  stroke="none">ABZ59061</text><path d="M46.0089 98.7874 L54 98.7874 L54 99.6378 L46.0089 99.6378 Z"
                  stroke="none"/>
            <text x="24.1795" xml:space="preserve" y="93.6142" stroke="none">NT1.9</text><line stroke-linecap="butt"
                  fill="none" x1="53.8431" x2="53.8431" y1="89.4331"
                  stroke-linejoin="bevel" y2="108.9921" stroke-width="0.8504"/>
            <path d="M54.2684 89.4331 L65.3306 89.4331 L65.3306 90.2835 L54.2684 90.2835 Z"
                  stroke="none"/>
            <text x="68.1653" xml:space="preserve" font-size="14" y="94.3543"
                  stroke="none">AF104671</text><path d="M54.2684 108.1417 L72.0811 108.1417 L72.0811 108.9921 L54.2684 108.9921 Z"
                  stroke="none"/>
            <text x="74.9158" xml:space="preserve" font-size="14" y="113.063"
                  stroke="none">AF104678</text><path d="M44.5 227.4095 L48 227.4095 L48 228.2599 L44.5 228.2599 Z"
                  stroke="none"/>
            <text x="18.3422" xml:space="preserve" y="222.2362" stroke="none">NT1.4</text><line stroke-linecap="butt"
                  fill="none" x1="47.9663" x2="47.9663" y1="126.8504"
                  stroke-linejoin="bevel" y2="328.8189" stroke-width="0.8504"/>
            <path d="M48.3914 126.8504 L61.1215 126.8504 L61.1215 127.7008 L48.3914 127.7008 Z"
                  stroke="none"/>
            <text x="63.9561" xml:space="preserve" font-size="14" y="131.7717"
                  stroke="none">AY485606</text><path d="M48 190.5768 L46 190.5768 L46 191.4272 L48 191.4272 Z"
                  stroke="none"/>
            <text x="16.2376" xml:space="preserve" y="185.4036" stroke="none">NT1.2</text><line stroke-linecap="butt"
                  fill="none" x1="45.822" x2="45.822" y1="145.5591"
                  stroke-linejoin="bevel" y2="236.4449" stroke-width="0.8504"/>
            <path d="M46.2472 145.5591 L68.5867 145.5591 L68.5867 146.4095 L46.2472 146.4095 Z"
                  stroke="none"/>
            <text x="71.4214" xml:space="preserve" font-size="14" y="150.4803"
                  stroke="none">AY188352</text><path d="M46.2472 235.5945 L47 235.5945 L47 236.4449 L46.2472 236.4449 Z"
                  stroke="none"/>
            <text x="17.5216" xml:space="preserve" y="230.4212" stroke="none">NT1.3</text><line stroke-linecap="butt"
                  fill="none" x1="47.1721" x2="47.1721" y1="185.315"
                  stroke-linejoin="bevel" y2="286.7244" stroke-width="0.8504"/>
            <path d="M47.5973 185.315 L49 185.315 L49 186.1654 L47.5973 186.1654 Z"
                  stroke="none"/>
            <text x="19.4542" xml:space="preserve" y="180.1417" stroke="none">NT1.5</text><line stroke-linecap="butt"
                  fill="none" x1="49.1575" x2="49.1575" y1="164.2677"
                  stroke-linejoin="bevel" y2="207.2126" stroke-width="0.8504"/>
            <path d="M49.5827 164.2677 L70.5722 164.2677 L70.5722 165.1181 L49.5827 165.1181 Z"
                  stroke="none"/>
            <text x="73.4068" xml:space="preserve" font-size="14" y="169.189"
                  stroke="none">A3002525</text><path d="M49.5827 206.3622 L52 206.3622 L52 207.2126 L49.5827 207.2126 Z"
                  stroke="none"/>
            <text x="22.4455" xml:space="preserve" y="201.189" stroke="none">NT1.6</text><line stroke-linecap="butt"
                  fill="none" x1="52.096" x2="52.096" y1="182.9764"
                  stroke-linejoin="bevel" y2="230.5984" stroke-width="0.8504"/>
            <path d="M52.5212 182.9764 L71.2075 182.9764 L71.2075 183.8268 L52.5212 183.8268 Z"
                  stroke="none"/>
            <text x="74.0422" xml:space="preserve" font-size="14" y="187.8976"
                  stroke="none">AB002518</text><path d="M52.5212 229.7481 L55 229.7481 L55 230.5985 L52.5212 230.5985 Z"
                  stroke="none"/>
            <text x="20.4673" xml:space="preserve" y="224.5748" stroke="none">NT1.11</text><line stroke-linecap="butt"
                  fill="none" x1="54.6373" x2="54.6373" y1="211.0394"
                  stroke-linejoin="bevel" y2="249.3071" stroke-width="0.8504"/>
            <path d="M55.0625 211.0394 L64 211.0394 L64 211.8898 L55.0625 211.8898 Z"
                  stroke="none"/>
            <text x="28.4642" xml:space="preserve" y="205.8662" stroke="none">NT1.14</text><line stroke-linecap="butt"
                  fill="none" x1="64.0086" x2="64.0086" y1="201.6851"
                  stroke-linejoin="bevel" y2="221.2441" stroke-width="0.8504"/>
            <path d="M64.4338 201.6851 L90.8237 201.6851 L90.8237 202.5355 L64.4338 202.5355 Z"
                  stroke="none"/>
            <text x="93.6584" xml:space="preserve" font-size="14" y="206.6063"
                  stroke="none">ABOOZ516</text><path d="M64.4338 220.3938 L84.5497 220.3938 L84.5497 221.2442 L64.4338 221.2442 Z"
                  stroke="none"/>
            <text x="87.3844" xml:space="preserve" font-size="14" y="225.315"
                  stroke="none">ABOOZSZG</text><path d="M55.0625 248.4567 L63 248.4567 L63 249.3071 L55.0625 249.3071 Z"
                  stroke="none"/>
            <text x="27.0083" xml:space="preserve" y="243.2835" stroke="none">NT1.13</text><line stroke-linecap="butt"
                  fill="none" x1="62.5791" x2="62.5791" y1="239.1024"
                  stroke-linejoin="bevel" y2="258.6614" stroke-width="0.8504"/>
            <path d="M63.0043 239.1024 L75.8932 239.1024 L75.8932 239.9528 L63.0043 239.9528 Z"
                  stroke="none"/>
            <text x="78.7278" xml:space="preserve" font-size="14" y="244.0236"
                  stroke="none"></text>
            <path d="M63.0043 257.8111 L79.8641 257.8111 L79.8641 258.6615 L63.0043 258.6615 Z"
                  stroke="none"/>
            <text x="82.6987" xml:space="preserve" font-size="14" y="262.7323"
                  stroke="none">AB002479</text><path d="M47.5973 285.874 L55 285.874 L55 286.7244 L47.5973 286.7244 Z"
                  stroke="none"/>
            <text x="19.0135" xml:space="preserve" y="280.7008" stroke="none">NT1.10</text><line stroke-linecap="butt"
                  fill="none" x1="54.5579" x2="54.5579" y1="276.5197"
                  stroke-linejoin="bevel" y2="296.0788" stroke-width="0.8504"/>
            <path d="M54.9831 276.5197 L66.6013 276.5197 L66.6013 277.3701 L54.9831 277.3701 Z"
                  stroke="none"/>
            <text x="69.436" xml:space="preserve" font-size="14" y="281.441"
                  stroke="none">AF201899</text><path d="M54.9831 295.2284 L74.8607 295.2284 L74.8607 296.0788 L54.9831 296.0788 Z"
                  stroke="none"/>
            <text x="77.6954" xml:space="preserve" font-size="14" y="300.1497"
                  stroke="none">AB002482</text><path d="M48.3914 327.9685 L53 327.9685 L53 328.8189 L48.3914 328.8189 Z"
                  stroke="none"/>
            <text x="23.1471" xml:space="preserve" y="322.7953" stroke="none">NT1.8</text><line stroke-linecap="butt"
                  fill="none" x1="52.8107" x2="52.8107" y1="313.937"
                  stroke-linejoin="bevel" y2="342.8504" stroke-width="0.8504"/>
            <path d="M53.2359 313.937 L65.3306 313.937 L65.3306 314.7874 L53.2359 314.7874 Z"
                  stroke="none"/>
            <text x="68.1653" xml:space="preserve" font-size="14" y="318.8583"
                  stroke="none">ABOOZ524</text><path d="M53.2359 342 L69 342 L69 342.8504 L53.2359 342.8504 Z"
                  stroke="none"/>
            <text x="33.4676" xml:space="preserve" y="336.8268" stroke="none">NT1.20</text><line stroke-linecap="butt"
                  fill="none" x1="69.012" x2="69.012" y1="332.6457"
                  stroke-linejoin="bevel" y2="352.2048" stroke-width="0.8504"/>
            <path d="M69.4372 332.6457 L68.6662 332.6457 L68.6662 333.4961 L69.4372 333.4961 Z"
                  stroke="none"/>
            <text x="71.5008" xml:space="preserve" font-size="14" y="337.567"
                  stroke="none">AF003929</text><path d="M69.4372 351.3544 L72.7165 351.3544 L72.7165 352.2048 L69.4372 352.2048 Z"
                  stroke="none"/>
            <text x="75.5511" xml:space="preserve" font-size="14" y="356.2757"
                  stroke="none">AF003930</text>
        </g>
    </g>
</svg>
