<?xml version="1.0"?>
<!DOCTYPE svg PUBLIC '-//W3C//DTD SVG 1.0//EN'
    'http://www.w3.org/TR/2001/REC-SVG-20010904/DTD/svg10.dtd' >

<svg fill-opacity="1" xmlns:xlink="http://www.w3.org/1999/xlink"
     color-rendering="auto" color-interpolation="auto" stroke="black"
     text-rendering="auto" stroke-linecap="square" stroke-miterlimit="10"
     stroke-opacity="1" shape-rendering="auto" fill="black"
     stroke-dasharray="none" font-weight="normal" stroke-width="1"
     xmlns="http://www.w3.org/2000/svg" font-family="&apos;Dialog&apos;"
     font-style="normal" stroke-linejoin="miter" font-size="12"
     stroke-dashoffset="0" image-rendering="auto">
    <!--Generated by the Batik Graphics2D SVG Generator-->
    <defs id="genericDefs"/>
    <g>
        <g fill="white" stroke="white">
            <rect x="0" width="173" height="485" y="0" stroke="none"/>
            <path fill="black" d="M5 91.393 L44 91.393 L44 92.2433 L5 92.2433 Z"
                  stroke="none"/>
        </g>
        <g font-family="&apos;Arial&apos;" font-size="9">
            <text x="8.5039" xml:space="preserve" y="86.2197" stroke="none">NT1.49</text><line stroke-linecap="butt"
                  fill="none" x1="44.088" x2="44.088" y1="14.5984"
                  stroke-linejoin="bevel" y2="168.1875" stroke-width="0.8504"/>
            <path d="M44.5132 14.5984 L70.3817 14.5984 L70.3817 15.4488 L44.5132 15.4488 Z"
                  stroke="none"/>
            <text x="73.2163" xml:space="preserve" font-size="14" y="19.5197"
                  stroke="none">AF432145</text><path d="M44.5132 167.3371 L48 167.3371 L48 168.1875 L44.5132 168.1875 Z"
                  stroke="none"/>
            <text x="19.2072" xml:space="preserve" y="162.1639" stroke="none">NT1.1</text><line stroke-linecap="butt"
                  fill="none" x1="47.4569" x2="47.4569" y1="49.6772"
                  stroke-linejoin="bevel" y2="285.8474" stroke-width="0.8504"/>
            <path d="M47.8821 49.6772 L50 49.6772 L50 50.5276 L47.8821 50.5276 Z"
                  stroke="none"/>
            <text x="20.7107" xml:space="preserve" y="44.5039" stroke="none">NT1.7</text><line stroke-linecap="butt"
                  fill="none" x1="50.3611" x2="50.3611" y1="33.3071"
                  stroke-linejoin="bevel" y2="66.8976" stroke-width="0.8504"/>
            <path d="M50.7863 33.3071 L78.0488 33.3071 L78.0488 34.1575 L50.7863 34.1575 Z"
                  stroke="none"/>
            <text x="80.8835" xml:space="preserve" font-size="14" y="38.2283"
                  stroke="none">AY520560</text><path d="M50.7863 66.0472 L60 66.0472 L60 66.8976 L50.7863 66.8976 Z"
                  stroke="none"/>
            <text x="25.8331" xml:space="preserve" y="60.874" stroke="none">NT1.21</text><line stroke-linecap="butt"
                  fill="none" x1="60.0032" x2="60.0032" y1="52.0157"
                  stroke-linejoin="bevel" y2="80.9291" stroke-width="0.8504"/>
            <path d="M60.4284 52.0158 L70.3817 52.0158 L70.3817 52.8661 L60.4284 52.8661 Z"
                  stroke="none"/>
            <text x="73.2164" xml:space="preserve" font-size="14" y="56.937"
                  stroke="none">AJ315983</text><path d="M60.4284 80.0787 L64 80.0787 L64 80.9291 L60.4284 80.9291 Z"
                  stroke="none"/>
            <text x="28.6725" xml:space="preserve" y="74.9055" stroke="none">NT1.23</text><line stroke-linecap="butt"
                  fill="none" x1="64.2433" x2="64.2433" y1="70.7244"
                  stroke-linejoin="bevel" y2="90.2835" stroke-width="0.8504"/>
            <path d="M64.6685 70.7244 L73.2278 70.7244 L73.2278 71.5748 L64.6685 71.5748 Z"
                  stroke="none"/>
            <text x="76.0625" xml:space="preserve" font-size="14" y="75.6457"
                  stroke="none">DQ403810</text><path d="M64.6685 89.4331 L75.9578 89.4331 L75.9578 90.2835 L64.6685 90.2835 Z"
                  stroke="none"/>
            <text x="78.7925" xml:space="preserve" font-size="14" y="94.3543"
                  stroke="none">AJ581121</text><path d="M47.8821 284.9971 L48 284.9971 L48 285.8475 L47.8821 285.8475 Z"
                  stroke="none"/>
            <text x="18.2791" xml:space="preserve" y="279.8238" stroke="none">NT1.2</text><line stroke-linecap="butt"
                  fill="none" x1="47.8635" x2="47.8635" y1="178.8839"
                  stroke-linejoin="bevel" y2="391.9606" stroke-width="0.8504"/>
            <path d="M48.2887 178.8839 L49 178.8839 L49 179.7343 L48.2887 179.7343 Z"
                  stroke="none"/>
            <text x="19.5173" xml:space="preserve" y="173.7106" stroke="none">NT1.4</text><line stroke-linecap="butt"
                  fill="none" x1="49.1413" x2="49.1413" y1="108.1417"
                  stroke-linejoin="bevel" y2="250.4764" stroke-width="0.8504"/>
            <path d="M49.5665 108.1417 L75.7835 108.1417 L75.7835 108.9921 L49.5665 108.9921 Z"
                  stroke="none"/>
            <text x="78.6182" xml:space="preserve" font-size="14" y="113.063"
                  stroke="none">AB006766</text><path d="M49.5665 249.626 L50 249.626 L50 250.4764 L49.5665 250.4764 Z"
                  stroke="none"/>
            <text x="20.0769" xml:space="preserve" y="244.4528" stroke="none">NT1.5</text><line stroke-linecap="butt"
                  fill="none" x1="49.7803" x2="49.7803" y1="192.3307"
                  stroke-linejoin="bevel" y2="307.7717" stroke-width="0.8504"/>
            <path d="M50.2055 192.3307 L51 192.3307 L51 193.1811 L50.2055 193.1811 Z"
                  stroke="none"/>
            <text x="21.3364" xml:space="preserve" y="187.1575" stroke="none">NT1.9</text><line stroke-linecap="butt"
                  fill="none" x1="51" x2="51" y1="150.2362"
                  stroke-linejoin="bevel" y2="235.2756" stroke-width="0.8504"/>
            <path d="M51.4252 150.2362 L53 150.2362 L53 151.0866 L51.4252 151.0866 Z"
                  stroke="none"/>
            <text x="17.6628" xml:space="preserve" y="145.063" stroke="none">NT1.14</text><line stroke-linecap="butt"
                  fill="none" x1="53.2073" x2="53.2073" y1="126.8504"
                  stroke-linejoin="bevel" y2="174.4724" stroke-width="0.8504"/>
            <path d="M53.6325 126.8504 L72.7631 126.8504 L72.7631 127.7008 L53.6325 127.7008 Z"
                  stroke="none"/>
            <text x="75.5978" xml:space="preserve" font-size="14" y="131.7717"
                  stroke="none">DQ011528</text><path d="M53.6325 173.622 L55 173.622 L55 174.4724 L53.6325 174.4724 Z"
                  stroke="none"/>
            <text x="18.8562" xml:space="preserve" y="168.4488" stroke="none">NT1.17</text><line stroke-linecap="butt"
                  fill="none" x1="54.427" x2="54.427" y1="154.9134"
                  stroke-linejoin="bevel" y2="193.1811" stroke-width="0.8504"/>
            <path d="M54.8522 154.9134 L59 154.9134 L59 155.7638 L54.8522 155.7638 Z"
                  stroke="none"/>
            <text x="23.1809" xml:space="preserve" y="149.7401" stroke="none">NT1.20</text><line stroke-linecap="butt"
                  fill="none" x1="58.7253" x2="58.7253" y1="145.559"
                  stroke-linejoin="bevel" y2="165.1181" stroke-width="0.8504"/>
            <path d="M59.1505 145.5591 L69.6847 145.5591 L69.6847 146.4095 L59.1505 146.4095 Z"
                  stroke="none"/>
            <text x="72.5193" xml:space="preserve" font-size="14" y="150.4803"
                  stroke="none">AY567473</text><path d="M59.1505 164.2677 L73.7506 164.2677 L73.7506 165.1181 L59.1505 165.1181 Z"
                  stroke="none"/>
            <text x="76.5852" xml:space="preserve" font-size="14" y="169.189"
                  stroke="none">U58339</text><path d="M54.8522 192.3307 L56 192.3307 L56 193.1811 L54.8522 193.1811 Z"
                  stroke="none"/>
            <text x="20.8178" xml:space="preserve" y="187.1575" stroke="none">NT1.18</text><line stroke-linecap="butt"
                  fill="none" x1="56.4019" x2="56.4019" y1="182.9764"
                  stroke-linejoin="bevel" y2="202.5354" stroke-width="0.8504"/>
            <path d="M56.8271 182.9764 L70.4397 182.9764 L70.4397 183.8268 L56.8271 183.8268 Z"
                  stroke="none"/>
            <text x="73.2744" xml:space="preserve" font-size="14" y="187.8976"
                  stroke="none">AY136116</text><path d="M56.8271 201.685 L73.9829 201.685 L73.9829 202.5354 L56.8271 202.5354 Z"
                  stroke="none"/>
            <text x="76.8175" xml:space="preserve" font-size="14" y="206.6063"
                  stroke="none">AF053734</text><path d="M51.4252 234.4252 L52 234.4252 L52 235.2756 L51.4252 235.2756 Z"
                  stroke="none"/>
            <text x="16.3269" xml:space="preserve" y="229.252" stroke="none">NT1.10</text><line stroke-linecap="butt"
                  fill="none" x1="51.8713" x2="51.8713" y1="220.3937"
                  stroke-linejoin="bevel" y2="249.3071" stroke-width="0.8504"/>
            <path d="M52.2965 220.3937 L69.2781 220.3937 L69.2781 221.2441 L52.2965 221.2441 Z"
                  stroke="none"/>
            <text x="72.1127" xml:space="preserve" font-size="14" y="225.315"
                  stroke="none">M22365</text><path d="M52.2965 248.4567 L53 248.4567 L53 249.3071 L52.2965 249.3071 Z"
                  stroke="none"/>
            <text x="17.5203" xml:space="preserve" y="243.2835" stroke="none">NT1.13</text><line stroke-linecap="butt"
                  fill="none" x1="53.0911" x2="53.0911" y1="239.1024"
                  stroke-linejoin="bevel" y2="258.6614" stroke-width="0.8504"/>
            <path d="M53.5163 239.1024 L71.95 239.1024 L71.95 239.9528 L53.5163 239.9528 Z"
                  stroke="none"/>
            <text x="74.7846" xml:space="preserve" font-size="14" y="244.0236"
                  stroke="none">ABOOS767</text><path d="M53.5163 257.8111 L78.2812 257.8111 L78.2812 258.6615 L53.5163 258.6615 Z"
                  stroke="none"/>
            <text x="81.1158" xml:space="preserve" font-size="14" y="262.7323"
                  stroke="none">AJ426420</text><path d="M50.2055 306.9213 L52 306.9213 L52 307.7717 L50.2055 307.7717 Z"
                  stroke="none"/>
            <text x="17.9917" xml:space="preserve" y="301.748" stroke="none">NT1.11</text><line stroke-linecap="butt"
                  fill="none" x1="52.1617" x2="52.1617" y1="285.874"
                  stroke-linejoin="bevel" y2="328.8189" stroke-width="0.8504"/>
            <path d="M52.5869 285.874 L58 285.874 L58 286.7244 L52.5869 286.7244 Z"
                  stroke="none"/>
            <text x="22.3281" xml:space="preserve" y="280.7008" stroke="none">NT1.19</text><line stroke-linecap="butt"
                  fill="none" x1="57.9121" x2="57.9121" y1="276.5197"
                  stroke-linejoin="bevel" y2="296.0788" stroke-width="0.8504"/>
            <path d="M58.3373 276.5197 L82.3471 276.5197 L82.3471 277.3701 L58.3373 277.3701 Z"
                  stroke="none"/>
            <text x="85.1817" xml:space="preserve" font-size="14" y="281.441"
                  stroke="none">AF001375</text><path d="M58.3373 295.2284 L83.1603 295.2284 L83.1603 296.0788 L58.3373 296.0788 Z"
                  stroke="none"/>
            <text x="85.9949" xml:space="preserve" font-size="14" y="300.1497"
                  stroke="none">X93021</text><path d="M52.5869 327.9685 L54 327.9685 L54 328.8189 L52.5869 328.8189 Z"
                  stroke="none"/>
            <text x="18.6239" xml:space="preserve" y="322.7953" stroke="none">NT1.16</text><line stroke-linecap="butt"
                  fill="none" x1="54.1947" x2="54.1947" y1="313.937"
                  stroke-linejoin="bevel" y2="342.8504" stroke-width="0.8504"/>
            <path d="M54.6199 313.937 L77.2357 313.937 L77.2357 314.7874 L54.6199 314.7874 Z"
                  stroke="none"/>
            <text x="80.0703" xml:space="preserve" font-size="14" y="318.8583"
                  stroke="none">A8006769</text><path d="M54.6199 342 L64 342 L64 342.8504 L54.6199 342.8504 Z"
                  stroke="none"/>
            <text x="28.5062" xml:space="preserve" y="336.8268" stroke="none">NT1.22</text><line stroke-linecap="butt"
                  fill="none" x1="64.011" x2="64.011" y1="332.6457"
                  stroke-linejoin="bevel" y2="352.2047" stroke-width="0.8504"/>
            <path d="M64.4362 332.6457 L74.3895 332.6457 L74.3895 333.4961 L64.4362 333.4961 Z"
                  stroke="none"/>
            <text x="77.2242" xml:space="preserve" font-size="14" y="337.567"
                  stroke="none">AJ306890</text><path d="M64.4362 351.3544 L80.0818 351.3544 L80.0818 352.2048 L64.4362 352.2048 Z"
                  stroke="none"/>
            <text x="82.9165" xml:space="preserve" font-size="14" y="356.2756"
                  stroke="none">X67023</text><path d="M48.2887 391.1103 L49 391.1103 L49 391.9607 L48.2887 391.9607 Z"
                  stroke="none"/>
            <text x="19.2585" xml:space="preserve" y="385.9371" stroke="none">NT1.3</text><line stroke-linecap="butt"
                  fill="none" x1="48.909" x2="48.909" y1="370.063"
                  stroke-linejoin="bevel" y2="413.0079" stroke-width="0.8504"/>
            <path d="M49.3342 370.063 L68.8715 370.063 L68.8715 370.9135 L49.3342 370.9135 Z"
                  stroke="none"/>
            <text x="71.7061" xml:space="preserve" font-size="14" y="374.9843"
                  stroke="none">AJ295154</text><path d="M49.3342 412.1576 L50 412.1576 L50 413.008 L49.3342 413.008 Z"
                  stroke="none"/>
            <text x="20.246" xml:space="preserve" y="406.9843" stroke="none">NT1.6</text><line stroke-linecap="butt"
                  fill="none" x1="49.8964" x2="49.8964" y1="388.7717"
                  stroke-linejoin="bevel" y2="436.3937" stroke-width="0.8504"/>
            <path d="M50.3216 388.7717 L73.5182 388.7717 L73.5182 389.6221 L50.3216 389.6221 Z"
                  stroke="none"/>
            <text x="76.3529" xml:space="preserve" font-size="14" y="393.693"
                  stroke="none">Y12579</text><path d="M50.3216 435.5434 L51 435.5434 L51 436.3938 L50.3216 436.3938 Z"
                  stroke="none"/>
            <text x="20.9298" xml:space="preserve" y="430.3701" stroke="none">NT1.8</text><line stroke-linecap="butt"
                  fill="none" x1="50.5935" x2="50.5935" y1="416.8347"
                  stroke-linejoin="bevel" y2="455.1024" stroke-width="0.8504"/>
            <path d="M51.0187 416.8347 L52 416.8347 L52 417.6852 L51.0187 417.6852 Z"
                  stroke="none"/>
            <text x="16.657" xml:space="preserve" y="411.6615" stroke="none">NT1.12</text><line stroke-linecap="butt"
                  fill="none" x1="52.1617" x2="52.1617" y1="407.4804"
                  stroke-linejoin="bevel" y2="427.0394" stroke-width="0.8504"/>
            <path d="M52.5869 407.4804 L70.1493 407.4804 L70.1493 408.3308 L52.5869 408.3308 Z"
                  stroke="none"/>
            <text x="72.984" xml:space="preserve" font-size="14" y="412.4016"
                  stroke="none">X67022</text><path d="M52.5869 426.1891 L74.2733 426.1891 L74.2733 427.0395 L52.5869 427.0395 Z"
                  stroke="none"/>
            <text x="77.108" xml:space="preserve" font-size="14" y="431.1103"
                  stroke="none">AY130994</text><path d="M51.0187 454.2521 L54 454.2521 L54 455.1025 L51.0187 455.1025 Z"
                  stroke="none"/>
            <text x="18.1644" xml:space="preserve" y="449.0789" stroke="none">NT1.15</text><line stroke-linecap="butt"
                  fill="none" x1="53.7881" x2="53.7881" y1="444.8977"
                  stroke-linejoin="bevel" y2="464.4568" stroke-width="0.8504"/>
            <path d="M54.2133 444.8978 L71.7177 444.8978 L71.7177 445.7482 L54.2133 445.7482 Z"
                  stroke="none"/>
            <text x="74.5523" xml:space="preserve" font-size="14" y="449.819"
                  stroke="none">AJ608704</text><path d="M54.2133 463.6064 L73.344 463.6064 L73.344 464.4568 L54.2133 464.4568 Z"
                  stroke="none"/>
            <text x="76.1787" xml:space="preserve" font-size="14" y="468.5277"
                  stroke="none">AY839869</text>
        </g>
    </g>
</svg>
