<?xml version="1.0"?>
<!DOCTYPE svg PUBLIC '-//W3C//DTD SVG 1.0//EN'
    'http://www.w3.org/TR/2001/REC-SVG-20010904/DTD/svg10.dtd' >

<svg fill-opacity="1" xmlns:xlink="http://www.w3.org/1999/xlink"
     color-rendering="auto" color-interpolation="auto" stroke="black"
     text-rendering="auto" stroke-linecap="square" stroke-miterlimit="10"
     stroke-opacity="1" shape-rendering="auto" fill="black"
     stroke-dasharray="none" font-weight="normal" stroke-width="1"
     xmlns="http://www.w3.org/2000/svg" font-family="&apos;Dialog&apos;"
     font-style="normal" stroke-linejoin="miter" font-size="12"
     stroke-dashoffset="0" image-rendering="auto">
    <!--Generated by the Batik Graphics2D SVG Generator-->
    <defs id="genericDefs"/>
    <g>
        <g fill="white" stroke="white">
            <rect x="0" width="234" height="242" y="0" stroke="none"/>
            <path fill="black"
                  d="M5 43.8174 L44 43.8174 L44 44.6678 L5 44.6678 Z"
                  stroke="none"/>
        </g>
        <g font-family="&apos;Arial&apos;" font-size="9">
            <text x="8.5039" xml:space="preserve" y="38.6442" stroke="none">NT1.23</text><line stroke-linecap="butt"
                  fill="none" x1="44.0748" x2="44.0748" y1="14.5984"
                  stroke-linejoin="bevel" y2="73.0364" stroke-width="0.8504"/>
            <path d="M44.5 14.5984 L145.7524 14.5984 L145.7524 15.4488 L44.5 15.4488 Z"
                  stroke="none"/>
            <text x="148.5871" xml:space="preserve" font-size="14" y="19.5197"
                  stroke="none"></text>
            <path d="M44.5 72.186 L44 72.186 L44 73.0364 L44.5 73.0364 Z"
                  stroke="none"/>
            <text x="16.1308" xml:space="preserve" y="67.0128" stroke="none">NT1.1</text><line stroke-linecap="butt"
                  fill="none" x1="44.3805" x2="44.3805" y1="33.3071"
                  stroke-linejoin="bevel" y2="111.9154" stroke-width="0.8504"/>
            <path d="M44.8057 33.3071 L54.6547 33.3071 L54.6547 34.1575 L44.8057 34.1575 Z"
                  stroke="none"/>
            <text x="57.4893" xml:space="preserve" font-size="14" y="38.2283"
                  stroke="none">ABOO4717</text><path d="M44.8057 111.065 L48 111.065 L48 111.9154 L44.8057 111.9154 Z"
                  stroke="none"/>
            <text x="18.1587" xml:space="preserve" y="105.8917" stroke="none">NT1.2</text><line stroke-linecap="butt"
                  fill="none" x1="47.7431" x2="47.7431" y1="52.0157"
                  stroke-linejoin="bevel" y2="170.9646" stroke-width="0.8504"/>
            <path d="M48.1683 52.0158 L64.437 52.0158 L64.437 52.8661 L48.1683 52.8661 Z"
                  stroke="none"/>
            <text x="67.2716" xml:space="preserve" font-size="14" y="56.937"
                  stroke="none">ABZ74908</text><path d="M48.1683 170.1142 L56 170.1142 L56 170.9646 L48.1683 170.9646 Z"
                  stroke="none"/>
            <text x="26.3729" xml:space="preserve" y="164.9409" stroke="none">NT1.4</text><line stroke-linecap="butt"
                  fill="none" x1="55.997" x2="55.997" y1="129.189"
                  stroke-linejoin="bevel" y2="211.8898" stroke-width="0.8504"/>
            <path d="M56.4221 129.189 L67 129.189 L67 130.0394 L56.4221 130.0394 Z"
                  stroke="none"/>
            <text x="37.0459" xml:space="preserve" y="124.0157" stroke="none">NT1.6</text><line stroke-linecap="butt"
                  fill="none" x1="66.6964" x2="66.6964" y1="98.7874"
                  stroke-linejoin="bevel" y2="160.4409" stroke-width="0.8504"/>
            <path d="M67.1215 98.7874 L71 98.7874 L71 99.6378 L67.1215 99.6378 Z"
                  stroke="none"/>
            <text x="41.02" xml:space="preserve" y="93.6142" stroke="none">NT1.7</text><line stroke-linecap="butt"
                  fill="none" x1="70.6704" x2="70.6704" y1="80.0787"
                  stroke-linejoin="bevel" y2="118.3465" stroke-width="0.8504"/>
            <path d="M71.0956 80.0787 L75 80.0787 L75 80.9291 L71.0956 80.9291 Z"
                  stroke="none"/>
            <text x="39.1001" xml:space="preserve" y="74.9055" stroke="none">NT1.10</text><line stroke-linecap="butt"
                  fill="none" x1="74.6445" x2="74.6445" y1="70.7244"
                  stroke-linejoin="bevel" y2="90.2835" stroke-width="0.8504"/>
            <path d="M75.0697 70.7244 L78.1934 70.7244 L78.1934 71.5748 L75.0697 71.5748 Z"
                  stroke="none"/>
            <text x="81.028" xml:space="preserve" font-size="14" y="75.6457"
                  stroke="none">ABZ34027</text><path d="M75.0697 89.4331 L79.4161 89.4331 L79.4161 90.2835 L75.0697 90.2835 Z"
                  stroke="none"/>
            <text x="82.2508" xml:space="preserve" font-size="14" y="94.3543"
                  stroke="none">A8234026</text><path d="M71.0956 117.4961 L79 117.4961 L79 118.3464 L71.0956 118.3464 Z"
                  stroke="none"/>
            <text x="43.0477" xml:space="preserve" y="112.3228" stroke="none">NT1.16</text><line stroke-linecap="butt"
                  fill="none" x1="78.6185" x2="78.6185" y1="108.1417"
                  stroke-linejoin="bevel" y2="127.7008" stroke-width="0.8504"/>
            <path d="M79.0438 108.1417 L83.0845 108.1417 L83.0845 108.9921 L79.0438 108.9921 Z"
                  stroke="none"/>
            <text x="85.9192" xml:space="preserve" font-size="14" y="113.063"
                  stroke="none">ABOO4721</text><path d="M79.0438 126.8504 L86.1415 126.8504 L86.1415 127.7008 L79.0438 127.7008 Z"
                  stroke="none"/>
            <text x="88.9761" xml:space="preserve" font-size="14" y="131.7717"
                  stroke="none">AB234025</text><path d="M67.1215 159.5906 L72 159.5906 L72 160.441 L67.1215 160.441 Z"
                  stroke="none"/>
            <text x="41.9238" xml:space="preserve" y="154.4173" stroke="none">NT1.8</text><line stroke-linecap="butt"
                  fill="none" x1="71.5875" x2="71.5875" y1="145.5591"
                  stroke-linejoin="bevel" y2="174.4724" stroke-width="0.8504"/>
            <path d="M72.0127 145.5591 L77.2763 145.5591 L77.2763 146.4095 L72.0127 146.4095 Z"
                  stroke="none"/>
            <text x="80.1109" xml:space="preserve" font-size="14" y="150.4803"
                  stroke="none">AB007415</text><path d="M72.0127 173.6221 L75 173.6221 L75 174.4725 L72.0127 174.4725 Z"
                  stroke="none"/>
            <text x="40.4745" xml:space="preserve" y="168.4488" stroke="none">NT1.11</text><line stroke-linecap="butt"
                  fill="none" x1="74.6445" x2="74.6445" y1="164.2677"
                  stroke-linejoin="bevel" y2="183.8268" stroke-width="0.8504"/>
            <path d="M75.0697 164.2677 L79.4161 164.2677 L79.4161 165.1181 L75.0697 165.1181 Z"
                  stroke="none"/>
            <text x="82.2508" xml:space="preserve" font-size="14" y="169.189"
                  stroke="none">ABOO4723</text><path d="M75.0697 182.9764 L87.9757 182.9764 L87.9757 183.8268 L75.0697 183.8268 Z"
                  stroke="none"/>
            <text x="90.8103" xml:space="preserve" font-size="14" y="187.8976"
                  stroke="none">AY962574</text><path d="M56.4221 211.0394 L73 211.0394 L73 211.8898 L56.4221 211.8898 Z"
                  stroke="none"/>
            <text x="42.8409" xml:space="preserve" y="205.8661" stroke="none">NT1.9</text><line stroke-linecap="butt"
                  fill="none" x1="72.5046" x2="72.5046" y1="201.685"
                  stroke-linejoin="bevel" y2="221.2441" stroke-width="0.8504"/>
            <path d="M72.9298 201.685 L75.4421 201.685 L75.4421 202.5354 L72.9298 202.5354 Z"
                  stroke="none"/>
            <text x="78.2767" xml:space="preserve" font-size="14" y="206.6063"
                  stroke="none">ABZ34028</text><path d="M72.9298 220.3937 L78.1934 220.3937 L78.1934 221.2441 L72.9298 221.2441 Z"
                  stroke="none"/>
            <text x="81.028" xml:space="preserve" font-size="14" y="225.315"
                  stroke="none">Y17229</text>
        </g>
    </g>
</svg>
