<?xml version="1.0"?>
<!DOCTYPE svg PUBLIC '-//W3C//DTD SVG 1.0//EN'
    'http://www.w3.org/TR/2001/REC-SVG-20010904/DTD/svg10.dtd' >

<svg fill-opacity="1" xmlns:xlink="http://www.w3.org/1999/xlink"
     color-rendering="auto" color-interpolation="auto" stroke="black"
     text-rendering="auto" stroke-linecap="square" stroke-miterlimit="10"
     stroke-opacity="1" shape-rendering="auto" fill="black"
     stroke-dasharray="none" font-weight="normal" stroke-width="1"
     xmlns="http://www.w3.org/2000/svg" font-family="&apos;Dialog&apos;"
     font-style="normal" stroke-linejoin="miter" font-size="12"
     stroke-dashoffset="0" image-rendering="auto">
    <!--Generated by the Batik Graphics2D SVG Generator-->
    <defs id="genericDefs"/>
    <g>
        <g fill="white" stroke="white">
            <rect x="0" width="195" height="429" y="0" stroke="none"/>
            <path fill="black"
                  d="M5 130.2719 L44 130.2719 L44 131.1223 L5 131.1223 Z"
                  stroke="none"/>
        </g>
        <g font-family="&apos;Arial&apos;" font-size="9">
            <text x="8.5039" xml:space="preserve" y="125.0987" stroke="none">NT1.42</text><line stroke-linecap="butt"
                  fill="none" x1="44.0087" x2="44.0087" y1="14.5984"
                  stroke-linejoin="bevel" y2="245.9454" stroke-width="0.8504"/>
            <path d="M44.4339 14.5984 L108.1175 14.5984 L108.1175 15.4488 L44.4339 15.4488 Z"
                  stroke="none"/>
            <text x="110.9522" xml:space="preserve" font-size="14" y="19.5197"
                  stroke="none">X80725</text><path d="M44.4339 245.095 L67 245.095 L67 245.9454 L44.4339 245.9454 Z"
                  stroke="none"/>
            <text x="39.086" xml:space="preserve" y="239.9218" stroke="none">NT1.1</text><line stroke-linecap="butt"
                  fill="none" x1="67.3357" x2="67.3357" y1="137.6664"
                  stroke-linejoin="bevel" y2="353.374" stroke-width="0.8504"/>
            <path d="M67.7609 137.6664 L72 137.6664 L72 138.5168 L67.7609 138.5168 Z"
                  stroke="none"/>
            <text x="42.3032" xml:space="preserve" y="132.4931" stroke="none">NT1.3</text><line stroke-linecap="butt"
                  fill="none" x1="71.9537" x2="71.9537" y1="33.3071"
                  stroke-linejoin="bevel" y2="242.876" stroke-width="0.8504"/>
            <path d="M72.3789 33.3071 L95.3291 33.3071 L95.3291 34.1575 L72.3789 34.1575 Z"
                  stroke="none"/>
            <text x="98.1638" xml:space="preserve" font-size="14" y="38.2284"
                  stroke="none">AY557615</text><path d="M72.3789 242.0256 L73 242.0256 L73 242.876 L72.3789 242.876 Z"
                  stroke="none"/>
            <text x="43.0401" xml:space="preserve" y="236.8524" stroke="none">NT1.4</text><line stroke-linecap="butt"
                  fill="none" x1="72.6642" x2="72.6642" y1="179.4685"
                  stroke-linejoin="bevel" y2="305.4331" stroke-width="0.8504"/>
            <path d="M73.0893 179.4685 L79 179.4685 L79 180.3189 L73.0893 180.3189 Z"
                  stroke="none"/>
            <text x="49.1711" xml:space="preserve" y="174.2953" stroke="none">NT1.6</text><line stroke-linecap="butt"
                  fill="none" x1="78.8215" x2="78.8215" y1="91.7717"
                  stroke-linejoin="bevel" y2="268.0157" stroke-width="0.8504"/>
            <path d="M79.2467 91.7717 L83 91.7717 L83 92.622 L79.2467 92.622 Z"
                  stroke="none"/>
            <text x="53.4207" xml:space="preserve" y="86.5984" stroke="none">NT1.9</text><line stroke-linecap="butt"
                  fill="none" x1="83.0843" x2="83.0843" y1="52.0157"
                  stroke-linejoin="bevel" y2="132.378" stroke-width="0.8504"/>
            <path d="M83.5095 52.0158 L93.9082 52.0158 L93.9082 52.8661 L83.5095 52.8661 Z"
                  stroke="none"/>
            <text x="96.7429" xml:space="preserve" font-size="14" y="56.937"
                  stroke="none"></text>
            <path d="M83 70.7244 L96.7501 70.7244 L96.7501 71.5748 L83 71.5748 Z"
                  stroke="none"/>
            <text x="99.5847" xml:space="preserve" font-size="14" y="75.6457"
                  stroke="none">AJ298291</text><path d="M83.5095 131.5276 L81 131.5276 L81 132.378 L83.5095 132.378 Z"
                  stroke="none"/>
            <text x="51.4209" xml:space="preserve" y="126.3543" stroke="none">NT1.7</text><line stroke-linecap="butt"
                  fill="none" x1="81.0714" x2="81.0714" y1="98.7874"
                  stroke-linejoin="bevel" y2="165.1181" stroke-width="0.8504"/>
            <path d="M81.4966 98.7874 L84 98.7874 L84 99.6378 L81.4966 99.6378 Z"
                  stroke="none"/>
            <text x="48.2504" xml:space="preserve" y="93.6142" stroke="none">NT1.10</text><line stroke-linecap="butt"
                  fill="none" x1="83.7948" x2="83.7948" y1="89.4331"
                  stroke-linejoin="bevel" y2="108.9921" stroke-width="0.8504"/>
            <path d="M84.22 89.4331 L103.1443 89.4331 L103.1443 90.2835 L84.22 90.2835 Z"
                  stroke="none"/>
            <text x="105.9789" xml:space="preserve" font-size="14" y="94.3543"
                  stroke="none">AJ519986</text><path d="M84.22 108.1417 L101.6049 108.1417 L101.6049 108.9921 L84.22 108.9921 Z"
                  stroke="none"/>
            <text x="104.4396" xml:space="preserve" font-size="14" y="113.063"
                  stroke="none">AJ300185</text><path d="M81.4966 164.2677 L86 164.2677 L86 165.1181 L81.4966 165.1181 Z"
                  stroke="none"/>
            <text x="50.303" xml:space="preserve" y="159.0945" stroke="none">NT1.12</text><line stroke-linecap="butt"
                  fill="none" x1="85.8078" x2="85.8078" y1="126.8504"
                  stroke-linejoin="bevel" y2="202.5354" stroke-width="0.8504"/>
            <path d="M86.233 126.8504 L102.789 126.8504 L102.789 127.7008 L86.233 127.7008 Z"
                  stroke="none"/>
            <text x="105.6237" xml:space="preserve" font-size="14" y="131.7717"
                  stroke="none">M26601</text><path d="M86.233 201.685 L87 201.685 L87 202.5354 L86.233 202.5354 Z"
                  stroke="none"/>
            <text x="50.9474" xml:space="preserve" y="196.5118" stroke="none">NT1.13</text><line stroke-linecap="butt"
                  fill="none" x1="86.5183" x2="86.5183" y1="173.622"
                  stroke-linejoin="bevel" y2="230.5984" stroke-width="0.8504"/>
            <path d="M86.9435 173.622 L88 173.622 L88 174.4724 L86.9435 174.4724 Z"
                  stroke="none"/>
            <text x="51.9212" xml:space="preserve" y="168.4488" stroke="none">NT1.14</text><line stroke-linecap="butt"
                  fill="none" x1="87.4656" x2="87.4656" y1="154.9134"
                  stroke-linejoin="bevel" y2="193.1811" stroke-width="0.8504"/>
            <path d="M87.8908 154.9134 L93 154.9134 L93 155.7638 L87.8908 155.7638 Z"
                  stroke="none"/>
            <text x="56.8944" xml:space="preserve" y="149.7401" stroke="none">NT1.20</text><line stroke-linecap="butt"
                  fill="none" x1="92.4389" x2="92.4389" y1="145.559"
                  stroke-linejoin="bevel" y2="165.1181" stroke-width="0.8504"/>
            <path d="M92.8641 145.5591 L102.3154 145.5591 L102.3154 146.4095 L92.8641 146.4095 Z"
                  stroke="none"/>
            <text x="105.1501" xml:space="preserve" font-size="14" y="150.4803"
                  stroke="none"></text>
            <path d="M92.8641 164.2677 L101.605 164.2677 L101.605 165.1181 L92.8641 165.1181 Z"
                  stroke="none"/>
            <text x="104.4396" xml:space="preserve" font-size="14" y="169.189"
                  stroke="none">AY550263</text><path d="M87.8908 192.3307 L91 192.3307 L91 193.1811 L87.8908 193.1811 Z"
                  stroke="none"/>
            <text x="55.197" xml:space="preserve" y="187.1575" stroke="none">NT1.18</text><line stroke-linecap="butt"
                  fill="none" x1="90.7811" x2="90.7811" y1="182.9764"
                  stroke-linejoin="bevel" y2="202.5354" stroke-width="0.8504"/>
            <path d="M91.2063 182.9764 L94.9739 182.9764 L94.9739 183.8268 L91.2063 183.8268 Z"
                  stroke="none"/>
            <text x="97.8086" xml:space="preserve" font-size="14" y="187.8976"
                  stroke="none"></text>
            <path d="M91.2063 201.685 L98.171 201.685 L98.171 202.5354 L91.2063 202.5354 Z"
                  stroke="none"/>
            <text x="101.0057" xml:space="preserve" font-size="14" y="206.6063"
                  stroke="none">X95918</text><path d="M86.9435 229.748 L92 229.748 L92 230.5984 L86.9435 230.5984 Z"
                  stroke="none"/>
            <text x="56.7364" xml:space="preserve" y="224.5748" stroke="none">NT1.19</text><line stroke-linecap="butt"
                  fill="none" x1="92.3204" x2="92.3204" y1="220.3937"
                  stroke-linejoin="bevel" y2="239.9528" stroke-width="0.8504"/>
            <path d="M92.7456 220.3937 L101.3681 220.3937 L101.3681 221.2441 L92.7456 221.2441 Z"
                  stroke="none"/>
            <text x="104.2028" xml:space="preserve" font-size="14" y="225.315"
                  stroke="none">M59158</text><path d="M92.7456 239.1024 L102.9075 239.1024 L102.9075 239.9528 L92.7456 239.9528 Z"
                  stroke="none"/>
            <text x="105.7421" xml:space="preserve" font-size="14" y="244.0236"
                  stroke="none">AJO12229</text><path d="M79.2467 267.1654 L82 267.1654 L82 268.0158 L79.2467 268.0158 Z"
                  stroke="none"/>
            <text x="51.8813" xml:space="preserve" y="261.9921" stroke="none">NT1.8</text><line stroke-linecap="butt"
                  fill="none" x1="81.545" x2="81.545" y1="257.811"
                  stroke-linejoin="bevel" y2="277.3701" stroke-width="0.8504"/>
            <path d="M81.9702 257.811 L99.5919 257.811 L99.5919 258.6614 L81.9702 258.6614 Z"
                  stroke="none"/>
            <text x="102.4266" xml:space="preserve" font-size="14" y="262.7323"
                  stroke="none">AJO12228</text><path d="M81.9702 276.5197 L101.0128 276.5197 L101.0128 277.3701 L81.9702 277.3701 Z"
                  stroke="none"/>
            <text x="103.8475" xml:space="preserve" font-size="14" y="281.441"
                  stroke="none">DQB46687</text><path d="M73.0893 304.5827 L85 304.5827 L85 305.4331 L73.0893 305.4331 Z"
                  stroke="none"/>
            <text x="51.0457" xml:space="preserve" y="299.4095" stroke="none">NT1.11</text><line stroke-linecap="butt"
                  fill="none" x1="85.2157" x2="85.2157" y1="295.2284"
                  stroke-linejoin="bevel" y2="314.7874" stroke-width="0.8504"/>
            <path d="M85.6409 295.2284 L93.7897 295.2284 L93.7897 296.0788 L85.6409 296.0788 Z"
                  stroke="none"/>
            <text x="96.6244" xml:space="preserve" font-size="14" y="300.1496"
                  stroke="none">DQ411038</text><path d="M85.6409 313.937 L97.2237 313.937 L97.2237 314.7874 L85.6409 314.7874 Z"
                  stroke="none"/>
            <text x="100.0583" xml:space="preserve" font-size="14" y="318.8583"
                  stroke="none">239766.0</text><path d="M67.7609 352.5237 L72 352.5237 L72 353.3741 L67.7609 353.3741 Z"
                  stroke="none"/>
            <text x="42.0141" xml:space="preserve" y="347.3504" stroke="none">NT1.2</text><line stroke-linecap="butt"
                  fill="none" x1="71.5985" x2="71.5985" y1="332.6457"
                  stroke-linejoin="bevel" y2="373.252" stroke-width="0.8504"/>
            <path d="M72.0237 332.6457 L94.9739 332.6457 L94.9739 333.4961 L72.0237 333.4961 Z"
                  stroke="none"/>
            <text x="97.8086" xml:space="preserve" font-size="14" y="337.567"
                  stroke="none">AY987368</text><path d="M72.0237 372.4016 L74 372.4016 L74 373.252 L72.0237 373.252 Z"
                  stroke="none"/>
            <text x="44.2634" xml:space="preserve" y="367.2284" stroke="none">NT1.5</text><line stroke-linecap="butt"
                  fill="none" x1="73.9667" x2="73.9667" y1="351.3544"
                  stroke-linejoin="bevel" y2="394.2993" stroke-width="0.8504"/>
            <path d="M74.3919 351.3544 L90.0006 351.3544 L90.0006 352.2048 L74.3919 352.2048 Z"
                  stroke="none"/>
            <text x="92.8353" xml:space="preserve" font-size="14" y="356.2756"
                  stroke="none">AY544768</text><path d="M74.3919 393.4489 L88 393.4489 L88 394.2993 L74.3919 394.2993 Z"
                  stroke="none"/>
            <text x="52.3155" xml:space="preserve" y="388.2757" stroke="none">NT1.15</text><line stroke-linecap="butt"
                  fill="none" x1="87.9392" x2="87.9392" y1="379.4174"
                  stroke-linejoin="bevel" y2="408.3307" stroke-width="0.8504"/>
            <path d="M88.3644 379.4174 L90 379.4174 L90 380.2678 L88.3644 380.2678 Z"
                  stroke="none"/>
            <text x="54.0261" xml:space="preserve" y="374.2442" stroke="none">NT1.16</text><line stroke-linecap="butt"
                  fill="none" x1="89.5969" x2="89.5969" y1="370.063"
                  stroke-linejoin="bevel" y2="389.6221" stroke-width="0.8504"/>
            <path d="M90.0221 370.063 L98.5262 370.063 L98.5262 370.9135 L90.0221 370.9135 Z"
                  stroke="none"/>
            <text x="101.3609" xml:space="preserve" font-size="14" y="374.9843"
                  stroke="none">AJ311653</text><path d="M90.0221 388.7717 L108.1175 388.7717 L108.1175 389.6221 L90.0221 389.6221 Z"
                  stroke="none"/>
            <text x="110.9522" xml:space="preserve" font-size="14" y="393.693"
                  stroke="none"></text>
            <path d="M88.3644 407.4804 L104.3284 407.4804 L104.3284 408.3308 L88.3644 408.3308 Z"
                  stroke="none"/>
            <text x="107.163" xml:space="preserve" font-size="14" y="412.4016"
                  stroke="none">AJ010481</text>
        </g>
    </g>
</svg>
