<?xml version="1.0" encoding="UTF-8"?>
<svg xmlns="http://www.w3.org/2000/svg">
 <g>
  <g>
   <g>
    <circle stroke="black" stroke-width="0.5" fill="#aaffff" cx="200.0" cy="303.0" r="1.0"/>
    <text stroke="none" x="200.0" y="303.0" font-size="10.0" font-family="helvetica">NT1.1</text>
   </g>
   <g>
    <circle stroke="black" stroke-width="0.5" fill="#aaffff" cx="230.0" cy="384.0" r="1.0"/>
    <text stroke="none" x="230.0" y="384.0" font-size="10.0" font-family="helvetica">NT1.2</text>
   </g>
   <g>
    <circle stroke="black" stroke-width="0.5" fill="#aaffff" cx="247.0" cy="419.0" r="1.0"/>
    <text stroke="none" x="247.0" y="419.0" font-size="10.0" font-family="helvetica">NT1.3</text>
   </g>
   <g>
    <circle stroke="black" stroke-width="0.5" fill="#aaffff" cx="262.0" cy="221.0" r="1.0"/>
    <text stroke="none" x="262.0" y="221.0" font-size="10.0" font-family="helvetica">NT1.4</text>
   </g>
   <g>
    <circle stroke="black" stroke-width="0.5" fill="#aaffff" cx="264.0" cy="219.0" r="1.0"/>
    <text stroke="none" x="264.0" y="219.0" font-size="10.0" font-family="helvetica">NT1.5</text>
   </g>
   <g>
    <circle stroke="black" stroke-width="0.5" fill="#aaffff" cx="269.0" cy="219.0" r="1.0"/>
    <text stroke="none" x="269.0" y="219.0" font-size="20.0" font-family="helvetica">_._: Microlunatus ginsengisoli Gsoil 633T (AB245389)</text>
   </g>
   <g>
    <circle stroke="black" stroke-width="0.5" fill="#aaffff" cx="271.0" cy="453.0" r="1.0"/>
    <text stroke="none" x="271.0" y="453.0" font-size="10.0" font-family="helvetica">NT1.7</text>
   </g>
   <g>
    <circle stroke="black" stroke-width="0.5" fill="#aaffff" cx="277.0" cy="482.0" r="1.0"/>
    <text stroke="none" x="277.0" y="482.0" font-size="10.0" font-family="helvetica">NT1.8</text>
   </g>
   <g>
    <circle stroke="black" stroke-width="0.5" fill="#aaffff" cx="286.0" cy="143.0" r="1.0"/>
    <text stroke="none" x="286.0" y="143.0" font-size="10.0" font-family="helvetica">NT1.9</text>
   </g>
   <g>
    <circle stroke="black" stroke-width="0.5" fill="#aaffff" cx="293.0" cy="143.0" r="1.0"/>
    <text stroke="none" x="293.0" y="143.0" font-size="20.0" font-family="helvetica"/>
   </g>
   <g>
    <circle stroke="black" stroke-width="0.5" fill="#aaffff" cx="303.0" cy="510.0" r="1.0"/>
    <text stroke="none" x="303.0" y="510.0" font-size="20.0" font-family="helvetica">73</text>
   </g>
   <g>
    <circle stroke="black" stroke-width="0.5" fill="#aaffff" cx="310.0" cy="511.0" r="1.0"/>
    <text stroke="none" x="310.0" y="511.0" font-size="20.0" font-family="helvetica"/>
   </g>
   <g>
    <circle stroke="black" stroke-width="0.5" fill="#aaffff" cx="313.0" cy="200.0" r="1.0"/>
    <text stroke="none" x="313.0" y="200.0" font-size="10.0" font-family="helvetica">NT1.13</text>
   </g>
   <g>
    <circle stroke="black" stroke-width="0.5" fill="#aaffff" cx="315.0" cy="198.0" r="1.0"/>
    <text stroke="none" x="315.0" y="198.0" font-size="10.0" font-family="helvetica">NT1.14</text>
   </g>
   <g>
    <circle stroke="black" stroke-width="0.5" fill="#aaffff" cx="321.0" cy="198.0" r="1.0"/>
    <text stroke="none" x="321.0" y="198.0" font-size="20.0" font-family="helvetica"/>
   </g>
   <g>
    <circle stroke="black" stroke-width="0.5" fill="#aaffff" cx="328.0" cy="87.0" r="1.0"/>
    <text stroke="none" x="328.0" y="87.0" font-size="20.0" font-family="helvetica">—.</text>
   </g>
   <g>
    <circle stroke="black" stroke-width="0.5" fill="#aaffff" cx="336.0" cy="87.0" r="1.0"/>
    <text stroke="none" x="336.0" y="87.0" font-size="20.0" font-family="helvetica"/>
   </g>
   <g>
    <circle stroke="black" stroke-width="0.5" fill="#aaffff" cx="350.0" cy="298.0" r="1.0"/>
    <text stroke="none" x="350.0" y="298.0" font-size="20.0" font-family="helvetica">100</text>
   </g>
   <g>
    <circle stroke="black" stroke-width="0.5" fill="#aaffff" cx="352.0" cy="227.0" r="1.0"/>
    <text stroke="none" x="352.0" y="227.0" font-size="20.0" font-family="helvetica">96</text>
   </g>
   <g>
    <circle stroke="black" stroke-width="0.5" fill="#aaffff" cx="356.0" cy="298.0" r="1.0"/>
    <text stroke="none" x="356.0" y="298.0" font-size="20.0" font-family="helvetica"/>
   </g>
   <g>
    <circle stroke="black" stroke-width="0.5" fill="#aaffff" cx="358.0" cy="228.0" r="1.0"/>
    <text stroke="none" x="358.0" y="228.0" font-size="20.0" font-family="helvetica"/>
   </g>
   <g>
    <circle stroke="black" stroke-width="0.5" fill="#aaffff" cx="384.0" cy="175.0" r="1.0"/>
    <text stroke="none" x="384.0" y="175.0" font-size="20.0" font-family="helvetica">Microlunatus panaciterrae Gsoil 954T (ABZ71051)</text>
   </g>
   <g>
    <circle stroke="black" stroke-width="0.5" fill="#aaffff" cx="385.0" cy="52.0" r="1.0"/>
    <text stroke="none" x="385.0" y="52.0" font-size="10.0" font-family="helvetica">NT1.23</text>
   </g>
   <g>
    <circle stroke="black" stroke-width="0.5" fill="#aaffff" cx="385.0" cy="121.0" r="1.0"/>
    <text stroke="none" x="385.0" y="121.0" font-size="20.0" font-family="helvetica">100</text>
   </g>
   <g>
    <circle stroke="black" stroke-width="0.5" fill="#aaffff" cx="391.0" cy="52.0" r="1.0"/>
    <text stroke="none" x="391.0" y="52.0" font-size="20.0" font-family="helvetica"/>
   </g>
   <g>
    <circle stroke="black" stroke-width="0.5" fill="#aaffff" cx="391.0" cy="122.0" r="1.0"/>
    <text stroke="none" x="391.0" y="122.0" font-size="20.0" font-family="helvetica"/>
   </g>
   <g>
    <circle stroke="black" stroke-width="0.5" fill="#aaffff" cx="399.0" cy="140.0" r="1.0"/>
    <text stroke="none" x="399.0" y="140.0" font-size="20.0" font-family="helvetica">Friedmanniella Iacustris DSM 11465T (AJ132943)</text>
   </g>
   <g>
    <circle stroke="black" stroke-width="0.5" fill="#aaffff" cx="407.0" cy="69.0" r="1.0"/>
    <text stroke="none" x="407.0" y="69.0" font-size="20.0" font-family="helvetica">Friedmanniella spumicola ACM 5121T (AF062535)</text>
   </g>
   <g>
    <circle stroke="black" stroke-width="0.5" fill="#aaffff" cx="419.0" cy="34.0" r="1.0"/>
    <text stroke="none" x="419.0" y="34.0" font-size="20.0" font-family="helvetica"/>
   </g>
   <g>
    <circle stroke="black" stroke-width="0.5" fill="#aaffff" cx="425.0" cy="210.0" r="1.0"/>
    <text stroke="none" x="425.0" y="210.0" font-size="20.0" font-family="helvetica"/>
   </g>
   <g>
    <circle stroke="black" stroke-width="0.5" fill="#aaffff" cx="425.0" cy="387.0" r="1.0"/>
    <text stroke="none" x="425.0" y="387.0" font-size="20.0" font-family="helvetica">Luteococcus japonicus DSM 10546T (278208)</text>
   </g>
   <g>
    <circle stroke="black" stroke-width="0.5" fill="#aaffff" cx="427.0" cy="246.0" r="1.0"/>
    <text stroke="none" x="427.0" y="246.0" font-size="20.0" font-family="helvetica">Microlunatus phosphovorus DSM 10555T (278207)</text>
   </g>
   <g>
    <circle stroke="black" stroke-width="0.5" fill="#aaffff" cx="431.0" cy="104.0" r="1.0"/>
    <text stroke="none" x="431.0" y="104.0" font-size="20.0" font-family="helvetica">FriedmannielIa capsulata ACM 5120T (AF084529)</text>
   </g>
   <g>
    <circle stroke="black" stroke-width="0.5" fill="#aaffff" cx="431.0" cy="316.0" r="1.0"/>
    <text stroke="none" x="431.0" y="316.0" font-size="20.0" font-family="helvetica">Propionicimonas paludicola WdT (AB078858)</text>
   </g>
   <g>
    <circle stroke="black" stroke-width="0.5" fill="#aaffff" cx="433.0" cy="493.0" r="1.0"/>
    <text stroke="none" x="433.0" y="493.0" font-size="20.0" font-family="helvetica"/>
   </g>
   <g>
    <circle stroke="black" stroke-width="0.5" fill="#aaffff" cx="458.0" cy="528.0" r="1.0"/>
    <text stroke="none" x="458.0" y="528.0" font-size="20.0" font-family="helvetica">Tessaracoccus bendigoensis ACM 5119T(AF038504)</text>
   </g>
   <g>
    <circle stroke="black" stroke-width="0.5" fill="#aaffff" cx="462.0" cy="351.0" r="1.0"/>
    <text stroke="none" x="462.0" y="351.0" font-size="20.0" font-family="helvetica">Propioniferax innocua ATCC 49929T (AF227165)</text>
   </g>
   <g>
    <circle stroke="black" stroke-width="0.5" fill="#aaffff" cx="488.0" cy="280.0" r="1.0"/>
    <text stroke="none" x="488.0" y="280.0" font-size="20.0" font-family="helvetica">Micropruina glycogenica L92T (AB012607)</text>
   </g>
   <g>
    <circle stroke="black" stroke-width="0.5" fill="#aaffff" cx="502.0" cy="457.0" r="1.0"/>
    <text stroke="none" x="502.0" y="457.0" font-size="20.0" font-family="helvetica">Propionimicrobium lymphophilum DSM 4903T (AJOO3056)</text>
   </g>
   <g>
    <circle stroke="black" stroke-width="0.5" fill="#aaffff" cx="525.0" cy="422.0" r="1.0"/>
    <text stroke="none" x="525.0" y="422.0" font-size="20.0" font-family="helvetica">Propionibacterium freudenreichil subsp. shermanil DSM 4902T (Y10819)</text>
   </g>
   <g>
    <circle stroke="black" stroke-width="0.5" fill="#aaffff" cx="525.0" cy="564.0" r="1.0"/>
    <text stroke="none" x="525.0" y="564.0" font-size="20.0" font-family="helvetica">Aeriscardovia aeriphila T6T (AY174107)</text>
   </g>
   <g>
    <circle stroke="black" stroke-width="0.5" fill="#aaffff" cx="6.0" cy="433.0" r="1.0"/>
    <text stroke="none" x="6.0" y="433.0" font-size="10.0" font-family="helvetica">NT1.42</text>
   </g>
   <line stroke="black" x1="391.0" y1="52.0" x2="385.0" y2="52.0" stroke-width="0.5"/>
   <line stroke="black" x1="419.0" y1="34.0" x2="385.0" y2="52.0" stroke-width="0.5"/>
   <line stroke="black" x1="407.0" y1="69.0" x2="385.0" y2="52.0" stroke-width="0.5"/>
   <line stroke="black" x1="336.0" y1="87.0" x2="328.0" y2="87.0" stroke-width="0.5"/>
   <line stroke="black" x1="293.0" y1="143.0" x2="286.0" y2="143.0" stroke-width="0.5"/>
   <line stroke="black" x1="391.0" y1="122.0" x2="385.0" y2="121.0" stroke-width="0.5"/>
   <line stroke="black" x1="399.0" y1="140.0" x2="385.0" y2="121.0" stroke-width="0.5"/>
   <line stroke="black" x1="431.0" y1="104.0" x2="385.0" y2="121.0" stroke-width="0.5"/>
   <line stroke="black" x1="269.0" y1="219.0" x2="264.0" y2="219.0" stroke-width="0.5"/>
   <line stroke="black" x1="321.0" y1="198.0" x2="315.0" y2="198.0" stroke-width="0.5"/>
   <line stroke="black" x1="358.0" y1="228.0" x2="352.0" y2="227.0" stroke-width="0.5"/>
   <line stroke="black" x1="384.0" y1="175.0" x2="315.0" y2="198.0" stroke-width="0.5"/>
   <line stroke="black" x1="427.0" y1="246.0" x2="352.0" y2="227.0" stroke-width="0.5"/>
   <line stroke="black" x1="356.0" y1="298.0" x2="350.0" y2="298.0" stroke-width="0.5"/>
   <line stroke="black" x1="431.0" y1="316.0" x2="350.0" y2="298.0" stroke-width="0.5"/>
   <line stroke="black" x1="488.0" y1="280.0" x2="350.0" y2="298.0" stroke-width="0.5"/>
   <line stroke="black" x1="310.0" y1="511.0" x2="303.0" y2="510.0" stroke-width="0.5"/>
   <line stroke="black" x1="462.0" y1="351.0" x2="230.0" y2="384.0" stroke-width="0.5"/>
   <line stroke="black" x1="433.0" y1="493.0" x2="303.0" y2="510.0" stroke-width="0.5"/>
   <line stroke="black" x1="458.0" y1="528.0" x2="303.0" y2="510.0" stroke-width="0.5"/>
   <line stroke="black" x1="502.0" y1="457.0" x2="277.0" y2="482.0" stroke-width="0.5"/>
   <line stroke="black" x1="525.0" y1="422.0" x2="271.0" y2="453.0" stroke-width="0.5"/>
   <line stroke="black" x1="385.0" y1="52.0" x2="328.0" y2="87.0" stroke-width="0.5"/>
   <line stroke="black" x1="328.0" y1="87.0" x2="286.0" y2="143.0" stroke-width="0.5"/>
   <line stroke="black" x1="328.0" y1="87.0" x2="385.0" y2="121.0" stroke-width="0.5"/>
   <line stroke="black" x1="286.0" y1="143.0" x2="264.0" y2="219.0" stroke-width="0.5"/>
   <line stroke="black" x1="286.0" y1="143.0" x2="313.0" y2="200.0" stroke-width="0.5"/>
   <line stroke="black" x1="313.0" y1="200.0" x2="352.0" y2="227.0" stroke-width="0.5"/>
   <line stroke="black" x1="313.0" y1="200.0" x2="315.0" y2="198.0" stroke-width="0.5"/>
   <line stroke="black" x1="262.0" y1="221.0" x2="264.0" y2="219.0" stroke-width="0.5"/>
   <line stroke="black" x1="262.0" y1="221.0" x2="200.0" y2="303.0" stroke-width="0.5"/>
   <line stroke="black" x1="262.0" y1="221.0" x2="350.0" y2="298.0" stroke-width="0.5"/>
   <line stroke="black" x1="200.0" y1="303.0" x2="230.0" y2="384.0" stroke-width="0.5"/>
   <line stroke="black" x1="230.0" y1="384.0" x2="247.0" y2="419.0" stroke-width="0.5"/>
   <line stroke="black" x1="247.0" y1="419.0" x2="271.0" y2="453.0" stroke-width="0.5"/>
   <line stroke="black" x1="271.0" y1="453.0" x2="277.0" y2="482.0" stroke-width="0.5"/>
   <line stroke="black" x1="277.0" y1="482.0" x2="303.0" y2="510.0" stroke-width="0.5"/>
   <line stroke="black" x1="6.0" y1="433.0" x2="525.0" y2="564.0" stroke-width="0.5"/>
   <line stroke="black" x1="6.0" y1="433.0" x2="200.0" y2="303.0" stroke-width="0.5"/>
   <line stroke="black" x1="425.0" y1="387.0" x2="247.0" y2="419.0" stroke-width="0.5"/>
   <line stroke="black" x1="425.0" y1="210.0" x2="352.0" y2="227.0" stroke-width="0.5"/>
  </g>
 </g>
</svg>
