<?xml version="1.0" encoding="UTF-8"?>
<svg xmlns="http://www.w3.org/2000/svg">
 <g>
  <g>
   <g>
    <circle stroke="black" stroke-width="0.5" fill="#aaffff" cx="0.0" cy="294.0" r="1.0"/>
    <text stroke="none" x="0.0" y="294.0" font-size="20.0" font-family="helvetica"/>
   </g>
   <g>
    <circle stroke="black" stroke-width="0.5" fill="#aaffff" cx="25.0" cy="294.0" r="1.0"/>
    <text stroke="none" x="25.0" y="294.0" font-size="10.0" font-family="helvetica">NT1.2</text>
   </g>
   <g>
    <circle stroke="black" stroke-width="0.5" fill="#aaffff" cx="51.0" cy="404.0" r="1.0"/>
    <text stroke="none" x="51.0" y="404.0" font-size="10.0" font-family="helvetica">NT1.3</text>
   </g>
   <g>
    <circle stroke="black" stroke-width="0.5" fill="#aaffff" cx="58.0" cy="193.0" r="1.0"/>
    <text stroke="none" x="58.0" y="193.0" font-size="10.0" font-family="helvetica">NT1.4</text>
   </g>
   <g>
    <circle stroke="black" stroke-width="0.5" fill="#aaffff" cx="62.0" cy="484.0" r="1.0"/>
    <text stroke="none" x="62.0" y="484.0" font-size="10.0" font-family="helvetica">NT1.5</text>
   </g>
   <g>
    <circle stroke="black" stroke-width="0.5" fill="#aaffff" cx="76.0" cy="568.0" r="1.0"/>
    <text stroke="none" x="76.0" y="568.0" font-size="10.0" font-family="helvetica">NT1.6</text>
   </g>
   <g>
    <circle stroke="black" stroke-width="0.5" fill="#aaffff" cx="80.0" cy="336.0" r="1.0"/>
    <text stroke="none" x="80.0" y="336.0" font-size="10.0" font-family="helvetica">NT1.7</text>
   </g>
   <g>
    <circle stroke="black" stroke-width="0.5" fill="#aaffff" cx="83.0" cy="149.0" r="1.0"/>
    <text stroke="none" x="83.0" y="149.0" font-size="20.0" font-family="helvetica"/>
   </g>
   <g>
    <circle stroke="black" stroke-width="0.5" fill="#aaffff" cx="84.0" cy="613.0" r="1.0"/>
    <text stroke="none" x="84.0" y="613.0" font-size="10.0" font-family="helvetica">NT1.9</text>
   </g>
   <g>
    <circle stroke="black" stroke-width="0.5" fill="#aaffff" cx="91.0" cy="525.0" r="1.0"/>
    <text stroke="none" x="91.0" y="525.0" font-size="10.0" font-family="helvetica">NT1.10</text>
   </g>
   <g>
    <circle stroke="black" stroke-width="0.5" fill="#aaffff" cx="103.0" cy="431.0" r="1.0"/>
    <text stroke="none" x="103.0" y="431.0" font-size="10.0" font-family="helvetica">NT1.11</text>
   </g>
   <g>
    <circle stroke="black" stroke-width="0.5" fill="#aaffff" cx="125.0" cy="302.0" r="1.0"/>
    <text stroke="none" x="125.0" y="302.0" font-size="10.0" font-family="helvetica">NT1.12</text>
   </g>
   <g>
    <circle stroke="black" stroke-width="0.5" fill="#aaffff" cx="157.0" cy="324.0" r="1.0"/>
    <text stroke="none" x="157.0" y="324.0" font-size="20.0" font-family="helvetica"> K. sandramycini KACC 20249T (AY253864)</text>
   </g>
   <g>
    <circle stroke="black" stroke-width="0.5" fill="#aaffff" cx="172.0" cy="590.0" r="1.0"/>
    <text stroke="none" x="172.0" y="590.0" font-size="20.0" font-family="helvetica"> K. f/avida KACC 20148T (AY253863)</text>
   </g>
   <g>
    <circle stroke="black" stroke-width="0.5" fill="#aaffff" cx="179.0" cy="412.0" r="1.0"/>
    <text stroke="none" x="179.0" y="412.0" font-size="20.0" font-family="helvetica">‘K. ginsengisoli Gsoil 001 (AB245391)</text>
   </g>
   <g>
    <circle stroke="black" stroke-width="0.5" fill="#aaffff" cx="187.0" cy="502.0" r="1.0"/>
    <text stroke="none" x="187.0" y="502.0" font-size="20.0" font-family="helvetica">K. karoonensis Q41T (AY995146)</text>
   </g>
   <g>
    <circle stroke="black" stroke-width="0.5" fill="#aaffff" cx="194.0" cy="636.0" r="1.0"/>
    <text stroke="none" x="194.0" y="636.0" font-size="20.0" font-family="helvetica">K. alba YIM 319757(AY08262)</text>
   </g>
   <g>
    <circle stroke="black" stroke-width="0.5" fill="#aaffff" cx="217.0" cy="235.0" r="1.0"/>
    <text stroke="none" x="217.0" y="235.0" font-size="20.0" font-family="helvetica">K. solani DSA1T (AY253862)</text>
   </g>
   <g>
    <circle stroke="black" stroke-width="0.5" fill="#aaffff" cx="223.0" cy="457.0" r="1.0"/>
    <text stroke="none" x="223.0" y="457.0" font-size="20.0" font-family="helvetica">K. koreensis KACC 20250T (AY253865)</text>
   </g>
   <g>
    <circle stroke="black" stroke-width="0.5" fill="#aaffff" cx="228.0" cy="368.0" r="1.0"/>
    <text stroke="none" x="228.0" y="368.0" font-size="20.0" font-family="helvetica">K. antibiotica YIM 31530T (A3082063)</text>
   </g>
   <g>
    <circle stroke="black" stroke-width="0.5" fill="#aaffff" cx="244.0" cy="547.0" r="1.0"/>
    <text stroke="none" x="244.0" y="547.0" font-size="20.0" font-family="helvetica">K. lupini LU14T(AJ811962)</text>
   </g>
   <g>
    <circle stroke="black" stroke-width="0.5" fill="#aaffff" cx="300.0" cy="279.0" r="1.0"/>
    <text stroke="none" x="300.0" y="279.0" font-size="20.0" font-family="helvetica">K. yunnanensis YIM 30006T (AY082061)</text>
   </g>
   <line stroke="black" x1="83.0" y1="149.0" x2="58.0" y2="193.0" stroke-width="0.5"/>
   <line stroke="black" x1="0.0" y1="294.0" x2="25.0" y2="294.0" stroke-width="0.5"/>
   <line stroke="black" x1="217.0" y1="235.0" x2="58.0" y2="193.0" stroke-width="0.5"/>
   <line stroke="black" x1="179.0" y1="412.0" x2="103.0" y2="431.0" stroke-width="0.5"/>
   <line stroke="black" x1="228.0" y1="368.0" x2="80.0" y2="336.0" stroke-width="0.5"/>
   <line stroke="black" x1="223.0" y1="457.0" x2="103.0" y2="431.0" stroke-width="0.5"/>
   <line stroke="black" x1="172.0" y1="590.0" x2="84.0" y2="613.0" stroke-width="0.5"/>
   <line stroke="black" x1="187.0" y1="502.0" x2="91.0" y2="525.0" stroke-width="0.5"/>
   <line stroke="black" x1="194.0" y1="636.0" x2="84.0" y2="613.0" stroke-width="0.5"/>
   <line stroke="black" x1="300.0" y1="279.0" x2="125.0" y2="302.0" stroke-width="0.5"/>
   <line stroke="black" x1="244.0" y1="547.0" x2="91.0" y2="525.0" stroke-width="0.5"/>
   <line stroke="black" x1="58.0" y1="193.0" x2="25.0" y2="294.0" stroke-width="0.5"/>
   <line stroke="black" x1="25.0" y1="294.0" x2="51.0" y2="404.0" stroke-width="0.5"/>
   <line stroke="black" x1="51.0" y1="404.0" x2="62.0" y2="484.0" stroke-width="0.5"/>
   <line stroke="black" x1="51.0" y1="404.0" x2="80.0" y2="336.0" stroke-width="0.5"/>
   <line stroke="black" x1="62.0" y1="484.0" x2="76.0" y2="568.0" stroke-width="0.5"/>
   <line stroke="black" x1="62.0" y1="484.0" x2="103.0" y2="431.0" stroke-width="0.5"/>
   <line stroke="black" x1="80.0" y1="336.0" x2="125.0" y2="302.0" stroke-width="0.5"/>
   <line stroke="black" x1="76.0" y1="568.0" x2="84.0" y2="613.0" stroke-width="0.5"/>
   <line stroke="black" x1="76.0" y1="568.0" x2="91.0" y2="525.0" stroke-width="0.5"/>
   <line stroke="black" x1="157.0" y1="324.0" x2="125.0" y2="302.0" stroke-width="0.5"/>
  </g>
 </g>
</svg>
