<?xml version="1.0" encoding="UTF-8"?>
<svg xmlns="http://www.w3.org/2000/svg">
 <g>
  <g>
   <g>
    <circle stroke="black" stroke-width="0.5" fill="#aaffff" cx="52.0" cy="110.0" r="1.0"/>
    <text stroke="none" x="52.0" y="110.0" font-size="10.0" font-family="helvetica">NT1.1</text>
   </g>
   <g>
    <circle stroke="black" stroke-width="0.5" fill="#aaffff" cx="53.0" cy="272.0" r="1.0"/>
    <text stroke="none" x="53.0" y="272.0" font-size="10.0" font-family="helvetica">NT1.2</text>
   </g>
   <g>
    <circle stroke="black" stroke-width="0.5" fill="#aaffff" cx="56.0" cy="273.0" r="1.0"/>
    <text stroke="none" x="56.0" y="273.0" font-size="20.0" font-family="helvetica"/>
   </g>
   <g>
    <circle stroke="black" stroke-width="0.5" fill="#aaffff" cx="63.0" cy="324.0" r="1.0"/>
    <text stroke="none" x="63.0" y="324.0" font-size="10.0" font-family="helvetica">NT1.4</text>
   </g>
   <g>
    <circle stroke="black" stroke-width="0.5" fill="#aaffff" cx="66.0" cy="325.0" r="1.0"/>
    <text stroke="none" x="66.0" y="325.0" font-size="20.0" font-family="helvetica"/>
   </g>
   <g>
    <circle stroke="black" stroke-width="0.5" fill="#aaffff" cx="68.0" cy="226.0" r="1.0"/>
    <text stroke="none" x="68.0" y="226.0" font-size="10.0" font-family="helvetica">NT1.6</text>
   </g>
   <g>
    <circle stroke="black" stroke-width="0.5" fill="#aaffff" cx="138.0" cy="252.0" r="1.0"/>
    <text stroke="none" x="138.0" y="252.0" font-size="10.0" font-family="helvetica">NT1.7</text>
   </g>
   <g>
    <circle stroke="black" stroke-width="0.5" fill="#aaffff" cx="155.0" cy="199.0" r="1.0"/>
    <text stroke="none" x="155.0" y="199.0" font-size="20.0" font-family="helvetica">H. bizzozeronii CCUG 35045 (AY596215)</text>
   </g>
   <g>
    <circle stroke="black" stroke-width="0.5" fill="#aaffff" cx="179.0" cy="235.0" r="1.0"/>
    <text stroke="none" x="179.0" y="235.0" font-size="20.0" font-family="helvetica">H. felis Lee CS1 (AY596216)</text>
   </g>
   <g>
    <circle stroke="black" stroke-width="0.5" fill="#aaffff" cx="189.0" cy="343.0" r="1.0"/>
    <text stroke="none" x="189.0" y="343.0" font-size="20.0" font-family="helvetica">H. felis Lee DSZ (AY596218)</text>
   </g>
   <g>
    <circle stroke="black" stroke-width="0.5" fill="#aaffff" cx="191.0" cy="271.0" r="1.0"/>
    <text stroke="none" x="191.0" y="271.0" font-size="20.0" font-family="helvetica">H. felis Lee CS3 (AY596217)</text>
   </g>
   <g>
    <circle stroke="black" stroke-width="0.5" fill="#aaffff" cx="209.0" cy="307.0" r="1.0"/>
    <text stroke="none" x="209.0" y="307.0" font-size="20.0" font-family="helvetica">H, felis Lee 085</text>
   </g>
   <g>
    <circle stroke="black" stroke-width="0.5" fill="#aaffff" cx="454.0" cy="74.0" r="1.0"/>
    <text stroke="none" x="454.0" y="74.0" font-size="10.0" font-family="helvetica">NT1.13</text>
   </g>
   <g>
    <circle stroke="black" stroke-width="0.5" fill="#aaffff" cx="473.0" cy="144.0" r="1.0"/>
    <text stroke="none" x="473.0" y="144.0" font-size="10.0" font-family="helvetica">NT1.14</text>
   </g>
   <g>
    <circle stroke="black" stroke-width="0.5" fill="#aaffff" cx="476.0" cy="145.0" r="1.0"/>
    <text stroke="none" x="476.0" y="145.0" font-size="20.0" font-family="helvetica"/>
   </g>
   <g>
    <circle stroke="black" stroke-width="0.5" fill="#aaffff" cx="527.0" cy="127.0" r="1.0"/>
    <text stroke="none" x="527.0" y="127.0" font-size="20.0" font-family="helvetica">H. suis sp. nov. HS1T (EF204595)</text>
   </g>
   <g>
    <circle stroke="black" stroke-width="0.5" fill="#aaffff" cx="529.0" cy="163.0" r="1.0"/>
    <text stroke="none" x="529.0" y="163.0" font-size="20.0" font-family="helvetica">H. suis sp. nov. H52 (EF204596)</text>
   </g>
   <g>
    <circle stroke="black" stroke-width="0.5" fill="#aaffff" cx="921.0" cy="56.0" r="1.0"/>
    <text stroke="none" x="921.0" y="56.0" font-size="20.0" font-family="helvetica">H. pylori 26695 (AE000641)</text>
   </g>
   <g>
    <circle stroke="black" stroke-width="0.5" fill="#aaffff" cx="926.0" cy="92.0" r="1.0"/>
    <text stroke="none" x="926.0" y="92.0" font-size="20.0" font-family="helvetica">H. pyloriJ99 (AE001553)</text>
   </g>
   <g>
    <circle stroke="black" stroke-width="0.5" fill="#aaffff" cx="2.0" cy="191.0" r="1.0"/>
    <text stroke="none" x="2.0" y="191.0" font-size="10.0" font-family="helvetica">NT1.20</text>
   </g>
   <line stroke="black" x1="921.0" y1="56.0" x2="454.0" y2="74.0" stroke-width="0.5"/>
   <line stroke="black" x1="926.0" y1="92.0" x2="454.0" y2="74.0" stroke-width="0.5"/>
   <line stroke="black" x1="56.0" y1="273.0" x2="53.0" y2="272.0" stroke-width="0.5"/>
   <line stroke="black" x1="66.0" y1="325.0" x2="63.0" y2="324.0" stroke-width="0.5"/>
   <line stroke="black" x1="155.0" y1="199.0" x2="68.0" y2="226.0" stroke-width="0.5"/>
   <line stroke="black" x1="476.0" y1="145.0" x2="473.0" y2="144.0" stroke-width="0.5"/>
   <line stroke="black" x1="179.0" y1="235.0" x2="138.0" y2="252.0" stroke-width="0.5"/>
   <line stroke="black" x1="191.0" y1="271.0" x2="138.0" y2="252.0" stroke-width="0.5"/>
   <line stroke="black" x1="454.0" y1="74.0" x2="52.0" y2="110.0" stroke-width="0.5"/>
   <line stroke="black" x1="52.0" y1="110.0" x2="473.0" y2="144.0" stroke-width="0.5"/>
   <line stroke="black" x1="53.0" y1="272.0" x2="68.0" y2="226.0" stroke-width="0.5"/>
   <line stroke="black" x1="53.0" y1="272.0" x2="63.0" y2="324.0" stroke-width="0.5"/>
   <line stroke="black" x1="68.0" y1="226.0" x2="138.0" y2="252.0" stroke-width="0.5"/>
   <line stroke="black" x1="2.0" y1="191.0" x2="52.0" y2="110.0" stroke-width="0.5"/>
   <line stroke="black" x1="2.0" y1="191.0" x2="53.0" y2="272.0" stroke-width="0.5"/>
   <line stroke="black" x1="189.0" y1="343.0" x2="63.0" y2="324.0" stroke-width="0.5"/>
   <line stroke="black" x1="209.0" y1="307.0" x2="63.0" y2="324.0" stroke-width="0.5"/>
   <line stroke="black" x1="529.0" y1="163.0" x2="473.0" y2="144.0" stroke-width="0.5"/>
   <line stroke="black" x1="527.0" y1="127.0" x2="473.0" y2="144.0" stroke-width="0.5"/>
  </g>
 </g>
</svg>
