<?xml version="1.0" encoding="UTF-8"?>
<svg xmlns="http://www.w3.org/2000/svg">
 <g>
  <g>
   <g>
    <circle stroke="black" stroke-width="0.5" fill="#aaffff" cx="68.0" cy="1030.0" r="1.0"/>
    <text stroke="none" x="68.0" y="1030.0" font-size="10.0" font-family="helvetica">NT1.1</text>
   </g>
   <g>
    <circle stroke="black" stroke-width="0.5" fill="#aaffff" cx="96.0" cy="825.0" r="1.0"/>
    <text stroke="none" x="96.0" y="825.0" font-size="20.0" font-family="helvetica">51</text>
   </g>
   <g>
    <circle stroke="black" stroke-width="0.5" fill="#aaffff" cx="136.0" cy="1039.0" r="1.0"/>
    <text stroke="none" x="136.0" y="1039.0" font-size="20.0" font-family="helvetica">81</text>
   </g>
   <g>
    <circle stroke="black" stroke-width="0.5" fill="#aaffff" cx="221.0" cy="1129.0" r="1.0"/>
    <text stroke="none" x="221.0" y="1129.0" font-size="10.0" font-family="helvetica">NT1.4</text>
   </g>
   <g>
    <circle stroke="black" stroke-width="0.5" fill="#aaffff" cx="243.0" cy="1234.0" r="1.0"/>
    <text stroke="none" x="243.0" y="1234.0" font-size="10.0" font-family="helvetica">NT1.5</text>
   </g>
   <g>
    <circle stroke="black" stroke-width="0.5" fill="#aaffff" cx="257.0" cy="1092.0" r="1.0"/>
    <text stroke="none" x="257.0" y="1092.0" font-size="20.0" font-family="helvetica">47</text>
   </g>
   <g>
    <circle stroke="black" stroke-width="0.5" fill="#aaffff" cx="260.0" cy="950.0" r="1.0"/>
    <text stroke="none" x="260.0" y="950.0" font-size="10.0" font-family="helvetica">NT1.7</text>
   </g>
   <g>
    <circle stroke="black" stroke-width="0.5" fill="#aaffff" cx="298.0" cy="1058.0" r="1.0"/>
    <text stroke="none" x="298.0" y="1058.0" font-size="20.0" font-family="helvetica">67</text>
   </g>
   <g>
    <circle stroke="black" stroke-width="0.5" fill="#aaffff" cx="320.0" cy="611.0" r="1.0"/>
    <text stroke="none" x="320.0" y="611.0" font-size="10.0" font-family="helvetica">NT1.9</text>
   </g>
   <g>
    <circle stroke="black" stroke-width="0.5" fill="#aaffff" cx="326.0" cy="1263.0" r="1.0"/>
    <text stroke="none" x="326.0" y="1263.0" font-size="10.0" font-family="helvetica">NT1.10</text>
   </g>
   <g>
    <circle stroke="black" stroke-width="0.5" fill="#aaffff" cx="349.0" cy="780.0" r="1.0"/>
    <text stroke="none" x="349.0" y="780.0" font-size="20.0" font-family="helvetica">66</text>
   </g>
   <g>
    <circle stroke="black" stroke-width="0.5" fill="#aaffff" cx="364.0" cy="721.0" r="1.0"/>
    <text stroke="none" x="364.0" y="721.0" font-size="20.0" font-family="helvetica">5O</text>
   </g>
   <g>
    <circle stroke="black" stroke-width="0.5" fill="#aaffff" cx="368.0" cy="438.0" r="1.0"/>
    <text stroke="none" x="368.0" y="438.0" font-size="20.0" font-family="helvetica">98</text>
   </g>
   <g>
    <circle stroke="black" stroke-width="0.5" fill="#aaffff" cx="391.0" cy="668.0" r="1.0"/>
    <text stroke="none" x="391.0" y="668.0" font-size="20.0" font-family="helvetica">69</text>
   </g>
   <g>
    <circle stroke="black" stroke-width="0.5" fill="#aaffff" cx="432.0" cy="601.0" r="1.0"/>
    <text stroke="none" x="432.0" y="601.0" font-size="20.0" font-family="helvetica">84</text>
   </g>
   <g>
    <circle stroke="black" stroke-width="0.5" fill="#aaffff" cx="453.0" cy="644.0" r="1.0"/>
    <text stroke="none" x="453.0" y="644.0" font-size="20.0" font-family="helvetica">55</text>
   </g>
   <g>
    <circle stroke="black" stroke-width="0.5" fill="#aaffff" cx="460.0" cy="1029.0" r="1.0"/>
    <text stroke="none" x="460.0" y="1029.0" font-size="10.0" font-family="helvetica">NT1.17</text>
   </g>
   <g>
    <circle stroke="black" stroke-width="0.5" fill="#aaffff" cx="481.0" cy="674.0" r="1.0"/>
    <text stroke="none" x="481.0" y="674.0" font-size="20.0" font-family="helvetica">78</text>
   </g>
   <g>
    <circle stroke="black" stroke-width="0.5" fill="#aaffff" cx="489.0" cy="379.0" r="1.0"/>
    <text stroke="none" x="489.0" y="379.0" font-size="20.0" font-family="helvetica">84</text>
   </g>
   <g>
    <circle stroke="black" stroke-width="0.5" fill="#aaffff" cx="509.0" cy="301.0" r="1.0"/>
    <text stroke="none" x="509.0" y="301.0" font-size="20.0" font-family="helvetica">80</text>
   </g>
   <g>
    <circle stroke="black" stroke-width="0.5" fill="#aaffff" cx="537.0" cy="383.0" r="1.0"/>
    <text stroke="none" x="537.0" y="383.0" font-size="20.0" font-family="helvetica">84</text>
   </g>
   <g>
    <circle stroke="black" stroke-width="0.5" fill="#aaffff" cx="549.0" cy="216.0" r="1.0"/>
    <text stroke="none" x="549.0" y="216.0" font-size="20.0" font-family="helvetica">99</text>
   </g>
   <g>
    <circle stroke="black" stroke-width="0.5" fill="#aaffff" cx="560.0" cy="168.0" r="1.0"/>
    <text stroke="none" x="560.0" y="168.0" font-size="20.0" font-family="helvetica">66</text>
   </g>
   <g>
    <circle stroke="black" stroke-width="0.5" fill="#aaffff" cx="560.0" cy="557.0" r="1.0"/>
    <text stroke="none" x="560.0" y="557.0" font-size="10.0" font-family="helvetica">NT1.24</text>
   </g>
   <g>
    <circle stroke="black" stroke-width="0.5" fill="#aaffff" cx="568.0" cy="841.0" r="1.0"/>
    <text stroke="none" x="568.0" y="841.0" font-size="10.0" font-family="helvetica">NT1.25</text>
   </g>
   <g>
    <circle stroke="black" stroke-width="0.5" fill="#aaffff" cx="576.0" cy="498.0" r="1.0"/>
    <text stroke="none" x="576.0" y="498.0" font-size="20.0" font-family="helvetica">Alterococcus agarolyticus ADT3T BCRC 19135T (AF075271)</text>
   </g>
   <g>
    <circle stroke="black" stroke-width="0.5" fill="#aaffff" cx="581.0" cy="870.0" r="1.0"/>
    <text stroke="none" x="581.0" y="870.0" font-size="10.0" font-family="helvetica">NT1.27</text>
   </g>
   <g>
    <circle stroke="black" stroke-width="0.5" fill="#aaffff" cx="584.0" cy="1088.0" r="1.0"/>
    <text stroke="none" x="584.0" y="1088.0" font-size="20.0" font-family="helvetica">‘Chthoniobacter flavus’ Ellin428 (AY388649)</text>
   </g>
   <g>
    <circle stroke="black" stroke-width="0.5" fill="#aaffff" cx="587.0" cy="114.0" r="1.0"/>
    <text stroke="none" x="587.0" y="114.0" font-size="20.0" font-family="helvetica">90</text>
   </g>
   <g>
    <circle stroke="black" stroke-width="0.5" fill="#aaffff" cx="593.0" cy="261.0" r="1.0"/>
    <text stroke="none" x="593.0" y="261.0" font-size="20.0" font-family="helvetica"> Opitutus sp. VeSm13 (X99392)</text>
   </g>
   <g>
    <circle stroke="black" stroke-width="0.5" fill="#aaffff" cx="593.0" cy="1205.0" r="1.0"/>
    <text stroke="none" x="593.0" y="1205.0" font-size="20.0" font-family="helvetica">Marine sediment clone LD1—PA26 (AY114317)</text>
   </g>
   <g>
    <circle stroke="black" stroke-width="0.5" fill="#aaffff" cx="603.0" cy="419.0" r="1.0"/>
    <text stroke="none" x="603.0" y="419.0" font-size="20.0" font-family="helvetica"/>
   </g>
   <g>
    <circle stroke="black" stroke-width="0.5" fill="#aaffff" cx="603.0" cy="733.0" r="1.0"/>
    <text stroke="none" x="603.0" y="733.0" font-size="20.0" font-family="helvetica"/>
   </g>
   <g>
    <circle stroke="black" stroke-width="0.5" fill="#aaffff" cx="608.0" cy="222.0" r="1.0"/>
    <text stroke="none" x="608.0" y="222.0" font-size="20.0" font-family="helvetica"/>
   </g>
   <g>
    <circle stroke="black" stroke-width="0.5" fill="#aaffff" cx="614.0" cy="458.0" r="1.0"/>
    <text stroke="none" x="614.0" y="458.0" font-size="20.0" font-family="helvetica">Opitutaceae bacterium TAV1 (AY587231)</text>
   </g>
   <g>
    <circle stroke="black" stroke-width="0.5" fill="#aaffff" cx="614.0" cy="930.0" r="1.0"/>
    <text stroke="none" x="614.0" y="930.0" font-size="20.0" font-family="helvetica">Akkermansia muciniphila MucT ATCC BAA—835T (AY271254)</text>
   </g>
   <g>
    <circle stroke="black" stroke-width="0.5" fill="#aaffff" cx="616.0" cy="812.0" r="1.0"/>
    <text stroke="none" x="616.0" y="812.0" font-size="20.0" font-family="helvetica">Pelagicoccus mobilis 02PA—Ca—1 33T (A8286015)</text>
   </g>
   <g>
    <circle stroke="black" stroke-width="0.5" fill="#aaffff" cx="619.0" cy="24.0" r="1.0"/>
    <text stroke="none" x="619.0" y="24.0" font-size="20.0" font-family="helvetica"/>
   </g>
   <g>
    <circle stroke="black" stroke-width="0.5" fill="#aaffff" cx="619.0" cy="65.0" r="1.0"/>
    <text stroke="none" x="619.0" y="65.0" font-size="10.0" font-family="helvetica">NT1.39</text>
   </g>
   <g>
    <circle stroke="black" stroke-width="0.5" fill="#aaffff" cx="620.0" cy="104.0" r="1.0"/>
    <text stroke="none" x="620.0" y="104.0" font-size="20.0" font-family="helvetica">Opitutus terrae ACBQO (AJ229246)</text>
   </g>
   <g>
    <circle stroke="black" stroke-width="0.5" fill="#aaffff" cx="620.0" cy="970.0" r="1.0"/>
    <text stroke="none" x="620.0" y="970.0" font-size="20.0" font-family="helvetica">Rubritalea marina Po|012T DSM 17716T (DQ302104)</text>
   </g>
   <g>
    <circle stroke="black" stroke-width="0.5" fill="#aaffff" cx="625.0" cy="65.0" r="1.0"/>
    <text stroke="none" x="625.0" y="65.0" font-size="20.0" font-family="helvetica">Opitutus terrae PB90-3 (AJ229239)</text>
   </g>
   <g>
    <circle stroke="black" stroke-width="0.5" fill="#aaffff" cx="626.0" cy="1048.0" r="1.0"/>
    <text stroke="none" x="626.0" y="1048.0" font-size="20.0" font-family="helvetica">Prosthecobacter fusiformis FC4T ATCC 25309T (U60015)</text>
   </g>
   <g>
    <circle stroke="black" stroke-width="0.5" fill="#aaffff" cx="629.0" cy="851.0" r="1.0"/>
    <text stroke="none" x="629.0" y="851.0" font-size="20.0" font-family="helvetica"/>
   </g>
   <g>
    <circle stroke="black" stroke-width="0.5" fill="#aaffff" cx="630.0" cy="162.0" r="1.0"/>
    <text stroke="none" x="630.0" y="162.0" font-size="10.0" font-family="helvetica">NT1.45</text>
   </g>
   <g>
    <circle stroke="black" stroke-width="0.5" fill="#aaffff" cx="631.0" cy="143.0" r="1.0"/>
    <text stroke="none" x="631.0" y="143.0" font-size="20.0" font-family="helvetica">Opitutus sp. Ver1 (X99391)</text>
   </g>
   <g>
    <circle stroke="black" stroke-width="0.5" fill="#aaffff" cx="631.0" cy="183.0" r="1.0"/>
    <text stroke="none" x="631.0" y="183.0" font-size="20.0" font-family="helvetica"/>
   </g>
   <g>
    <circle stroke="black" stroke-width="0.5" fill="#aaffff" cx="636.0" cy="1127.0" r="1.0"/>
    <text stroke="none" x="636.0" y="1127.0" font-size="20.0" font-family="helvetica">Soil isolate Ellin5102 (AY234519)</text>
   </g>
   <g>
    <circle stroke="black" stroke-width="0.5" fill="#aaffff" cx="636.0" cy="1008.0" r="1.0"/>
    <text stroke="none" x="636.0" y="1008.0" font-size="20.0" font-family="helvetica">Verrucomicrobium spinosum DSM 4136T (X90515)</text>
   </g>
   <g>
    <circle stroke="black" stroke-width="0.5" fill="#aaffff" cx="646.0" cy="891.0" r="1.0"/>
    <text stroke="none" x="646.0" y="891.0" font-size="20.0" font-family="helvetica"/>
   </g>
   <g>
    <circle stroke="black" stroke-width="0.5" fill="#aaffff" cx="652.0" cy="773.0" r="1.0"/>
    <text stroke="none" x="652.0" y="773.0" font-size="20.0" font-family="helvetica">Opitutus sp. SA-9 (AY695840)</text>
   </g>
   <g>
    <circle stroke="black" stroke-width="0.5" fill="#aaffff" cx="661.0" cy="536.0" r="1.0"/>
    <text stroke="none" x="661.0" y="536.0" font-size="20.0" font-family="helvetica">‘Fucophilus fucoidanolyticus’ SI-1234 (ABO73978)</text>
   </g>
   <g>
    <circle stroke="black" stroke-width="0.5" fill="#aaffff" cx="665.0" cy="1284.0" r="1.0"/>
    <text stroke="none" x="665.0" y="1284.0" font-size="20.0" font-family="helvetica"/>
   </g>
   <g>
    <circle stroke="black" stroke-width="0.5" fill="#aaffff" cx="675.0" cy="350.0" r="1.0"/>
    <text stroke="none" x="675.0" y="350.0" font-size="20.0" font-family="helvetica">35</text>
   </g>
   <g>
    <circle stroke="black" stroke-width="0.5" fill="#aaffff" cx="676.0" cy="379.0" r="1.0"/>
    <text stroke="none" x="676.0" y="379.0" font-size="20.0" font-family="helvetica"/>
   </g>
   <g>
    <circle stroke="black" stroke-width="0.5" fill="#aaffff" cx="680.0" cy="576.0" r="1.0"/>
    <text stroke="none" x="680.0" y="576.0" font-size="20.0" font-family="helvetica"/>
   </g>
   <g>
    <circle stroke="black" stroke-width="0.5" fill="#aaffff" cx="682.0" cy="1166.0" r="1.0"/>
    <text stroke="none" x="682.0" y="1166.0" font-size="20.0" font-family="helvetica">Freshwater lake clone LD19 (AF009974)</text>
   </g>
   <g>
    <circle stroke="black" stroke-width="0.5" fill="#aaffff" cx="689.0" cy="300.0" r="1.0"/>
    <text stroke="none" x="689.0" y="300.0" font-size="20.0" font-family="helvetica">Opitutaceae bacterium TAV2 (AY587232)</text>
   </g>
   <g>
    <circle stroke="black" stroke-width="0.5" fill="#aaffff" cx="720.0" cy="655.0" r="1.0"/>
    <text stroke="none" x="720.0" y="655.0" font-size="20.0" font-family="helvetica">Uncultured bacterium clone SW25 (DQ302109)</text>
   </g>
   <g>
    <circle stroke="black" stroke-width="0.5" fill="#aaffff" cx="744.0" cy="615.0" r="1.0"/>
    <text stroke="none" x="744.0" y="615.0" font-size="20.0" font-family="helvetica">Puniceicoccus vermicola |MCC1545T (DQ539046)</text>
   </g>
   <g>
    <circle stroke="black" stroke-width="0.5" fill="#aaffff" cx="756.0" cy="1245.0" r="1.0"/>
    <text stroke="none" x="756.0" y="1245.0" font-size="20.0" font-family="helvetica">Contaminated aquifer clone WCHB1—25 (AF050559</text>
   </g>
   <g>
    <circle stroke="black" stroke-width="0.5" fill="#aaffff" cx="760.0" cy="694.0" r="1.0"/>
    <text stroke="none" x="760.0" y="694.0" font-size="20.0" font-family="helvetica">Cerasicoccus arenae YM26-026T (A3292183)</text>
   </g>
   <g>
    <circle stroke="black" stroke-width="0.5" fill="#aaffff" cx="760.0" cy="1323.0" r="1.0"/>
    <text stroke="none" x="760.0" y="1323.0" font-size="20.0" font-family="helvetica">Escherichia coli ATCC 11775T (X80725)</text>
   </g>
   <g>
    <circle stroke="black" stroke-width="0.5" fill="#aaffff" cx="5.0" cy="1176.0" r="1.0"/>
    <text stroke="none" x="5.0" y="1176.0" font-size="10.0" font-family="helvetica">NT1.64</text>
   </g>
   <line stroke="black" x1="619.0" y1="24.0" x2="619.0" y2="65.0" stroke-width="0.5"/>
   <line stroke="black" x1="625.0" y1="65.0" x2="619.0" y2="65.0" stroke-width="0.5"/>
   <line stroke="black" x1="620.0" y1="104.0" x2="619.0" y2="65.0" stroke-width="0.5"/>
   <line stroke="black" x1="631.0" y1="143.0" x2="630.0" y2="162.0" stroke-width="0.5"/>
   <line stroke="black" x1="631.0" y1="183.0" x2="630.0" y2="162.0" stroke-width="0.5"/>
   <line stroke="black" x1="608.0" y1="222.0" x2="560.0" y2="168.0" stroke-width="0.5"/>
   <line stroke="black" x1="593.0" y1="261.0" x2="549.0" y2="216.0" stroke-width="0.5"/>
   <line stroke="black" x1="603.0" y1="419.0" x2="537.0" y2="383.0" stroke-width="0.5"/>
   <line stroke="black" x1="614.0" y1="458.0" x2="489.0" y2="379.0" stroke-width="0.5"/>
   <line stroke="black" x1="676.0" y1="379.0" x2="675.0" y2="350.0" stroke-width="0.5"/>
   <line stroke="black" x1="689.0" y1="300.0" x2="675.0" y2="350.0" stroke-width="0.5"/>
   <line stroke="black" x1="576.0" y1="498.0" x2="368.0" y2="438.0" stroke-width="0.5"/>
   <line stroke="black" x1="629.0" y1="851.0" x2="581.0" y2="870.0" stroke-width="0.5"/>
   <line stroke="black" x1="646.0" y1="891.0" x2="581.0" y2="870.0" stroke-width="0.5"/>
   <line stroke="black" x1="652.0" y1="773.0" x2="364.0" y2="721.0" stroke-width="0.5"/>
   <line stroke="black" x1="603.0" y1="733.0" x2="391.0" y2="668.0" stroke-width="0.5"/>
   <line stroke="black" x1="661.0" y1="536.0" x2="560.0" y2="557.0" stroke-width="0.5"/>
   <line stroke="black" x1="680.0" y1="576.0" x2="560.0" y2="557.0" stroke-width="0.5"/>
   <line stroke="black" x1="720.0" y1="655.0" x2="481.0" y2="674.0" stroke-width="0.5"/>
   <line stroke="black" x1="744.0" y1="615.0" x2="453.0" y2="644.0" stroke-width="0.5"/>
   <line stroke="black" x1="760.0" y1="694.0" x2="481.0" y2="674.0" stroke-width="0.5"/>
   <line stroke="black" x1="614.0" y1="930.0" x2="260.0" y2="950.0" stroke-width="0.5"/>
   <line stroke="black" x1="620.0" y1="970.0" x2="260.0" y2="950.0" stroke-width="0.5"/>
   <line stroke="black" x1="584.0" y1="1088.0" x2="298.0" y2="1058.0" stroke-width="0.5"/>
   <line stroke="black" x1="636.0" y1="1127.0" x2="257.0" y2="1092.0" stroke-width="0.5"/>
   <line stroke="black" x1="682.0" y1="1166.0" x2="221.0" y2="1129.0" stroke-width="0.5"/>
   <line stroke="black" x1="626.0" y1="1048.0" x2="460.0" y2="1029.0" stroke-width="0.5"/>
   <line stroke="black" x1="636.0" y1="1008.0" x2="460.0" y2="1029.0" stroke-width="0.5"/>
   <line stroke="black" x1="593.0" y1="1205.0" x2="243.0" y2="1234.0" stroke-width="0.5"/>
   <line stroke="black" x1="665.0" y1="1284.0" x2="326.0" y2="1263.0" stroke-width="0.5"/>
   <line stroke="black" x1="756.0" y1="1245.0" x2="326.0" y2="1263.0" stroke-width="0.5"/>
   <line stroke="black" x1="619.0" y1="65.0" x2="587.0" y2="114.0" stroke-width="0.5"/>
   <line stroke="black" x1="587.0" y1="114.0" x2="560.0" y2="168.0" stroke-width="0.5"/>
   <line stroke="black" x1="587.0" y1="114.0" x2="630.0" y2="162.0" stroke-width="0.5"/>
   <line stroke="black" x1="560.0" y1="168.0" x2="549.0" y2="216.0" stroke-width="0.5"/>
   <line stroke="black" x1="549.0" y1="216.0" x2="509.0" y2="301.0" stroke-width="0.5"/>
   <line stroke="black" x1="509.0" y1="301.0" x2="489.0" y2="379.0" stroke-width="0.5"/>
   <line stroke="black" x1="509.0" y1="301.0" x2="537.0" y2="383.0" stroke-width="0.5"/>
   <line stroke="black" x1="489.0" y1="379.0" x2="368.0" y2="438.0" stroke-width="0.5"/>
   <line stroke="black" x1="537.0" y1="383.0" x2="675.0" y2="350.0" stroke-width="0.5"/>
   <line stroke="black" x1="368.0" y1="438.0" x2="320.0" y2="611.0" stroke-width="0.5"/>
   <line stroke="black" x1="320.0" y1="611.0" x2="96.0" y2="825.0" stroke-width="0.5"/>
   <line stroke="black" x1="320.0" y1="611.0" x2="349.0" y2="780.0" stroke-width="0.5"/>
   <line stroke="black" x1="349.0" y1="780.0" x2="568.0" y2="841.0" stroke-width="0.5"/>
   <line stroke="black" x1="349.0" y1="780.0" x2="364.0" y2="721.0" stroke-width="0.5"/>
   <line stroke="black" x1="364.0" y1="721.0" x2="391.0" y2="668.0" stroke-width="0.5"/>
   <line stroke="black" x1="391.0" y1="668.0" x2="432.0" y2="601.0" stroke-width="0.5"/>
   <line stroke="black" x1="96.0" y1="825.0" x2="68.0" y2="1030.0" stroke-width="0.5"/>
   <line stroke="black" x1="96.0" y1="825.0" x2="136.0" y2="1039.0" stroke-width="0.5"/>
   <line stroke="black" x1="432.0" y1="601.0" x2="453.0" y2="644.0" stroke-width="0.5"/>
   <line stroke="black" x1="432.0" y1="601.0" x2="560.0" y2="557.0" stroke-width="0.5"/>
   <line stroke="black" x1="568.0" y1="841.0" x2="581.0" y2="870.0" stroke-width="0.5"/>
   <line stroke="black" x1="453.0" y1="644.0" x2="481.0" y2="674.0" stroke-width="0.5"/>
   <line stroke="black" x1="68.0" y1="1030.0" x2="243.0" y2="1234.0" stroke-width="0.5"/>
   <line stroke="black" x1="136.0" y1="1039.0" x2="221.0" y2="1129.0" stroke-width="0.5"/>
   <line stroke="black" x1="136.0" y1="1039.0" x2="260.0" y2="950.0" stroke-width="0.5"/>
   <line stroke="black" x1="221.0" y1="1129.0" x2="257.0" y2="1092.0" stroke-width="0.5"/>
   <line stroke="black" x1="257.0" y1="1092.0" x2="298.0" y2="1058.0" stroke-width="0.5"/>
   <line stroke="black" x1="298.0" y1="1058.0" x2="460.0" y2="1029.0" stroke-width="0.5"/>
   <line stroke="black" x1="243.0" y1="1234.0" x2="326.0" y2="1263.0" stroke-width="0.5"/>
   <line stroke="black" x1="5.0" y1="1176.0" x2="760.0" y2="1323.0" stroke-width="0.5"/>
   <line stroke="black" x1="5.0" y1="1176.0" x2="68.0" y2="1030.0" stroke-width="0.5"/>
   <line stroke="black" x1="616.0" y1="812.0" x2="568.0" y2="841.0" stroke-width="0.5"/>
  </g>
 </g>
</svg>
