<?xml version="1.0" encoding="UTF-8"?>
<svg xmlns="http://www.w3.org/2000/svg">
 <g>
  <g>
   <g>
    <circle stroke="black" stroke-width="0.5" fill="#aaffff" cx="2.0" cy="838.0" r="1.0"/>
    <text stroke="none" x="2.0" y="838.0" font-size="20.0" font-family="helvetica"/>
   </g>
   <g>
    <circle stroke="black" stroke-width="0.5" fill="#aaffff" cx="4.0" cy="838.0" r="1.0"/>
    <text stroke="none" x="4.0" y="838.0" font-size="10.0" font-family="helvetica">NT1.2</text>
   </g>
   <g>
    <circle stroke="black" stroke-width="0.5" fill="#aaffff" cx="46.0" cy="668.0" r="1.0"/>
    <text stroke="none" x="46.0" y="668.0" font-size="10.0" font-family="helvetica">NT1.3</text>
   </g>
   <g>
    <circle stroke="black" stroke-width="0.5" fill="#aaffff" cx="87.0" cy="488.0" r="1.0"/>
    <text stroke="none" x="87.0" y="488.0" font-size="10.0" font-family="helvetica">NT1.4</text>
   </g>
   <g>
    <circle stroke="black" stroke-width="0.5" fill="#aaffff" cx="114.0" cy="631.0" r="1.0"/>
    <text stroke="none" x="114.0" y="631.0" font-size="10.0" font-family="helvetica">NT1.5</text>
   </g>
   <g>
    <circle stroke="black" stroke-width="0.5" fill="#aaffff" cx="309.0" cy="580.0" r="1.0"/>
    <text stroke="none" x="309.0" y="580.0" font-size="20.0" font-family="helvetica"/>
   </g>
   <g>
    <circle stroke="black" stroke-width="0.5" fill="#aaffff" cx="316.0" cy="339.0" r="1.0"/>
    <text stroke="none" x="316.0" y="339.0" font-size="10.0" font-family="helvetica">NT1.7</text>
   </g>
   <g>
    <circle stroke="black" stroke-width="0.5" fill="#aaffff" cx="322.0" cy="205.0" r="1.0"/>
    <text stroke="none" x="322.0" y="205.0" font-size="10.0" font-family="helvetica">NT1.8</text>
   </g>
   <g>
    <circle stroke="black" stroke-width="0.5" fill="#aaffff" cx="337.0" cy="100.0" r="1.0"/>
    <text stroke="none" x="337.0" y="100.0" font-size="10.0" font-family="helvetica">NT1.9</text>
   </g>
   <g>
    <circle stroke="black" stroke-width="0.5" fill="#aaffff" cx="340.0" cy="845.0" r="1.0"/>
    <text stroke="none" x="340.0" y="845.0" font-size="10.0" font-family="helvetica">NT1.10</text>
   </g>
   <g>
    <circle stroke="black" stroke-width="0.5" fill="#aaffff" cx="342.0" cy="41.0" r="1.0"/>
    <text stroke="none" x="342.0" y="41.0" font-size="20.0" font-family="helvetica"/>
   </g>
   <g>
    <circle stroke="black" stroke-width="0.5" fill="#aaffff" cx="342.0" cy="44.0" r="1.0"/>
    <text stroke="none" x="342.0" y="44.0" font-size="10.0" font-family="helvetica">NT1.12</text>
   </g>
   <g>
    <circle stroke="black" stroke-width="0.5" fill="#aaffff" cx="348.0" cy="151.0" r="1.0"/>
    <text stroke="none" x="348.0" y="151.0" font-size="20.0" font-family="helvetica"/>
   </g>
   <g>
    <circle stroke="black" stroke-width="0.5" fill="#aaffff" cx="366.0" cy="44.0" r="1.0"/>
    <text stroke="none" x="366.0" y="44.0" font-size="20.0" font-family="helvetica">Flammeovirga arenaria NBRC 15982T(ABO78078)</text>
   </g>
   <g>
    <circle stroke="black" stroke-width="0.5" fill="#aaffff" cx="374.0" cy="794.0" r="1.0"/>
    <text stroke="none" x="374.0" y="794.0" font-size="20.0" font-family="helvetica"/>
   </g>
   <g>
    <circle stroke="black" stroke-width="0.5" fill="#aaffff" cx="374.0" cy="1010.0" r="1.0"/>
    <text stroke="none" x="374.0" y="1010.0" font-size="20.0" font-family="helvetica"/>
   </g>
   <g>
    <circle stroke="black" stroke-width="0.5" fill="#aaffff" cx="378.0" cy="902.0" r="1.0"/>
    <text stroke="none" x="378.0" y="902.0" font-size="20.0" font-family="helvetica"/>
   </g>
   <g>
    <circle stroke="black" stroke-width="0.5" fill="#aaffff" cx="379.0" cy="688.0" r="1.0"/>
    <text stroke="none" x="379.0" y="688.0" font-size="20.0" font-family="helvetica"/>
   </g>
   <g>
    <circle stroke="black" stroke-width="0.5" fill="#aaffff" cx="397.0" cy="473.0" r="1.0"/>
    <text stroke="none" x="397.0" y="473.0" font-size="20.0" font-family="helvetica"/>
   </g>
   <g>
    <circle stroke="black" stroke-width="0.5" fill="#aaffff" cx="405.0" cy="367.0" r="1.0"/>
    <text stroke="none" x="405.0" y="367.0" font-size="20.0" font-family="helvetica"/>
   </g>
   <g>
    <circle stroke="black" stroke-width="0.5" fill="#aaffff" cx="405.0" cy="311.0" r="1.0"/>
    <text stroke="none" x="405.0" y="311.0" font-size="10.0" font-family="helvetica">NT1.21</text>
   </g>
   <g>
    <circle stroke="black" stroke-width="0.5" fill="#aaffff" cx="407.0" cy="257.0" r="1.0"/>
    <text stroke="none" x="407.0" y="257.0" font-size="20.0" font-family="helvetica"/>
   </g>
   <line stroke="black" x1="342.0" y1="44.0" x2="342.0" y2="41.0" stroke-width="0.5"/>
   <line stroke="black" x1="366.0" y1="44.0" x2="342.0" y2="44.0" stroke-width="0.5"/>
   <line stroke="black" x1="405.0" y1="367.0" x2="405.0" y2="311.0" stroke-width="0.5"/>
   <line stroke="black" x1="397.0" y1="473.0" x2="316.0" y2="339.0" stroke-width="0.5"/>
   <line stroke="black" x1="4.0" y1="838.0" x2="2.0" y2="838.0" stroke-width="0.5"/>
   <line stroke="black" x1="379.0" y1="688.0" x2="114.0" y2="631.0" stroke-width="0.5"/>
   <line stroke="black" x1="374.0" y1="794.0" x2="340.0" y2="845.0" stroke-width="0.5"/>
   <line stroke="black" x1="374.0" y1="1010.0" x2="4.0" y2="838.0" stroke-width="0.5"/>
   <line stroke="black" x1="342.0" y1="44.0" x2="337.0" y2="100.0" stroke-width="0.5"/>
   <line stroke="black" x1="337.0" y1="100.0" x2="322.0" y2="205.0" stroke-width="0.5"/>
   <line stroke="black" x1="322.0" y1="205.0" x2="405.0" y2="311.0" stroke-width="0.5"/>
   <line stroke="black" x1="322.0" y1="205.0" x2="316.0" y2="339.0" stroke-width="0.5"/>
   <line stroke="black" x1="316.0" y1="339.0" x2="87.0" y2="488.0" stroke-width="0.5"/>
   <line stroke="black" x1="405.0" y1="311.0" x2="407.0" y2="257.0" stroke-width="0.5"/>
   <line stroke="black" x1="87.0" y1="488.0" x2="46.0" y2="668.0" stroke-width="0.5"/>
   <line stroke="black" x1="87.0" y1="488.0" x2="114.0" y2="631.0" stroke-width="0.5"/>
   <line stroke="black" x1="46.0" y1="668.0" x2="4.0" y2="838.0" stroke-width="0.5"/>
   <line stroke="black" x1="46.0" y1="668.0" x2="340.0" y2="845.0" stroke-width="0.5"/>
   <line stroke="black" x1="309.0" y1="580.0" x2="114.0" y2="631.0" stroke-width="0.5"/>
   <line stroke="black" x1="348.0" y1="151.0" x2="337.0" y2="100.0" stroke-width="0.5"/>
   <line stroke="black" x1="378.0" y1="902.0" x2="340.0" y2="845.0" stroke-width="0.5"/>
  </g>
 </g>
</svg>
