<?xml version="1.0" encoding="UTF-8"?>
<svg xmlns="http://www.w3.org/2000/svg">
 <g>
  <g>
   <g>
    <circle stroke="black" stroke-width="0.5" fill="#aaffff" cx="102.0" cy="814.0" r="1.0"/>
    <text stroke="none" x="102.0" y="814.0" font-size="10.0" font-family="helvetica">NT1.1</text>
   </g>
   <g>
    <circle stroke="black" stroke-width="0.5" fill="#aaffff" cx="207.0" cy="653.0" r="1.0"/>
    <text stroke="none" x="207.0" y="653.0" font-size="10.0" font-family="helvetica">NT1.2</text>
   </g>
   <g>
    <circle stroke="black" stroke-width="0.5" fill="#aaffff" cx="252.0" cy="492.0" r="1.0"/>
    <text stroke="none" x="252.0" y="492.0" font-size="10.0" font-family="helvetica">NT1.3</text>
   </g>
   <g>
    <circle stroke="black" stroke-width="0.5" fill="#aaffff" cx="289.0" cy="384.0" r="1.0"/>
    <text stroke="none" x="289.0" y="384.0" font-size="10.0" font-family="helvetica">NT1.4</text>
   </g>
   <g>
    <circle stroke="black" stroke-width="0.5" fill="#aaffff" cx="310.0" cy="259.0" r="1.0"/>
    <text stroke="none" x="310.0" y="259.0" font-size="10.0" font-family="helvetica">NT1.5</text>
   </g>
   <g>
    <circle stroke="black" stroke-width="0.5" fill="#aaffff" cx="311.0" cy="153.0" r="1.0"/>
    <text stroke="none" x="311.0" y="153.0" font-size="20.0" font-family="helvetica"/>
   </g>
   <g>
    <circle stroke="black" stroke-width="0.5" fill="#aaffff" cx="312.0" cy="155.0" r="1.0"/>
    <text stroke="none" x="312.0" y="155.0" font-size="10.0" font-family="helvetica">NT1.7</text>
   </g>
   <g>
    <circle stroke="black" stroke-width="0.5" fill="#aaffff" cx="347.0" cy="155.0" r="1.0"/>
    <text stroke="none" x="347.0" y="155.0" font-size="10.0" font-family="helvetica">NT1.8</text>
   </g>
   <g>
    <circle stroke="black" stroke-width="0.5" fill="#aaffff" cx="364.0" cy="83.0" r="1.0"/>
    <text stroke="none" x="364.0" y="83.0" font-size="10.0" font-family="helvetica">NT1.9</text>
   </g>
   <g>
    <circle stroke="black" stroke-width="0.5" fill="#aaffff" cx="387.0" cy="226.0" r="1.0"/>
    <text stroke="none" x="387.0" y="226.0" font-size="20.0" font-family="helvetica"/>
   </g>
   <g>
    <circle stroke="black" stroke-width="0.5" fill="#aaffff" cx="388.0" cy="130.0" r="1.0"/>
    <text stroke="none" x="388.0" y="130.0" font-size="20.0" font-family="helvetica"/>
   </g>
   <g>
    <circle stroke="black" stroke-width="0.5" fill="#aaffff" cx="397.0" cy="366.0" r="1.0"/>
    <text stroke="none" x="397.0" y="366.0" font-size="10.0" font-family="helvetica">NT1.12</text>
   </g>
   <g>
    <circle stroke="black" stroke-width="0.5" fill="#aaffff" cx="408.0" cy="811.0" r="1.0"/>
    <text stroke="none" x="408.0" y="811.0" font-size="10.0" font-family="helvetica">NT1.13</text>
   </g>
   <g>
    <circle stroke="black" stroke-width="0.5" fill="#aaffff" cx="411.0" cy="37.0" r="1.0"/>
    <text stroke="none" x="411.0" y="37.0" font-size="20.0" font-family="helvetica"/>
   </g>
   <g>
    <circle stroke="black" stroke-width="0.5" fill="#aaffff" cx="433.0" cy="883.0" r="1.0"/>
    <text stroke="none" x="433.0" y="883.0" font-size="20.0" font-family="helvetica"/>
   </g>
   <g>
    <circle stroke="black" stroke-width="0.5" fill="#aaffff" cx="442.0" cy="741.0" r="1.0"/>
    <text stroke="none" x="442.0" y="741.0" font-size="10.0" font-family="helvetica">NT1.16</text>
   </g>
   <g>
    <circle stroke="black" stroke-width="0.5" fill="#aaffff" cx="461.0" cy="695.0" r="1.0"/>
    <text stroke="none" x="461.0" y="695.0" font-size="20.0" font-family="helvetica"/>
   </g>
   <g>
    <circle stroke="black" stroke-width="0.5" fill="#aaffff" cx="466.0" cy="1071.0" r="1.0"/>
    <text stroke="none" x="466.0" y="1071.0" font-size="20.0" font-family="helvetica"/>
   </g>
   <g>
    <circle stroke="black" stroke-width="0.5" fill="#aaffff" cx="474.0" cy="318.0" r="1.0"/>
    <text stroke="none" x="474.0" y="318.0" font-size="20.0" font-family="helvetica"/>
   </g>
   <g>
    <circle stroke="black" stroke-width="0.5" fill="#aaffff" cx="475.0" cy="790.0" r="1.0"/>
    <text stroke="none" x="475.0" y="790.0" font-size="20.0" font-family="helvetica"/>
   </g>
   <g>
    <circle stroke="black" stroke-width="0.5" fill="#aaffff" cx="496.0" cy="978.0" r="1.0"/>
    <text stroke="none" x="496.0" y="978.0" font-size="20.0" font-family="helvetica"/>
   </g>
   <g>
    <circle stroke="black" stroke-width="0.5" fill="#aaffff" cx="501.0" cy="506.0" r="1.0"/>
    <text stroke="none" x="501.0" y="506.0" font-size="20.0" font-family="helvetica"/>
   </g>
   <g>
    <circle stroke="black" stroke-width="0.5" fill="#aaffff" cx="545.0" cy="601.0" r="1.0"/>
    <text stroke="none" x="545.0" y="601.0" font-size="20.0" font-family="helvetica"/>
   </g>
   <g>
    <circle stroke="black" stroke-width="0.5" fill="#aaffff" cx="557.0" cy="414.0" r="1.0"/>
    <text stroke="none" x="557.0" y="414.0" font-size="20.0" font-family="helvetica"/>
   </g>
   <g>
    <circle stroke="black" stroke-width="0.5" fill="#aaffff" cx="10.0" cy="942.0" r="1.0"/>
    <text stroke="none" x="10.0" y="942.0" font-size="10.0" font-family="helvetica">NT1.25</text>
   </g>
   <line stroke="black" x1="411.0" y1="37.0" x2="364.0" y2="83.0" stroke-width="0.5"/>
   <line stroke="black" x1="388.0" y1="130.0" x2="364.0" y2="83.0" stroke-width="0.5"/>
   <line stroke="black" x1="312.0" y1="155.0" x2="311.0" y2="153.0" stroke-width="0.5"/>
   <line stroke="black" x1="387.0" y1="226.0" x2="347.0" y2="155.0" stroke-width="0.5"/>
   <line stroke="black" x1="474.0" y1="318.0" x2="397.0" y2="366.0" stroke-width="0.5"/>
   <line stroke="black" x1="557.0" y1="414.0" x2="397.0" y2="366.0" stroke-width="0.5"/>
   <line stroke="black" x1="501.0" y1="506.0" x2="289.0" y2="384.0" stroke-width="0.5"/>
   <line stroke="black" x1="545.0" y1="601.0" x2="252.0" y2="492.0" stroke-width="0.5"/>
   <line stroke="black" x1="433.0" y1="883.0" x2="408.0" y2="811.0" stroke-width="0.5"/>
   <line stroke="black" x1="475.0" y1="790.0" x2="442.0" y2="741.0" stroke-width="0.5"/>
   <line stroke="black" x1="496.0" y1="978.0" x2="102.0" y2="814.0" stroke-width="0.5"/>
   <line stroke="black" x1="364.0" y1="83.0" x2="347.0" y2="155.0" stroke-width="0.5"/>
   <line stroke="black" x1="347.0" y1="155.0" x2="312.0" y2="155.0" stroke-width="0.5"/>
   <line stroke="black" x1="312.0" y1="155.0" x2="310.0" y2="259.0" stroke-width="0.5"/>
   <line stroke="black" x1="310.0" y1="259.0" x2="289.0" y2="384.0" stroke-width="0.5"/>
   <line stroke="black" x1="310.0" y1="259.0" x2="397.0" y2="366.0" stroke-width="0.5"/>
   <line stroke="black" x1="289.0" y1="384.0" x2="252.0" y2="492.0" stroke-width="0.5"/>
   <line stroke="black" x1="252.0" y1="492.0" x2="207.0" y2="653.0" stroke-width="0.5"/>
   <line stroke="black" x1="207.0" y1="653.0" x2="102.0" y2="814.0" stroke-width="0.5"/>
   <line stroke="black" x1="207.0" y1="653.0" x2="408.0" y2="811.0" stroke-width="0.5"/>
   <line stroke="black" x1="10.0" y1="942.0" x2="466.0" y2="1071.0" stroke-width="0.5"/>
   <line stroke="black" x1="10.0" y1="942.0" x2="102.0" y2="814.0" stroke-width="0.5"/>
   <line stroke="black" x1="408.0" y1="811.0" x2="442.0" y2="741.0" stroke-width="0.5"/>
   <line stroke="black" x1="461.0" y1="695.0" x2="442.0" y2="741.0" stroke-width="0.5"/>
  </g>
 </g>
</svg>
