<?xml version="1.0" encoding="UTF-8"?>
<svg xmlns="http://www.w3.org/2000/svg">
 <g>
  <g>
   <g>
    <circle stroke="black" stroke-width="0.5" fill="#aaffff" cx="53.0" cy="88.0" r="1.0"/>
    <text stroke="none" x="53.0" y="88.0" font-size="10.0" font-family="helvetica">NT1.1</text>
   </g>
   <g>
    <circle stroke="black" stroke-width="0.5" fill="#aaffff" cx="181.0" cy="48.0" r="1.0"/>
    <text stroke="none" x="181.0" y="48.0" font-size="10.0" font-family="helvetica">NT1.2</text>
   </g>
   <g>
    <circle stroke="black" stroke-width="0.5" fill="#aaffff" cx="197.0" cy="1025.0" r="1.0"/>
    <text stroke="none" x="197.0" y="1025.0" font-size="10.0" font-family="helvetica">NT1.3</text>
   </g>
   <g>
    <circle stroke="black" stroke-width="0.5" fill="#aaffff" cx="225.0" cy="729.0" r="1.0"/>
    <text stroke="none" x="225.0" y="729.0" font-size="10.0" font-family="helvetica">NT1.4</text>
   </g>
   <g>
    <circle stroke="black" stroke-width="0.5" fill="#aaffff" cx="243.0" cy="1324.0" r="1.0"/>
    <text stroke="none" x="243.0" y="1324.0" font-size="10.0" font-family="helvetica">NT1.5</text>
   </g>
   <g>
    <circle stroke="black" stroke-width="0.5" fill="#aaffff" cx="256.0" cy="1147.0" r="1.0"/>
    <text stroke="none" x="256.0" y="1147.0" font-size="10.0" font-family="helvetica">NT1.6</text>
   </g>
   <g>
    <circle stroke="black" stroke-width="0.5" fill="#aaffff" cx="258.0" cy="310.0" r="1.0"/>
    <text stroke="none" x="258.0" y="310.0" font-size="10.0" font-family="helvetica">NT1.7</text>
   </g>
   <g>
    <circle stroke="black" stroke-width="0.5" fill="#aaffff" cx="288.0" cy="426.0" r="1.0"/>
    <text stroke="none" x="288.0" y="426.0" font-size="10.0" font-family="helvetica">NT1.8</text>
   </g>
   <g>
    <circle stroke="black" stroke-width="0.5" fill="#aaffff" cx="294.0" cy="189.0" r="1.0"/>
    <text stroke="none" x="294.0" y="189.0" font-size="10.0" font-family="helvetica">NT1.9</text>
   </g>
   <g>
    <circle stroke="black" stroke-width="0.5" fill="#aaffff" cx="306.0" cy="326.0" r="1.0"/>
    <text stroke="none" x="306.0" y="326.0" font-size="10.0" font-family="helvetica">NT1.10</text>
   </g>
   <g>
    <circle stroke="black" stroke-width="0.5" fill="#aaffff" cx="308.0" cy="1072.0" r="1.0"/>
    <text stroke="none" x="308.0" y="1072.0" font-size="10.0" font-family="helvetica">NT1.11</text>
   </g>
   <g>
    <circle stroke="black" stroke-width="0.5" fill="#aaffff" cx="312.0" cy="527.0" r="1.0"/>
    <text stroke="none" x="312.0" y="527.0" font-size="10.0" font-family="helvetica">NT1.12</text>
   </g>
   <g>
    <circle stroke="black" stroke-width="0.5" fill="#aaffff" cx="315.0" cy="1277.0" r="1.0"/>
    <text stroke="none" x="315.0" y="1277.0" font-size="10.0" font-family="helvetica">NT1.13</text>
   </g>
   <g>
    <circle stroke="black" stroke-width="0.5" fill="#aaffff" cx="328.0" cy="957.0" r="1.0"/>
    <text stroke="none" x="328.0" y="957.0" font-size="10.0" font-family="helvetica">NT1.14</text>
   </g>
   <g>
    <circle stroke="black" stroke-width="0.5" fill="#aaffff" cx="330.0" cy="1373.0" r="1.0"/>
    <text stroke="none" x="330.0" y="1373.0" font-size="10.0" font-family="helvetica">NT1.15</text>
   </g>
   <g>
    <circle stroke="black" stroke-width="0.5" fill="#aaffff" cx="353.0" cy="612.0" r="1.0"/>
    <text stroke="none" x="353.0" y="612.0" font-size="10.0" font-family="helvetica">NT1.16</text>
   </g>
   <g>
    <circle stroke="black" stroke-width="0.5" fill="#aaffff" cx="353.0" cy="1073.0" r="1.0"/>
    <text stroke="none" x="353.0" y="1073.0" font-size="10.0" font-family="helvetica">NT1.17</text>
   </g>
   <g>
    <circle stroke="black" stroke-width="0.5" fill="#aaffff" cx="357.0" cy="365.0" r="1.0"/>
    <text stroke="none" x="357.0" y="365.0" font-size="10.0" font-family="helvetica">NT1.18</text>
   </g>
   <g>
    <circle stroke="black" stroke-width="0.5" fill="#aaffff" cx="375.0" cy="286.0" r="1.0"/>
    <text stroke="none" x="375.0" y="286.0" font-size="10.0" font-family="helvetica">NT1.19</text>
   </g>
   <g>
    <circle stroke="black" stroke-width="0.5" fill="#aaffff" cx="380.0" cy="1016.0" r="1.0"/>
    <text stroke="none" x="380.0" y="1016.0" font-size="10.0" font-family="helvetica">NT1.20</text>
   </g>
   <g>
    <circle stroke="black" stroke-width="0.5" fill="#aaffff" cx="387.0" cy="74.0" r="1.0"/>
    <text stroke="none" x="387.0" y="74.0" font-size="10.0" font-family="helvetica">NT1.21</text>
   </g>
   <g>
    <circle stroke="black" stroke-width="0.5" fill="#aaffff" cx="395.0" cy="1347.0" r="1.0"/>
    <text stroke="none" x="395.0" y="1347.0" font-size="10.0" font-family="helvetica">NT1.22</text>
   </g>
   <g>
    <circle stroke="black" stroke-width="0.5" fill="#aaffff" cx="411.0" cy="514.0" r="1.0"/>
    <text stroke="none" x="411.0" y="514.0" font-size="10.0" font-family="helvetica">NT1.23</text>
   </g>
   <g>
    <circle stroke="black" stroke-width="0.5" fill="#aaffff" cx="411.0" cy="711.0" r="1.0"/>
    <text stroke="none" x="411.0" y="711.0" font-size="10.0" font-family="helvetica">NT1.24</text>
   </g>
   <g>
    <circle stroke="black" stroke-width="0.5" fill="#aaffff" cx="415.0" cy="1224.0" r="1.0"/>
    <text stroke="none" x="415.0" y="1224.0" font-size="20.0" font-family="helvetica">‘P. massiliensis’ CIP 107630 (AF487886)</text>
   </g>
   <g>
    <circle stroke="black" stroke-width="0.5" fill="#aaffff" cx="422.0" cy="392.0" r="1.0"/>
    <text stroke="none" x="422.0" y="392.0" font-size="10.0" font-family="helvetica">NT1.26</text>
   </g>
   <g>
    <circle stroke="black" stroke-width="0.5" fill="#aaffff" cx="425.0" cy="1063.0" r="1.0"/>
    <text stroke="none" x="425.0" y="1063.0" font-size="10.0" font-family="helvetica">NT1.27</text>
   </g>
   <g>
    <circle stroke="black" stroke-width="0.5" fill="#aaffff" cx="425.0" cy="967.0" r="1.0"/>
    <text stroke="none" x="425.0" y="967.0" font-size="10.0" font-family="helvetica">NT1.28</text>
   </g>
   <g>
    <circle stroke="black" stroke-width="0.5" fill="#aaffff" cx="432.0" cy="55.0" r="1.0"/>
    <text stroke="none" x="432.0" y="55.0" font-size="20.0" font-family="helvetica">P. heparinolytica ATCC 35895T (L16487)</text>
   </g>
   <g>
    <circle stroke="black" stroke-width="0.5" fill="#aaffff" cx="446.0" cy="92.0" r="1.0"/>
    <text stroke="none" x="446.0" y="92.0" font-size="20.0" font-family="helvetica"> P. zoogleoformans ATCC 33285T (L16488)</text>
   </g>
   <g>
    <circle stroke="black" stroke-width="0.5" fill="#aaffff" cx="446.0" cy="163.0" r="1.0"/>
    <text stroke="none" x="446.0" y="163.0" font-size="20.0" font-family="helvetica">P. bivia ATCC 29303T (L16475)</text>
   </g>
   <g>
    <circle stroke="black" stroke-width="0.5" fill="#aaffff" cx="450.0" cy="215.0" r="1.0"/>
    <text stroke="none" x="450.0" y="215.0" font-size="10.0" font-family="helvetica">NT1.32</text>
   </g>
   <g>
    <circle stroke="black" stroke-width="0.5" fill="#aaffff" cx="451.0" cy="305.0" r="1.0"/>
    <text stroke="none" x="451.0" y="305.0" font-size="20.0" font-family="helvetica">P. copn' CB7T (ABO64923)</text>
   </g>
   <g>
    <circle stroke="black" stroke-width="0.5" fill="#aaffff" cx="455.0" cy="338.0" r="1.0"/>
    <text stroke="none" x="455.0" y="338.0" font-size="20.0" font-family="helvetica">P. oulorum ATCC 43324T (L16472)</text>
   </g>
   <g>
    <circle stroke="black" stroke-width="0.5" fill="#aaffff" cx="457.0" cy="744.0" r="1.0"/>
    <text stroke="none" x="457.0" y="744.0" font-size="10.0" font-family="helvetica">NT1.35</text>
   </g>
   <g>
    <circle stroke="black" stroke-width="0.5" fill="#aaffff" cx="459.0" cy="546.0" r="1.0"/>
    <text stroke="none" x="459.0" y="546.0" font-size="10.0" font-family="helvetica">NT1.36</text>
   </g>
   <g>
    <circle stroke="black" stroke-width="0.5" fill="#aaffff" cx="462.0" cy="410.0" r="1.0"/>
    <text stroke="none" x="462.0" y="410.0" font-size="20.0" font-family="helvetica">P. salivae JCM 12084T (AB108826)</text>
   </g>
   <g>
    <circle stroke="black" stroke-width="0.5" fill="#aaffff" cx="469.0" cy="1257.0" r="1.0"/>
    <text stroke="none" x="469.0" y="1257.0" font-size="20.0" font-family="helvetica"/>
   </g>
   <g>
    <circle stroke="black" stroke-width="0.5" fill="#aaffff" cx="471.0" cy="1401.0" r="1.0"/>
    <text stroke="none" x="471.0" y="1401.0" font-size="20.0" font-family="helvetica">P. dentalls DSM 3688T (X81876)</text>
   </g>
   <g>
    <circle stroke="black" stroke-width="0.5" fill="#aaffff" cx="496.0" cy="728.0" r="1.0"/>
    <text stroke="none" x="496.0" y="728.0" font-size="20.0" font-family="helvetica">P. melaninogenica ATCC 25845T (AY323525)</text>
   </g>
   <g>
    <circle stroke="black" stroke-width="0.5" fill="#aaffff" cx="498.0" cy="445.0" r="1.0"/>
    <text stroke="none" x="498.0" y="445.0" font-size="20.0" font-family="helvetica">P. albensis M384T (AJ011683)</text>
   </g>
   <g>
    <circle stroke="black" stroke-width="0.5" fill="#aaffff" cx="500.0" cy="1134.0" r="1.0"/>
    <text stroke="none" x="500.0" y="1134.0" font-size="10.0" font-family="helvetica">NT1.42</text>
   </g>
   <g>
    <circle stroke="black" stroke-width="0.5" fill="#aaffff" cx="505.0" cy="1293.0" r="1.0"/>
    <text stroke="none" x="505.0" y="1293.0" font-size="20.0" font-family="helvetica">P. buccae ATCC 33574T (L16477)</text>
   </g>
   <g>
    <circle stroke="black" stroke-width="0.5" fill="#aaffff" cx="506.0" cy="577.0" r="1.0"/>
    <text stroke="none" x="506.0" y="577.0" font-size="10.0" font-family="helvetica">NT1.44</text>
   </g>
   <g>
    <circle stroke="black" stroke-width="0.5" fill="#aaffff" cx="512.0" cy="127.0" r="1.0"/>
    <text stroke="none" x="512.0" y="127.0" font-size="20.0" font-family="helvetica"/>
   </g>
   <g>
    <circle stroke="black" stroke-width="0.5" fill="#aaffff" cx="525.0" cy="764.0" r="1.0"/>
    <text stroke="none" x="525.0" y="764.0" font-size="20.0" font-family="helvetica">P. veroralis ATCC 33779T (AY836507)</text>
   </g>
   <g>
    <circle stroke="black" stroke-width="0.5" fill="#aaffff" cx="527.0" cy="1188.0" r="1.0"/>
    <text stroke="none" x="527.0" y="1188.0" font-size="20.0" font-family="helvetica">P. stercorea CB35T (ABZ44774)</text>
   </g>
   <g>
    <circle stroke="black" stroke-width="0.5" fill="#aaffff" cx="538.0" cy="603.0" r="1.0"/>
    <text stroke="none" x="538.0" y="603.0" font-size="10.0" font-family="helvetica">NT1.48</text>
   </g>
   <g>
    <circle stroke="black" stroke-width="0.5" fill="#aaffff" cx="541.0" cy="481.0" r="1.0"/>
    <text stroke="none" x="541.0" y="481.0" font-size="20.0" font-family="helvetica">P. corporis ATCC 33547T (L16465)</text>
   </g>
   <g>
    <circle stroke="black" stroke-width="0.5" fill="#aaffff" cx="550.0" cy="374.0" r="1.0"/>
    <text stroke="none" x="550.0" y="374.0" font-size="20.0" font-family="helvetica">P. oris ATCC 33573T (L16474)</text>
   </g>
   <g>
    <circle stroke="black" stroke-width="0.5" fill="#aaffff" cx="551.0" cy="993.0" r="1.0"/>
    <text stroke="none" x="551.0" y="993.0" font-size="10.0" font-family="helvetica">NT1.51</text>
   </g>
   <g>
    <circle stroke="black" stroke-width="0.5" fill="#aaffff" cx="557.0" cy="941.0" r="1.0"/>
    <text stroke="none" x="557.0" y="941.0" font-size="20.0" font-family="helvetica">P. marsh/'1' E9.34T (AF481227)</text>
   </g>
   <g>
    <circle stroke="black" stroke-width="0.5" fill="#aaffff" cx="558.0" cy="676.0" r="1.0"/>
    <text stroke="none" x="558.0" y="676.0" font-size="10.0" font-family="helvetica">NT1.53</text>
   </g>
   <g>
    <circle stroke="black" stroke-width="0.5" fill="#aaffff" cx="563.0" cy="797.0" r="1.0"/>
    <text stroke="none" x="563.0" y="797.0" font-size="20.0" font-family="helvetica">P. nanceiensis LBN 293T (AY957555)</text>
   </g>
   <g>
    <circle stroke="black" stroke-width="0.5" fill="#aaffff" cx="563.0" cy="838.0" r="1.0"/>
    <text stroke="none" x="563.0" y="838.0" font-size="10.0" font-family="helvetica">NT1.55</text>
   </g>
   <g>
    <circle stroke="black" stroke-width="0.5" fill="#aaffff" cx="567.0" cy="906.0" r="1.0"/>
    <text stroke="none" x="567.0" y="906.0" font-size="20.0" font-family="helvetica"/>
   </g>
   <g>
    <circle stroke="black" stroke-width="0.5" fill="#aaffff" cx="567.0" cy="877.0" r="1.0"/>
    <text stroke="none" x="567.0" y="877.0" font-size="10.0" font-family="helvetica">NT1.57</text>
   </g>
   <g>
    <circle stroke="black" stroke-width="0.5" fill="#aaffff" cx="568.0" cy="1329.0" r="1.0"/>
    <text stroke="none" x="568.0" y="1329.0" font-size="20.0" font-family="helvetica">P. bergensis DSM 17361T (AY350613)</text>
   </g>
   <g>
    <circle stroke="black" stroke-width="0.5" fill="#aaffff" cx="571.0" cy="853.0" r="1.0"/>
    <text stroke="none" x="571.0" y="853.0" font-size="10.0" font-family="helvetica">NT1.59</text>
   </g>
   <g>
    <circle stroke="black" stroke-width="0.5" fill="#aaffff" cx="574.0" cy="833.0" r="1.0"/>
    <text stroke="none" x="574.0" y="833.0" font-size="20.0" font-family="helvetica"/>
   </g>
   <g>
    <circle stroke="black" stroke-width="0.5" fill="#aaffff" cx="577.0" cy="869.0" r="1.0"/>
    <text stroke="none" x="577.0" y="869.0" font-size="20.0" font-family="helvetica"/>
   </g>
   <g>
    <circle stroke="black" stroke-width="0.5" fill="#aaffff" cx="577.0" cy="1152.0" r="1.0"/>
    <text stroke="none" x="577.0" y="1152.0" font-size="20.0" font-family="helvetica">P. timonensis 4401737T (00513919)</text>
   </g>
   <g>
    <circle stroke="black" stroke-width="0.5" fill="#aaffff" cx="581.0" cy="233.0" r="1.0"/>
    <text stroke="none" x="581.0" y="233.0" font-size="20.0" font-family="helvetica">P. ruminicola ATCC 19189T (L16482)</text>
   </g>
   <g>
    <circle stroke="black" stroke-width="0.5" fill="#aaffff" cx="584.0" cy="1116.0" r="1.0"/>
    <text stroke="none" x="584.0" y="1116.0" font-size="20.0" font-family="helvetica">P. buccalis ATCC 35310T (L16476)</text>
   </g>
   <g>
    <circle stroke="black" stroke-width="0.5" fill="#aaffff" cx="584.0" cy="515.0" r="1.0"/>
    <text stroke="none" x="584.0" y="515.0" font-size="20.0" font-family="helvetica">P. disiens ATCC 29426T (L16483)</text>
   </g>
   <g>
    <circle stroke="black" stroke-width="0.5" fill="#aaffff" cx="586.0" cy="196.0" r="1.0"/>
    <text stroke="none" x="586.0" y="196.0" font-size="20.0" font-family="helvetica"/>
   </g>
   <g>
    <circle stroke="black" stroke-width="0.5" fill="#aaffff" cx="586.0" cy="1046.0" r="1.0"/>
    <text stroke="none" x="586.0" y="1046.0" font-size="20.0" font-family="helvetica">P. oralis ATCC 332ng (AY323522)</text>
   </g>
   <g>
    <circle stroke="black" stroke-width="0.5" fill="#aaffff" cx="586.0" cy="1011.0" r="1.0"/>
    <text stroke="none" x="586.0" y="1011.0" font-size="20.0" font-family="helvetica">P. shahii JCM 12083T (AB108825)</text>
   </g>
   <g>
    <circle stroke="black" stroke-width="0.5" fill="#aaffff" cx="586.0" cy="656.0" r="1.0"/>
    <text stroke="none" x="586.0" y="656.0" font-size="20.0" font-family="helvetica">P. denticola ATCC 35308T (AY323524)</text>
   </g>
   <g>
    <circle stroke="black" stroke-width="0.5" fill="#aaffff" cx="586.0" cy="550.0" r="1.0"/>
    <text stroke="none" x="586.0" y="550.0" font-size="20.0" font-family="helvetica">P. pallens10371T (Y13105)</text>
   </g>
   <g>
    <circle stroke="black" stroke-width="0.5" fill="#aaffff" cx="613.0" cy="586.0" r="1.0"/>
    <text stroke="none" x="613.0" y="586.0" font-size="20.0" font-family="helvetica">P. intermedia ATCC 25611T (AF414821)</text>
   </g>
   <g>
    <circle stroke="black" stroke-width="0.5" fill="#aaffff" cx="624.0" cy="974.0" r="1.0"/>
    <text stroke="none" x="624.0" y="974.0" font-size="20.0" font-family="helvetica"/>
   </g>
   <g>
    <circle stroke="black" stroke-width="0.5" fill="#aaffff" cx="629.0" cy="692.0" r="1.0"/>
    <text stroke="none" x="629.0" y="692.0" font-size="20.0" font-family="helvetica">P. multiformis PPF’A21T (AB182483)</text>
   </g>
   <g>
    <circle stroke="black" stroke-width="0.5" fill="#aaffff" cx="636.0" cy="268.0" r="1.0"/>
    <text stroke="none" x="636.0" y="268.0" font-size="20.0" font-family="helvetica">P. bryantii DSM 11371T (AJ006457)</text>
   </g>
   <g>
    <circle stroke="black" stroke-width="0.5" fill="#aaffff" cx="640.0" cy="1083.0" r="1.0"/>
    <text stroke="none" x="640.0" y="1083.0" font-size="20.0" font-family="helvetica">P. enoeca ATCC 51261T (AJ005635)</text>
   </g>
   <g>
    <circle stroke="black" stroke-width="0.5" fill="#aaffff" cx="667.0" cy="623.0" r="1.0"/>
    <text stroke="none" x="667.0" y="623.0" font-size="20.0" font-family="helvetica">P. nigrescens ATCC 33563T (AF414833)</text>
   </g>
   <g>
    <circle stroke="black" stroke-width="0.5" fill="#aaffff" cx="687.0" cy="1365.0" r="1.0"/>
    <text stroke="none" x="687.0" y="1365.0" font-size="20.0" font-family="helvetica">P. multisaccharivorax JCM 12954T (AB200414)</text>
   </g>
   <g>
    <circle stroke="black" stroke-width="0.5" fill="#aaffff" cx="829.0" cy="22.0" r="1.0"/>
    <text stroke="none" x="829.0" y="22.0" font-size="20.0" font-family="helvetica">P. gingivalis ATCC 33277T (AF414809)</text>
   </g>
   <g>
    <circle stroke="black" stroke-width="0.5" fill="#aaffff" cx="7.0" cy="556.0" r="1.0"/>
    <text stroke="none" x="7.0" y="556.0" font-size="10.0" font-family="helvetica">NT1.79</text>
   </g>
   <line stroke="black" x1="432.0" y1="55.0" x2="387.0" y2="74.0" stroke-width="0.5"/>
   <line stroke="black" x1="446.0" y1="92.0" x2="387.0" y2="74.0" stroke-width="0.5"/>
   <line stroke="black" x1="512.0" y1="127.0" x2="53.0" y2="88.0" stroke-width="0.5"/>
   <line stroke="black" x1="469.0" y1="1257.0" x2="315.0" y2="1277.0" stroke-width="0.5"/>
   <line stroke="black" x1="505.0" y1="1293.0" x2="315.0" y2="1277.0" stroke-width="0.5"/>
   <line stroke="black" x1="568.0" y1="1329.0" x2="395.0" y2="1347.0" stroke-width="0.5"/>
   <line stroke="black" x1="451.0" y1="305.0" x2="375.0" y2="286.0" stroke-width="0.5"/>
   <line stroke="black" x1="527.0" y1="1188.0" x2="308.0" y2="1072.0" stroke-width="0.5"/>
   <line stroke="black" x1="581.0" y1="233.0" x2="450.0" y2="215.0" stroke-width="0.5"/>
   <line stroke="black" x1="586.0" y1="196.0" x2="450.0" y2="215.0" stroke-width="0.5"/>
   <line stroke="black" x1="462.0" y1="410.0" x2="422.0" y2="392.0" stroke-width="0.5"/>
   <line stroke="black" x1="498.0" y1="445.0" x2="312.0" y2="527.0" stroke-width="0.5"/>
   <line stroke="black" x1="550.0" y1="374.0" x2="422.0" y2="392.0" stroke-width="0.5"/>
   <line stroke="black" x1="636.0" y1="268.0" x2="375.0" y2="286.0" stroke-width="0.5"/>
   <line stroke="black" x1="563.0" y1="797.0" x2="563.0" y2="838.0" stroke-width="0.5"/>
   <line stroke="black" x1="496.0" y1="728.0" x2="457.0" y2="744.0" stroke-width="0.5"/>
   <line stroke="black" x1="567.0" y1="906.0" x2="567.0" y2="877.0" stroke-width="0.5"/>
   <line stroke="black" x1="577.0" y1="869.0" x2="571.0" y2="853.0" stroke-width="0.5"/>
   <line stroke="black" x1="577.0" y1="1152.0" x2="500.0" y2="1134.0" stroke-width="0.5"/>
   <line stroke="black" x1="525.0" y1="764.0" x2="457.0" y2="744.0" stroke-width="0.5"/>
   <line stroke="black" x1="557.0" y1="941.0" x2="425.0" y2="967.0" stroke-width="0.5"/>
   <line stroke="black" x1="586.0" y1="1046.0" x2="425.0" y2="1063.0" stroke-width="0.5"/>
   <line stroke="black" x1="586.0" y1="1011.0" x2="551.0" y2="993.0" stroke-width="0.5"/>
   <line stroke="black" x1="586.0" y1="656.0" x2="558.0" y2="676.0" stroke-width="0.5"/>
   <line stroke="black" x1="586.0" y1="550.0" x2="506.0" y2="577.0" stroke-width="0.5"/>
   <line stroke="black" x1="640.0" y1="1083.0" x2="425.0" y2="1063.0" stroke-width="0.5"/>
   <line stroke="black" x1="624.0" y1="974.0" x2="551.0" y2="993.0" stroke-width="0.5"/>
   <line stroke="black" x1="613.0" y1="586.0" x2="538.0" y2="603.0" stroke-width="0.5"/>
   <line stroke="black" x1="667.0" y1="623.0" x2="538.0" y2="603.0" stroke-width="0.5"/>
   <line stroke="black" x1="181.0" y1="48.0" x2="53.0" y2="88.0" stroke-width="0.5"/>
   <line stroke="black" x1="181.0" y1="48.0" x2="387.0" y2="74.0" stroke-width="0.5"/>
   <line stroke="black" x1="197.0" y1="1025.0" x2="243.0" y2="1324.0" stroke-width="0.5"/>
   <line stroke="black" x1="197.0" y1="1025.0" x2="225.0" y2="729.0" stroke-width="0.5"/>
   <line stroke="black" x1="225.0" y1="729.0" x2="256.0" y2="1147.0" stroke-width="0.5"/>
   <line stroke="black" x1="225.0" y1="729.0" x2="258.0" y2="310.0" stroke-width="0.5"/>
   <line stroke="black" x1="243.0" y1="1324.0" x2="330.0" y2="1373.0" stroke-width="0.5"/>
   <line stroke="black" x1="243.0" y1="1324.0" x2="315.0" y2="1277.0" stroke-width="0.5"/>
   <line stroke="black" x1="330.0" y1="1373.0" x2="395.0" y2="1347.0" stroke-width="0.5"/>
   <line stroke="black" x1="256.0" y1="1147.0" x2="308.0" y2="1072.0" stroke-width="0.5"/>
   <line stroke="black" x1="258.0" y1="310.0" x2="288.0" y2="426.0" stroke-width="0.5"/>
   <line stroke="black" x1="258.0" y1="310.0" x2="294.0" y2="189.0" stroke-width="0.5"/>
   <line stroke="black" x1="308.0" y1="1072.0" x2="328.0" y2="957.0" stroke-width="0.5"/>
   <line stroke="black" x1="288.0" y1="426.0" x2="312.0" y2="527.0" stroke-width="0.5"/>
   <line stroke="black" x1="288.0" y1="426.0" x2="306.0" y2="326.0" stroke-width="0.5"/>
   <line stroke="black" x1="294.0" y1="189.0" x2="450.0" y2="215.0" stroke-width="0.5"/>
   <line stroke="black" x1="328.0" y1="957.0" x2="353.0" y2="1073.0" stroke-width="0.5"/>
   <line stroke="black" x1="328.0" y1="957.0" x2="563.0" y2="838.0" stroke-width="0.5"/>
   <line stroke="black" x1="306.0" y1="326.0" x2="357.0" y2="365.0" stroke-width="0.5"/>
   <line stroke="black" x1="306.0" y1="326.0" x2="375.0" y2="286.0" stroke-width="0.5"/>
   <line stroke="black" x1="312.0" y1="527.0" x2="353.0" y2="612.0" stroke-width="0.5"/>
   <line stroke="black" x1="357.0" y1="365.0" x2="422.0" y2="392.0" stroke-width="0.5"/>
   <line stroke="black" x1="353.0" y1="612.0" x2="411.0" y2="711.0" stroke-width="0.5"/>
   <line stroke="black" x1="353.0" y1="612.0" x2="411.0" y2="514.0" stroke-width="0.5"/>
   <line stroke="black" x1="353.0" y1="1073.0" x2="500.0" y2="1134.0" stroke-width="0.5"/>
   <line stroke="black" x1="353.0" y1="1073.0" x2="380.0" y2="1016.0" stroke-width="0.5"/>
   <line stroke="black" x1="380.0" y1="1016.0" x2="425.0" y2="1063.0" stroke-width="0.5"/>
   <line stroke="black" x1="380.0" y1="1016.0" x2="425.0" y2="967.0" stroke-width="0.5"/>
   <line stroke="black" x1="411.0" y1="514.0" x2="459.0" y2="546.0" stroke-width="0.5"/>
   <line stroke="black" x1="411.0" y1="711.0" x2="457.0" y2="744.0" stroke-width="0.5"/>
   <line stroke="black" x1="411.0" y1="711.0" x2="558.0" y2="676.0" stroke-width="0.5"/>
   <line stroke="black" x1="425.0" y1="967.0" x2="551.0" y2="993.0" stroke-width="0.5"/>
   <line stroke="black" x1="563.0" y1="838.0" x2="567.0" y2="877.0" stroke-width="0.5"/>
   <line stroke="black" x1="459.0" y1="546.0" x2="506.0" y2="577.0" stroke-width="0.5"/>
   <line stroke="black" x1="567.0" y1="877.0" x2="571.0" y2="853.0" stroke-width="0.5"/>
   <line stroke="black" x1="571.0" y1="853.0" x2="574.0" y2="833.0" stroke-width="0.5"/>
   <line stroke="black" x1="506.0" y1="577.0" x2="538.0" y2="603.0" stroke-width="0.5"/>
   <line stroke="black" x1="7.0" y1="556.0" x2="53.0" y2="88.0" stroke-width="0.5"/>
   <line stroke="black" x1="7.0" y1="556.0" x2="197.0" y2="1025.0" stroke-width="0.5"/>
   <line stroke="black" x1="415.0" y1="1224.0" x2="256.0" y2="1147.0" stroke-width="0.5"/>
   <line stroke="black" x1="446.0" y1="163.0" x2="294.0" y2="189.0" stroke-width="0.5"/>
   <line stroke="black" x1="471.0" y1="1401.0" x2="330.0" y2="1373.0" stroke-width="0.5"/>
   <line stroke="black" x1="455.0" y1="338.0" x2="357.0" y2="365.0" stroke-width="0.5"/>
   <line stroke="black" x1="541.0" y1="481.0" x2="411.0" y2="514.0" stroke-width="0.5"/>
   <line stroke="black" x1="687.0" y1="1365.0" x2="395.0" y2="1347.0" stroke-width="0.5"/>
   <line stroke="black" x1="584.0" y1="515.0" x2="459.0" y2="546.0" stroke-width="0.5"/>
   <line stroke="black" x1="829.0" y1="22.0" x2="181.0" y2="48.0" stroke-width="0.5"/>
   <line stroke="black" x1="584.0" y1="1116.0" x2="500.0" y2="1134.0" stroke-width="0.5"/>
   <line stroke="black" x1="629.0" y1="692.0" x2="558.0" y2="676.0" stroke-width="0.5"/>
  </g>
 </g>
</svg>
