<?xml version="1.0" encoding="UTF-8"?>
<svg xmlns="http://www.w3.org/2000/svg">
 <g>
  <g>
   <g>
    <circle stroke="black" stroke-width="0.5" fill="#aaffff" cx="3.0" cy="535.0" r="1.0"/>
    <text stroke="none" x="3.0" y="535.0" font-size="20.0" font-family="helvetica"/>
   </g>
   <g>
    <circle stroke="black" stroke-width="0.5" fill="#aaffff" cx="14.0" cy="535.0" r="1.0"/>
    <text stroke="none" x="14.0" y="535.0" font-size="10.0" font-family="helvetica">NT1.2</text>
   </g>
   <g>
    <circle stroke="black" stroke-width="0.5" fill="#aaffff" cx="24.0" cy="351.0" r="1.0"/>
    <text stroke="none" x="24.0" y="351.0" font-size="10.0" font-family="helvetica">NT1.3</text>
   </g>
   <g>
    <circle stroke="black" stroke-width="0.5" fill="#aaffff" cx="28.0" cy="684.0" r="1.0"/>
    <text stroke="none" x="28.0" y="684.0" font-size="10.0" font-family="helvetica">NT1.4</text>
   </g>
   <g>
    <circle stroke="black" stroke-width="0.5" fill="#aaffff" cx="48.0" cy="640.0" r="1.0"/>
    <text stroke="none" x="48.0" y="640.0" font-size="10.0" font-family="helvetica">NT1.5</text>
   </g>
   <g>
    <circle stroke="black" stroke-width="0.5" fill="#aaffff" cx="79.0" cy="246.0" r="1.0"/>
    <text stroke="none" x="79.0" y="246.0" font-size="10.0" font-family="helvetica">NT1.6</text>
   </g>
   <g>
    <circle stroke="black" stroke-width="0.5" fill="#aaffff" cx="80.0" cy="594.0" r="1.0"/>
    <text stroke="none" x="80.0" y="594.0" font-size="10.0" font-family="helvetica">NT1.7</text>
   </g>
   <g>
    <circle stroke="black" stroke-width="0.5" fill="#aaffff" cx="92.0" cy="450.0" r="1.0"/>
    <text stroke="none" x="92.0" y="450.0" font-size="10.0" font-family="helvetica">NT1.8</text>
   </g>
   <g>
    <circle stroke="black" stroke-width="0.5" fill="#aaffff" cx="110.0" cy="684.0" r="1.0"/>
    <text stroke="none" x="110.0" y="684.0" font-size="20.0" font-family="helvetica"> N. abscessus IMMIB D4592T (AF218292)</text>
   </g>
   <g>
    <circle stroke="black" stroke-width="0.5" fill="#aaffff" cx="123.0" cy="733.0" r="1.0"/>
    <text stroke="none" x="123.0" y="733.0" font-size="20.0" font-family="helvetica">N. cyriacigeorgica DSM 44484T (AF430027)</text>
   </g>
   <g>
    <circle stroke="black" stroke-width="0.5" fill="#aaffff" cx="127.0" cy="554.0" r="1.0"/>
    <text stroke="none" x="127.0" y="554.0" font-size="10.0" font-family="helvetica">NT1.11</text>
   </g>
   <g>
    <circle stroke="black" stroke-width="0.5" fill="#aaffff" cx="134.0" cy="196.0" r="1.0"/>
    <text stroke="none" x="134.0" y="196.0" font-size="20.0" font-family="helvetica">79</text>
   </g>
   <g>
    <circle stroke="black" stroke-width="0.5" fill="#aaffff" cx="196.0" cy="634.0" r="1.0"/>
    <text stroke="none" x="196.0" y="634.0" font-size="20.0" font-family="helvetica"> N. thailandica IFM 10145T (AB126874)</text>
   </g>
   <g>
    <circle stroke="black" stroke-width="0.5" fill="#aaffff" cx="196.0" cy="529.0" r="1.0"/>
    <text stroke="none" x="196.0" y="529.0" font-size="20.0" font-family="helvetica"/>
   </g>
   <g>
    <circle stroke="black" stroke-width="0.5" fill="#aaffff" cx="199.0" cy="171.0" r="1.0"/>
    <text stroke="none" x="199.0" y="171.0" font-size="20.0" font-family="helvetica">E—</text>
   </g>
   <g>
    <circle stroke="black" stroke-width="0.5" fill="#aaffff" cx="202.0" cy="375.0" r="1.0"/>
    <text stroke="none" x="202.0" y="375.0" font-size="20.0" font-family="helvetica">N. transvalensis DSM 43405T (236926)</text>
   </g>
   <g>
    <circle stroke="black" stroke-width="0.5" fill="#aaffff" cx="210.0" cy="122.0" r="1.0"/>
    <text stroke="none" x="210.0" y="122.0" font-size="10.0" font-family="helvetica">NT1.17</text>
   </g>
   <g>
    <circle stroke="black" stroke-width="0.5" fill="#aaffff" cx="221.0" cy="77.0" r="1.0"/>
    <text stroke="none" x="221.0" y="77.0" font-size="10.0" font-family="helvetica">NT1.18</text>
   </g>
   <g>
    <circle stroke="black" stroke-width="0.5" fill="#aaffff" cx="224.0" cy="425.0" r="1.0"/>
    <text stroke="none" x="224.0" y="425.0" font-size="20.0" font-family="helvetica">N. bras/liensis ATCC 19296T (236935)</text>
   </g>
   <g>
    <circle stroke="black" stroke-width="0.5" fill="#aaffff" cx="248.0" cy="579.0" r="1.0"/>
    <text stroke="none" x="248.0" y="579.0" font-size="20.0" font-family="helvetica"/>
   </g>
   <g>
    <circle stroke="black" stroke-width="0.5" fill="#aaffff" cx="251.0" cy="216.0" r="1.0"/>
    <text stroke="none" x="251.0" y="216.0" font-size="20.0" font-family="helvetica"/>
   </g>
   <g>
    <circle stroke="black" stroke-width="0.5" fill="#aaffff" cx="251.0" cy="474.0" r="1.0"/>
    <text stroke="none" x="251.0" y="474.0" font-size="20.0" font-family="helvetica"/>
   </g>
   <g>
    <circle stroke="black" stroke-width="0.5" fill="#aaffff" cx="271.0" cy="320.0" r="1.0"/>
    <text stroke="none" x="271.0" y="320.0" font-size="20.0" font-family="helvetica">N. harenae WS-26T (00282122)</text>
   </g>
   <g>
    <circle stroke="black" stroke-width="0.5" fill="#aaffff" cx="272.0" cy="37.0" r="1.0"/>
    <text stroke="none" x="272.0" y="37.0" font-size="20.0" font-family="helvetica">,.</text>
   </g>
   <g>
    <circle stroke="black" stroke-width="0.5" fill="#aaffff" cx="281.0" cy="116.0" r="1.0"/>
    <text stroke="none" x="281.0" y="116.0" font-size="20.0" font-family="helvetica"/>
   </g>
   <g>
    <circle stroke="black" stroke-width="0.5" fill="#aaffff" cx="286.0" cy="12.0" r="1.0"/>
    <text stroke="none" x="286.0" y="12.0" font-size="20.0" font-family="helvetica"/>
   </g>
   <g>
    <circle stroke="black" stroke-width="0.5" fill="#aaffff" cx="297.0" cy="61.0" r="1.0"/>
    <text stroke="none" x="297.0" y="61.0" font-size="20.0" font-family="helvetica"/>
   </g>
   <g>
    <circle stroke="black" stroke-width="0.5" fill="#aaffff" cx="306.0" cy="271.0" r="1.0"/>
    <text stroke="none" x="306.0" y="271.0" font-size="20.0" font-family="helvetica">Strain N2-11T (AM422449)</text>
   </g>
   <g>
    <circle stroke="black" stroke-width="0.5" fill="#aaffff" cx="433.0" cy="166.0" r="1.0"/>
    <text stroke="none" x="433.0" y="166.0" font-size="20.0" font-family="helvetica">N. pigrifrangens 703‘1T (AF219974)</text>
   </g>
   <line stroke="black" x1="286.0" y1="12.0" x2="272.0" y2="37.0" stroke-width="0.5"/>
   <line stroke="black" x1="433.0" y1="166.0" x2="210.0" y2="122.0" stroke-width="0.5"/>
   <line stroke="black" x1="202.0" y1="375.0" x2="24.0" y2="351.0" stroke-width="0.5"/>
   <line stroke="black" x1="3.0" y1="535.0" x2="14.0" y2="535.0" stroke-width="0.5"/>
   <line stroke="black" x1="251.0" y1="474.0" x2="92.0" y2="450.0" stroke-width="0.5"/>
   <line stroke="black" x1="123.0" y1="733.0" x2="28.0" y2="684.0" stroke-width="0.5"/>
   <line stroke="black" x1="110.0" y1="684.0" x2="48.0" y2="640.0" stroke-width="0.5"/>
   <line stroke="black" x1="196.0" y1="529.0" x2="127.0" y2="554.0" stroke-width="0.5"/>
   <line stroke="black" x1="248.0" y1="579.0" x2="127.0" y2="554.0" stroke-width="0.5"/>
   <line stroke="black" x1="272.0" y1="37.0" x2="221.0" y2="77.0" stroke-width="0.5"/>
   <line stroke="black" x1="221.0" y1="77.0" x2="210.0" y2="122.0" stroke-width="0.5"/>
   <line stroke="black" x1="210.0" y1="122.0" x2="199.0" y2="171.0" stroke-width="0.5"/>
   <line stroke="black" x1="199.0" y1="171.0" x2="134.0" y2="196.0" stroke-width="0.5"/>
   <line stroke="black" x1="134.0" y1="196.0" x2="79.0" y2="246.0" stroke-width="0.5"/>
   <line stroke="black" x1="79.0" y1="246.0" x2="24.0" y2="351.0" stroke-width="0.5"/>
   <line stroke="black" x1="24.0" y1="351.0" x2="14.0" y2="535.0" stroke-width="0.5"/>
   <line stroke="black" x1="14.0" y1="535.0" x2="28.0" y2="684.0" stroke-width="0.5"/>
   <line stroke="black" x1="48.0" y1="640.0" x2="80.0" y2="594.0" stroke-width="0.5"/>
   <line stroke="black" x1="80.0" y1="594.0" x2="127.0" y2="554.0" stroke-width="0.5"/>
   <line stroke="black" x1="24.0" y1="351.0" x2="92.0" y2="450.0" stroke-width="0.5"/>
   <line stroke="black" x1="28.0" y1="684.0" x2="48.0" y2="640.0" stroke-width="0.5"/>
   <line stroke="black" x1="271.0" y1="320.0" x2="79.0" y2="246.0" stroke-width="0.5"/>
   <line stroke="black" x1="196.0" y1="634.0" x2="80.0" y2="594.0" stroke-width="0.5"/>
   <line stroke="black" x1="224.0" y1="425.0" x2="92.0" y2="450.0" stroke-width="0.5"/>
   <line stroke="black" x1="306.0" y1="271.0" x2="134.0" y2="196.0" stroke-width="0.5"/>
   <line stroke="black" x1="251.0" y1="216.0" x2="199.0" y2="171.0" stroke-width="0.5"/>
   <line stroke="black" x1="281.0" y1="116.0" x2="221.0" y2="77.0" stroke-width="0.5"/>
   <line stroke="black" x1="297.0" y1="61.0" x2="272.0" y2="37.0" stroke-width="0.5"/>
  </g>
 </g>
</svg>
