<?xml version="1.0" encoding="UTF-8"?>
<svg xmlns="http://www.w3.org/2000/svg">
 <g>
  <g>
   <g>
    <circle stroke="black" stroke-width="0.5" fill="#aaffff" cx="84.0" cy="500.0" r="1.0"/>
    <text stroke="none" x="84.0" y="500.0" font-size="10.0" font-family="helvetica">NT1.1</text>
   </g>
   <g>
    <circle stroke="black" stroke-width="0.5" fill="#aaffff" cx="130.0" cy="428.0" r="1.0"/>
    <text stroke="none" x="130.0" y="428.0" font-size="20.0" font-family="helvetica">64</text>
   </g>
   <g>
    <circle stroke="black" stroke-width="0.5" fill="#aaffff" cx="144.0" cy="358.0" r="1.0"/>
    <text stroke="none" x="144.0" y="358.0" font-size="10.0" font-family="helvetica">NT1.3</text>
   </g>
   <g>
    <circle stroke="black" stroke-width="0.5" fill="#aaffff" cx="156.0" cy="498.0" r="1.0"/>
    <text stroke="none" x="156.0" y="498.0" font-size="20.0" font-family="helvetica">57</text>
   </g>
   <g>
    <circle stroke="black" stroke-width="0.5" fill="#aaffff" cx="268.0" cy="426.0" r="1.0"/>
    <text stroke="none" x="268.0" y="426.0" font-size="10.0" font-family="helvetica">NT1.5</text>
   </g>
   <g>
    <circle stroke="black" stroke-width="0.5" fill="#aaffff" cx="274.0" cy="517.0" r="1.0"/>
    <text stroke="none" x="274.0" y="517.0" font-size="20.0" font-family="helvetica">B. samyangense SST-8T (DQ344485)</text>
   </g>
   <g>
    <circle stroke="black" stroke-width="0.5" fill="#aaffff" cx="281.0" cy="408.0" r="1.0"/>
    <text stroke="none" x="281.0" y="408.0" font-size="20.0" font-family="helvetica"/>
   </g>
   <g>
    <circle stroke="black" stroke-width="0.5" fill="#aaffff" cx="286.0" cy="570.0" r="1.0"/>
    <text stroke="none" x="286.0" y="570.0" font-size="10.0" font-family="helvetica">NT1.8</text>
   </g>
   <g>
    <circle stroke="black" stroke-width="0.5" fill="#aaffff" cx="289.0" cy="288.0" r="1.0"/>
    <text stroke="none" x="289.0" y="288.0" font-size="10.0" font-family="helvetica">NT1.9</text>
   </g>
   <g>
    <circle stroke="black" stroke-width="0.5" fill="#aaffff" cx="307.0" cy="552.0" r="1.0"/>
    <text stroke="none" x="307.0" y="552.0" font-size="20.0" font-family="helvetica"/>
   </g>
   <g>
    <circle stroke="black" stroke-width="0.5" fill="#aaffff" cx="331.0" cy="203.0" r="1.0"/>
    <text stroke="none" x="331.0" y="203.0" font-size="10.0" font-family="helvetica">NT1.11</text>
   </g>
   <g>
    <circle stroke="black" stroke-width="0.5" fill="#aaffff" cx="332.0" cy="445.0" r="1.0"/>
    <text stroke="none" x="332.0" y="445.0" font-size="20.0" font-family="helvetica"> B. otitidis NCFB 3053T (X93593)</text>
   </g>
   <g>
    <circle stroke="black" stroke-width="0.5" fill="#aaffff" cx="333.0" cy="589.0" r="1.0"/>
    <text stroke="none" x="333.0" y="589.0" font-size="20.0" font-family="helvetica"> B. paucivorans DSM 13657T (AJ251463)</text>
   </g>
   <g>
    <circle stroke="black" stroke-width="0.5" fill="#aaffff" cx="340.0" cy="146.0" r="1.0"/>
    <text stroke="none" x="340.0" y="146.0" font-size="10.0" font-family="helvetica">NT1.14</text>
   </g>
   <g>
    <circle stroke="black" stroke-width="0.5" fill="#aaffff" cx="344.0" cy="480.0" r="1.0"/>
    <text stroke="none" x="344.0" y="480.0" font-size="20.0" font-family="helvetica">B. album YIM 90718T (EF158852)</text>
   </g>
   <g>
    <circle stroke="black" stroke-width="0.5" fill="#aaffff" cx="363.0" cy="373.0" r="1.0"/>
    <text stroke="none" x="363.0" y="373.0" font-size="20.0" font-family="helvetica"> B. avium NCFB 3055T (Y17962)</text>
   </g>
   <g>
    <circle stroke="black" stroke-width="0.5" fill="#aaffff" cx="368.0" cy="98.0" r="1.0"/>
    <text stroke="none" x="368.0" y="98.0" font-size="10.0" font-family="helvetica">NT1.17</text>
   </g>
   <g>
    <circle stroke="black" stroke-width="0.5" fill="#aaffff" cx="386.0" cy="259.0" r="1.0"/>
    <text stroke="none" x="386.0" y="259.0" font-size="10.0" font-family="helvetica">NT1.18</text>
   </g>
   <g>
    <circle stroke="black" stroke-width="0.5" fill="#aaffff" cx="387.0" cy="58.0" r="1.0"/>
    <text stroke="none" x="387.0" y="58.0" font-size="10.0" font-family="helvetica">NT1.19</text>
   </g>
   <g>
    <circle stroke="black" stroke-width="0.5" fill="#aaffff" cx="393.0" cy="291.0" r="1.0"/>
    <text stroke="none" x="393.0" y="291.0" font-size="10.0" font-family="helvetica">NT1.20</text>
   </g>
   <g>
    <circle stroke="black" stroke-width="0.5" fill="#aaffff" cx="400.0" cy="318.0" r="1.0"/>
    <text stroke="none" x="400.0" y="318.0" font-size="10.0" font-family="helvetica">NT1.21</text>
   </g>
   <g>
    <circle stroke="black" stroke-width="0.5" fill="#aaffff" cx="406.0" cy="138.0" r="1.0"/>
    <text stroke="none" x="406.0" y="138.0" font-size="10.0" font-family="helvetica">NT1.22</text>
   </g>
   <g>
    <circle stroke="black" stroke-width="0.5" fill="#aaffff" cx="409.0" cy="31.0" r="1.0"/>
    <text stroke="none" x="409.0" y="31.0" font-size="10.0" font-family="helvetica">NT1.23</text>
   </g>
   <g>
    <circle stroke="black" stroke-width="0.5" fill="#aaffff" cx="412.0" cy="337.0" r="1.0"/>
    <text stroke="none" x="412.0" y="337.0" font-size="20.0" font-family="helvetica"/>
   </g>
   <g>
    <circle stroke="black" stroke-width="0.5" fill="#aaffff" cx="414.0" cy="156.0" r="1.0"/>
    <text stroke="none" x="414.0" y="156.0" font-size="20.0" font-family="helvetica"/>
   </g>
   <g>
    <circle stroke="black" stroke-width="0.5" fill="#aaffff" cx="414.0" cy="192.0" r="1.0"/>
    <text stroke="none" x="414.0" y="192.0" font-size="20.0" font-family="helvetica"/>
   </g>
   <g>
    <circle stroke="black" stroke-width="0.5" fill="#aaffff" cx="416.0" cy="120.0" r="1.0"/>
    <text stroke="none" x="416.0" y="120.0" font-size="20.0" font-family="helvetica"> B. celere KMM 3637T(AY228463)</text>
   </g>
   <g>
    <circle stroke="black" stroke-width="0.5" fill="#aaffff" cx="427.0" cy="264.0" r="1.0"/>
    <text stroke="none" x="427.0" y="264.0" font-size="20.0" font-family="helvetica"/>
   </g>
   <g>
    <circle stroke="black" stroke-width="0.5" fill="#aaffff" cx="427.0" cy="300.0" r="1.0"/>
    <text stroke="none" x="427.0" y="300.0" font-size="20.0" font-family="helvetica"> B. permense VKM Ac—2280T (AY243343)</text>
   </g>
   <g>
    <circle stroke="black" stroke-width="0.5" fill="#aaffff" cx="428.0" cy="228.0" r="1.0"/>
    <text stroke="none" x="428.0" y="228.0" font-size="20.0" font-family="helvetica"/>
   </g>
   <g>
    <circle stroke="black" stroke-width="0.5" fill="#aaffff" cx="441.0" cy="13.0" r="1.0"/>
    <text stroke="none" x="441.0" y="13.0" font-size="20.0" font-family="helvetica"/>
   </g>
   <g>
    <circle stroke="black" stroke-width="0.5" fill="#aaffff" cx="450.0" cy="84.0" r="1.0"/>
    <text stroke="none" x="450.0" y="84.0" font-size="20.0" font-family="helvetica"/>
   </g>
   <g>
    <circle stroke="black" stroke-width="0.5" fill="#aaffff" cx="453.0" cy="626.0" r="1.0"/>
    <text stroke="none" x="453.0" y="626.0" font-size="20.0" font-family="helvetica">Micrococcus Iuteus ATCC 381T (M38242)</text>
   </g>
   <g>
    <circle stroke="black" stroke-width="0.5" fill="#aaffff" cx="454.0" cy="49.0" r="1.0"/>
    <text stroke="none" x="454.0" y="49.0" font-size="20.0" font-family="helvetica"/>
   </g>
   <g>
    <circle stroke="black" stroke-width="0.5" fill="#aaffff" cx="3.0" cy="563.0" r="1.0"/>
    <text stroke="none" x="3.0" y="563.0" font-size="10.0" font-family="helvetica">NT1.35</text>
   </g>
   <line stroke="black" x1="441.0" y1="13.0" x2="409.0" y2="31.0" stroke-width="0.5"/>
   <line stroke="black" x1="454.0" y1="49.0" x2="409.0" y2="31.0" stroke-width="0.5"/>
   <line stroke="black" x1="450.0" y1="84.0" x2="387.0" y2="58.0" stroke-width="0.5"/>
   <line stroke="black" x1="414.0" y1="156.0" x2="406.0" y2="138.0" stroke-width="0.5"/>
   <line stroke="black" x1="416.0" y1="120.0" x2="406.0" y2="138.0" stroke-width="0.5"/>
   <line stroke="black" x1="414.0" y1="192.0" x2="340.0" y2="146.0" stroke-width="0.5"/>
   <line stroke="black" x1="428.0" y1="228.0" x2="386.0" y2="259.0" stroke-width="0.5"/>
   <line stroke="black" x1="412.0" y1="337.0" x2="400.0" y2="318.0" stroke-width="0.5"/>
   <line stroke="black" x1="427.0" y1="264.0" x2="393.0" y2="291.0" stroke-width="0.5"/>
   <line stroke="black" x1="427.0" y1="300.0" x2="400.0" y2="318.0" stroke-width="0.5"/>
   <line stroke="black" x1="363.0" y1="373.0" x2="289.0" y2="288.0" stroke-width="0.5"/>
   <line stroke="black" x1="281.0" y1="408.0" x2="268.0" y2="426.0" stroke-width="0.5"/>
   <line stroke="black" x1="332.0" y1="445.0" x2="268.0" y2="426.0" stroke-width="0.5"/>
   <line stroke="black" x1="274.0" y1="517.0" x2="156.0" y2="498.0" stroke-width="0.5"/>
   <line stroke="black" x1="344.0" y1="480.0" x2="156.0" y2="498.0" stroke-width="0.5"/>
   <line stroke="black" x1="307.0" y1="552.0" x2="286.0" y2="570.0" stroke-width="0.5"/>
   <line stroke="black" x1="333.0" y1="589.0" x2="286.0" y2="570.0" stroke-width="0.5"/>
   <line stroke="black" x1="409.0" y1="31.0" x2="387.0" y2="58.0" stroke-width="0.5"/>
   <line stroke="black" x1="387.0" y1="58.0" x2="368.0" y2="98.0" stroke-width="0.5"/>
   <line stroke="black" x1="368.0" y1="98.0" x2="340.0" y2="146.0" stroke-width="0.5"/>
   <line stroke="black" x1="368.0" y1="98.0" x2="406.0" y2="138.0" stroke-width="0.5"/>
   <line stroke="black" x1="340.0" y1="146.0" x2="331.0" y2="203.0" stroke-width="0.5"/>
   <line stroke="black" x1="331.0" y1="203.0" x2="289.0" y2="288.0" stroke-width="0.5"/>
   <line stroke="black" x1="331.0" y1="203.0" x2="386.0" y2="259.0" stroke-width="0.5"/>
   <line stroke="black" x1="386.0" y1="259.0" x2="393.0" y2="291.0" stroke-width="0.5"/>
   <line stroke="black" x1="289.0" y1="288.0" x2="144.0" y2="358.0" stroke-width="0.5"/>
   <line stroke="black" x1="393.0" y1="291.0" x2="400.0" y2="318.0" stroke-width="0.5"/>
   <line stroke="black" x1="144.0" y1="358.0" x2="130.0" y2="428.0" stroke-width="0.5"/>
   <line stroke="black" x1="144.0" y1="358.0" x2="268.0" y2="426.0" stroke-width="0.5"/>
   <line stroke="black" x1="130.0" y1="428.0" x2="84.0" y2="500.0" stroke-width="0.5"/>
   <line stroke="black" x1="130.0" y1="428.0" x2="156.0" y2="498.0" stroke-width="0.5"/>
   <line stroke="black" x1="84.0" y1="500.0" x2="286.0" y2="570.0" stroke-width="0.5"/>
   <line stroke="black" x1="3.0" y1="563.0" x2="453.0" y2="626.0" stroke-width="0.5"/>
   <line stroke="black" x1="3.0" y1="563.0" x2="84.0" y2="500.0" stroke-width="0.5"/>
  </g>
 </g>
</svg>
