<?xml version="1.0" encoding="UTF-8"?>
<svg xmlns="http://www.w3.org/2000/svg">
 <g>
  <g>
   <g>
    <circle stroke="black" stroke-width="0.5" fill="#aaffff" cx="9.0" cy="526.0" r="1.0"/>
    <text stroke="none" x="9.0" y="526.0" font-size="10.0" font-family="helvetica">NT1.1</text>
   </g>
   <g>
    <circle stroke="black" stroke-width="0.5" fill="#aaffff" cx="78.0" cy="526.0" r="1.0"/>
    <text stroke="none" x="78.0" y="526.0" font-size="10.0" font-family="helvetica">NT1.2</text>
   </g>
   <g>
    <circle stroke="black" stroke-width="0.5" fill="#aaffff" cx="100.0" cy="335.0" r="1.0"/>
    <text stroke="none" x="100.0" y="335.0" font-size="10.0" font-family="helvetica">NT1.3</text>
   </g>
   <g>
    <circle stroke="black" stroke-width="0.5" fill="#aaffff" cx="115.0" cy="250.0" r="1.0"/>
    <text stroke="none" x="115.0" y="250.0" font-size="10.0" font-family="helvetica">NT1.4</text>
   </g>
   <g>
    <circle stroke="black" stroke-width="0.5" fill="#aaffff" cx="141.0" cy="163.0" r="1.0"/>
    <text stroke="none" x="141.0" y="163.0" font-size="10.0" font-family="helvetica">NT1.5</text>
   </g>
   <g>
    <circle stroke="black" stroke-width="0.5" fill="#aaffff" cx="146.0" cy="243.0" r="1.0"/>
    <text stroke="none" x="146.0" y="243.0" font-size="10.0" font-family="helvetica">NT1.6</text>
   </g>
   <g>
    <circle stroke="black" stroke-width="0.5" fill="#aaffff" cx="163.0" cy="419.0" r="1.0"/>
    <text stroke="none" x="163.0" y="419.0" font-size="10.0" font-family="helvetica">NT1.7</text>
   </g>
   <g>
    <circle stroke="black" stroke-width="0.5" fill="#aaffff" cx="166.0" cy="553.0" r="1.0"/>
    <text stroke="none" x="166.0" y="553.0" font-size="20.0" font-family="helvetica">Phyllobacterium myrsinacearum IAM 13584T (D12789)</text>
   </g>
   <g>
    <circle stroke="black" stroke-width="0.5" fill="#aaffff" cx="167.0" cy="83.0" r="1.0"/>
    <text stroke="none" x="167.0" y="83.0" font-size="20.0" font-family="helvetica">96</text>
   </g>
   <g>
    <circle stroke="black" stroke-width="0.5" fill="#aaffff" cx="174.0" cy="446.0" r="1.0"/>
    <text stroke="none" x="174.0" y="446.0" font-size="20.0" font-family="helvetica"> Devosia insulae DS-56T (EFO12357)</text>
   </g>
   <g>
    <circle stroke="black" stroke-width="0.5" fill="#aaffff" cx="178.0" cy="42.0" r="1.0"/>
    <text stroke="none" x="178.0" y="42.0" font-size="10.0" font-family="helvetica">NT1.11</text>
   </g>
   <g>
    <circle stroke="black" stroke-width="0.5" fill="#aaffff" cx="186.0" cy="392.0" r="1.0"/>
    <text stroke="none" x="186.0" y="392.0" font-size="20.0" font-family="helvetica"> ‘Devos/a ginsengisoh‘ Gsoil 326 (ABZ71045)</text>
   </g>
   <g>
    <circle stroke="black" stroke-width="0.5" fill="#aaffff" cx="194.0" cy="204.0" r="1.0"/>
    <text stroke="none" x="194.0" y="204.0" font-size="10.0" font-family="helvetica">NT1.13</text>
   </g>
   <g>
    <circle stroke="black" stroke-width="0.5" fill="#aaffff" cx="198.0" cy="339.0" r="1.0"/>
    <text stroke="none" x="198.0" y="339.0" font-size="20.0" font-family="helvetica">‘Devosia terrae‘ DCY11 (EF067859)</text>
   </g>
   <g>
    <circle stroke="black" stroke-width="0.5" fill="#aaffff" cx="205.0" cy="284.0" r="1.0"/>
    <text stroke="none" x="205.0" y="284.0" font-size="20.0" font-family="helvetica"> Devosia subaequoris HST3-14T (AM293857)</text>
   </g>
   <g>
    <circle stroke="black" stroke-width="0.5" fill="#aaffff" cx="223.0" cy="123.0" r="1.0"/>
    <text stroke="none" x="223.0" y="123.0" font-size="20.0" font-family="helvetica">Devosia neptuniae J1T (AF469072)</text>
   </g>
   <g>
    <circle stroke="black" stroke-width="0.5" fill="#aaffff" cx="225.0" cy="176.0" r="1.0"/>
    <text stroke="none" x="225.0" y="176.0" font-size="20.0" font-family="helvetica"/>
   </g>
   <g>
    <circle stroke="black" stroke-width="0.5" fill="#aaffff" cx="233.0" cy="69.0" r="1.0"/>
    <text stroke="none" x="233.0" y="69.0" font-size="20.0" font-family="helvetica">Devosia lim/ LMG 22951T (AJ786801)</text>
   </g>
   <g>
    <circle stroke="black" stroke-width="0.5" fill="#aaffff" cx="236.0" cy="229.0" r="1.0"/>
    <text stroke="none" x="236.0" y="229.0" font-size="20.0" font-family="helvetica"/>
   </g>
   <g>
    <circle stroke="black" stroke-width="0.5" fill="#aaffff" cx="236.0" cy="498.0" r="1.0"/>
    <text stroke="none" x="236.0" y="498.0" font-size="20.0" font-family="helvetica"/>
   </g>
   <g>
    <circle stroke="black" stroke-width="0.5" fill="#aaffff" cx="246.0" cy="15.0" r="1.0"/>
    <text stroke="none" x="246.0" y="15.0" font-size="20.0" font-family="helvetica">‘Candidatus Devosia euplotis’ LIV5 (AJ548825)</text>
   </g>
   <g>
    <circle stroke="black" stroke-width="0.5" fill="#aaffff" cx="354.0" cy="607.0" r="1.0"/>
    <text stroke="none" x="354.0" y="607.0" font-size="20.0" font-family="helvetica">Methylobacterium organophilum JCM 2833T (D32226)</text>
   </g>
   <g>
    <circle stroke="black" stroke-width="0.5" fill="#aaffff" cx="8.0" cy="566.0" r="1.0"/>
    <text stroke="none" x="8.0" y="566.0" font-size="10.0" font-family="helvetica">NT1.23</text>
   </g>
   <line stroke="black" x1="246.0" y1="15.0" x2="178.0" y2="42.0" stroke-width="0.5"/>
   <line stroke="black" x1="233.0" y1="69.0" x2="178.0" y2="42.0" stroke-width="0.5"/>
   <line stroke="black" x1="223.0" y1="123.0" x2="167.0" y2="83.0" stroke-width="0.5"/>
   <line stroke="black" x1="205.0" y1="284.0" x2="146.0" y2="243.0" stroke-width="0.5"/>
   <line stroke="black" x1="225.0" y1="176.0" x2="194.0" y2="204.0" stroke-width="0.5"/>
   <line stroke="black" x1="236.0" y1="229.0" x2="194.0" y2="204.0" stroke-width="0.5"/>
   <line stroke="black" x1="198.0" y1="339.0" x2="115.0" y2="250.0" stroke-width="0.5"/>
   <line stroke="black" x1="186.0" y1="392.0" x2="163.0" y2="419.0" stroke-width="0.5"/>
   <line stroke="black" x1="236.0" y1="498.0" x2="78.0" y2="526.0" stroke-width="0.5"/>
   <line stroke="black" x1="178.0" y1="42.0" x2="167.0" y2="83.0" stroke-width="0.5"/>
   <line stroke="black" x1="167.0" y1="83.0" x2="141.0" y2="163.0" stroke-width="0.5"/>
   <line stroke="black" x1="141.0" y1="163.0" x2="115.0" y2="250.0" stroke-width="0.5"/>
   <line stroke="black" x1="141.0" y1="163.0" x2="146.0" y2="243.0" stroke-width="0.5"/>
   <line stroke="black" x1="146.0" y1="243.0" x2="194.0" y2="204.0" stroke-width="0.5"/>
   <line stroke="black" x1="115.0" y1="250.0" x2="100.0" y2="335.0" stroke-width="0.5"/>
   <line stroke="black" x1="100.0" y1="335.0" x2="9.0" y2="526.0" stroke-width="0.5"/>
   <line stroke="black" x1="100.0" y1="335.0" x2="163.0" y2="419.0" stroke-width="0.5"/>
   <line stroke="black" x1="9.0" y1="526.0" x2="78.0" y2="526.0" stroke-width="0.5"/>
   <line stroke="black" x1="8.0" y1="566.0" x2="354.0" y2="607.0" stroke-width="0.5"/>
   <line stroke="black" x1="8.0" y1="566.0" x2="9.0" y2="526.0" stroke-width="0.5"/>
   <line stroke="black" x1="166.0" y1="553.0" x2="78.0" y2="526.0" stroke-width="0.5"/>
   <line stroke="black" x1="174.0" y1="446.0" x2="163.0" y2="419.0" stroke-width="0.5"/>
  </g>
 </g>
</svg>
