<?xml version="1.0" encoding="UTF-8"?>
<svg xmlns="http://www.w3.org/2000/svg">
 <g>
  <g>
   <g>
    <circle stroke="black" stroke-width="0.5" fill="#aaffff" cx="200.0" cy="505.0" r="1.0"/>
    <text stroke="none" x="200.0" y="505.0" font-size="10.0" font-family="helvetica">NT1.1</text>
   </g>
   <g>
    <circle stroke="black" stroke-width="0.5" fill="#aaffff" cx="236.0" cy="564.0" r="1.0"/>
    <text stroke="none" x="236.0" y="564.0" font-size="10.0" font-family="helvetica">NT1.2</text>
   </g>
   <g>
    <circle stroke="black" stroke-width="0.5" fill="#aaffff" cx="239.0" cy="445.0" r="1.0"/>
    <text stroke="none" x="239.0" y="445.0" font-size="10.0" font-family="helvetica">NT1.3</text>
   </g>
   <g>
    <circle stroke="black" stroke-width="0.5" fill="#aaffff" cx="245.0" cy="389.0" r="1.0"/>
    <text stroke="none" x="245.0" y="389.0" font-size="10.0" font-family="helvetica">NT1.4</text>
   </g>
   <g>
    <circle stroke="black" stroke-width="0.5" fill="#aaffff" cx="256.0" cy="594.0" r="1.0"/>
    <text stroke="none" x="256.0" y="594.0" font-size="20.0" font-family="helvetica">76</text>
   </g>
   <g>
    <circle stroke="black" stroke-width="0.5" fill="#aaffff" cx="297.0" cy="326.0" r="1.0"/>
    <text stroke="none" x="297.0" y="326.0" font-size="20.0" font-family="helvetica">88</text>
   </g>
   <g>
    <circle stroke="black" stroke-width="0.5" fill="#aaffff" cx="316.0" cy="207.0" r="1.0"/>
    <text stroke="none" x="316.0" y="207.0" font-size="20.0" font-family="helvetica">53</text>
   </g>
   <g>
    <circle stroke="black" stroke-width="0.5" fill="#aaffff" cx="320.0" cy="386.0" r="1.0"/>
    <text stroke="none" x="320.0" y="386.0" font-size="20.0" font-family="helvetica">59</text>
   </g>
   <g>
    <circle stroke="black" stroke-width="0.5" fill="#aaffff" cx="333.0" cy="321.0" r="1.0"/>
    <text stroke="none" x="333.0" y="321.0" font-size="20.0" font-family="helvetica">100</text>
   </g>
   <g>
    <circle stroke="black" stroke-width="0.5" fill="#aaffff" cx="339.0" cy="255.0" r="1.0"/>
    <text stroke="none" x="339.0" y="255.0" font-size="20.0" font-family="helvetica">72</text>
   </g>
   <g>
    <circle stroke="black" stroke-width="0.5" fill="#aaffff" cx="351.0" cy="452.0" r="1.0"/>
    <text stroke="none" x="351.0" y="452.0" font-size="20.0" font-family="helvetica">100</text>
   </g>
   <g>
    <circle stroke="black" stroke-width="0.5" fill="#aaffff" cx="356.0" cy="158.0" r="1.0"/>
    <text stroke="none" x="356.0" y="158.0" font-size="20.0" font-family="helvetica">87</text>
   </g>
   <g>
    <circle stroke="black" stroke-width="0.5" fill="#aaffff" cx="362.0" cy="109.0" r="1.0"/>
    <text stroke="none" x="362.0" y="109.0" font-size="20.0" font-family="helvetica">95</text>
   </g>
   <g>
    <circle stroke="black" stroke-width="0.5" fill="#aaffff" cx="370.0" cy="60.0" r="1.0"/>
    <text stroke="none" x="370.0" y="60.0" font-size="10.0" font-family="helvetica">NT1.14</text>
   </g>
   <g>
    <circle stroke="black" stroke-width="0.5" fill="#aaffff" cx="374.0" cy="623.0" r="1.0"/>
    <text stroke="none" x="374.0" y="623.0" font-size="20.0" font-family="helvetica">100</text>
   </g>
   <g>
    <circle stroke="black" stroke-width="0.5" fill="#aaffff" cx="388.0" cy="648.0" r="1.0"/>
    <text stroke="none" x="388.0" y="648.0" font-size="20.0" font-family="helvetica">100</text>
   </g>
   <g>
    <circle stroke="black" stroke-width="0.5" fill="#aaffff" cx="395.0" cy="566.0" r="1.0"/>
    <text stroke="none" x="395.0" y="566.0" font-size="20.0" font-family="helvetica">Aqulmonas voraii GPTSA 20T (AY544768)</text>
   </g>
   <g>
    <circle stroke="black" stroke-width="0.5" fill="#aaffff" cx="398.0" cy="92.0" r="1.0"/>
    <text stroke="none" x="398.0" y="92.0" font-size="20.0" font-family="helvetica">95</text>
   </g>
   <g>
    <circle stroke="black" stroke-width="0.5" fill="#aaffff" cx="411.0" cy="157.0" r="1.0"/>
    <text stroke="none" x="411.0" y="157.0" font-size="20.0" font-family="helvetica">95</text>
   </g>
   <g>
    <circle stroke="black" stroke-width="0.5" fill="#aaffff" cx="412.0" cy="28.0" r="1.0"/>
    <text stroke="none" x="412.0" y="28.0" font-size="10.0" font-family="helvetica">NT1.20</text>
   </g>
   <g>
    <circle stroke="black" stroke-width="0.5" fill="#aaffff" cx="427.0" cy="469.0" r="1.0"/>
    <text stroke="none" x="427.0" y="469.0" font-size="20.0" font-family="helvetica">Aren/monas donghaensis HO3-R19T (DQ411038)</text>
   </g>
   <g>
    <circle stroke="black" stroke-width="0.5" fill="#aaffff" cx="428.0" cy="338.0" r="1.0"/>
    <text stroke="none" x="428.0" y="338.0" font-size="20.0" font-family="helvetica"/>
   </g>
   <g>
    <circle stroke="black" stroke-width="0.5" fill="#aaffff" cx="437.0" cy="76.0" r="1.0"/>
    <text stroke="none" x="437.0" y="76.0" font-size="20.0" font-family="helvetica"/>
   </g>
   <g>
    <circle stroke="black" stroke-width="0.5" fill="#aaffff" cx="437.0" cy="533.0" r="1.0"/>
    <text stroke="none" x="437.0" y="533.0" font-size="20.0" font-family="helvetica">DokdonelIa koreensis DS-123T (AY987368)</text>
   </g>
   <g>
    <circle stroke="black" stroke-width="0.5" fill="#aaffff" cx="440.0" cy="501.0" r="1.0"/>
    <text stroke="none" x="440.0" y="501.0" font-size="20.0" font-family="helvetica">Silanimonas Ienta 25-4T (AY557615)</text>
   </g>
   <g>
    <circle stroke="black" stroke-width="0.5" fill="#aaffff" cx="452.0" cy="305.0" r="1.0"/>
    <text stroke="none" x="452.0" y="305.0" font-size="20.0" font-family="helvetica">Lysobacter enzymogenes DSM 2043T (AJ298291)</text>
   </g>
   <g>
    <circle stroke="black" stroke-width="0.5" fill="#aaffff" cx="456.0" cy="435.0" r="1.0"/>
    <text stroke="none" x="456.0" y="435.0" font-size="20.0" font-family="helvetica">Arenimonas malthae (3C-JY-1T (00239766)</text>
   </g>
   <g>
    <circle stroke="black" stroke-width="0.5" fill="#aaffff" cx="464.0" cy="109.0" r="1.0"/>
    <text stroke="none" x="464.0" y="109.0" font-size="20.0" font-family="helvetica">Xanthomonas albilineans LMG 494T (X95918)</text>
   </g>
   <g>
    <circle stroke="black" stroke-width="0.5" fill="#aaffff" cx="467.0" cy="632.0" r="1.0"/>
    <text stroke="none" x="467.0" y="632.0" font-size="20.0" font-family="helvetica">Fulvimonas soli LMG 19981T (AJ311653)</text>
   </g>
   <g>
    <circle stroke="black" stroke-width="0.5" fill="#aaffff" cx="476.0" cy="370.0" r="1.0"/>
    <text stroke="none" x="476.0" y="370.0" font-size="20.0" font-family="helvetica">Luleimonas mephitis B1953/27.1T (AJO12228)</text>
   </g>
   <g>
    <circle stroke="black" stroke-width="0.5" fill="#aaffff" cx="488.0" cy="403.0" r="1.0"/>
    <text stroke="none" x="488.0" y="403.0" font-size="20.0" font-family="helvetica">Luteimonas composti CC—YY255T (DQB46687)</text>
   </g>
   <g>
    <circle stroke="black" stroke-width="0.5" fill="#aaffff" cx="491.0" cy="141.0" r="1.0"/>
    <text stroke="none" x="491.0" y="141.0" font-size="20.0" font-family="helvetica">Stenotrophomonas maltoph/Iia ATCC 13637T (M59158)</text>
   </g>
   <g>
    <circle stroke="black" stroke-width="0.5" fill="#aaffff" cx="493.0" cy="44.0" r="1.0"/>
    <text stroke="none" x="493.0" y="44.0" font-size="20.0" font-family="helvetica">Pseudoxanthomonas koreensis T7-09T (AY550263)</text>
   </g>
   <g>
    <circle stroke="black" stroke-width="0.5" fill="#aaffff" cx="493.0" cy="273.0" r="1.0"/>
    <text stroke="none" x="493.0" y="273.0" font-size="20.0" font-family="helvetica">Thermomonas haemolytica A50-7-3T (AJ300185)</text>
   </g>
   <g>
    <circle stroke="black" stroke-width="0.5" fill="#aaffff" cx="499.0" cy="11.0" r="1.0"/>
    <text stroke="none" x="499.0" y="11.0" font-size="20.0" font-family="helvetica"/>
   </g>
   <g>
    <circle stroke="black" stroke-width="0.5" fill="#aaffff" cx="503.0" cy="207.0" r="1.0"/>
    <text stroke="none" x="503.0" y="207.0" font-size="20.0" font-family="helvetica">Xylella fastidiosa ATCC 35880T (M26601)</text>
   </g>
   <g>
    <circle stroke="black" stroke-width="0.5" fill="#aaffff" cx="504.0" cy="175.0" r="1.0"/>
    <text stroke="none" x="504.0" y="175.0" font-size="20.0" font-family="helvetica">Stenotrophomonas nilritireducens L2T (AJO12229)</text>
   </g>
   <g>
    <circle stroke="black" stroke-width="0.5" fill="#aaffff" cx="506.0" cy="239.0" r="1.0"/>
    <text stroke="none" x="506.0" y="239.0" font-size="20.0" font-family="helvetica">Thermomonas fusca LMG 21737T (AJ519986)</text>
   </g>
   <g>
    <circle stroke="black" stroke-width="0.5" fill="#aaffff" cx="516.0" cy="599.0" r="1.0"/>
    <text stroke="none" x="516.0" y="599.0" font-size="20.0" font-family="helvetica">Frateuria aurantfa DSM 6220T (AJ010481)</text>
   </g>
   <g>
    <circle stroke="black" stroke-width="0.5" fill="#aaffff" cx="548.0" cy="665.0" r="1.0"/>
    <text stroke="none" x="548.0" y="665.0" font-size="20.0" font-family="helvetica"/>
   </g>
   <g>
    <circle stroke="black" stroke-width="0.5" fill="#aaffff" cx="548.0" cy="698.0" r="1.0"/>
    <text stroke="none" x="548.0" y="698.0" font-size="20.0" font-family="helvetica">Escherichia coli ATCC 11775T (X80725)</text>
   </g>
   <g>
    <circle stroke="black" stroke-width="0.5" fill="#aaffff" cx="3.0" cy="601.0" r="1.0"/>
    <text stroke="none" x="3.0" y="601.0" font-size="10.0" font-family="helvetica">NT1.42</text>
   </g>
   <line stroke="black" x1="499.0" y1="11.0" x2="412.0" y2="28.0" stroke-width="0.5"/>
   <line stroke="black" x1="493.0" y1="44.0" x2="412.0" y2="28.0" stroke-width="0.5"/>
   <line stroke="black" x1="437.0" y1="76.0" x2="398.0" y2="92.0" stroke-width="0.5"/>
   <line stroke="black" x1="464.0" y1="109.0" x2="398.0" y2="92.0" stroke-width="0.5"/>
   <line stroke="black" x1="491.0" y1="141.0" x2="411.0" y2="157.0" stroke-width="0.5"/>
   <line stroke="black" x1="504.0" y1="175.0" x2="411.0" y2="157.0" stroke-width="0.5"/>
   <line stroke="black" x1="503.0" y1="207.0" x2="356.0" y2="158.0" stroke-width="0.5"/>
   <line stroke="black" x1="506.0" y1="239.0" x2="339.0" y2="255.0" stroke-width="0.5"/>
   <line stroke="black" x1="428.0" y1="338.0" x2="333.0" y2="321.0" stroke-width="0.5"/>
   <line stroke="black" x1="452.0" y1="305.0" x2="333.0" y2="321.0" stroke-width="0.5"/>
   <line stroke="black" x1="427.0" y1="469.0" x2="351.0" y2="452.0" stroke-width="0.5"/>
   <line stroke="black" x1="456.0" y1="435.0" x2="351.0" y2="452.0" stroke-width="0.5"/>
   <line stroke="black" x1="440.0" y1="501.0" x2="239.0" y2="445.0" stroke-width="0.5"/>
   <line stroke="black" x1="395.0" y1="566.0" x2="256.0" y2="594.0" stroke-width="0.5"/>
   <line stroke="black" x1="437.0" y1="533.0" x2="236.0" y2="564.0" stroke-width="0.5"/>
   <line stroke="black" x1="467.0" y1="632.0" x2="388.0" y2="648.0" stroke-width="0.5"/>
   <line stroke="black" x1="412.0" y1="28.0" x2="370.0" y2="60.0" stroke-width="0.5"/>
   <line stroke="black" x1="370.0" y1="60.0" x2="362.0" y2="109.0" stroke-width="0.5"/>
   <line stroke="black" x1="370.0" y1="60.0" x2="398.0" y2="92.0" stroke-width="0.5"/>
   <line stroke="black" x1="362.0" y1="109.0" x2="356.0" y2="158.0" stroke-width="0.5"/>
   <line stroke="black" x1="362.0" y1="109.0" x2="411.0" y2="157.0" stroke-width="0.5"/>
   <line stroke="black" x1="316.0" y1="207.0" x2="333.0" y2="321.0" stroke-width="0.5"/>
   <line stroke="black" x1="316.0" y1="207.0" x2="339.0" y2="255.0" stroke-width="0.5"/>
   <line stroke="black" x1="333.0" y1="321.0" x2="297.0" y2="326.0" stroke-width="0.5"/>
   <line stroke="black" x1="297.0" y1="326.0" x2="245.0" y2="389.0" stroke-width="0.5"/>
   <line stroke="black" x1="297.0" y1="326.0" x2="320.0" y2="386.0" stroke-width="0.5"/>
   <line stroke="black" x1="245.0" y1="389.0" x2="239.0" y2="445.0" stroke-width="0.5"/>
   <line stroke="black" x1="245.0" y1="389.0" x2="351.0" y2="452.0" stroke-width="0.5"/>
   <line stroke="black" x1="239.0" y1="445.0" x2="200.0" y2="505.0" stroke-width="0.5"/>
   <line stroke="black" x1="200.0" y1="505.0" x2="236.0" y2="564.0" stroke-width="0.5"/>
   <line stroke="black" x1="236.0" y1="564.0" x2="256.0" y2="594.0" stroke-width="0.5"/>
   <line stroke="black" x1="256.0" y1="594.0" x2="374.0" y2="623.0" stroke-width="0.5"/>
   <line stroke="black" x1="374.0" y1="623.0" x2="388.0" y2="648.0" stroke-width="0.5"/>
   <line stroke="black" x1="3.0" y1="601.0" x2="548.0" y2="698.0" stroke-width="0.5"/>
   <line stroke="black" x1="3.0" y1="601.0" x2="200.0" y2="505.0" stroke-width="0.5"/>
   <line stroke="black" x1="356.0" y1="158.0" x2="316.0" y2="207.0" stroke-width="0.5"/>
   <line stroke="black" x1="476.0" y1="370.0" x2="320.0" y2="386.0" stroke-width="0.5"/>
   <line stroke="black" x1="488.0" y1="403.0" x2="320.0" y2="386.0" stroke-width="0.5"/>
   <line stroke="black" x1="493.0" y1="273.0" x2="339.0" y2="255.0" stroke-width="0.5"/>
   <line stroke="black" x1="548.0" y1="665.0" x2="388.0" y2="648.0" stroke-width="0.5"/>
   <line stroke="black" x1="516.0" y1="599.0" x2="374.0" y2="623.0" stroke-width="0.5"/>
  </g>
 </g>
</svg>
