<?xml version="1.0" encoding="UTF-8"?>
<svg xmlns="http://www.w3.org/2000/svg">
 <g>
  <g>
   <g>
    <circle stroke="black" stroke-width="0.5" fill="#aaffff" cx="9.0" cy="530.0" r="1.0"/>
    <text stroke="none" x="9.0" y="530.0" font-size="20.0" font-family="helvetica"/>
   </g>
   <g>
    <circle stroke="black" stroke-width="0.5" fill="#aaffff" cx="12.0" cy="530.0" r="1.0"/>
    <text stroke="none" x="12.0" y="530.0" font-size="10.0" font-family="helvetica">NT1.2</text>
   </g>
   <g>
    <circle stroke="black" stroke-width="0.5" fill="#aaffff" cx="159.0" cy="447.0" r="1.0"/>
    <text stroke="none" x="159.0" y="447.0" font-size="10.0" font-family="helvetica">NT1.3</text>
   </g>
   <g>
    <circle stroke="black" stroke-width="0.5" fill="#aaffff" cx="211.0" cy="570.0" r="1.0"/>
    <text stroke="none" x="211.0" y="570.0" font-size="10.0" font-family="helvetica">NT1.4</text>
   </g>
   <g>
    <circle stroke="black" stroke-width="0.5" fill="#aaffff" cx="228.0" cy="700.0" r="1.0"/>
    <text stroke="none" x="228.0" y="700.0" font-size="10.0" font-family="helvetica">NT1.5</text>
   </g>
   <g>
    <circle stroke="black" stroke-width="0.5" fill="#aaffff" cx="264.0" cy="737.0" r="1.0"/>
    <text stroke="none" x="264.0" y="737.0" font-size="10.0" font-family="helvetica">NT1.6</text>
   </g>
   <g>
    <circle stroke="black" stroke-width="0.5" fill="#aaffff" cx="354.0" cy="296.0" r="1.0"/>
    <text stroke="none" x="354.0" y="296.0" font-size="10.0" font-family="helvetica">NT1.7</text>
   </g>
   <g>
    <circle stroke="black" stroke-width="0.5" fill="#aaffff" cx="525.0" cy="188.0" r="1.0"/>
    <text stroke="none" x="525.0" y="188.0" font-size="10.0" font-family="helvetica">NT1.8</text>
   </g>
   <g>
    <circle stroke="black" stroke-width="0.5" fill="#aaffff" cx="603.0" cy="246.0" r="1.0"/>
    <text stroke="none" x="603.0" y="246.0" font-size="10.0" font-family="helvetica">NT1.9</text>
   </g>
   <g>
    <circle stroke="black" stroke-width="0.5" fill="#aaffff" cx="633.0" cy="765.0" r="1.0"/>
    <text stroke="none" x="633.0" y="765.0" font-size="20.0" font-family="helvetica">Dech/oromonas agitate CKBT (AF047462)</text>
   </g>
   <g>
    <circle stroke="black" stroke-width="0.5" fill="#aaffff" cx="649.0" cy="662.0" r="1.0"/>
    <text stroke="none" x="649.0" y="662.0" font-size="20.0" font-family="helvetica">Azonexus fungiphilus BSS-BT (AF011350)</text>
   </g>
   <g>
    <circle stroke="black" stroke-width="0.5" fill="#aaffff" cx="664.0" cy="127.0" r="1.0"/>
    <text stroke="none" x="664.0" y="127.0" font-size="10.0" font-family="helvetica">NT1.12</text>
   </g>
   <g>
    <circle stroke="black" stroke-width="0.5" fill="#aaffff" cx="678.0" cy="222.0" r="1.0"/>
    <text stroke="none" x="678.0" y="222.0" font-size="20.0" font-family="helvetica">Clone 249ds10 (AY212697)</text>
   </g>
   <g>
    <circle stroke="black" stroke-width="0.5" fill="#aaffff" cx="684.0" cy="82.0" r="1.0"/>
    <text stroke="none" x="684.0" y="82.0" font-size="10.0" font-family="helvetica">NT1.14</text>
   </g>
   <g>
    <circle stroke="black" stroke-width="0.5" fill="#aaffff" cx="697.0" cy="14.0" r="1.0"/>
    <text stroke="none" x="697.0" y="14.0" font-size="20.0" font-family="helvetica">Clone Run-S38 (AB247469)</text>
   </g>
   <g>
    <circle stroke="black" stroke-width="0.5" fill="#aaffff" cx="697.0" cy="42.0" r="1.0"/>
    <text stroke="none" x="697.0" y="42.0" font-size="20.0" font-family="helvetica">86</text>
   </g>
   <g>
    <circle stroke="black" stroke-width="0.5" fill="#aaffff" cx="701.0" cy="119.0" r="1.0"/>
    <text stroke="none" x="701.0" y="119.0" font-size="20.0" font-family="helvetica">Clone Run—SP13O (ABZ47492)</text>
   </g>
   <g>
    <circle stroke="black" stroke-width="0.5" fill="#aaffff" cx="703.0" cy="171.0" r="1.0"/>
    <text stroke="none" x="703.0" y="171.0" font-size="20.0" font-family="helvetica">Clone DFAW-034 (AY823978)</text>
   </g>
   <g>
    <circle stroke="black" stroke-width="0.5" fill="#aaffff" cx="711.0" cy="713.0" r="1.0"/>
    <text stroke="none" x="711.0" y="713.0" font-size="20.0" font-family="helvetica">Ferribacterium Iimneticum CdA—1T (Y17060)</text>
   </g>
   <g>
    <circle stroke="black" stroke-width="0.5" fill="#aaffff" cx="728.0" cy="401.0" r="1.0"/>
    <text stroke="none" x="728.0" y="401.0" font-size="10.0" font-family="helvetica">NT1.20</text>
   </g>
   <g>
    <circle stroke="black" stroke-width="0.5" fill="#aaffff" cx="732.0" cy="429.0" r="1.0"/>
    <text stroke="none" x="732.0" y="429.0" font-size="10.0" font-family="helvetica">NT1.21</text>
   </g>
   <g>
    <circle stroke="black" stroke-width="0.5" fill="#aaffff" cx="740.0" cy="323.0" r="1.0"/>
    <text stroke="none" x="740.0" y="323.0" font-size="20.0" font-family="helvetica"/>
   </g>
   <g>
    <circle stroke="black" stroke-width="0.5" fill="#aaffff" cx="740.0" cy="353.0" r="1.0"/>
    <text stroke="none" x="740.0" y="353.0" font-size="20.0" font-family="helvetica">65</text>
   </g>
   <g>
    <circle stroke="black" stroke-width="0.5" fill="#aaffff" cx="746.0" cy="67.0" r="1.0"/>
    <text stroke="none" x="746.0" y="67.0" font-size="20.0" font-family="helvetica">Clone DFAW-027 (AY823971)</text>
   </g>
   <g>
    <circle stroke="black" stroke-width="0.5" fill="#aaffff" cx="747.0" cy="428.0" r="1.0"/>
    <text stroke="none" x="747.0" y="428.0" font-size="20.0" font-family="helvetica">Azospira oryzae strain 6a3T (AF011347)</text>
   </g>
   <g>
    <circle stroke="black" stroke-width="0.5" fill="#aaffff" cx="758.0" cy="377.0" r="1.0"/>
    <text stroke="none" x="758.0" y="377.0" font-size="20.0" font-family="helvetica">Azospira oryzae strain PS (AF170348)</text>
   </g>
   <g>
    <circle stroke="black" stroke-width="0.5" fill="#aaffff" cx="780.0" cy="480.0" r="1.0"/>
    <text stroke="none" x="780.0" y="480.0" font-size="20.0" font-family="helvetica">Azospira oryzae strain GR-1 (AY277622)</text>
   </g>
   <g>
    <circle stroke="black" stroke-width="0.5" fill="#aaffff" cx="795.0" cy="274.0" r="1.0"/>
    <text stroke="none" x="795.0" y="274.0" font-size="20.0" font-family="helvetica">Strain SUA2T (DQQ74114)</text>
   </g>
   <g>
    <circle stroke="black" stroke-width="0.5" fill="#aaffff" cx="849.0" cy="539.0" r="1.0"/>
    <text stroke="none" x="849.0" y="539.0" font-size="20.0" font-family="helvetica">Propionivibrio dicarboxylicus DSM 5885T (Y17601)</text>
   </g>
   <g>
    <circle stroke="black" stroke-width="0.5" fill="#aaffff" cx="1033.0" cy="598.0" r="1.0"/>
    <text stroke="none" x="1033.0" y="598.0" font-size="20.0" font-family="helvetica">Rhodocyclus purpureus DSM 168T (M34132)</text>
   </g>
   <line stroke="black" x1="697.0" y1="14.0" x2="697.0" y2="42.0" stroke-width="0.5"/>
   <line stroke="black" x1="747.0" y1="428.0" x2="732.0" y2="429.0" stroke-width="0.5"/>
   <line stroke="black" x1="740.0" y1="323.0" x2="740.0" y2="353.0" stroke-width="0.5"/>
   <line stroke="black" x1="9.0" y1="530.0" x2="12.0" y2="530.0" stroke-width="0.5"/>
   <line stroke="black" x1="849.0" y1="539.0" x2="211.0" y2="570.0" stroke-width="0.5"/>
   <line stroke="black" x1="697.0" y1="42.0" x2="684.0" y2="82.0" stroke-width="0.5"/>
   <line stroke="black" x1="684.0" y1="82.0" x2="664.0" y2="127.0" stroke-width="0.5"/>
   <line stroke="black" x1="664.0" y1="127.0" x2="525.0" y2="188.0" stroke-width="0.5"/>
   <line stroke="black" x1="525.0" y1="188.0" x2="354.0" y2="296.0" stroke-width="0.5"/>
   <line stroke="black" x1="525.0" y1="188.0" x2="603.0" y2="246.0" stroke-width="0.5"/>
   <line stroke="black" x1="354.0" y1="296.0" x2="159.0" y2="447.0" stroke-width="0.5"/>
   <line stroke="black" x1="354.0" y1="296.0" x2="728.0" y2="401.0" stroke-width="0.5"/>
   <line stroke="black" x1="159.0" y1="447.0" x2="12.0" y2="530.0" stroke-width="0.5"/>
   <line stroke="black" x1="159.0" y1="447.0" x2="211.0" y2="570.0" stroke-width="0.5"/>
   <line stroke="black" x1="728.0" y1="401.0" x2="732.0" y2="429.0" stroke-width="0.5"/>
   <line stroke="black" x1="728.0" y1="401.0" x2="740.0" y2="353.0" stroke-width="0.5"/>
   <line stroke="black" x1="12.0" y1="530.0" x2="228.0" y2="700.0" stroke-width="0.5"/>
   <line stroke="black" x1="228.0" y1="700.0" x2="264.0" y2="737.0" stroke-width="0.5"/>
   <line stroke="black" x1="649.0" y1="662.0" x2="228.0" y2="700.0" stroke-width="0.5"/>
   <line stroke="black" x1="633.0" y1="765.0" x2="264.0" y2="737.0" stroke-width="0.5"/>
   <line stroke="black" x1="711.0" y1="713.0" x2="264.0" y2="737.0" stroke-width="0.5"/>
   <line stroke="black" x1="1033.0" y1="598.0" x2="211.0" y2="570.0" stroke-width="0.5"/>
   <line stroke="black" x1="678.0" y1="222.0" x2="603.0" y2="246.0" stroke-width="0.5"/>
   <line stroke="black" x1="795.0" y1="274.0" x2="603.0" y2="246.0" stroke-width="0.5"/>
   <line stroke="black" x1="703.0" y1="171.0" x2="664.0" y2="127.0" stroke-width="0.5"/>
   <line stroke="black" x1="701.0" y1="119.0" x2="684.0" y2="82.0" stroke-width="0.5"/>
   <line stroke="black" x1="746.0" y1="67.0" x2="697.0" y2="42.0" stroke-width="0.5"/>
   <line stroke="black" x1="758.0" y1="377.0" x2="740.0" y2="353.0" stroke-width="0.5"/>
   <line stroke="black" x1="780.0" y1="480.0" x2="732.0" y2="429.0" stroke-width="0.5"/>
  </g>
 </g>
</svg>
