<?xml version="1.0" encoding="UTF-8"?>
<svg xmlns="http://www.w3.org/2000/svg">
 <g>
  <g>
   <g>
    <circle stroke="black" stroke-width="0.5" fill="#aaffff" cx="82.0" cy="941.0" r="1.0"/>
    <text stroke="none" x="82.0" y="941.0" font-size="10.0" font-family="helvetica">NT1.1</text>
   </g>
   <g>
    <circle stroke="black" stroke-width="0.5" fill="#aaffff" cx="105.0" cy="840.0" r="1.0"/>
    <text stroke="none" x="105.0" y="840.0" font-size="10.0" font-family="helvetica">NT1.2</text>
   </g>
   <g>
    <circle stroke="black" stroke-width="0.5" fill="#aaffff" cx="124.0" cy="701.0" r="1.0"/>
    <text stroke="none" x="124.0" y="701.0" font-size="10.0" font-family="helvetica">NT1.3</text>
   </g>
   <g>
    <circle stroke="black" stroke-width="0.5" fill="#aaffff" cx="139.0" cy="512.0" r="1.0"/>
    <text stroke="none" x="139.0" y="512.0" font-size="10.0" font-family="helvetica">NT1.4</text>
   </g>
   <g>
    <circle stroke="black" stroke-width="0.5" fill="#aaffff" cx="149.0" cy="344.0" r="1.0"/>
    <text stroke="none" x="149.0" y="344.0" font-size="10.0" font-family="helvetica">NT1.5</text>
   </g>
   <g>
    <circle stroke="black" stroke-width="0.5" fill="#aaffff" cx="183.0" cy="234.0" r="1.0"/>
    <text stroke="none" x="183.0" y="234.0" font-size="10.0" font-family="helvetica">NT1.6</text>
   </g>
   <g>
    <circle stroke="black" stroke-width="0.5" fill="#aaffff" cx="186.0" cy="680.0" r="1.0"/>
    <text stroke="none" x="186.0" y="680.0" font-size="20.0" font-family="helvetica">89</text>
   </g>
   <g>
    <circle stroke="black" stroke-width="0.5" fill="#aaffff" cx="208.0" cy="731.0" r="1.0"/>
    <text stroke="none" x="208.0" y="731.0" font-size="20.0" font-family="helvetica">61</text>
   </g>
   <g>
    <circle stroke="black" stroke-width="0.5" fill="#aaffff" cx="211.0" cy="450.0" r="1.0"/>
    <text stroke="none" x="211.0" y="450.0" font-size="20.0" font-family="helvetica">82</text>
   </g>
   <g>
    <circle stroke="black" stroke-width="0.5" fill="#aaffff" cx="212.0" cy="140.0" r="1.0"/>
    <text stroke="none" x="212.0" y="140.0" font-size="10.0" font-family="helvetica">NT1.10</text>
   </g>
   <g>
    <circle stroke="black" stroke-width="0.5" fill="#aaffff" cx="218.0" cy="1038.0" r="1.0"/>
    <text stroke="none" x="218.0" y="1038.0" font-size="20.0" font-family="helvetica">98</text>
   </g>
   <g>
    <circle stroke="black" stroke-width="0.5" fill="#aaffff" cx="235.0" cy="767.0" r="1.0"/>
    <text stroke="none" x="235.0" y="767.0" font-size="20.0" font-family="helvetica">70</text>
   </g>
   <g>
    <circle stroke="black" stroke-width="0.5" fill="#aaffff" cx="240.0" cy="114.0" r="1.0"/>
    <text stroke="none" x="240.0" y="114.0" font-size="10.0" font-family="helvetica">NT1.13</text>
   </g>
   <g>
    <circle stroke="black" stroke-width="0.5" fill="#aaffff" cx="246.0" cy="35.0" r="1.0"/>
    <text stroke="none" x="246.0" y="35.0" font-size="20.0" font-family="helvetica">79</text>
   </g>
   <g>
    <circle stroke="black" stroke-width="0.5" fill="#aaffff" cx="249.0" cy="204.0" r="1.0"/>
    <text stroke="none" x="249.0" y="204.0" font-size="10.0" font-family="helvetica">NT1.15</text>
   </g>
   <g>
    <circle stroke="black" stroke-width="0.5" fill="#aaffff" cx="267.0" cy="887.0" r="1.0"/>
    <text stroke="none" x="267.0" y="887.0" font-size="20.0" font-family="helvetica">100</text>
   </g>
   <g>
    <circle stroke="black" stroke-width="0.5" fill="#aaffff" cx="275.0" cy="797.0" r="1.0"/>
    <text stroke="none" x="275.0" y="797.0" font-size="20.0" font-family="helvetica">95</text>
   </g>
   <g>
    <circle stroke="black" stroke-width="0.5" fill="#aaffff" cx="279.0" cy="325.0" r="1.0"/>
    <text stroke="none" x="279.0" y="325.0" font-size="20.0" font-family="helvetica">87</text>
   </g>
   <g>
    <circle stroke="black" stroke-width="0.5" fill="#aaffff" cx="285.0" cy="234.0" r="1.0"/>
    <text stroke="none" x="285.0" y="234.0" font-size="20.0" font-family="helvetica">76</text>
   </g>
   <g>
    <circle stroke="black" stroke-width="0.5" fill="#aaffff" cx="311.0" cy="778.0" r="1.0"/>
    <text stroke="none" x="311.0" y="778.0" font-size="20.0" font-family="helvetica">B. aquimaris KCCM41589T (AF483625)</text>
   </g>
   <g>
    <circle stroke="black" stroke-width="0.5" fill="#aaffff" cx="316.0" cy="917.0" r="1.0"/>
    <text stroke="none" x="316.0" y="917.0" font-size="20.0" font-family="helvetica">79</text>
   </g>
   <g>
    <circle stroke="black" stroke-width="0.5" fill="#aaffff" cx="319.0" cy="818.0" r="1.0"/>
    <text stroke="none" x="319.0" y="818.0" font-size="20.0" font-family="helvetica">B. vietnamensis JCM 11124T (ABOQQ708)</text>
   </g>
   <g>
    <circle stroke="black" stroke-width="0.5" fill="#aaffff" cx="326.0" cy="738.0" r="1.0"/>
    <text stroke="none" x="326.0" y="738.0" font-size="20.0" font-family="helvetica">B. marisf/avi KCCM 41588T (AF483624)</text>
   </g>
   <g>
    <circle stroke="black" stroke-width="0.5" fill="#aaffff" cx="341.0" cy="485.0" r="1.0"/>
    <text stroke="none" x="341.0" y="485.0" font-size="20.0" font-family="helvetica">100</text>
   </g>
   <g>
    <circle stroke="black" stroke-width="0.5" fill="#aaffff" cx="354.0" cy="628.0" r="1.0"/>
    <text stroke="none" x="354.0" y="628.0" font-size="20.0" font-family="helvetica">100</text>
   </g>
   <g>
    <circle stroke="black" stroke-width="0.5" fill="#aaffff" cx="358.0" cy="576.0" r="1.0"/>
    <text stroke="none" x="358.0" y="576.0" font-size="20.0" font-family="helvetica">m4-4b CECT 7197T (EF014451)</text>
   </g>
   <g>
    <circle stroke="black" stroke-width="0.5" fill="#aaffff" cx="358.0" cy="598.0" r="1.0"/>
    <text stroke="none" x="358.0" y="598.0" font-size="10.0" font-family="helvetica">NT1.27</text>
   </g>
   <g>
    <circle stroke="black" stroke-width="0.5" fill="#aaffff" cx="364.0" cy="697.0" r="1.0"/>
    <text stroke="none" x="364.0" y="697.0" font-size="20.0" font-family="helvetica">B. seohaeanensis DSM 16464T (AY667495)</text>
   </g>
   <g>
    <circle stroke="black" stroke-width="0.5" fill="#aaffff" cx="369.0" cy="657.0" r="1.0"/>
    <text stroke="none" x="369.0" y="657.0" font-size="20.0" font-family="helvetica">m4—4a CECT 7197T (EF014450)</text>
   </g>
   <g>
    <circle stroke="black" stroke-width="0.5" fill="#aaffff" cx="373.0" cy="95.0" r="1.0"/>
    <text stroke="none" x="373.0" y="95.0" font-size="20.0" font-family="helvetica">B. firmus IAM 12464T (D16268)</text>
   </g>
   <g>
    <circle stroke="black" stroke-width="0.5" fill="#aaffff" cx="376.0" cy="938.0" r="1.0"/>
    <text stroke="none" x="376.0" y="938.0" font-size="20.0" font-family="helvetica">B. lichen/formis DSM 13T (X68416)</text>
   </g>
   <g>
    <circle stroke="black" stroke-width="0.5" fill="#aaffff" cx="380.0" cy="516.0" r="1.0"/>
    <text stroke="none" x="380.0" y="516.0" font-size="20.0" font-family="helvetica">94</text>
   </g>
   <g>
    <circle stroke="black" stroke-width="0.5" fill="#aaffff" cx="386.0" cy="977.0" r="1.0"/>
    <text stroke="none" x="386.0" y="977.0" font-size="20.0" font-family="helvetica">Virgfbacillus koreens/s JCM 12387T (AY616012)</text>
   </g>
   <g>
    <circle stroke="black" stroke-width="0.5" fill="#aaffff" cx="391.0" cy="416.0" r="1.0"/>
    <text stroke="none" x="391.0" y="416.0" font-size="20.0" font-family="helvetica">B, megaterfum IAM 1111418T (D16273)</text>
   </g>
   <g>
    <circle stroke="black" stroke-width="0.5" fill="#aaffff" cx="393.0" cy="617.0" r="1.0"/>
    <text stroke="none" x="393.0" y="617.0" font-size="20.0" font-family="helvetica">m4—4c CECT 7197T (EF014452)</text>
   </g>
   <g>
    <circle stroke="black" stroke-width="0.5" fill="#aaffff" cx="396.0" cy="1019.0" r="1.0"/>
    <text stroke="none" x="396.0" y="1019.0" font-size="20.0" font-family="helvetica">B. pseudofirmus DSM 8715T (X76439)</text>
   </g>
   <g>
    <circle stroke="black" stroke-width="0.5" fill="#aaffff" cx="401.0" cy="215.0" r="1.0"/>
    <text stroke="none" x="401.0" y="215.0" font-size="20.0" font-family="helvetica">B. jeotgali KCCM41O40T (AF221061)</text>
   </g>
   <g>
    <circle stroke="black" stroke-width="0.5" fill="#aaffff" cx="404.0" cy="15.0" r="1.0"/>
    <text stroke="none" x="404.0" y="15.0" font-size="20.0" font-family="helvetica">B. benzoevorans DSM5391T (D78311)</text>
   </g>
   <g>
    <circle stroke="black" stroke-width="0.5" fill="#aaffff" cx="413.0" cy="898.0" r="1.0"/>
    <text stroke="none" x="413.0" y="898.0" font-size="20.0" font-family="helvetica">B. subtilis NCDO 1769T (X60646)</text>
   </g>
   <g>
    <circle stroke="black" stroke-width="0.5" fill="#aaffff" cx="414.0" cy="175.0" r="1.0"/>
    <text stroke="none" x="414.0" y="175.0" font-size="20.0" font-family="helvetica">B. methanolicus NCIMB 13113T (X64465)</text>
   </g>
   <g>
    <circle stroke="black" stroke-width="0.5" fill="#aaffff" cx="416.0" cy="135.0" r="1.0"/>
    <text stroke="none" x="416.0" y="135.0" font-size="20.0" font-family="helvetica">s. lentus IAM 12466T (D16272)</text>
   </g>
   <g>
    <circle stroke="black" stroke-width="0.5" fill="#aaffff" cx="423.0" cy="456.0" r="1.0"/>
    <text stroke="none" x="423.0" y="456.0" font-size="20.0" font-family="helvetica">B. cohnii DSM 6307T (X76437)</text>
   </g>
   <g>
    <circle stroke="black" stroke-width="0.5" fill="#aaffff" cx="429.0" cy="295.0" r="1.0"/>
    <text stroke="none" x="429.0" y="295.0" font-size="20.0" font-family="helvetica">B. oleronius DSM 9356T (X82492)</text>
   </g>
   <g>
    <circle stroke="black" stroke-width="0.5" fill="#aaffff" cx="430.0" cy="858.0" r="1.0"/>
    <text stroke="none" x="430.0" y="858.0" font-size="20.0" font-family="helvetica">B. pumilus NCDO 1766T (X60637)</text>
   </g>
   <g>
    <circle stroke="black" stroke-width="0.5" fill="#aaffff" cx="431.0" cy="1059.0" r="1.0"/>
    <text stroke="none" x="431.0" y="1059.0" font-size="20.0" font-family="helvetica">B. halodurans DSM 497T (AJ302709)</text>
   </g>
   <g>
    <circle stroke="black" stroke-width="0.5" fill="#aaffff" cx="432.0" cy="54.0" r="1.0"/>
    <text stroke="none" x="432.0" y="54.0" font-size="20.0" font-family="helvetica">B. circalans IAM 12462T (D78312)</text>
   </g>
   <g>
    <circle stroke="black" stroke-width="0.5" fill="#aaffff" cx="443.0" cy="255.0" r="1.0"/>
    <text stroke="none" x="443.0" y="255.0" font-size="20.0" font-family="helvetica">B. fumarioli LMG 17489T (AJ250056)</text>
   </g>
   <g>
    <circle stroke="black" stroke-width="0.5" fill="#aaffff" cx="452.0" cy="536.0" r="1.0"/>
    <text stroke="none" x="452.0" y="536.0" font-size="20.0" font-family="helvetica">B. horikoshii DSM 8719T (X76443)</text>
   </g>
   <g>
    <circle stroke="black" stroke-width="0.5" fill="#aaffff" cx="467.0" cy="496.0" r="1.0"/>
    <text stroke="none" x="467.0" y="496.0" font-size="20.0" font-family="helvetica">B. halmapalus DSM 8723T (X76447)</text>
   </g>
   <g>
    <circle stroke="black" stroke-width="0.5" fill="#aaffff" cx="613.0" cy="355.0" r="1.0"/>
    <text stroke="none" x="613.0" y="355.0" font-size="20.0" font-family="helvetica">100</text>
   </g>
   <g>
    <circle stroke="black" stroke-width="0.5" fill="#aaffff" cx="647.0" cy="376.0" r="1.0"/>
    <text stroke="none" x="647.0" y="376.0" font-size="20.0" font-family="helvetica">B. badius ATCC 14574T (078310)</text>
   </g>
   <g>
    <circle stroke="black" stroke-width="0.5" fill="#aaffff" cx="661.0" cy="336.0" r="1.0"/>
    <text stroke="none" x="661.0" y="336.0" font-size="20.0" font-family="helvetica">B. coagulans JCM2257T (D78313)</text>
   </g>
   <g>
    <circle stroke="black" stroke-width="0.5" fill="#aaffff" cx="661.0" cy="1099.0" r="1.0"/>
    <text stroke="none" x="661.0" y="1099.0" font-size="20.0" font-family="helvetica">Exiguobacterium oxidotolerans JCM 12280T (AB105164)</text>
   </g>
   <g>
    <circle stroke="black" stroke-width="0.5" fill="#aaffff" cx="4.0" cy="1020.0" r="1.0"/>
    <text stroke="none" x="4.0" y="1020.0" font-size="10.0" font-family="helvetica">NT1.54</text>
   </g>
   <line stroke="black" x1="404.0" y1="15.0" x2="246.0" y2="35.0" stroke-width="0.5"/>
   <line stroke="black" x1="432.0" y1="54.0" x2="246.0" y2="35.0" stroke-width="0.5"/>
   <line stroke="black" x1="373.0" y1="95.0" x2="240.0" y2="114.0" stroke-width="0.5"/>
   <line stroke="black" x1="443.0" y1="255.0" x2="285.0" y2="234.0" stroke-width="0.5"/>
   <line stroke="black" x1="391.0" y1="416.0" x2="211.0" y2="450.0" stroke-width="0.5"/>
   <line stroke="black" x1="326.0" y1="738.0" x2="235.0" y2="767.0" stroke-width="0.5"/>
   <line stroke="black" x1="364.0" y1="697.0" x2="208.0" y2="731.0" stroke-width="0.5"/>
   <line stroke="black" x1="369.0" y1="657.0" x2="354.0" y2="628.0" stroke-width="0.5"/>
   <line stroke="black" x1="358.0" y1="576.0" x2="358.0" y2="598.0" stroke-width="0.5"/>
   <line stroke="black" x1="430.0" y1="858.0" x2="267.0" y2="887.0" stroke-width="0.5"/>
   <line stroke="black" x1="386.0" y1="977.0" x2="105.0" y2="840.0" stroke-width="0.5"/>
   <line stroke="black" x1="431.0" y1="1059.0" x2="218.0" y2="1038.0" stroke-width="0.5"/>
   <line stroke="black" x1="246.0" y1="35.0" x2="212.0" y2="140.0" stroke-width="0.5"/>
   <line stroke="black" x1="246.0" y1="35.0" x2="240.0" y2="114.0" stroke-width="0.5"/>
   <line stroke="black" x1="212.0" y1="140.0" x2="183.0" y2="234.0" stroke-width="0.5"/>
   <line stroke="black" x1="212.0" y1="140.0" x2="249.0" y2="204.0" stroke-width="0.5"/>
   <line stroke="black" x1="249.0" y1="204.0" x2="285.0" y2="234.0" stroke-width="0.5"/>
   <line stroke="black" x1="183.0" y1="234.0" x2="149.0" y2="344.0" stroke-width="0.5"/>
   <line stroke="black" x1="183.0" y1="234.0" x2="279.0" y2="325.0" stroke-width="0.5"/>
   <line stroke="black" x1="149.0" y1="344.0" x2="139.0" y2="512.0" stroke-width="0.5"/>
   <line stroke="black" x1="149.0" y1="344.0" x2="211.0" y2="450.0" stroke-width="0.5"/>
   <line stroke="black" x1="279.0" y1="325.0" x2="613.0" y2="355.0" stroke-width="0.5"/>
   <line stroke="black" x1="211.0" y1="450.0" x2="341.0" y2="485.0" stroke-width="0.5"/>
   <line stroke="black" x1="139.0" y1="512.0" x2="124.0" y2="701.0" stroke-width="0.5"/>
   <line stroke="black" x1="139.0" y1="512.0" x2="186.0" y2="680.0" stroke-width="0.5"/>
   <line stroke="black" x1="341.0" y1="485.0" x2="380.0" y2="516.0" stroke-width="0.5"/>
   <line stroke="black" x1="124.0" y1="701.0" x2="105.0" y2="840.0" stroke-width="0.5"/>
   <line stroke="black" x1="124.0" y1="701.0" x2="267.0" y2="887.0" stroke-width="0.5"/>
   <line stroke="black" x1="186.0" y1="680.0" x2="208.0" y2="731.0" stroke-width="0.5"/>
   <line stroke="black" x1="186.0" y1="680.0" x2="354.0" y2="628.0" stroke-width="0.5"/>
   <line stroke="black" x1="380.0" y1="516.0" x2="452.0" y2="536.0" stroke-width="0.5"/>
   <line stroke="black" x1="208.0" y1="731.0" x2="235.0" y2="767.0" stroke-width="0.5"/>
   <line stroke="black" x1="235.0" y1="767.0" x2="275.0" y2="797.0" stroke-width="0.5"/>
   <line stroke="black" x1="105.0" y1="840.0" x2="82.0" y2="941.0" stroke-width="0.5"/>
   <line stroke="black" x1="354.0" y1="628.0" x2="358.0" y2="598.0" stroke-width="0.5"/>
   <line stroke="black" x1="82.0" y1="941.0" x2="218.0" y2="1038.0" stroke-width="0.5"/>
   <line stroke="black" x1="267.0" y1="887.0" x2="316.0" y2="917.0" stroke-width="0.5"/>
   <line stroke="black" x1="316.0" y1="917.0" x2="376.0" y2="938.0" stroke-width="0.5"/>
   <line stroke="black" x1="4.0" y1="1020.0" x2="82.0" y2="941.0" stroke-width="0.5"/>
   <line stroke="black" x1="661.0" y1="1099.0" x2="4.0" y2="1020.0" stroke-width="0.5"/>
   <line stroke="black" x1="396.0" y1="1019.0" x2="218.0" y2="1038.0" stroke-width="0.5"/>
   <line stroke="black" x1="429.0" y1="295.0" x2="279.0" y2="325.0" stroke-width="0.5"/>
   <line stroke="black" x1="311.0" y1="778.0" x2="275.0" y2="797.0" stroke-width="0.5"/>
   <line stroke="black" x1="319.0" y1="818.0" x2="275.0" y2="797.0" stroke-width="0.5"/>
   <line stroke="black" x1="416.0" y1="135.0" x2="240.0" y2="114.0" stroke-width="0.5"/>
   <line stroke="black" x1="414.0" y1="175.0" x2="249.0" y2="204.0" stroke-width="0.5"/>
   <line stroke="black" x1="401.0" y1="215.0" x2="285.0" y2="234.0" stroke-width="0.5"/>
   <line stroke="black" x1="413.0" y1="898.0" x2="316.0" y2="917.0" stroke-width="0.5"/>
   <line stroke="black" x1="423.0" y1="456.0" x2="341.0" y2="485.0" stroke-width="0.5"/>
   <line stroke="black" x1="393.0" y1="617.0" x2="358.0" y2="598.0" stroke-width="0.5"/>
   <line stroke="black" x1="467.0" y1="496.0" x2="380.0" y2="516.0" stroke-width="0.5"/>
   <line stroke="black" x1="647.0" y1="376.0" x2="613.0" y2="355.0" stroke-width="0.5"/>
   <line stroke="black" x1="661.0" y1="336.0" x2="613.0" y2="355.0" stroke-width="0.5"/>
  </g>
 </g>
</svg>
