<?xml version="1.0" encoding="UTF-8"?>
<svg xmlns="http://www.w3.org/2000/svg">
 <g>
  <g>
   <g>
    <circle stroke="black" stroke-width="0.5" fill="#aaffff" cx="4.0" cy="654.0" r="1.0"/>
    <text stroke="none" x="4.0" y="654.0" font-size="20.0" font-family="helvetica"/>
   </g>
   <g>
    <circle stroke="black" stroke-width="0.5" fill="#aaffff" cx="5.0" cy="652.0" r="1.0"/>
    <text stroke="none" x="5.0" y="652.0" font-size="10.0" font-family="helvetica">NT1.2</text>
   </g>
   <g>
    <circle stroke="black" stroke-width="0.5" fill="#aaffff" cx="176.0" cy="168.0" r="1.0"/>
    <text stroke="none" x="176.0" y="168.0" font-size="20.0" font-family="helvetica">100</text>
   </g>
   <g>
    <circle stroke="black" stroke-width="0.5" fill="#aaffff" cx="213.0" cy="101.0" r="1.0"/>
    <text stroke="none" x="213.0" y="101.0" font-size="10.0" font-family="helvetica">NT1.4</text>
   </g>
   <g>
    <circle stroke="black" stroke-width="0.5" fill="#aaffff" cx="295.0" cy="205.0" r="1.0"/>
    <text stroke="none" x="295.0" y="205.0" font-size="10.0" font-family="helvetica">NT1.5</text>
   </g>
   <g>
    <circle stroke="black" stroke-width="0.5" fill="#aaffff" cx="325.0" cy="80.0" r="1.0"/>
    <text stroke="none" x="325.0" y="80.0" font-size="10.0" font-family="helvetica">NT1.6</text>
   </g>
   <g>
    <circle stroke="black" stroke-width="0.5" fill="#aaffff" cx="330.0" cy="370.0" r="1.0"/>
    <text stroke="none" x="330.0" y="370.0" font-size="10.0" font-family="helvetica">NT1.7</text>
   </g>
   <g>
    <circle stroke="black" stroke-width="0.5" fill="#aaffff" cx="354.0" cy="219.0" r="1.0"/>
    <text stroke="none" x="354.0" y="219.0" font-size="10.0" font-family="helvetica">NT1.8</text>
   </g>
   <g>
    <circle stroke="black" stroke-width="0.5" fill="#aaffff" cx="356.0" cy="480.0" r="1.0"/>
    <text stroke="none" x="356.0" y="480.0" font-size="10.0" font-family="helvetica">NT1.9</text>
   </g>
   <g>
    <circle stroke="black" stroke-width="0.5" fill="#aaffff" cx="357.0" cy="41.0" r="1.0"/>
    <text stroke="none" x="357.0" y="41.0" font-size="10.0" font-family="helvetica">NT1.10</text>
   </g>
   <g>
    <circle stroke="black" stroke-width="0.5" fill="#aaffff" cx="382.0" cy="338.0" r="1.0"/>
    <text stroke="none" x="382.0" y="338.0" font-size="10.0" font-family="helvetica">NT1.11</text>
   </g>
   <g>
    <circle stroke="black" stroke-width="0.5" fill="#aaffff" cx="421.0" cy="418.0" r="1.0"/>
    <text stroke="none" x="421.0" y="418.0" font-size="10.0" font-family="helvetica">NT1.12</text>
   </g>
   <g>
    <circle stroke="black" stroke-width="0.5" fill="#aaffff" cx="446.0" cy="165.0" r="1.0"/>
    <text stroke="none" x="446.0" y="165.0" font-size="20.0" font-family="helvetica"/>
   </g>
   <g>
    <circle stroke="black" stroke-width="0.5" fill="#aaffff" cx="456.0" cy="315.0" r="1.0"/>
    <text stroke="none" x="456.0" y="315.0" font-size="20.0" font-family="helvetica">WB 2.1-25T(AM491368)</text>
   </g>
   <g>
    <circle stroke="black" stroke-width="0.5" fill="#aaffff" cx="462.0" cy="201.0" r="1.0"/>
    <text stroke="none" x="462.0" y="201.0" font-size="20.0" font-family="helvetica">P. panaciterrae Gsoil O42T (AB245368)</text>
   </g>
   <g>
    <circle stroke="black" stroke-width="0.5" fill="#aaffff" cx="467.0" cy="555.0" r="1.0"/>
    <text stroke="none" x="467.0" y="555.0" font-size="10.0" font-family="helvetica">NT1.16</text>
   </g>
   <g>
    <circle stroke="black" stroke-width="0.5" fill="#aaffff" cx="468.0" cy="128.0" r="1.0"/>
    <text stroke="none" x="468.0" y="128.0" font-size="20.0" font-family="helvetica">P. aquatilis AR1O7T (AM114396)</text>
   </g>
   <g>
    <circle stroke="black" stroke-width="0.5" fill="#aaffff" cx="483.0" cy="54.0" r="1.0"/>
    <text stroke="none" x="483.0" y="54.0" font-size="20.0" font-family="helvetica"/>
   </g>
   <g>
    <circle stroke="black" stroke-width="0.5" fill="#aaffff" cx="484.0" cy="351.0" r="1.0"/>
    <text stroke="none" x="484.0" y="351.0" font-size="20.0" font-family="helvetica">WB 2.3-71T (AM491370)</text>
   </g>
   <g>
    <circle stroke="black" stroke-width="0.5" fill="#aaffff" cx="489.0" cy="388.0" r="1.0"/>
    <text stroke="none" x="489.0" y="388.0" font-size="20.0" font-family="helvetica"/>
   </g>
   <g>
    <circle stroke="black" stroke-width="0.5" fill="#aaffff" cx="495.0" cy="427.0" r="1.0"/>
    <text stroke="none" x="495.0" y="427.0" font-size="20.0" font-family="helvetica"/>
   </g>
   <g>
    <circle stroke="black" stroke-width="0.5" fill="#aaffff" cx="496.0" cy="239.0" r="1.0"/>
    <text stroke="none" x="496.0" y="239.0" font-size="20.0" font-family="helvetica">P heparinus DSM 2366T (AJ438172)</text>
   </g>
   <g>
    <circle stroke="black" stroke-width="0.5" fill="#aaffff" cx="505.0" cy="19.0" r="1.0"/>
    <text stroke="none" x="505.0" y="19.0" font-size="20.0" font-family="helvetica"/>
   </g>
   <g>
    <circle stroke="black" stroke-width="0.5" fill="#aaffff" cx="506.0" cy="280.0" r="1.0"/>
    <text stroke="none" x="506.0" y="280.0" font-size="20.0" font-family="helvetica"/>
   </g>
   <g>
    <circle stroke="black" stroke-width="0.5" fill="#aaffff" cx="520.0" cy="555.0" r="1.0"/>
    <text stroke="none" x="520.0" y="555.0" font-size="10.0" font-family="helvetica">NT1.25</text>
   </g>
   <g>
    <circle stroke="black" stroke-width="0.5" fill="#aaffff" cx="532.0" cy="91.0" r="1.0"/>
    <text stroke="none" x="532.0" y="91.0" font-size="20.0" font-family="helvetica">P sandarakinus DS—27T (D0235228)</text>
   </g>
   <g>
    <circle stroke="black" stroke-width="0.5" fill="#aaffff" cx="594.0" cy="602.0" r="1.0"/>
    <text stroke="none" x="594.0" y="602.0" font-size="20.0" font-family="helvetica">P. piSclum DSM ‘1‘1725T (AJ438174)</text>
   </g>
   <g>
    <circle stroke="black" stroke-width="0.5" fill="#aaffff" cx="595.0" cy="539.0" r="1.0"/>
    <text stroke="none" x="595.0" y="539.0" font-size="20.0" font-family="helvetica">P cryoconitis DSM 14825T (AJ438170)</text>
   </g>
   <g>
    <circle stroke="black" stroke-width="0.5" fill="#aaffff" cx="610.0" cy="500.0" r="1.0"/>
    <text stroke="none" x="610.0" y="500.0" font-size="20.0" font-family="helvetica"/>
   </g>
   <g>
    <circle stroke="black" stroke-width="0.5" fill="#aaffff" cx="639.0" cy="652.0" r="1.0"/>
    <text stroke="none" x="639.0" y="652.0" font-size="20.0" font-family="helvetica">P. saltans DSM 12145T (AJ438173)</text>
   </g>
   <g>
    <circle stroke="black" stroke-width="0.5" fill="#aaffff" cx="668.0" cy="575.0" r="1.0"/>
    <text stroke="none" x="668.0" y="575.0" font-size="20.0" font-family="helvetica">P himalayensis JCM ‘12‘17‘1T (AJ583425)</text>
   </g>
   <line stroke="black" x1="532.0" y1="91.0" x2="325.0" y2="80.0" stroke-width="0.5"/>
   <line stroke="black" x1="468.0" y1="128.0" x2="213.0" y2="101.0" stroke-width="0.5"/>
   <line stroke="black" x1="456.0" y1="315.0" x2="382.0" y2="338.0" stroke-width="0.5"/>
   <line stroke="black" x1="4.0" y1="654.0" x2="5.0" y2="652.0" stroke-width="0.5"/>
   <line stroke="black" x1="489.0" y1="388.0" x2="421.0" y2="418.0" stroke-width="0.5"/>
   <line stroke="black" x1="495.0" y1="427.0" x2="421.0" y2="418.0" stroke-width="0.5"/>
   <line stroke="black" x1="594.0" y1="602.0" x2="467.0" y2="555.0" stroke-width="0.5"/>
   <line stroke="black" x1="639.0" y1="652.0" x2="5.0" y2="652.0" stroke-width="0.5"/>
   <line stroke="black" x1="357.0" y1="41.0" x2="325.0" y2="80.0" stroke-width="0.5"/>
   <line stroke="black" x1="325.0" y1="80.0" x2="213.0" y2="101.0" stroke-width="0.5"/>
   <line stroke="black" x1="213.0" y1="101.0" x2="176.0" y2="168.0" stroke-width="0.5"/>
   <line stroke="black" x1="176.0" y1="168.0" x2="295.0" y2="205.0" stroke-width="0.5"/>
   <line stroke="black" x1="295.0" y1="205.0" x2="330.0" y2="370.0" stroke-width="0.5"/>
   <line stroke="black" x1="295.0" y1="205.0" x2="354.0" y2="219.0" stroke-width="0.5"/>
   <line stroke="black" x1="330.0" y1="370.0" x2="382.0" y2="338.0" stroke-width="0.5"/>
   <line stroke="black" x1="330.0" y1="370.0" x2="356.0" y2="480.0" stroke-width="0.5"/>
   <line stroke="black" x1="356.0" y1="480.0" x2="467.0" y2="555.0" stroke-width="0.5"/>
   <line stroke="black" x1="356.0" y1="480.0" x2="421.0" y2="418.0" stroke-width="0.5"/>
   <line stroke="black" x1="467.0" y1="555.0" x2="520.0" y2="555.0" stroke-width="0.5"/>
   <line stroke="black" x1="176.0" y1="168.0" x2="5.0" y2="652.0" stroke-width="0.5"/>
   <line stroke="black" x1="446.0" y1="165.0" x2="295.0" y2="205.0" stroke-width="0.5"/>
   <line stroke="black" x1="462.0" y1="201.0" x2="354.0" y2="219.0" stroke-width="0.5"/>
   <line stroke="black" x1="483.0" y1="54.0" x2="357.0" y2="41.0" stroke-width="0.5"/>
   <line stroke="black" x1="496.0" y1="239.0" x2="354.0" y2="219.0" stroke-width="0.5"/>
   <line stroke="black" x1="506.0" y1="280.0" x2="330.0" y2="370.0" stroke-width="0.5"/>
   <line stroke="black" x1="505.0" y1="19.0" x2="357.0" y2="41.0" stroke-width="0.5"/>
   <line stroke="black" x1="484.0" y1="351.0" x2="382.0" y2="338.0" stroke-width="0.5"/>
   <line stroke="black" x1="520.0" y1="555.0" x2="610.0" y2="500.0" stroke-width="0.5"/>
   <line stroke="black" x1="595.0" y1="539.0" x2="520.0" y2="555.0" stroke-width="0.5"/>
   <line stroke="black" x1="668.0" y1="575.0" x2="520.0" y2="555.0" stroke-width="0.5"/>
  </g>
 </g>
</svg>
