<?xml version="1.0" encoding="UTF-8"?>
<svg xmlns="http://www.w3.org/2000/svg">
 <g>
  <g>
   <g>
    <circle stroke="black" stroke-width="0.5" fill="#aaffff" cx="5.0" cy="638.0" r="1.0"/>
    <text stroke="none" x="5.0" y="638.0" font-size="20.0" font-family="helvetica"/>
   </g>
   <g>
    <circle stroke="black" stroke-width="0.5" fill="#aaffff" cx="13.0" cy="540.0" r="1.0"/>
    <text stroke="none" x="13.0" y="540.0" font-size="10.0" font-family="helvetica">NT1.2</text>
   </g>
   <g>
    <circle stroke="black" stroke-width="0.5" fill="#aaffff" cx="57.0" cy="400.0" r="1.0"/>
    <text stroke="none" x="57.0" y="400.0" font-size="10.0" font-family="helvetica">NT1.3</text>
   </g>
   <g>
    <circle stroke="black" stroke-width="0.5" fill="#aaffff" cx="77.0" cy="510.0" r="1.0"/>
    <text stroke="none" x="77.0" y="510.0" font-size="10.0" font-family="helvetica">NT1.4</text>
   </g>
   <g>
    <circle stroke="black" stroke-width="0.5" fill="#aaffff" cx="126.0" cy="287.0" r="1.0"/>
    <text stroke="none" x="126.0" y="287.0" font-size="10.0" font-family="helvetica">NT1.5</text>
   </g>
   <g>
    <circle stroke="black" stroke-width="0.5" fill="#aaffff" cx="152.0" cy="465.0" r="1.0"/>
    <text stroke="none" x="152.0" y="465.0" font-size="10.0" font-family="helvetica">NT1.6</text>
   </g>
   <g>
    <circle stroke="black" stroke-width="0.5" fill="#aaffff" cx="183.0" cy="189.0" r="1.0"/>
    <text stroke="none" x="183.0" y="189.0" font-size="10.0" font-family="helvetica">NT1.7</text>
   </g>
   <g>
    <circle stroke="black" stroke-width="0.5" fill="#aaffff" cx="244.0" cy="134.0" r="1.0"/>
    <text stroke="none" x="244.0" y="134.0" font-size="10.0" font-family="helvetica">NT1.8</text>
   </g>
   <g>
    <circle stroke="black" stroke-width="0.5" fill="#aaffff" cx="253.0" cy="97.0" r="1.0"/>
    <text stroke="none" x="253.0" y="97.0" font-size="10.0" font-family="helvetica">NT1.9</text>
   </g>
   <g>
    <circle stroke="black" stroke-width="0.5" fill="#aaffff" cx="279.0" cy="485.0" r="1.0"/>
    <text stroke="none" x="279.0" y="485.0" font-size="20.0" font-family="helvetica">R. triatomae IMMIB RIV-085T (AJ854055)</text>
   </g>
   <g>
    <circle stroke="black" stroke-width="0.5" fill="#aaffff" cx="286.0" cy="242.0" r="1.0"/>
    <text stroke="none" x="286.0" y="242.0" font-size="10.0" font-family="helvetica">NT1.11</text>
   </g>
   <g>
    <circle stroke="black" stroke-width="0.5" fill="#aaffff" cx="286.0" cy="557.0" r="1.0"/>
    <text stroke="none" x="286.0" y="557.0" font-size="10.0" font-family="helvetica">NT1.12</text>
   </g>
   <g>
    <circle stroke="black" stroke-width="0.5" fill="#aaffff" cx="316.0" cy="681.0" r="1.0"/>
    <text stroke="none" x="316.0" y="681.0" font-size="20.0" font-family="helvetica">R. equi DSM 20307T (X80614)</text>
   </g>
   <g>
    <circle stroke="black" stroke-width="0.5" fill="#aaffff" cx="339.0" cy="63.0" r="1.0"/>
    <text stroke="none" x="339.0" y="63.0" font-size="10.0" font-family="helvetica">NT1.14</text>
   </g>
   <g>
    <circle stroke="black" stroke-width="0.5" fill="#aaffff" cx="355.0" cy="277.0" r="1.0"/>
    <text stroke="none" x="355.0" y="277.0" font-size="10.0" font-family="helvetica">NT1.15</text>
   </g>
   <g>
    <circle stroke="black" stroke-width="0.5" fill="#aaffff" cx="372.0" cy="33.0" r="1.0"/>
    <text stroke="none" x="372.0" y="33.0" font-size="20.0" font-family="helvetica">59</text>
   </g>
   <g>
    <circle stroke="black" stroke-width="0.5" fill="#aaffff" cx="374.0" cy="92.0" r="1.0"/>
    <text stroke="none" x="374.0" y="92.0" font-size="20.0" font-family="helvetica">R. wratislaviensis NCIMB 13082T (Z37138)</text>
   </g>
   <g>
    <circle stroke="black" stroke-width="0.5" fill="#aaffff" cx="374.0" cy="131.0" r="1.0"/>
    <text stroke="none" x="374.0" y="131.0" font-size="20.0" font-family="helvetica">R. koreensis DNP505T (AF124343)</text>
   </g>
   <g>
    <circle stroke="black" stroke-width="0.5" fill="#aaffff" cx="387.0" cy="591.0" r="1.0"/>
    <text stroke="none" x="387.0" y="591.0" font-size="10.0" font-family="helvetica">NT1.19</text>
   </g>
   <g>
    <circle stroke="black" stroke-width="0.5" fill="#aaffff" cx="403.0" cy="248.0" r="1.0"/>
    <text stroke="none" x="403.0" y="248.0" font-size="20.0" font-family="helvetica">R. erythropolis DSM 43066T (X79289)</text>
   </g>
   <g>
    <circle stroke="black" stroke-width="0.5" fill="#aaffff" cx="407.0" cy="385.0" r="1.0"/>
    <text stroke="none" x="407.0" y="385.0" font-size="10.0" font-family="helvetica">NT1.21</text>
   </g>
   <g>
    <circle stroke="black" stroke-width="0.5" fill="#aaffff" cx="408.0" cy="170.0" r="1.0"/>
    <text stroke="none" x="408.0" y="170.0" font-size="20.0" font-family="helvetica">R. marinonascens DSM 43752T (X80617)</text>
   </g>
   <g>
    <circle stroke="black" stroke-width="0.5" fill="#aaffff" cx="428.0" cy="52.0" r="1.0"/>
    <text stroke="none" x="428.0" y="52.0" font-size="20.0" font-family="helvetica">R. opacus DSM 43205T (X80630)</text>
   </g>
   <g>
    <circle stroke="black" stroke-width="0.5" fill="#aaffff" cx="443.0" cy="209.0" r="1.0"/>
    <text stroke="none" x="443.0" y="209.0" font-size="20.0" font-family="helvetica">R. globerulus DSM 43954T (X80619)</text>
   </g>
   <g>
    <circle stroke="black" stroke-width="0.5" fill="#aaffff" cx="463.0" cy="445.0" r="1.0"/>
    <text stroke="none" x="463.0" y="445.0" font-size="20.0" font-family="helvetica">R. rhodnii DSM 43336T (X80621)</text>
   </g>
   <g>
    <circle stroke="black" stroke-width="0.5" fill="#aaffff" cx="472.0" cy="287.0" r="1.0"/>
    <text stroke="none" x="472.0" y="287.0" font-size="20.0" font-family="helvetica">R. baikonurensis GTC 1041T (AB071951)</text>
   </g>
   <g>
    <circle stroke="black" stroke-width="0.5" fill="#aaffff" cx="485.0" cy="13.0" r="1.0"/>
    <text stroke="none" x="485.0" y="13.0" font-size="20.0" font-family="helvetica">R. percolatus MBS1T (X92114)</text>
   </g>
   <g>
    <circle stroke="black" stroke-width="0.5" fill="#aaffff" cx="505.0" cy="366.0" r="1.0"/>
    <text stroke="none" x="505.0" y="366.0" font-size="20.0" font-family="helvetica">R. fascians DSM 20669T (X79186)</text>
   </g>
   <g>
    <circle stroke="black" stroke-width="0.5" fill="#aaffff" cx="514.0" cy="523.0" r="1.0"/>
    <text stroke="none" x="514.0" y="523.0" font-size="20.0" font-family="helvetica">R. coprophilus DSM 43347T (X80626)</text>
   </g>
   <g>
    <circle stroke="black" stroke-width="0.5" fill="#aaffff" cx="526.0" cy="406.0" r="1.0"/>
    <text stroke="none" x="526.0" y="406.0" font-size="20.0" font-family="helvetica">R. yunnanensis YIM 70056T (AY602219)</text>
   </g>
   <g>
    <circle stroke="black" stroke-width="0.5" fill="#aaffff" cx="556.0" cy="621.0" r="1.0"/>
    <text stroke="none" x="556.0" y="621.0" font-size="10.0" font-family="helvetica">NT1.31</text>
   </g>
   <g>
    <circle stroke="black" stroke-width="0.5" fill="#aaffff" cx="609.0" cy="602.0" r="1.0"/>
    <text stroke="none" x="609.0" y="602.0" font-size="20.0" font-family="helvetica">R. rhodochrous DSM 43241T (X79288)</text>
   </g>
   <g>
    <circle stroke="black" stroke-width="0.5" fill="#aaffff" cx="657.0" cy="563.0" r="1.0"/>
    <text stroke="none" x="657.0" y="563.0" font-size="20.0" font-family="helvetica">R. ruber DSM 43338T (X80625)</text>
   </g>
   <g>
    <circle stroke="black" stroke-width="0.5" fill="#aaffff" cx="737.0" cy="642.0" r="1.0"/>
    <text stroke="none" x="737.0" y="642.0" font-size="20.0" font-family="helvetica">R. pyridinivorans PDBQT (AF173005)</text>
   </g>
   <line stroke="black" x1="485.0" y1="13.0" x2="372.0" y2="33.0" stroke-width="0.5"/>
   <line stroke="black" x1="374.0" y1="92.0" x2="339.0" y2="63.0" stroke-width="0.5"/>
   <line stroke="black" x1="374.0" y1="131.0" x2="253.0" y2="97.0" stroke-width="0.5"/>
   <line stroke="black" x1="403.0" y1="248.0" x2="355.0" y2="277.0" stroke-width="0.5"/>
   <line stroke="black" x1="505.0" y1="366.0" x2="407.0" y2="385.0" stroke-width="0.5"/>
   <line stroke="black" x1="526.0" y1="406.0" x2="407.0" y2="385.0" stroke-width="0.5"/>
   <line stroke="black" x1="279.0" y1="485.0" x2="152.0" y2="465.0" stroke-width="0.5"/>
   <line stroke="black" x1="463.0" y1="445.0" x2="152.0" y2="465.0" stroke-width="0.5"/>
   <line stroke="black" x1="514.0" y1="523.0" x2="286.0" y2="557.0" stroke-width="0.5"/>
   <line stroke="black" x1="609.0" y1="602.0" x2="556.0" y2="621.0" stroke-width="0.5"/>
   <line stroke="black" x1="737.0" y1="642.0" x2="556.0" y2="621.0" stroke-width="0.5"/>
   <line stroke="black" x1="372.0" y1="33.0" x2="339.0" y2="63.0" stroke-width="0.5"/>
   <line stroke="black" x1="339.0" y1="63.0" x2="253.0" y2="97.0" stroke-width="0.5"/>
   <line stroke="black" x1="253.0" y1="97.0" x2="244.0" y2="134.0" stroke-width="0.5"/>
   <line stroke="black" x1="244.0" y1="134.0" x2="183.0" y2="189.0" stroke-width="0.5"/>
   <line stroke="black" x1="183.0" y1="189.0" x2="126.0" y2="287.0" stroke-width="0.5"/>
   <line stroke="black" x1="183.0" y1="189.0" x2="286.0" y2="242.0" stroke-width="0.5"/>
   <line stroke="black" x1="126.0" y1="287.0" x2="57.0" y2="400.0" stroke-width="0.5"/>
   <line stroke="black" x1="126.0" y1="287.0" x2="407.0" y2="385.0" stroke-width="0.5"/>
   <line stroke="black" x1="286.0" y1="242.0" x2="355.0" y2="277.0" stroke-width="0.5"/>
   <line stroke="black" x1="57.0" y1="400.0" x2="13.0" y2="540.0" stroke-width="0.5"/>
   <line stroke="black" x1="57.0" y1="400.0" x2="77.0" y2="510.0" stroke-width="0.5"/>
   <line stroke="black" x1="77.0" y1="510.0" x2="286.0" y2="557.0" stroke-width="0.5"/>
   <line stroke="black" x1="77.0" y1="510.0" x2="152.0" y2="465.0" stroke-width="0.5"/>
   <line stroke="black" x1="286.0" y1="557.0" x2="387.0" y2="591.0" stroke-width="0.5"/>
   <line stroke="black" x1="387.0" y1="591.0" x2="556.0" y2="621.0" stroke-width="0.5"/>
   <line stroke="black" x1="5.0" y1="638.0" x2="13.0" y2="540.0" stroke-width="0.5"/>
   <line stroke="black" x1="316.0" y1="681.0" x2="13.0" y2="540.0" stroke-width="0.5"/>
   <line stroke="black" x1="408.0" y1="170.0" x2="244.0" y2="134.0" stroke-width="0.5"/>
   <line stroke="black" x1="443.0" y1="209.0" x2="286.0" y2="242.0" stroke-width="0.5"/>
   <line stroke="black" x1="428.0" y1="52.0" x2="372.0" y2="33.0" stroke-width="0.5"/>
   <line stroke="black" x1="472.0" y1="287.0" x2="355.0" y2="277.0" stroke-width="0.5"/>
   <line stroke="black" x1="657.0" y1="563.0" x2="387.0" y2="591.0" stroke-width="0.5"/>
  </g>
 </g>
</svg>
