<?xml version="1.0" encoding="UTF-8"?>
<svg xmlns="http://www.w3.org/2000/svg">
 <g>
  <g>
   <g>
    <circle stroke="black" stroke-width="0.5" fill="#aaffff" cx="1.0" cy="1006.0" r="1.0"/>
    <text stroke="none" x="1.0" y="1006.0" font-size="20.0" font-family="helvetica"/>
   </g>
   <g>
    <circle stroke="black" stroke-width="0.5" fill="#aaffff" cx="18.0" cy="747.0" r="1.0"/>
    <text stroke="none" x="18.0" y="747.0" font-size="10.0" font-family="helvetica">NT1.2</text>
   </g>
   <g>
    <circle stroke="black" stroke-width="0.5" fill="#aaffff" cx="39.0" cy="554.0" r="1.0"/>
    <text stroke="none" x="39.0" y="554.0" font-size="10.0" font-family="helvetica">NT1.3</text>
   </g>
   <g>
    <circle stroke="black" stroke-width="0.5" fill="#aaffff" cx="62.0" cy="430.0" r="1.0"/>
    <text stroke="none" x="62.0" y="430.0" font-size="10.0" font-family="helvetica">NT1.4</text>
   </g>
   <g>
    <circle stroke="black" stroke-width="0.5" fill="#aaffff" cx="80.0" cy="680.0" r="1.0"/>
    <text stroke="none" x="80.0" y="680.0" font-size="20.0" font-family="helvetica">53</text>
   </g>
   <g>
    <circle stroke="black" stroke-width="0.5" fill="#aaffff" cx="82.0" cy="293.0" r="1.0"/>
    <text stroke="none" x="82.0" y="293.0" font-size="20.0" font-family="helvetica">61</text>
   </g>
   <g>
    <circle stroke="black" stroke-width="0.5" fill="#aaffff" cx="84.0" cy="938.0" r="1.0"/>
    <text stroke="none" x="84.0" y="938.0" font-size="20.0" font-family="helvetica">78</text>
   </g>
   <g>
    <circle stroke="black" stroke-width="0.5" fill="#aaffff" cx="97.0" cy="416.0" r="1.0"/>
    <text stroke="none" x="97.0" y="416.0" font-size="10.0" font-family="helvetica">NT1.8</text>
   </g>
   <g>
    <circle stroke="black" stroke-width="0.5" fill="#aaffff" cx="99.0" cy="748.0" r="1.0"/>
    <text stroke="none" x="99.0" y="748.0" font-size="20.0" font-family="helvetica">55</text>
   </g>
   <g>
    <circle stroke="black" stroke-width="0.5" fill="#aaffff" cx="131.0" cy="482.0" r="1.0"/>
    <text stroke="none" x="131.0" y="482.0" font-size="10.0" font-family="helvetica">NT1.10</text>
   </g>
   <g>
    <circle stroke="black" stroke-width="0.5" fill="#aaffff" cx="150.0" cy="166.0" r="1.0"/>
    <text stroke="none" x="150.0" y="166.0" font-size="10.0" font-family="helvetica">NT1.11</text>
   </g>
   <g>
    <circle stroke="black" stroke-width="0.5" fill="#aaffff" cx="164.0" cy="350.0" r="1.0"/>
    <text stroke="none" x="164.0" y="350.0" font-size="10.0" font-family="helvetica">NT1.12</text>
   </g>
   <g>
    <circle stroke="black" stroke-width="0.5" fill="#aaffff" cx="201.0" cy="661.0" r="1.0"/>
    <text stroke="none" x="201.0" y="661.0" font-size="10.0" font-family="helvetica">NT1.13</text>
   </g>
   <g>
    <circle stroke="black" stroke-width="0.5" fill="#aaffff" cx="221.0" cy="448.0" r="1.0"/>
    <text stroke="none" x="221.0" y="448.0" font-size="10.0" font-family="helvetica">NT1.14</text>
   </g>
   <g>
    <circle stroke="black" stroke-width="0.5" fill="#aaffff" cx="229.0" cy="309.0" r="1.0"/>
    <text stroke="none" x="229.0" y="309.0" font-size="10.0" font-family="helvetica">NT1.15</text>
   </g>
   <g>
    <circle stroke="black" stroke-width="0.5" fill="#aaffff" cx="235.0" cy="131.0" r="1.0"/>
    <text stroke="none" x="235.0" y="131.0" font-size="10.0" font-family="helvetica">NT1.16</text>
   </g>
   <g>
    <circle stroke="black" stroke-width="0.5" fill="#aaffff" cx="237.0" cy="566.0" r="1.0"/>
    <text stroke="none" x="237.0" y="566.0" font-size="10.0" font-family="helvetica">NT1.17</text>
   </g>
   <g>
    <circle stroke="black" stroke-width="0.5" fill="#aaffff" cx="250.0" cy="90.0" r="1.0"/>
    <text stroke="none" x="250.0" y="90.0" font-size="10.0" font-family="helvetica">NT1.18</text>
   </g>
   <g>
    <circle stroke="black" stroke-width="0.5" fill="#aaffff" cx="260.0" cy="41.0" r="1.0"/>
    <text stroke="none" x="260.0" y="41.0" font-size="10.0" font-family="helvetica">NT1.19</text>
   </g>
   <g>
    <circle stroke="black" stroke-width="0.5" fill="#aaffff" cx="272.0" cy="67.0" r="1.0"/>
    <text stroke="none" x="272.0" y="67.0" font-size="10.0" font-family="helvetica">NT1.20</text>
   </g>
   <g>
    <circle stroke="black" stroke-width="0.5" fill="#aaffff" cx="277.0" cy="91.0" r="1.0"/>
    <text stroke="none" x="277.0" y="91.0" font-size="10.0" font-family="helvetica">NT1.21</text>
   </g>
   <g>
    <circle stroke="black" stroke-width="0.5" fill="#aaffff" cx="284.0" cy="519.0" r="1.0"/>
    <text stroke="none" x="284.0" y="519.0" font-size="20.0" font-family="helvetica">E. sacchamlyticus LMG 11427T (AJ843521)</text>
   </g>
   <g>
    <circle stroke="black" stroke-width="0.5" fill="#aaffff" cx="293.0" cy="836.0" r="1.0"/>
    <text stroke="none" x="293.0" y="836.0" font-size="10.0" font-family="helvetica">NT1.23</text>
   </g>
   <g>
    <circle stroke="black" stroke-width="0.5" fill="#aaffff" cx="315.0" cy="806.0" r="1.0"/>
    <text stroke="none" x="315.0" y="806.0" font-size="20.0" font-family="helvetica">74</text>
   </g>
   <g>
    <circle stroke="black" stroke-width="0.5" fill="#aaffff" cx="319.0" cy="774.0" r="1.0"/>
    <text stroke="none" x="319.0" y="774.0" font-size="20.0" font-family="helvetica">74</text>
   </g>
   <g>
    <circle stroke="black" stroke-width="0.5" fill="#aaffff" cx="322.0" cy="203.0" r="1.0"/>
    <text stroke="none" x="322.0" y="203.0" font-size="20.0" font-family="helvetica">E. phoeniculicola LMG 22471T (AJ843569)</text>
   </g>
   <g>
    <circle stroke="black" stroke-width="0.5" fill="#aaffff" cx="323.0" cy="345.0" r="1.0"/>
    <text stroke="none" x="323.0" y="345.0" font-size="10.0" font-family="helvetica">NT1.27</text>
   </g>
   <g>
    <circle stroke="black" stroke-width="0.5" fill="#aaffff" cx="324.0" cy="360.0" r="1.0"/>
    <text stroke="none" x="324.0" y="360.0" font-size="20.0" font-family="helvetica">E. saccharominimus LMG 21727T (AJ843479)</text>
   </g>
   <g>
    <circle stroke="black" stroke-width="0.5" fill="#aaffff" cx="324.0" cy="328.0" r="1.0"/>
    <text stroke="none" x="324.0" y="328.0" font-size="20.0" font-family="helvetica">E. ltalicus LMG 22039T (AJ843480)</text>
   </g>
   <g>
    <circle stroke="black" stroke-width="0.5" fill="#aaffff" cx="327.0" cy="43.0" r="1.0"/>
    <text stroke="none" x="327.0" y="43.0" font-size="20.0" font-family="helvetica"/>
   </g>
   <g>
    <circle stroke="black" stroke-width="0.5" fill="#aaffff" cx="333.0" cy="75.0" r="1.0"/>
    <text stroke="none" x="333.0" y="75.0" font-size="20.0" font-family="helvetica">E. durans LMG 1074GT (AJ843485)</text>
   </g>
   <g>
    <circle stroke="black" stroke-width="0.5" fill="#aaffff" cx="335.0" cy="139.0" r="1.0"/>
    <text stroke="none" x="335.0" y="139.0" font-size="20.0" font-family="helvetica">E. mundtii LMG 10748T (AJ843571)</text>
   </g>
   <g>
    <circle stroke="black" stroke-width="0.5" fill="#aaffff" cx="335.0" cy="423.0" r="1.0"/>
    <text stroke="none" x="335.0" y="423.0" font-size="20.0" font-family="helvetica"/>
   </g>
   <g>
    <circle stroke="black" stroke-width="0.5" fill="#aaffff" cx="335.0" cy="487.0" r="1.0"/>
    <text stroke="none" x="335.0" y="487.0" font-size="20.0" font-family="helvetica">E, ﬂavescens LMG ‘13518T (AJ843492)</text>
   </g>
   <g>
    <circle stroke="black" stroke-width="0.5" fill="#aaffff" cx="343.0" cy="13.0" r="1.0"/>
    <text stroke="none" x="343.0" y="13.0" font-size="20.0" font-family="helvetica">E. faecium LMG 11423T (AJ843486)</text>
   </g>
   <g>
    <circle stroke="black" stroke-width="0.5" fill="#aaffff" cx="343.0" cy="107.0" r="1.0"/>
    <text stroke="none" x="343.0" y="107.0" font-size="20.0" font-family="helvetica">E. hirae LMG 6399T (AJ843483)</text>
   </g>
   <g>
    <circle stroke="black" stroke-width="0.5" fill="#aaffff" cx="347.0" cy="273.0" r="1.0"/>
    <text stroke="none" x="347.0" y="273.0" font-size="20.0" font-family="helvetica">Strain FP15-1T(EF197993)</text>
   </g>
   <g>
    <circle stroke="black" stroke-width="0.5" fill="#aaffff" cx="348.0" cy="724.0" r="1.0"/>
    <text stroke="none" x="348.0" y="724.0" font-size="10.0" font-family="helvetica">NT1.38</text>
   </g>
   <g>
    <circle stroke="black" stroke-width="0.5" fill="#aaffff" cx="352.0" cy="915.0" r="1.0"/>
    <text stroke="none" x="352.0" y="915.0" font-size="10.0" font-family="helvetica">NT1.39</text>
   </g>
   <g>
    <circle stroke="black" stroke-width="0.5" fill="#aaffff" cx="353.0" cy="646.0" r="1.0"/>
    <text stroke="none" x="353.0" y="646.0" font-size="20.0" font-family="helvetica">E. faecalis LMG 7937T (AJ843484)</text>
   </g>
   <g>
    <circle stroke="black" stroke-width="0.5" fill="#aaffff" cx="369.0" cy="170.0" r="1.0"/>
    <text stroke="none" x="369.0" y="170.0" font-size="20.0" font-family="helvetica">E ratti LMG 21828T (AJ843502)</text>
   </g>
   <g>
    <circle stroke="black" stroke-width="0.5" fill="#aaffff" cx="376.0" cy="677.0" r="1.0"/>
    <text stroke="none" x="376.0" y="677.0" font-size="20.0" font-family="helvetica">E. moraviensis LMG 19486T (AJ843500)</text>
   </g>
   <g>
    <circle stroke="black" stroke-width="0.5" fill="#aaffff" cx="384.0" cy="836.0" r="1.0"/>
    <text stroke="none" x="384.0" y="836.0" font-size="20.0" font-family="helvetica">E. raffinosus LMG 12888T (AJ843481)</text>
   </g>
   <g>
    <circle stroke="black" stroke-width="0.5" fill="#aaffff" cx="386.0" cy="803.0" r="1.0"/>
    <text stroke="none" x="386.0" y="803.0" font-size="20.0" font-family="helvetica"/>
   </g>
   <g>
    <circle stroke="black" stroke-width="0.5" fill="#aaffff" cx="386.0" cy="899.0" r="1.0"/>
    <text stroke="none" x="386.0" y="899.0" font-size="20.0" font-family="helvetica"/>
   </g>
   <g>
    <circle stroke="black" stroke-width="0.5" fill="#aaffff" cx="386.0" cy="931.0" r="1.0"/>
    <text stroke="none" x="386.0" y="931.0" font-size="20.0" font-family="helvetica">E. dispar LMG 13521T (AJ843493)</text>
   </g>
   <g>
    <circle stroke="black" stroke-width="0.5" fill="#aaffff" cx="396.0" cy="709.0" r="1.0"/>
    <text stroke="none" x="396.0" y="709.0" font-size="20.0" font-family="helvetica"/>
   </g>
   <g>
    <circle stroke="black" stroke-width="0.5" fill="#aaffff" cx="398.0" cy="393.0" r="1.0"/>
    <text stroke="none" x="398.0" y="393.0" font-size="20.0" font-family="helvetica">E. sulfureus LMG 13084T (AJ843491)</text>
   </g>
   <g>
    <circle stroke="black" stroke-width="0.5" fill="#aaffff" cx="402.0" cy="964.0" r="1.0"/>
    <text stroke="none" x="402.0" y="964.0" font-size="20.0" font-family="helvetica"/>
   </g>
   <g>
    <circle stroke="black" stroke-width="0.5" fill="#aaffff" cx="405.0" cy="867.0" r="1.0"/>
    <text stroke="none" x="405.0" y="867.0" font-size="20.0" font-family="helvetica">E. hermanniensis LMG 12317T (AJ843510)</text>
   </g>
   <g>
    <circle stroke="black" stroke-width="0.5" fill="#aaffff" cx="419.0" cy="740.0" r="1.0"/>
    <text stroke="none" x="419.0" y="740.0" font-size="20.0" font-family="helvetica">E. gilvus LMG 21841T (AJ843503)</text>
   </g>
   <g>
    <circle stroke="black" stroke-width="0.5" fill="#aaffff" cx="439.0" cy="773.0" r="1.0"/>
    <text stroke="none" x="439.0" y="773.0" font-size="20.0" font-family="helvetica">E. pseudoavium LMG 11426T (AJ843511)</text>
   </g>
   <g>
    <circle stroke="black" stroke-width="0.5" fill="#aaffff" cx="445.0" cy="549.0" r="1.0"/>
    <text stroke="none" x="445.0" y="549.0" font-size="20.0" font-family="helvetica">E. columbae LMG 11740T (AJ843540)</text>
   </g>
   <g>
    <circle stroke="black" stroke-width="0.5" fill="#aaffff" cx="445.0" cy="613.0" r="1.0"/>
    <text stroke="none" x="445.0" y="613.0" font-size="20.0" font-family="helvetica">E. canis LMG 12316T (AJ843509)</text>
   </g>
   <g>
    <circle stroke="black" stroke-width="0.5" fill="#aaffff" cx="548.0" cy="583.0" r="1.0"/>
    <text stroke="none" x="548.0" y="583.0" font-size="20.0" font-family="helvetica">E. cecorum LMG 12902T(AJ843538)</text>
   </g>
   <line stroke="black" x1="343.0" y1="13.0" x2="260.0" y2="41.0" stroke-width="0.5"/>
   <line stroke="black" x1="333.0" y1="75.0" x2="277.0" y2="91.0" stroke-width="0.5"/>
   <line stroke="black" x1="343.0" y1="107.0" x2="277.0" y2="91.0" stroke-width="0.5"/>
   <line stroke="black" x1="335.0" y1="139.0" x2="250.0" y2="90.0" stroke-width="0.5"/>
   <line stroke="black" x1="369.0" y1="170.0" x2="235.0" y2="131.0" stroke-width="0.5"/>
   <line stroke="black" x1="322.0" y1="203.0" x2="150.0" y2="166.0" stroke-width="0.5"/>
   <line stroke="black" x1="284.0" y1="519.0" x2="131.0" y2="482.0" stroke-width="0.5"/>
   <line stroke="black" x1="324.0" y1="360.0" x2="323.0" y2="345.0" stroke-width="0.5"/>
   <line stroke="black" x1="324.0" y1="328.0" x2="323.0" y2="345.0" stroke-width="0.5"/>
   <line stroke="black" x1="347.0" y1="273.0" x2="229.0" y2="309.0" stroke-width="0.5"/>
   <line stroke="black" x1="398.0" y1="393.0" x2="164.0" y2="350.0" stroke-width="0.5"/>
   <line stroke="black" x1="445.0" y1="549.0" x2="237.0" y2="566.0" stroke-width="0.5"/>
   <line stroke="black" x1="1.0" y1="1006.0" x2="18.0" y2="747.0" stroke-width="0.5"/>
   <line stroke="black" x1="548.0" y1="583.0" x2="237.0" y2="566.0" stroke-width="0.5"/>
   <line stroke="black" x1="445.0" y1="613.0" x2="80.0" y2="680.0" stroke-width="0.5"/>
   <line stroke="black" x1="353.0" y1="646.0" x2="201.0" y2="661.0" stroke-width="0.5"/>
   <line stroke="black" x1="376.0" y1="677.0" x2="201.0" y2="661.0" stroke-width="0.5"/>
   <line stroke="black" x1="386.0" y1="803.0" x2="319.0" y2="774.0" stroke-width="0.5"/>
   <line stroke="black" x1="405.0" y1="867.0" x2="293.0" y2="836.0" stroke-width="0.5"/>
   <line stroke="black" x1="384.0" y1="836.0" x2="315.0" y2="806.0" stroke-width="0.5"/>
   <line stroke="black" x1="396.0" y1="709.0" x2="348.0" y2="724.0" stroke-width="0.5"/>
   <line stroke="black" x1="419.0" y1="740.0" x2="348.0" y2="724.0" stroke-width="0.5"/>
   <line stroke="black" x1="439.0" y1="773.0" x2="319.0" y2="774.0" stroke-width="0.5"/>
   <line stroke="black" x1="386.0" y1="899.0" x2="352.0" y2="915.0" stroke-width="0.5"/>
   <line stroke="black" x1="386.0" y1="931.0" x2="352.0" y2="915.0" stroke-width="0.5"/>
   <line stroke="black" x1="402.0" y1="964.0" x2="84.0" y2="938.0" stroke-width="0.5"/>
   <line stroke="black" x1="260.0" y1="41.0" x2="250.0" y2="90.0" stroke-width="0.5"/>
   <line stroke="black" x1="260.0" y1="41.0" x2="272.0" y2="67.0" stroke-width="0.5"/>
   <line stroke="black" x1="272.0" y1="67.0" x2="277.0" y2="91.0" stroke-width="0.5"/>
   <line stroke="black" x1="250.0" y1="90.0" x2="235.0" y2="131.0" stroke-width="0.5"/>
   <line stroke="black" x1="235.0" y1="131.0" x2="150.0" y2="166.0" stroke-width="0.5"/>
   <line stroke="black" x1="150.0" y1="166.0" x2="82.0" y2="293.0" stroke-width="0.5"/>
   <line stroke="black" x1="82.0" y1="293.0" x2="62.0" y2="430.0" stroke-width="0.5"/>
   <line stroke="black" x1="82.0" y1="293.0" x2="97.0" y2="416.0" stroke-width="0.5"/>
   <line stroke="black" x1="97.0" y1="416.0" x2="131.0" y2="482.0" stroke-width="0.5"/>
   <line stroke="black" x1="97.0" y1="416.0" x2="164.0" y2="350.0" stroke-width="0.5"/>
   <line stroke="black" x1="62.0" y1="430.0" x2="39.0" y2="554.0" stroke-width="0.5"/>
   <line stroke="black" x1="62.0" y1="430.0" x2="237.0" y2="566.0" stroke-width="0.5"/>
   <line stroke="black" x1="131.0" y1="482.0" x2="221.0" y2="448.0" stroke-width="0.5"/>
   <line stroke="black" x1="164.0" y1="350.0" x2="229.0" y2="309.0" stroke-width="0.5"/>
   <line stroke="black" x1="39.0" y1="554.0" x2="18.0" y2="747.0" stroke-width="0.5"/>
   <line stroke="black" x1="39.0" y1="554.0" x2="80.0" y2="680.0" stroke-width="0.5"/>
   <line stroke="black" x1="229.0" y1="309.0" x2="323.0" y2="345.0" stroke-width="0.5"/>
   <line stroke="black" x1="80.0" y1="680.0" x2="99.0" y2="748.0" stroke-width="0.5"/>
   <line stroke="black" x1="18.0" y1="747.0" x2="84.0" y2="938.0" stroke-width="0.5"/>
   <line stroke="black" x1="99.0" y1="748.0" x2="293.0" y2="836.0" stroke-width="0.5"/>
   <line stroke="black" x1="99.0" y1="748.0" x2="201.0" y2="661.0" stroke-width="0.5"/>
   <line stroke="black" x1="84.0" y1="938.0" x2="352.0" y2="915.0" stroke-width="0.5"/>
   <line stroke="black" x1="293.0" y1="836.0" x2="315.0" y2="806.0" stroke-width="0.5"/>
   <line stroke="black" x1="315.0" y1="806.0" x2="319.0" y2="774.0" stroke-width="0.5"/>
   <line stroke="black" x1="319.0" y1="774.0" x2="348.0" y2="724.0" stroke-width="0.5"/>
   <line stroke="black" x1="335.0" y1="423.0" x2="221.0" y2="448.0" stroke-width="0.5"/>
   <line stroke="black" x1="327.0" y1="43.0" x2="272.0" y2="67.0" stroke-width="0.5"/>
   <line stroke="black" x1="335.0" y1="487.0" x2="221.0" y2="448.0" stroke-width="0.5"/>
  </g>
 </g>
</svg>
