<?xml version="1.0" encoding="UTF-8"?>
<svg xmlns="http://www.w3.org/2000/svg">
 <g>
  <g>
   <g>
    <circle stroke="black" stroke-width="0.5" fill="#aaffff" cx="21.0" cy="1189.0" r="1.0"/>
    <text stroke="none" x="21.0" y="1189.0" font-size="20.0" font-family="helvetica">Gluconacetobacter d/azotrophicus ATCC 49037T (X75618)</text>
   </g>
   <g>
    <circle stroke="black" stroke-width="0.5" fill="#aaffff" cx="188.0" cy="300.0" r="1.0"/>
    <text stroke="none" x="188.0" y="300.0" font-size="10.0" font-family="helvetica">NT1.2</text>
   </g>
   <g>
    <circle stroke="black" stroke-width="0.5" fill="#aaffff" cx="229.0" cy="138.0" r="1.0"/>
    <text stroke="none" x="229.0" y="138.0" font-size="10.0" font-family="helvetica">NT1.3</text>
   </g>
   <g>
    <circle stroke="black" stroke-width="0.5" fill="#aaffff" cx="326.0" cy="171.0" r="1.0"/>
    <text stroke="none" x="326.0" y="171.0" font-size="10.0" font-family="helvetica">NT1.4</text>
   </g>
   <g>
    <circle stroke="black" stroke-width="0.5" fill="#aaffff" cx="334.0" cy="463.0" r="1.0"/>
    <text stroke="none" x="334.0" y="463.0" font-size="10.0" font-family="helvetica">NT1.5</text>
   </g>
   <g>
    <circle stroke="black" stroke-width="0.5" fill="#aaffff" cx="341.0" cy="603.0" r="1.0"/>
    <text stroke="none" x="341.0" y="603.0" font-size="10.0" font-family="helvetica">NT1.6</text>
   </g>
   <g>
    <circle stroke="black" stroke-width="0.5" fill="#aaffff" cx="349.0" cy="197.0" r="1.0"/>
    <text stroke="none" x="349.0" y="197.0" font-size="20.0" font-family="helvetica"/>
   </g>
   <g>
    <circle stroke="black" stroke-width="0.5" fill="#aaffff" cx="351.0" cy="149.0" r="1.0"/>
    <text stroke="none" x="351.0" y="149.0" font-size="20.0" font-family="helvetica"/>
   </g>
   <g>
    <circle stroke="black" stroke-width="0.5" fill="#aaffff" cx="366.0" cy="325.0" r="1.0"/>
    <text stroke="none" x="366.0" y="325.0" font-size="10.0" font-family="helvetica">NT1.9</text>
   </g>
   <g>
    <circle stroke="black" stroke-width="0.5" fill="#aaffff" cx="371.0" cy="102.0" r="1.0"/>
    <text stroke="none" x="371.0" y="102.0" font-size="20.0" font-family="helvetica"/>
   </g>
   <g>
    <circle stroke="black" stroke-width="0.5" fill="#aaffff" cx="371.0" cy="681.0" r="1.0"/>
    <text stroke="none" x="371.0" y="681.0" font-size="10.0" font-family="helvetica">NT1.11</text>
   </g>
   <g>
    <circle stroke="black" stroke-width="0.5" fill="#aaffff" cx="381.0" cy="378.0" r="1.0"/>
    <text stroke="none" x="381.0" y="378.0" font-size="10.0" font-family="helvetica">NT1.12</text>
   </g>
   <g>
    <circle stroke="black" stroke-width="0.5" fill="#aaffff" cx="394.0" cy="421.0" r="1.0"/>
    <text stroke="none" x="394.0" y="421.0" font-size="10.0" font-family="helvetica">NT1.13</text>
   </g>
   <g>
    <circle stroke="black" stroke-width="0.5" fill="#aaffff" cx="421.0" cy="600.0" r="1.0"/>
    <text stroke="none" x="421.0" y="600.0" font-size="10.0" font-family="helvetica">NT1.14</text>
   </g>
   <g>
    <circle stroke="black" stroke-width="0.5" fill="#aaffff" cx="429.0" cy="758.0" r="1.0"/>
    <text stroke="none" x="429.0" y="758.0" font-size="10.0" font-family="helvetica">NT1.15</text>
   </g>
   <g>
    <circle stroke="black" stroke-width="0.5" fill="#aaffff" cx="444.0" cy="858.0" r="1.0"/>
    <text stroke="none" x="444.0" y="858.0" font-size="10.0" font-family="helvetica">NT1.16</text>
   </g>
   <g>
    <circle stroke="black" stroke-width="0.5" fill="#aaffff" cx="449.0" cy="267.0" r="1.0"/>
    <text stroke="none" x="449.0" y="267.0" font-size="10.0" font-family="helvetica">NT1.17</text>
   </g>
   <g>
    <circle stroke="black" stroke-width="0.5" fill="#aaffff" cx="449.0" cy="753.0" r="1.0"/>
    <text stroke="none" x="449.0" y="753.0" font-size="10.0" font-family="helvetica">NT1.18</text>
   </g>
   <g>
    <circle stroke="black" stroke-width="0.5" fill="#aaffff" cx="454.0" cy="456.0" r="1.0"/>
    <text stroke="none" x="454.0" y="456.0" font-size="10.0" font-family="helvetica">NT1.19</text>
   </g>
   <g>
    <circle stroke="black" stroke-width="0.5" fill="#aaffff" cx="474.0" cy="966.0" r="1.0"/>
    <text stroke="none" x="474.0" y="966.0" font-size="10.0" font-family="helvetica">NT1.20</text>
   </g>
   <g>
    <circle stroke="black" stroke-width="0.5" fill="#aaffff" cx="474.0" cy="786.0" r="1.0"/>
    <text stroke="none" x="474.0" y="786.0" font-size="10.0" font-family="helvetica">NT1.21</text>
   </g>
   <g>
    <circle stroke="black" stroke-width="0.5" fill="#aaffff" cx="479.0" cy="1053.0" r="1.0"/>
    <text stroke="none" x="479.0" y="1053.0" font-size="10.0" font-family="helvetica">NT1.22</text>
   </g>
   <g>
    <circle stroke="black" stroke-width="0.5" fill="#aaffff" cx="489.0" cy="882.0" r="1.0"/>
    <text stroke="none" x="489.0" y="882.0" font-size="10.0" font-family="helvetica">NT1.23</text>
   </g>
   <g>
    <circle stroke="black" stroke-width="0.5" fill="#aaffff" cx="494.0" cy="1118.0" r="1.0"/>
    <text stroke="none" x="494.0" y="1118.0" font-size="10.0" font-family="helvetica">NT1.24</text>
   </g>
   <g>
    <circle stroke="black" stroke-width="0.5" fill="#aaffff" cx="504.0" cy="990.0" r="1.0"/>
    <text stroke="none" x="504.0" y="990.0" font-size="10.0" font-family="helvetica">NT1.25</text>
   </g>
   <g>
    <circle stroke="black" stroke-width="0.5" fill="#aaffff" cx="519.0" cy="907.0" r="1.0"/>
    <text stroke="none" x="519.0" y="907.0" font-size="20.0" font-family="helvetica">Azospirillum lipoferum ATCC 29707T (M59061)</text>
   </g>
   <g>
    <circle stroke="black" stroke-width="0.5" fill="#aaffff" cx="526.0" cy="954.0" r="1.0"/>
    <text stroke="none" x="526.0" y="954.0" font-size="20.0" font-family="helvetica">Azospirillum oryzae IAM 15130T (AB185396)</text>
   </g>
   <g>
    <circle stroke="black" stroke-width="0.5" fill="#aaffff" cx="536.0" cy="1023.0" r="1.0"/>
    <text stroke="none" x="536.0" y="1023.0" font-size="10.0" font-family="helvetica">NT1.28</text>
   </g>
   <g>
    <circle stroke="black" stroke-width="0.5" fill="#aaffff" cx="537.0" cy="1046.0" r="1.0"/>
    <text stroke="none" x="537.0" y="1046.0" font-size="20.0" font-family="helvetica"/>
   </g>
   <g>
    <circle stroke="black" stroke-width="0.5" fill="#aaffff" cx="538.0" cy="1002.0" r="1.0"/>
    <text stroke="none" x="538.0" y="1002.0" font-size="20.0" font-family="helvetica"/>
   </g>
   <g>
    <circle stroke="black" stroke-width="0.5" fill="#aaffff" cx="539.0" cy="812.0" r="1.0"/>
    <text stroke="none" x="539.0" y="812.0" font-size="20.0" font-family="helvetica"/>
   </g>
   <g>
    <circle stroke="black" stroke-width="0.5" fill="#aaffff" cx="539.0" cy="859.0" r="1.0"/>
    <text stroke="none" x="539.0" y="859.0" font-size="20.0" font-family="helvetica">Azospirillum melinis LMG 23364T (D0022958)</text>
   </g>
   <g>
    <circle stroke="black" stroke-width="0.5" fill="#aaffff" cx="544.0" cy="764.0" r="1.0"/>
    <text stroke="none" x="544.0" y="764.0" font-size="20.0" font-family="helvetica">Azospirillum brasilense ATCC 29145T (X79739)</text>
   </g>
   <g>
    <circle stroke="black" stroke-width="0.5" fill="#aaffff" cx="551.0" cy="292.0" r="1.0"/>
    <text stroke="none" x="551.0" y="292.0" font-size="20.0" font-family="helvetica"/>
   </g>
   <g>
    <circle stroke="black" stroke-width="0.5" fill="#aaffff" cx="559.0" cy="244.0" r="1.0"/>
    <text stroke="none" x="559.0" y="244.0" font-size="20.0" font-family="helvetica"/>
   </g>
   <g>
    <circle stroke="black" stroke-width="0.5" fill="#aaffff" cx="561.0" cy="622.0" r="1.0"/>
    <text stroke="none" x="561.0" y="622.0" font-size="20.0" font-family="helvetica">Azospirillum amazonense DSM 2787T (229616)</text>
   </g>
   <g>
    <circle stroke="black" stroke-width="0.5" fill="#aaffff" cx="561.0" cy="1142.0" r="1.0"/>
    <text stroke="none" x="561.0" y="1142.0" font-size="20.0" font-family="helvetica">Azospirillum doebereinerae DSM 13131T (AJ238567)</text>
   </g>
   <g>
    <circle stroke="black" stroke-width="0.5" fill="#aaffff" cx="561.0" cy="1094.0" r="1.0"/>
    <text stroke="none" x="561.0" y="1094.0" font-size="20.0" font-family="helvetica">Azospirillum [erg/mobile ACM 2041T (X90759)</text>
   </g>
   <g>
    <circle stroke="black" stroke-width="0.5" fill="#aaffff" cx="564.0" cy="717.0" r="1.0"/>
    <text stroke="none" x="564.0" y="717.0" font-size="20.0" font-family="helvetica">Azospirillum canadense D82T (DQ393891)</text>
   </g>
   <g>
    <circle stroke="black" stroke-width="0.5" fill="#aaffff" cx="581.0" cy="574.0" r="1.0"/>
    <text stroke="none" x="581.0" y="574.0" font-size="20.0" font-family="helvetica"/>
   </g>
   <g>
    <circle stroke="black" stroke-width="0.5" fill="#aaffff" cx="586.0" cy="526.0" r="1.0"/>
    <text stroke="none" x="586.0" y="526.0" font-size="20.0" font-family="helvetica">Rhodovibrio salinarum ATCC 35394T (M59069)</text>
   </g>
   <g>
    <circle stroke="black" stroke-width="0.5" fill="#aaffff" cx="604.0" cy="479.0" r="1.0"/>
    <text stroke="none" x="604.0" y="479.0" font-size="20.0" font-family="helvetica"/>
   </g>
   <g>
    <circle stroke="black" stroke-width="0.5" fill="#aaffff" cx="611.0" cy="669.0" r="1.0"/>
    <text stroke="none" x="611.0" y="669.0" font-size="20.0" font-family="helvetica">Azospirillum halopraeferens DSM 3675T (X79731)</text>
   </g>
   <g>
    <circle stroke="black" stroke-width="0.5" fill="#aaffff" cx="648.0" cy="339.0" r="1.0"/>
    <text stroke="none" x="648.0" y="339.0" font-size="20.0" font-family="helvetica"/>
   </g>
   <g>
    <circle stroke="black" stroke-width="0.5" fill="#aaffff" cx="654.0" cy="384.0" r="1.0"/>
    <text stroke="none" x="654.0" y="384.0" font-size="20.0" font-family="helvetica">Azorhizobium caulinodans LMG 6465T (X67221)</text>
   </g>
   <g>
    <circle stroke="black" stroke-width="0.5" fill="#aaffff" cx="671.0" cy="432.0" r="1.0"/>
    <text stroke="none" x="671.0" y="432.0" font-size="20.0" font-family="helvetica"/>
   </g>
   <line stroke="black" x1="351.0" y1="149.0" x2="326.0" y2="171.0" stroke-width="0.5"/>
   <line stroke="black" x1="349.0" y1="197.0" x2="326.0" y2="171.0" stroke-width="0.5"/>
   <line stroke="black" x1="586.0" y1="526.0" x2="341.0" y2="603.0" stroke-width="0.5"/>
   <line stroke="black" x1="561.0" y1="622.0" x2="421.0" y2="600.0" stroke-width="0.5"/>
   <line stroke="black" x1="648.0" y1="339.0" x2="381.0" y2="378.0" stroke-width="0.5"/>
   <line stroke="black" x1="604.0" y1="479.0" x2="454.0" y2="456.0" stroke-width="0.5"/>
   <line stroke="black" x1="539.0" y1="812.0" x2="474.0" y2="786.0" stroke-width="0.5"/>
   <line stroke="black" x1="561.0" y1="1142.0" x2="494.0" y2="1118.0" stroke-width="0.5"/>
   <line stroke="black" x1="537.0" y1="1046.0" x2="536.0" y2="1023.0" stroke-width="0.5"/>
   <line stroke="black" x1="229.0" y1="138.0" x2="188.0" y2="300.0" stroke-width="0.5"/>
   <line stroke="black" x1="229.0" y1="138.0" x2="326.0" y2="171.0" stroke-width="0.5"/>
   <line stroke="black" x1="188.0" y1="300.0" x2="334.0" y2="463.0" stroke-width="0.5"/>
   <line stroke="black" x1="334.0" y1="463.0" x2="341.0" y2="603.0" stroke-width="0.5"/>
   <line stroke="black" x1="334.0" y1="463.0" x2="366.0" y2="325.0" stroke-width="0.5"/>
   <line stroke="black" x1="341.0" y1="603.0" x2="371.0" y2="681.0" stroke-width="0.5"/>
   <line stroke="black" x1="366.0" y1="325.0" x2="381.0" y2="378.0" stroke-width="0.5"/>
   <line stroke="black" x1="366.0" y1="325.0" x2="449.0" y2="267.0" stroke-width="0.5"/>
   <line stroke="black" x1="381.0" y1="378.0" x2="394.0" y2="421.0" stroke-width="0.5"/>
   <line stroke="black" x1="371.0" y1="681.0" x2="429.0" y2="758.0" stroke-width="0.5"/>
   <line stroke="black" x1="371.0" y1="681.0" x2="421.0" y2="600.0" stroke-width="0.5"/>
   <line stroke="black" x1="394.0" y1="421.0" x2="454.0" y2="456.0" stroke-width="0.5"/>
   <line stroke="black" x1="429.0" y1="758.0" x2="444.0" y2="858.0" stroke-width="0.5"/>
   <line stroke="black" x1="429.0" y1="758.0" x2="429.0" y2="758.0" stroke-width="0.5"/>
   <line stroke="black" x1="444.0" y1="858.0" x2="474.0" y2="966.0" stroke-width="0.5"/>
   <line stroke="black" x1="444.0" y1="858.0" x2="449.0" y2="753.0" stroke-width="0.5"/>
   <line stroke="black" x1="449.0" y1="753.0" x2="474.0" y2="786.0" stroke-width="0.5"/>
   <line stroke="black" x1="474.0" y1="966.0" x2="479.0" y2="1053.0" stroke-width="0.5"/>
   <line stroke="black" x1="474.0" y1="966.0" x2="489.0" y2="882.0" stroke-width="0.5"/>
   <line stroke="black" x1="479.0" y1="1053.0" x2="494.0" y2="1118.0" stroke-width="0.5"/>
   <line stroke="black" x1="479.0" y1="1053.0" x2="504.0" y2="990.0" stroke-width="0.5"/>
   <line stroke="black" x1="504.0" y1="990.0" x2="536.0" y2="1023.0" stroke-width="0.5"/>
   <line stroke="black" x1="536.0" y1="1023.0" x2="538.0" y2="1002.0" stroke-width="0.5"/>
   <line stroke="black" x1="21.0" y1="1189.0" x2="188.0" y2="300.0" stroke-width="0.5"/>
   <line stroke="black" x1="371.0" y1="102.0" x2="229.0" y2="138.0" stroke-width="0.5"/>
   <line stroke="black" x1="581.0" y1="574.0" x2="421.0" y2="600.0" stroke-width="0.5"/>
   <line stroke="black" x1="654.0" y1="384.0" x2="394.0" y2="421.0" stroke-width="0.5"/>
   <line stroke="black" x1="551.0" y1="292.0" x2="449.0" y2="267.0" stroke-width="0.5"/>
   <line stroke="black" x1="559.0" y1="244.0" x2="449.0" y2="267.0" stroke-width="0.5"/>
   <line stroke="black" x1="564.0" y1="717.0" x2="449.0" y2="753.0" stroke-width="0.5"/>
   <line stroke="black" x1="611.0" y1="669.0" x2="429.0" y2="758.0" stroke-width="0.5"/>
   <line stroke="black" x1="544.0" y1="764.0" x2="474.0" y2="786.0" stroke-width="0.5"/>
   <line stroke="black" x1="519.0" y1="907.0" x2="489.0" y2="882.0" stroke-width="0.5"/>
   <line stroke="black" x1="539.0" y1="859.0" x2="489.0" y2="882.0" stroke-width="0.5"/>
   <line stroke="black" x1="526.0" y1="954.0" x2="504.0" y2="990.0" stroke-width="0.5"/>
   <line stroke="black" x1="561.0" y1="1094.0" x2="494.0" y2="1118.0" stroke-width="0.5"/>
   <line stroke="black" x1="671.0" y1="432.0" x2="454.0" y2="456.0" stroke-width="0.5"/>
  </g>
 </g>
</svg>
