<?xml version="1.0" encoding="UTF-8"?>
<svg xmlns="http://www.w3.org/2000/svg">
 <g>
  <g>
   <g>
    <circle stroke="black" stroke-width="0.5" fill="#aaffff" cx="22.0" cy="482.0" r="1.0"/>
    <text stroke="none" x="22.0" y="482.0" font-size="10.0" font-family="helvetica">NT1.1</text>
   </g>
   <g>
    <circle stroke="black" stroke-width="0.5" fill="#aaffff" cx="51.0" cy="623.0" r="1.0"/>
    <text stroke="none" x="51.0" y="623.0" font-size="10.0" font-family="helvetica">NT1.2</text>
   </g>
   <g>
    <circle stroke="black" stroke-width="0.5" fill="#aaffff" cx="87.0" cy="340.0" r="1.0"/>
    <text stroke="none" x="87.0" y="340.0" font-size="10.0" font-family="helvetica">NT1.3</text>
   </g>
   <g>
    <circle stroke="black" stroke-width="0.5" fill="#aaffff" cx="96.0" cy="445.0" r="1.0"/>
    <text stroke="none" x="96.0" y="445.0" font-size="10.0" font-family="helvetica">NT1.4</text>
   </g>
   <g>
    <circle stroke="black" stroke-width="0.5" fill="#aaffff" cx="112.0" cy="192.0" r="1.0"/>
    <text stroke="none" x="112.0" y="192.0" font-size="10.0" font-family="helvetica">NT1.5</text>
   </g>
   <g>
    <circle stroke="black" stroke-width="0.5" fill="#aaffff" cx="130.0" cy="591.0" r="1.0"/>
    <text stroke="none" x="130.0" y="591.0" font-size="10.0" font-family="helvetica">NT1.6</text>
   </g>
   <g>
    <circle stroke="black" stroke-width="0.5" fill="#aaffff" cx="135.0" cy="413.0" r="1.0"/>
    <text stroke="none" x="135.0" y="413.0" font-size="10.0" font-family="helvetica">NT1.7</text>
   </g>
   <g>
    <circle stroke="black" stroke-width="0.5" fill="#aaffff" cx="137.0" cy="92.0" r="1.0"/>
    <text stroke="none" x="137.0" y="92.0" font-size="10.0" font-family="helvetica">NT1.8</text>
   </g>
   <g>
    <circle stroke="black" stroke-width="0.5" fill="#aaffff" cx="137.0" cy="234.0" r="1.0"/>
    <text stroke="none" x="137.0" y="234.0" font-size="20.0" font-family="helvetica">808</text>
   </g>
   <g>
    <circle stroke="black" stroke-width="0.5" fill="#aaffff" cx="149.0" cy="204.0" r="1.0"/>
    <text stroke="none" x="149.0" y="204.0" font-size="10.0" font-family="helvetica">NT1.10</text>
   </g>
   <g>
    <circle stroke="black" stroke-width="0.5" fill="#aaffff" cx="150.0" cy="371.0" r="1.0"/>
    <text stroke="none" x="150.0" y="371.0" font-size="10.0" font-family="helvetica">NT1.11</text>
   </g>
   <g>
    <circle stroke="black" stroke-width="0.5" fill="#aaffff" cx="157.0" cy="177.0" r="1.0"/>
    <text stroke="none" x="157.0" y="177.0" font-size="20.0" font-family="helvetica">a”;</text>
   </g>
   <g>
    <circle stroke="black" stroke-width="0.5" fill="#aaffff" cx="168.0" cy="533.0" r="1.0"/>
    <text stroke="none" x="168.0" y="533.0" font-size="10.0" font-family="helvetica">NT1.13</text>
   </g>
   <g>
    <circle stroke="black" stroke-width="0.5" fill="#aaffff" cx="170.0" cy="266.0" r="1.0"/>
    <text stroke="none" x="170.0" y="266.0" font-size="20.0" font-family="helvetica">Pedobacter caeni LMG 22862T (AJ786798)</text>
   </g>
   <g>
    <circle stroke="black" stroke-width="0.5" fill="#aaffff" cx="171.0" cy="52.0" r="1.0"/>
    <text stroke="none" x="171.0" y="52.0" font-size="10.0" font-family="helvetica">NT1.15</text>
   </g>
   <g>
    <circle stroke="black" stroke-width="0.5" fill="#aaffff" cx="185.0" cy="123.0" r="1.0"/>
    <text stroke="none" x="185.0" y="123.0" font-size="20.0" font-family="helvetica">Pedobacter ginsengisoli Gsoil 104T (ABZ45371)</text>
   </g>
   <g>
    <circle stroke="black" stroke-width="0.5" fill="#aaffff" cx="186.0" cy="408.0" r="1.0"/>
    <text stroke="none" x="186.0" y="408.0" font-size="20.0" font-family="helvetica">Pedobacter roseus CL-GPBOT (DQ112353)</text>
   </g>
   <g>
    <circle stroke="black" stroke-width="0.5" fill="#aaffff" cx="188.0" cy="230.0" r="1.0"/>
    <text stroke="none" x="188.0" y="230.0" font-size="20.0" font-family="helvetica">Pedobacter africanus DSM 12126T (AJ438171)</text>
   </g>
   <g>
    <circle stroke="black" stroke-width="0.5" fill="#aaffff" cx="190.0" cy="158.0" r="1.0"/>
    <text stroke="none" x="190.0" y="158.0" font-size="20.0" font-family="helvetica"/>
   </g>
   <g>
    <circle stroke="black" stroke-width="0.5" fill="#aaffff" cx="195.0" cy="194.0" r="1.0"/>
    <text stroke="none" x="195.0" y="194.0" font-size="20.0" font-family="helvetica">Pedobacter heparinus DSM 2366T (AJ438172)</text>
   </g>
   <g>
    <circle stroke="black" stroke-width="0.5" fill="#aaffff" cx="195.0" cy="479.0" r="1.0"/>
    <text stroke="none" x="195.0" y="479.0" font-size="20.0" font-family="helvetica">Pedobacter aquatilis AR 107T (AM114396)</text>
   </g>
   <g>
    <circle stroke="black" stroke-width="0.5" fill="#aaffff" cx="196.0" cy="301.0" r="1.0"/>
    <text stroke="none" x="196.0" y="301.0" font-size="20.0" font-family="helvetica">Pedobacter insulae sp. nov. DS-39T (EF100697)</text>
   </g>
   <g>
    <circle stroke="black" stroke-width="0.5" fill="#aaffff" cx="202.0" cy="336.0" r="1.0"/>
    <text stroke="none" x="202.0" y="336.0" font-size="20.0" font-family="helvetica">‘Pedobacter terrae’ DS-57 (D0889723)</text>
   </g>
   <g>
    <circle stroke="black" stroke-width="0.5" fill="#aaffff" cx="203.0" cy="373.0" r="1.0"/>
    <text stroke="none" x="203.0" y="373.0" font-size="20.0" font-family="helvetica">Pedobacter suwonensis 15-52T (00097274)</text>
   </g>
   <g>
    <circle stroke="black" stroke-width="0.5" fill="#aaffff" cx="207.0" cy="443.0" r="1.0"/>
    <text stroke="none" x="207.0" y="443.0" font-size="20.0" font-family="helvetica">Pedobacter sandarakinus DS-27T (D0235228)</text>
   </g>
   <g>
    <circle stroke="black" stroke-width="0.5" fill="#aaffff" cx="219.0" cy="88.0" r="1.0"/>
    <text stroke="none" x="219.0" y="88.0" font-size="20.0" font-family="helvetica">Pedobacter piscium DSM 1 1725T (AJ438174)</text>
   </g>
   <g>
    <circle stroke="black" stroke-width="0.5" fill="#aaffff" cx="221.0" cy="52.0" r="1.0"/>
    <text stroke="none" x="221.0" y="52.0" font-size="20.0" font-family="helvetica">Pedobacter cryoconitis DSM 14825T (AJ438170)</text>
   </g>
   <g>
    <circle stroke="black" stroke-width="0.5" fill="#aaffff" cx="245.0" cy="16.0" r="1.0"/>
    <text stroke="none" x="245.0" y="16.0" font-size="20.0" font-family="helvetica">Pedobacter himalayensis HHS 22T (AJ583425)</text>
   </g>
   <g>
    <circle stroke="black" stroke-width="0.5" fill="#aaffff" cx="252.0" cy="657.0" r="1.0"/>
    <text stroke="none" x="252.0" y="657.0" font-size="20.0" font-family="helvetica">Pedobacter saltans DSM 12145T (AJ438173)</text>
   </g>
   <g>
    <circle stroke="black" stroke-width="0.5" fill="#aaffff" cx="282.0" cy="550.0" r="1.0"/>
    <text stroke="none" x="282.0" y="550.0" font-size="20.0" font-family="helvetica">Sphingobacterium multivorum IAM 14316T (AB100738)</text>
   </g>
   <g>
    <circle stroke="black" stroke-width="0.5" fill="#aaffff" cx="287.0" cy="514.0" r="1.0"/>
    <text stroke="none" x="287.0" y="514.0" font-size="20.0" font-family="helvetica">Sphingobacterium thalpophilum DSM 11723T (AJ438177)</text>
   </g>
   <g>
    <circle stroke="black" stroke-width="0.5" fill="#aaffff" cx="288.0" cy="622.0" r="1.0"/>
    <text stroke="none" x="288.0" y="622.0" font-size="20.0" font-family="helvetica">Sphingobacterium spiritivorum ATCC 33861T (M58778)</text>
   </g>
   <g>
    <circle stroke="black" stroke-width="0.5" fill="#aaffff" cx="288.0" cy="586.0" r="1.0"/>
    <text stroke="none" x="288.0" y="586.0" font-size="20.0" font-family="helvetica">Sphingobacterium faecium DSM 11690T (AJ438176)</text>
   </g>
   <g>
    <circle stroke="black" stroke-width="0.5" fill="#aaffff" cx="511.0" cy="707.0" r="1.0"/>
    <text stroke="none" x="511.0" y="707.0" font-size="20.0" font-family="helvetica"/>
   </g>
   <g>
    <circle stroke="black" stroke-width="0.5" fill="#aaffff" cx="4.0" cy="594.0" r="1.0"/>
    <text stroke="none" x="4.0" y="594.0" font-size="10.0" font-family="helvetica">NT1.35</text>
   </g>
   <line stroke="black" x1="219.0" y1="88.0" x2="171.0" y2="52.0" stroke-width="0.5"/>
   <line stroke="black" x1="170.0" y1="266.0" x2="137.0" y2="234.0" stroke-width="0.5"/>
   <line stroke="black" x1="190.0" y1="158.0" x2="157.0" y2="177.0" stroke-width="0.5"/>
   <line stroke="black" x1="195.0" y1="194.0" x2="157.0" y2="177.0" stroke-width="0.5"/>
   <line stroke="black" x1="196.0" y1="301.0" x2="112.0" y2="192.0" stroke-width="0.5"/>
   <line stroke="black" x1="195.0" y1="479.0" x2="96.0" y2="445.0" stroke-width="0.5"/>
   <line stroke="black" x1="207.0" y1="443.0" x2="135.0" y2="413.0" stroke-width="0.5"/>
   <line stroke="black" x1="186.0" y1="408.0" x2="150.0" y2="371.0" stroke-width="0.5"/>
   <line stroke="black" x1="202.0" y1="336.0" x2="150.0" y2="371.0" stroke-width="0.5"/>
   <line stroke="black" x1="203.0" y1="373.0" x2="150.0" y2="371.0" stroke-width="0.5"/>
   <line stroke="black" x1="252.0" y1="657.0" x2="51.0" y2="623.0" stroke-width="0.5"/>
   <line stroke="black" x1="288.0" y1="586.0" x2="168.0" y2="533.0" stroke-width="0.5"/>
   <line stroke="black" x1="287.0" y1="514.0" x2="168.0" y2="533.0" stroke-width="0.5"/>
   <line stroke="black" x1="245.0" y1="16.0" x2="171.0" y2="52.0" stroke-width="0.5"/>
   <line stroke="black" x1="171.0" y1="52.0" x2="137.0" y2="92.0" stroke-width="0.5"/>
   <line stroke="black" x1="137.0" y1="92.0" x2="112.0" y2="192.0" stroke-width="0.5"/>
   <line stroke="black" x1="112.0" y1="192.0" x2="137.0" y2="234.0" stroke-width="0.5"/>
   <line stroke="black" x1="112.0" y1="192.0" x2="87.0" y2="340.0" stroke-width="0.5"/>
   <line stroke="black" x1="137.0" y1="234.0" x2="149.0" y2="204.0" stroke-width="0.5"/>
   <line stroke="black" x1="149.0" y1="204.0" x2="157.0" y2="177.0" stroke-width="0.5"/>
   <line stroke="black" x1="87.0" y1="340.0" x2="22.0" y2="482.0" stroke-width="0.5"/>
   <line stroke="black" x1="87.0" y1="340.0" x2="96.0" y2="445.0" stroke-width="0.5"/>
   <line stroke="black" x1="96.0" y1="445.0" x2="135.0" y2="413.0" stroke-width="0.5"/>
   <line stroke="black" x1="135.0" y1="413.0" x2="150.0" y2="371.0" stroke-width="0.5"/>
   <line stroke="black" x1="22.0" y1="482.0" x2="51.0" y2="623.0" stroke-width="0.5"/>
   <line stroke="black" x1="51.0" y1="623.0" x2="130.0" y2="591.0" stroke-width="0.5"/>
   <line stroke="black" x1="130.0" y1="591.0" x2="168.0" y2="533.0" stroke-width="0.5"/>
   <line stroke="black" x1="4.0" y1="594.0" x2="22.0" y2="482.0" stroke-width="0.5"/>
   <line stroke="black" x1="511.0" y1="707.0" x2="4.0" y2="594.0" stroke-width="0.5"/>
   <line stroke="black" x1="288.0" y1="622.0" x2="130.0" y2="591.0" stroke-width="0.5"/>
   <line stroke="black" x1="188.0" y1="230.0" x2="149.0" y2="204.0" stroke-width="0.5"/>
   <line stroke="black" x1="185.0" y1="123.0" x2="137.0" y2="92.0" stroke-width="0.5"/>
   <line stroke="black" x1="221.0" y1="52.0" x2="171.0" y2="52.0" stroke-width="0.5"/>
   <line stroke="black" x1="282.0" y1="550.0" x2="168.0" y2="533.0" stroke-width="0.5"/>
  </g>
 </g>
</svg>
