<?xml version="1.0" encoding="UTF-8"?>
<svg xmlns="http://www.w3.org/2000/svg">
 <g>
  <g>
   <g>
    <circle stroke="black" stroke-width="0.5" fill="#aaffff" cx="1.0" cy="296.0" r="1.0"/>
    <text stroke="none" x="1.0" y="296.0" font-size="20.0" font-family="helvetica"/>
   </g>
   <g>
    <circle stroke="black" stroke-width="0.5" fill="#aaffff" cx="3.0" cy="296.0" r="1.0"/>
    <text stroke="none" x="3.0" y="296.0" font-size="10.0" font-family="helvetica">NT1.2</text>
   </g>
   <g>
    <circle stroke="black" stroke-width="0.5" fill="#aaffff" cx="5.0" cy="47.0" r="1.0"/>
    <text stroke="none" x="5.0" y="47.0" font-size="10.0" font-family="helvetica">NT1.3</text>
   </g>
   <g>
    <circle stroke="black" stroke-width="0.5" fill="#aaffff" cx="306.0" cy="47.0" r="1.0"/>
    <text stroke="none" x="306.0" y="47.0" font-size="20.0" font-family="helvetica">W succinogenes ATCC 29543T (M88159)</text>
   </g>
   <g>
    <circle stroke="black" stroke-width="0.5" fill="#aaffff" cx="324.0" cy="864.0" r="1.0"/>
    <text stroke="none" x="324.0" y="864.0" font-size="10.0" font-family="helvetica">NT1.5</text>
   </g>
   <g>
    <circle stroke="black" stroke-width="0.5" fill="#aaffff" cx="381.0" cy="1257.0" r="1.0"/>
    <text stroke="none" x="381.0" y="1257.0" font-size="10.0" font-family="helvetica">NT1.6</text>
   </g>
   <g>
    <circle stroke="black" stroke-width="0.5" fill="#aaffff" cx="403.0" cy="12.0" r="1.0"/>
    <text stroke="none" x="403.0" y="12.0" font-size="20.0" font-family="helvetica">H. pylori ATCC 43504T (M88157)</text>
   </g>
   <g>
    <circle stroke="black" stroke-width="0.5" fill="#aaffff" cx="519.0" cy="1204.0" r="1.0"/>
    <text stroke="none" x="519.0" y="1204.0" font-size="10.0" font-family="helvetica">NT1.8</text>
   </g>
   <g>
    <circle stroke="black" stroke-width="0.5" fill="#aaffff" cx="523.0" cy="472.0" r="1.0"/>
    <text stroke="none" x="523.0" y="472.0" font-size="10.0" font-family="helvetica">NT1.9</text>
   </g>
   <g>
    <circle stroke="black" stroke-width="0.5" fill="#aaffff" cx="570.0" cy="757.0" r="1.0"/>
    <text stroke="none" x="570.0" y="757.0" font-size="10.0" font-family="helvetica">NT1.10</text>
   </g>
   <g>
    <circle stroke="black" stroke-width="0.5" fill="#aaffff" cx="611.0" cy="987.0" r="1.0"/>
    <text stroke="none" x="611.0" y="987.0" font-size="20.0" font-family="helvetica">88</text>
   </g>
   <g>
    <circle stroke="black" stroke-width="0.5" fill="#aaffff" cx="622.0" cy="529.0" r="1.0"/>
    <text stroke="none" x="622.0" y="529.0" font-size="20.0" font-family="helvetica">73</text>
   </g>
   <g>
    <circle stroke="black" stroke-width="0.5" fill="#aaffff" cx="647.0" cy="618.0" r="1.0"/>
    <text stroke="none" x="647.0" y="618.0" font-size="10.0" font-family="helvetica">NT1.13</text>
   </g>
   <g>
    <circle stroke="black" stroke-width="0.5" fill="#aaffff" cx="656.0" cy="1031.0" r="1.0"/>
    <text stroke="none" x="656.0" y="1031.0" font-size="20.0" font-family="helvetica">84</text>
   </g>
   <g>
    <circle stroke="black" stroke-width="0.5" fill="#aaffff" cx="683.0" cy="1227.0" r="1.0"/>
    <text stroke="none" x="683.0" y="1227.0" font-size="10.0" font-family="helvetica">NT1.15</text>
   </g>
   <g>
    <circle stroke="black" stroke-width="0.5" fill="#aaffff" cx="688.0" cy="1063.0" r="1.0"/>
    <text stroke="none" x="688.0" y="1063.0" font-size="20.0" font-family="helvetica">77</text>
   </g>
   <g>
    <circle stroke="black" stroke-width="0.5" fill="#aaffff" cx="699.0" cy="693.0" r="1.0"/>
    <text stroke="none" x="699.0" y="693.0" font-size="10.0" font-family="helvetica">NT1.17</text>
   </g>
   <g>
    <circle stroke="black" stroke-width="0.5" fill="#aaffff" cx="702.0" cy="546.0" r="1.0"/>
    <text stroke="none" x="702.0" y="546.0" font-size="20.0" font-family="helvetica">78</text>
   </g>
   <g>
    <circle stroke="black" stroke-width="0.5" fill="#aaffff" cx="706.0" cy="1070.0" r="1.0"/>
    <text stroke="none" x="706.0" y="1070.0" font-size="10.0" font-family="helvetica">NT1.19</text>
   </g>
   <g>
    <circle stroke="black" stroke-width="0.5" fill="#aaffff" cx="712.0" cy="1122.0" r="1.0"/>
    <text stroke="none" x="712.0" y="1122.0" font-size="20.0" font-family="helvetica">100</text>
   </g>
   <g>
    <circle stroke="black" stroke-width="0.5" fill="#aaffff" cx="723.0" cy="592.0" r="1.0"/>
    <text stroke="none" x="723.0" y="592.0" font-size="20.0" font-family="helvetica">90</text>
   </g>
   <g>
    <circle stroke="black" stroke-width="0.5" fill="#aaffff" cx="726.0" cy="1314.0" r="1.0"/>
    <text stroke="none" x="726.0" y="1314.0" font-size="10.0" font-family="helvetica">NT1.22</text>
   </g>
   <g>
    <circle stroke="black" stroke-width="0.5" fill="#aaffff" cx="730.0" cy="740.0" r="1.0"/>
    <text stroke="none" x="730.0" y="740.0" font-size="10.0" font-family="helvetica">NT1.23</text>
   </g>
   <g>
    <circle stroke="black" stroke-width="0.5" fill="#aaffff" cx="732.0" cy="948.0" r="1.0"/>
    <text stroke="none" x="732.0" y="948.0" font-size="10.0" font-family="helvetica">NT1.24</text>
   </g>
   <g>
    <circle stroke="black" stroke-width="0.5" fill="#aaffff" cx="733.0" cy="1105.0" r="1.0"/>
    <text stroke="none" x="733.0" y="1105.0" font-size="20.0" font-family="helvetica">C. jejuni subsp.jejuni NCTC 11351T (AF372091)</text>
   </g>
   <g>
    <circle stroke="black" stroke-width="0.5" fill="#aaffff" cx="738.0" cy="1140.0" r="1.0"/>
    <text stroke="none" x="738.0" y="1140.0" font-size="20.0" font-family="helvetica">C. jejunisubsp. doylei LMG 8843T (DQ174144)</text>
   </g>
   <g>
    <circle stroke="black" stroke-width="0.5" fill="#aaffff" cx="740.0" cy="999.0" r="1.0"/>
    <text stroke="none" x="740.0" y="999.0" font-size="20.0" font-family="helvetica">C. coli LMG 6440T (AF372092)</text>
   </g>
   <g>
    <circle stroke="black" stroke-width="0.5" fill="#aaffff" cx="750.0" cy="1070.0" r="1.0"/>
    <text stroke="none" x="750.0" y="1070.0" font-size="20.0" font-family="helvetica">C. insulaenigrae NCTC 12927T (AJ620504)</text>
   </g>
   <g>
    <circle stroke="black" stroke-width="0.5" fill="#aaffff" cx="764.0" cy="1247.0" r="1.0"/>
    <text stroke="none" x="764.0" y="1247.0" font-size="20.0" font-family="helvetica">SulfurospiIillum halorespirans PCE-M2T (AF218076)</text>
   </g>
   <g>
    <circle stroke="black" stroke-width="0.5" fill="#aaffff" cx="768.0" cy="1034.0" r="1.0"/>
    <text stroke="none" x="768.0" y="1034.0" font-size="20.0" font-family="helvetica">C, Iari NCTC 11352T (DQ174145)</text>
   </g>
   <g>
    <circle stroke="black" stroke-width="0.5" fill="#aaffff" cx="773.0" cy="784.0" r="1.0"/>
    <text stroke="none" x="773.0" y="784.0" font-size="10.0" font-family="helvetica">NT1.31</text>
   </g>
   <g>
    <circle stroke="black" stroke-width="0.5" fill="#aaffff" cx="785.0" cy="575.0" r="1.0"/>
    <text stroke="none" x="785.0" y="575.0" font-size="20.0" font-family="helvetica">C. hyointestinalis subsp. Iawsonii CCUG 34538T (DQ195237)</text>
   </g>
   <g>
    <circle stroke="black" stroke-width="0.5" fill="#aaffff" cx="791.0" cy="1211.0" r="1.0"/>
    <text stroke="none" x="791.0" y="1211.0" font-size="20.0" font-family="helvetica">Sulfurospilillum deleyianum Spirillum 5175T (Y13671)</text>
   </g>
   <g>
    <circle stroke="black" stroke-width="0.5" fill="#aaffff" cx="792.0" cy="964.0" r="1.0"/>
    <text stroke="none" x="792.0" y="964.0" font-size="20.0" font-family="helvetica">C. helveticus NCTC 12470T (DQ174161)</text>
   </g>
   <g>
    <circle stroke="black" stroke-width="0.5" fill="#aaffff" cx="792.0" cy="498.0" r="1.0"/>
    <text stroke="none" x="792.0" y="498.0" font-size="10.0" font-family="helvetica">NT1.35</text>
   </g>
   <g>
    <circle stroke="black" stroke-width="0.5" fill="#aaffff" cx="801.0" cy="611.0" r="1.0"/>
    <text stroke="none" x="801.0" y="611.0" font-size="20.0" font-family="helvetica">C. lanienae NCTC 13004T (DQ174181)</text>
   </g>
   <g>
    <circle stroke="black" stroke-width="0.5" fill="#aaffff" cx="808.0" cy="1347.0" r="1.0"/>
    <text stroke="none" x="808.0" y="1347.0" font-size="10.0" font-family="helvetica">NT1.37</text>
   </g>
   <g>
    <circle stroke="black" stroke-width="0.5" fill="#aaffff" cx="808.0" cy="817.0" r="1.0"/>
    <text stroke="none" x="808.0" y="817.0" font-size="10.0" font-family="helvetica">NT1.38</text>
   </g>
   <g>
    <circle stroke="black" stroke-width="0.5" fill="#aaffff" cx="822.0" cy="928.0" r="1.0"/>
    <text stroke="none" x="822.0" y="928.0" font-size="20.0" font-family="helvetica">C. upsaliensis CCUG 14913T (DQ174157)</text>
   </g>
   <g>
    <circle stroke="black" stroke-width="0.5" fill="#aaffff" cx="835.0" cy="701.0" r="1.0"/>
    <text stroke="none" x="835.0" y="701.0" font-size="10.0" font-family="helvetica">NT1.40</text>
   </g>
   <g>
    <circle stroke="black" stroke-width="0.5" fill="#aaffff" cx="838.0" cy="848.0" r="1.0"/>
    <text stroke="none" x="838.0" y="848.0" font-size="10.0" font-family="helvetica">NT1.41</text>
   </g>
   <g>
    <circle stroke="black" stroke-width="0.5" fill="#aaffff" cx="854.0" cy="1378.0" r="1.0"/>
    <text stroke="none" x="854.0" y="1378.0" font-size="20.0" font-family="helvetica">99</text>
   </g>
   <g>
    <circle stroke="black" stroke-width="0.5" fill="#aaffff" cx="856.0" cy="1175.0" r="1.0"/>
    <text stroke="none" x="856.0" y="1175.0" font-size="20.0" font-family="helvetica">‘Sulfurospirillum carboxydovorans‘ MV (AY740528)</text>
   </g>
   <g>
    <circle stroke="black" stroke-width="0.5" fill="#aaffff" cx="856.0" cy="541.0" r="1.0"/>
    <text stroke="none" x="856.0" y="541.0" font-size="20.0" font-family="helvetica">C. fetus subsp. venerealis NCTC 10354T (DQ174131)</text>
   </g>
   <g>
    <circle stroke="black" stroke-width="0.5" fill="#aaffff" cx="856.0" cy="522.0" r="1.0"/>
    <text stroke="none" x="856.0" y="522.0" font-size="20.0" font-family="helvetica">100</text>
   </g>
   <g>
    <circle stroke="black" stroke-width="0.5" fill="#aaffff" cx="863.0" cy="505.0" r="1.0"/>
    <text stroke="none" x="863.0" y="505.0" font-size="20.0" font-family="helvetica">C. fetus subsp. fetus ATCC 27374T (DQ174127)</text>
   </g>
   <g>
    <circle stroke="black" stroke-width="0.5" fill="#aaffff" cx="864.0" cy="470.0" r="1.0"/>
    <text stroke="none" x="864.0" y="470.0" font-size="20.0" font-family="helvetica">C. hyointestinalis subsp. hyointestinalis LMG 7817T (DQ174177)</text>
   </g>
   <g>
    <circle stroke="black" stroke-width="0.5" fill="#aaffff" cx="867.0" cy="1404.0" r="1.0"/>
    <text stroke="none" x="867.0" y="1404.0" font-size="20.0" font-family="helvetica">99</text>
   </g>
   <g>
    <circle stroke="black" stroke-width="0.5" fill="#aaffff" cx="867.0" cy="292.0" r="1.0"/>
    <text stroke="none" x="867.0" y="292.0" font-size="10.0" font-family="helvetica">NT1.49</text>
   </g>
   <g>
    <circle stroke="black" stroke-width="0.5" fill="#aaffff" cx="870.0" cy="81.0" r="1.0"/>
    <text stroke="none" x="870.0" y="81.0" font-size="20.0" font-family="helvetica">C. canadensis L279 (EF621900)</text>
   </g>
   <g>
    <circle stroke="black" stroke-width="0.5" fill="#aaffff" cx="877.0" cy="188.0" r="1.0"/>
    <text stroke="none" x="877.0" y="188.0" font-size="20.0" font-family="helvetica">C. canadensis L267 (EF621896)</text>
   </g>
   <g>
    <circle stroke="black" stroke-width="0.5" fill="#aaffff" cx="883.0" cy="646.0" r="1.0"/>
    <text stroke="none" x="883.0" y="646.0" font-size="20.0" font-family="helvetica">C. mucosalis ATCC 43264T (DQ174173)</text>
   </g>
   <g>
    <circle stroke="black" stroke-width="0.5" fill="#aaffff" cx="896.0" cy="1423.0" r="1.0"/>
    <text stroke="none" x="896.0" y="1423.0" font-size="20.0" font-family="helvetica">A. cryaerophilus CCUG 17801T (L14624)</text>
   </g>
   <g>
    <circle stroke="black" stroke-width="0.5" fill="#aaffff" cx="898.0" cy="400.0" r="1.0"/>
    <text stroke="none" x="898.0" y="400.0" font-size="20.0" font-family="helvetica">C. canadensis L277 (EF621903)</text>
   </g>
   <g>
    <circle stroke="black" stroke-width="0.5" fill="#aaffff" cx="907.0" cy="875.0" r="1.0"/>
    <text stroke="none" x="907.0" y="875.0" font-size="10.0" font-family="helvetica">NT1.55</text>
   </g>
   <g>
    <circle stroke="black" stroke-width="0.5" fill="#aaffff" cx="908.0" cy="1317.0" r="1.0"/>
    <text stroke="none" x="908.0" y="1317.0" font-size="20.0" font-family="helvetica">A. butzleri CCUG 10373 (L14626)</text>
   </g>
   <g>
    <circle stroke="black" stroke-width="0.5" fill="#aaffff" cx="917.0" cy="1353.0" r="1.0"/>
    <text stroke="none" x="917.0" y="1353.0" font-size="20.0" font-family="helvetica">A. skirrowii CCUG 10374T (L14625)</text>
   </g>
   <g>
    <circle stroke="black" stroke-width="0.5" fill="#aaffff" cx="922.0" cy="1387.0" r="1.0"/>
    <text stroke="none" x="922.0" y="1387.0" font-size="20.0" font-family="helvetica">A. cibarius LMG 21996T (AJ607391)</text>
   </g>
   <g>
    <circle stroke="black" stroke-width="0.5" fill="#aaffff" cx="934.0" cy="717.0" r="1.0"/>
    <text stroke="none" x="934.0" y="717.0" font-size="20.0" font-family="helvetica">C. concisus ATCC 33237T (DQ174166)</text>
   </g>
   <g>
    <circle stroke="black" stroke-width="0.5" fill="#aaffff" cx="970.0" cy="435.0" r="1.0"/>
    <text stroke="none" x="970.0" y="435.0" font-size="20.0" font-family="helvetica">Bactemides ureolytious ATCC 33387T (M88159)</text>
   </g>
   <g>
    <circle stroke="black" stroke-width="0.5" fill="#aaffff" cx="972.0" cy="894.0" r="1.0"/>
    <text stroke="none" x="972.0" y="894.0" font-size="20.0" font-family="helvetica">C. rectus CCUG 20446BT (DQ174169)</text>
   </g>
   <g>
    <circle stroke="black" stroke-width="0.5" fill="#aaffff" cx="975.0" cy="682.0" r="1.0"/>
    <text stroke="none" x="975.0" y="682.0" font-size="20.0" font-family="helvetica">C. cun/us ATCC 35224T (DQ174165)</text>
   </g>
   <g>
    <circle stroke="black" stroke-width="0.5" fill="#aaffff" cx="994.0" cy="1282.0" r="1.0"/>
    <text stroke="none" x="994.0" y="1282.0" font-size="20.0" font-family="helvetica">A. nitrofigilis CCUG 15893T (L14627)</text>
   </g>
   <g>
    <circle stroke="black" stroke-width="0.5" fill="#aaffff" cx="1004.0" cy="858.0" r="1.0"/>
    <text stroke="none" x="1004.0" y="858.0" font-size="20.0" font-family="helvetica">C. showae CCUG 30254T (DQ174155)</text>
   </g>
   <g>
    <circle stroke="black" stroke-width="0.5" fill="#aaffff" cx="1022.0" cy="752.0" r="1.0"/>
    <text stroke="none" x="1022.0" y="752.0" font-size="20.0" font-family="helvetica">C. sputorurn bv. Sputorum LMG 7795NT (DQ174149)</text>
   </g>
   <g>
    <circle stroke="black" stroke-width="0.5" fill="#aaffff" cx="1041.0" cy="823.0" r="1.0"/>
    <text stroke="none" x="1041.0" y="823.0" font-size="20.0" font-family="helvetica">C. gracilis ATCC 33236T (DQ174168)</text>
   </g>
   <g>
    <circle stroke="black" stroke-width="0.5" fill="#aaffff" cx="1096.0" cy="787.0" r="1.0"/>
    <text stroke="none" x="1096.0" y="787.0" font-size="20.0" font-family="helvetica">C. hominis NCTC 13146T (AJ251584)</text>
   </g>
   <line stroke="black" x1="3.0" y1="296.0" x2="1.0" y2="296.0" stroke-width="0.5"/>
   <line stroke="black" x1="306.0" y1="47.0" x2="5.0" y2="47.0" stroke-width="0.5"/>
   <line stroke="black" x1="908.0" y1="1317.0" x2="808.0" y2="1347.0" stroke-width="0.5"/>
   <line stroke="black" x1="994.0" y1="1282.0" x2="726.0" y2="1314.0" stroke-width="0.5"/>
   <line stroke="black" x1="877.0" y1="188.0" x2="867.0" y2="292.0" stroke-width="0.5"/>
   <line stroke="black" x1="870.0" y1="81.0" x2="867.0" y2="292.0" stroke-width="0.5"/>
   <line stroke="black" x1="750.0" y1="1070.0" x2="706.0" y2="1070.0" stroke-width="0.5"/>
   <line stroke="black" x1="792.0" y1="964.0" x2="732.0" y2="948.0" stroke-width="0.5"/>
   <line stroke="black" x1="898.0" y1="400.0" x2="867.0" y2="292.0" stroke-width="0.5"/>
   <line stroke="black" x1="801.0" y1="611.0" x2="723.0" y2="592.0" stroke-width="0.5"/>
   <line stroke="black" x1="856.0" y1="541.0" x2="856.0" y2="522.0" stroke-width="0.5"/>
   <line stroke="black" x1="975.0" y1="682.0" x2="835.0" y2="701.0" stroke-width="0.5"/>
   <line stroke="black" x1="5.0" y1="47.0" x2="3.0" y2="296.0" stroke-width="0.5"/>
   <line stroke="black" x1="3.0" y1="296.0" x2="324.0" y2="864.0" stroke-width="0.5"/>
   <line stroke="black" x1="324.0" y1="864.0" x2="381.0" y2="1257.0" stroke-width="0.5"/>
   <line stroke="black" x1="324.0" y1="864.0" x2="523.0" y2="472.0" stroke-width="0.5"/>
   <line stroke="black" x1="381.0" y1="1257.0" x2="726.0" y2="1314.0" stroke-width="0.5"/>
   <line stroke="black" x1="381.0" y1="1257.0" x2="519.0" y2="1204.0" stroke-width="0.5"/>
   <line stroke="black" x1="523.0" y1="472.0" x2="570.0" y2="757.0" stroke-width="0.5"/>
   <line stroke="black" x1="523.0" y1="472.0" x2="867.0" y2="292.0" stroke-width="0.5"/>
   <line stroke="black" x1="519.0" y1="1204.0" x2="683.0" y2="1227.0" stroke-width="0.5"/>
   <line stroke="black" x1="726.0" y1="1314.0" x2="808.0" y2="1347.0" stroke-width="0.5"/>
   <line stroke="black" x1="570.0" y1="757.0" x2="611.0" y2="987.0" stroke-width="0.5"/>
   <line stroke="black" x1="570.0" y1="757.0" x2="622.0" y2="529.0" stroke-width="0.5"/>
   <line stroke="black" x1="808.0" y1="1347.0" x2="854.0" y2="1378.0" stroke-width="0.5"/>
   <line stroke="black" x1="854.0" y1="1378.0" x2="867.0" y2="1404.0" stroke-width="0.5"/>
   <line stroke="black" x1="611.0" y1="987.0" x2="656.0" y2="1031.0" stroke-width="0.5"/>
   <line stroke="black" x1="611.0" y1="987.0" x2="732.0" y2="948.0" stroke-width="0.5"/>
   <line stroke="black" x1="622.0" y1="529.0" x2="647.0" y2="618.0" stroke-width="0.5"/>
   <line stroke="black" x1="656.0" y1="1031.0" x2="688.0" y2="1063.0" stroke-width="0.5"/>
   <line stroke="black" x1="647.0" y1="618.0" x2="699.0" y2="693.0" stroke-width="0.5"/>
   <line stroke="black" x1="647.0" y1="618.0" x2="702.0" y2="546.0" stroke-width="0.5"/>
   <line stroke="black" x1="688.0" y1="1063.0" x2="706.0" y2="1070.0" stroke-width="0.5"/>
   <line stroke="black" x1="706.0" y1="1070.0" x2="712.0" y2="1122.0" stroke-width="0.5"/>
   <line stroke="black" x1="699.0" y1="693.0" x2="730.0" y2="740.0" stroke-width="0.5"/>
   <line stroke="black" x1="702.0" y1="546.0" x2="723.0" y2="592.0" stroke-width="0.5"/>
   <line stroke="black" x1="702.0" y1="546.0" x2="792.0" y2="498.0" stroke-width="0.5"/>
   <line stroke="black" x1="730.0" y1="740.0" x2="773.0" y2="784.0" stroke-width="0.5"/>
   <line stroke="black" x1="730.0" y1="740.0" x2="835.0" y2="701.0" stroke-width="0.5"/>
   <line stroke="black" x1="792.0" y1="498.0" x2="856.0" y2="522.0" stroke-width="0.5"/>
   <line stroke="black" x1="773.0" y1="784.0" x2="808.0" y2="817.0" stroke-width="0.5"/>
   <line stroke="black" x1="808.0" y1="817.0" x2="838.0" y2="848.0" stroke-width="0.5"/>
   <line stroke="black" x1="838.0" y1="848.0" x2="907.0" y2="875.0" stroke-width="0.5"/>
   <line stroke="black" x1="403.0" y1="12.0" x2="5.0" y2="47.0" stroke-width="0.5"/>
   <line stroke="black" x1="856.0" y1="1175.0" x2="519.0" y2="1204.0" stroke-width="0.5"/>
   <line stroke="black" x1="740.0" y1="999.0" x2="656.0" y2="1031.0" stroke-width="0.5"/>
   <line stroke="black" x1="764.0" y1="1247.0" x2="683.0" y2="1227.0" stroke-width="0.5"/>
   <line stroke="black" x1="768.0" y1="1034.0" x2="688.0" y2="1063.0" stroke-width="0.5"/>
   <line stroke="black" x1="791.0" y1="1211.0" x2="683.0" y2="1227.0" stroke-width="0.5"/>
   <line stroke="black" x1="733.0" y1="1105.0" x2="712.0" y2="1122.0" stroke-width="0.5"/>
   <line stroke="black" x1="738.0" y1="1140.0" x2="712.0" y2="1122.0" stroke-width="0.5"/>
   <line stroke="black" x1="970.0" y1="435.0" x2="622.0" y2="529.0" stroke-width="0.5"/>
   <line stroke="black" x1="785.0" y1="575.0" x2="723.0" y2="592.0" stroke-width="0.5"/>
   <line stroke="black" x1="883.0" y1="646.0" x2="699.0" y2="693.0" stroke-width="0.5"/>
   <line stroke="black" x1="822.0" y1="928.0" x2="732.0" y2="948.0" stroke-width="0.5"/>
   <line stroke="black" x1="864.0" y1="470.0" x2="792.0" y2="498.0" stroke-width="0.5"/>
   <line stroke="black" x1="1022.0" y1="752.0" x2="773.0" y2="784.0" stroke-width="0.5"/>
   <line stroke="black" x1="863.0" y1="505.0" x2="856.0" y2="522.0" stroke-width="0.5"/>
   <line stroke="black" x1="934.0" y1="717.0" x2="835.0" y2="701.0" stroke-width="0.5"/>
   <line stroke="black" x1="917.0" y1="1353.0" x2="854.0" y2="1378.0" stroke-width="0.5"/>
   <line stroke="black" x1="896.0" y1="1423.0" x2="867.0" y2="1404.0" stroke-width="0.5"/>
   <line stroke="black" x1="922.0" y1="1387.0" x2="867.0" y2="1404.0" stroke-width="0.5"/>
   <line stroke="black" x1="1096.0" y1="787.0" x2="808.0" y2="817.0" stroke-width="0.5"/>
   <line stroke="black" x1="1041.0" y1="823.0" x2="838.0" y2="848.0" stroke-width="0.5"/>
   <line stroke="black" x1="972.0" y1="894.0" x2="907.0" y2="875.0" stroke-width="0.5"/>
   <line stroke="black" x1="1004.0" y1="858.0" x2="907.0" y2="875.0" stroke-width="0.5"/>
  </g>
 </g>
</svg>
