<?xml version="1.0" encoding="UTF-8"?>
<svg xmlns="http://www.w3.org/2000/svg">
 <g>
  <g>
   <g>
    <circle stroke="black" stroke-width="0.5" fill="#aaffff" cx="19.0" cy="455.0" r="1.0"/>
    <text stroke="none" x="19.0" y="455.0" font-size="10.0" font-family="helvetica">NT1.1</text>
   </g>
   <g>
    <circle stroke="black" stroke-width="0.5" fill="#aaffff" cx="30.0" cy="363.0" r="1.0"/>
    <text stroke="none" x="30.0" y="363.0" font-size="10.0" font-family="helvetica">NT1.2</text>
   </g>
   <g>
    <circle stroke="black" stroke-width="0.5" fill="#aaffff" cx="54.0" cy="455.0" r="1.0"/>
    <text stroke="none" x="54.0" y="455.0" font-size="20.0" font-family="helvetica"> M. keratanolyticum NBRC 13309T (ABOO4717)</text>
   </g>
   <g>
    <circle stroke="black" stroke-width="0.5" fill="#aaffff" cx="57.0" cy="270.0" r="1.0"/>
    <text stroke="none" x="57.0" y="270.0" font-size="20.0" font-family="helvetica">62</text>
   </g>
   <g>
    <circle stroke="black" stroke-width="0.5" fill="#aaffff" cx="86.0" cy="416.0" r="1.0"/>
    <text stroke="none" x="86.0" y="416.0" font-size="20.0" font-family="helvetica"> Strain FCC-01T (ABZ74908)</text>
   </g>
   <g>
    <circle stroke="black" stroke-width="0.5" fill="#aaffff" cx="92.0" cy="183.0" r="1.0"/>
    <text stroke="none" x="92.0" y="183.0" font-size="10.0" font-family="helvetica">NT1.6</text>
   </g>
   <g>
    <circle stroke="black" stroke-width="0.5" fill="#aaffff" cx="105.0" cy="119.0" r="1.0"/>
    <text stroke="none" x="105.0" y="119.0" font-size="10.0" font-family="helvetica">NT1.7</text>
   </g>
   <g>
    <circle stroke="black" stroke-width="0.5" fill="#aaffff" cx="108.0" cy="246.0" r="1.0"/>
    <text stroke="none" x="108.0" y="246.0" font-size="10.0" font-family="helvetica">NT1.8</text>
   </g>
   <g>
    <circle stroke="black" stroke-width="0.5" fill="#aaffff" cx="111.0" cy="356.0" r="1.0"/>
    <text stroke="none" x="111.0" y="356.0" font-size="20.0" font-family="helvetica">51</text>
   </g>
   <g>
    <circle stroke="black" stroke-width="0.5" fill="#aaffff" cx="118.0" cy="79.0" r="1.0"/>
    <text stroke="none" x="118.0" y="79.0" font-size="10.0" font-family="helvetica">NT1.10</text>
   </g>
   <g>
    <circle stroke="black" stroke-width="0.5" fill="#aaffff" cx="118.0" cy="277.0" r="1.0"/>
    <text stroke="none" x="118.0" y="277.0" font-size="10.0" font-family="helvetica">NT1.11</text>
   </g>
   <g>
    <circle stroke="black" stroke-width="0.5" fill="#aaffff" cx="122.0" cy="336.0" r="1.0"/>
    <text stroke="none" x="122.0" y="336.0" font-size="20.0" font-family="helvetica"> M. aoyamense KV-492T (ABZ34028)</text>
   </g>
   <g>
    <circle stroke="black" stroke-width="0.5" fill="#aaffff" cx="128.0" cy="217.0" r="1.0"/>
    <text stroke="none" x="128.0" y="217.0" font-size="20.0" font-family="helvetica"> M. lacticum NBRC 14135T (AB007415)</text>
   </g>
   <g>
    <circle stroke="black" stroke-width="0.5" fill="#aaffff" cx="131.0" cy="59.0" r="1.0"/>
    <text stroke="none" x="131.0" y="59.0" font-size="20.0" font-family="helvetica">M. pumilum KV—488T (ABZ34027)</text>
   </g>
   <g>
    <circle stroke="black" stroke-width="0.5" fill="#aaffff" cx="131.0" cy="377.0" r="1.0"/>
    <text stroke="none" x="131.0" y="377.0" font-size="20.0" font-family="helvetica"> M. aurum DSM 8600T (Y17229)</text>
   </g>
   <g>
    <circle stroke="black" stroke-width="0.5" fill="#aaffff" cx="131.0" cy="158.0" r="1.0"/>
    <text stroke="none" x="131.0" y="158.0" font-size="10.0" font-family="helvetica">NT1.16</text>
   </g>
   <g>
    <circle stroke="black" stroke-width="0.5" fill="#aaffff" cx="135.0" cy="99.0" r="1.0"/>
    <text stroke="none" x="135.0" y="99.0" font-size="20.0" font-family="helvetica">M. deminutum KV—483T (A8234026)</text>
   </g>
   <g>
    <circle stroke="black" stroke-width="0.5" fill="#aaffff" cx="135.0" cy="296.0" r="1.0"/>
    <text stroke="none" x="135.0" y="296.0" font-size="20.0" font-family="helvetica"> M. sch/eiferi NBRC 15075T (ABOO4723)</text>
   </g>
   <g>
    <circle stroke="black" stroke-width="0.5" fill="#aaffff" cx="147.0" cy="138.0" r="1.0"/>
    <text stroke="none" x="147.0" y="138.0" font-size="20.0" font-family="helvetica"> M. terregens NBRC 12961T (ABOO4721)</text>
   </g>
   <g>
    <circle stroke="black" stroke-width="0.5" fill="#aaffff" cx="157.0" cy="178.0" r="1.0"/>
    <text stroke="none" x="157.0" y="178.0" font-size="20.0" font-family="helvetica"> M. terricola KV-448T (AB234025)</text>
   </g>
   <g>
    <circle stroke="black" stroke-width="0.5" fill="#aaffff" cx="163.0" cy="257.0" r="1.0"/>
    <text stroke="none" x="163.0" y="257.0" font-size="20.0" font-family="helvetica"> M. koreense JS53—2T (AY962574)</text>
   </g>
   <g>
    <circle stroke="black" stroke-width="0.5" fill="#aaffff" cx="352.0" cy="516.0" r="1.0"/>
    <text stroke="none" x="352.0" y="516.0" font-size="20.0" font-family="helvetica"/>
   </g>
   <g>
    <circle stroke="black" stroke-width="0.5" fill="#aaffff" cx="18.0" cy="485.0" r="1.0"/>
    <text stroke="none" x="18.0" y="485.0" font-size="10.0" font-family="helvetica">NT1.23</text>
   </g>
   <line stroke="black" x1="131.0" y1="59.0" x2="118.0" y2="79.0" stroke-width="0.5"/>
   <line stroke="black" x1="135.0" y1="99.0" x2="118.0" y2="79.0" stroke-width="0.5"/>
   <line stroke="black" x1="147.0" y1="138.0" x2="131.0" y2="158.0" stroke-width="0.5"/>
   <line stroke="black" x1="157.0" y1="178.0" x2="131.0" y2="158.0" stroke-width="0.5"/>
   <line stroke="black" x1="128.0" y1="217.0" x2="108.0" y2="246.0" stroke-width="0.5"/>
   <line stroke="black" x1="135.0" y1="296.0" x2="118.0" y2="277.0" stroke-width="0.5"/>
   <line stroke="black" x1="163.0" y1="257.0" x2="118.0" y2="277.0" stroke-width="0.5"/>
   <line stroke="black" x1="122.0" y1="336.0" x2="111.0" y2="356.0" stroke-width="0.5"/>
   <line stroke="black" x1="131.0" y1="377.0" x2="111.0" y2="356.0" stroke-width="0.5"/>
   <line stroke="black" x1="86.0" y1="416.0" x2="30.0" y2="363.0" stroke-width="0.5"/>
   <line stroke="black" x1="54.0" y1="455.0" x2="19.0" y2="455.0" stroke-width="0.5"/>
   <line stroke="black" x1="118.0" y1="79.0" x2="105.0" y2="119.0" stroke-width="0.5"/>
   <line stroke="black" x1="105.0" y1="119.0" x2="92.0" y2="183.0" stroke-width="0.5"/>
   <line stroke="black" x1="105.0" y1="119.0" x2="131.0" y2="158.0" stroke-width="0.5"/>
   <line stroke="black" x1="92.0" y1="183.0" x2="57.0" y2="270.0" stroke-width="0.5"/>
   <line stroke="black" x1="92.0" y1="183.0" x2="108.0" y2="246.0" stroke-width="0.5"/>
   <line stroke="black" x1="108.0" y1="246.0" x2="118.0" y2="277.0" stroke-width="0.5"/>
   <line stroke="black" x1="57.0" y1="270.0" x2="30.0" y2="363.0" stroke-width="0.5"/>
   <line stroke="black" x1="57.0" y1="270.0" x2="111.0" y2="356.0" stroke-width="0.5"/>
   <line stroke="black" x1="30.0" y1="363.0" x2="19.0" y2="455.0" stroke-width="0.5"/>
   <line stroke="black" x1="18.0" y1="485.0" x2="352.0" y2="516.0" stroke-width="0.5"/>
   <line stroke="black" x1="18.0" y1="485.0" x2="19.0" y2="455.0" stroke-width="0.5"/>
  </g>
 </g>
</svg>
