<?xml version="1.0" encoding="UTF-8"?>
<svg xmlns="http://www.w3.org/2000/svg">
 <g>
  <g>
   <g>
    <circle stroke="black" stroke-width="0.5" fill="#aaffff" cx="42.0" cy="822.0" r="1.0"/>
    <text stroke="none" x="42.0" y="822.0" font-size="10.0" font-family="helvetica">NT1.1</text>
   </g>
   <g>
    <circle stroke="black" stroke-width="0.5" fill="#aaffff" cx="45.0" cy="967.0" r="1.0"/>
    <text stroke="none" x="45.0" y="967.0" font-size="10.0" font-family="helvetica">NT1.2</text>
   </g>
   <g>
    <circle stroke="black" stroke-width="0.5" fill="#aaffff" cx="157.0" cy="743.0" r="1.0"/>
    <text stroke="none" x="157.0" y="743.0" font-size="20.0" font-family="helvetica">94</text>
   </g>
   <g>
    <circle stroke="black" stroke-width="0.5" fill="#aaffff" cx="189.0" cy="623.0" r="1.0"/>
    <text stroke="none" x="189.0" y="623.0" font-size="10.0" font-family="helvetica">NT1.4</text>
   </g>
   <g>
    <circle stroke="black" stroke-width="0.5" fill="#aaffff" cx="218.0" cy="479.0" r="1.0"/>
    <text stroke="none" x="218.0" y="479.0" font-size="10.0" font-family="helvetica">NT1.5</text>
   </g>
   <g>
    <circle stroke="black" stroke-width="0.5" fill="#aaffff" cx="263.0" cy="336.0" r="1.0"/>
    <text stroke="none" x="263.0" y="336.0" font-size="20.0" font-family="helvetica">61</text>
   </g>
   <g>
    <circle stroke="black" stroke-width="0.5" fill="#aaffff" cx="265.0" cy="334.0" r="1.0"/>
    <text stroke="none" x="265.0" y="334.0" font-size="20.0" font-family="helvetica">61</text>
   </g>
   <g>
    <circle stroke="black" stroke-width="0.5" fill="#aaffff" cx="268.0" cy="334.0" r="1.0"/>
    <text stroke="none" x="268.0" y="334.0" font-size="20.0" font-family="helvetica"/>
   </g>
   <g>
    <circle stroke="black" stroke-width="0.5" fill="#aaffff" cx="268.0" cy="765.0" r="1.0"/>
    <text stroke="none" x="268.0" y="765.0" font-size="10.0" font-family="helvetica">NT1.9</text>
   </g>
   <g>
    <circle stroke="black" stroke-width="0.5" fill="#aaffff" cx="273.0" cy="764.0" r="1.0"/>
    <text stroke="none" x="273.0" y="764.0" font-size="20.0" font-family="helvetica"/>
   </g>
   <g>
    <circle stroke="black" stroke-width="0.5" fill="#aaffff" cx="282.0" cy="248.0" r="1.0"/>
    <text stroke="none" x="282.0" y="248.0" font-size="10.0" font-family="helvetica">NT1.11</text>
   </g>
   <g>
    <circle stroke="black" stroke-width="0.5" fill="#aaffff" cx="286.0" cy="249.0" r="1.0"/>
    <text stroke="none" x="286.0" y="249.0" font-size="20.0" font-family="helvetica"/>
   </g>
   <g>
    <circle stroke="black" stroke-width="0.5" fill="#aaffff" cx="298.0" cy="620.0" r="1.0"/>
    <text stroke="none" x="298.0" y="620.0" font-size="10.0" font-family="helvetica">NT1.13</text>
   </g>
   <g>
    <circle stroke="black" stroke-width="0.5" fill="#aaffff" cx="301.0" cy="620.0" r="1.0"/>
    <text stroke="none" x="301.0" y="620.0" font-size="20.0" font-family="helvetica"/>
   </g>
   <g>
    <circle stroke="black" stroke-width="0.5" fill="#aaffff" cx="312.0" cy="997.0" r="1.0"/>
    <text stroke="none" x="312.0" y="997.0" font-size="20.0" font-family="helvetica">100</text>
   </g>
   <g>
    <circle stroke="black" stroke-width="0.5" fill="#aaffff" cx="314.0" cy="425.0" r="1.0"/>
    <text stroke="none" x="314.0" y="425.0" font-size="20.0" font-family="helvetica">82</text>
   </g>
   <g>
    <circle stroke="black" stroke-width="0.5" fill="#aaffff" cx="316.0" cy="998.0" r="1.0"/>
    <text stroke="none" x="316.0" y="998.0" font-size="20.0" font-family="helvetica"/>
   </g>
   <g>
    <circle stroke="black" stroke-width="0.5" fill="#aaffff" cx="320.0" cy="193.0" r="1.0"/>
    <text stroke="none" x="320.0" y="193.0" font-size="10.0" font-family="helvetica">NT1.18</text>
   </g>
   <g>
    <circle stroke="black" stroke-width="0.5" fill="#aaffff" cx="321.0" cy="727.0" r="1.0"/>
    <text stroke="none" x="321.0" y="727.0" font-size="10.0" font-family="helvetica">NT1.19</text>
   </g>
   <g>
    <circle stroke="black" stroke-width="0.5" fill="#aaffff" cx="325.0" cy="728.0" r="1.0"/>
    <text stroke="none" x="325.0" y="728.0" font-size="20.0" font-family="helvetica"/>
   </g>
   <g>
    <circle stroke="black" stroke-width="0.5" fill="#aaffff" cx="330.0" cy="649.0" r="1.0"/>
    <text stroke="none" x="330.0" y="649.0" font-size="10.0" font-family="helvetica">NT1.21</text>
   </g>
   <g>
    <circle stroke="black" stroke-width="0.5" fill="#aaffff" cx="333.0" cy="141.0" r="1.0"/>
    <text stroke="none" x="333.0" y="141.0" font-size="20.0" font-family="helvetica">,</text>
   </g>
   <g>
    <circle stroke="black" stroke-width="0.5" fill="#aaffff" cx="335.0" cy="648.0" r="1.0"/>
    <text stroke="none" x="335.0" y="648.0" font-size="20.0" font-family="helvetica"/>
   </g>
   <g>
    <circle stroke="black" stroke-width="0.5" fill="#aaffff" cx="338.0" cy="141.0" r="1.0"/>
    <text stroke="none" x="338.0" y="141.0" font-size="20.0" font-family="helvetica"/>
   </g>
   <g>
    <circle stroke="black" stroke-width="0.5" fill="#aaffff" cx="355.0" cy="803.0" r="1.0"/>
    <text stroke="none" x="355.0" y="803.0" font-size="20.0" font-family="helvetica">100</text>
   </g>
   <g>
    <circle stroke="black" stroke-width="0.5" fill="#aaffff" cx="359.0" cy="804.0" r="1.0"/>
    <text stroke="none" x="359.0" y="804.0" font-size="20.0" font-family="helvetica"/>
   </g>
   <g>
    <circle stroke="black" stroke-width="0.5" fill="#aaffff" cx="362.0" cy="901.0" r="1.0"/>
    <text stroke="none" x="362.0" y="901.0" font-size="20.0" font-family="helvetica">Oerskovia turbata DSM 20577T (X83806)</text>
   </g>
   <g>
    <circle stroke="black" stroke-width="0.5" fill="#aaffff" cx="362.0" cy="470.0" r="1.0"/>
    <text stroke="none" x="362.0" y="470.0" font-size="20.0" font-family="helvetica">84</text>
   </g>
   <g>
    <circle stroke="black" stroke-width="0.5" fill="#aaffff" cx="365.0" cy="185.0" r="1.0"/>
    <text stroke="none" x="365.0" y="185.0" font-size="10.0" font-family="helvetica">NT1.29</text>
   </g>
   <g>
    <circle stroke="black" stroke-width="0.5" fill="#aaffff" cx="367.0" cy="187.0" r="1.0"/>
    <text stroke="none" x="367.0" y="187.0" font-size="10.0" font-family="helvetica">NT1.30</text>
   </g>
   <g>
    <circle stroke="black" stroke-width="0.5" fill="#aaffff" cx="370.0" cy="187.0" r="1.0"/>
    <text stroke="none" x="370.0" y="187.0" font-size="20.0" font-family="helvetica"/>
   </g>
   <g>
    <circle stroke="black" stroke-width="0.5" fill="#aaffff" cx="373.0" cy="302.0" r="1.0"/>
    <text stroke="none" x="373.0" y="302.0" font-size="20.0" font-family="helvetica">97</text>
   </g>
   <g>
    <circle stroke="black" stroke-width="0.5" fill="#aaffff" cx="375.0" cy="304.0" r="1.0"/>
    <text stroke="none" x="375.0" y="304.0" font-size="20.0" font-family="helvetica">97</text>
   </g>
   <g>
    <circle stroke="black" stroke-width="0.5" fill="#aaffff" cx="378.0" cy="304.0" r="1.0"/>
    <text stroke="none" x="378.0" y="304.0" font-size="20.0" font-family="helvetica"/>
   </g>
   <g>
    <circle stroke="black" stroke-width="0.5" fill="#aaffff" cx="394.0" cy="373.0" r="1.0"/>
    <text stroke="none" x="394.0" y="373.0" font-size="10.0" font-family="helvetica">NT1.35</text>
   </g>
   <g>
    <circle stroke="black" stroke-width="0.5" fill="#aaffff" cx="396.0" cy="824.0" r="1.0"/>
    <text stroke="none" x="396.0" y="824.0" font-size="20.0" font-family="helvetica">Terrabacter tumescens DSM 20308T (X83812)</text>
   </g>
   <g>
    <circle stroke="black" stroke-width="0.5" fill="#aaffff" cx="399.0" cy="379.0" r="1.0"/>
    <text stroke="none" x="399.0" y="379.0" font-size="20.0" font-family="helvetica"/>
   </g>
   <g>
    <circle stroke="black" stroke-width="0.5" fill="#aaffff" cx="405.0" cy="784.0" r="1.0"/>
    <text stroke="none" x="405.0" y="784.0" font-size="20.0" font-family="helvetica"/>
   </g>
   <g>
    <circle stroke="black" stroke-width="0.5" fill="#aaffff" cx="405.0" cy="504.0" r="1.0"/>
    <text stroke="none" x="405.0" y="504.0" font-size="20.0" font-family="helvetica">86</text>
   </g>
   <g>
    <circle stroke="black" stroke-width="0.5" fill="#aaffff" cx="410.0" cy="529.0" r="1.0"/>
    <text stroke="none" x="410.0" y="529.0" font-size="20.0" font-family="helvetica">86</text>
   </g>
   <g>
    <circle stroke="black" stroke-width="0.5" fill="#aaffff" cx="412.0" cy="533.0" r="1.0"/>
    <text stroke="none" x="412.0" y="533.0" font-size="20.0" font-family="helvetica">86</text>
   </g>
   <g>
    <circle stroke="black" stroke-width="0.5" fill="#aaffff" cx="414.0" cy="533.0" r="1.0"/>
    <text stroke="none" x="414.0" y="533.0" font-size="20.0" font-family="helvetica"/>
   </g>
   <g>
    <circle stroke="black" stroke-width="0.5" fill="#aaffff" cx="429.0" cy="95.0" r="1.0"/>
    <text stroke="none" x="429.0" y="95.0" font-size="10.0" font-family="helvetica">NT1.43</text>
   </g>
   <g>
    <circle stroke="black" stroke-width="0.5" fill="#aaffff" cx="431.0" cy="93.0" r="1.0"/>
    <text stroke="none" x="431.0" y="93.0" font-size="10.0" font-family="helvetica">NT1.44</text>
   </g>
   <g>
    <circle stroke="black" stroke-width="0.5" fill="#aaffff" cx="433.0" cy="93.0" r="1.0"/>
    <text stroke="none" x="433.0" y="93.0" font-size="20.0" font-family="helvetica"/>
   </g>
   <g>
    <circle stroke="black" stroke-width="0.5" fill="#aaffff" cx="442.0" cy="669.0" r="1.0"/>
    <text stroke="none" x="442.0" y="669.0" font-size="20.0" font-family="helvetica"/>
   </g>
   <g>
    <circle stroke="black" stroke-width="0.5" fill="#aaffff" cx="452.0" cy="630.0" r="1.0"/>
    <text stroke="none" x="452.0" y="630.0" font-size="20.0" font-family="helvetica">Strain 551 (ET-20T (EF493847)</text>
   </g>
   <g>
    <circle stroke="black" stroke-width="0.5" fill="#aaffff" cx="458.0" cy="707.0" r="1.0"/>
    <text stroke="none" x="458.0" y="707.0" font-size="20.0" font-family="helvetica"/>
   </g>
   <g>
    <circle stroke="black" stroke-width="0.5" fill="#aaffff" cx="461.0" cy="436.0" r="1.0"/>
    <text stroke="none" x="461.0" y="436.0" font-size="20.0" font-family="helvetica">Janibacter melon/s DSM 16063T (AY522568)</text>
   </g>
   <g>
    <circle stroke="black" stroke-width="0.5" fill="#aaffff" cx="462.0" cy="359.0" r="1.0"/>
    <text stroke="none" x="462.0" y="359.0" font-size="20.0" font-family="helvetica"/>
   </g>
   <g>
    <circle stroke="black" stroke-width="0.5" fill="#aaffff" cx="470.0" cy="166.0" r="1.0"/>
    <text stroke="none" x="470.0" y="166.0" font-size="20.0" font-family="helvetica">Tetrasphaera duodecadis IAM 14868T (ABO72496)</text>
   </g>
   <g>
    <circle stroke="black" stroke-width="0.5" fill="#aaffff" cx="470.0" cy="746.0" r="1.0"/>
    <text stroke="none" x="470.0" y="746.0" font-size="20.0" font-family="helvetica">Terracoccus Iuteus DSM 44267T (Y11928)</text>
   </g>
   <g>
    <circle stroke="black" stroke-width="0.5" fill="#aaffff" cx="476.0" cy="475.0" r="1.0"/>
    <text stroke="none" x="476.0" y="475.0" font-size="20.0" font-family="helvetica">Janibacter anophelis CCUG 49715T (AY837752)</text>
   </g>
   <g>
    <circle stroke="black" stroke-width="0.5" fill="#aaffff" cx="480.0" cy="61.0" r="1.0"/>
    <text stroke="none" x="480.0" y="61.0" font-size="20.0" font-family="helvetica">97</text>
   </g>
   <g>
    <circle stroke="black" stroke-width="0.5" fill="#aaffff" cx="484.0" cy="514.0" r="1.0"/>
    <text stroke="none" x="484.0" y="514.0" font-size="20.0" font-family="helvetica">Janibacterlimosus DSM 11140T (Y08539)</text>
   </g>
   <g>
    <circle stroke="black" stroke-width="0.5" fill="#aaffff" cx="491.0" cy="553.0" r="1.0"/>
    <text stroke="none" x="491.0" y="553.0" font-size="20.0" font-family="helvetica">Janibacterterrae DSM 13876T (AF176948)</text>
   </g>
   <g>
    <circle stroke="black" stroke-width="0.5" fill="#aaffff" cx="491.0" cy="862.0" r="1.0"/>
    <text stroke="none" x="491.0" y="862.0" font-size="20.0" font-family="helvetica">Kribbia dieselivorans N1 1 3T (DQ372707)</text>
   </g>
   <g>
    <circle stroke="black" stroke-width="0.5" fill="#aaffff" cx="497.0" cy="398.0" r="1.0"/>
    <text stroke="none" x="497.0" y="398.0" font-size="20.0" font-family="helvetica">Knoellia subterranea DSM 12332T (AJ294413)</text>
   </g>
   <g>
    <circle stroke="black" stroke-width="0.5" fill="#aaffff" cx="498.0" cy="591.0" r="1.0"/>
    <text stroke="none" x="498.0" y="591.0" font-size="20.0" font-family="helvetica">Phycicoccus jejuensis KSW2—15T (DQ345443)</text>
   </g>
   <g>
    <circle stroke="black" stroke-width="0.5" fill="#aaffff" cx="503.0" cy="32.0" r="1.0"/>
    <text stroke="none" x="503.0" y="32.0" font-size="10.0" font-family="helvetica">NT1.60</text>
   </g>
   <g>
    <circle stroke="black" stroke-width="0.5" fill="#aaffff" cx="507.0" cy="32.0" r="1.0"/>
    <text stroke="none" x="507.0" y="32.0" font-size="20.0" font-family="helvetica"/>
   </g>
   <g>
    <circle stroke="black" stroke-width="0.5" fill="#aaffff" cx="512.0" cy="206.0" r="1.0"/>
    <text stroke="none" x="512.0" y="206.0" font-size="20.0" font-family="helvetica"/>
   </g>
   <g>
    <circle stroke="black" stroke-width="0.5" fill="#aaffff" cx="512.0" cy="244.0" r="1.0"/>
    <text stroke="none" x="512.0" y="244.0" font-size="20.0" font-family="helvetica"/>
   </g>
   <g>
    <circle stroke="black" stroke-width="0.5" fill="#aaffff" cx="543.0" cy="939.0" r="1.0"/>
    <text stroke="none" x="543.0" y="939.0" font-size="20.0" font-family="helvetica">Promicromonospora citrea DSM 43110T (X83808)</text>
   </g>
   <g>
    <circle stroke="black" stroke-width="0.5" fill="#aaffff" cx="583.0" cy="90.0" r="1.0"/>
    <text stroke="none" x="583.0" y="90.0" font-size="20.0" font-family="helvetica"/>
   </g>
   <g>
    <circle stroke="black" stroke-width="0.5" fill="#aaffff" cx="590.0" cy="1017.0" r="1.0"/>
    <text stroke="none" x="590.0" y="1017.0" font-size="20.0" font-family="helvetica">Microbacterium lacticum DSM 20427T (X77441)</text>
   </g>
   <g>
    <circle stroke="black" stroke-width="0.5" fill="#aaffff" cx="601.0" cy="128.0" r="1.0"/>
    <text stroke="none" x="601.0" y="128.0" font-size="20.0" font-family="helvetica">Tetrasphaera veronensis Ver 1T (Y14595)</text>
   </g>
   <g>
    <circle stroke="black" stroke-width="0.5" fill="#aaffff" cx="610.0" cy="51.0" r="1.0"/>
    <text stroke="none" x="610.0" y="51.0" font-size="20.0" font-family="helvetica">Tetrasphaera vanveenii Ben 70T (DQOOY320)</text>
   </g>
   <g>
    <circle stroke="black" stroke-width="0.5" fill="#aaffff" cx="610.0" cy="321.0" r="1.0"/>
    <text stroke="none" x="610.0" y="321.0" font-size="20.0" font-family="helvetica">Oryzihumus leptocrescens KV—628T (AB193174)</text>
   </g>
   <g>
    <circle stroke="black" stroke-width="0.5" fill="#aaffff" cx="618.0" cy="12.0" r="1.0"/>
    <text stroke="none" x="618.0" y="12.0" font-size="20.0" font-family="helvetica"/>
   </g>
   <g>
    <circle stroke="black" stroke-width="0.5" fill="#aaffff" cx="626.0" cy="282.0" r="1.0"/>
    <text stroke="none" x="626.0" y="282.0" font-size="20.0" font-family="helvetica">Ornithinicoccus hon‘ensis KHI 0125T (Y17869)</text>
   </g>
   <g>
    <circle stroke="black" stroke-width="0.5" fill="#aaffff" cx="626.0" cy="977.0" r="1.0"/>
    <text stroke="none" x="626.0" y="977.0" font-size="20.0" font-family="helvetica">Agrococcus jenensis DSM 9580T (X92492)</text>
   </g>
   <g>
    <circle stroke="black" stroke-width="0.5" fill="#aaffff" cx="4.0" cy="894.0" r="1.0"/>
    <text stroke="none" x="4.0" y="894.0" font-size="10.0" font-family="helvetica">NT1.73</text>
   </g>
   <line stroke="black" x1="507.0" y1="32.0" x2="503.0" y2="32.0" stroke-width="0.5"/>
   <line stroke="black" x1="618.0" y1="12.0" x2="503.0" y2="32.0" stroke-width="0.5"/>
   <line stroke="black" x1="433.0" y1="93.0" x2="431.0" y2="93.0" stroke-width="0.5"/>
   <line stroke="black" x1="610.0" y1="51.0" x2="503.0" y2="32.0" stroke-width="0.5"/>
   <line stroke="black" x1="583.0" y1="90.0" x2="480.0" y2="61.0" stroke-width="0.5"/>
   <line stroke="black" x1="338.0" y1="141.0" x2="333.0" y2="141.0" stroke-width="0.5"/>
   <line stroke="black" x1="601.0" y1="128.0" x2="429.0" y2="95.0" stroke-width="0.5"/>
   <line stroke="black" x1="370.0" y1="187.0" x2="367.0" y2="187.0" stroke-width="0.5"/>
   <line stroke="black" x1="286.0" y1="249.0" x2="282.0" y2="248.0" stroke-width="0.5"/>
   <line stroke="black" x1="470.0" y1="166.0" x2="365.0" y2="185.0" stroke-width="0.5"/>
   <line stroke="black" x1="512.0" y1="206.0" x2="367.0" y2="187.0" stroke-width="0.5"/>
   <line stroke="black" x1="268.0" y1="334.0" x2="265.0" y2="334.0" stroke-width="0.5"/>
   <line stroke="black" x1="378.0" y1="304.0" x2="375.0" y2="304.0" stroke-width="0.5"/>
   <line stroke="black" x1="512.0" y1="244.0" x2="320.0" y2="193.0" stroke-width="0.5"/>
   <line stroke="black" x1="399.0" y1="379.0" x2="394.0" y2="373.0" stroke-width="0.5"/>
   <line stroke="black" x1="610.0" y1="321.0" x2="375.0" y2="304.0" stroke-width="0.5"/>
   <line stroke="black" x1="626.0" y1="282.0" x2="373.0" y2="302.0" stroke-width="0.5"/>
   <line stroke="black" x1="414.0" y1="533.0" x2="412.0" y2="533.0" stroke-width="0.5"/>
   <line stroke="black" x1="462.0" y1="359.0" x2="394.0" y2="373.0" stroke-width="0.5"/>
   <line stroke="black" x1="461.0" y1="436.0" x2="362.0" y2="470.0" stroke-width="0.5"/>
   <line stroke="black" x1="497.0" y1="398.0" x2="394.0" y2="373.0" stroke-width="0.5"/>
   <line stroke="black" x1="476.0" y1="475.0" x2="405.0" y2="504.0" stroke-width="0.5"/>
   <line stroke="black" x1="301.0" y1="620.0" x2="298.0" y2="620.0" stroke-width="0.5"/>
   <line stroke="black" x1="491.0" y1="553.0" x2="412.0" y2="533.0" stroke-width="0.5"/>
   <line stroke="black" x1="335.0" y1="648.0" x2="330.0" y2="649.0" stroke-width="0.5"/>
   <line stroke="black" x1="273.0" y1="764.0" x2="268.0" y2="765.0" stroke-width="0.5"/>
   <line stroke="black" x1="442.0" y1="669.0" x2="330.0" y2="649.0" stroke-width="0.5"/>
   <line stroke="black" x1="452.0" y1="630.0" x2="330.0" y2="649.0" stroke-width="0.5"/>
   <line stroke="black" x1="498.0" y1="591.0" x2="298.0" y2="620.0" stroke-width="0.5"/>
   <line stroke="black" x1="325.0" y1="728.0" x2="321.0" y2="727.0" stroke-width="0.5"/>
   <line stroke="black" x1="359.0" y1="804.0" x2="355.0" y2="803.0" stroke-width="0.5"/>
   <line stroke="black" x1="396.0" y1="824.0" x2="355.0" y2="803.0" stroke-width="0.5"/>
   <line stroke="black" x1="405.0" y1="784.0" x2="355.0" y2="803.0" stroke-width="0.5"/>
   <line stroke="black" x1="458.0" y1="707.0" x2="321.0" y2="727.0" stroke-width="0.5"/>
   <line stroke="black" x1="470.0" y1="746.0" x2="321.0" y2="727.0" stroke-width="0.5"/>
   <line stroke="black" x1="491.0" y1="862.0" x2="157.0" y2="743.0" stroke-width="0.5"/>
   <line stroke="black" x1="362.0" y1="901.0" x2="42.0" y2="822.0" stroke-width="0.5"/>
   <line stroke="black" x1="316.0" y1="998.0" x2="312.0" y2="997.0" stroke-width="0.5"/>
   <line stroke="black" x1="543.0" y1="939.0" x2="45.0" y2="967.0" stroke-width="0.5"/>
   <line stroke="black" x1="590.0" y1="1017.0" x2="312.0" y2="997.0" stroke-width="0.5"/>
   <line stroke="black" x1="626.0" y1="977.0" x2="312.0" y2="997.0" stroke-width="0.5"/>
   <line stroke="black" x1="503.0" y1="32.0" x2="480.0" y2="61.0" stroke-width="0.5"/>
   <line stroke="black" x1="480.0" y1="61.0" x2="431.0" y2="93.0" stroke-width="0.5"/>
   <line stroke="black" x1="429.0" y1="95.0" x2="431.0" y2="93.0" stroke-width="0.5"/>
   <line stroke="black" x1="429.0" y1="95.0" x2="333.0" y2="141.0" stroke-width="0.5"/>
   <line stroke="black" x1="333.0" y1="141.0" x2="320.0" y2="193.0" stroke-width="0.5"/>
   <line stroke="black" x1="333.0" y1="141.0" x2="365.0" y2="185.0" stroke-width="0.5"/>
   <line stroke="black" x1="320.0" y1="193.0" x2="282.0" y2="248.0" stroke-width="0.5"/>
   <line stroke="black" x1="367.0" y1="187.0" x2="365.0" y2="185.0" stroke-width="0.5"/>
   <line stroke="black" x1="282.0" y1="248.0" x2="265.0" y2="334.0" stroke-width="0.5"/>
   <line stroke="black" x1="282.0" y1="248.0" x2="373.0" y2="302.0" stroke-width="0.5"/>
   <line stroke="black" x1="263.0" y1="336.0" x2="265.0" y2="334.0" stroke-width="0.5"/>
   <line stroke="black" x1="263.0" y1="336.0" x2="218.0" y2="479.0" stroke-width="0.5"/>
   <line stroke="black" x1="263.0" y1="336.0" x2="314.0" y2="425.0" stroke-width="0.5"/>
   <line stroke="black" x1="218.0" y1="479.0" x2="298.0" y2="620.0" stroke-width="0.5"/>
   <line stroke="black" x1="375.0" y1="304.0" x2="373.0" y2="302.0" stroke-width="0.5"/>
   <line stroke="black" x1="314.0" y1="425.0" x2="362.0" y2="470.0" stroke-width="0.5"/>
   <line stroke="black" x1="314.0" y1="425.0" x2="394.0" y2="373.0" stroke-width="0.5"/>
   <line stroke="black" x1="362.0" y1="470.0" x2="405.0" y2="504.0" stroke-width="0.5"/>
   <line stroke="black" x1="405.0" y1="504.0" x2="410.0" y2="529.0" stroke-width="0.5"/>
   <line stroke="black" x1="410.0" y1="529.0" x2="412.0" y2="533.0" stroke-width="0.5"/>
   <line stroke="black" x1="189.0" y1="623.0" x2="157.0" y2="743.0" stroke-width="0.5"/>
   <line stroke="black" x1="189.0" y1="623.0" x2="268.0" y2="765.0" stroke-width="0.5"/>
   <line stroke="black" x1="298.0" y1="620.0" x2="330.0" y2="649.0" stroke-width="0.5"/>
   <line stroke="black" x1="157.0" y1="743.0" x2="42.0" y2="822.0" stroke-width="0.5"/>
   <line stroke="black" x1="268.0" y1="765.0" x2="355.0" y2="803.0" stroke-width="0.5"/>
   <line stroke="black" x1="268.0" y1="765.0" x2="321.0" y2="727.0" stroke-width="0.5"/>
   <line stroke="black" x1="45.0" y1="967.0" x2="312.0" y2="997.0" stroke-width="0.5"/>
   <line stroke="black" x1="4.0" y1="894.0" x2="42.0" y2="822.0" stroke-width="0.5"/>
   <line stroke="black" x1="4.0" y1="894.0" x2="45.0" y2="967.0" stroke-width="0.5"/>
   <line stroke="black" x1="218.0" y1="479.0" x2="189.0" y2="623.0" stroke-width="0.5"/>
   <line stroke="black" x1="484.0" y1="514.0" x2="410.0" y2="529.0" stroke-width="0.5"/>
  </g>
 </g>
</svg>
