<?xml version="1.0" encoding="UTF-8"?>
<svg xmlns="http://www.w3.org/2000/svg">
 <g>
  <g>
   <g>
    <circle stroke="black" stroke-width="0.5" fill="#aaffff" cx="162.0" cy="588.0" r="1.0"/>
    <text stroke="none" x="162.0" y="588.0" font-size="10.0" font-family="helvetica">NT1.1</text>
   </g>
   <g>
    <circle stroke="black" stroke-width="0.5" fill="#aaffff" cx="205.0" cy="471.0" r="1.0"/>
    <text stroke="none" x="205.0" y="471.0" font-size="20.0" font-family="helvetica">80</text>
   </g>
   <g>
    <circle stroke="black" stroke-width="0.5" fill="#aaffff" cx="228.0" cy="704.0" r="1.0"/>
    <text stroke="none" x="228.0" y="704.0" font-size="20.0" font-family="helvetica">96</text>
   </g>
   <g>
    <circle stroke="black" stroke-width="0.5" fill="#aaffff" cx="286.0" cy="609.0" r="1.0"/>
    <text stroke="none" x="286.0" y="609.0" font-size="20.0" font-family="helvetica">99</text>
   </g>
   <g>
    <circle stroke="black" stroke-width="0.5" fill="#aaffff" cx="311.0" cy="729.0" r="1.0"/>
    <text stroke="none" x="311.0" y="729.0" font-size="10.0" font-family="helvetica">NT1.5</text>
   </g>
   <g>
    <circle stroke="black" stroke-width="0.5" fill="#aaffff" cx="329.0" cy="634.0" r="1.0"/>
    <text stroke="none" x="329.0" y="634.0" font-size="10.0" font-family="helvetica">NT1.6</text>
   </g>
   <g>
    <circle stroke="black" stroke-width="0.5" fill="#aaffff" cx="337.0" cy="777.0" r="1.0"/>
    <text stroke="none" x="337.0" y="777.0" font-size="20.0" font-family="helvetica">Havolzaclerimn uquan'le ATCC 1947" (M62797)</text>
   </g>
   <g>
    <circle stroke="black" stroke-width="0.5" fill="#aaffff" cx="459.0" cy="332.0" r="1.0"/>
    <text stroke="none" x="459.0" y="332.0" font-size="20.0" font-family="helvetica">100</text>
   </g>
   <g>
    <circle stroke="black" stroke-width="0.5" fill="#aaffff" cx="512.0" cy="449.0" r="1.0"/>
    <text stroke="none" x="512.0" y="449.0" font-size="20.0" font-family="helvetica">'00</text>
   </g>
   <g>
    <circle stroke="black" stroke-width="0.5" fill="#aaffff" cx="526.0" cy="413.0" r="1.0"/>
    <text stroke="none" x="526.0" y="413.0" font-size="10.0" font-family="helvetica">NT1.10</text>
   </g>
   <g>
    <circle stroke="black" stroke-width="0.5" fill="#aaffff" cx="531.0" cy="212.0" r="1.0"/>
    <text stroke="none" x="531.0" y="212.0" font-size="10.0" font-family="helvetica">NT1.11</text>
   </g>
   <g>
    <circle stroke="black" stroke-width="0.5" fill="#aaffff" cx="535.0" cy="487.0" r="1.0"/>
    <text stroke="none" x="535.0" y="487.0" font-size="10.0" font-family="helvetica">NT1.12</text>
   </g>
   <g>
    <circle stroke="black" stroke-width="0.5" fill="#aaffff" cx="544.0" cy="127.0" r="1.0"/>
    <text stroke="none" x="544.0" y="127.0" font-size="10.0" font-family="helvetica">NT1.13</text>
   </g>
   <g>
    <circle stroke="black" stroke-width="0.5" fill="#aaffff" cx="564.0" cy="514.0" r="1.0"/>
    <text stroke="none" x="564.0" y="514.0" font-size="20.0" font-family="helvetica">86</text>
   </g>
   <g>
    <circle stroke="black" stroke-width="0.5" fill="#aaffff" cx="565.0" cy="618.0" r="1.0"/>
    <text stroke="none" x="565.0" y="618.0" font-size="20.0" font-family="helvetica">[Ial[.s'comenobacler hyd/‘ossis ATCC 277751 (M58790)</text>
   </g>
   <g>
    <circle stroke="black" stroke-width="0.5" fill="#aaffff" cx="581.0" cy="170.0" r="1.0"/>
    <text stroke="none" x="581.0" y="170.0" font-size="10.0" font-family="helvetica">NT1.16</text>
   </g>
   <g>
    <circle stroke="black" stroke-width="0.5" fill="#aaffff" cx="586.0" cy="297.0" r="1.0"/>
    <text stroke="none" x="586.0" y="297.0" font-size="20.0" font-family="helvetica">'00</text>
   </g>
   <g>
    <circle stroke="black" stroke-width="0.5" fill="#aaffff" cx="595.0" cy="538.0" r="1.0"/>
    <text stroke="none" x="595.0" y="538.0" font-size="10.0" font-family="helvetica">NT1.18</text>
   </g>
   <g>
    <circle stroke="black" stroke-width="0.5" fill="#aaffff" cx="596.0" cy="681.0" r="1.0"/>
    <text stroke="none" x="596.0" y="681.0" font-size="20.0" font-family="helvetica">Flexibuc'fer raseulus IFO 16707T (AB078063)</text>
   </g>
   <g>
    <circle stroke="black" stroke-width="0.5" fill="#aaffff" cx="604.0" cy="324.0" r="1.0"/>
    <text stroke="none" x="604.0" y="324.0" font-size="10.0" font-family="helvetica">NT1.20</text>
   </g>
   <g>
    <circle stroke="black" stroke-width="0.5" fill="#aaffff" cx="609.0" cy="84.0" r="1.0"/>
    <text stroke="none" x="609.0" y="84.0" font-size="20.0" font-family="helvetica">100</text>
   </g>
   <g>
    <circle stroke="black" stroke-width="0.5" fill="#aaffff" cx="620.0" cy="196.0" r="1.0"/>
    <text stroke="none" x="620.0" y="196.0" font-size="10.0" font-family="helvetica">NT1.22</text>
   </g>
   <g>
    <circle stroke="black" stroke-width="0.5" fill="#aaffff" cx="621.0" cy="429.0" r="1.0"/>
    <text stroke="none" x="621.0" y="429.0" font-size="20.0" font-family="helvetica"/>
   </g>
   <g>
    <circle stroke="black" stroke-width="0.5" fill="#aaffff" cx="626.0" cy="61.0" r="1.0"/>
    <text stroke="none" x="626.0" y="61.0" font-size="10.0" font-family="helvetica">NT1.24</text>
   </g>
   <g>
    <circle stroke="black" stroke-width="0.5" fill="#aaffff" cx="633.0" cy="348.0" r="1.0"/>
    <text stroke="none" x="633.0" y="348.0" font-size="20.0" font-family="helvetica">82</text>
   </g>
   <g>
    <circle stroke="black" stroke-width="0.5" fill="#aaffff" cx="637.0" cy="745.0" r="1.0"/>
    <text stroke="none" x="637.0" y="745.0" font-size="20.0" font-family="helvetica"/>
   </g>
   <g>
    <circle stroke="black" stroke-width="0.5" fill="#aaffff" cx="639.0" cy="586.0" r="1.0"/>
    <text stroke="none" x="639.0" y="586.0" font-size="20.0" font-family="helvetica">Sapmxpira grandix ATC C 231 |9T (\458795)</text>
   </g>
   <g>
    <circle stroke="black" stroke-width="0.5" fill="#aaffff" cx="640.0" cy="491.0" r="1.0"/>
    <text stroke="none" x="640.0" y="491.0" font-size="20.0" font-family="helvetica">(‘hilinophagu mncli IFO 15057T (ABO78066)</text>
   </g>
   <g>
    <circle stroke="black" stroke-width="0.5" fill="#aaffff" cx="642.0" cy="396.0" r="1.0"/>
    <text stroke="none" x="642.0" y="396.0" font-size="20.0" font-family="helvetica">Chifilwphaga w‘verlxicalu 1AM l2650T (D12657)</text>
   </g>
   <g>
    <circle stroke="black" stroke-width="0.5" fill="#aaffff" cx="642.0" cy="555.0" r="1.0"/>
    <text stroke="none" x="642.0" y="555.0" font-size="20.0" font-family="helvetica"/>
   </g>
   <g>
    <circle stroke="black" stroke-width="0.5" fill="#aaffff" cx="651.0" cy="459.0" r="1.0"/>
    <text stroke="none" x="651.0" y="459.0" font-size="20.0" font-family="helvetica"/>
   </g>
   <g>
    <circle stroke="black" stroke-width="0.5" fill="#aaffff" cx="663.0" cy="32.0" r="1.0"/>
    <text stroke="none" x="663.0" y="32.0" font-size="20.0" font-family="helvetica">100</text>
   </g>
   <g>
    <circle stroke="black" stroke-width="0.5" fill="#aaffff" cx="664.0" cy="142.0" r="1.0"/>
    <text stroke="none" x="664.0" y="142.0" font-size="20.0" font-family="helvetica">Uncultured bacterial AKIW428 (DQI29288)</text>
   </g>
   <g>
    <circle stroke="black" stroke-width="0.5" fill="#aaffff" cx="666.0" cy="111.0" r="1.0"/>
    <text stroke="none" x="666.0" y="111.0" font-size="20.0" font-family="helvetica">Uncullured bacterial clone AKYGSS‘) (AY92I817)</text>
   </g>
   <g>
    <circle stroke="black" stroke-width="0.5" fill="#aaffff" cx="669.0" cy="17.0" r="1.0"/>
    <text stroke="none" x="669.0" y="17.0" font-size="20.0" font-family="helvetica">Fluvixulibucier ginsengiterme Gsoil 492T (ABZ67476)</text>
   </g>
   <g>
    <circle stroke="black" stroke-width="0.5" fill="#aaffff" cx="671.0" cy="48.0" r="1.0"/>
    <text stroke="none" x="671.0" y="48.0" font-size="20.0" font-family="helvetica">Flavisolilmcter ginsengisoli Gsoil 643T (A3267477)</text>
   </g>
   <g>
    <circle stroke="black" stroke-width="0.5" fill="#aaffff" cx="674.0" cy="221.0" r="1.0"/>
    <text stroke="none" x="674.0" y="221.0" font-size="20.0" font-family="helvetica">100</text>
   </g>
   <g>
    <circle stroke="black" stroke-width="0.5" fill="#aaffff" cx="675.0" cy="365.0" r="1.0"/>
    <text stroke="none" x="675.0" y="365.0" font-size="20.0" font-family="helvetica">Uncultured bacterial clone 38RHF48 (AJ863367)</text>
   </g>
   <g>
    <circle stroke="black" stroke-width="0.5" fill="#aaffff" cx="687.0" cy="269.0" r="1.0"/>
    <text stroke="none" x="687.0" y="269.0" font-size="20.0" font-family="helvetica"/>
   </g>
   <g>
    <circle stroke="black" stroke-width="0.5" fill="#aaffff" cx="688.0" cy="174.0" r="1.0"/>
    <text stroke="none" x="688.0" y="174.0" font-size="20.0" font-family="helvetica">Uncultured bacteria] clone E26 (AM085477)</text>
   </g>
   <g>
    <circle stroke="black" stroke-width="0.5" fill="#aaffff" cx="690.0" cy="80.0" r="1.0"/>
    <text stroke="none" x="690.0" y="80.0" font-size="20.0" font-family="helvetica">Uncultured bacteria] clone AKIW709 (DQI29647)</text>
   </g>
   <g>
    <circle stroke="black" stroke-width="0.5" fill="#aaffff" cx="690.0" cy="301.0" r="1.0"/>
    <text stroke="none" x="690.0" y="301.0" font-size="20.0" font-family="helvetica">Uncultured bacteria] clone CJRA14 (DQ202140)</text>
   </g>
   <g>
    <circle stroke="black" stroke-width="0.5" fill="#aaffff" cx="694.0" cy="238.0" r="1.0"/>
    <text stroke="none" x="694.0" y="238.0" font-size="20.0" font-family="helvetica">.\iuxtellaImmenny CIRZO-IOI (DQ244077)</text>
   </g>
   <g>
    <circle stroke="black" stroke-width="0.5" fill="#aaffff" cx="698.0" cy="206.0" r="1.0"/>
    <text stroke="none" x="698.0" y="206.0" font-size="20.0" font-family="helvetica"/>
   </g>
   <g>
    <circle stroke="black" stroke-width="0.5" fill="#aaffff" cx="698.0" cy="523.0" r="1.0"/>
    <text stroke="none" x="698.0" y="523.0" font-size="20.0" font-family="helvetica"/>
   </g>
   <g>
    <circle stroke="black" stroke-width="0.5" fill="#aaffff" cx="698.0" cy="713.0" r="1.0"/>
    <text stroke="none" x="698.0" y="713.0" font-size="20.0" font-family="helvetica"/>
   </g>
   <g>
    <circle stroke="black" stroke-width="0.5" fill="#aaffff" cx="703.0" cy="333.0" r="1.0"/>
    <text stroke="none" x="703.0" y="333.0" font-size="20.0" font-family="helvetica"/>
   </g>
   <g>
    <circle stroke="black" stroke-width="0.5" fill="#aaffff" cx="710.0" cy="650.0" r="1.0"/>
    <text stroke="none" x="710.0" y="650.0" font-size="20.0" font-family="helvetica"/>
   </g>
   <g>
    <circle stroke="black" stroke-width="0.5" fill="#aaffff" cx="8.0" cy="682.0" r="1.0"/>
    <text stroke="none" x="8.0" y="682.0" font-size="10.0" font-family="helvetica">NT1.49</text>
   </g>
   <line stroke="black" x1="669.0" y1="17.0" x2="663.0" y2="32.0" stroke-width="0.5"/>
   <line stroke="black" x1="671.0" y1="48.0" x2="663.0" y2="32.0" stroke-width="0.5"/>
   <line stroke="black" x1="690.0" y1="80.0" x2="626.0" y2="61.0" stroke-width="0.5"/>
   <line stroke="black" x1="666.0" y1="111.0" x2="609.0" y2="84.0" stroke-width="0.5"/>
   <line stroke="black" x1="664.0" y1="142.0" x2="581.0" y2="170.0" stroke-width="0.5"/>
   <line stroke="black" x1="688.0" y1="174.0" x2="620.0" y2="196.0" stroke-width="0.5"/>
   <line stroke="black" x1="694.0" y1="238.0" x2="674.0" y2="221.0" stroke-width="0.5"/>
   <line stroke="black" x1="698.0" y1="206.0" x2="674.0" y2="221.0" stroke-width="0.5"/>
   <line stroke="black" x1="687.0" y1="269.0" x2="586.0" y2="297.0" stroke-width="0.5"/>
   <line stroke="black" x1="675.0" y1="365.0" x2="633.0" y2="348.0" stroke-width="0.5"/>
   <line stroke="black" x1="690.0" y1="301.0" x2="604.0" y2="324.0" stroke-width="0.5"/>
   <line stroke="black" x1="703.0" y1="333.0" x2="633.0" y2="348.0" stroke-width="0.5"/>
   <line stroke="black" x1="621.0" y1="429.0" x2="526.0" y2="413.0" stroke-width="0.5"/>
   <line stroke="black" x1="642.0" y1="396.0" x2="526.0" y2="413.0" stroke-width="0.5"/>
   <line stroke="black" x1="651.0" y1="459.0" x2="535.0" y2="487.0" stroke-width="0.5"/>
   <line stroke="black" x1="640.0" y1="491.0" x2="564.0" y2="514.0" stroke-width="0.5"/>
   <line stroke="black" x1="642.0" y1="555.0" x2="595.0" y2="538.0" stroke-width="0.5"/>
   <line stroke="black" x1="698.0" y1="523.0" x2="595.0" y2="538.0" stroke-width="0.5"/>
   <line stroke="black" x1="565.0" y1="618.0" x2="329.0" y2="634.0" stroke-width="0.5"/>
   <line stroke="black" x1="639.0" y1="586.0" x2="286.0" y2="609.0" stroke-width="0.5"/>
   <line stroke="black" x1="596.0" y1="681.0" x2="228.0" y2="704.0" stroke-width="0.5"/>
   <line stroke="black" x1="698.0" y1="713.0" x2="311.0" y2="729.0" stroke-width="0.5"/>
   <line stroke="black" x1="663.0" y1="32.0" x2="626.0" y2="61.0" stroke-width="0.5"/>
   <line stroke="black" x1="626.0" y1="61.0" x2="609.0" y2="84.0" stroke-width="0.5"/>
   <line stroke="black" x1="609.0" y1="84.0" x2="544.0" y2="127.0" stroke-width="0.5"/>
   <line stroke="black" x1="544.0" y1="127.0" x2="531.0" y2="212.0" stroke-width="0.5"/>
   <line stroke="black" x1="544.0" y1="127.0" x2="581.0" y2="170.0" stroke-width="0.5"/>
   <line stroke="black" x1="581.0" y1="170.0" x2="620.0" y2="196.0" stroke-width="0.5"/>
   <line stroke="black" x1="531.0" y1="212.0" x2="459.0" y2="332.0" stroke-width="0.5"/>
   <line stroke="black" x1="531.0" y1="212.0" x2="586.0" y2="297.0" stroke-width="0.5"/>
   <line stroke="black" x1="620.0" y1="196.0" x2="674.0" y2="221.0" stroke-width="0.5"/>
   <line stroke="black" x1="586.0" y1="297.0" x2="604.0" y2="324.0" stroke-width="0.5"/>
   <line stroke="black" x1="604.0" y1="324.0" x2="633.0" y2="348.0" stroke-width="0.5"/>
   <line stroke="black" x1="459.0" y1="332.0" x2="205.0" y2="471.0" stroke-width="0.5"/>
   <line stroke="black" x1="459.0" y1="332.0" x2="512.0" y2="449.0" stroke-width="0.5"/>
   <line stroke="black" x1="512.0" y1="449.0" x2="535.0" y2="487.0" stroke-width="0.5"/>
   <line stroke="black" x1="512.0" y1="449.0" x2="526.0" y2="413.0" stroke-width="0.5"/>
   <line stroke="black" x1="535.0" y1="487.0" x2="564.0" y2="514.0" stroke-width="0.5"/>
   <line stroke="black" x1="564.0" y1="514.0" x2="595.0" y2="538.0" stroke-width="0.5"/>
   <line stroke="black" x1="205.0" y1="471.0" x2="162.0" y2="588.0" stroke-width="0.5"/>
   <line stroke="black" x1="205.0" y1="471.0" x2="286.0" y2="609.0" stroke-width="0.5"/>
   <line stroke="black" x1="162.0" y1="588.0" x2="228.0" y2="704.0" stroke-width="0.5"/>
   <line stroke="black" x1="286.0" y1="609.0" x2="329.0" y2="634.0" stroke-width="0.5"/>
   <line stroke="black" x1="228.0" y1="704.0" x2="311.0" y2="729.0" stroke-width="0.5"/>
   <line stroke="black" x1="8.0" y1="682.0" x2="337.0" y2="777.0" stroke-width="0.5"/>
   <line stroke="black" x1="8.0" y1="682.0" x2="162.0" y2="588.0" stroke-width="0.5"/>
   <line stroke="black" x1="637.0" y1="745.0" x2="311.0" y2="729.0" stroke-width="0.5"/>
   <line stroke="black" x1="710.0" y1="650.0" x2="329.0" y2="634.0" stroke-width="0.5"/>
  </g>
 </g>
</svg>
