<?xml version="1.0" encoding="UTF-8"?>
<svg xmlns="http://www.w3.org/2000/svg">
 <g>
  <g>
   <g>
    <circle stroke="black" stroke-width="0.5" fill="#aaffff" cx="12.0" cy="958.0" r="1.0"/>
    <text stroke="none" x="12.0" y="958.0" font-size="20.0" font-family="helvetica"/>
   </g>
   <g>
    <circle stroke="black" stroke-width="0.5" fill="#aaffff" cx="14.0" cy="958.0" r="1.0"/>
    <text stroke="none" x="14.0" y="958.0" font-size="10.0" font-family="helvetica">NT1.2</text>
   </g>
   <g>
    <circle stroke="black" stroke-width="0.5" fill="#aaffff" cx="25.0" cy="951.0" r="1.0"/>
    <text stroke="none" x="25.0" y="951.0" font-size="10.0" font-family="helvetica">NT1.3</text>
   </g>
   <g>
    <circle stroke="black" stroke-width="0.5" fill="#aaffff" cx="78.0" cy="842.0" r="1.0"/>
    <text stroke="none" x="78.0" y="842.0" font-size="10.0" font-family="helvetica">NT1.4</text>
   </g>
   <g>
    <circle stroke="black" stroke-width="0.5" fill="#aaffff" cx="113.0" cy="768.0" r="1.0"/>
    <text stroke="none" x="113.0" y="768.0" font-size="10.0" font-family="helvetica">NT1.5</text>
   </g>
   <g>
    <circle stroke="black" stroke-width="0.5" fill="#aaffff" cx="124.0" cy="665.0" r="1.0"/>
    <text stroke="none" x="124.0" y="665.0" font-size="10.0" font-family="helvetica">NT1.6</text>
   </g>
   <g>
    <circle stroke="black" stroke-width="0.5" fill="#aaffff" cx="149.0" cy="519.0" r="1.0"/>
    <text stroke="none" x="149.0" y="519.0" font-size="10.0" font-family="helvetica">NT1.7</text>
   </g>
   <g>
    <circle stroke="black" stroke-width="0.5" fill="#aaffff" cx="160.0" cy="373.0" r="1.0"/>
    <text stroke="none" x="160.0" y="373.0" font-size="10.0" font-family="helvetica">NT1.8</text>
   </g>
   <g>
    <circle stroke="black" stroke-width="0.5" fill="#aaffff" cx="167.0" cy="280.0" r="1.0"/>
    <text stroke="none" x="167.0" y="280.0" font-size="10.0" font-family="helvetica">NT1.9</text>
   </g>
   <g>
    <circle stroke="black" stroke-width="0.5" fill="#aaffff" cx="167.0" cy="662.0" r="1.0"/>
    <text stroke="none" x="167.0" y="662.0" font-size="10.0" font-family="helvetica">NT1.10</text>
   </g>
   <g>
    <circle stroke="black" stroke-width="0.5" fill="#aaffff" cx="174.0" cy="612.0" r="1.0"/>
    <text stroke="none" x="174.0" y="612.0" font-size="10.0" font-family="helvetica">NT1.11</text>
   </g>
   <g>
    <circle stroke="black" stroke-width="0.5" fill="#aaffff" cx="177.0" cy="716.0" r="1.0"/>
    <text stroke="none" x="177.0" y="716.0" font-size="10.0" font-family="helvetica">NT1.12</text>
   </g>
   <g>
    <circle stroke="black" stroke-width="0.5" fill="#aaffff" cx="178.0" cy="594.0" r="1.0"/>
    <text stroke="none" x="178.0" y="594.0" font-size="10.0" font-family="helvetica">NT1.13</text>
   </g>
   <g>
    <circle stroke="black" stroke-width="0.5" fill="#aaffff" cx="181.0" cy="202.0" r="1.0"/>
    <text stroke="none" x="181.0" y="202.0" font-size="10.0" font-family="helvetica">NT1.14</text>
   </g>
   <g>
    <circle stroke="black" stroke-width="0.5" fill="#aaffff" cx="181.0" cy="359.0" r="1.0"/>
    <text stroke="none" x="181.0" y="359.0" font-size="10.0" font-family="helvetica">NT1.15</text>
   </g>
   <g>
    <circle stroke="black" stroke-width="0.5" fill="#aaffff" cx="182.0" cy="562.0" r="1.0"/>
    <text stroke="none" x="182.0" y="562.0" font-size="10.0" font-family="helvetica">NT1.16</text>
   </g>
   <g>
    <circle stroke="black" stroke-width="0.5" fill="#aaffff" cx="186.0" cy="391.0" r="1.0"/>
    <text stroke="none" x="186.0" y="391.0" font-size="10.0" font-family="helvetica">NT1.17</text>
   </g>
   <g>
    <circle stroke="black" stroke-width="0.5" fill="#aaffff" cx="195.0" cy="648.0" r="1.0"/>
    <text stroke="none" x="195.0" y="648.0" font-size="10.0" font-family="helvetica">NT1.18</text>
   </g>
   <g>
    <circle stroke="black" stroke-width="0.5" fill="#aaffff" cx="202.0" cy="518.0" r="1.0"/>
    <text stroke="none" x="202.0" y="518.0" font-size="10.0" font-family="helvetica">NT1.19</text>
   </g>
   <g>
    <circle stroke="black" stroke-width="0.5" fill="#aaffff" cx="209.0" cy="106.0" r="1.0"/>
    <text stroke="none" x="209.0" y="106.0" font-size="10.0" font-family="helvetica">NT1.20</text>
   </g>
   <g>
    <circle stroke="black" stroke-width="0.5" fill="#aaffff" cx="227.0" cy="564.0" r="1.0"/>
    <text stroke="none" x="227.0" y="564.0" font-size="20.0" font-family="helvetica">B. ovatus NCTC 11153T (L16484)</text>
   </g>
   <g>
    <circle stroke="black" stroke-width="0.5" fill="#aaffff" cx="234.0" cy="492.0" r="1.0"/>
    <text stroke="none" x="234.0" y="492.0" font-size="20.0" font-family="helvetica"/>
   </g>
   <g>
    <circle stroke="black" stroke-width="0.5" fill="#aaffff" cx="235.0" cy="42.0" r="1.0"/>
    <text stroke="none" x="235.0" y="42.0" font-size="10.0" font-family="helvetica">NT1.23</text>
   </g>
   <g>
    <circle stroke="black" stroke-width="0.5" fill="#aaffff" cx="238.0" cy="732.0" r="1.0"/>
    <text stroke="none" x="238.0" y="732.0" font-size="20.0" font-family="helvetica"/>
   </g>
   <g>
    <circle stroke="black" stroke-width="0.5" fill="#aaffff" cx="241.0" cy="322.0" r="1.0"/>
    <text stroke="none" x="241.0" y="322.0" font-size="20.0" font-family="helvetica">B. uniform/s ATCC 8492T (L16486)</text>
   </g>
   <g>
    <circle stroke="black" stroke-width="0.5" fill="#aaffff" cx="241.0" cy="461.0" r="1.0"/>
    <text stroke="none" x="241.0" y="461.0" font-size="20.0" font-family="helvetica">B. intestinelis JCM 13265T (ABZ14328)</text>
   </g>
   <g>
    <circle stroke="black" stroke-width="0.5" fill="#aaffff" cx="241.0" cy="529.0" r="1.0"/>
    <text stroke="none" x="241.0" y="529.0" font-size="20.0" font-family="helvetica">B. finegoldii JCM 13345T (A3222699)</text>
   </g>
   <g>
    <circle stroke="black" stroke-width="0.5" fill="#aaffff" cx="242.0" cy="171.0" r="1.0"/>
    <text stroke="none" x="242.0" y="171.0" font-size="10.0" font-family="helvetica">NT1.28</text>
   </g>
   <g>
    <circle stroke="black" stroke-width="0.5" fill="#aaffff" cx="245.0" cy="667.0" r="1.0"/>
    <text stroke="none" x="245.0" y="667.0" font-size="20.0" font-family="helvetica">B. acidifaciens A40T (A8021 164)</text>
   </g>
   <g>
    <circle stroke="black" stroke-width="0.5" fill="#aaffff" cx="248.0" cy="425.0" r="1.0"/>
    <text stroke="none" x="248.0" y="425.0" font-size="20.0" font-family="helvetica">B. eggerthii NCTC 11155T (L16485)</text>
   </g>
   <g>
    <circle stroke="black" stroke-width="0.5" fill="#aaffff" cx="248.0" cy="702.0" r="1.0"/>
    <text stroke="none" x="248.0" y="702.0" font-size="20.0" font-family="helvetica">B. salyersiae WAL 10018T (AY608696)</text>
   </g>
   <g>
    <circle stroke="black" stroke-width="0.5" fill="#aaffff" cx="248.0" cy="631.0" r="1.0"/>
    <text stroke="none" x="248.0" y="631.0" font-size="20.0" font-family="helvetica">B. caccae ATCC 43185T (X83951)</text>
   </g>
   <g>
    <circle stroke="black" stroke-width="0.5" fill="#aaffff" cx="249.0" cy="922.0" r="1.0"/>
    <text stroke="none" x="249.0" y="922.0" font-size="10.0" font-family="helvetica">NT1.33</text>
   </g>
   <g>
    <circle stroke="black" stroke-width="0.5" fill="#aaffff" cx="259.0" cy="145.0" r="1.0"/>
    <text stroke="none" x="259.0" y="145.0" font-size="10.0" font-family="helvetica">NT1.34</text>
   </g>
   <g>
    <circle stroke="black" stroke-width="0.5" fill="#aaffff" cx="267.0" cy="210.0" r="1.0"/>
    <text stroke="none" x="267.0" y="210.0" font-size="10.0" font-family="helvetica">NT1.35</text>
   </g>
   <g>
    <circle stroke="black" stroke-width="0.5" fill="#aaffff" cx="270.0" cy="356.0" r="1.0"/>
    <text stroke="none" x="270.0" y="356.0" font-size="20.0" font-family="helvetica">B. stercoris ATCC 43183T (X83953)</text>
   </g>
   <g>
    <circle stroke="black" stroke-width="0.5" fill="#aaffff" cx="270.0" cy="820.0" r="1.0"/>
    <text stroke="none" x="270.0" y="820.0" font-size="10.0" font-family="helvetica">NT1.37</text>
   </g>
   <g>
    <circle stroke="black" stroke-width="0.5" fill="#aaffff" cx="277.0" cy="393.0" r="1.0"/>
    <text stroke="none" x="277.0" y="393.0" font-size="20.0" font-family="helvetica">B. gallinarurn JCM 13658T (A8253732)</text>
   </g>
   <g>
    <circle stroke="black" stroke-width="0.5" fill="#aaffff" cx="277.0" cy="596.0" r="1.0"/>
    <text stroke="none" x="277.0" y="596.0" font-size="20.0" font-family="helvetica">B. frag/(is ATCC 25285T (M11656)</text>
   </g>
   <g>
    <circle stroke="black" stroke-width="0.5" fill="#aaffff" cx="277.0" cy="244.0" r="1.0"/>
    <text stroke="none" x="277.0" y="244.0" font-size="10.0" font-family="helvetica">NT1.40</text>
   </g>
   <g>
    <circle stroke="black" stroke-width="0.5" fill="#aaffff" cx="284.0" cy="786.0" r="1.0"/>
    <text stroke="none" x="284.0" y="786.0" font-size="20.0" font-family="helvetica">99</text>
   </g>
   <g>
    <circle stroke="black" stroke-width="0.5" fill="#aaffff" cx="291.0" cy="766.0" r="1.0"/>
    <text stroke="none" x="291.0" y="766.0" font-size="20.0" font-family="helvetica"/>
   </g>
   <g>
    <circle stroke="black" stroke-width="0.5" fill="#aaffff" cx="294.0" cy="838.0" r="1.0"/>
    <text stroke="none" x="294.0" y="838.0" font-size="20.0" font-family="helvetica">B. tectus JCM 10003T (AB200228)</text>
   </g>
   <g>
    <circle stroke="black" stroke-width="0.5" fill="#aaffff" cx="294.0" cy="803.0" r="1.0"/>
    <text stroke="none" x="294.0" y="803.0" font-size="20.0" font-family="helvetica">‘B. dent/canum‘ B78 (AY549431)</text>
   </g>
   <g>
    <circle stroke="black" stroke-width="0.5" fill="#aaffff" cx="298.0" cy="1041.0" r="1.0"/>
    <text stroke="none" x="298.0" y="1041.0" font-size="20.0" font-family="helvetica">Prevotella melaninogenica ATCC 25845T (AY323525)</text>
   </g>
   <g>
    <circle stroke="black" stroke-width="0.5" fill="#aaffff" cx="299.0" cy="64.0" r="1.0"/>
    <text stroke="none" x="299.0" y="64.0" font-size="10.0" font-family="helvetica">NT1.46</text>
   </g>
   <g>
    <circle stroke="black" stroke-width="0.5" fill="#aaffff" cx="316.0" cy="941.0" r="1.0"/>
    <text stroke="none" x="316.0" y="941.0" font-size="20.0" font-family="helvetica">Parabacteroides merdae ATCC 43184T (X83954)</text>
   </g>
   <g>
    <circle stroke="black" stroke-width="0.5" fill="#aaffff" cx="319.0" cy="290.0" r="1.0"/>
    <text stroke="none" x="319.0" y="290.0" font-size="20.0" font-family="helvetica">B. helcogenes JCM 6297T (A8200227)</text>
   </g>
   <g>
    <circle stroke="black" stroke-width="0.5" fill="#aaffff" cx="320.0" cy="869.0" r="1.0"/>
    <text stroke="none" x="320.0" y="869.0" font-size="20.0" font-family="helvetica">B. coprosuis P0139T (AF319778)</text>
   </g>
   <g>
    <circle stroke="black" stroke-width="0.5" fill="#aaffff" cx="330.0" cy="119.0" r="1.0"/>
    <text stroke="none" x="330.0" y="119.0" font-size="20.0" font-family="helvetica">B. coprocola M16T (A5200224)</text>
   </g>
   <g>
    <circle stroke="black" stroke-width="0.5" fill="#aaffff" cx="337.0" cy="48.0" r="1.0"/>
    <text stroke="none" x="337.0" y="48.0" font-size="20.0" font-family="helvetica">B. vulgatus ATCC 8482T (M58762)</text>
   </g>
   <g>
    <circle stroke="black" stroke-width="0.5" fill="#aaffff" cx="344.0" cy="16.0" r="1.0"/>
    <text stroke="none" x="344.0" y="16.0" font-size="20.0" font-family="helvetica">B. massiliensis BB4634T (AY126616)</text>
   </g>
   <g>
    <circle stroke="black" stroke-width="0.5" fill="#aaffff" cx="355.0" cy="84.0" r="1.0"/>
    <text stroke="none" x="355.0" y="84.0" font-size="20.0" font-family="helvetica">B. darelJCM 13471T (ABZ42142)</text>
   </g>
   <g>
    <circle stroke="black" stroke-width="0.5" fill="#aaffff" cx="355.0" cy="155.0" r="1.0"/>
    <text stroke="none" x="355.0" y="155.0" font-size="20.0" font-family="helvetica">B. plebeius M12T (ABZOOZ17)</text>
   </g>
   <g>
    <circle stroke="black" stroke-width="0.5" fill="#aaffff" cx="362.0" cy="905.0" r="1.0"/>
    <text stroke="none" x="362.0" y="905.0" font-size="20.0" font-family="helvetica">Parabacteroides distasonis ATCC 8503T (M86695)</text>
   </g>
   <g>
    <circle stroke="black" stroke-width="0.5" fill="#aaffff" cx="376.0" cy="222.0" r="1.0"/>
    <text stroke="none" x="376.0" y="222.0" font-size="20.0" font-family="helvetica">B. coprophilus CB42T (AB260026)</text>
   </g>
   <g>
    <circle stroke="black" stroke-width="0.5" fill="#aaffff" cx="380.0" cy="254.0" r="1.0"/>
    <text stroke="none" x="380.0" y="254.0" font-size="20.0" font-family="helvetica">B. barnesiae JCM 13562T (A8253726)</text>
   </g>
   <g>
    <circle stroke="black" stroke-width="0.5" fill="#aaffff" cx="476.0" cy="186.0" r="1.0"/>
    <text stroke="none" x="476.0" y="186.0" font-size="20.0" font-family="helvetica">B. salanitronis JCM 13657T (ABZ53731)</text>
   </g>
   <g>
    <circle stroke="black" stroke-width="0.5" fill="#aaffff" cx="477.0" cy="989.0" r="1.0"/>
    <text stroke="none" x="477.0" y="989.0" font-size="10.0" font-family="helvetica">NT1.59</text>
   </g>
   <g>
    <circle stroke="black" stroke-width="0.5" fill="#aaffff" cx="679.0" cy="1010.0" r="1.0"/>
    <text stroke="none" x="679.0" y="1010.0" font-size="20.0" font-family="helvetica">B. capillosus ATCC 29799T (AY136666)</text>
   </g>
   <g>
    <circle stroke="black" stroke-width="0.5" fill="#aaffff" cx="771.0" cy="973.0" r="1.0"/>
    <text stroke="none" x="771.0" y="973.0" font-size="20.0" font-family="helvetica">B. celluloselvans ATCC 35503T (L35517)</text>
   </g>
   <line stroke="black" x1="355.0" y1="155.0" x2="259.0" y2="145.0" stroke-width="0.5"/>
   <line stroke="black" x1="319.0" y1="290.0" x2="181.0" y2="202.0" stroke-width="0.5"/>
   <line stroke="black" x1="476.0" y1="186.0" x2="267.0" y2="210.0" stroke-width="0.5"/>
   <line stroke="black" x1="270.0" y1="356.0" x2="186.0" y2="391.0" stroke-width="0.5"/>
   <line stroke="black" x1="241.0" y1="461.0" x2="160.0" y2="373.0" stroke-width="0.5"/>
   <line stroke="black" x1="238.0" y1="732.0" x2="177.0" y2="716.0" stroke-width="0.5"/>
   <line stroke="black" x1="248.0" y1="631.0" x2="195.0" y2="648.0" stroke-width="0.5"/>
   <line stroke="black" x1="241.0" y1="529.0" x2="202.0" y2="518.0" stroke-width="0.5"/>
   <line stroke="black" x1="294.0" y1="803.0" x2="284.0" y2="786.0" stroke-width="0.5"/>
   <line stroke="black" x1="14.0" y1="958.0" x2="12.0" y2="958.0" stroke-width="0.5"/>
   <line stroke="black" x1="362.0" y1="905.0" x2="249.0" y2="922.0" stroke-width="0.5"/>
   <line stroke="black" x1="679.0" y1="1010.0" x2="477.0" y2="989.0" stroke-width="0.5"/>
   <line stroke="black" x1="235.0" y1="42.0" x2="209.0" y2="106.0" stroke-width="0.5"/>
   <line stroke="black" x1="235.0" y1="42.0" x2="299.0" y2="64.0" stroke-width="0.5"/>
   <line stroke="black" x1="209.0" y1="106.0" x2="181.0" y2="202.0" stroke-width="0.5"/>
   <line stroke="black" x1="209.0" y1="106.0" x2="242.0" y2="171.0" stroke-width="0.5"/>
   <line stroke="black" x1="242.0" y1="171.0" x2="267.0" y2="210.0" stroke-width="0.5"/>
   <line stroke="black" x1="242.0" y1="171.0" x2="259.0" y2="145.0" stroke-width="0.5"/>
   <line stroke="black" x1="181.0" y1="202.0" x2="167.0" y2="280.0" stroke-width="0.5"/>
   <line stroke="black" x1="267.0" y1="210.0" x2="277.0" y2="244.0" stroke-width="0.5"/>
   <line stroke="black" x1="167.0" y1="280.0" x2="160.0" y2="373.0" stroke-width="0.5"/>
   <line stroke="black" x1="167.0" y1="280.0" x2="181.0" y2="359.0" stroke-width="0.5"/>
   <line stroke="black" x1="181.0" y1="359.0" x2="186.0" y2="391.0" stroke-width="0.5"/>
   <line stroke="black" x1="160.0" y1="373.0" x2="149.0" y2="519.0" stroke-width="0.5"/>
   <line stroke="black" x1="149.0" y1="519.0" x2="124.0" y2="665.0" stroke-width="0.5"/>
   <line stroke="black" x1="149.0" y1="519.0" x2="167.0" y2="662.0" stroke-width="0.5"/>
   <line stroke="black" x1="167.0" y1="662.0" x2="177.0" y2="716.0" stroke-width="0.5"/>
   <line stroke="black" x1="167.0" y1="662.0" x2="174.0" y2="612.0" stroke-width="0.5"/>
   <line stroke="black" x1="124.0" y1="665.0" x2="113.0" y2="768.0" stroke-width="0.5"/>
   <line stroke="black" x1="124.0" y1="665.0" x2="270.0" y2="820.0" stroke-width="0.5"/>
   <line stroke="black" x1="174.0" y1="612.0" x2="195.0" y2="648.0" stroke-width="0.5"/>
   <line stroke="black" x1="174.0" y1="612.0" x2="178.0" y2="594.0" stroke-width="0.5"/>
   <line stroke="black" x1="178.0" y1="594.0" x2="182.0" y2="562.0" stroke-width="0.5"/>
   <line stroke="black" x1="182.0" y1="562.0" x2="202.0" y2="518.0" stroke-width="0.5"/>
   <line stroke="black" x1="113.0" y1="768.0" x2="78.0" y2="842.0" stroke-width="0.5"/>
   <line stroke="black" x1="78.0" y1="842.0" x2="25.0" y2="951.0" stroke-width="0.5"/>
   <line stroke="black" x1="78.0" y1="842.0" x2="249.0" y2="922.0" stroke-width="0.5"/>
   <line stroke="black" x1="270.0" y1="820.0" x2="284.0" y2="786.0" stroke-width="0.5"/>
   <line stroke="black" x1="25.0" y1="951.0" x2="14.0" y2="958.0" stroke-width="0.5"/>
   <line stroke="black" x1="25.0" y1="951.0" x2="477.0" y2="989.0" stroke-width="0.5"/>
   <line stroke="black" x1="320.0" y1="869.0" x2="113.0" y2="768.0" stroke-width="0.5"/>
   <line stroke="black" x1="241.0" y1="322.0" x2="181.0" y2="359.0" stroke-width="0.5"/>
   <line stroke="black" x1="227.0" y1="564.0" x2="182.0" y2="562.0" stroke-width="0.5"/>
   <line stroke="black" x1="248.0" y1="702.0" x2="177.0" y2="716.0" stroke-width="0.5"/>
   <line stroke="black" x1="277.0" y1="596.0" x2="178.0" y2="594.0" stroke-width="0.5"/>
   <line stroke="black" x1="234.0" y1="492.0" x2="202.0" y2="518.0" stroke-width="0.5"/>
   <line stroke="black" x1="245.0" y1="667.0" x2="195.0" y2="648.0" stroke-width="0.5"/>
   <line stroke="black" x1="248.0" y1="425.0" x2="186.0" y2="391.0" stroke-width="0.5"/>
   <line stroke="black" x1="298.0" y1="1041.0" x2="14.0" y2="958.0" stroke-width="0.5"/>
   <line stroke="black" x1="277.0" y1="393.0" x2="186.0" y2="391.0" stroke-width="0.5"/>
   <line stroke="black" x1="330.0" y1="119.0" x2="259.0" y2="145.0" stroke-width="0.5"/>
   <line stroke="black" x1="291.0" y1="766.0" x2="284.0" y2="786.0" stroke-width="0.5"/>
   <line stroke="black" x1="316.0" y1="941.0" x2="249.0" y2="922.0" stroke-width="0.5"/>
   <line stroke="black" x1="294.0" y1="838.0" x2="270.0" y2="820.0" stroke-width="0.5"/>
   <line stroke="black" x1="344.0" y1="16.0" x2="235.0" y2="42.0" stroke-width="0.5"/>
   <line stroke="black" x1="355.0" y1="84.0" x2="299.0" y2="64.0" stroke-width="0.5"/>
   <line stroke="black" x1="337.0" y1="48.0" x2="299.0" y2="64.0" stroke-width="0.5"/>
   <line stroke="black" x1="376.0" y1="222.0" x2="277.0" y2="244.0" stroke-width="0.5"/>
   <line stroke="black" x1="380.0" y1="254.0" x2="277.0" y2="244.0" stroke-width="0.5"/>
   <line stroke="black" x1="771.0" y1="973.0" x2="477.0" y2="989.0" stroke-width="0.5"/>
  </g>
 </g>
</svg>
