<?xml version="1.0" encoding="UTF-8"?>
<svg xmlns="http://www.w3.org/2000/svg">
 <g>
  <g>
   <g>
    <circle stroke="black" stroke-width="0.5" fill="#aaffff" cx="105.0" cy="1264.0" r="1.0"/>
    <text stroke="none" x="105.0" y="1264.0" font-size="20.0" font-family="helvetica">100</text>
   </g>
   <g>
    <circle stroke="black" stroke-width="0.5" fill="#aaffff" cx="117.0" cy="1083.0" r="1.0"/>
    <text stroke="none" x="117.0" y="1083.0" font-size="10.0" font-family="helvetica">NT1.2</text>
   </g>
   <g>
    <circle stroke="black" stroke-width="0.5" fill="#aaffff" cx="144.0" cy="1445.0" r="1.0"/>
    <text stroke="none" x="144.0" y="1445.0" font-size="10.0" font-family="helvetica">NT1.3</text>
   </g>
   <g>
    <circle stroke="black" stroke-width="0.5" fill="#aaffff" cx="146.0" cy="852.0" r="1.0"/>
    <text stroke="none" x="146.0" y="852.0" font-size="20.0" font-family="helvetica">52</text>
   </g>
   <g>
    <circle stroke="black" stroke-width="0.5" fill="#aaffff" cx="167.0" cy="652.0" r="1.0"/>
    <text stroke="none" x="167.0" y="652.0" font-size="20.0" font-family="helvetica">59</text>
   </g>
   <g>
    <circle stroke="black" stroke-width="0.5" fill="#aaffff" cx="181.0" cy="1398.0" r="1.0"/>
    <text stroke="none" x="181.0" y="1398.0" font-size="20.0" font-family="helvetica">69</text>
   </g>
   <g>
    <circle stroke="black" stroke-width="0.5" fill="#aaffff" cx="183.0" cy="1493.0" r="1.0"/>
    <text stroke="none" x="183.0" y="1493.0" font-size="20.0" font-family="helvetica">62</text>
   </g>
   <g>
    <circle stroke="black" stroke-width="0.5" fill="#aaffff" cx="213.0" cy="486.0" r="1.0"/>
    <text stroke="none" x="213.0" y="486.0" font-size="20.0" font-family="helvetica">7s</text>
   </g>
   <g>
    <circle stroke="black" stroke-width="0.5" fill="#aaffff" cx="218.0" cy="1052.0" r="1.0"/>
    <text stroke="none" x="218.0" y="1052.0" font-size="20.0" font-family="helvetica">81</text>
   </g>
   <g>
    <circle stroke="black" stroke-width="0.5" fill="#aaffff" cx="231.0" cy="818.0" r="1.0"/>
    <text stroke="none" x="231.0" y="818.0" font-size="20.0" font-family="helvetica">95</text>
   </g>
   <g>
    <circle stroke="black" stroke-width="0.5" fill="#aaffff" cx="232.0" cy="1589.0" r="1.0"/>
    <text stroke="none" x="232.0" y="1589.0" font-size="20.0" font-family="helvetica">Pandoraea apista CCUG 38412T (AY268172)</text>
   </g>
   <g>
    <circle stroke="black" stroke-width="0.5" fill="#aaffff" cx="232.0" cy="686.0" r="1.0"/>
    <text stroke="none" x="232.0" y="686.0" font-size="20.0" font-family="helvetica">72</text>
   </g>
   <g>
    <circle stroke="black" stroke-width="0.5" fill="#aaffff" cx="242.0" cy="1313.0" r="1.0"/>
    <text stroke="none" x="242.0" y="1313.0" font-size="20.0" font-family="helvetica">100</text>
   </g>
   <g>
    <circle stroke="black" stroke-width="0.5" fill="#aaffff" cx="246.0" cy="856.0" r="1.0"/>
    <text stroke="none" x="246.0" y="856.0" font-size="20.0" font-family="helvetica">81</text>
   </g>
   <g>
    <circle stroke="black" stroke-width="0.5" fill="#aaffff" cx="259.0" cy="717.0" r="1.0"/>
    <text stroke="none" x="259.0" y="717.0" font-size="20.0" font-family="helvetica">73</text>
   </g>
   <g>
    <circle stroke="black" stroke-width="0.5" fill="#aaffff" cx="268.0" cy="286.0" r="1.0"/>
    <text stroke="none" x="268.0" y="286.0" font-size="20.0" font-family="helvetica">81</text>
   </g>
   <g>
    <circle stroke="black" stroke-width="0.5" fill="#aaffff" cx="270.0" cy="973.0" r="1.0"/>
    <text stroke="none" x="270.0" y="973.0" font-size="20.0" font-family="helvetica">75</text>
   </g>
   <g>
    <circle stroke="black" stroke-width="0.5" fill="#aaffff" cx="270.0" cy="1525.0" r="1.0"/>
    <text stroke="none" x="270.0" y="1525.0" font-size="20.0" font-family="helvetica">100</text>
   </g>
   <g>
    <circle stroke="black" stroke-width="0.5" fill="#aaffff" cx="273.0" cy="1132.0" r="1.0"/>
    <text stroke="none" x="273.0" y="1132.0" font-size="20.0" font-family="helvetica">77</text>
   </g>
   <g>
    <circle stroke="black" stroke-width="0.5" fill="#aaffff" cx="294.0" cy="887.0" r="1.0"/>
    <text stroke="none" x="294.0" y="887.0" font-size="20.0" font-family="helvetica">96</text>
   </g>
   <g>
    <circle stroke="black" stroke-width="0.5" fill="#aaffff" cx="300.0" cy="1195.0" r="1.0"/>
    <text stroke="none" x="300.0" y="1195.0" font-size="10.0" font-family="helvetica">NT1.21</text>
   </g>
   <g>
    <circle stroke="black" stroke-width="0.5" fill="#aaffff" cx="307.0" cy="823.0" r="1.0"/>
    <text stroke="none" x="307.0" y="823.0" font-size="20.0" font-family="helvetica"/>
   </g>
   <g>
    <circle stroke="black" stroke-width="0.5" fill="#aaffff" cx="309.0" cy="90.0" r="1.0"/>
    <text stroke="none" x="309.0" y="90.0" font-size="20.0" font-family="helvetica">79</text>
   </g>
   <g>
    <circle stroke="black" stroke-width="0.5" fill="#aaffff" cx="310.0" cy="654.0" r="1.0"/>
    <text stroke="none" x="310.0" y="654.0" font-size="20.0" font-family="helvetica">B,</text>
   </g>
   <g>
    <circle stroke="black" stroke-width="0.5" fill="#aaffff" cx="315.0" cy="481.0" r="1.0"/>
    <text stroke="none" x="315.0" y="481.0" font-size="20.0" font-family="helvetica">75</text>
   </g>
   <g>
    <circle stroke="black" stroke-width="0.5" fill="#aaffff" cx="316.0" cy="1419.0" r="1.0"/>
    <text stroke="none" x="316.0" y="1419.0" font-size="20.0" font-family="helvetica">B. glathei LMG 14190T (Y17052)</text>
   </g>
   <g>
    <circle stroke="black" stroke-width="0.5" fill="#aaffff" cx="323.0" cy="163.0" r="1.0"/>
    <text stroke="none" x="323.0" y="163.0" font-size="10.0" font-family="helvetica">NT1.27</text>
   </g>
   <g>
    <circle stroke="black" stroke-width="0.5" fill="#aaffff" cx="327.0" cy="80.0" r="1.0"/>
    <text stroke="none" x="327.0" y="80.0" font-size="20.0" font-family="helvetica">79</text>
   </g>
   <g>
    <circle stroke="black" stroke-width="0.5" fill="#aaffff" cx="328.0" cy="101.0" r="1.0"/>
    <text stroke="none" x="328.0" y="101.0" font-size="20.0" font-family="helvetica">B. bryophila RG3-14 (AY949200)</text>
   </g>
   <g>
    <circle stroke="black" stroke-width="0.5" fill="#aaffff" cx="343.0" cy="521.0" r="1.0"/>
    <text stroke="none" x="343.0" y="521.0" font-size="20.0" font-family="helvetica">61</text>
   </g>
   <g>
    <circle stroke="black" stroke-width="0.5" fill="#aaffff" cx="345.0" cy="247.0" r="1.0"/>
    <text stroke="none" x="345.0" y="247.0" font-size="10.0" font-family="helvetica">NT1.31</text>
   </g>
   <g>
    <circle stroke="black" stroke-width="0.5" fill="#aaffff" cx="349.0" cy="1069.0" r="1.0"/>
    <text stroke="none" x="349.0" y="1069.0" font-size="20.0" font-family="helvetica">81</text>
   </g>
   <g>
    <circle stroke="black" stroke-width="0.5" fill="#aaffff" cx="351.0" cy="909.0" r="1.0"/>
    <text stroke="none" x="351.0" y="909.0" font-size="20.0" font-family="helvetica"/>
   </g>
   <g>
    <circle stroke="black" stroke-width="0.5" fill="#aaffff" cx="353.0" cy="144.0" r="1.0"/>
    <text stroke="none" x="353.0" y="144.0" font-size="20.0" font-family="helvetica"/>
   </g>
   <g>
    <circle stroke="black" stroke-width="0.5" fill="#aaffff" cx="356.0" cy="866.0" r="1.0"/>
    <text stroke="none" x="356.0" y="866.0" font-size="20.0" font-family="helvetica"/>
   </g>
   <g>
    <circle stroke="black" stroke-width="0.5" fill="#aaffff" cx="356.0" cy="558.0" r="1.0"/>
    <text stroke="none" x="356.0" y="558.0" font-size="10.0" font-family="helvetica">NT1.36</text>
   </g>
   <g>
    <circle stroke="black" stroke-width="0.5" fill="#aaffff" cx="359.0" cy="1547.0" r="1.0"/>
    <text stroke="none" x="359.0" y="1547.0" font-size="20.0" font-family="helvetica">B. cepacia ATCC 25416’</text>
   </g>
   <g>
    <circle stroke="black" stroke-width="0.5" fill="#aaffff" cx="360.0" cy="781.0" r="1.0"/>
    <text stroke="none" x="360.0" y="781.0" font-size="20.0" font-family="helvetica">B. phymatum STM8‘15T (AJ302312)</text>
   </g>
   <g>
    <circle stroke="black" stroke-width="0.5" fill="#aaffff" cx="361.0" cy="590.0" r="1.0"/>
    <text stroke="none" x="361.0" y="590.0" font-size="20.0" font-family="helvetica">56</text>
   </g>
   <g>
    <circle stroke="black" stroke-width="0.5" fill="#aaffff" cx="365.0" cy="1376.0" r="1.0"/>
    <text stroke="none" x="365.0" y="1376.0" font-size="20.0" font-family="helvetica">B. sordidicola SS-BT (AF512826)</text>
   </g>
   <g>
    <circle stroke="black" stroke-width="0.5" fill="#aaffff" cx="368.0" cy="1334.0" r="1.0"/>
    <text stroke="none" x="368.0" y="1334.0" font-size="20.0" font-family="helvetica">B. caryophylli ATCC 25418T</text>
   </g>
   <g>
    <circle stroke="black" stroke-width="0.5" fill="#aaffff" cx="369.0" cy="351.0" r="1.0"/>
    <text stroke="none" x="369.0" y="351.0" font-size="20.0" font-family="helvetica">69</text>
   </g>
   <g>
    <circle stroke="black" stroke-width="0.5" fill="#aaffff" cx="370.0" cy="398.0" r="1.0"/>
    <text stroke="none" x="370.0" y="398.0" font-size="20.0" font-family="helvetica">Burkholderia sp. WR19X (AJ300693)</text>
   </g>
   <g>
    <circle stroke="black" stroke-width="0.5" fill="#aaffff" cx="371.0" cy="301.0" r="1.0"/>
    <text stroke="none" x="371.0" y="301.0" font-size="10.0" font-family="helvetica">NT1.44</text>
   </g>
   <g>
    <circle stroke="black" stroke-width="0.5" fill="#aaffff" cx="371.0" cy="1227.0" r="1.0"/>
    <text stroke="none" x="371.0" y="1227.0" font-size="10.0" font-family="helvetica">NT1.45</text>
   </g>
   <g>
    <circle stroke="black" stroke-width="0.5" fill="#aaffff" cx="372.0" cy="739.0" r="1.0"/>
    <text stroke="none" x="372.0" y="739.0" font-size="20.0" font-family="helvetica">B. phenoliruptrix AC11OOT (AY435213)</text>
   </g>
   <g>
    <circle stroke="black" stroke-width="0.5" fill="#aaffff" cx="372.0" cy="1504.0" r="1.0"/>
    <text stroke="none" x="372.0" y="1504.0" font-size="20.0" font-family="helvetica"/>
   </g>
   <g>
    <circle stroke="black" stroke-width="0.5" fill="#aaffff" cx="372.0" cy="250.0" r="1.0"/>
    <text stroke="none" x="372.0" y="250.0" font-size="20.0" font-family="helvetica">55</text>
   </g>
   <g>
    <circle stroke="black" stroke-width="0.5" fill="#aaffff" cx="375.0" cy="300.0" r="1.0"/>
    <text stroke="none" x="375.0" y="300.0" font-size="10.0" font-family="helvetica">NT1.49</text>
   </g>
   <g>
    <circle stroke="black" stroke-width="0.5" fill="#aaffff" cx="376.0" cy="298.0" r="1.0"/>
    <text stroke="none" x="376.0" y="298.0" font-size="20.0" font-family="helvetica"/>
   </g>
   <g>
    <circle stroke="black" stroke-width="0.5" fill="#aaffff" cx="376.0" cy="312.0" r="1.0"/>
    <text stroke="none" x="376.0" y="312.0" font-size="20.0" font-family="helvetica"/>
   </g>
   <g>
    <circle stroke="black" stroke-width="0.5" fill="#aaffff" cx="382.0" cy="696.0" r="1.0"/>
    <text stroke="none" x="382.0" y="696.0" font-size="20.0" font-family="helvetica">B. graminis C4D1MT (U96939)</text>
   </g>
   <g>
    <circle stroke="black" stroke-width="0.5" fill="#aaffff" cx="382.0" cy="1100.0" r="1.0"/>
    <text stroke="none" x="382.0" y="1100.0" font-size="20.0" font-family="helvetica">68</text>
   </g>
   <g>
    <circle stroke="black" stroke-width="0.5" fill="#aaffff" cx="392.0" cy="1164.0" r="1.0"/>
    <text stroke="none" x="392.0" y="1164.0" font-size="20.0" font-family="helvetica">B. tropica Ppe8T (AJ420332)</text>
   </g>
   <g>
    <circle stroke="black" stroke-width="0.5" fill="#aaffff" cx="393.0" cy="1291.0" r="1.0"/>
    <text stroke="none" x="393.0" y="1291.0" font-size="20.0" font-family="helvetica">B. soli GP25-8T (DQ465451)</text>
   </g>
   <g>
    <circle stroke="black" stroke-width="0.5" fill="#aaffff" cx="396.0" cy="441.0" r="1.0"/>
    <text stroke="none" x="396.0" y="441.0" font-size="20.0" font-family="helvetica">B. caledonica LMG 19076T (AF215704)</text>
   </g>
   <g>
    <circle stroke="black" stroke-width="0.5" fill="#aaffff" cx="406.0" cy="292.0" r="1.0"/>
    <text stroke="none" x="406.0" y="292.0" font-size="10.0" font-family="helvetica">NT1.57</text>
   </g>
   <g>
    <circle stroke="black" stroke-width="0.5" fill="#aaffff" cx="410.0" cy="526.0" r="1.0"/>
    <text stroke="none" x="410.0" y="526.0" font-size="20.0" font-family="helvetica"/>
   </g>
   <g>
    <circle stroke="black" stroke-width="0.5" fill="#aaffff" cx="413.0" cy="314.0" r="1.0"/>
    <text stroke="none" x="413.0" y="314.0" font-size="20.0" font-family="helvetica"/>
   </g>
   <g>
    <circle stroke="black" stroke-width="0.5" fill="#aaffff" cx="416.0" cy="271.0" r="1.0"/>
    <text stroke="none" x="416.0" y="271.0" font-size="20.0" font-family="helvetica">B. bryophila 1A11 (AM489499)</text>
   </g>
   <g>
    <circle stroke="black" stroke-width="0.5" fill="#aaffff" cx="419.0" cy="484.0" r="1.0"/>
    <text stroke="none" x="419.0" y="484.0" font-size="20.0" font-family="helvetica">B. phytoﬂrmans PsJNT (AY497470)</text>
   </g>
   <g>
    <circle stroke="black" stroke-width="0.5" fill="#aaffff" cx="420.0" cy="994.0" r="1.0"/>
    <text stroke="none" x="420.0" y="994.0" font-size="20.0" font-family="helvetica">B. tuberum STM678T (AJ302311)</text>
   </g>
   <g>
    <circle stroke="black" stroke-width="0.5" fill="#aaffff" cx="433.0" cy="208.0" r="1.0"/>
    <text stroke="none" x="433.0" y="208.0" font-size="10.0" font-family="helvetica">NT1.63</text>
   </g>
   <g>
    <circle stroke="black" stroke-width="0.5" fill="#aaffff" cx="434.0" cy="228.0" r="1.0"/>
    <text stroke="none" x="434.0" y="228.0" font-size="20.0" font-family="helvetica"/>
   </g>
   <g>
    <circle stroke="black" stroke-width="0.5" fill="#aaffff" cx="434.0" cy="187.0" r="1.0"/>
    <text stroke="none" x="434.0" y="187.0" font-size="20.0" font-family="helvetica">B. bryophila 15181 (AM489501)</text>
   </g>
   <g>
    <circle stroke="black" stroke-width="0.5" fill="#aaffff" cx="434.0" cy="1249.0" r="1.0"/>
    <text stroke="none" x="434.0" y="1249.0" font-size="20.0" font-family="helvetica"/>
   </g>
   <g>
    <circle stroke="black" stroke-width="0.5" fill="#aaffff" cx="445.0" cy="1122.0" r="1.0"/>
    <text stroke="none" x="445.0" y="1122.0" font-size="20.0" font-family="helvetica"/>
   </g>
   <g>
    <circle stroke="black" stroke-width="0.5" fill="#aaffff" cx="463.0" cy="611.0" r="1.0"/>
    <text stroke="none" x="463.0" y="611.0" font-size="20.0" font-family="helvetica"/>
   </g>
   <g>
    <circle stroke="black" stroke-width="0.5" fill="#aaffff" cx="468.0" cy="16.0" r="1.0"/>
    <text stroke="none" x="468.0" y="16.0" font-size="20.0" font-family="helvetica">B. xenovorans LB400T</text>
   </g>
   <g>
    <circle stroke="black" stroke-width="0.5" fill="#aaffff" cx="475.0" cy="1206.0" r="1.0"/>
    <text stroke="none" x="475.0" y="1206.0" font-size="20.0" font-family="helvetica"/>
   </g>
   <g>
    <circle stroke="black" stroke-width="0.5" fill="#aaffff" cx="477.0" cy="568.0" r="1.0"/>
    <text stroke="none" x="477.0" y="568.0" font-size="20.0" font-family="helvetica">B. phenazinium LMG 2247T (U96936)</text>
   </g>
   <g>
    <circle stroke="black" stroke-width="0.5" fill="#aaffff" cx="484.0" cy="951.0" r="1.0"/>
    <text stroke="none" x="484.0" y="951.0" font-size="20.0" font-family="helvetica">B. kururiensis KP23T (ABOZ4310)</text>
   </g>
   <g>
    <circle stroke="black" stroke-width="0.5" fill="#aaffff" cx="498.0" cy="1036.0" r="1.0"/>
    <text stroke="none" x="498.0" y="1036.0" font-size="20.0" font-family="helvetica">B. ferrariae FeG|01T (DQ514537)</text>
   </g>
   <g>
    <circle stroke="black" stroke-width="0.5" fill="#aaffff" cx="516.0" cy="59.0" r="1.0"/>
    <text stroke="none" x="516.0" y="59.0" font-size="20.0" font-family="helvetica">B. ginsengisoll' KMY03T (ABZO1286)</text>
   </g>
   <g>
    <circle stroke="black" stroke-width="0.5" fill="#aaffff" cx="516.0" cy="1461.0" r="1.0"/>
    <text stroke="none" x="516.0" y="1461.0" font-size="20.0" font-family="helvetica">B. andropogonis ATCC 23061 (X67037)</text>
   </g>
   <g>
    <circle stroke="black" stroke-width="0.5" fill="#aaffff" cx="540.0" cy="1079.0" r="1.0"/>
    <text stroke="none" x="540.0" y="1079.0" font-size="20.0" font-family="helvetica">B. silvatlantica SRMrh-ZOT (AY965240)</text>
   </g>
   <g>
    <circle stroke="black" stroke-width="0.5" fill="#aaffff" cx="2.0" cy="1426.0" r="1.0"/>
    <text stroke="none" x="2.0" y="1426.0" font-size="10.0" font-family="helvetica">NT1.77</text>
   </g>
   <line stroke="black" x1="468.0" y1="16.0" x2="309.0" y2="90.0" stroke-width="0.5"/>
   <line stroke="black" x1="328.0" y1="101.0" x2="327.0" y2="80.0" stroke-width="0.5"/>
   <line stroke="black" x1="353.0" y1="144.0" x2="345.0" y2="247.0" stroke-width="0.5"/>
   <line stroke="black" x1="370.0" y1="398.0" x2="369.0" y2="351.0" stroke-width="0.5"/>
   <line stroke="black" x1="375.0" y1="300.0" x2="376.0" y2="298.0" stroke-width="0.5"/>
   <line stroke="black" x1="376.0" y1="312.0" x2="375.0" y2="300.0" stroke-width="0.5"/>
   <line stroke="black" x1="516.0" y1="59.0" x2="327.0" y2="80.0" stroke-width="0.5"/>
   <line stroke="black" x1="413.0" y1="314.0" x2="406.0" y2="292.0" stroke-width="0.5"/>
   <line stroke="black" x1="416.0" y1="271.0" x2="406.0" y2="292.0" stroke-width="0.5"/>
   <line stroke="black" x1="434.0" y1="228.0" x2="433.0" y2="208.0" stroke-width="0.5"/>
   <line stroke="black" x1="434.0" y1="187.0" x2="433.0" y2="208.0" stroke-width="0.5"/>
   <line stroke="black" x1="396.0" y1="441.0" x2="315.0" y2="481.0" stroke-width="0.5"/>
   <line stroke="black" x1="419.0" y1="484.0" x2="343.0" y2="521.0" stroke-width="0.5"/>
   <line stroke="black" x1="410.0" y1="526.0" x2="356.0" y2="558.0" stroke-width="0.5"/>
   <line stroke="black" x1="463.0" y1="611.0" x2="361.0" y2="590.0" stroke-width="0.5"/>
   <line stroke="black" x1="477.0" y1="568.0" x2="361.0" y2="590.0" stroke-width="0.5"/>
   <line stroke="black" x1="310.0" y1="654.0" x2="232.0" y2="686.0" stroke-width="0.5"/>
   <line stroke="black" x1="372.0" y1="739.0" x2="259.0" y2="717.0" stroke-width="0.5"/>
   <line stroke="black" x1="382.0" y1="696.0" x2="259.0" y2="717.0" stroke-width="0.5"/>
   <line stroke="black" x1="307.0" y1="823.0" x2="246.0" y2="856.0" stroke-width="0.5"/>
   <line stroke="black" x1="360.0" y1="781.0" x2="231.0" y2="818.0" stroke-width="0.5"/>
   <line stroke="black" x1="351.0" y1="909.0" x2="294.0" y2="887.0" stroke-width="0.5"/>
   <line stroke="black" x1="356.0" y1="866.0" x2="294.0" y2="887.0" stroke-width="0.5"/>
   <line stroke="black" x1="420.0" y1="994.0" x2="270.0" y2="973.0" stroke-width="0.5"/>
   <line stroke="black" x1="392.0" y1="1164.0" x2="300.0" y2="1195.0" stroke-width="0.5"/>
   <line stroke="black" x1="484.0" y1="951.0" x2="270.0" y2="973.0" stroke-width="0.5"/>
   <line stroke="black" x1="434.0" y1="1249.0" x2="371.0" y2="1227.0" stroke-width="0.5"/>
   <line stroke="black" x1="445.0" y1="1122.0" x2="382.0" y2="1100.0" stroke-width="0.5"/>
   <line stroke="black" x1="475.0" y1="1206.0" x2="371.0" y2="1227.0" stroke-width="0.5"/>
   <line stroke="black" x1="498.0" y1="1036.0" x2="349.0" y2="1069.0" stroke-width="0.5"/>
   <line stroke="black" x1="368.0" y1="1334.0" x2="242.0" y2="1313.0" stroke-width="0.5"/>
   <line stroke="black" x1="540.0" y1="1079.0" x2="382.0" y2="1100.0" stroke-width="0.5"/>
   <line stroke="black" x1="393.0" y1="1291.0" x2="242.0" y2="1313.0" stroke-width="0.5"/>
   <line stroke="black" x1="316.0" y1="1419.0" x2="181.0" y2="1398.0" stroke-width="0.5"/>
   <line stroke="black" x1="365.0" y1="1376.0" x2="181.0" y2="1398.0" stroke-width="0.5"/>
   <line stroke="black" x1="359.0" y1="1547.0" x2="270.0" y2="1525.0" stroke-width="0.5"/>
   <line stroke="black" x1="372.0" y1="1504.0" x2="270.0" y2="1525.0" stroke-width="0.5"/>
   <line stroke="black" x1="516.0" y1="1461.0" x2="183.0" y2="1493.0" stroke-width="0.5"/>
   <line stroke="black" x1="309.0" y1="90.0" x2="268.0" y2="286.0" stroke-width="0.5"/>
   <line stroke="black" x1="309.0" y1="90.0" x2="323.0" y2="163.0" stroke-width="0.5"/>
   <line stroke="black" x1="323.0" y1="163.0" x2="345.0" y2="247.0" stroke-width="0.5"/>
   <line stroke="black" x1="323.0" y1="163.0" x2="327.0" y2="80.0" stroke-width="0.5"/>
   <line stroke="black" x1="345.0" y1="247.0" x2="369.0" y2="351.0" stroke-width="0.5"/>
   <line stroke="black" x1="268.0" y1="286.0" x2="213.0" y2="486.0" stroke-width="0.5"/>
   <line stroke="black" x1="268.0" y1="286.0" x2="315.0" y2="481.0" stroke-width="0.5"/>
   <line stroke="black" x1="369.0" y1="351.0" x2="371.0" y2="301.0" stroke-width="0.5"/>
   <line stroke="black" x1="371.0" y1="301.0" x2="375.0" y2="300.0" stroke-width="0.5"/>
   <line stroke="black" x1="371.0" y1="301.0" x2="372.0" y2="250.0" stroke-width="0.5"/>
   <line stroke="black" x1="372.0" y1="250.0" x2="406.0" y2="292.0" stroke-width="0.5"/>
   <line stroke="black" x1="372.0" y1="250.0" x2="433.0" y2="208.0" stroke-width="0.5"/>
   <line stroke="black" x1="315.0" y1="481.0" x2="343.0" y2="521.0" stroke-width="0.5"/>
   <line stroke="black" x1="213.0" y1="486.0" x2="167.0" y2="652.0" stroke-width="0.5"/>
   <line stroke="black" x1="213.0" y1="486.0" x2="232.0" y2="686.0" stroke-width="0.5"/>
   <line stroke="black" x1="343.0" y1="521.0" x2="356.0" y2="558.0" stroke-width="0.5"/>
   <line stroke="black" x1="356.0" y1="558.0" x2="361.0" y2="590.0" stroke-width="0.5"/>
   <line stroke="black" x1="167.0" y1="652.0" x2="146.0" y2="852.0" stroke-width="0.5"/>
   <line stroke="black" x1="167.0" y1="652.0" x2="231.0" y2="818.0" stroke-width="0.5"/>
   <line stroke="black" x1="232.0" y1="686.0" x2="259.0" y2="717.0" stroke-width="0.5"/>
   <line stroke="black" x1="146.0" y1="852.0" x2="117.0" y2="1083.0" stroke-width="0.5"/>
   <line stroke="black" x1="146.0" y1="852.0" x2="218.0" y2="1052.0" stroke-width="0.5"/>
   <line stroke="black" x1="231.0" y1="818.0" x2="246.0" y2="856.0" stroke-width="0.5"/>
   <line stroke="black" x1="246.0" y1="856.0" x2="294.0" y2="887.0" stroke-width="0.5"/>
   <line stroke="black" x1="117.0" y1="1083.0" x2="105.0" y2="1264.0" stroke-width="0.5"/>
   <line stroke="black" x1="117.0" y1="1083.0" x2="242.0" y2="1313.0" stroke-width="0.5"/>
   <line stroke="black" x1="218.0" y1="1052.0" x2="273.0" y2="1132.0" stroke-width="0.5"/>
   <line stroke="black" x1="218.0" y1="1052.0" x2="270.0" y2="973.0" stroke-width="0.5"/>
   <line stroke="black" x1="273.0" y1="1132.0" x2="300.0" y2="1195.0" stroke-width="0.5"/>
   <line stroke="black" x1="273.0" y1="1132.0" x2="349.0" y2="1069.0" stroke-width="0.5"/>
   <line stroke="black" x1="105.0" y1="1264.0" x2="144.0" y2="1445.0" stroke-width="0.5"/>
   <line stroke="black" x1="300.0" y1="1195.0" x2="371.0" y2="1227.0" stroke-width="0.5"/>
   <line stroke="black" x1="349.0" y1="1069.0" x2="382.0" y2="1100.0" stroke-width="0.5"/>
   <line stroke="black" x1="144.0" y1="1445.0" x2="183.0" y2="1493.0" stroke-width="0.5"/>
   <line stroke="black" x1="144.0" y1="1445.0" x2="181.0" y2="1398.0" stroke-width="0.5"/>
   <line stroke="black" x1="183.0" y1="1493.0" x2="270.0" y2="1525.0" stroke-width="0.5"/>
   <line stroke="black" x1="2.0" y1="1426.0" x2="232.0" y2="1589.0" stroke-width="0.5"/>
   <line stroke="black" x1="2.0" y1="1426.0" x2="105.0" y2="1264.0" stroke-width="0.5"/>
  </g>
 </g>
</svg>
