<?xml version="1.0" encoding="UTF-8"?>
<svg xmlns="http://www.w3.org/2000/svg">
 <g>
  <g>
   <g>
    <circle stroke="black" stroke-width="0.5" fill="#aaffff" cx="61.0" cy="439.0" r="1.0"/>
    <text stroke="none" x="61.0" y="439.0" font-size="10.0" font-family="helvetica">NT1.1</text>
   </g>
   <g>
    <circle stroke="black" stroke-width="0.5" fill="#aaffff" cx="149.0" cy="279.0" r="1.0"/>
    <text stroke="none" x="149.0" y="279.0" font-size="10.0" font-family="helvetica">NT1.2</text>
   </g>
   <g>
    <circle stroke="black" stroke-width="0.5" fill="#aaffff" cx="211.0" cy="597.0" r="1.0"/>
    <text stroke="none" x="211.0" y="597.0" font-size="10.0" font-family="helvetica">NT1.3</text>
   </g>
   <g>
    <circle stroke="black" stroke-width="0.5" fill="#aaffff" cx="215.0" cy="398.0" r="1.0"/>
    <text stroke="none" x="215.0" y="398.0" font-size="10.0" font-family="helvetica">NT1.4</text>
   </g>
   <g>
    <circle stroke="black" stroke-width="0.5" fill="#aaffff" cx="271.0" cy="159.0" r="1.0"/>
    <text stroke="none" x="271.0" y="159.0" font-size="20.0" font-family="helvetica">97</text>
   </g>
   <g>
    <circle stroke="black" stroke-width="0.5" fill="#aaffff" cx="301.0" cy="446.0" r="1.0"/>
    <text stroke="none" x="301.0" y="446.0" font-size="10.0" font-family="helvetica">NT1.6</text>
   </g>
   <g>
    <circle stroke="black" stroke-width="0.5" fill="#aaffff" cx="305.0" cy="91.0" r="1.0"/>
    <text stroke="none" x="305.0" y="91.0" font-size="10.0" font-family="helvetica">NT1.7</text>
   </g>
   <g>
    <circle stroke="black" stroke-width="0.5" fill="#aaffff" cx="363.0" cy="487.0" r="1.0"/>
    <text stroke="none" x="363.0" y="487.0" font-size="10.0" font-family="helvetica">NT1.8</text>
   </g>
   <g>
    <circle stroke="black" stroke-width="0.5" fill="#aaffff" cx="387.0" cy="50.0" r="1.0"/>
    <text stroke="none" x="387.0" y="50.0" font-size="20.0" font-family="helvetica">36</text>
   </g>
   <g>
    <circle stroke="black" stroke-width="0.5" fill="#aaffff" cx="442.0" cy="227.0" r="1.0"/>
    <text stroke="none" x="442.0" y="227.0" font-size="10.0" font-family="helvetica">NT1.10</text>
   </g>
   <g>
    <circle stroke="black" stroke-width="0.5" fill="#aaffff" cx="443.0" cy="351.0" r="1.0"/>
    <text stroke="none" x="443.0" y="351.0" font-size="20.0" font-family="helvetica">Kocuria</text>
   </g>
   <g>
    <circle stroke="black" stroke-width="0.5" fill="#aaffff" cx="505.0" cy="132.0" r="1.0"/>
    <text stroke="none" x="505.0" y="132.0" font-size="20.0" font-family="helvetica"/>
   </g>
   <g>
    <circle stroke="black" stroke-width="0.5" fill="#aaffff" cx="539.0" cy="625.0" r="1.0"/>
    <text stroke="none" x="539.0" y="625.0" font-size="20.0" font-family="helvetica"/>
   </g>
   <g>
    <circle stroke="black" stroke-width="0.5" fill="#aaffff" cx="564.0" cy="77.0" r="1.0"/>
    <text stroke="none" x="564.0" y="77.0" font-size="20.0" font-family="helvetica"/>
   </g>
   <g>
    <circle stroke="black" stroke-width="0.5" fill="#aaffff" cx="579.0" cy="268.0" r="1.0"/>
    <text stroke="none" x="579.0" y="268.0" font-size="20.0" font-family="helvetica">95</text>
   </g>
   <g>
    <circle stroke="black" stroke-width="0.5" fill="#aaffff" cx="607.0" cy="22.0" r="1.0"/>
    <text stroke="none" x="607.0" y="22.0" font-size="20.0" font-family="helvetica">Rothia</text>
   </g>
   <g>
    <circle stroke="black" stroke-width="0.5" fill="#aaffff" cx="611.0" cy="461.0" r="1.0"/>
    <text stroke="none" x="611.0" y="461.0" font-size="20.0" font-family="helvetica"/>
   </g>
   <g>
    <circle stroke="black" stroke-width="0.5" fill="#aaffff" cx="627.0" cy="186.0" r="1.0"/>
    <text stroke="none" x="627.0" y="186.0" font-size="20.0" font-family="helvetica">Roth/a</text>
   </g>
   <g>
    <circle stroke="black" stroke-width="0.5" fill="#aaffff" cx="632.0" cy="405.0" r="1.0"/>
    <text stroke="none" x="632.0" y="405.0" font-size="20.0" font-family="helvetica"/>
   </g>
   <g>
    <circle stroke="black" stroke-width="0.5" fill="#aaffff" cx="639.0" cy="570.0" r="1.0"/>
    <text stroke="none" x="639.0" y="570.0" font-size="20.0" font-family="helvetica">Micrococcus</text>
   </g>
   <g>
    <circle stroke="black" stroke-width="0.5" fill="#aaffff" cx="678.0" cy="241.0" r="1.0"/>
    <text stroke="none" x="678.0" y="241.0" font-size="20.0" font-family="helvetica">Rothia</text>
   </g>
   <g>
    <circle stroke="black" stroke-width="0.5" fill="#aaffff" cx="713.0" cy="516.0" r="1.0"/>
    <text stroke="none" x="713.0" y="516.0" font-size="20.0" font-family="helvetica">Kocuria</text>
   </g>
   <g>
    <circle stroke="black" stroke-width="0.5" fill="#aaffff" cx="846.0" cy="296.0" r="1.0"/>
    <text stroke="none" x="846.0" y="296.0" font-size="20.0" font-family="helvetica">Roth/a</text>
   </g>
   <g>
    <circle stroke="black" stroke-width="0.5" fill="#aaffff" cx="846.0" cy="681.0" r="1.0"/>
    <text stroke="none" x="846.0" y="681.0" font-size="20.0" font-family="helvetica">Kytococcus</text>
   </g>
   <g>
    <circle stroke="black" stroke-width="0.5" fill="#aaffff" cx="1.0" cy="560.0" r="1.0"/>
    <text stroke="none" x="1.0" y="560.0" font-size="10.0" font-family="helvetica">NT1.25</text>
   </g>
   <line stroke="black" x1="607.0" y1="22.0" x2="387.0" y2="50.0" stroke-width="0.5"/>
   <line stroke="black" x1="564.0" y1="77.0" x2="387.0" y2="50.0" stroke-width="0.5"/>
   <line stroke="black" x1="505.0" y1="132.0" x2="305.0" y2="91.0" stroke-width="0.5"/>
   <line stroke="black" x1="627.0" y1="186.0" x2="442.0" y2="227.0" stroke-width="0.5"/>
   <line stroke="black" x1="846.0" y1="296.0" x2="579.0" y2="268.0" stroke-width="0.5"/>
   <line stroke="black" x1="632.0" y1="405.0" x2="301.0" y2="446.0" stroke-width="0.5"/>
   <line stroke="black" x1="611.0" y1="461.0" x2="363.0" y2="487.0" stroke-width="0.5"/>
   <line stroke="black" x1="713.0" y1="516.0" x2="363.0" y2="487.0" stroke-width="0.5"/>
   <line stroke="black" x1="539.0" y1="625.0" x2="211.0" y2="597.0" stroke-width="0.5"/>
   <line stroke="black" x1="639.0" y1="570.0" x2="211.0" y2="597.0" stroke-width="0.5"/>
   <line stroke="black" x1="387.0" y1="50.0" x2="305.0" y2="91.0" stroke-width="0.5"/>
   <line stroke="black" x1="305.0" y1="91.0" x2="271.0" y2="159.0" stroke-width="0.5"/>
   <line stroke="black" x1="271.0" y1="159.0" x2="149.0" y2="279.0" stroke-width="0.5"/>
   <line stroke="black" x1="271.0" y1="159.0" x2="442.0" y2="227.0" stroke-width="0.5"/>
   <line stroke="black" x1="442.0" y1="227.0" x2="579.0" y2="268.0" stroke-width="0.5"/>
   <line stroke="black" x1="149.0" y1="279.0" x2="61.0" y2="439.0" stroke-width="0.5"/>
   <line stroke="black" x1="149.0" y1="279.0" x2="215.0" y2="398.0" stroke-width="0.5"/>
   <line stroke="black" x1="215.0" y1="398.0" x2="301.0" y2="446.0" stroke-width="0.5"/>
   <line stroke="black" x1="61.0" y1="439.0" x2="211.0" y2="597.0" stroke-width="0.5"/>
   <line stroke="black" x1="301.0" y1="446.0" x2="363.0" y2="487.0" stroke-width="0.5"/>
   <line stroke="black" x1="1.0" y1="560.0" x2="846.0" y2="681.0" stroke-width="0.5"/>
   <line stroke="black" x1="1.0" y1="560.0" x2="61.0" y2="439.0" stroke-width="0.5"/>
   <line stroke="black" x1="443.0" y1="351.0" x2="215.0" y2="398.0" stroke-width="0.5"/>
   <line stroke="black" x1="678.0" y1="241.0" x2="579.0" y2="268.0" stroke-width="0.5"/>
  </g>
 </g>
</svg>
