<?xml version="1.0" encoding="UTF-8"?>
<svg xmlns="http://www.w3.org/2000/svg">
 <g>
  <g>
   <g>
    <circle stroke="black" stroke-width="0.5" fill="#aaffff" cx="74.0" cy="565.0" r="1.0"/>
    <text stroke="none" x="74.0" y="565.0" font-size="10.0" font-family="helvetica">NT1.1</text>
   </g>
   <g>
    <circle stroke="black" stroke-width="0.5" fill="#aaffff" cx="163.0" cy="1072.0" r="1.0"/>
    <text stroke="none" x="163.0" y="1072.0" font-size="10.0" font-family="helvetica">NT1.2</text>
   </g>
   <g>
    <circle stroke="black" stroke-width="0.5" fill="#aaffff" cx="172.0" cy="120.0" r="1.0"/>
    <text stroke="none" x="172.0" y="120.0" font-size="20.0" font-family="helvetica">57</text>
   </g>
   <g>
    <circle stroke="black" stroke-width="0.5" fill="#aaffff" cx="172.0" cy="498.0" r="1.0"/>
    <text stroke="none" x="172.0" y="498.0" font-size="10.0" font-family="helvetica">NT1.4</text>
   </g>
   <g>
    <circle stroke="black" stroke-width="0.5" fill="#aaffff" cx="179.0" cy="659.0" r="1.0"/>
    <text stroke="none" x="179.0" y="659.0" font-size="10.0" font-family="helvetica">NT1.5</text>
   </g>
   <g>
    <circle stroke="black" stroke-width="0.5" fill="#aaffff" cx="181.0" cy="1011.0" r="1.0"/>
    <text stroke="none" x="181.0" y="1011.0" font-size="10.0" font-family="helvetica">NT1.6</text>
   </g>
   <g>
    <circle stroke="black" stroke-width="0.5" fill="#aaffff" cx="188.0" cy="1264.0" r="1.0"/>
    <text stroke="none" x="188.0" y="1264.0" font-size="10.0" font-family="helvetica">NT1.7</text>
   </g>
   <g>
    <circle stroke="black" stroke-width="0.5" fill="#aaffff" cx="188.0" cy="335.0" r="1.0"/>
    <text stroke="none" x="188.0" y="335.0" font-size="10.0" font-family="helvetica">NT1.8</text>
   </g>
   <g>
    <circle stroke="black" stroke-width="0.5" fill="#aaffff" cx="194.0" cy="709.0" r="1.0"/>
    <text stroke="none" x="194.0" y="709.0" font-size="10.0" font-family="helvetica">NT1.9</text>
   </g>
   <g>
    <circle stroke="black" stroke-width="0.5" fill="#aaffff" cx="195.0" cy="912.0" r="1.0"/>
    <text stroke="none" x="195.0" y="912.0" font-size="10.0" font-family="helvetica">NT1.10</text>
   </g>
   <g>
    <circle stroke="black" stroke-width="0.5" fill="#aaffff" cx="211.0" cy="1112.0" r="1.0"/>
    <text stroke="none" x="211.0" y="1112.0" font-size="10.0" font-family="helvetica">NT1.11</text>
   </g>
   <g>
    <circle stroke="black" stroke-width="0.5" fill="#aaffff" cx="218.0" cy="856.0" r="1.0"/>
    <text stroke="none" x="218.0" y="856.0" font-size="10.0" font-family="helvetica">NT1.12</text>
   </g>
   <g>
    <circle stroke="black" stroke-width="0.5" fill="#aaffff" cx="224.0" cy="979.0" r="1.0"/>
    <text stroke="none" x="224.0" y="979.0" font-size="10.0" font-family="helvetica">NT1.13</text>
   </g>
   <g>
    <circle stroke="black" stroke-width="0.5" fill="#aaffff" cx="230.0" cy="171.0" r="1.0"/>
    <text stroke="none" x="230.0" y="171.0" font-size="20.0" font-family="helvetica">95</text>
   </g>
   <g>
    <circle stroke="black" stroke-width="0.5" fill="#aaffff" cx="245.0" cy="609.0" r="1.0"/>
    <text stroke="none" x="245.0" y="609.0" font-size="20.0" font-family="helvetica">N. turkmeniaca DSM 43926T (AF277201)</text>
   </g>
   <g>
    <circle stroke="black" stroke-width="0.5" fill="#aaffff" cx="250.0" cy="744.0" r="1.0"/>
    <text stroke="none" x="250.0" y="744.0" font-size="20.0" font-family="helvetica">N. kuesteri DSM 44753T (AJ746362)</text>
   </g>
   <g>
    <circle stroke="black" stroke-width="0.5" fill="#aaffff" cx="258.0" cy="1079.0" r="1.0"/>
    <text stroke="none" x="258.0" y="1079.0" font-size="20.0" font-family="helvetica"/>
   </g>
   <g>
    <circle stroke="black" stroke-width="0.5" fill="#aaffff" cx="262.0" cy="137.0" r="1.0"/>
    <text stroke="none" x="262.0" y="137.0" font-size="20.0" font-family="helvetica">N. bangladeshensis 5-1 0-10T (ABZ74966)</text>
   </g>
   <g>
    <circle stroke="black" stroke-width="0.5" fill="#aaffff" cx="284.0" cy="1012.0" r="1.0"/>
    <text stroke="none" x="284.0" y="1012.0" font-size="20.0" font-family="helvetica"> N. angiospora NBRC 13155T (U48843)</text>
   </g>
   <g>
    <circle stroke="black" stroke-width="0.5" fill="#aaffff" cx="284.0" cy="1314.0" r="1.0"/>
    <text stroke="none" x="284.0" y="1314.0" font-size="10.0" font-family="helvetica">NT1.20</text>
   </g>
   <g>
    <circle stroke="black" stroke-width="0.5" fill="#aaffff" cx="289.0" cy="810.0" r="1.0"/>
    <text stroke="none" x="289.0" y="810.0" font-size="20.0" font-family="helvetica">N. salmonea NBRC 14687T (U48982)</text>
   </g>
   <g>
    <circle stroke="black" stroke-width="0.5" fill="#aaffff" cx="293.0" cy="424.0" r="1.0"/>
    <text stroke="none" x="293.0" y="424.0" font-size="10.0" font-family="helvetica">NT1.22</text>
   </g>
   <g>
    <circle stroke="black" stroke-width="0.5" fill="#aaffff" cx="295.0" cy="1148.0" r="1.0"/>
    <text stroke="none" x="295.0" y="1148.0" font-size="20.0" font-family="helvetica"> N. polychroma NBRC 14345T (U48977)</text>
   </g>
   <g>
    <circle stroke="black" stroke-width="0.5" fill="#aaffff" cx="297.0" cy="273.0" r="1.0"/>
    <text stroke="none" x="297.0" y="273.0" font-size="20.0" font-family="helvetica"/>
   </g>
   <g>
    <circle stroke="black" stroke-width="0.5" fill="#aaffff" cx="303.0" cy="457.0" r="1.0"/>
    <text stroke="none" x="303.0" y="457.0" font-size="10.0" font-family="helvetica">NT1.25</text>
   </g>
   <g>
    <circle stroke="black" stroke-width="0.5" fill="#aaffff" cx="308.0" cy="71.0" r="1.0"/>
    <text stroke="none" x="308.0" y="71.0" font-size="20.0" font-family="helvetica">N. fast/diosa NBRC 14680T (U48844)</text>
   </g>
   <g>
    <circle stroke="black" stroke-width="0.5" fill="#aaffff" cx="312.0" cy="878.0" r="1.0"/>
    <text stroke="none" x="312.0" y="878.0" font-size="20.0" font-family="helvetica">N. spirelis NBRC 14097T (U48983)</text>
   </g>
   <g>
    <circle stroke="black" stroke-width="0.5" fill="#aaffff" cx="318.0" cy="1350.0" r="1.0"/>
    <text stroke="none" x="318.0" y="1350.0" font-size="20.0" font-family="helvetica"> N. roseoviolalacea subsp. roseoviolacea DSM 43144T (A8039959)</text>
   </g>
   <g>
    <circle stroke="black" stroke-width="0.5" fill="#aaffff" cx="319.0" cy="1418.0" r="1.0"/>
    <text stroke="none" x="319.0" y="1418.0" font-size="20.0" font-family="helvetica">Thermopolyspora flexuosa DSM 431867(AY039253)</text>
   </g>
   <g>
    <circle stroke="black" stroke-width="0.5" fill="#aaffff" cx="319.0" cy="507.0" r="1.0"/>
    <text stroke="none" x="319.0" y="507.0" font-size="10.0" font-family="helvetica">NT1.30</text>
   </g>
   <g>
    <circle stroke="black" stroke-width="0.5" fill="#aaffff" cx="321.0" cy="1214.0" r="1.0"/>
    <text stroke="none" x="321.0" y="1214.0" font-size="20.0" font-family="helvetica">N. ferruginea NBRC 14094T (U48845)</text>
   </g>
   <g>
    <circle stroke="black" stroke-width="0.5" fill="#aaffff" cx="321.0" cy="339.0" r="1.0"/>
    <text stroke="none" x="321.0" y="339.0" font-size="20.0" font-family="helvetica">N. dietziae DSM 44320T (AJ278220)</text>
   </g>
   <g>
    <circle stroke="black" stroke-width="0.5" fill="#aaffff" cx="342.0" cy="406.0" r="1.0"/>
    <text stroke="none" x="342.0" y="406.0" font-size="20.0" font-family="helvetica">N. africana NBRC 147457(U48842)</text>
   </g>
   <g>
    <circle stroke="black" stroke-width="0.5" fill="#aaffff" cx="344.0" cy="1281.0" r="1.0"/>
    <text stroke="none" x="344.0" y="1281.0" font-size="20.0" font-family="helvetica"> N. roseoviolacea su bsp. carminata DSM 44170T (ABO39961)</text>
   </g>
   <g>
    <circle stroke="black" stroke-width="0.5" fill="#aaffff" cx="346.0" cy="474.0" r="1.0"/>
    <text stroke="none" x="346.0" y="474.0" font-size="20.0" font-family="helvetica">N. recticatena NBRC 145257(U48979)</text>
   </g>
   <g>
    <circle stroke="black" stroke-width="0.5" fill="#aaffff" cx="346.0" cy="541.0" r="1.0"/>
    <text stroke="none" x="346.0" y="541.0" font-size="20.0" font-family="helvetica"/>
   </g>
   <g>
    <circle stroke="black" stroke-width="0.5" fill="#aaffff" cx="358.0" cy="946.0" r="1.0"/>
    <text stroke="none" x="358.0" y="946.0" font-size="20.0" font-family="helvetica">N. pus/Ila NBRC 14684T (U48978)</text>
   </g>
   <g>
    <circle stroke="black" stroke-width="0.5" fill="#aaffff" cx="404.0" cy="676.0" r="1.0"/>
    <text stroke="none" x="404.0" y="676.0" font-size="20.0" font-family="helvetica"/>
   </g>
   <g>
    <circle stroke="black" stroke-width="0.5" fill="#aaffff" cx="420.0" cy="205.0" r="1.0"/>
    <text stroke="none" x="420.0" y="205.0" font-size="20.0" font-family="helvetica"/>
   </g>
   <g>
    <circle stroke="black" stroke-width="0.5" fill="#aaffff" cx="4.0" cy="991.0" r="1.0"/>
    <text stroke="none" x="4.0" y="991.0" font-size="10.0" font-family="helvetica">NT1.40</text>
   </g>
   <line stroke="black" x1="308.0" y1="71.0" x2="172.0" y2="120.0" stroke-width="0.5"/>
   <line stroke="black" x1="262.0" y1="137.0" x2="230.0" y2="171.0" stroke-width="0.5"/>
   <line stroke="black" x1="420.0" y1="205.0" x2="230.0" y2="171.0" stroke-width="0.5"/>
   <line stroke="black" x1="258.0" y1="1079.0" x2="211.0" y2="1112.0" stroke-width="0.5"/>
   <line stroke="black" x1="295.0" y1="1148.0" x2="211.0" y2="1112.0" stroke-width="0.5"/>
   <line stroke="black" x1="284.0" y1="1012.0" x2="224.0" y2="979.0" stroke-width="0.5"/>
   <line stroke="black" x1="289.0" y1="810.0" x2="218.0" y2="856.0" stroke-width="0.5"/>
   <line stroke="black" x1="312.0" y1="878.0" x2="218.0" y2="856.0" stroke-width="0.5"/>
   <line stroke="black" x1="358.0" y1="946.0" x2="224.0" y2="979.0" stroke-width="0.5"/>
   <line stroke="black" x1="318.0" y1="1350.0" x2="284.0" y2="1314.0" stroke-width="0.5"/>
   <line stroke="black" x1="344.0" y1="1281.0" x2="284.0" y2="1314.0" stroke-width="0.5"/>
   <line stroke="black" x1="245.0" y1="609.0" x2="179.0" y2="659.0" stroke-width="0.5"/>
   <line stroke="black" x1="250.0" y1="744.0" x2="194.0" y2="709.0" stroke-width="0.5"/>
   <line stroke="black" x1="297.0" y1="273.0" x2="188.0" y2="335.0" stroke-width="0.5"/>
   <line stroke="black" x1="321.0" y1="339.0" x2="293.0" y2="424.0" stroke-width="0.5"/>
   <line stroke="black" x1="342.0" y1="406.0" x2="303.0" y2="457.0" stroke-width="0.5"/>
   <line stroke="black" x1="346.0" y1="474.0" x2="319.0" y2="507.0" stroke-width="0.5"/>
   <line stroke="black" x1="346.0" y1="541.0" x2="319.0" y2="507.0" stroke-width="0.5"/>
   <line stroke="black" x1="172.0" y1="120.0" x2="74.0" y2="565.0" stroke-width="0.5"/>
   <line stroke="black" x1="172.0" y1="120.0" x2="230.0" y2="171.0" stroke-width="0.5"/>
   <line stroke="black" x1="74.0" y1="565.0" x2="163.0" y2="1072.0" stroke-width="0.5"/>
   <line stroke="black" x1="163.0" y1="1072.0" x2="172.0" y2="498.0" stroke-width="0.5"/>
   <line stroke="black" x1="163.0" y1="1072.0" x2="181.0" y2="1011.0" stroke-width="0.5"/>
   <line stroke="black" x1="163.0" y1="1072.0" x2="188.0" y2="1264.0" stroke-width="0.5"/>
   <line stroke="black" x1="181.0" y1="1011.0" x2="211.0" y2="1112.0" stroke-width="0.5"/>
   <line stroke="black" x1="181.0" y1="1011.0" x2="195.0" y2="912.0" stroke-width="0.5"/>
   <line stroke="black" x1="195.0" y1="912.0" x2="224.0" y2="979.0" stroke-width="0.5"/>
   <line stroke="black" x1="195.0" y1="912.0" x2="218.0" y2="856.0" stroke-width="0.5"/>
   <line stroke="black" x1="188.0" y1="1264.0" x2="284.0" y2="1314.0" stroke-width="0.5"/>
   <line stroke="black" x1="172.0" y1="498.0" x2="179.0" y2="659.0" stroke-width="0.5"/>
   <line stroke="black" x1="172.0" y1="498.0" x2="188.0" y2="335.0" stroke-width="0.5"/>
   <line stroke="black" x1="179.0" y1="659.0" x2="194.0" y2="709.0" stroke-width="0.5"/>
   <line stroke="black" x1="188.0" y1="335.0" x2="293.0" y2="424.0" stroke-width="0.5"/>
   <line stroke="black" x1="293.0" y1="424.0" x2="303.0" y2="457.0" stroke-width="0.5"/>
   <line stroke="black" x1="303.0" y1="457.0" x2="319.0" y2="507.0" stroke-width="0.5"/>
   <line stroke="black" x1="4.0" y1="991.0" x2="74.0" y2="565.0" stroke-width="0.5"/>
   <line stroke="black" x1="321.0" y1="1214.0" x2="188.0" y2="1264.0" stroke-width="0.5"/>
   <line stroke="black" x1="404.0" y1="676.0" x2="194.0" y2="709.0" stroke-width="0.5"/>
   <line stroke="black" x1="319.0" y1="1418.0" x2="4.0" y2="991.0" stroke-width="0.5"/>
  </g>
 </g>
</svg>
