<?xml version="1.0" encoding="UTF-8"?>
<svg xmlns="http://www.w3.org/2000/svg">
 <g>
  <g>
   <g>
    <circle stroke="black" stroke-width="0.5" fill="#aaffff" cx="28.0" cy="405.0" r="1.0"/>
    <text stroke="none" x="28.0" y="405.0" font-size="10.0" font-family="helvetica">NT1.1</text>
   </g>
   <g>
    <circle stroke="black" stroke-width="0.5" fill="#aaffff" cx="159.0" cy="178.0" r="1.0"/>
    <text stroke="none" x="159.0" y="178.0" font-size="10.0" font-family="helvetica">NT1.2</text>
   </g>
   <g>
    <circle stroke="black" stroke-width="0.5" fill="#aaffff" cx="192.0" cy="287.0" r="1.0"/>
    <text stroke="none" x="192.0" y="287.0" font-size="20.0" font-family="helvetica">809</text>
   </g>
   <g>
    <circle stroke="black" stroke-width="0.5" fill="#aaffff" cx="237.0" cy="414.0" r="1.0"/>
    <text stroke="none" x="237.0" y="414.0" font-size="20.0" font-family="helvetica">936</text>
   </g>
   <g>
    <circle stroke="black" stroke-width="0.5" fill="#aaffff" cx="288.0" cy="163.0" r="1.0"/>
    <text stroke="none" x="288.0" y="163.0" font-size="10.0" font-family="helvetica">NT1.5</text>
   </g>
   <g>
    <circle stroke="black" stroke-width="0.5" fill="#aaffff" cx="353.0" cy="632.0" r="1.0"/>
    <text stroke="none" x="353.0" y="632.0" font-size="10.0" font-family="helvetica">NT1.6</text>
   </g>
   <g>
    <circle stroke="black" stroke-width="0.5" fill="#aaffff" cx="377.0" cy="466.0" r="1.0"/>
    <text stroke="none" x="377.0" y="466.0" font-size="10.0" font-family="helvetica">NT1.7</text>
   </g>
   <g>
    <circle stroke="black" stroke-width="0.5" fill="#aaffff" cx="412.0" cy="606.0" r="1.0"/>
    <text stroke="none" x="412.0" y="606.0" font-size="20.0" font-family="helvetica"/>
   </g>
   <g>
    <circle stroke="black" stroke-width="0.5" fill="#aaffff" cx="413.0" cy="656.0" r="1.0"/>
    <text stroke="none" x="413.0" y="656.0" font-size="20.0" font-family="helvetica"/>
   </g>
   <g>
    <circle stroke="black" stroke-width="0.5" fill="#aaffff" cx="456.0" cy="705.0" r="1.0"/>
    <text stroke="none" x="456.0" y="705.0" font-size="20.0" font-family="helvetica"/>
   </g>
   <g>
    <circle stroke="black" stroke-width="0.5" fill="#aaffff" cx="526.0" cy="208.0" r="1.0"/>
    <text stroke="none" x="526.0" y="208.0" font-size="10.0" font-family="helvetica">NT1.11</text>
   </g>
   <g>
    <circle stroke="black" stroke-width="0.5" fill="#aaffff" cx="537.0" cy="362.0" r="1.0"/>
    <text stroke="none" x="537.0" y="362.0" font-size="20.0" font-family="helvetica"/>
   </g>
   <g>
    <circle stroke="black" stroke-width="0.5" fill="#aaffff" cx="540.0" cy="251.0" r="1.0"/>
    <text stroke="none" x="540.0" y="251.0" font-size="10.0" font-family="helvetica">NT1.13</text>
   </g>
   <g>
    <circle stroke="black" stroke-width="0.5" fill="#aaffff" cx="541.0" cy="521.0" r="1.0"/>
    <text stroke="none" x="541.0" y="521.0" font-size="10.0" font-family="helvetica">NT1.14</text>
   </g>
   <g>
    <circle stroke="black" stroke-width="0.5" fill="#aaffff" cx="548.0" cy="558.0" r="1.0"/>
    <text stroke="none" x="548.0" y="558.0" font-size="20.0" font-family="helvetica"/>
   </g>
   <g>
    <circle stroke="black" stroke-width="0.5" fill="#aaffff" cx="557.0" cy="485.0" r="1.0"/>
    <text stroke="none" x="557.0" y="485.0" font-size="20.0" font-family="helvetica">962</text>
   </g>
   <g>
    <circle stroke="black" stroke-width="0.5" fill="#aaffff" cx="564.0" cy="509.0" r="1.0"/>
    <text stroke="none" x="564.0" y="509.0" font-size="20.0" font-family="helvetica">Rapidithrix l‘hailandica TISTR 1736 (A3284517)</text>
   </g>
   <g>
    <circle stroke="black" stroke-width="0.5" fill="#aaffff" cx="566.0" cy="287.0" r="1.0"/>
    <text stroke="none" x="566.0" y="287.0" font-size="20.0" font-family="helvetica">825</text>
   </g>
   <g>
    <circle stroke="black" stroke-width="0.5" fill="#aaffff" cx="570.0" cy="459.0" r="1.0"/>
    <text stroke="none" x="570.0" y="459.0" font-size="20.0" font-family="helvetica">Rapidithrix thailandica TISTR 1750r (A3265192)</text>
   </g>
   <g>
    <circle stroke="black" stroke-width="0.5" fill="#aaffff" cx="577.0" cy="410.0" r="1.0"/>
    <text stroke="none" x="577.0" y="410.0" font-size="20.0" font-family="helvetica"/>
   </g>
   <g>
    <circle stroke="black" stroke-width="0.5" fill="#aaffff" cx="596.0" cy="68.0" r="1.0"/>
    <text stroke="none" x="596.0" y="68.0" font-size="20.0" font-family="helvetica">Cyciobacler/‘um marinum ATCC 43824 (M62788)</text>
   </g>
   <g>
    <circle stroke="black" stroke-width="0.5" fill="#aaffff" cx="639.0" cy="313.0" r="1.0"/>
    <text stroke="none" x="639.0" y="313.0" font-size="20.0" font-family="helvetica"/>
   </g>
   <g>
    <circle stroke="black" stroke-width="0.5" fill="#aaffff" cx="640.0" cy="117.0" r="1.0"/>
    <text stroke="none" x="640.0" y="117.0" font-size="20.0" font-family="helvetica">PereXilibacter aurannacus IAM 15413T (ABZ76355)</text>
   </g>
   <g>
    <circle stroke="black" stroke-width="0.5" fill="#aaffff" cx="664.0" cy="166.0" r="1.0"/>
    <text stroke="none" x="664.0" y="166.0" font-size="20.0" font-family="helvetica"/>
   </g>
   <g>
    <circle stroke="black" stroke-width="0.5" fill="#aaffff" cx="679.0" cy="215.0" r="1.0"/>
    <text stroke="none" x="679.0" y="215.0" font-size="20.0" font-family="helvetica">Flammeovirga kamogawensis IAM 15451T(ABZS1933)</text>
   </g>
   <g>
    <circle stroke="black" stroke-width="0.5" fill="#aaffff" cx="731.0" cy="263.0" r="1.0"/>
    <text stroke="none" x="731.0" y="263.0" font-size="20.0" font-family="helvetica"/>
   </g>
   <g>
    <circle stroke="black" stroke-width="0.5" fill="#aaffff" cx="6.0" cy="555.0" r="1.0"/>
    <text stroke="none" x="6.0" y="555.0" font-size="10.0" font-family="helvetica">NT1.27</text>
   </g>
   <line stroke="black" x1="596.0" y1="68.0" x2="159.0" y2="178.0" stroke-width="0.5"/>
   <line stroke="black" x1="537.0" y1="362.0" x2="237.0" y2="414.0" stroke-width="0.5"/>
   <line stroke="black" x1="577.0" y1="410.0" x2="377.0" y2="466.0" stroke-width="0.5"/>
   <line stroke="black" x1="640.0" y1="117.0" x2="288.0" y2="163.0" stroke-width="0.5"/>
   <line stroke="black" x1="548.0" y1="558.0" x2="541.0" y2="521.0" stroke-width="0.5"/>
   <line stroke="black" x1="564.0" y1="509.0" x2="557.0" y2="485.0" stroke-width="0.5"/>
   <line stroke="black" x1="570.0" y1="459.0" x2="557.0" y2="485.0" stroke-width="0.5"/>
   <line stroke="black" x1="664.0" y1="166.0" x2="526.0" y2="208.0" stroke-width="0.5"/>
   <line stroke="black" x1="639.0" y1="313.0" x2="566.0" y2="287.0" stroke-width="0.5"/>
   <line stroke="black" x1="679.0" y1="215.0" x2="540.0" y2="251.0" stroke-width="0.5"/>
   <line stroke="black" x1="731.0" y1="263.0" x2="566.0" y2="287.0" stroke-width="0.5"/>
   <line stroke="black" x1="412.0" y1="606.0" x2="353.0" y2="632.0" stroke-width="0.5"/>
   <line stroke="black" x1="413.0" y1="656.0" x2="353.0" y2="632.0" stroke-width="0.5"/>
   <line stroke="black" x1="159.0" y1="178.0" x2="28.0" y2="405.0" stroke-width="0.5"/>
   <line stroke="black" x1="159.0" y1="178.0" x2="192.0" y2="287.0" stroke-width="0.5"/>
   <line stroke="black" x1="192.0" y1="287.0" x2="237.0" y2="414.0" stroke-width="0.5"/>
   <line stroke="black" x1="192.0" y1="287.0" x2="288.0" y2="163.0" stroke-width="0.5"/>
   <line stroke="black" x1="237.0" y1="414.0" x2="377.0" y2="466.0" stroke-width="0.5"/>
   <line stroke="black" x1="28.0" y1="405.0" x2="353.0" y2="632.0" stroke-width="0.5"/>
   <line stroke="black" x1="288.0" y1="163.0" x2="526.0" y2="208.0" stroke-width="0.5"/>
   <line stroke="black" x1="377.0" y1="466.0" x2="541.0" y2="521.0" stroke-width="0.5"/>
   <line stroke="black" x1="526.0" y1="208.0" x2="540.0" y2="251.0" stroke-width="0.5"/>
   <line stroke="black" x1="540.0" y1="251.0" x2="566.0" y2="287.0" stroke-width="0.5"/>
   <line stroke="black" x1="541.0" y1="521.0" x2="557.0" y2="485.0" stroke-width="0.5"/>
   <line stroke="black" x1="6.0" y1="555.0" x2="456.0" y2="705.0" stroke-width="0.5"/>
   <line stroke="black" x1="6.0" y1="555.0" x2="28.0" y2="405.0" stroke-width="0.5"/>
  </g>
 </g>
</svg>
