<?xml version="1.0" encoding="UTF-8"?>
<svg xmlns="http://www.w3.org/2000/svg">
 <g>
  <g>
   <g>
    <circle stroke="black" stroke-width="0.5" fill="#aaffff" cx="0.0" cy="519.0" r="1.0"/>
    <text stroke="none" x="0.0" y="519.0" font-size="20.0" font-family="helvetica"/>
   </g>
   <g>
    <circle stroke="black" stroke-width="0.5" fill="#aaffff" cx="53.0" cy="519.0" r="1.0"/>
    <text stroke="none" x="53.0" y="519.0" font-size="10.0" font-family="helvetica">NT1.2</text>
   </g>
   <g>
    <circle stroke="black" stroke-width="0.5" fill="#aaffff" cx="114.0" cy="773.0" r="1.0"/>
    <text stroke="none" x="114.0" y="773.0" font-size="20.0" font-family="helvetica"/>
   </g>
   <g>
    <circle stroke="black" stroke-width="0.5" fill="#aaffff" cx="115.0" cy="769.0" r="1.0"/>
    <text stroke="none" x="115.0" y="769.0" font-size="10.0" font-family="helvetica">NT1.4</text>
   </g>
   <g>
    <circle stroke="black" stroke-width="0.5" fill="#aaffff" cx="206.0" cy="267.0" r="1.0"/>
    <text stroke="none" x="206.0" y="267.0" font-size="10.0" font-family="helvetica">NT1.5</text>
   </g>
   <g>
    <circle stroke="black" stroke-width="0.5" fill="#aaffff" cx="225.0" cy="410.0" r="1.0"/>
    <text stroke="none" x="225.0" y="410.0" font-size="10.0" font-family="helvetica">NT1.6</text>
   </g>
   <g>
    <circle stroke="black" stroke-width="0.5" fill="#aaffff" cx="240.0" cy="296.0" r="1.0"/>
    <text stroke="none" x="240.0" y="296.0" font-size="10.0" font-family="helvetica">NT1.7</text>
   </g>
   <g>
    <circle stroke="black" stroke-width="0.5" fill="#aaffff" cx="267.0" cy="223.0" r="1.0"/>
    <text stroke="none" x="267.0" y="223.0" font-size="10.0" font-family="helvetica">NT1.8</text>
   </g>
   <g>
    <circle stroke="black" stroke-width="0.5" fill="#aaffff" cx="288.0" cy="358.0" r="1.0"/>
    <text stroke="none" x="288.0" y="358.0" font-size="10.0" font-family="helvetica">NT1.9</text>
   </g>
   <g>
    <circle stroke="black" stroke-width="0.5" fill="#aaffff" cx="310.0" cy="270.0" r="1.0"/>
    <text stroke="none" x="310.0" y="270.0" font-size="20.0" font-family="helvetica"/>
   </g>
   <g>
    <circle stroke="black" stroke-width="0.5" fill="#aaffff" cx="310.0" cy="267.0" r="1.0"/>
    <text stroke="none" x="310.0" y="267.0" font-size="10.0" font-family="helvetica">NT1.11</text>
   </g>
   <g>
    <circle stroke="black" stroke-width="0.5" fill="#aaffff" cx="328.0" cy="326.0" r="1.0"/>
    <text stroke="none" x="328.0" y="326.0" font-size="20.0" font-family="helvetica"/>
   </g>
   <g>
    <circle stroke="black" stroke-width="0.5" fill="#aaffff" cx="328.0" cy="329.0" r="1.0"/>
    <text stroke="none" x="328.0" y="329.0" font-size="10.0" font-family="helvetica">NT1.13</text>
   </g>
   <g>
    <circle stroke="black" stroke-width="0.5" fill="#aaffff" cx="331.0" cy="396.0" r="1.0"/>
    <text stroke="none" x="331.0" y="396.0" font-size="20.0" font-family="helvetica"/>
   </g>
   <g>
    <circle stroke="black" stroke-width="0.5" fill="#aaffff" cx="331.0" cy="393.0" r="1.0"/>
    <text stroke="none" x="331.0" y="393.0" font-size="10.0" font-family="helvetica">NT1.15</text>
   </g>
   <g>
    <circle stroke="black" stroke-width="0.5" fill="#aaffff" cx="339.0" cy="643.0" r="1.0"/>
    <text stroke="none" x="339.0" y="643.0" font-size="10.0" font-family="helvetica">NT1.16</text>
   </g>
   <g>
    <circle stroke="black" stroke-width="0.5" fill="#aaffff" cx="371.0" cy="590.0" r="1.0"/>
    <text stroke="none" x="371.0" y="590.0" font-size="10.0" font-family="helvetica">NT1.17</text>
   </g>
   <g>
    <circle stroke="black" stroke-width="0.5" fill="#aaffff" cx="377.0" cy="710.0" r="1.0"/>
    <text stroke="none" x="377.0" y="710.0" font-size="20.0" font-family="helvetica"/>
   </g>
   <g>
    <circle stroke="black" stroke-width="0.5" fill="#aaffff" cx="377.0" cy="707.0" r="1.0"/>
    <text stroke="none" x="377.0" y="707.0" font-size="10.0" font-family="helvetica">NT1.19</text>
   </g>
   <g>
    <circle stroke="black" stroke-width="0.5" fill="#aaffff" cx="385.0" cy="647.0" r="1.0"/>
    <text stroke="none" x="385.0" y="647.0" font-size="20.0" font-family="helvetica"/>
   </g>
   <g>
    <circle stroke="black" stroke-width="0.5" fill="#aaffff" cx="392.0" cy="642.0" r="1.0"/>
    <text stroke="none" x="392.0" y="642.0" font-size="10.0" font-family="helvetica">NT1.21</text>
   </g>
   <g>
    <circle stroke="black" stroke-width="0.5" fill="#aaffff" cx="399.0" cy="267.0" r="1.0"/>
    <text stroke="none" x="399.0" y="267.0" font-size="20.0" font-family="helvetica"/>
   </g>
   <g>
    <circle stroke="black" stroke-width="0.5" fill="#aaffff" cx="400.0" cy="47.0" r="1.0"/>
    <text stroke="none" x="400.0" y="47.0" font-size="10.0" font-family="helvetica">NT1.23</text>
   </g>
   <g>
    <circle stroke="black" stroke-width="0.5" fill="#aaffff" cx="401.0" cy="12.0" r="1.0"/>
    <text stroke="none" x="401.0" y="12.0" font-size="20.0" font-family="helvetica"/>
   </g>
   <g>
    <circle stroke="black" stroke-width="0.5" fill="#aaffff" cx="405.0" cy="80.0" r="1.0"/>
    <text stroke="none" x="405.0" y="80.0" font-size="20.0" font-family="helvetica"/>
   </g>
   <g>
    <circle stroke="black" stroke-width="0.5" fill="#aaffff" cx="406.0" cy="77.0" r="1.0"/>
    <text stroke="none" x="406.0" y="77.0" font-size="10.0" font-family="helvetica">NT1.26</text>
   </g>
   <g>
    <circle stroke="black" stroke-width="0.5" fill="#aaffff" cx="412.0" cy="329.0" r="1.0"/>
    <text stroke="none" x="412.0" y="329.0" font-size="20.0" font-family="helvetica">Moniliella suaveolens CBS 542.78T (AF335524)</text>
   </g>
   <g>
    <circle stroke="black" stroke-width="0.5" fill="#aaffff" cx="415.0" cy="77.0" r="1.0"/>
    <text stroke="none" x="415.0" y="77.0" font-size="20.0" font-family="helvetica"/>
   </g>
   <g>
    <circle stroke="black" stroke-width="0.5" fill="#aaffff" cx="417.0" cy="643.0" r="1.0"/>
    <text stroke="none" x="417.0" y="643.0" font-size="20.0" font-family="helvetica">Moniliella sp. UWOPS 95-7664 (AF313370)</text>
   </g>
   <g>
    <circle stroke="black" stroke-width="0.5" fill="#aaffff" cx="419.0" cy="393.0" r="1.0"/>
    <text stroke="none" x="419.0" y="393.0" font-size="20.0" font-family="helvetica">Moniliella (Tr/Chosporonoides) spathulata CBS 241 .79T (AF335526)</text>
   </g>
   <g>
    <circle stroke="black" stroke-width="0.5" fill="#aaffff" cx="428.0" cy="455.0" r="1.0"/>
    <text stroke="none" x="428.0" y="455.0" font-size="20.0" font-family="helvetica"/>
   </g>
   <g>
    <circle stroke="black" stroke-width="0.5" fill="#aaffff" cx="428.0" cy="536.0" r="1.0"/>
    <text stroke="none" x="428.0" y="536.0" font-size="10.0" font-family="helvetica">NT1.32</text>
   </g>
   <g>
    <circle stroke="black" stroke-width="0.5" fill="#aaffff" cx="431.0" cy="584.0" r="1.0"/>
    <text stroke="none" x="431.0" y="584.0" font-size="20.0" font-family="helvetica"/>
   </g>
   <g>
    <circle stroke="black" stroke-width="0.5" fill="#aaffff" cx="432.0" cy="579.0" r="1.0"/>
    <text stroke="none" x="432.0" y="579.0" font-size="10.0" font-family="helvetica">NT1.34</text>
   </g>
   <g>
    <circle stroke="black" stroke-width="0.5" fill="#aaffff" cx="434.0" cy="769.0" r="1.0"/>
    <text stroke="none" x="434.0" y="769.0" font-size="20.0" font-family="helvetica">Phylloporia pectinata R. Coveny 113 (AF411823)</text>
   </g>
   <g>
    <circle stroke="black" stroke-width="0.5" fill="#aaffff" cx="437.0" cy="579.0" r="1.0"/>
    <text stroke="none" x="437.0" y="579.0" font-size="20.0" font-family="helvetica"/>
   </g>
   <g>
    <circle stroke="black" stroke-width="0.5" fill="#aaffff" cx="457.0" cy="707.0" r="1.0"/>
    <text stroke="none" x="457.0" y="707.0" font-size="20.0" font-family="helvetica">Moniliella (Trichosporonoides) oedocephalis CBS 649.66T (AF335521)</text>
   </g>
   <g>
    <circle stroke="black" stroke-width="0.5" fill="#aaffff" cx="522.0" cy="175.0" r="1.0"/>
    <text stroke="none" x="522.0" y="175.0" font-size="10.0" font-family="helvetica">NT1.38</text>
   </g>
   <g>
    <circle stroke="black" stroke-width="0.5" fill="#aaffff" cx="523.0" cy="206.0" r="1.0"/>
    <text stroke="none" x="523.0" y="206.0" font-size="20.0" font-family="helvetica"/>
   </g>
   <g>
    <circle stroke="black" stroke-width="0.5" fill="#aaffff" cx="523.0" cy="138.0" r="1.0"/>
    <text stroke="none" x="523.0" y="138.0" font-size="20.0" font-family="helvetica">Moniliella fonsecae BCC 7726T (DQ400366)</text>
   </g>
   <g>
    <circle stroke="black" stroke-width="0.5" fill="#aaffff" cx="524.0" cy="202.0" r="1.0"/>
    <text stroke="none" x="524.0" y="202.0" font-size="10.0" font-family="helvetica">NT1.41</text>
   </g>
   <g>
    <circle stroke="black" stroke-width="0.5" fill="#aaffff" cx="527.0" cy="202.0" r="1.0"/>
    <text stroke="none" x="527.0" y="202.0" font-size="20.0" font-family="helvetica">Moniliella fonsecae CRGF-832 (AM947064)</text>
   </g>
   <line stroke="black" x1="401.0" y1="12.0" x2="400.0" y2="47.0" stroke-width="0.5"/>
   <line stroke="black" x1="405.0" y1="80.0" x2="406.0" y2="77.0" stroke-width="0.5"/>
   <line stroke="black" x1="415.0" y1="77.0" x2="406.0" y2="77.0" stroke-width="0.5"/>
   <line stroke="black" x1="0.0" y1="519.0" x2="53.0" y2="519.0" stroke-width="0.5"/>
   <line stroke="black" x1="328.0" y1="329.0" x2="328.0" y2="326.0" stroke-width="0.5"/>
   <line stroke="black" x1="331.0" y1="396.0" x2="331.0" y2="393.0" stroke-width="0.5"/>
   <line stroke="black" x1="310.0" y1="270.0" x2="310.0" y2="267.0" stroke-width="0.5"/>
   <line stroke="black" x1="377.0" y1="710.0" x2="377.0" y2="707.0" stroke-width="0.5"/>
   <line stroke="black" x1="385.0" y1="647.0" x2="392.0" y2="642.0" stroke-width="0.5"/>
   <line stroke="black" x1="412.0" y1="329.0" x2="328.0" y2="329.0" stroke-width="0.5"/>
   <line stroke="black" x1="419.0" y1="393.0" x2="331.0" y2="393.0" stroke-width="0.5"/>
   <line stroke="black" x1="399.0" y1="267.0" x2="310.0" y2="267.0" stroke-width="0.5"/>
   <line stroke="black" x1="457.0" y1="707.0" x2="377.0" y2="707.0" stroke-width="0.5"/>
   <line stroke="black" x1="417.0" y1="643.0" x2="392.0" y2="642.0" stroke-width="0.5"/>
   <line stroke="black" x1="114.0" y1="773.0" x2="115.0" y2="769.0" stroke-width="0.5"/>
   <line stroke="black" x1="437.0" y1="579.0" x2="432.0" y2="579.0" stroke-width="0.5"/>
   <line stroke="black" x1="431.0" y1="584.0" x2="432.0" y2="579.0" stroke-width="0.5"/>
   <line stroke="black" x1="428.0" y1="455.0" x2="428.0" y2="536.0" stroke-width="0.5"/>
   <line stroke="black" x1="527.0" y1="202.0" x2="524.0" y2="202.0" stroke-width="0.5"/>
   <line stroke="black" x1="523.0" y1="206.0" x2="524.0" y2="202.0" stroke-width="0.5"/>
   <line stroke="black" x1="523.0" y1="138.0" x2="522.0" y2="175.0" stroke-width="0.5"/>
   <line stroke="black" x1="434.0" y1="769.0" x2="115.0" y2="769.0" stroke-width="0.5"/>
   <line stroke="black" x1="400.0" y1="47.0" x2="406.0" y2="77.0" stroke-width="0.5"/>
   <line stroke="black" x1="400.0" y1="47.0" x2="206.0" y2="267.0" stroke-width="0.5"/>
   <line stroke="black" x1="206.0" y1="267.0" x2="53.0" y2="519.0" stroke-width="0.5"/>
   <line stroke="black" x1="206.0" y1="267.0" x2="225.0" y2="410.0" stroke-width="0.5"/>
   <line stroke="black" x1="225.0" y1="410.0" x2="339.0" y2="643.0" stroke-width="0.5"/>
   <line stroke="black" x1="225.0" y1="410.0" x2="240.0" y2="296.0" stroke-width="0.5"/>
   <line stroke="black" x1="53.0" y1="519.0" x2="115.0" y2="769.0" stroke-width="0.5"/>
   <line stroke="black" x1="240.0" y1="296.0" x2="288.0" y2="358.0" stroke-width="0.5"/>
   <line stroke="black" x1="240.0" y1="296.0" x2="267.0" y2="223.0" stroke-width="0.5"/>
   <line stroke="black" x1="267.0" y1="223.0" x2="310.0" y2="267.0" stroke-width="0.5"/>
   <line stroke="black" x1="267.0" y1="223.0" x2="522.0" y2="175.0" stroke-width="0.5"/>
   <line stroke="black" x1="339.0" y1="643.0" x2="377.0" y2="707.0" stroke-width="0.5"/>
   <line stroke="black" x1="339.0" y1="643.0" x2="371.0" y2="590.0" stroke-width="0.5"/>
   <line stroke="black" x1="288.0" y1="358.0" x2="331.0" y2="393.0" stroke-width="0.5"/>
   <line stroke="black" x1="288.0" y1="358.0" x2="328.0" y2="329.0" stroke-width="0.5"/>
   <line stroke="black" x1="371.0" y1="590.0" x2="392.0" y2="642.0" stroke-width="0.5"/>
   <line stroke="black" x1="371.0" y1="590.0" x2="428.0" y2="536.0" stroke-width="0.5"/>
   <line stroke="black" x1="428.0" y1="536.0" x2="432.0" y2="579.0" stroke-width="0.5"/>
   <line stroke="black" x1="522.0" y1="175.0" x2="524.0" y2="202.0" stroke-width="0.5"/>
  </g>
 </g>
</svg>
