<?xml version="1.0" encoding="UTF-8"?>
<svg xmlns="http://www.w3.org/2000/svg">
 <g>
  <g>
   <g>
    <circle stroke="black" stroke-width="0.5" fill="#aaffff" cx="20.0" cy="207.0" r="1.0"/>
    <text stroke="none" x="20.0" y="207.0" font-size="10.0" font-family="helvetica">NT1.1</text>
   </g>
   <g>
    <circle stroke="black" stroke-width="0.5" fill="#aaffff" cx="39.0" cy="154.0" r="1.0"/>
    <text stroke="none" x="39.0" y="154.0" font-size="10.0" font-family="helvetica">NT1.2</text>
   </g>
   <g>
    <circle stroke="black" stroke-width="0.5" fill="#aaffff" cx="49.0" cy="96.0" r="1.0"/>
    <text stroke="none" x="49.0" y="96.0" font-size="10.0" font-family="helvetica">NT1.3</text>
   </g>
   <g>
    <circle stroke="black" stroke-width="0.5" fill="#aaffff" cx="94.0" cy="260.0" r="1.0"/>
    <text stroke="none" x="94.0" y="260.0" font-size="10.0" font-family="helvetica">NT1.4</text>
   </g>
   <g>
    <circle stroke="black" stroke-width="0.5" fill="#aaffff" cx="100.0" cy="376.0" r="1.0"/>
    <text stroke="none" x="100.0" y="376.0" font-size="20.0" font-family="helvetica">99</text>
   </g>
   <g>
    <circle stroke="black" stroke-width="0.5" fill="#aaffff" cx="152.0" cy="425.0" r="1.0"/>
    <text stroke="none" x="152.0" y="425.0" font-size="10.0" font-family="helvetica">NT1.6</text>
   </g>
   <g>
    <circle stroke="black" stroke-width="0.5" fill="#aaffff" cx="181.0" cy="393.0" r="1.0"/>
    <text stroke="none" x="181.0" y="393.0" font-size="20.0" font-family="helvetica">59</text>
   </g>
   <g>
    <circle stroke="black" stroke-width="0.5" fill="#aaffff" cx="188.0" cy="137.0" r="1.0"/>
    <text stroke="none" x="188.0" y="137.0" font-size="10.0" font-family="helvetica">NT1.8</text>
   </g>
   <g>
    <circle stroke="black" stroke-width="0.5" fill="#aaffff" cx="231.0" cy="161.0" r="1.0"/>
    <text stroke="none" x="231.0" y="161.0" font-size="10.0" font-family="helvetica">NT1.9</text>
   </g>
   <g>
    <circle stroke="black" stroke-width="0.5" fill="#aaffff" cx="244.0" cy="458.0" r="1.0"/>
    <text stroke="none" x="244.0" y="458.0" font-size="10.0" font-family="helvetica">NT1.10</text>
   </g>
   <g>
    <circle stroke="black" stroke-width="0.5" fill="#aaffff" cx="256.0" cy="327.0" r="1.0"/>
    <text stroke="none" x="256.0" y="327.0" font-size="20.0" font-family="helvetica">100</text>
   </g>
   <g>
    <circle stroke="black" stroke-width="0.5" fill="#aaffff" cx="264.0" cy="244.0" r="1.0"/>
    <text stroke="none" x="264.0" y="244.0" font-size="20.0" font-family="helvetica">P. mendelii 0/2T (AF537343)</text>
   </g>
   <g>
    <circle stroke="black" stroke-width="0.5" fill="#aaffff" cx="293.0" cy="145.0" r="1.0"/>
    <text stroke="none" x="293.0" y="145.0" font-size="20.0" font-family="helvetica"/>
   </g>
   <g>
    <circle stroke="black" stroke-width="0.5" fill="#aaffff" cx="317.0" cy="277.0" r="1.0"/>
    <text stroke="none" x="317.0" y="277.0" font-size="20.0" font-family="helvetica"/>
   </g>
   <g>
    <circle stroke="black" stroke-width="0.5" fill="#aaffff" cx="334.0" cy="310.0" r="1.0"/>
    <text stroke="none" x="334.0" y="310.0" font-size="20.0" font-family="helvetica">P. glycanilyticus DS—‘IT (ABO42938)</text>
   </g>
   <g>
    <circle stroke="black" stroke-width="0.5" fill="#aaffff" cx="352.0" cy="409.0" r="1.0"/>
    <text stroke="none" x="352.0" y="409.0" font-size="20.0" font-family="helvetica">P. agarexedens DSM 1327T (AJ345020)</text>
   </g>
   <g>
    <circle stroke="black" stroke-width="0.5" fill="#aaffff" cx="357.0" cy="343.0" r="1.0"/>
    <text stroke="none" x="357.0" y="343.0" font-size="20.0" font-family="helvetica">P. xinjiangensis B538T (AY839868)</text>
   </g>
   <g>
    <circle stroke="black" stroke-width="0.5" fill="#aaffff" cx="363.0" cy="211.0" r="1.0"/>
    <text stroke="none" x="363.0" y="211.0" font-size="20.0" font-family="helvetica">P. phyllosphaerae PALXILO4T (AY598818)</text>
   </g>
   <g>
    <circle stroke="black" stroke-width="0.5" fill="#aaffff" cx="372.0" cy="55.0" r="1.0"/>
    <text stroke="none" x="372.0" y="55.0" font-size="20.0" font-family="helvetica">100</text>
   </g>
   <g>
    <circle stroke="black" stroke-width="0.5" fill="#aaffff" cx="405.0" cy="178.0" r="1.0"/>
    <text stroke="none" x="405.0" y="178.0" font-size="20.0" font-family="helvetica"/>
   </g>
   <g>
    <circle stroke="black" stroke-width="0.5" fill="#aaffff" cx="410.0" cy="112.0" r="1.0"/>
    <text stroke="none" x="410.0" y="112.0" font-size="20.0" font-family="helvetica"> P. curd/anoiyticus IFO 15724T (D78466)</text>
   </g>
   <g>
    <circle stroke="black" stroke-width="0.5" fill="#aaffff" cx="427.0" cy="376.0" r="1.0"/>
    <text stroke="none" x="427.0" y="376.0" font-size="20.0" font-family="helvetica">P. alkaliterrae KSL-134T (AY960748)</text>
   </g>
   <g>
    <circle stroke="black" stroke-width="0.5" fill="#aaffff" cx="445.0" cy="442.0" r="1.0"/>
    <text stroke="none" x="445.0" y="442.0" font-size="20.0" font-family="helvetica"/>
   </g>
   <g>
    <circle stroke="black" stroke-width="0.5" fill="#aaffff" cx="529.0" cy="80.0" r="1.0"/>
    <text stroke="none" x="529.0" y="80.0" font-size="20.0" font-family="helvetica">P. pasadenesis SAFN-007T (AY167820)</text>
   </g>
   <g>
    <circle stroke="black" stroke-width="0.5" fill="#aaffff" cx="550.0" cy="30.0" r="1.0"/>
    <text stroke="none" x="550.0" y="30.0" font-size="10.0" font-family="helvetica">NT1.25</text>
   </g>
   <g>
    <circle stroke="black" stroke-width="0.5" fill="#aaffff" cx="551.0" cy="13.0" r="1.0"/>
    <text stroke="none" x="551.0" y="13.0" font-size="20.0" font-family="helvetica"/>
   </g>
   <g>
    <circle stroke="black" stroke-width="0.5" fill="#aaffff" cx="551.0" cy="47.0" r="1.0"/>
    <text stroke="none" x="551.0" y="47.0" font-size="20.0" font-family="helvetica">PC-142 (AM411529)</text>
   </g>
   <g>
    <circle stroke="black" stroke-width="0.5" fill="#aaffff" cx="551.0" cy="475.0" r="1.0"/>
    <text stroke="none" x="551.0" y="475.0" font-size="20.0" font-family="helvetica"/>
   </g>
   <g>
    <circle stroke="black" stroke-width="0.5" fill="#aaffff" cx="2.0" cy="291.0" r="1.0"/>
    <text stroke="none" x="2.0" y="291.0" font-size="10.0" font-family="helvetica">NT1.29</text>
   </g>
   <line stroke="black" x1="551.0" y1="13.0" x2="550.0" y2="30.0" stroke-width="0.5"/>
   <line stroke="black" x1="551.0" y1="47.0" x2="550.0" y2="30.0" stroke-width="0.5"/>
   <line stroke="black" x1="529.0" y1="80.0" x2="372.0" y2="55.0" stroke-width="0.5"/>
   <line stroke="black" x1="293.0" y1="145.0" x2="231.0" y2="161.0" stroke-width="0.5"/>
   <line stroke="black" x1="410.0" y1="112.0" x2="188.0" y2="137.0" stroke-width="0.5"/>
   <line stroke="black" x1="264.0" y1="244.0" x2="94.0" y2="260.0" stroke-width="0.5"/>
   <line stroke="black" x1="317.0" y1="277.0" x2="94.0" y2="260.0" stroke-width="0.5"/>
   <line stroke="black" x1="352.0" y1="409.0" x2="181.0" y2="393.0" stroke-width="0.5"/>
   <line stroke="black" x1="427.0" y1="376.0" x2="181.0" y2="393.0" stroke-width="0.5"/>
   <line stroke="black" x1="445.0" y1="442.0" x2="244.0" y2="458.0" stroke-width="0.5"/>
   <line stroke="black" x1="551.0" y1="475.0" x2="244.0" y2="458.0" stroke-width="0.5"/>
   <line stroke="black" x1="550.0" y1="30.0" x2="372.0" y2="55.0" stroke-width="0.5"/>
   <line stroke="black" x1="39.0" y1="154.0" x2="20.0" y2="207.0" stroke-width="0.5"/>
   <line stroke="black" x1="20.0" y1="207.0" x2="94.0" y2="260.0" stroke-width="0.5"/>
   <line stroke="black" x1="188.0" y1="137.0" x2="231.0" y2="161.0" stroke-width="0.5"/>
   <line stroke="black" x1="100.0" y1="376.0" x2="152.0" y2="425.0" stroke-width="0.5"/>
   <line stroke="black" x1="100.0" y1="376.0" x2="256.0" y2="327.0" stroke-width="0.5"/>
   <line stroke="black" x1="152.0" y1="425.0" x2="244.0" y2="458.0" stroke-width="0.5"/>
   <line stroke="black" x1="152.0" y1="425.0" x2="181.0" y2="393.0" stroke-width="0.5"/>
   <line stroke="black" x1="2.0" y1="291.0" x2="20.0" y2="207.0" stroke-width="0.5"/>
   <line stroke="black" x1="2.0" y1="291.0" x2="100.0" y2="376.0" stroke-width="0.5"/>
   <line stroke="black" x1="49.0" y1="96.0" x2="39.0" y2="154.0" stroke-width="0.5"/>
   <line stroke="black" x1="363.0" y1="211.0" x2="39.0" y2="154.0" stroke-width="0.5"/>
   <line stroke="black" x1="372.0" y1="55.0" x2="49.0" y2="96.0" stroke-width="0.5"/>
   <line stroke="black" x1="49.0" y1="96.0" x2="188.0" y2="137.0" stroke-width="0.5"/>
   <line stroke="black" x1="405.0" y1="178.0" x2="231.0" y2="161.0" stroke-width="0.5"/>
   <line stroke="black" x1="357.0" y1="343.0" x2="256.0" y2="327.0" stroke-width="0.5"/>
   <line stroke="black" x1="334.0" y1="310.0" x2="256.0" y2="327.0" stroke-width="0.5"/>
  </g>
 </g>
</svg>
