<?xml version="1.0" encoding="UTF-8"?>
<svg xmlns="http://www.w3.org/2000/svg">
 <g>
  <g>
   <g>
    <circle stroke="black" stroke-width="0.5" fill="#aaffff" cx="156.0" cy="775.0" r="1.0"/>
    <text stroke="none" x="156.0" y="775.0" font-size="10.0" font-family="helvetica">NT1.1</text>
   </g>
   <g>
    <circle stroke="black" stroke-width="0.5" fill="#aaffff" cx="196.0" cy="638.0" r="1.0"/>
    <text stroke="none" x="196.0" y="638.0" font-size="20.0" font-family="helvetica">78 </text>
   </g>
   <g>
    <circle stroke="black" stroke-width="0.5" fill="#aaffff" cx="220.0" cy="424.0" r="1.0"/>
    <text stroke="none" x="220.0" y="424.0" font-size="10.0" font-family="helvetica">NT1.3</text>
   </g>
   <g>
    <circle stroke="black" stroke-width="0.5" fill="#aaffff" cx="231.0" cy="615.0" r="1.0"/>
    <text stroke="none" x="231.0" y="615.0" font-size="10.0" font-family="helvetica">NT1.4</text>
   </g>
   <g>
    <circle stroke="black" stroke-width="0.5" fill="#aaffff" cx="233.0" cy="233.0" r="1.0"/>
    <text stroke="none" x="233.0" y="233.0" font-size="10.0" font-family="helvetica">NT1.5</text>
   </g>
   <g>
    <circle stroke="black" stroke-width="0.5" fill="#aaffff" cx="246.0" cy="105.0" r="1.0"/>
    <text stroke="none" x="246.0" y="105.0" font-size="10.0" font-family="helvetica">NT1.6</text>
   </g>
   <g>
    <circle stroke="black" stroke-width="0.5" fill="#aaffff" cx="263.0" cy="693.0" r="1.0"/>
    <text stroke="none" x="263.0" y="693.0" font-size="20.0" font-family="helvetica">94</text>
   </g>
   <g>
    <circle stroke="black" stroke-width="0.5" fill="#aaffff" cx="271.0" cy="631.0" r="1.0"/>
    <text stroke="none" x="271.0" y="631.0" font-size="10.0" font-family="helvetica">NT1.8</text>
   </g>
   <g>
    <circle stroke="black" stroke-width="0.5" fill="#aaffff" cx="278.0" cy="168.0" r="1.0"/>
    <text stroke="none" x="278.0" y="168.0" font-size="10.0" font-family="helvetica">NT1.9</text>
   </g>
   <g>
    <circle stroke="black" stroke-width="0.5" fill="#aaffff" cx="292.0" cy="755.0" r="1.0"/>
    <text stroke="none" x="292.0" y="755.0" font-size="20.0" font-family="helvetica">82</text>
   </g>
   <g>
    <circle stroke="black" stroke-width="0.5" fill="#aaffff" cx="305.0" cy="44.0" r="1.0"/>
    <text stroke="none" x="305.0" y="44.0" font-size="20.0" font-family="helvetica">99</text>
   </g>
   <g>
    <circle stroke="black" stroke-width="0.5" fill="#aaffff" cx="305.0" cy="358.0" r="1.0"/>
    <text stroke="none" x="305.0" y="358.0" font-size="20.0" font-family="helvetica">92</text>
   </g>
   <g>
    <circle stroke="black" stroke-width="0.5" fill="#aaffff" cx="312.0" cy="537.0" r="1.0"/>
    <text stroke="none" x="312.0" y="537.0" font-size="10.0" font-family="helvetica">NT1.13</text>
   </g>
   <g>
    <circle stroke="black" stroke-width="0.5" fill="#aaffff" cx="327.0" cy="662.0" r="1.0"/>
    <text stroke="none" x="327.0" y="662.0" font-size="10.0" font-family="helvetica">NT1.14</text>
   </g>
   <g>
    <circle stroke="black" stroke-width="0.5" fill="#aaffff" cx="333.0" cy="787.0" r="1.0"/>
    <text stroke="none" x="333.0" y="787.0" font-size="20.0" font-family="helvetica">97</text>
   </g>
   <g>
    <circle stroke="black" stroke-width="0.5" fill="#aaffff" cx="346.0" cy="421.0" r="1.0"/>
    <text stroke="none" x="346.0" y="421.0" font-size="10.0" font-family="helvetica">NT1.16</text>
   </g>
   <g>
    <circle stroke="black" stroke-width="0.5" fill="#aaffff" cx="363.0" cy="912.0" r="1.0"/>
    <text stroke="none" x="363.0" y="912.0" font-size="10.0" font-family="helvetica">NT1.17</text>
   </g>
   <g>
    <circle stroke="black" stroke-width="0.5" fill="#aaffff" cx="365.0" cy="75.0" r="1.0"/>
    <text stroke="none" x="365.0" y="75.0" font-size="10.0" font-family="helvetica">NT1.18</text>
   </g>
   <g>
    <circle stroke="black" stroke-width="0.5" fill="#aaffff" cx="372.0" cy="451.0" r="1.0"/>
    <text stroke="none" x="372.0" y="451.0" font-size="20.0" font-family="helvetica">79</text>
   </g>
   <g>
    <circle stroke="black" stroke-width="0.5" fill="#aaffff" cx="380.0" cy="294.0" r="1.0"/>
    <text stroke="none" x="380.0" y="294.0" font-size="10.0" font-family="helvetica">NT1.20</text>
   </g>
   <g>
    <circle stroke="black" stroke-width="0.5" fill="#aaffff" cx="409.0" cy="723.0" r="1.0"/>
    <text stroke="none" x="409.0" y="723.0" font-size="20.0" font-family="helvetica"/>
   </g>
   <g>
    <circle stroke="black" stroke-width="0.5" fill="#aaffff" cx="413.0" cy="935.0" r="1.0"/>
    <text stroke="none" x="413.0" y="935.0" font-size="20.0" font-family="helvetica"/>
   </g>
   <g>
    <circle stroke="black" stroke-width="0.5" fill="#aaffff" cx="425.0" cy="200.0" r="1.0"/>
    <text stroke="none" x="425.0" y="200.0" font-size="10.0" font-family="helvetica">NT1.23</text>
   </g>
   <g>
    <circle stroke="black" stroke-width="0.5" fill="#aaffff" cx="428.0" cy="12.0" r="1.0"/>
    <text stroke="none" x="428.0" y="12.0" font-size="20.0" font-family="helvetica"/>
   </g>
   <g>
    <circle stroke="black" stroke-width="0.5" fill="#aaffff" cx="433.0" cy="515.0" r="1.0"/>
    <text stroke="none" x="433.0" y="515.0" font-size="20.0" font-family="helvetica"/>
   </g>
   <g>
    <circle stroke="black" stroke-width="0.5" fill="#aaffff" cx="434.0" cy="767.0" r="1.0"/>
    <text stroke="none" x="434.0" y="767.0" font-size="20.0" font-family="helvetica">Virgibacillus proomii LMG 12370T (AJ012667)</text>
   </g>
   <g>
    <circle stroke="black" stroke-width="0.5" fill="#aaffff" cx="435.0" cy="809.0" r="1.0"/>
    <text stroke="none" x="435.0" y="809.0" font-size="20.0" font-family="helvetica">Virgibacillus pantothenticus NCDO 1765T (X60627)</text>
   </g>
   <g>
    <circle stroke="black" stroke-width="0.5" fill="#aaffff" cx="450.0" cy="851.0" r="1.0"/>
    <text stroke="none" x="450.0" y="851.0" font-size="20.0" font-family="helvetica">Bacillus Iicheniformis NCDO 1772T (X60623)</text>
   </g>
   <g>
    <circle stroke="black" stroke-width="0.5" fill="#aaffff" cx="454.0" cy="976.0" r="1.0"/>
    <text stroke="none" x="454.0" y="976.0" font-size="20.0" font-family="helvetica">Brevibacillus brevis JCM 2503T (D78457)</text>
   </g>
   <g>
    <circle stroke="black" stroke-width="0.5" fill="#aaffff" cx="460.0" cy="220.0" r="1.0"/>
    <text stroke="none" x="460.0" y="220.0" font-size="20.0" font-family="helvetica"/>
   </g>
   <g>
    <circle stroke="black" stroke-width="0.5" fill="#aaffff" cx="466.0" cy="326.0" r="1.0"/>
    <text stroke="none" x="466.0" y="326.0" font-size="10.0" font-family="helvetica">NT1.31</text>
   </g>
   <g>
    <circle stroke="black" stroke-width="0.5" fill="#aaffff" cx="469.0" cy="473.0" r="1.0"/>
    <text stroke="none" x="469.0" y="473.0" font-size="20.0" font-family="helvetica">Filobacillus milosensis SH714T (AJ238042)</text>
   </g>
   <g>
    <circle stroke="black" stroke-width="0.5" fill="#aaffff" cx="469.0" cy="892.0" r="1.0"/>
    <text stroke="none" x="469.0" y="892.0" font-size="20.0" font-family="helvetica"/>
   </g>
   <g>
    <circle stroke="black" stroke-width="0.5" fill="#aaffff" cx="484.0" cy="53.0" r="1.0"/>
    <text stroke="none" x="484.0" y="53.0" font-size="20.0" font-family="helvetica"/>
   </g>
   <g>
    <circle stroke="black" stroke-width="0.5" fill="#aaffff" cx="486.0" cy="178.0" r="1.0"/>
    <text stroke="none" x="486.0" y="178.0" font-size="20.0" font-family="helvetica"/>
   </g>
   <g>
    <circle stroke="black" stroke-width="0.5" fill="#aaffff" cx="491.0" cy="306.0" r="1.0"/>
    <text stroke="none" x="491.0" y="306.0" font-size="20.0" font-family="helvetica"> Alkalibacillus filiformis 4AGT (AJ493661)</text>
   </g>
   <g>
    <circle stroke="black" stroke-width="0.5" fill="#aaffff" cx="497.0" cy="389.0" r="1.0"/>
    <text stroke="none" x="497.0" y="389.0" font-size="20.0" font-family="helvetica"/>
   </g>
   <g>
    <circle stroke="black" stroke-width="0.5" fill="#aaffff" cx="506.0" cy="556.0" r="1.0"/>
    <text stroke="none" x="506.0" y="556.0" font-size="20.0" font-family="helvetica"/>
   </g>
   <g>
    <circle stroke="black" stroke-width="0.5" fill="#aaffff" cx="506.0" cy="640.0" r="1.0"/>
    <text stroke="none" x="506.0" y="640.0" font-size="20.0" font-family="helvetica"/>
   </g>
   <g>
    <circle stroke="black" stroke-width="0.5" fill="#aaffff" cx="510.0" cy="348.0" r="1.0"/>
    <text stroke="none" x="510.0" y="348.0" font-size="20.0" font-family="helvetica"/>
   </g>
   <g>
    <circle stroke="black" stroke-width="0.5" fill="#aaffff" cx="510.0" cy="598.0" r="1.0"/>
    <text stroke="none" x="510.0" y="598.0" font-size="20.0" font-family="helvetica"/>
   </g>
   <g>
    <circle stroke="black" stroke-width="0.5" fill="#aaffff" cx="520.0" cy="432.0" r="1.0"/>
    <text stroke="none" x="520.0" y="432.0" font-size="20.0" font-family="helvetica"/>
   </g>
   <g>
    <circle stroke="black" stroke-width="0.5" fill="#aaffff" cx="550.0" cy="682.0" r="1.0"/>
    <text stroke="none" x="550.0" y="682.0" font-size="20.0" font-family="helvetica"/>
   </g>
   <g>
    <circle stroke="black" stroke-width="0.5" fill="#aaffff" cx="553.0" cy="264.0" r="1.0"/>
    <text stroke="none" x="553.0" y="264.0" font-size="20.0" font-family="helvetica"/>
   </g>
   <g>
    <circle stroke="black" stroke-width="0.5" fill="#aaffff" cx="557.0" cy="95.0" r="1.0"/>
    <text stroke="none" x="557.0" y="95.0" font-size="20.0" font-family="helvetica"/>
   </g>
   <g>
    <circle stroke="black" stroke-width="0.5" fill="#aaffff" cx="582.0" cy="136.0" r="1.0"/>
    <text stroke="none" x="582.0" y="136.0" font-size="20.0" font-family="helvetica"/>
   </g>
   <g>
    <circle stroke="black" stroke-width="0.5" fill="#aaffff" cx="5.0" cy="875.0" r="1.0"/>
    <text stroke="none" x="5.0" y="875.0" font-size="10.0" font-family="helvetica">NT1.47</text>
   </g>
   <line stroke="black" x1="428.0" y1="12.0" x2="305.0" y2="44.0" stroke-width="0.5"/>
   <line stroke="black" x1="484.0" y1="53.0" x2="365.0" y2="75.0" stroke-width="0.5"/>
   <line stroke="black" x1="557.0" y1="95.0" x2="365.0" y2="75.0" stroke-width="0.5"/>
   <line stroke="black" x1="460.0" y1="220.0" x2="425.0" y2="200.0" stroke-width="0.5"/>
   <line stroke="black" x1="486.0" y1="178.0" x2="425.0" y2="200.0" stroke-width="0.5"/>
   <line stroke="black" x1="582.0" y1="136.0" x2="278.0" y2="168.0" stroke-width="0.5"/>
   <line stroke="black" x1="469.0" y1="473.0" x2="372.0" y2="451.0" stroke-width="0.5"/>
   <line stroke="black" x1="510.0" y1="348.0" x2="466.0" y2="326.0" stroke-width="0.5"/>
   <line stroke="black" x1="520.0" y1="432.0" x2="372.0" y2="451.0" stroke-width="0.5"/>
   <line stroke="black" x1="553.0" y1="264.0" x2="380.0" y2="294.0" stroke-width="0.5"/>
   <line stroke="black" x1="433.0" y1="515.0" x2="312.0" y2="537.0" stroke-width="0.5"/>
   <line stroke="black" x1="409.0" y1="723.0" x2="292.0" y2="755.0" stroke-width="0.5"/>
   <line stroke="black" x1="506.0" y1="556.0" x2="312.0" y2="537.0" stroke-width="0.5"/>
   <line stroke="black" x1="435.0" y1="809.0" x2="333.0" y2="787.0" stroke-width="0.5"/>
   <line stroke="black" x1="506.0" y1="640.0" x2="327.0" y2="662.0" stroke-width="0.5"/>
   <line stroke="black" x1="550.0" y1="682.0" x2="327.0" y2="662.0" stroke-width="0.5"/>
   <line stroke="black" x1="450.0" y1="851.0" x2="196.0" y2="638.0" stroke-width="0.5"/>
   <line stroke="black" x1="413.0" y1="935.0" x2="363.0" y2="912.0" stroke-width="0.5"/>
   <line stroke="black" x1="469.0" y1="892.0" x2="363.0" y2="912.0" stroke-width="0.5"/>
   <line stroke="black" x1="305.0" y1="44.0" x2="246.0" y2="105.0" stroke-width="0.5"/>
   <line stroke="black" x1="305.0" y1="44.0" x2="365.0" y2="75.0" stroke-width="0.5"/>
   <line stroke="black" x1="246.0" y1="105.0" x2="233.0" y2="233.0" stroke-width="0.5"/>
   <line stroke="black" x1="246.0" y1="105.0" x2="278.0" y2="168.0" stroke-width="0.5"/>
   <line stroke="black" x1="278.0" y1="168.0" x2="425.0" y2="200.0" stroke-width="0.5"/>
   <line stroke="black" x1="233.0" y1="233.0" x2="305.0" y2="358.0" stroke-width="0.5"/>
   <line stroke="black" x1="305.0" y1="358.0" x2="346.0" y2="421.0" stroke-width="0.5"/>
   <line stroke="black" x1="305.0" y1="358.0" x2="380.0" y2="294.0" stroke-width="0.5"/>
   <line stroke="black" x1="220.0" y1="424.0" x2="196.0" y2="638.0" stroke-width="0.5"/>
   <line stroke="black" x1="220.0" y1="424.0" x2="231.0" y2="615.0" stroke-width="0.5"/>
   <line stroke="black" x1="346.0" y1="421.0" x2="372.0" y2="451.0" stroke-width="0.5"/>
   <line stroke="black" x1="380.0" y1="294.0" x2="466.0" y2="326.0" stroke-width="0.5"/>
   <line stroke="black" x1="231.0" y1="615.0" x2="263.0" y2="693.0" stroke-width="0.5"/>
   <line stroke="black" x1="231.0" y1="615.0" x2="312.0" y2="537.0" stroke-width="0.5"/>
   <line stroke="black" x1="196.0" y1="638.0" x2="156.0" y2="775.0" stroke-width="0.5"/>
   <line stroke="black" x1="263.0" y1="693.0" x2="292.0" y2="755.0" stroke-width="0.5"/>
   <line stroke="black" x1="263.0" y1="693.0" x2="271.0" y2="631.0" stroke-width="0.5"/>
   <line stroke="black" x1="271.0" y1="631.0" x2="327.0" y2="662.0" stroke-width="0.5"/>
   <line stroke="black" x1="292.0" y1="755.0" x2="333.0" y2="787.0" stroke-width="0.5"/>
   <line stroke="black" x1="156.0" y1="775.0" x2="363.0" y2="912.0" stroke-width="0.5"/>
   <line stroke="black" x1="5.0" y1="875.0" x2="454.0" y2="976.0" stroke-width="0.5"/>
   <line stroke="black" x1="5.0" y1="875.0" x2="156.0" y2="775.0" stroke-width="0.5"/>
   <line stroke="black" x1="233.0" y1="233.0" x2="220.0" y2="424.0" stroke-width="0.5"/>
   <line stroke="black" x1="510.0" y1="598.0" x2="271.0" y2="631.0" stroke-width="0.5"/>
   <line stroke="black" x1="434.0" y1="767.0" x2="333.0" y2="787.0" stroke-width="0.5"/>
   <line stroke="black" x1="497.0" y1="389.0" x2="346.0" y2="421.0" stroke-width="0.5"/>
   <line stroke="black" x1="491.0" y1="306.0" x2="466.0" y2="326.0" stroke-width="0.5"/>
  </g>
 </g>
</svg>
