<?xml version="1.0" encoding="UTF-8"?>
<svg xmlns="http://www.w3.org/2000/svg">
 <g>
  <g>
   <g>
    <circle stroke="black" stroke-width="0.5" fill="#aaffff" cx="34.0" cy="385.0" r="1.0"/>
    <text stroke="none" x="34.0" y="385.0" font-size="10.0" font-family="helvetica">NT1.1</text>
   </g>
   <g>
    <circle stroke="black" stroke-width="0.5" fill="#aaffff" cx="115.0" cy="325.0" r="1.0"/>
    <text stroke="none" x="115.0" y="325.0" font-size="10.0" font-family="helvetica">NT1.2</text>
   </g>
   <g>
    <circle stroke="black" stroke-width="0.5" fill="#aaffff" cx="225.0" cy="272.0" r="1.0"/>
    <text stroke="none" x="225.0" y="272.0" font-size="20.0" font-family="helvetica">100</text>
   </g>
   <g>
    <circle stroke="black" stroke-width="0.5" fill="#aaffff" cx="259.0" cy="213.0" r="1.0"/>
    <text stroke="none" x="259.0" y="213.0" font-size="10.0" font-family="helvetica">NT1.4</text>
   </g>
   <g>
    <circle stroke="black" stroke-width="0.5" fill="#aaffff" cx="278.0" cy="443.0" r="1.0"/>
    <text stroke="none" x="278.0" y="443.0" font-size="10.0" font-family="helvetica">NT1.5</text>
   </g>
   <g>
    <circle stroke="black" stroke-width="0.5" fill="#aaffff" cx="280.0" cy="330.0" r="1.0"/>
    <text stroke="none" x="280.0" y="330.0" font-size="20.0" font-family="helvetica">V. atypical ATCC 17744T (AY995768)</text>
   </g>
   <g>
    <circle stroke="black" stroke-width="0.5" fill="#aaffff" cx="281.0" cy="140.0" r="1.0"/>
    <text stroke="none" x="281.0" y="140.0" font-size="20.0" font-family="helvetica">84</text>
   </g>
   <g>
    <circle stroke="black" stroke-width="0.5" fill="#aaffff" cx="284.0" cy="511.0" r="1.0"/>
    <text stroke="none" x="284.0" y="511.0" font-size="20.0" font-family="helvetica">//</text>
   </g>
   <g>
    <circle stroke="black" stroke-width="0.5" fill="#aaffff" cx="299.0" cy="72.0" r="1.0"/>
    <text stroke="none" x="299.0" y="72.0" font-size="20.0" font-family="helvetica">90</text>
   </g>
   <g>
    <circle stroke="black" stroke-width="0.5" fill="#aaffff" cx="307.0" cy="205.0" r="1.0"/>
    <text stroke="none" x="307.0" y="205.0" font-size="20.0" font-family="helvetica">95</text>
   </g>
   <g>
    <circle stroke="black" stroke-width="0.5" fill="#aaffff" cx="313.0" cy="38.0" r="1.0"/>
    <text stroke="none" x="313.0" y="38.0" font-size="20.0" font-family="helvetica">90</text>
   </g>
   <g>
    <circle stroke="black" stroke-width="0.5" fill="#aaffff" cx="320.0" cy="174.0" r="1.0"/>
    <text stroke="none" x="320.0" y="174.0" font-size="10.0" font-family="helvetica">NT1.12</text>
   </g>
   <g>
    <circle stroke="black" stroke-width="0.5" fill="#aaffff" cx="321.0" cy="194.0" r="1.0"/>
    <text stroke="none" x="321.0" y="194.0" font-size="20.0" font-family="helvetica">V. denticariosi RBV106'r (EF1 85167)</text>
   </g>
   <g>
    <circle stroke="black" stroke-width="0.5" fill="#aaffff" cx="321.0" cy="151.0" r="1.0"/>
    <text stroke="none" x="321.0" y="151.0" font-size="20.0" font-family="helvetica"/>
   </g>
   <g>
    <circle stroke="black" stroke-width="0.5" fill="#aaffff" cx="321.0" cy="422.0" r="1.0"/>
    <text stroke="none" x="321.0" y="422.0" font-size="20.0" font-family="helvetica"/>
   </g>
   <g>
    <circle stroke="black" stroke-width="0.5" fill="#aaffff" cx="328.0" cy="104.0" r="1.0"/>
    <text stroke="none" x="328.0" y="104.0" font-size="20.0" font-family="helvetica">V dispar ATCC 17748T (AY995770)</text>
   </g>
   <g>
    <circle stroke="black" stroke-width="0.5" fill="#aaffff" cx="332.0" cy="285.0" r="1.0"/>
    <text stroke="none" x="332.0" y="285.0" font-size="20.0" font-family="helvetica"/>
   </g>
   <g>
    <circle stroke="black" stroke-width="0.5" fill="#aaffff" cx="336.0" cy="15.0" r="1.0"/>
    <text stroke="none" x="336.0" y="15.0" font-size="20.0" font-family="helvetica"/>
   </g>
   <g>
    <circle stroke="black" stroke-width="0.5" fill="#aaffff" cx="340.0" cy="466.0" r="1.0"/>
    <text stroke="none" x="340.0" y="466.0" font-size="20.0" font-family="helvetica">V. criceti ATCC 17747T (AF186072)</text>
   </g>
   <g>
    <circle stroke="black" stroke-width="0.5" fill="#aaffff" cx="341.0" cy="59.0" r="1.0"/>
    <text stroke="none" x="341.0" y="59.0" font-size="20.0" font-family="helvetica">V. parvula ATCC 10790T (AY995767)</text>
   </g>
   <g>
    <circle stroke="black" stroke-width="0.5" fill="#aaffff" cx="390.0" cy="240.0" r="1.0"/>
    <text stroke="none" x="390.0" y="240.0" font-size="20.0" font-family="helvetica">V. rodentium ATCC 17743T (AY514996)</text>
   </g>
   <g>
    <circle stroke="black" stroke-width="0.5" fill="#aaffff" cx="484.0" cy="376.0" r="1.0"/>
    <text stroke="none" x="484.0" y="376.0" font-size="20.0" font-family="helvetica"> V. montpelIierensis ADV 281 .99T (AF473836)</text>
   </g>
   <g>
    <circle stroke="black" stroke-width="0.5" fill="#aaffff" cx="1.0" cy="448.0" r="1.0"/>
    <text stroke="none" x="1.0" y="448.0" font-size="10.0" font-family="helvetica">NT1.23</text>
   </g>
   <line stroke="black" x1="336.0" y1="15.0" x2="313.0" y2="38.0" stroke-width="0.5"/>
   <line stroke="black" x1="341.0" y1="59.0" x2="313.0" y2="38.0" stroke-width="0.5"/>
   <line stroke="black" x1="328.0" y1="104.0" x2="299.0" y2="72.0" stroke-width="0.5"/>
   <line stroke="black" x1="321.0" y1="194.0" x2="320.0" y2="174.0" stroke-width="0.5"/>
   <line stroke="black" x1="321.0" y1="151.0" x2="320.0" y2="174.0" stroke-width="0.5"/>
   <line stroke="black" x1="390.0" y1="240.0" x2="307.0" y2="205.0" stroke-width="0.5"/>
   <line stroke="black" x1="332.0" y1="285.0" x2="259.0" y2="213.0" stroke-width="0.5"/>
   <line stroke="black" x1="280.0" y1="330.0" x2="225.0" y2="272.0" stroke-width="0.5"/>
   <line stroke="black" x1="484.0" y1="376.0" x2="115.0" y2="325.0" stroke-width="0.5"/>
   <line stroke="black" x1="321.0" y1="422.0" x2="278.0" y2="443.0" stroke-width="0.5"/>
   <line stroke="black" x1="340.0" y1="466.0" x2="278.0" y2="443.0" stroke-width="0.5"/>
   <line stroke="black" x1="313.0" y1="38.0" x2="299.0" y2="72.0" stroke-width="0.5"/>
   <line stroke="black" x1="299.0" y1="72.0" x2="281.0" y2="140.0" stroke-width="0.5"/>
   <line stroke="black" x1="281.0" y1="140.0" x2="259.0" y2="213.0" stroke-width="0.5"/>
   <line stroke="black" x1="281.0" y1="140.0" x2="307.0" y2="205.0" stroke-width="0.5"/>
   <line stroke="black" x1="307.0" y1="205.0" x2="320.0" y2="174.0" stroke-width="0.5"/>
   <line stroke="black" x1="259.0" y1="213.0" x2="225.0" y2="272.0" stroke-width="0.5"/>
   <line stroke="black" x1="225.0" y1="272.0" x2="115.0" y2="325.0" stroke-width="0.5"/>
   <line stroke="black" x1="115.0" y1="325.0" x2="34.0" y2="385.0" stroke-width="0.5"/>
   <line stroke="black" x1="34.0" y1="385.0" x2="278.0" y2="443.0" stroke-width="0.5"/>
   <line stroke="black" x1="1.0" y1="448.0" x2="284.0" y2="511.0" stroke-width="0.5"/>
   <line stroke="black" x1="1.0" y1="448.0" x2="34.0" y2="385.0" stroke-width="0.5"/>
  </g>
 </g>
</svg>
