<?xml version="1.0" encoding="UTF-8"?>
<svg xmlns="http://www.w3.org/2000/svg">
 <g>
  <g>
   <g>
    <circle stroke="black" stroke-width="0.5" fill="#aaffff" cx="165.0" cy="895.0" r="1.0"/>
    <text stroke="none" x="165.0" y="895.0" font-size="20.0" font-family="helvetica">Dermabacter hominis DSM 7083T (X91034)</text>
   </g>
   <g>
    <circle stroke="black" stroke-width="0.5" fill="#aaffff" cx="165.0" cy="665.0" r="1.0"/>
    <text stroke="none" x="165.0" y="665.0" font-size="20.0" font-family="helvetica">100</text>
   </g>
   <g>
    <circle stroke="black" stroke-width="0.5" fill="#aaffff" cx="189.0" cy="507.0" r="1.0"/>
    <text stroke="none" x="189.0" y="507.0" font-size="10.0" font-family="helvetica">NT1.3</text>
   </g>
   <g>
    <circle stroke="black" stroke-width="0.5" fill="#aaffff" cx="196.0" cy="654.0" r="1.0"/>
    <text stroke="none" x="196.0" y="654.0" font-size="10.0" font-family="helvetica">NT1.4</text>
   </g>
   <g>
    <circle stroke="black" stroke-width="0.5" fill="#aaffff" cx="214.0" cy="708.0" r="1.0"/>
    <text stroke="none" x="214.0" y="708.0" font-size="10.0" font-family="helvetica">NT1.5</text>
   </g>
   <g>
    <circle stroke="black" stroke-width="0.5" fill="#aaffff" cx="227.0" cy="352.0" r="1.0"/>
    <text stroke="none" x="227.0" y="352.0" font-size="10.0" font-family="helvetica">NT1.6</text>
   </g>
   <g>
    <circle stroke="black" stroke-width="0.5" fill="#aaffff" cx="234.0" cy="822.0" r="1.0"/>
    <text stroke="none" x="234.0" y="822.0" font-size="20.0" font-family="helvetica">B. zhongshanense JBT (EF125186)</text>
   </g>
   <g>
    <circle stroke="black" stroke-width="0.5" fill="#aaffff" cx="237.0" cy="211.0" r="1.0"/>
    <text stroke="none" x="237.0" y="211.0" font-size="10.0" font-family="helvetica">NT1.8</text>
   </g>
   <g>
    <circle stroke="black" stroke-width="0.5" fill="#aaffff" cx="237.0" cy="486.0" r="1.0"/>
    <text stroke="none" x="237.0" y="486.0" font-size="10.0" font-family="helvetica">NT1.9</text>
   </g>
   <g>
    <circle stroke="black" stroke-width="0.5" fill="#aaffff" cx="268.0" cy="452.0" r="1.0"/>
    <text stroke="none" x="268.0" y="452.0" font-size="20.0" font-family="helvetica">B. sacelIi LMG 20345T (AJ415384)</text>
   </g>
   <g>
    <circle stroke="black" stroke-width="0.5" fill="#aaffff" cx="270.0" cy="599.0" r="1.0"/>
    <text stroke="none" x="270.0" y="599.0" font-size="20.0" font-family="helvetica">B. muris DSM 15460T (AJ537574)</text>
   </g>
   <g>
    <circle stroke="black" stroke-width="0.5" fill="#aaffff" cx="270.0" cy="77.0" r="1.0"/>
    <text stroke="none" x="270.0" y="77.0" font-size="10.0" font-family="helvetica">NT1.12</text>
   </g>
   <g>
    <circle stroke="black" stroke-width="0.5" fill="#aaffff" cx="289.0" cy="138.0" r="1.0"/>
    <text stroke="none" x="289.0" y="138.0" font-size="10.0" font-family="helvetica">NT1.13</text>
   </g>
   <g>
    <circle stroke="black" stroke-width="0.5" fill="#aaffff" cx="293.0" cy="339.0" r="1.0"/>
    <text stroke="none" x="293.0" y="339.0" font-size="10.0" font-family="helvetica">NT1.14</text>
   </g>
   <g>
    <circle stroke="black" stroke-width="0.5" fill="#aaffff" cx="301.0" cy="673.0" r="1.0"/>
    <text stroke="none" x="301.0" y="673.0" font-size="20.0" font-family="helvetica">B. nesterenkovii DSM 9573T (X91033)</text>
   </g>
   <g>
    <circle stroke="black" stroke-width="0.5" fill="#aaffff" cx="314.0" cy="529.0" r="1.0"/>
    <text stroke="none" x="314.0" y="529.0" font-size="20.0" font-family="helvetica">B. fresconis LMG 20336T (AJ415378)</text>
   </g>
   <g>
    <circle stroke="black" stroke-width="0.5" fill="#aaffff" cx="334.0" cy="748.0" r="1.0"/>
    <text stroke="none" x="334.0" y="748.0" font-size="20.0" font-family="helvetica">B. rhamnosum LMG 19848T (AJ415376)</text>
   </g>
   <g>
    <circle stroke="black" stroke-width="0.5" fill="#aaffff" cx="338.0" cy="304.0" r="1.0"/>
    <text stroke="none" x="338.0" y="304.0" font-size="20.0" font-family="helvetica">B. alimentarium LMG 19551T (X91031)</text>
   </g>
   <g>
    <circle stroke="black" stroke-width="0.5" fill="#aaffff" cx="341.0" cy="12.0" r="1.0"/>
    <text stroke="none" x="341.0" y="12.0" font-size="20.0" font-family="helvetica">‘B. arcticum’ Lact 5.2 (AF434185)</text>
   </g>
   <g>
    <circle stroke="black" stroke-width="0.5" fill="#aaffff" cx="344.0" cy="191.0" r="1.0"/>
    <text stroke="none" x="344.0" y="191.0" font-size="10.0" font-family="helvetica">NT1.20</text>
   </g>
   <g>
    <circle stroke="black" stroke-width="0.5" fill="#aaffff" cx="345.0" cy="158.0" r="1.0"/>
    <text stroke="none" x="345.0" y="158.0" font-size="20.0" font-family="helvetica">B. paraconglomeratum LMG 19861T (AJ415377)</text>
   </g>
   <g>
    <circle stroke="black" stroke-width="0.5" fill="#aaffff" cx="354.0" cy="379.0" r="1.0"/>
    <text stroke="none" x="354.0" y="379.0" font-size="20.0" font-family="helvetica">B. tyrofermentans LMG 19552T (X91657)</text>
   </g>
   <g>
    <circle stroke="black" stroke-width="0.5" fill="#aaffff" cx="357.0" cy="85.0" r="1.0"/>
    <text stroke="none" x="357.0" y="85.0" font-size="20.0" font-family="helvetica">B. faecium DSM 4810T (X83810)</text>
   </g>
   <g>
    <circle stroke="black" stroke-width="0.5" fill="#aaffff" cx="370.0" cy="233.0" r="1.0"/>
    <text stroke="none" x="370.0" y="233.0" font-size="20.0" font-family="helvetica">B. conglomeratum DSM 10241T (X91030)</text>
   </g>
   <g>
    <circle stroke="black" stroke-width="0.5" fill="#aaffff" cx="14.0" cy="780.0" r="1.0"/>
    <text stroke="none" x="14.0" y="780.0" font-size="10.0" font-family="helvetica">NT1.25</text>
   </g>
   <line stroke="black" x1="345.0" y1="158.0" x2="344.0" y2="191.0" stroke-width="0.5"/>
   <line stroke="black" x1="270.0" y1="599.0" x2="196.0" y2="654.0" stroke-width="0.5"/>
   <line stroke="black" x1="270.0" y1="77.0" x2="237.0" y2="211.0" stroke-width="0.5"/>
   <line stroke="black" x1="270.0" y1="77.0" x2="289.0" y2="138.0" stroke-width="0.5"/>
   <line stroke="black" x1="289.0" y1="138.0" x2="344.0" y2="191.0" stroke-width="0.5"/>
   <line stroke="black" x1="237.0" y1="211.0" x2="227.0" y2="352.0" stroke-width="0.5"/>
   <line stroke="black" x1="237.0" y1="211.0" x2="293.0" y2="339.0" stroke-width="0.5"/>
   <line stroke="black" x1="227.0" y1="352.0" x2="189.0" y2="507.0" stroke-width="0.5"/>
   <line stroke="black" x1="227.0" y1="352.0" x2="237.0" y2="486.0" stroke-width="0.5"/>
   <line stroke="black" x1="189.0" y1="507.0" x2="165.0" y2="665.0" stroke-width="0.5"/>
   <line stroke="black" x1="189.0" y1="507.0" x2="196.0" y2="654.0" stroke-width="0.5"/>
   <line stroke="black" x1="196.0" y1="654.0" x2="214.0" y2="708.0" stroke-width="0.5"/>
   <line stroke="black" x1="14.0" y1="780.0" x2="165.0" y2="665.0" stroke-width="0.5"/>
   <line stroke="black" x1="165.0" y1="895.0" x2="14.0" y2="780.0" stroke-width="0.5"/>
   <line stroke="black" x1="234.0" y1="822.0" x2="165.0" y2="665.0" stroke-width="0.5"/>
   <line stroke="black" x1="301.0" y1="673.0" x2="214.0" y2="708.0" stroke-width="0.5"/>
   <line stroke="black" x1="268.0" y1="452.0" x2="237.0" y2="486.0" stroke-width="0.5"/>
   <line stroke="black" x1="334.0" y1="748.0" x2="214.0" y2="708.0" stroke-width="0.5"/>
   <line stroke="black" x1="314.0" y1="529.0" x2="237.0" y2="486.0" stroke-width="0.5"/>
   <line stroke="black" x1="341.0" y1="12.0" x2="270.0" y2="77.0" stroke-width="0.5"/>
   <line stroke="black" x1="338.0" y1="304.0" x2="293.0" y2="339.0" stroke-width="0.5"/>
   <line stroke="black" x1="357.0" y1="85.0" x2="289.0" y2="138.0" stroke-width="0.5"/>
   <line stroke="black" x1="354.0" y1="379.0" x2="293.0" y2="339.0" stroke-width="0.5"/>
   <line stroke="black" x1="370.0" y1="233.0" x2="344.0" y2="191.0" stroke-width="0.5"/>
  </g>
 </g>
</svg>
