<?xml version="1.0" encoding="UTF-8"?>
<svg xmlns="http://www.w3.org/2000/svg">
 <g>
  <g>
   <g>
    <circle stroke="black" stroke-width="0.5" fill="#aaffff" cx="2.0" cy="530.0" r="1.0"/>
    <text stroke="none" x="2.0" y="530.0" font-size="20.0" font-family="helvetica"/>
   </g>
   <g>
    <circle stroke="black" stroke-width="0.5" fill="#aaffff" cx="141.0" cy="253.0" r="1.0"/>
    <text stroke="none" x="141.0" y="253.0" font-size="10.0" font-family="helvetica">NT1.2</text>
   </g>
   <g>
    <circle stroke="black" stroke-width="0.5" fill="#aaffff" cx="166.0" cy="485.0" r="1.0"/>
    <text stroke="none" x="166.0" y="485.0" font-size="10.0" font-family="helvetica">NT1.3</text>
   </g>
   <g>
    <circle stroke="black" stroke-width="0.5" fill="#aaffff" cx="168.0" cy="482.0" r="1.0"/>
    <text stroke="none" x="168.0" y="482.0" font-size="10.0" font-family="helvetica">NT1.4</text>
   </g>
   <g>
    <circle stroke="black" stroke-width="0.5" fill="#aaffff" cx="173.0" cy="482.0" r="1.0"/>
    <text stroke="none" x="173.0" y="482.0" font-size="20.0" font-family="helvetica"/>
   </g>
   <g>
    <circle stroke="black" stroke-width="0.5" fill="#aaffff" cx="191.0" cy="317.0" r="1.0"/>
    <text stroke="none" x="191.0" y="317.0" font-size="10.0" font-family="helvetica">NT1.6</text>
   </g>
   <g>
    <circle stroke="black" stroke-width="0.5" fill="#aaffff" cx="198.0" cy="316.0" r="1.0"/>
    <text stroke="none" x="198.0" y="316.0" font-size="20.0" font-family="helvetica"/>
   </g>
   <g>
    <circle stroke="black" stroke-width="0.5" fill="#aaffff" cx="225.0" cy="655.0" r="1.0"/>
    <text stroke="none" x="225.0" y="655.0" font-size="10.0" font-family="helvetica">NT1.8</text>
   </g>
   <g>
    <circle stroke="black" stroke-width="0.5" fill="#aaffff" cx="229.0" cy="218.0" r="1.0"/>
    <text stroke="none" x="229.0" y="218.0" font-size="10.0" font-family="helvetica">NT1.9</text>
   </g>
   <g>
    <circle stroke="black" stroke-width="0.5" fill="#aaffff" cx="233.0" cy="655.0" r="1.0"/>
    <text stroke="none" x="233.0" y="655.0" font-size="20.0" font-family="helvetica"/>
   </g>
   <g>
    <circle stroke="black" stroke-width="0.5" fill="#aaffff" cx="239.0" cy="219.0" r="1.0"/>
    <text stroke="none" x="239.0" y="219.0" font-size="20.0" font-family="helvetica"/>
   </g>
   <g>
    <circle stroke="black" stroke-width="0.5" fill="#aaffff" cx="274.0" cy="153.0" r="1.0"/>
    <text stroke="none" x="274.0" y="153.0" font-size="10.0" font-family="helvetica">NT1.12</text>
   </g>
   <g>
    <circle stroke="black" stroke-width="0.5" fill="#aaffff" cx="276.0" cy="158.0" r="1.0"/>
    <text stroke="none" x="276.0" y="158.0" font-size="10.0" font-family="helvetica">NT1.13</text>
   </g>
   <g>
    <circle stroke="black" stroke-width="0.5" fill="#aaffff" cx="283.0" cy="158.0" r="1.0"/>
    <text stroke="none" x="283.0" y="158.0" font-size="20.0" font-family="helvetica"/>
   </g>
   <g>
    <circle stroke="black" stroke-width="0.5" fill="#aaffff" cx="291.0" cy="591.0" r="1.0"/>
    <text stroke="none" x="291.0" y="591.0" font-size="10.0" font-family="helvetica">NT1.15</text>
   </g>
   <g>
    <circle stroke="black" stroke-width="0.5" fill="#aaffff" cx="300.0" cy="592.0" r="1.0"/>
    <text stroke="none" x="300.0" y="592.0" font-size="20.0" font-family="helvetica"/>
   </g>
   <g>
    <circle stroke="black" stroke-width="0.5" fill="#aaffff" cx="309.0" cy="414.0" r="1.0"/>
    <text stroke="none" x="309.0" y="414.0" font-size="10.0" font-family="helvetica">NT1.17</text>
   </g>
   <g>
    <circle stroke="black" stroke-width="0.5" fill="#aaffff" cx="311.0" cy="419.0" r="1.0"/>
    <text stroke="none" x="311.0" y="419.0" font-size="10.0" font-family="helvetica">NT1.18</text>
   </g>
   <g>
    <circle stroke="black" stroke-width="0.5" fill="#aaffff" cx="319.0" cy="419.0" r="1.0"/>
    <text stroke="none" x="319.0" y="419.0" font-size="20.0" font-family="helvetica"/>
   </g>
   <g>
    <circle stroke="black" stroke-width="0.5" fill="#aaffff" cx="427.0" cy="20.0" r="1.0"/>
    <text stroke="none" x="427.0" y="20.0" font-size="20.0" font-family="helvetica">Protein ilmrus etllanoligenes GWT (E F] 16488)</text>
   </g>
   <g>
    <circle stroke="black" stroke-width="0.5" fill="#aaffff" cx="427.0" cy="108.0" r="1.0"/>
    <text stroke="none" x="427.0" y="108.0" font-size="20.0" font-family="helvetica">Clas/ridium purmllylicum ATCC 33906T (M60491)</text>
   </g>
   <g>
    <circle stroke="black" stroke-width="0.5" fill="#aaffff" cx="470.0" cy="196.0" r="1.0"/>
    <text stroke="none" x="470.0" y="196.0" font-size="20.0" font-family="helvetica"/>
   </g>
   <g>
    <circle stroke="black" stroke-width="0.5" fill="#aaffff" cx="473.0" cy="283.0" r="1.0"/>
    <text stroke="none" x="473.0" y="283.0" font-size="20.0" font-family="helvetica">Eubacterium angustum ATCC 43737l (L346l2)</text>
   </g>
   <g>
    <circle stroke="black" stroke-width="0.5" fill="#aaffff" cx="480.0" cy="722.0" r="1.0"/>
    <text stroke="none" x="480.0" y="722.0" font-size="20.0" font-family="helvetica">Tepidimicrobiumférrlpl’tilum DSM |6624T (AY656718)</text>
   </g>
   <g>
    <circle stroke="black" stroke-width="0.5" fill="#aaffff" cx="492.0" cy="546.0" r="1.0"/>
    <text stroke="none" x="492.0" y="546.0" font-size="20.0" font-family="helvetica">Tissierella praeacuta ATCC 25539T (X80833</text>
   </g>
   <g>
    <circle stroke="black" stroke-width="0.5" fill="#aaffff" cx="509.0" cy="371.0" r="1.0"/>
    <text stroke="none" x="509.0" y="371.0" font-size="20.0" font-family="helvetica">Cularanaerabacter azaremlx DSM 13643T (A1272422)</text>
   </g>
   <g>
    <circle stroke="black" stroke-width="0.5" fill="#aaffff" cx="562.0" cy="634.0" r="1.0"/>
    <text stroke="none" x="562.0" y="634.0" font-size="20.0" font-family="helvetica">Soehngem'a saccharobfiicu BOR-YT (AY353956)</text>
   </g>
   <g>
    <circle stroke="black" stroke-width="0.5" fill="#aaffff" cx="627.0" cy="459.0" r="1.0"/>
    <text stroke="none" x="627.0" y="459.0" font-size="20.0" font-family="helvetica"/>
   </g>
   <line stroke="black" x1="173.0" y1="482.0" x2="168.0" y2="482.0" stroke-width="0.5"/>
   <line stroke="black" x1="198.0" y1="316.0" x2="191.0" y2="317.0" stroke-width="0.5"/>
   <line stroke="black" x1="233.0" y1="655.0" x2="225.0" y2="655.0" stroke-width="0.5"/>
   <line stroke="black" x1="239.0" y1="219.0" x2="229.0" y2="218.0" stroke-width="0.5"/>
   <line stroke="black" x1="300.0" y1="592.0" x2="291.0" y2="591.0" stroke-width="0.5"/>
   <line stroke="black" x1="319.0" y1="419.0" x2="311.0" y2="419.0" stroke-width="0.5"/>
   <line stroke="black" x1="283.0" y1="158.0" x2="276.0" y2="158.0" stroke-width="0.5"/>
   <line stroke="black" x1="480.0" y1="722.0" x2="225.0" y2="655.0" stroke-width="0.5"/>
   <line stroke="black" x1="427.0" y1="108.0" x2="274.0" y2="153.0" stroke-width="0.5"/>
   <line stroke="black" x1="473.0" y1="283.0" x2="229.0" y2="218.0" stroke-width="0.5"/>
   <line stroke="black" x1="470.0" y1="196.0" x2="276.0" y2="158.0" stroke-width="0.5"/>
   <line stroke="black" x1="562.0" y1="634.0" x2="291.0" y2="591.0" stroke-width="0.5"/>
   <line stroke="black" x1="627.0" y1="459.0" x2="311.0" y2="419.0" stroke-width="0.5"/>
   <line stroke="black" x1="141.0" y1="253.0" x2="166.0" y2="485.0" stroke-width="0.5"/>
   <line stroke="black" x1="166.0" y1="485.0" x2="225.0" y2="655.0" stroke-width="0.5"/>
   <line stroke="black" x1="166.0" y1="485.0" x2="168.0" y2="482.0" stroke-width="0.5"/>
   <line stroke="black" x1="168.0" y1="482.0" x2="191.0" y2="317.0" stroke-width="0.5"/>
   <line stroke="black" x1="191.0" y1="317.0" x2="309.0" y2="414.0" stroke-width="0.5"/>
   <line stroke="black" x1="191.0" y1="317.0" x2="229.0" y2="218.0" stroke-width="0.5"/>
   <line stroke="black" x1="225.0" y1="655.0" x2="291.0" y2="591.0" stroke-width="0.5"/>
   <line stroke="black" x1="229.0" y1="218.0" x2="274.0" y2="153.0" stroke-width="0.5"/>
   <line stroke="black" x1="309.0" y1="414.0" x2="311.0" y2="419.0" stroke-width="0.5"/>
   <line stroke="black" x1="274.0" y1="153.0" x2="276.0" y2="158.0" stroke-width="0.5"/>
   <line stroke="black" x1="2.0" y1="530.0" x2="141.0" y2="253.0" stroke-width="0.5"/>
   <line stroke="black" x1="427.0" y1="20.0" x2="141.0" y2="253.0" stroke-width="0.5"/>
   <line stroke="black" x1="492.0" y1="546.0" x2="291.0" y2="591.0" stroke-width="0.5"/>
   <line stroke="black" x1="509.0" y1="371.0" x2="309.0" y2="414.0" stroke-width="0.5"/>
  </g>
 </g>
</svg>
