<?xml version="1.0" encoding="UTF-8"?>
<svg xmlns="http://www.w3.org/2000/svg">
 <g>
  <g>
   <g>
    <circle stroke="black" stroke-width="0.5" fill="#aaffff" cx="1295.0" cy="361.0" r="1.0"/>
    <text stroke="none" x="1295.0" y="361.0" font-size="10.0" font-family="helvetica">NT1.1</text>
   </g>
   <g>
    <circle stroke="black" stroke-width="0.5" fill="#aaffff" cx="1343.0" cy="417.0" r="1.0"/>
    <text stroke="none" x="1343.0" y="417.0" font-size="10.0" font-family="helvetica">NT1.2</text>
   </g>
   <g>
    <circle stroke="black" stroke-width="0.5" fill="#aaffff" cx="1348.0" cy="79.0" r="1.0"/>
    <text stroke="none" x="1348.0" y="79.0" font-size="10.0" font-family="helvetica">NT1.3</text>
   </g>
   <g>
    <circle stroke="black" stroke-width="0.5" fill="#aaffff" cx="1353.0" cy="119.0" r="1.0"/>
    <text stroke="none" x="1353.0" y="119.0" font-size="10.0" font-family="helvetica">NT1.4</text>
   </g>
   <g>
    <circle stroke="black" stroke-width="0.5" fill="#aaffff" cx="1376.0" cy="464.0" r="1.0"/>
    <text stroke="none" x="1376.0" y="464.0" font-size="10.0" font-family="helvetica">NT1.5</text>
   </g>
   <g>
    <circle stroke="black" stroke-width="0.5" fill="#aaffff" cx="1381.0" cy="42.0" r="1.0"/>
    <text stroke="none" x="1381.0" y="42.0" font-size="20.0" font-family="helvetica">10"“ MmmSC-2</text>
   </g>
   <g>
    <circle stroke="black" stroke-width="0.5" fill="#aaffff" cx="1400.0" cy="159.0" r="1.0"/>
    <text stroke="none" x="1400.0" y="159.0" font-size="10.0" font-family="helvetica">NT1.7</text>
   </g>
   <g>
    <circle stroke="black" stroke-width="0.5" fill="#aaffff" cx="1404.0" cy="77.0" r="1.0"/>
    <text stroke="none" x="1404.0" y="77.0" font-size="20.0" font-family="helvetica">MmmLC-2</text>
   </g>
   <g>
    <circle stroke="black" stroke-width="0.5" fill="#aaffff" cx="1404.0" cy="462.0" r="1.0"/>
    <text stroke="none" x="1404.0" y="462.0" font-size="20.0" font-family="helvetica"/>
   </g>
   <g>
    <circle stroke="black" stroke-width="0.5" fill="#aaffff" cx="1404.0" cy="79.0" r="1.0"/>
    <text stroke="none" x="1404.0" y="79.0" font-size="10.0" font-family="helvetica">NT1.10</text>
   </g>
   <g>
    <circle stroke="black" stroke-width="0.5" fill="#aaffff" cx="1407.0" cy="80.0" r="1.0"/>
    <text stroke="none" x="1407.0" y="80.0" font-size="20.0" font-family="helvetica">MmmLC-2</text>
   </g>
   <g>
    <circle stroke="black" stroke-width="0.5" fill="#aaffff" cx="1415.0" cy="311.0" r="1.0"/>
    <text stroke="none" x="1415.0" y="311.0" font-size="20.0" font-family="helvetica">MmmLC-5</text>
   </g>
   <g>
    <circle stroke="black" stroke-width="0.5" fill="#aaffff" cx="1420.0" cy="516.0" r="1.0"/>
    <text stroke="none" x="1420.0" y="516.0" font-size="10.0" font-family="helvetica">NT1.13</text>
   </g>
   <g>
    <circle stroke="black" stroke-width="0.5" fill="#aaffff" cx="1438.0" cy="439.0" r="1.0"/>
    <text stroke="none" x="1438.0" y="439.0" font-size="20.0" font-family="helvetica"/>
   </g>
   <g>
    <circle stroke="black" stroke-width="0.5" fill="#aaffff" cx="1444.0" cy="374.0" r="1.0"/>
    <text stroke="none" x="1444.0" y="374.0" font-size="20.0" font-family="helvetica">97</text>
   </g>
   <g>
    <circle stroke="black" stroke-width="0.5" fill="#aaffff" cx="1458.0" cy="233.0" r="1.0"/>
    <text stroke="none" x="1458.0" y="233.0" font-size="10.0" font-family="helvetica">NT1.16</text>
   </g>
   <g>
    <circle stroke="black" stroke-width="0.5" fill="#aaffff" cx="1472.0" cy="513.0" r="1.0"/>
    <text stroke="none" x="1472.0" y="513.0" font-size="20.0" font-family="helvetica"/>
   </g>
   <g>
    <circle stroke="black" stroke-width="0.5" fill="#aaffff" cx="1472.0" cy="595.0" r="1.0"/>
    <text stroke="none" x="1472.0" y="595.0" font-size="20.0" font-family="helvetica"/>
   </g>
   <g>
    <circle stroke="black" stroke-width="0.5" fill="#aaffff" cx="1472.0" cy="565.0" r="1.0"/>
    <text stroke="none" x="1472.0" y="565.0" font-size="20.0" font-family="helvetica"/>
   </g>
   <g>
    <circle stroke="black" stroke-width="0.5" fill="#aaffff" cx="1472.0" cy="580.0" r="1.0"/>
    <text stroke="none" x="1472.0" y="580.0" font-size="10.0" font-family="helvetica">NT1.20</text>
   </g>
   <g>
    <circle stroke="black" stroke-width="0.5" fill="#aaffff" cx="1485.0" cy="105.0" r="1.0"/>
    <text stroke="none" x="1485.0" y="105.0" font-size="20.0" font-family="helvetica">MmmLC-1</text>
   </g>
   <g>
    <circle stroke="black" stroke-width="0.5" fill="#aaffff" cx="1512.0" cy="287.0" r="1.0"/>
    <text stroke="none" x="1512.0" y="287.0" font-size="20.0" font-family="helvetica">Mme-1</text>
   </g>
   <g>
    <circle stroke="black" stroke-width="0.5" fill="#aaffff" cx="1540.0" cy="205.0" r="1.0"/>
    <text stroke="none" x="1540.0" y="205.0" font-size="20.0" font-family="helvetica">Mme-3</text>
   </g>
   <g>
    <circle stroke="black" stroke-width="0.5" fill="#aaffff" cx="1285.0" cy="148.0" r="1.0"/>
    <text stroke="none" x="1285.0" y="148.0" font-size="10.0" font-family="helvetica">NT1.24</text>
   </g>
   <line stroke="black" x1="1381.0" y1="42.0" x2="1348.0" y2="79.0" stroke-width="0.5"/>
   <line stroke="black" x1="1404.0" y1="79.0" x2="1404.0" y2="77.0" stroke-width="0.5"/>
   <line stroke="black" x1="1407.0" y1="80.0" x2="1404.0" y2="79.0" stroke-width="0.5"/>
   <line stroke="black" x1="1444.0" y1="374.0" x2="1343.0" y2="417.0" stroke-width="0.5"/>
   <line stroke="black" x1="1420.0" y1="516.0" x2="1404.0" y2="462.0" stroke-width="0.5"/>
   <line stroke="black" x1="1420.0" y1="516.0" x2="1472.0" y2="513.0" stroke-width="0.5"/>
   <line stroke="black" x1="1472.0" y1="595.0" x2="1472.0" y2="580.0" stroke-width="0.5"/>
   <line stroke="black" x1="1472.0" y1="565.0" x2="1472.0" y2="580.0" stroke-width="0.5"/>
   <line stroke="black" x1="1348.0" y1="79.0" x2="1353.0" y2="119.0" stroke-width="0.5"/>
   <line stroke="black" x1="1353.0" y1="119.0" x2="1400.0" y2="159.0" stroke-width="0.5"/>
   <line stroke="black" x1="1295.0" y1="361.0" x2="1415.0" y2="311.0" stroke-width="0.5"/>
   <line stroke="black" x1="1295.0" y1="361.0" x2="1343.0" y2="417.0" stroke-width="0.5"/>
   <line stroke="black" x1="1343.0" y1="417.0" x2="1376.0" y2="464.0" stroke-width="0.5"/>
   <line stroke="black" x1="1376.0" y1="464.0" x2="1438.0" y2="439.0" stroke-width="0.5"/>
   <line stroke="black" x1="1376.0" y1="464.0" x2="1420.0" y2="516.0" stroke-width="0.5"/>
   <line stroke="black" x1="1420.0" y1="516.0" x2="1472.0" y2="580.0" stroke-width="0.5"/>
   <line stroke="black" x1="1285.0" y1="148.0" x2="1348.0" y2="79.0" stroke-width="0.5"/>
   <line stroke="black" x1="1295.0" y1="361.0" x2="1285.0" y2="148.0" stroke-width="0.5"/>
   <line stroke="black" x1="1353.0" y1="119.0" x2="1404.0" y2="79.0" stroke-width="0.5"/>
   <line stroke="black" x1="1400.0" y1="159.0" x2="1485.0" y2="105.0" stroke-width="0.5"/>
   <line stroke="black" x1="1400.0" y1="159.0" x2="1458.0" y2="233.0" stroke-width="0.5"/>
   <line stroke="black" x1="1512.0" y1="287.0" x2="1458.0" y2="233.0" stroke-width="0.5"/>
   <line stroke="black" x1="1540.0" y1="205.0" x2="1458.0" y2="233.0" stroke-width="0.5"/>
  </g>
 </g>
</svg>
