<?xml version="1.0" encoding="UTF-8"?>
<svg xmlns="http://www.w3.org/2000/svg">
 <g>
  <g>
   <g>
    <circle stroke="black" stroke-width="0.5" fill="#aaffff" cx="1.0" cy="501.0" r="1.0"/>
    <text stroke="none" x="1.0" y="501.0" font-size="20.0" font-family="helvetica"/>
   </g>
   <g>
    <circle stroke="black" stroke-width="0.5" fill="#aaffff" cx="76.0" cy="372.0" r="1.0"/>
    <text stroke="none" x="76.0" y="372.0" font-size="20.0" font-family="helvetica">«</text>
   </g>
   <g>
    <circle stroke="black" stroke-width="0.5" fill="#aaffff" cx="96.0" cy="214.0" r="1.0"/>
    <text stroke="none" x="96.0" y="214.0" font-size="10.0" font-family="helvetica">NT1.3</text>
   </g>
   <g>
    <circle stroke="black" stroke-width="0.5" fill="#aaffff" cx="96.0" cy="476.0" r="1.0"/>
    <text stroke="none" x="96.0" y="476.0" font-size="20.0" font-family="helvetica">68</text>
   </g>
   <g>
    <circle stroke="black" stroke-width="0.5" fill="#aaffff" cx="140.0" cy="412.0" r="1.0"/>
    <text stroke="none" x="140.0" y="412.0" font-size="20.0" font-family="helvetica"/>
   </g>
   <g>
    <circle stroke="black" stroke-width="0.5" fill="#aaffff" cx="142.0" cy="427.0" r="1.0"/>
    <text stroke="none" x="142.0" y="427.0" font-size="20.0" font-family="helvetica"/>
   </g>
   <g>
    <circle stroke="black" stroke-width="0.5" fill="#aaffff" cx="148.0" cy="413.0" r="1.0"/>
    <text stroke="none" x="148.0" y="413.0" font-size="20.0" font-family="helvetica">97</text>
   </g>
   <g>
    <circle stroke="black" stroke-width="0.5" fill="#aaffff" cx="151.0" cy="413.0" r="1.0"/>
    <text stroke="none" x="151.0" y="413.0" font-size="20.0" font-family="helvetica">97</text>
   </g>
   <g>
    <circle stroke="black" stroke-width="0.5" fill="#aaffff" cx="166.0" cy="174.0" r="1.0"/>
    <text stroke="none" x="166.0" y="174.0" font-size="10.0" font-family="helvetica">NT1.9</text>
   </g>
   <g>
    <circle stroke="black" stroke-width="0.5" fill="#aaffff" cx="189.0" cy="136.0" r="1.0"/>
    <text stroke="none" x="189.0" y="136.0" font-size="10.0" font-family="helvetica">NT1.10</text>
   </g>
   <g>
    <circle stroke="black" stroke-width="0.5" fill="#aaffff" cx="193.0" cy="252.0" r="1.0"/>
    <text stroke="none" x="193.0" y="252.0" font-size="20.0" font-family="helvetica"/>
   </g>
   <g>
    <circle stroke="black" stroke-width="0.5" fill="#aaffff" cx="206.0" cy="411.0" r="1.0"/>
    <text stroke="none" x="206.0" y="411.0" font-size="20.0" font-family="helvetica">Actinosynnema mirum DSM 43827T (X84447)</text>
   </g>
   <g>
    <circle stroke="black" stroke-width="0.5" fill="#aaffff" cx="231.0" cy="98.0" r="1.0"/>
    <text stroke="none" x="231.0" y="98.0" font-size="10.0" font-family="helvetica">NT1.13</text>
   </g>
   <g>
    <circle stroke="black" stroke-width="0.5" fill="#aaffff" cx="237.0" cy="172.0" r="1.0"/>
    <text stroke="none" x="237.0" y="172.0" font-size="20.0" font-family="helvetica">Lentzea albida IFO 16102T (ABOOG176)</text>
   </g>
   <g>
    <circle stroke="black" stroke-width="0.5" fill="#aaffff" cx="247.0" cy="491.0" r="1.0"/>
    <text stroke="none" x="247.0" y="491.0" font-size="20.0" font-family="helvetica">Saccharothrix Iongispora NRRL B-116116T (AF114809)</text>
   </g>
   <g>
    <circle stroke="black" stroke-width="0.5" fill="#aaffff" cx="260.0" cy="212.0" r="1.0"/>
    <text stroke="none" x="260.0" y="212.0" font-size="20.0" font-family="helvetica">Lentzea waywayandensis NRRL B46159T (A114813)</text>
   </g>
   <g>
    <circle stroke="black" stroke-width="0.5" fill="#aaffff" cx="291.0" cy="63.0" r="1.0"/>
    <text stroke="none" x="291.0" y="63.0" font-size="20.0" font-family="helvetica">90</text>
   </g>
   <g>
    <circle stroke="black" stroke-width="0.5" fill="#aaffff" cx="362.0" cy="92.0" r="1.0"/>
    <text stroke="none" x="362.0" y="92.0" font-size="20.0" font-family="helvetica">Lentzea ﬂaviverrucosa AS 4.0578T (AF183957)</text>
   </g>
   <g>
    <circle stroke="black" stroke-width="0.5" fill="#aaffff" cx="400.0" cy="13.0" r="1.0"/>
    <text stroke="none" x="400.0" y="13.0" font-size="20.0" font-family="helvetica">Lentzea albidocapillata DSM 44073T (X84321)</text>
   </g>
   <g>
    <circle stroke="black" stroke-width="0.5" fill="#aaffff" cx="420.0" cy="132.0" r="1.0"/>
    <text stroke="none" x="420.0" y="132.0" font-size="20.0" font-family="helvetica"/>
   </g>
   <line stroke="black" x1="400.0" y1="13.0" x2="291.0" y2="63.0" stroke-width="0.5"/>
   <line stroke="black" x1="362.0" y1="92.0" x2="291.0" y2="63.0" stroke-width="0.5"/>
   <line stroke="black" x1="237.0" y1="172.0" x2="189.0" y2="136.0" stroke-width="0.5"/>
   <line stroke="black" x1="420.0" y1="132.0" x2="231.0" y2="98.0" stroke-width="0.5"/>
   <line stroke="black" x1="260.0" y1="212.0" x2="166.0" y2="174.0" stroke-width="0.5"/>
   <line stroke="black" x1="193.0" y1="252.0" x2="96.0" y2="214.0" stroke-width="0.5"/>
   <line stroke="black" x1="1.0" y1="501.0" x2="76.0" y2="372.0" stroke-width="0.5"/>
   <line stroke="black" x1="140.0" y1="412.0" x2="148.0" y2="413.0" stroke-width="0.5"/>
   <line stroke="black" x1="142.0" y1="427.0" x2="148.0" y2="413.0" stroke-width="0.5"/>
   <line stroke="black" x1="206.0" y1="411.0" x2="151.0" y2="413.0" stroke-width="0.5"/>
   <line stroke="black" x1="247.0" y1="491.0" x2="96.0" y2="476.0" stroke-width="0.5"/>
   <line stroke="black" x1="291.0" y1="63.0" x2="231.0" y2="98.0" stroke-width="0.5"/>
   <line stroke="black" x1="231.0" y1="98.0" x2="189.0" y2="136.0" stroke-width="0.5"/>
   <line stroke="black" x1="189.0" y1="136.0" x2="166.0" y2="174.0" stroke-width="0.5"/>
   <line stroke="black" x1="166.0" y1="174.0" x2="96.0" y2="214.0" stroke-width="0.5"/>
   <line stroke="black" x1="96.0" y1="214.0" x2="76.0" y2="372.0" stroke-width="0.5"/>
   <line stroke="black" x1="76.0" y1="372.0" x2="96.0" y2="476.0" stroke-width="0.5"/>
   <line stroke="black" x1="96.0" y1="476.0" x2="151.0" y2="413.0" stroke-width="0.5"/>
   <line stroke="black" x1="151.0" y1="413.0" x2="148.0" y2="413.0" stroke-width="0.5"/>
  </g>
 </g>
</svg>
