<?xml version="1.0" encoding="UTF-8"?>
<svg xmlns="http://www.w3.org/2000/svg">
 <g>
  <g>
   <g>
    <circle stroke="black" stroke-width="0.5" fill="#aaffff" cx="46.0" cy="381.0" r="1.0"/>
    <text stroke="none" x="46.0" y="381.0" font-size="10.0" font-family="helvetica">NT1.1</text>
   </g>
   <g>
    <circle stroke="black" stroke-width="0.5" fill="#aaffff" cx="160.0" cy="330.0" r="1.0"/>
    <text stroke="none" x="160.0" y="330.0" font-size="20.0" font-family="helvetica">99</text>
   </g>
   <g>
    <circle stroke="black" stroke-width="0.5" fill="#aaffff" cx="194.0" cy="430.0" r="1.0"/>
    <text stroke="none" x="194.0" y="430.0" font-size="20.0" font-family="helvetica">V. rattiATCC 17746T (AY514998)</text>
   </g>
   <g>
    <circle stroke="black" stroke-width="0.5" fill="#aaffff" cx="219.0" cy="270.0" r="1.0"/>
    <text stroke="none" x="219.0" y="270.0" font-size="20.0" font-family="helvetica">9‘</text>
   </g>
   <g>
    <circle stroke="black" stroke-width="0.5" fill="#aaffff" cx="241.0" cy="471.0" r="1.0"/>
    <text stroke="none" x="241.0" y="471.0" font-size="20.0" font-family="helvetica">//—Megasphaera elsdenii ATCC 2594GT (AF013113)</text>
   </g>
   <g>
    <circle stroke="black" stroke-width="0.5" fill="#aaffff" cx="281.0" cy="192.0" r="1.0"/>
    <text stroke="none" x="281.0" y="192.0" font-size="10.0" font-family="helvetica">NT1.6</text>
   </g>
   <g>
    <circle stroke="black" stroke-width="0.5" fill="#aaffff" cx="286.0" cy="129.0" r="1.0"/>
    <text stroke="none" x="286.0" y="129.0" font-size="10.0" font-family="helvetica">NT1.7</text>
   </g>
   <g>
    <circle stroke="black" stroke-width="0.5" fill="#aaffff" cx="377.0" cy="388.0" r="1.0"/>
    <text stroke="none" x="377.0" y="388.0" font-size="20.0" font-family="helvetica">V. criceti DSM 20734T (AY353713)</text>
   </g>
   <g>
    <circle stroke="black" stroke-width="0.5" fill="#aaffff" cx="392.0" cy="77.0" r="1.0"/>
    <text stroke="none" x="392.0" y="77.0" font-size="20.0" font-family="helvetica">100</text>
   </g>
   <g>
    <circle stroke="black" stroke-width="0.5" fill="#aaffff" cx="446.0" cy="180.0" r="1.0"/>
    <text stroke="none" x="446.0" y="180.0" font-size="20.0" font-family="helvetica"/>
   </g>
   <g>
    <circle stroke="black" stroke-width="0.5" fill="#aaffff" cx="446.0" cy="252.0" r="1.0"/>
    <text stroke="none" x="446.0" y="252.0" font-size="10.0" font-family="helvetica">NT1.11</text>
   </g>
   <g>
    <circle stroke="black" stroke-width="0.5" fill="#aaffff" cx="449.0" cy="36.0" r="1.0"/>
    <text stroke="none" x="449.0" y="36.0" font-size="10.0" font-family="helvetica">NT1.12</text>
   </g>
   <g>
    <circle stroke="black" stroke-width="0.5" fill="#aaffff" cx="466.0" cy="116.0" r="1.0"/>
    <text stroke="none" x="466.0" y="116.0" font-size="10.0" font-family="helvetica">NT1.13</text>
   </g>
   <g>
    <circle stroke="black" stroke-width="0.5" fill="#aaffff" cx="477.0" cy="347.0" r="1.0"/>
    <text stroke="none" x="477.0" y="347.0" font-size="20.0" font-family="helvetica">V. montpelllerens/s ADV 281 .99T (AY353717)</text>
   </g>
   <g>
    <circle stroke="black" stroke-width="0.5" fill="#aaffff" cx="480.0" cy="138.0" r="1.0"/>
    <text stroke="none" x="480.0" y="138.0" font-size="20.0" font-family="helvetica"> V. parvula ATCC 17745 (AY514999)</text>
   </g>
   <g>
    <circle stroke="black" stroke-width="0.5" fill="#aaffff" cx="489.0" cy="97.0" r="1.0"/>
    <text stroke="none" x="489.0" y="97.0" font-size="20.0" font-family="helvetica"/>
   </g>
   <g>
    <circle stroke="black" stroke-width="0.5" fill="#aaffff" cx="494.0" cy="222.0" r="1.0"/>
    <text stroke="none" x="494.0" y="222.0" font-size="20.0" font-family="helvetica"/>
   </g>
   <g>
    <circle stroke="black" stroke-width="0.5" fill="#aaffff" cx="501.0" cy="282.0" r="1.0"/>
    <text stroke="none" x="501.0" y="282.0" font-size="10.0" font-family="helvetica">NT1.18</text>
   </g>
   <g>
    <circle stroke="black" stroke-width="0.5" fill="#aaffff" cx="503.0" cy="263.0" r="1.0"/>
    <text stroke="none" x="503.0" y="263.0" font-size="20.0" font-family="helvetica"/>
   </g>
   <g>
    <circle stroke="black" stroke-width="0.5" fill="#aaffff" cx="504.0" cy="15.0" r="1.0"/>
    <text stroke="none" x="504.0" y="15.0" font-size="20.0" font-family="helvetica"/>
   </g>
   <g>
    <circle stroke="black" stroke-width="0.5" fill="#aaffff" cx="513.0" cy="303.0" r="1.0"/>
    <text stroke="none" x="513.0" y="303.0" font-size="20.0" font-family="helvetica"/>
   </g>
   <g>
    <circle stroke="black" stroke-width="0.5" fill="#aaffff" cx="541.0" cy="55.0" r="1.0"/>
    <text stroke="none" x="541.0" y="55.0" font-size="20.0" font-family="helvetica">V. arypica ATCC 17744T (AF440436)</text>
   </g>
   <g>
    <circle stroke="black" stroke-width="0.5" fill="#aaffff" cx="2.0" cy="426.0" r="1.0"/>
    <text stroke="none" x="2.0" y="426.0" font-size="10.0" font-family="helvetica">NT1.23</text>
   </g>
   <line stroke="black" x1="504.0" y1="15.0" x2="449.0" y2="36.0" stroke-width="0.5"/>
   <line stroke="black" x1="541.0" y1="55.0" x2="449.0" y2="36.0" stroke-width="0.5"/>
   <line stroke="black" x1="480.0" y1="138.0" x2="466.0" y2="116.0" stroke-width="0.5"/>
   <line stroke="black" x1="489.0" y1="97.0" x2="466.0" y2="116.0" stroke-width="0.5"/>
   <line stroke="black" x1="446.0" y1="180.0" x2="286.0" y2="129.0" stroke-width="0.5"/>
   <line stroke="black" x1="494.0" y1="222.0" x2="446.0" y2="252.0" stroke-width="0.5"/>
   <line stroke="black" x1="503.0" y1="263.0" x2="501.0" y2="282.0" stroke-width="0.5"/>
   <line stroke="black" x1="513.0" y1="303.0" x2="501.0" y2="282.0" stroke-width="0.5"/>
   <line stroke="black" x1="477.0" y1="347.0" x2="219.0" y2="270.0" stroke-width="0.5"/>
   <line stroke="black" x1="377.0" y1="388.0" x2="160.0" y2="330.0" stroke-width="0.5"/>
   <line stroke="black" x1="194.0" y1="430.0" x2="46.0" y2="381.0" stroke-width="0.5"/>
   <line stroke="black" x1="449.0" y1="36.0" x2="392.0" y2="77.0" stroke-width="0.5"/>
   <line stroke="black" x1="392.0" y1="77.0" x2="286.0" y2="129.0" stroke-width="0.5"/>
   <line stroke="black" x1="392.0" y1="77.0" x2="466.0" y2="116.0" stroke-width="0.5"/>
   <line stroke="black" x1="286.0" y1="129.0" x2="281.0" y2="192.0" stroke-width="0.5"/>
   <line stroke="black" x1="281.0" y1="192.0" x2="219.0" y2="270.0" stroke-width="0.5"/>
   <line stroke="black" x1="281.0" y1="192.0" x2="446.0" y2="252.0" stroke-width="0.5"/>
   <line stroke="black" x1="219.0" y1="270.0" x2="160.0" y2="330.0" stroke-width="0.5"/>
   <line stroke="black" x1="446.0" y1="252.0" x2="501.0" y2="282.0" stroke-width="0.5"/>
   <line stroke="black" x1="160.0" y1="330.0" x2="46.0" y2="381.0" stroke-width="0.5"/>
   <line stroke="black" x1="2.0" y1="426.0" x2="241.0" y2="471.0" stroke-width="0.5"/>
   <line stroke="black" x1="2.0" y1="426.0" x2="46.0" y2="381.0" stroke-width="0.5"/>
  </g>
 </g>
</svg>
