<?xml version="1.0" encoding="UTF-8"?>
<svg xmlns="http://www.w3.org/2000/svg">
 <g>
  <g>
   <g>
    <circle stroke="black" stroke-width="0.5" fill="#aaffff" cx="4.0" cy="647.0" r="1.0"/>
    <text stroke="none" x="4.0" y="647.0" font-size="20.0" font-family="helvetica"/>
   </g>
   <g>
    <circle stroke="black" stroke-width="0.5" fill="#aaffff" cx="35.0" cy="647.0" r="1.0"/>
    <text stroke="none" x="35.0" y="647.0" font-size="10.0" font-family="helvetica">NT1.2</text>
   </g>
   <g>
    <circle stroke="black" stroke-width="0.5" fill="#aaffff" cx="62.0" cy="519.0" r="1.0"/>
    <text stroke="none" x="62.0" y="519.0" font-size="10.0" font-family="helvetica">NT1.3</text>
   </g>
   <g>
    <circle stroke="black" stroke-width="0.5" fill="#aaffff" cx="94.0" cy="376.0" r="1.0"/>
    <text stroke="none" x="94.0" y="376.0" font-size="10.0" font-family="helvetica">NT1.4</text>
   </g>
   <g>
    <circle stroke="black" stroke-width="0.5" fill="#aaffff" cx="103.0" cy="266.0" r="1.0"/>
    <text stroke="none" x="103.0" y="266.0" font-size="10.0" font-family="helvetica">NT1.5</text>
   </g>
   <g>
    <circle stroke="black" stroke-width="0.5" fill="#aaffff" cx="123.0" cy="670.0" r="1.0"/>
    <text stroke="none" x="123.0" y="670.0" font-size="10.0" font-family="helvetica">NT1.6</text>
   </g>
   <g>
    <circle stroke="black" stroke-width="0.5" fill="#aaffff" cx="128.0" cy="626.0" r="1.0"/>
    <text stroke="none" x="128.0" y="626.0" font-size="10.0" font-family="helvetica">NT1.7</text>
   </g>
   <g>
    <circle stroke="black" stroke-width="0.5" fill="#aaffff" cx="150.0" cy="315.0" r="1.0"/>
    <text stroke="none" x="150.0" y="315.0" font-size="10.0" font-family="helvetica">NT1.8</text>
   </g>
   <g>
    <circle stroke="black" stroke-width="0.5" fill="#aaffff" cx="155.0" cy="216.0" r="1.0"/>
    <text stroke="none" x="155.0" y="216.0" font-size="10.0" font-family="helvetica">NT1.9</text>
   </g>
   <g>
    <circle stroke="black" stroke-width="0.5" fill="#aaffff" cx="183.0" cy="715.0" r="1.0"/>
    <text stroke="none" x="183.0" y="715.0" font-size="10.0" font-family="helvetica">NT1.10</text>
   </g>
   <g>
    <circle stroke="black" stroke-width="0.5" fill="#aaffff" cx="202.0" cy="596.0" r="1.0"/>
    <text stroke="none" x="202.0" y="596.0" font-size="10.0" font-family="helvetica">NT1.11</text>
   </g>
   <g>
    <circle stroke="black" stroke-width="0.5" fill="#aaffff" cx="209.0" cy="101.0" r="1.0"/>
    <text stroke="none" x="209.0" y="101.0" font-size="10.0" font-family="helvetica">NT1.12</text>
   </g>
   <g>
    <circle stroke="black" stroke-width="0.5" fill="#aaffff" cx="210.0" cy="336.0" r="1.0"/>
    <text stroke="none" x="210.0" y="336.0" font-size="20.0" font-family="helvetica">A. neolithicus 23-st (AY507128)</text>
   </g>
   <g>
    <circle stroke="black" stroke-width="0.5" fill="#aaffff" cx="216.0" cy="215.0" r="1.0"/>
    <text stroke="none" x="216.0" y="215.0" font-size="20.0" font-family="helvetica">A. ramosum DSM 43045T (X77447)</text>
   </g>
   <g>
    <circle stroke="black" stroke-width="0.5" fill="#aaffff" cx="217.0" cy="295.0" r="1.0"/>
    <text stroke="none" x="217.0" y="295.0" font-size="20.0" font-family="helvetica">A. humatus CD5T (AY618216)</text>
   </g>
   <g>
    <circle stroke="black" stroke-width="0.5" fill="#aaffff" cx="227.0" cy="255.0" r="1.0"/>
    <text stroke="none" x="227.0" y="255.0" font-size="20.0" font-family="helvetica">A. subbeticus Z33T (AY737778)</text>
   </g>
   <g>
    <circle stroke="black" stroke-width="0.5" fill="#aaffff" cx="231.0" cy="470.0" r="1.0"/>
    <text stroke="none" x="231.0" y="470.0" font-size="10.0" font-family="helvetica">NT1.17</text>
   </g>
   <g>
    <circle stroke="black" stroke-width="0.5" fill="#aaffff" cx="243.0" cy="775.0" r="1.0"/>
    <text stroke="none" x="243.0" y="775.0" font-size="20.0" font-family="helvetica">A. rhizospherae IFO 16236T (A8023357)</text>
   </g>
   <g>
    <circle stroke="black" stroke-width="0.5" fill="#aaffff" cx="248.0" cy="655.0" r="1.0"/>
    <text stroke="none" x="248.0" y="655.0" font-size="20.0" font-family="helvetica">A. ulmi XIL01T (AY427830)</text>
   </g>
   <g>
    <circle stroke="black" stroke-width="0.5" fill="#aaffff" cx="251.0" cy="414.0" r="1.0"/>
    <text stroke="none" x="251.0" y="414.0" font-size="10.0" font-family="helvetica">NT1.20</text>
   </g>
   <g>
    <circle stroke="black" stroke-width="0.5" fill="#aaffff" cx="252.0" cy="96.0" r="1.0"/>
    <text stroke="none" x="252.0" y="96.0" font-size="20.0" font-family="helvetica">A. cerinus subsp. nitratus IMET 11532T (AY277619)</text>
   </g>
   <g>
    <circle stroke="black" stroke-width="0.5" fill="#aaffff" cx="256.0" cy="44.0" r="1.0"/>
    <text stroke="none" x="256.0" y="44.0" font-size="10.0" font-family="helvetica">NT1.22</text>
   </g>
   <g>
    <circle stroke="black" stroke-width="0.5" fill="#aaffff" cx="270.0" cy="455.0" r="1.0"/>
    <text stroke="none" x="270.0" y="455.0" font-size="20.0" font-family="helvetica">A. terreus DS-10T (EF363711)</text>
   </g>
   <g>
    <circle stroke="black" stroke-width="0.5" fill="#aaffff" cx="271.0" cy="525.0" r="1.0"/>
    <text stroke="none" x="271.0" y="525.0" font-size="10.0" font-family="helvetica">NT1.24</text>
   </g>
   <g>
    <circle stroke="black" stroke-width="0.5" fill="#aaffff" cx="277.0" cy="175.0" r="1.0"/>
    <text stroke="none" x="277.0" y="175.0" font-size="20.0" font-family="helvetica">A. albus VKM Ac—‘1800T (AF503917)</text>
   </g>
   <g>
    <circle stroke="black" stroke-width="0.5" fill="#aaffff" cx="293.0" cy="136.0" r="1.0"/>
    <text stroke="none" x="293.0" y="136.0" font-size="20.0" font-family="helvetica">A. fucosus ATCC 51764T (AY158025)</text>
   </g>
   <g>
    <circle stroke="black" stroke-width="0.5" fill="#aaffff" cx="297.0" cy="735.0" r="1.0"/>
    <text stroke="none" x="297.0" y="735.0" font-size="20.0" font-family="helvetica">A. Iuteolus IFO 16235T (ABOZ3356)</text>
   </g>
   <g>
    <circle stroke="black" stroke-width="0.5" fill="#aaffff" cx="305.0" cy="614.0" r="1.0"/>
    <text stroke="none" x="305.0" y="614.0" font-size="20.0" font-family="helvetica">A. aurantiacus YIM 21741T (AF389342)</text>
   </g>
   <g>
    <circle stroke="black" stroke-width="0.5" fill="#aaffff" cx="309.0" cy="375.0" r="1.0"/>
    <text stroke="none" x="309.0" y="375.0" font-size="20.0" font-family="helvetica">A. allii UMS-62T (DQ673873)</text>
   </g>
   <g>
    <circle stroke="black" stroke-width="0.5" fill="#aaffff" cx="310.0" cy="575.0" r="1.0"/>
    <text stroke="none" x="310.0" y="575.0" font-size="20.0" font-family="helvetica">A. medialanus DSM 20152T (X77449)</text>
   </g>
   <g>
    <circle stroke="black" stroke-width="0.5" fill="#aaffff" cx="318.0" cy="415.0" r="1.0"/>
    <text stroke="none" x="318.0" y="415.0" font-size="20.0" font-family="helvetica">A. salentinus 20-5T (AY507129)</text>
   </g>
   <g>
    <circle stroke="black" stroke-width="0.5" fill="#aaffff" cx="365.0" cy="16.0" r="1.0"/>
    <text stroke="none" x="365.0" y="16.0" font-size="20.0" font-family="helvetica">A. cerinus subsp. oer/nus JCM 9083T (D45060)</text>
   </g>
   <g>
    <circle stroke="black" stroke-width="0.5" fill="#aaffff" cx="368.0" cy="495.0" r="1.0"/>
    <text stroke="none" x="368.0" y="495.0" font-size="20.0" font-family="helvetica">A. italicus CD1T (AY618215)</text>
   </g>
   <g>
    <circle stroke="black" stroke-width="0.5" fill="#aaffff" cx="372.0" cy="535.0" r="1.0"/>
    <text stroke="none" x="372.0" y="535.0" font-size="20.0" font-family="helvetica">A. Iapidis CD55T (AY618217)</text>
   </g>
   <g>
    <circle stroke="black" stroke-width="0.5" fill="#aaffff" cx="395.0" cy="695.0" r="1.0"/>
    <text stroke="none" x="395.0" y="695.0" font-size="20.0" font-family="helvetica">A. bracchium IFO 16238T (A8023359)</text>
   </g>
   <g>
    <circle stroke="black" stroke-width="0.5" fill="#aaffff" cx="427.0" cy="56.0" r="1.0"/>
    <text stroke="none" x="427.0" y="56.0" font-size="20.0" font-family="helvetica">A. hippuratus JCM 9086T (045051)</text>
   </g>
   <line stroke="black" x1="252.0" y1="96.0" x2="209.0" y2="101.0" stroke-width="0.5"/>
   <line stroke="black" x1="365.0" y1="16.0" x2="256.0" y2="44.0" stroke-width="0.5"/>
   <line stroke="black" x1="427.0" y1="56.0" x2="256.0" y2="44.0" stroke-width="0.5"/>
   <line stroke="black" x1="277.0" y1="175.0" x2="209.0" y2="101.0" stroke-width="0.5"/>
   <line stroke="black" x1="216.0" y1="215.0" x2="209.0" y2="101.0" stroke-width="0.5"/>
   <line stroke="black" x1="227.0" y1="255.0" x2="155.0" y2="216.0" stroke-width="0.5"/>
   <line stroke="black" x1="210.0" y1="336.0" x2="150.0" y2="315.0" stroke-width="0.5"/>
   <line stroke="black" x1="217.0" y1="295.0" x2="150.0" y2="315.0" stroke-width="0.5"/>
   <line stroke="black" x1="4.0" y1="647.0" x2="35.0" y2="647.0" stroke-width="0.5"/>
   <line stroke="black" x1="309.0" y1="375.0" x2="251.0" y2="414.0" stroke-width="0.5"/>
   <line stroke="black" x1="368.0" y1="495.0" x2="271.0" y2="525.0" stroke-width="0.5"/>
   <line stroke="black" x1="372.0" y1="535.0" x2="271.0" y2="525.0" stroke-width="0.5"/>
   <line stroke="black" x1="310.0" y1="575.0" x2="202.0" y2="596.0" stroke-width="0.5"/>
   <line stroke="black" x1="256.0" y1="44.0" x2="209.0" y2="101.0" stroke-width="0.5"/>
   <line stroke="black" x1="209.0" y1="101.0" x2="155.0" y2="216.0" stroke-width="0.5"/>
   <line stroke="black" x1="155.0" y1="216.0" x2="103.0" y2="266.0" stroke-width="0.5"/>
   <line stroke="black" x1="103.0" y1="266.0" x2="94.0" y2="376.0" stroke-width="0.5"/>
   <line stroke="black" x1="103.0" y1="266.0" x2="150.0" y2="315.0" stroke-width="0.5"/>
   <line stroke="black" x1="94.0" y1="376.0" x2="62.0" y2="519.0" stroke-width="0.5"/>
   <line stroke="black" x1="94.0" y1="376.0" x2="231.0" y2="470.0" stroke-width="0.5"/>
   <line stroke="black" x1="62.0" y1="519.0" x2="35.0" y2="647.0" stroke-width="0.5"/>
   <line stroke="black" x1="62.0" y1="519.0" x2="123.0" y2="670.0" stroke-width="0.5"/>
   <line stroke="black" x1="231.0" y1="470.0" x2="271.0" y2="525.0" stroke-width="0.5"/>
   <line stroke="black" x1="231.0" y1="470.0" x2="251.0" y2="414.0" stroke-width="0.5"/>
   <line stroke="black" x1="123.0" y1="670.0" x2="183.0" y2="715.0" stroke-width="0.5"/>
   <line stroke="black" x1="123.0" y1="670.0" x2="128.0" y2="626.0" stroke-width="0.5"/>
   <line stroke="black" x1="128.0" y1="626.0" x2="202.0" y2="596.0" stroke-width="0.5"/>
   <line stroke="black" x1="243.0" y1="775.0" x2="35.0" y2="647.0" stroke-width="0.5"/>
   <line stroke="black" x1="248.0" y1="655.0" x2="128.0" y2="626.0" stroke-width="0.5"/>
   <line stroke="black" x1="305.0" y1="614.0" x2="202.0" y2="596.0" stroke-width="0.5"/>
   <line stroke="black" x1="297.0" y1="735.0" x2="183.0" y2="715.0" stroke-width="0.5"/>
   <line stroke="black" x1="293.0" y1="136.0" x2="209.0" y2="101.0" stroke-width="0.5"/>
   <line stroke="black" x1="395.0" y1="695.0" x2="183.0" y2="715.0" stroke-width="0.5"/>
   <line stroke="black" x1="270.0" y1="455.0" x2="251.0" y2="414.0" stroke-width="0.5"/>
   <line stroke="black" x1="318.0" y1="415.0" x2="251.0" y2="414.0" stroke-width="0.5"/>
  </g>
 </g>
</svg>
