<?xml version="1.0" encoding="UTF-8"?>
<svg xmlns="http://www.w3.org/2000/svg">
 <g>
  <g>
   <g>
    <circle stroke="black" stroke-width="0.5" fill="#aaffff" cx="2.0" cy="556.0" r="1.0"/>
    <text stroke="none" x="2.0" y="556.0" font-size="20.0" font-family="helvetica"/>
   </g>
   <g>
    <circle stroke="black" stroke-width="0.5" fill="#aaffff" cx="18.0" cy="556.0" r="1.0"/>
    <text stroke="none" x="18.0" y="556.0" font-size="10.0" font-family="helvetica">NT1.2</text>
   </g>
   <g>
    <circle stroke="black" stroke-width="0.5" fill="#aaffff" cx="213.0" cy="350.0" r="1.0"/>
    <text stroke="none" x="213.0" y="350.0" font-size="10.0" font-family="helvetica">NT1.3</text>
   </g>
   <g>
    <circle stroke="black" stroke-width="0.5" fill="#aaffff" cx="224.0" cy="291.0" r="1.0"/>
    <text stroke="none" x="224.0" y="291.0" font-size="10.0" font-family="helvetica">NT1.4</text>
   </g>
   <g>
    <circle stroke="black" stroke-width="0.5" fill="#aaffff" cx="276.0" cy="436.0" r="1.0"/>
    <text stroke="none" x="276.0" y="436.0" font-size="10.0" font-family="helvetica">NT1.5</text>
   </g>
   <g>
    <circle stroke="black" stroke-width="0.5" fill="#aaffff" cx="334.0" cy="319.0" r="1.0"/>
    <text stroke="none" x="334.0" y="319.0" font-size="10.0" font-family="helvetica">NT1.6</text>
   </g>
   <g>
    <circle stroke="black" stroke-width="0.5" fill="#aaffff" cx="357.0" cy="175.0" r="1.0"/>
    <text stroke="none" x="357.0" y="175.0" font-size="10.0" font-family="helvetica">NT1.7</text>
   </g>
   <g>
    <circle stroke="black" stroke-width="0.5" fill="#aaffff" cx="426.0" cy="611.0" r="1.0"/>
    <text stroke="none" x="426.0" y="611.0" font-size="10.0" font-family="helvetica">NT1.8</text>
   </g>
   <g>
    <circle stroke="black" stroke-width="0.5" fill="#aaffff" cx="428.0" cy="146.0" r="1.0"/>
    <text stroke="none" x="428.0" y="146.0" font-size="10.0" font-family="helvetica">NT1.9</text>
   </g>
   <g>
    <circle stroke="black" stroke-width="0.5" fill="#aaffff" cx="439.0" cy="261.0" r="1.0"/>
    <text stroke="none" x="439.0" y="261.0" font-size="10.0" font-family="helvetica">NT1.10</text>
   </g>
   <g>
    <circle stroke="black" stroke-width="0.5" fill="#aaffff" cx="473.0" cy="408.0" r="1.0"/>
    <text stroke="none" x="473.0" y="408.0" font-size="10.0" font-family="helvetica">NT1.11</text>
   </g>
   <g>
    <circle stroke="black" stroke-width="0.5" fill="#aaffff" cx="502.0" cy="233.0" r="1.0"/>
    <text stroke="none" x="502.0" y="233.0" font-size="10.0" font-family="helvetica">NT1.12</text>
   </g>
   <g>
    <circle stroke="black" stroke-width="0.5" fill="#aaffff" cx="511.0" cy="640.0" r="1.0"/>
    <text stroke="none" x="511.0" y="640.0" font-size="10.0" font-family="helvetica">NT1.13</text>
   </g>
   <g>
    <circle stroke="black" stroke-width="0.5" fill="#aaffff" cx="545.0" cy="583.0" r="1.0"/>
    <text stroke="none" x="545.0" y="583.0" font-size="10.0" font-family="helvetica">NT1.14</text>
   </g>
   <g>
    <circle stroke="black" stroke-width="0.5" fill="#aaffff" cx="612.0" cy="465.0" r="1.0"/>
    <text stroke="none" x="612.0" y="465.0" font-size="10.0" font-family="helvetica">NT1.15</text>
   </g>
   <g>
    <circle stroke="black" stroke-width="0.5" fill="#aaffff" cx="626.0" cy="494.0" r="1.0"/>
    <text stroke="none" x="626.0" y="494.0" font-size="10.0" font-family="helvetica">NT1.16</text>
   </g>
   <g>
    <circle stroke="black" stroke-width="0.5" fill="#aaffff" cx="664.0" cy="334.0" r="1.0"/>
    <text stroke="none" x="664.0" y="334.0" font-size="20.0" font-family="helvetica">Pirellula staleyi DSM 6068T (X81946)</text>
   </g>
   <g>
    <circle stroke="black" stroke-width="0.5" fill="#aaffff" cx="672.0" cy="625.0" r="1.0"/>
    <text stroke="none" x="672.0" y="625.0" font-size="20.0" font-family="helvetica">‘Candidatus Brocadia anammoxidans’ (AF375994)</text>
   </g>
   <g>
    <circle stroke="black" stroke-width="0.5" fill="#aaffff" cx="681.0" cy="379.0" r="1.0"/>
    <text stroke="none" x="681.0" y="379.0" font-size="10.0" font-family="helvetica">NT1.19</text>
   </g>
   <g>
    <circle stroke="black" stroke-width="0.5" fill="#aaffff" cx="693.0" cy="304.0" r="1.0"/>
    <text stroke="none" x="693.0" y="304.0" font-size="20.0" font-family="helvetica">Blastopirellula marina IFAM 1313T (X62912)</text>
   </g>
   <g>
    <circle stroke="black" stroke-width="0.5" fill="#aaffff" cx="695.0" cy="554.0" r="1.0"/>
    <text stroke="none" x="695.0" y="554.0" font-size="10.0" font-family="helvetica">NT1.21</text>
   </g>
   <g>
    <circle stroke="black" stroke-width="0.5" fill="#aaffff" cx="708.0" cy="653.0" r="1.0"/>
    <text stroke="none" x="708.0" y="653.0" font-size="20.0" font-family="helvetica">‘Candidatus Kuenenia stuttgartiensis’ (AF375995)</text>
   </g>
   <g>
    <circle stroke="black" stroke-width="0.5" fill="#aaffff" cx="708.0" cy="204.0" r="1.0"/>
    <text stroke="none" x="708.0" y="204.0" font-size="10.0" font-family="helvetica">NT1.23</text>
   </g>
   <g>
    <circle stroke="black" stroke-width="0.5" fill="#aaffff" cx="742.0" cy="566.0" r="1.0"/>
    <text stroke="none" x="742.0" y="566.0" font-size="20.0" font-family="helvetica">‘Candidatus Scalindua sorokinii’ (AY257181)</text>
   </g>
   <g>
    <circle stroke="black" stroke-width="0.5" fill="#aaffff" cx="751.0" cy="159.0" r="1.0"/>
    <text stroke="none" x="751.0" y="159.0" font-size="20.0" font-family="helvetica">Planctomyces limnophilus DSM 3776T (X62911)</text>
   </g>
   <g>
    <circle stroke="black" stroke-width="0.5" fill="#aaffff" cx="771.0" cy="537.0" r="1.0"/>
    <text stroke="none" x="771.0" y="537.0" font-size="20.0" font-family="helvetica">‘Candidatus Scalindua brodae’ (AY254883)</text>
   </g>
   <g>
    <circle stroke="black" stroke-width="0.5" fill="#aaffff" cx="776.0" cy="275.0" r="1.0"/>
    <text stroke="none" x="776.0" y="275.0" font-size="20.0" font-family="helvetica">Planctomyces sp. Schlesner 668 (X81956)</text>
   </g>
   <g>
    <circle stroke="black" stroke-width="0.5" fill="#aaffff" cx="776.0" cy="187.0" r="1.0"/>
    <text stroke="none" x="776.0" y="187.0" font-size="20.0" font-family="helvetica"> Planctomyces maris DSM 8797T (AJ231184)</text>
   </g>
   <g>
    <circle stroke="black" stroke-width="0.5" fill="#aaffff" cx="780.0" cy="246.0" r="1.0"/>
    <text stroke="none" x="780.0" y="246.0" font-size="20.0" font-family="helvetica">Planctomyces brasiilensis DSM 5305T (AJ231190)</text>
   </g>
   <g>
    <circle stroke="black" stroke-width="0.5" fill="#aaffff" cx="782.0" cy="87.0" r="1.0"/>
    <text stroke="none" x="782.0" y="87.0" font-size="20.0" font-family="helvetica">100</text>
   </g>
   <g>
    <circle stroke="black" stroke-width="0.5" fill="#aaffff" cx="789.0" cy="421.0" r="1.0"/>
    <text stroke="none" x="789.0" y="421.0" font-size="20.0" font-family="helvetica">Gemmata—Iike isolate JW10-3f1 (AF239695)</text>
   </g>
   <g>
    <circle stroke="black" stroke-width="0.5" fill="#aaffff" cx="791.0" cy="596.0" r="1.0"/>
    <text stroke="none" x="791.0" y="596.0" font-size="20.0" font-family="helvetica">‘Candidatus Scalindua wagneri’ (AY254882)</text>
   </g>
   <g>
    <circle stroke="black" stroke-width="0.5" fill="#aaffff" cx="796.0" cy="392.0" r="1.0"/>
    <text stroke="none" x="796.0" y="392.0" font-size="20.0" font-family="helvetica">Gemmata-Iike strain JW9-3f1 (AF239697)</text>
   </g>
   <g>
    <circle stroke="black" stroke-width="0.5" fill="#aaffff" cx="798.0" cy="479.0" r="1.0"/>
    <text stroke="none" x="798.0" y="479.0" font-size="20.0" font-family="helvetica">lsosphaera sp. Schlesner 666 (X81958)</text>
   </g>
   <g>
    <circle stroke="black" stroke-width="0.5" fill="#aaffff" cx="798.0" cy="363.0" r="1.0"/>
    <text stroke="none" x="798.0" y="363.0" font-size="20.0" font-family="helvetica">Gemmata obscur/globus UQM 2246T (X54522)</text>
   </g>
   <g>
    <circle stroke="black" stroke-width="0.5" fill="#aaffff" cx="811.0" cy="217.0" r="1.0"/>
    <text stroke="none" x="811.0" y="217.0" font-size="20.0" font-family="helvetica">Planctomyces sp. Schlesner 130 (X81952)</text>
   </g>
   <g>
    <circle stroke="black" stroke-width="0.5" fill="#aaffff" cx="818.0" cy="115.0" r="1.0"/>
    <text stroke="none" x="818.0" y="115.0" font-size="10.0" font-family="helvetica">NT1.37</text>
   </g>
   <g>
    <circle stroke="black" stroke-width="0.5" fill="#aaffff" cx="822.0" cy="100.0" r="1.0"/>
    <text stroke="none" x="822.0" y="100.0" font-size="20.0" font-family="helvetica"/>
   </g>
   <g>
    <circle stroke="black" stroke-width="0.5" fill="#aaffff" cx="825.0" cy="130.0" r="1.0"/>
    <text stroke="none" x="825.0" y="130.0" font-size="20.0" font-family="helvetica">Planctomyces sp. Schlesner 642 (X81950)</text>
   </g>
   <g>
    <circle stroke="black" stroke-width="0.5" fill="#aaffff" cx="860.0" cy="56.0" r="1.0"/>
    <text stroke="none" x="860.0" y="56.0" font-size="10.0" font-family="helvetica">NT1.40</text>
   </g>
   <g>
    <circle stroke="black" stroke-width="0.5" fill="#aaffff" cx="861.0" cy="13.0" r="1.0"/>
    <text stroke="none" x="861.0" y="13.0" font-size="20.0" font-family="helvetica">Strain MOB77</text>
   </g>
   <g>
    <circle stroke="black" stroke-width="0.5" fill="#aaffff" cx="861.0" cy="71.0" r="1.0"/>
    <text stroke="none" x="861.0" y="71.0" font-size="20.0" font-family="helvetica">Strain SB2</text>
   </g>
   <g>
    <circle stroke="black" stroke-width="0.5" fill="#aaffff" cx="874.0" cy="508.0" r="1.0"/>
    <text stroke="none" x="874.0" y="508.0" font-size="20.0" font-family="helvetica">Isosphaera—Iike strain C2—3 (AF239692)</text>
   </g>
   <g>
    <circle stroke="black" stroke-width="0.5" fill="#aaffff" cx="939.0" cy="450.0" r="1.0"/>
    <text stroke="none" x="939.0" y="450.0" font-size="20.0" font-family="helvetica">lsosphaera pallida DSM 9630T (AJ231195)</text>
   </g>
   <line stroke="black" x1="861.0" y1="13.0" x2="860.0" y2="56.0" stroke-width="0.5"/>
   <line stroke="black" x1="861.0" y1="71.0" x2="860.0" y2="56.0" stroke-width="0.5"/>
   <line stroke="black" x1="822.0" y1="100.0" x2="818.0" y2="115.0" stroke-width="0.5"/>
   <line stroke="black" x1="825.0" y1="130.0" x2="818.0" y2="115.0" stroke-width="0.5"/>
   <line stroke="black" x1="751.0" y1="159.0" x2="428.0" y2="146.0" stroke-width="0.5"/>
   <line stroke="black" x1="776.0" y1="275.0" x2="439.0" y2="261.0" stroke-width="0.5"/>
   <line stroke="black" x1="780.0" y1="246.0" x2="502.0" y2="233.0" stroke-width="0.5"/>
   <line stroke="black" x1="776.0" y1="187.0" x2="708.0" y2="204.0" stroke-width="0.5"/>
   <line stroke="black" x1="811.0" y1="217.0" x2="708.0" y2="204.0" stroke-width="0.5"/>
   <line stroke="black" x1="2.0" y1="556.0" x2="18.0" y2="556.0" stroke-width="0.5"/>
   <line stroke="black" x1="664.0" y1="334.0" x2="334.0" y2="319.0" stroke-width="0.5"/>
   <line stroke="black" x1="693.0" y1="304.0" x2="334.0" y2="319.0" stroke-width="0.5"/>
   <line stroke="black" x1="789.0" y1="421.0" x2="473.0" y2="408.0" stroke-width="0.5"/>
   <line stroke="black" x1="798.0" y1="363.0" x2="681.0" y2="379.0" stroke-width="0.5"/>
   <line stroke="black" x1="874.0" y1="508.0" x2="626.0" y2="494.0" stroke-width="0.5"/>
   <line stroke="black" x1="939.0" y1="450.0" x2="612.0" y2="465.0" stroke-width="0.5"/>
   <line stroke="black" x1="672.0" y1="625.0" x2="511.0" y2="640.0" stroke-width="0.5"/>
   <line stroke="black" x1="708.0" y1="653.0" x2="511.0" y2="640.0" stroke-width="0.5"/>
   <line stroke="black" x1="742.0" y1="566.0" x2="695.0" y2="554.0" stroke-width="0.5"/>
   <line stroke="black" x1="791.0" y1="596.0" x2="545.0" y2="583.0" stroke-width="0.5"/>
   <line stroke="black" x1="771.0" y1="537.0" x2="695.0" y2="554.0" stroke-width="0.5"/>
   <line stroke="black" x1="860.0" y1="56.0" x2="782.0" y2="87.0" stroke-width="0.5"/>
   <line stroke="black" x1="782.0" y1="87.0" x2="428.0" y2="146.0" stroke-width="0.5"/>
   <line stroke="black" x1="782.0" y1="87.0" x2="818.0" y2="115.0" stroke-width="0.5"/>
   <line stroke="black" x1="428.0" y1="146.0" x2="357.0" y2="175.0" stroke-width="0.5"/>
   <line stroke="black" x1="357.0" y1="175.0" x2="224.0" y2="291.0" stroke-width="0.5"/>
   <line stroke="black" x1="357.0" y1="175.0" x2="439.0" y2="261.0" stroke-width="0.5"/>
   <line stroke="black" x1="439.0" y1="261.0" x2="502.0" y2="233.0" stroke-width="0.5"/>
   <line stroke="black" x1="224.0" y1="291.0" x2="213.0" y2="350.0" stroke-width="0.5"/>
   <line stroke="black" x1="224.0" y1="291.0" x2="334.0" y2="319.0" stroke-width="0.5"/>
   <line stroke="black" x1="502.0" y1="233.0" x2="708.0" y2="204.0" stroke-width="0.5"/>
   <line stroke="black" x1="213.0" y1="350.0" x2="18.0" y2="556.0" stroke-width="0.5"/>
   <line stroke="black" x1="213.0" y1="350.0" x2="276.0" y2="436.0" stroke-width="0.5"/>
   <line stroke="black" x1="276.0" y1="436.0" x2="612.0" y2="465.0" stroke-width="0.5"/>
   <line stroke="black" x1="276.0" y1="436.0" x2="473.0" y2="408.0" stroke-width="0.5"/>
   <line stroke="black" x1="473.0" y1="408.0" x2="681.0" y2="379.0" stroke-width="0.5"/>
   <line stroke="black" x1="18.0" y1="556.0" x2="426.0" y2="611.0" stroke-width="0.5"/>
   <line stroke="black" x1="612.0" y1="465.0" x2="626.0" y2="494.0" stroke-width="0.5"/>
   <line stroke="black" x1="426.0" y1="611.0" x2="511.0" y2="640.0" stroke-width="0.5"/>
   <line stroke="black" x1="426.0" y1="611.0" x2="545.0" y2="583.0" stroke-width="0.5"/>
   <line stroke="black" x1="545.0" y1="583.0" x2="695.0" y2="554.0" stroke-width="0.5"/>
   <line stroke="black" x1="798.0" y1="479.0" x2="626.0" y2="494.0" stroke-width="0.5"/>
   <line stroke="black" x1="796.0" y1="392.0" x2="681.0" y2="379.0" stroke-width="0.5"/>
  </g>
 </g>
</svg>
