<?xml version="1.0" encoding="UTF-8"?>
<svg xmlns="http://www.w3.org/2000/svg">
 <g>
  <g>
   <g>
    <circle stroke="black" stroke-width="0.5" fill="#aaffff" cx="125.0" cy="660.0" r="1.0"/>
    <text stroke="none" x="125.0" y="660.0" font-size="10.0" font-family="helvetica">NT1.1</text>
   </g>
   <g>
    <circle stroke="black" stroke-width="0.5" fill="#aaffff" cx="161.0" cy="757.0" r="1.0"/>
    <text stroke="none" x="161.0" y="757.0" font-size="10.0" font-family="helvetica">NT1.2</text>
   </g>
   <g>
    <circle stroke="black" stroke-width="0.5" fill="#aaffff" cx="165.0" cy="758.0" r="1.0"/>
    <text stroke="none" x="165.0" y="758.0" font-size="20.0" font-family="helvetica"/>
   </g>
   <g>
    <circle stroke="black" stroke-width="0.5" fill="#aaffff" cx="173.0" cy="562.0" r="1.0"/>
    <text stroke="none" x="173.0" y="562.0" font-size="10.0" font-family="helvetica">NT1.4</text>
   </g>
   <g>
    <circle stroke="black" stroke-width="0.5" fill="#aaffff" cx="182.0" cy="658.0" r="1.0"/>
    <text stroke="none" x="182.0" y="658.0" font-size="10.0" font-family="helvetica">NT1.5</text>
   </g>
   <g>
    <circle stroke="black" stroke-width="0.5" fill="#aaffff" cx="202.0" cy="464.0" r="1.0"/>
    <text stroke="none" x="202.0" y="464.0" font-size="10.0" font-family="helvetica">NT1.6</text>
   </g>
   <g>
    <circle stroke="black" stroke-width="0.5" fill="#aaffff" cx="217.0" cy="575.0" r="1.0"/>
    <text stroke="none" x="217.0" y="575.0" font-size="10.0" font-family="helvetica">NT1.7</text>
   </g>
   <g>
    <circle stroke="black" stroke-width="0.5" fill="#aaffff" cx="228.0" cy="352.0" r="1.0"/>
    <text stroke="none" x="228.0" y="352.0" font-size="10.0" font-family="helvetica">NT1.8</text>
   </g>
   <g>
    <circle stroke="black" stroke-width="0.5" fill="#aaffff" cx="234.0" cy="793.0" r="1.0"/>
    <text stroke="none" x="234.0" y="793.0" font-size="10.0" font-family="helvetica">NT1.9</text>
   </g>
   <g>
    <circle stroke="black" stroke-width="0.5" fill="#aaffff" cx="236.0" cy="795.0" r="1.0"/>
    <text stroke="none" x="236.0" y="795.0" font-size="10.0" font-family="helvetica">NT1.10</text>
   </g>
   <g>
    <circle stroke="black" stroke-width="0.5" fill="#aaffff" cx="240.0" cy="795.0" r="1.0"/>
    <text stroke="none" x="240.0" y="795.0" font-size="20.0" font-family="helvetica"/>
   </g>
   <g>
    <circle stroke="black" stroke-width="0.5" fill="#aaffff" cx="246.0" cy="492.0" r="1.0"/>
    <text stroke="none" x="246.0" y="492.0" font-size="10.0" font-family="helvetica">NT1.12</text>
   </g>
   <g>
    <circle stroke="black" stroke-width="0.5" fill="#aaffff" cx="248.0" cy="494.0" r="1.0"/>
    <text stroke="none" x="248.0" y="494.0" font-size="10.0" font-family="helvetica">NT1.13</text>
   </g>
   <g>
    <circle stroke="black" stroke-width="0.5" fill="#aaffff" cx="252.0" cy="494.0" r="1.0"/>
    <text stroke="none" x="252.0" y="494.0" font-size="20.0" font-family="helvetica"/>
   </g>
   <g>
    <circle stroke="black" stroke-width="0.5" fill="#aaffff" cx="254.0" cy="209.0" r="1.0"/>
    <text stroke="none" x="254.0" y="209.0" font-size="10.0" font-family="helvetica">NT1.15</text>
   </g>
   <g>
    <circle stroke="black" stroke-width="0.5" fill="#aaffff" cx="260.0" cy="209.0" r="1.0"/>
    <text stroke="none" x="260.0" y="209.0" font-size="20.0" font-family="helvetica"/>
   </g>
   <g>
    <circle stroke="black" stroke-width="0.5" fill="#aaffff" cx="262.0" cy="825.0" r="1.0"/>
    <text stroke="none" x="262.0" y="825.0" font-size="20.0" font-family="helvetica">730</text>
   </g>
   <g>
    <circle stroke="black" stroke-width="0.5" fill="#aaffff" cx="268.0" cy="826.0" r="1.0"/>
    <text stroke="none" x="268.0" y="826.0" font-size="20.0" font-family="helvetica"/>
   </g>
   <g>
    <circle stroke="black" stroke-width="0.5" fill="#aaffff" cx="270.0" cy="129.0" r="1.0"/>
    <text stroke="none" x="270.0" y="129.0" font-size="10.0" font-family="helvetica">NT1.19</text>
   </g>
   <g>
    <circle stroke="black" stroke-width="0.5" fill="#aaffff" cx="287.0" cy="721.0" r="1.0"/>
    <text stroke="none" x="287.0" y="721.0" font-size="20.0" font-family="helvetica">Paracoccus kondratievae GBT (AF250332)</text>
   </g>
   <g>
    <circle stroke="black" stroke-width="0.5" fill="#aaffff" cx="287.0" cy="847.0" r="1.0"/>
    <text stroke="none" x="287.0" y="847.0" font-size="20.0" font-family="helvetica">Paracoccus pantotrophus ATCC 35512T (Y16933)</text>
   </g>
   <g>
    <circle stroke="black" stroke-width="0.5" fill="#aaffff" cx="296.0" cy="681.0" r="1.0"/>
    <text stroke="none" x="296.0" y="681.0" font-size="20.0" font-family="helvetica">Paracoccus den/'trificans DSM 413T (Y16929)</text>
   </g>
   <g>
    <circle stroke="black" stroke-width="0.5" fill="#aaffff" cx="303.0" cy="292.0" r="1.0"/>
    <text stroke="none" x="303.0" y="292.0" font-size="10.0" font-family="helvetica">NT1.23</text>
   </g>
   <g>
    <circle stroke="black" stroke-width="0.5" fill="#aaffff" cx="305.0" cy="294.0" r="1.0"/>
    <text stroke="none" x="305.0" y="294.0" font-size="10.0" font-family="helvetica">NT1.24</text>
   </g>
   <g>
    <circle stroke="black" stroke-width="0.5" fill="#aaffff" cx="309.0" cy="294.0" r="1.0"/>
    <text stroke="none" x="309.0" y="294.0" font-size="20.0" font-family="helvetica"/>
   </g>
   <g>
    <circle stroke="black" stroke-width="0.5" fill="#aaffff" cx="316.0" cy="805.0" r="1.0"/>
    <text stroke="none" x="316.0" y="805.0" font-size="20.0" font-family="helvetica"/>
   </g>
   <g>
    <circle stroke="black" stroke-width="0.5" fill="#aaffff" cx="338.0" cy="342.0" r="1.0"/>
    <text stroke="none" x="338.0" y="342.0" font-size="20.0" font-family="helvetica">717</text>
   </g>
   <g>
    <circle stroke="black" stroke-width="0.5" fill="#aaffff" cx="343.0" cy="78.0" r="1.0"/>
    <text stroke="none" x="343.0" y="78.0" font-size="20.0" font-family="helvetica">934</text>
   </g>
   <g>
    <circle stroke="black" stroke-width="0.5" fill="#aaffff" cx="348.0" cy="78.0" r="1.0"/>
    <text stroke="none" x="348.0" y="78.0" font-size="20.0" font-family="helvetica"/>
   </g>
   <g>
    <circle stroke="black" stroke-width="0.5" fill="#aaffff" cx="349.0" cy="639.0" r="1.0"/>
    <text stroke="none" x="349.0" y="639.0" font-size="20.0" font-family="helvetica">Paracoccus aminovorans JCM 7685T (D32240)</text>
   </g>
   <g>
    <circle stroke="black" stroke-width="0.5" fill="#aaffff" cx="365.0" cy="36.0" r="1.0"/>
    <text stroke="none" x="365.0" y="36.0" font-size="20.0" font-family="helvetica">579</text>
   </g>
   <g>
    <circle stroke="black" stroke-width="0.5" fill="#aaffff" cx="368.0" cy="554.0" r="1.0"/>
    <text stroke="none" x="368.0" y="554.0" font-size="20.0" font-family="helvetica"/>
   </g>
   <g>
    <circle stroke="black" stroke-width="0.5" fill="#aaffff" cx="399.0" cy="472.0" r="1.0"/>
    <text stroke="none" x="399.0" y="472.0" font-size="20.0" font-family="helvetica"/>
   </g>
   <g>
    <circle stroke="black" stroke-width="0.5" fill="#aaffff" cx="400.0" cy="598.0" r="1.0"/>
    <text stroke="none" x="400.0" y="598.0" font-size="20.0" font-family="helvetica">Paracoccus yeei ATCC BAA-599T (AYO14173)</text>
   </g>
   <g>
    <circle stroke="black" stroke-width="0.5" fill="#aaffff" cx="409.0" cy="514.0" r="1.0"/>
    <text stroke="none" x="409.0" y="514.0" font-size="20.0" font-family="helvetica">Paracoccus marinus KKL-A5T (AB185957)</text>
   </g>
   <g>
    <circle stroke="black" stroke-width="0.5" fill="#aaffff" cx="436.0" cy="889.0" r="1.0"/>
    <text stroke="none" x="436.0" y="889.0" font-size="20.0" font-family="helvetica">Rhodobacter capsulatus ATCC 1 1 166T (D16428)</text>
   </g>
   <g>
    <circle stroke="black" stroke-width="0.5" fill="#aaffff" cx="445.0" cy="182.0" r="1.0"/>
    <text stroke="none" x="445.0" y="182.0" font-size="20.0" font-family="helvetica">Paracoccus alcaliphilus JCM 7364T (D32238)</text>
   </g>
   <g>
    <circle stroke="black" stroke-width="0.5" fill="#aaffff" cx="446.0" cy="245.0" r="1.0"/>
    <text stroke="none" x="446.0" y="245.0" font-size="10.0" font-family="helvetica">NT1.38</text>
   </g>
   <g>
    <circle stroke="black" stroke-width="0.5" fill="#aaffff" cx="451.0" cy="246.0" r="1.0"/>
    <text stroke="none" x="451.0" y="246.0" font-size="20.0" font-family="helvetica"/>
   </g>
   <g>
    <circle stroke="black" stroke-width="0.5" fill="#aaffff" cx="453.0" cy="118.0" r="1.0"/>
    <text stroke="none" x="453.0" y="118.0" font-size="10.0" font-family="helvetica">NT1.40</text>
   </g>
   <g>
    <circle stroke="black" stroke-width="0.5" fill="#aaffff" cx="458.0" cy="119.0" r="1.0"/>
    <text stroke="none" x="458.0" y="119.0" font-size="20.0" font-family="helvetica"/>
   </g>
   <g>
    <circle stroke="black" stroke-width="0.5" fill="#aaffff" cx="483.0" cy="307.0" r="1.0"/>
    <text stroke="none" x="483.0" y="307.0" font-size="20.0" font-family="helvetica"/>
   </g>
   <g>
    <circle stroke="black" stroke-width="0.5" fill="#aaffff" cx="483.0" cy="379.0" r="1.0"/>
    <text stroke="none" x="483.0" y="379.0" font-size="10.0" font-family="helvetica">NT1.43</text>
   </g>
   <g>
    <circle stroke="black" stroke-width="0.5" fill="#aaffff" cx="485.0" cy="389.0" r="1.0"/>
    <text stroke="none" x="485.0" y="389.0" font-size="20.0" font-family="helvetica"/>
   </g>
   <g>
    <circle stroke="black" stroke-width="0.5" fill="#aaffff" cx="485.0" cy="410.0" r="1.0"/>
    <text stroke="none" x="485.0" y="410.0" font-size="20.0" font-family="helvetica">524</text>
   </g>
   <g>
    <circle stroke="black" stroke-width="0.5" fill="#aaffff" cx="489.0" cy="380.0" r="1.0"/>
    <text stroke="none" x="489.0" y="380.0" font-size="20.0" font-family="helvetica"/>
   </g>
   <g>
    <circle stroke="black" stroke-width="0.5" fill="#aaffff" cx="494.0" cy="99.0" r="1.0"/>
    <text stroke="none" x="494.0" y="99.0" font-size="20.0" font-family="helvetica">Paracoccus solvent/vorans DSM 6637T (YO7705)</text>
   </g>
   <g>
    <circle stroke="black" stroke-width="0.5" fill="#aaffff" cx="495.0" cy="17.0" r="1.0"/>
    <text stroke="none" x="495.0" y="17.0" font-size="20.0" font-family="helvetica">Paracoccus koreensis Ch05T (AB187584)</text>
   </g>
   <g>
    <circle stroke="black" stroke-width="0.5" fill="#aaffff" cx="496.0" cy="348.0" r="1.0"/>
    <text stroke="none" x="496.0" y="348.0" font-size="20.0" font-family="helvetica">Paracoccus carotinifaciens IFO 16121T (ABOO6899)</text>
   </g>
   <g>
    <circle stroke="black" stroke-width="0.5" fill="#aaffff" cx="498.0" cy="265.0" r="1.0"/>
    <text stroke="none" x="498.0" y="265.0" font-size="20.0" font-family="helvetica">Paracoccus homiensis DD-R11T (DQB42239)</text>
   </g>
   <g>
    <circle stroke="black" stroke-width="0.5" fill="#aaffff" cx="504.0" cy="432.0" r="1.0"/>
    <text stroke="none" x="504.0" y="432.0" font-size="20.0" font-family="helvetica">Paracoccus haeundaensis BC74171T (AY189743)</text>
   </g>
   <g>
    <circle stroke="black" stroke-width="0.5" fill="#aaffff" cx="506.0" cy="764.0" r="1.0"/>
    <text stroke="none" x="506.0" y="764.0" font-size="20.0" font-family="helvetica"/>
   </g>
   <g>
    <circle stroke="black" stroke-width="0.5" fill="#aaffff" cx="526.0" cy="223.0" r="1.0"/>
    <text stroke="none" x="526.0" y="223.0" font-size="20.0" font-family="helvetica"/>
   </g>
   <g>
    <circle stroke="black" stroke-width="0.5" fill="#aaffff" cx="563.0" cy="140.0" r="1.0"/>
    <text stroke="none" x="563.0" y="140.0" font-size="20.0" font-family="helvetica">Paracoccus alkenifer DSM 11593T (Y13827)</text>
   </g>
   <g>
    <circle stroke="black" stroke-width="0.5" fill="#aaffff" cx="569.0" cy="59.0" r="1.0"/>
    <text stroke="none" x="569.0" y="59.0" font-size="20.0" font-family="helvetica">Paracoccus kocurii JCM 7684T (D3224‘I)</text>
   </g>
   <g>
    <circle stroke="black" stroke-width="0.5" fill="#aaffff" cx="8.0" cy="774.0" r="1.0"/>
    <text stroke="none" x="8.0" y="774.0" font-size="10.0" font-family="helvetica">NT1.56</text>
   </g>
   <line stroke="black" x1="348.0" y1="78.0" x2="343.0" y2="78.0" stroke-width="0.5"/>
   <line stroke="black" x1="495.0" y1="17.0" x2="365.0" y2="36.0" stroke-width="0.5"/>
   <line stroke="black" x1="458.0" y1="119.0" x2="453.0" y2="118.0" stroke-width="0.5"/>
   <line stroke="black" x1="569.0" y1="59.0" x2="365.0" y2="36.0" stroke-width="0.5"/>
   <line stroke="black" x1="494.0" y1="99.0" x2="453.0" y2="118.0" stroke-width="0.5"/>
   <line stroke="black" x1="260.0" y1="209.0" x2="254.0" y2="209.0" stroke-width="0.5"/>
   <line stroke="black" x1="445.0" y1="182.0" x2="270.0" y2="129.0" stroke-width="0.5"/>
   <line stroke="black" x1="309.0" y1="294.0" x2="305.0" y2="294.0" stroke-width="0.5"/>
   <line stroke="black" x1="451.0" y1="246.0" x2="446.0" y2="245.0" stroke-width="0.5"/>
   <line stroke="black" x1="252.0" y1="494.0" x2="248.0" y2="494.0" stroke-width="0.5"/>
   <line stroke="black" x1="498.0" y1="265.0" x2="446.0" y2="245.0" stroke-width="0.5"/>
   <line stroke="black" x1="483.0" y1="307.0" x2="338.0" y2="342.0" stroke-width="0.5"/>
   <line stroke="black" x1="489.0" y1="380.0" x2="483.0" y2="379.0" stroke-width="0.5"/>
   <line stroke="black" x1="526.0" y1="223.0" x2="446.0" y2="245.0" stroke-width="0.5"/>
   <line stroke="black" x1="496.0" y1="348.0" x2="483.0" y2="379.0" stroke-width="0.5"/>
   <line stroke="black" x1="485.0" y1="389.0" x2="485.0" y2="410.0" stroke-width="0.5"/>
   <line stroke="black" x1="399.0" y1="472.0" x2="246.0" y2="492.0" stroke-width="0.5"/>
   <line stroke="black" x1="368.0" y1="554.0" x2="217.0" y2="575.0" stroke-width="0.5"/>
   <line stroke="black" x1="400.0" y1="598.0" x2="217.0" y2="575.0" stroke-width="0.5"/>
   <line stroke="black" x1="296.0" y1="681.0" x2="182.0" y2="658.0" stroke-width="0.5"/>
   <line stroke="black" x1="165.0" y1="758.0" x2="161.0" y2="757.0" stroke-width="0.5"/>
   <line stroke="black" x1="349.0" y1="639.0" x2="182.0" y2="658.0" stroke-width="0.5"/>
   <line stroke="black" x1="240.0" y1="795.0" x2="236.0" y2="795.0" stroke-width="0.5"/>
   <line stroke="black" x1="287.0" y1="721.0" x2="161.0" y2="757.0" stroke-width="0.5"/>
   <line stroke="black" x1="268.0" y1="826.0" x2="262.0" y2="825.0" stroke-width="0.5"/>
   <line stroke="black" x1="287.0" y1="847.0" x2="262.0" y2="825.0" stroke-width="0.5"/>
   <line stroke="black" x1="316.0" y1="805.0" x2="262.0" y2="825.0" stroke-width="0.5"/>
   <line stroke="black" x1="506.0" y1="764.0" x2="234.0" y2="793.0" stroke-width="0.5"/>
   <line stroke="black" x1="365.0" y1="36.0" x2="343.0" y2="78.0" stroke-width="0.5"/>
   <line stroke="black" x1="343.0" y1="78.0" x2="270.0" y2="129.0" stroke-width="0.5"/>
   <line stroke="black" x1="270.0" y1="129.0" x2="254.0" y2="209.0" stroke-width="0.5"/>
   <line stroke="black" x1="254.0" y1="209.0" x2="228.0" y2="352.0" stroke-width="0.5"/>
   <line stroke="black" x1="254.0" y1="209.0" x2="303.0" y2="292.0" stroke-width="0.5"/>
   <line stroke="black" x1="305.0" y1="294.0" x2="303.0" y2="292.0" stroke-width="0.5"/>
   <line stroke="black" x1="303.0" y1="292.0" x2="446.0" y2="245.0" stroke-width="0.5"/>
   <line stroke="black" x1="305.0" y1="294.0" x2="338.0" y2="342.0" stroke-width="0.5"/>
   <line stroke="black" x1="228.0" y1="352.0" x2="202.0" y2="464.0" stroke-width="0.5"/>
   <line stroke="black" x1="228.0" y1="352.0" x2="246.0" y2="492.0" stroke-width="0.5"/>
   <line stroke="black" x1="338.0" y1="342.0" x2="483.0" y2="379.0" stroke-width="0.5"/>
   <line stroke="black" x1="202.0" y1="464.0" x2="173.0" y2="562.0" stroke-width="0.5"/>
   <line stroke="black" x1="202.0" y1="464.0" x2="217.0" y2="575.0" stroke-width="0.5"/>
   <line stroke="black" x1="248.0" y1="494.0" x2="246.0" y2="492.0" stroke-width="0.5"/>
   <line stroke="black" x1="173.0" y1="562.0" x2="125.0" y2="660.0" stroke-width="0.5"/>
   <line stroke="black" x1="173.0" y1="562.0" x2="182.0" y2="658.0" stroke-width="0.5"/>
   <line stroke="black" x1="125.0" y1="660.0" x2="161.0" y2="757.0" stroke-width="0.5"/>
   <line stroke="black" x1="161.0" y1="757.0" x2="234.0" y2="793.0" stroke-width="0.5"/>
   <line stroke="black" x1="236.0" y1="795.0" x2="234.0" y2="793.0" stroke-width="0.5"/>
   <line stroke="black" x1="236.0" y1="795.0" x2="262.0" y2="825.0" stroke-width="0.5"/>
   <line stroke="black" x1="8.0" y1="774.0" x2="436.0" y2="889.0" stroke-width="0.5"/>
   <line stroke="black" x1="8.0" y1="774.0" x2="125.0" y2="660.0" stroke-width="0.5"/>
   <line stroke="black" x1="409.0" y1="514.0" x2="248.0" y2="494.0" stroke-width="0.5"/>
   <line stroke="black" x1="343.0" y1="78.0" x2="453.0" y2="118.0" stroke-width="0.5"/>
   <line stroke="black" x1="563.0" y1="140.0" x2="453.0" y2="118.0" stroke-width="0.5"/>
   <line stroke="black" x1="483.0" y1="379.0" x2="485.0" y2="410.0" stroke-width="0.5"/>
   <line stroke="black" x1="504.0" y1="432.0" x2="485.0" y2="410.0" stroke-width="0.5"/>
  </g>
 </g>
</svg>
