<?xml version="1.0" encoding="UTF-8"?>
<svg xmlns="http://www.w3.org/2000/svg">
 <g>
  <g>
   <g>
    <circle stroke="black" stroke-width="0.5" fill="#aaffff" cx="683.0" cy="378.0" r="1.0"/>
    <text stroke="none" x="683.0" y="378.0" font-size="20.0" font-family="helvetica"/>
   </g>
   <g>
    <circle stroke="black" stroke-width="0.5" fill="#aaffff" cx="692.0" cy="386.0" r="1.0"/>
    <text stroke="none" x="692.0" y="386.0" font-size="10.0" font-family="helvetica">NT1.2</text>
   </g>
   <g>
    <circle stroke="black" stroke-width="0.5" fill="#aaffff" cx="697.0" cy="179.0" r="1.0"/>
    <text stroke="none" x="697.0" y="179.0" font-size="20.0" font-family="helvetica">93</text>
   </g>
   <g>
    <circle stroke="black" stroke-width="0.5" fill="#aaffff" cx="729.0" cy="307.0" r="1.0"/>
    <text stroke="none" x="729.0" y="307.0" font-size="10.0" font-family="helvetica">NT1.4</text>
   </g>
   <g>
    <circle stroke="black" stroke-width="0.5" fill="#aaffff" cx="745.0" cy="47.0" r="1.0"/>
    <text stroke="none" x="745.0" y="47.0" font-size="20.0" font-family="helvetica">MmmLC-4</text>
   </g>
   <g>
    <circle stroke="black" stroke-width="0.5" fill="#aaffff" cx="758.0" cy="348.0" r="1.0"/>
    <text stroke="none" x="758.0" y="348.0" font-size="20.0" font-family="helvetica"/>
   </g>
   <g>
    <circle stroke="black" stroke-width="0.5" fill="#aaffff" cx="775.0" cy="267.0" r="1.0"/>
    <text stroke="none" x="775.0" y="267.0" font-size="10.0" font-family="helvetica">NT1.7</text>
   </g>
   <g>
    <circle stroke="black" stroke-width="0.5" fill="#aaffff" cx="782.0" cy="588.0" r="1.0"/>
    <text stroke="none" x="782.0" y="588.0" font-size="20.0" font-family="helvetica"/>
   </g>
   <g>
    <circle stroke="black" stroke-width="0.5" fill="#aaffff" cx="794.0" cy="228.0" r="1.0"/>
    <text stroke="none" x="794.0" y="228.0" font-size="10.0" font-family="helvetica">NT1.9</text>
   </g>
   <g>
    <circle stroke="black" stroke-width="0.5" fill="#aaffff" cx="822.0" cy="193.0" r="1.0"/>
    <text stroke="none" x="822.0" y="193.0" font-size="10.0" font-family="helvetica">NT1.10</text>
   </g>
   <g>
    <circle stroke="black" stroke-width="0.5" fill="#aaffff" cx="827.0" cy="263.0" r="1.0"/>
    <text stroke="none" x="827.0" y="263.0" font-size="20.0" font-family="helvetica">73</text>
   </g>
   <g>
    <circle stroke="black" stroke-width="0.5" fill="#aaffff" cx="855.0" cy="302.0" r="1.0"/>
    <text stroke="none" x="855.0" y="302.0" font-size="20.0" font-family="helvetica">Mme—2</text>
   </g>
   <g>
    <circle stroke="black" stroke-width="0.5" fill="#aaffff" cx="855.0" cy="304.0" r="1.0"/>
    <text stroke="none" x="855.0" y="304.0" font-size="10.0" font-family="helvetica">NT1.13</text>
   </g>
   <g>
    <circle stroke="black" stroke-width="0.5" fill="#aaffff" cx="858.0" cy="305.0" r="1.0"/>
    <text stroke="none" x="858.0" y="305.0" font-size="20.0" font-family="helvetica">Mme—2</text>
   </g>
   <g>
    <circle stroke="black" stroke-width="0.5" fill="#aaffff" cx="872.0" cy="166.0" r="1.0"/>
    <text stroke="none" x="872.0" y="166.0" font-size="10.0" font-family="helvetica">NT1.15</text>
   </g>
   <g>
    <circle stroke="black" stroke-width="0.5" fill="#aaffff" cx="903.0" cy="139.0" r="1.0"/>
    <text stroke="none" x="903.0" y="139.0" font-size="20.0" font-family="helvetica">82</text>
   </g>
   <g>
    <circle stroke="black" stroke-width="0.5" fill="#aaffff" cx="969.0" cy="192.0" r="1.0"/>
    <text stroke="none" x="969.0" y="192.0" font-size="20.0" font-family="helvetica">Mme-3</text>
   </g>
   <g>
    <circle stroke="black" stroke-width="0.5" fill="#aaffff" cx="978.0" cy="219.0" r="1.0"/>
    <text stroke="none" x="978.0" y="219.0" font-size="20.0" font-family="helvetica">MmmLC-5</text>
   </g>
   <line stroke="black" x1="683.0" y1="378.0" x2="692.0" y2="386.0" stroke-width="0.5"/>
   <line stroke="black" x1="758.0" y1="348.0" x2="729.0" y2="307.0" stroke-width="0.5"/>
   <line stroke="black" x1="855.0" y1="304.0" x2="855.0" y2="302.0" stroke-width="0.5"/>
   <line stroke="black" x1="858.0" y1="305.0" x2="855.0" y2="304.0" stroke-width="0.5"/>
   <line stroke="black" x1="782.0" y1="588.0" x2="692.0" y2="386.0" stroke-width="0.5"/>
   <line stroke="black" x1="697.0" y1="179.0" x2="692.0" y2="386.0" stroke-width="0.5"/>
   <line stroke="black" x1="697.0" y1="179.0" x2="729.0" y2="307.0" stroke-width="0.5"/>
   <line stroke="black" x1="729.0" y1="307.0" x2="775.0" y2="267.0" stroke-width="0.5"/>
   <line stroke="black" x1="775.0" y1="267.0" x2="794.0" y2="228.0" stroke-width="0.5"/>
   <line stroke="black" x1="794.0" y1="228.0" x2="822.0" y2="193.0" stroke-width="0.5"/>
   <line stroke="black" x1="822.0" y1="193.0" x2="872.0" y2="166.0" stroke-width="0.5"/>
   <line stroke="black" x1="745.0" y1="47.0" x2="697.0" y2="179.0" stroke-width="0.5"/>
   <line stroke="black" x1="827.0" y1="263.0" x2="794.0" y2="228.0" stroke-width="0.5"/>
   <line stroke="black" x1="775.0" y1="267.0" x2="855.0" y2="304.0" stroke-width="0.5"/>
   <line stroke="black" x1="903.0" y1="139.0" x2="872.0" y2="166.0" stroke-width="0.5"/>
   <line stroke="black" x1="969.0" y1="192.0" x2="872.0" y2="166.0" stroke-width="0.5"/>
   <line stroke="black" x1="978.0" y1="219.0" x2="822.0" y2="193.0" stroke-width="0.5"/>
  </g>
 </g>
</svg>
