<?xml version="1.0" encoding="UTF-8"?>
<svg xmlns="http://www.w3.org/2000/svg">
 <g>
  <g>
   <g>
    <circle stroke="black" stroke-width="0.5" fill="#aaffff" cx="60.0" cy="100.0" r="1.0"/>
    <text stroke="none" x="60.0" y="100.0" font-size="20.0" font-family="helvetica"/>
   </g>
   <g>
    <circle stroke="black" stroke-width="0.5" fill="#aaffff" cx="62.0" cy="100.0" r="1.0"/>
    <text stroke="none" x="62.0" y="100.0" font-size="10.0" font-family="helvetica">NT1.2</text>
   </g>
   <g>
    <circle stroke="black" stroke-width="0.5" fill="#aaffff" cx="250.0" cy="157.0" r="1.0"/>
    <text stroke="none" x="250.0" y="157.0" font-size="10.0" font-family="helvetica">NT1.3</text>
   </g>
   <g>
    <circle stroke="black" stroke-width="0.5" fill="#aaffff" cx="288.0" cy="216.0" r="1.0"/>
    <text stroke="none" x="288.0" y="216.0" font-size="10.0" font-family="helvetica">NT1.4</text>
   </g>
   <g>
    <circle stroke="black" stroke-width="0.5" fill="#aaffff" cx="351.0" cy="275.0" r="1.0"/>
    <text stroke="none" x="351.0" y="275.0" font-size="10.0" font-family="helvetica">NT1.5</text>
   </g>
   <g>
    <circle stroke="black" stroke-width="0.5" fill="#aaffff" cx="370.0" cy="334.0" r="1.0"/>
    <text stroke="none" x="370.0" y="334.0" font-size="10.0" font-family="helvetica">NT1.6</text>
   </g>
   <g>
    <circle stroke="black" stroke-width="0.5" fill="#aaffff" cx="432.0" cy="369.0" r="1.0"/>
    <text stroke="none" x="432.0" y="369.0" font-size="10.0" font-family="helvetica">NT1.7</text>
   </g>
   <g>
    <circle stroke="black" stroke-width="0.5" fill="#aaffff" cx="433.0" cy="42.0" r="1.0"/>
    <text stroke="none" x="433.0" y="42.0" font-size="10.0" font-family="helvetica">NT1.8</text>
   </g>
   <g>
    <circle stroke="black" stroke-width="0.5" fill="#aaffff" cx="519.0" cy="63.0" r="1.0"/>
    <text stroke="none" x="519.0" y="63.0" font-size="20.0" font-family="helvetica"/>
   </g>
   <g>
    <circle stroke="black" stroke-width="0.5" fill="#aaffff" cx="563.0" cy="17.0" r="1.0"/>
    <text stroke="none" x="563.0" y="17.0" font-size="20.0" font-family="helvetica"/>
   </g>
   <g>
    <circle stroke="black" stroke-width="0.5" fill="#aaffff" cx="563.0" cy="111.0" r="1.0"/>
    <text stroke="none" x="563.0" y="111.0" font-size="20.0" font-family="helvetica"/>
   </g>
   <g>
    <circle stroke="black" stroke-width="0.5" fill="#aaffff" cx="563.0" cy="158.0" r="1.0"/>
    <text stroke="none" x="563.0" y="158.0" font-size="20.0" font-family="helvetica"/>
   </g>
   <g>
    <circle stroke="black" stroke-width="0.5" fill="#aaffff" cx="563.0" cy="205.0" r="1.0"/>
    <text stroke="none" x="563.0" y="205.0" font-size="20.0" font-family="helvetica">Pedobacter caeni DSM 16990T</text>
   </g>
   <g>
    <circle stroke="black" stroke-width="0.5" fill="#aaffff" cx="563.0" cy="299.0" r="1.0"/>
    <text stroke="none" x="563.0" y="299.0" font-size="20.0" font-family="helvetica">WB 2.1-25T</text>
   </g>
   <g>
    <circle stroke="black" stroke-width="0.5" fill="#aaffff" cx="563.0" cy="346.0" r="1.0"/>
    <text stroke="none" x="563.0" y="346.0" font-size="20.0" font-family="helvetica">Pedobacter cryoconitr's DSM 148257</text>
   </g>
   <g>
    <circle stroke="black" stroke-width="0.5" fill="#aaffff" cx="563.0" cy="394.0" r="1.0"/>
    <text stroke="none" x="563.0" y="394.0" font-size="20.0" font-family="helvetica">WB 3.3—22T</text>
   </g>
   <line stroke="black" x1="62.0" y1="100.0" x2="60.0" y2="100.0" stroke-width="0.5"/>
   <line stroke="black" x1="563.0" y1="111.0" x2="250.0" y2="157.0" stroke-width="0.5"/>
   <line stroke="black" x1="563.0" y1="158.0" x2="288.0" y2="216.0" stroke-width="0.5"/>
   <line stroke="black" x1="563.0" y1="299.0" x2="370.0" y2="334.0" stroke-width="0.5"/>
   <line stroke="black" x1="433.0" y1="42.0" x2="62.0" y2="100.0" stroke-width="0.5"/>
   <line stroke="black" x1="433.0" y1="42.0" x2="519.0" y2="63.0" stroke-width="0.5"/>
   <line stroke="black" x1="62.0" y1="100.0" x2="250.0" y2="157.0" stroke-width="0.5"/>
   <line stroke="black" x1="250.0" y1="157.0" x2="288.0" y2="216.0" stroke-width="0.5"/>
   <line stroke="black" x1="288.0" y1="216.0" x2="351.0" y2="275.0" stroke-width="0.5"/>
   <line stroke="black" x1="351.0" y1="275.0" x2="370.0" y2="334.0" stroke-width="0.5"/>
   <line stroke="black" x1="370.0" y1="334.0" x2="432.0" y2="369.0" stroke-width="0.5"/>
   <line stroke="black" x1="563.0" y1="346.0" x2="432.0" y2="369.0" stroke-width="0.5"/>
   <line stroke="black" x1="563.0" y1="394.0" x2="432.0" y2="369.0" stroke-width="0.5"/>
   <line stroke="black" x1="563.0" y1="17.0" x2="433.0" y2="42.0" stroke-width="0.5"/>
   <line stroke="black" x1="351.0" y1="275.0" x2="563.0" y2="205.0" stroke-width="0.5"/>
  </g>
 </g>
</svg>
