<?xml version="1.0" encoding="UTF-8"?>
<svg xmlns="http://www.w3.org/2000/svg">
 <g>
  <g>
   <g>
    <circle stroke="black" stroke-width="0.5" fill="#aaffff" cx="0.0" cy="206.0" r="1.0"/>
    <text stroke="none" x="0.0" y="206.0" font-size="20.0" font-family="helvetica"/>
   </g>
   <g>
    <circle stroke="black" stroke-width="0.5" fill="#aaffff" cx="3.0" cy="206.0" r="1.0"/>
    <text stroke="none" x="3.0" y="206.0" font-size="10.0" font-family="helvetica">NT1.2</text>
   </g>
   <g>
    <circle stroke="black" stroke-width="0.5" fill="#aaffff" cx="85.0" cy="500.0" r="1.0"/>
    <text stroke="none" x="85.0" y="500.0" font-size="10.0" font-family="helvetica">NT1.3</text>
   </g>
   <g>
    <circle stroke="black" stroke-width="0.5" fill="#aaffff" cx="129.0" cy="193.0" r="1.0"/>
    <text stroke="none" x="129.0" y="193.0" font-size="20.0" font-family="helvetica"/>
   </g>
   <g>
    <circle stroke="black" stroke-width="0.5" fill="#aaffff" cx="146.0" cy="808.0" r="1.0"/>
    <text stroke="none" x="146.0" y="808.0" font-size="10.0" font-family="helvetica">NT1.5</text>
   </g>
   <g>
    <circle stroke="black" stroke-width="0.5" fill="#aaffff" cx="331.0" cy="61.0" r="1.0"/>
    <text stroke="none" x="331.0" y="61.0" font-size="10.0" font-family="helvetica">NT1.6</text>
   </g>
   <g>
    <circle stroke="black" stroke-width="0.5" fill="#aaffff" cx="399.0" cy="104.0" r="1.0"/>
    <text stroke="none" x="399.0" y="104.0" font-size="20.0" font-family="helvetica"/>
   </g>
   <g>
    <circle stroke="black" stroke-width="0.5" fill="#aaffff" cx="410.0" cy="461.0" r="1.0"/>
    <text stroke="none" x="410.0" y="461.0" font-size="10.0" font-family="helvetica">NT1.8</text>
   </g>
   <g>
    <circle stroke="black" stroke-width="0.5" fill="#aaffff" cx="457.0" cy="329.0" r="1.0"/>
    <text stroke="none" x="457.0" y="329.0" font-size="10.0" font-family="helvetica">NT1.9</text>
   </g>
   <g>
    <circle stroke="black" stroke-width="0.5" fill="#aaffff" cx="458.0" cy="374.0" r="1.0"/>
    <text stroke="none" x="458.0" y="374.0" font-size="20.0" font-family="helvetica"/>
   </g>
   <g>
    <circle stroke="black" stroke-width="0.5" fill="#aaffff" cx="458.0" cy="281.0" r="1.0"/>
    <text stroke="none" x="458.0" y="281.0" font-size="20.0" font-family="helvetica">P. angustum ATCC 25915T</text>
   </g>
   <g>
    <circle stroke="black" stroke-width="0.5" fill="#aaffff" cx="474.0" cy="591.0" r="1.0"/>
    <text stroke="none" x="474.0" y="591.0" font-size="10.0" font-family="helvetica">NT1.12</text>
   </g>
   <g>
    <circle stroke="black" stroke-width="0.5" fill="#aaffff" cx="484.0" cy="1159.0" r="1.0"/>
    <text stroke="none" x="484.0" y="1159.0" font-size="10.0" font-family="helvetica">NT1.13</text>
   </g>
   <g>
    <circle stroke="black" stroke-width="0.5" fill="#aaffff" cx="507.0" cy="17.0" r="1.0"/>
    <text stroke="none" x="507.0" y="17.0" font-size="20.0" font-family="helvetica"/>
   </g>
   <g>
    <circle stroke="black" stroke-width="0.5" fill="#aaffff" cx="576.0" cy="1371.0" r="1.0"/>
    <text stroke="none" x="576.0" y="1371.0" font-size="10.0" font-family="helvetica">NT1.15</text>
   </g>
   <g>
    <circle stroke="black" stroke-width="0.5" fill="#aaffff" cx="580.0" cy="951.0" r="1.0"/>
    <text stroke="none" x="580.0" y="951.0" font-size="10.0" font-family="helvetica">NT1.16</text>
   </g>
   <g>
    <circle stroke="black" stroke-width="0.5" fill="#aaffff" cx="600.0" cy="1037.0" r="1.0"/>
    <text stroke="none" x="600.0" y="1037.0" font-size="10.0" font-family="helvetica">NT1.17</text>
   </g>
   <g>
    <circle stroke="black" stroke-width="0.5" fill="#aaffff" cx="601.0" cy="992.0" r="1.0"/>
    <text stroke="none" x="601.0" y="992.0" font-size="20.0" font-family="helvetica"/>
   </g>
   <g>
    <circle stroke="black" stroke-width="0.5" fill="#aaffff" cx="602.0" cy="994.0" r="1.0"/>
    <text stroke="none" x="602.0" y="994.0" font-size="10.0" font-family="helvetica">NT1.19</text>
   </g>
   <g>
    <circle stroke="black" stroke-width="0.5" fill="#aaffff" cx="608.0" cy="994.0" r="1.0"/>
    <text stroke="none" x="608.0" y="994.0" font-size="20.0" font-family="helvetica"/>
   </g>
   <g>
    <circle stroke="black" stroke-width="0.5" fill="#aaffff" cx="609.0" cy="1503.0" r="1.0"/>
    <text stroke="none" x="609.0" y="1503.0" font-size="10.0" font-family="helvetica">NT1.21</text>
   </g>
   <g>
    <circle stroke="black" stroke-width="0.5" fill="#aaffff" cx="610.0" cy="1083.0" r="1.0"/>
    <text stroke="none" x="610.0" y="1083.0" font-size="20.0" font-family="helvetica"/>
   </g>
   <g>
    <circle stroke="black" stroke-width="0.5" fill="#aaffff" cx="610.0" cy="815.0" r="1.0"/>
    <text stroke="none" x="610.0" y="815.0" font-size="20.0" font-family="helvetica"/>
   </g>
   <g>
    <circle stroke="black" stroke-width="0.5" fill="#aaffff" cx="610.0" cy="840.0" r="1.0"/>
    <text stroke="none" x="610.0" y="840.0" font-size="10.0" font-family="helvetica">NT1.24</text>
   </g>
   <g>
    <circle stroke="black" stroke-width="0.5" fill="#aaffff" cx="611.0" cy="907.0" r="1.0"/>
    <text stroke="none" x="611.0" y="907.0" font-size="20.0" font-family="helvetica"/>
   </g>
   <g>
    <circle stroke="black" stroke-width="0.5" fill="#aaffff" cx="611.0" cy="1437.0" r="1.0"/>
    <text stroke="none" x="611.0" y="1437.0" font-size="20.0" font-family="helvetica"/>
   </g>
   <g>
    <circle stroke="black" stroke-width="0.5" fill="#aaffff" cx="612.0" cy="904.0" r="1.0"/>
    <text stroke="none" x="612.0" y="904.0" font-size="10.0" font-family="helvetica">NT1.27</text>
   </g>
   <g>
    <circle stroke="black" stroke-width="0.5" fill="#aaffff" cx="612.0" cy="1439.0" r="1.0"/>
    <text stroke="none" x="612.0" y="1439.0" font-size="10.0" font-family="helvetica">NT1.28</text>
   </g>
   <g>
    <circle stroke="black" stroke-width="0.5" fill="#aaffff" cx="615.0" cy="904.0" r="1.0"/>
    <text stroke="none" x="615.0" y="904.0" font-size="20.0" font-family="helvetica"/>
   </g>
   <g>
    <circle stroke="black" stroke-width="0.5" fill="#aaffff" cx="615.0" cy="1241.0" r="1.0"/>
    <text stroke="none" x="615.0" y="1241.0" font-size="10.0" font-family="helvetica">NT1.30</text>
   </g>
   <g>
    <circle stroke="black" stroke-width="0.5" fill="#aaffff" cx="616.0" cy="1171.0" r="1.0"/>
    <text stroke="none" x="616.0" y="1171.0" font-size="20.0" font-family="helvetica"/>
   </g>
   <g>
    <circle stroke="black" stroke-width="0.5" fill="#aaffff" cx="618.0" cy="1527.0" r="1.0"/>
    <text stroke="none" x="618.0" y="1527.0" font-size="20.0" font-family="helvetica"/>
   </g>
   <g>
    <circle stroke="black" stroke-width="0.5" fill="#aaffff" cx="619.0" cy="1529.0" r="1.0"/>
    <text stroke="none" x="619.0" y="1529.0" font-size="10.0" font-family="helvetica">NT1.33</text>
   </g>
   <g>
    <circle stroke="black" stroke-width="0.5" fill="#aaffff" cx="620.0" cy="1439.0" r="1.0"/>
    <text stroke="none" x="620.0" y="1439.0" font-size="20.0" font-family="helvetica"/>
   </g>
   <g>
    <circle stroke="black" stroke-width="0.5" fill="#aaffff" cx="622.0" cy="1529.0" r="1.0"/>
    <text stroke="none" x="622.0" y="1529.0" font-size="20.0" font-family="helvetica"/>
   </g>
   <g>
    <circle stroke="black" stroke-width="0.5" fill="#aaffff" cx="623.0" cy="1260.0" r="1.0"/>
    <text stroke="none" x="623.0" y="1260.0" font-size="20.0" font-family="helvetica"/>
   </g>
   <g>
    <circle stroke="black" stroke-width="0.5" fill="#aaffff" cx="727.0" cy="506.0" r="1.0"/>
    <text stroke="none" x="727.0" y="506.0" font-size="10.0" font-family="helvetica">NT1.37</text>
   </g>
   <g>
    <circle stroke="black" stroke-width="0.5" fill="#aaffff" cx="729.0" cy="457.0" r="1.0"/>
    <text stroke="none" x="729.0" y="457.0" font-size="20.0" font-family="helvetica"/>
   </g>
   <g>
    <circle stroke="black" stroke-width="0.5" fill="#aaffff" cx="730.0" cy="459.0" r="1.0"/>
    <text stroke="none" x="730.0" y="459.0" font-size="10.0" font-family="helvetica">NT1.39</text>
   </g>
   <g>
    <circle stroke="black" stroke-width="0.5" fill="#aaffff" cx="738.0" cy="549.0" r="1.0"/>
    <text stroke="none" x="738.0" y="549.0" font-size="20.0" font-family="helvetica"/>
   </g>
   <g>
    <circle stroke="black" stroke-width="0.5" fill="#aaffff" cx="738.0" cy="459.0" r="1.0"/>
    <text stroke="none" x="738.0" y="459.0" font-size="20.0" font-family="helvetica"/>
   </g>
   <g>
    <circle stroke="black" stroke-width="0.5" fill="#aaffff" cx="747.0" cy="681.0" r="1.0"/>
    <text stroke="none" x="747.0" y="681.0" font-size="10.0" font-family="helvetica">NT1.42</text>
   </g>
   <g>
    <circle stroke="black" stroke-width="0.5" fill="#aaffff" cx="748.0" cy="730.0" r="1.0"/>
    <text stroke="none" x="748.0" y="730.0" font-size="20.0" font-family="helvetica"/>
   </g>
   <g>
    <circle stroke="black" stroke-width="0.5" fill="#aaffff" cx="749.0" cy="728.0" r="1.0"/>
    <text stroke="none" x="749.0" y="728.0" font-size="10.0" font-family="helvetica">NT1.44</text>
   </g>
   <g>
    <circle stroke="black" stroke-width="0.5" fill="#aaffff" cx="752.0" cy="638.0" r="1.0"/>
    <text stroke="none" x="752.0" y="638.0" font-size="20.0" font-family="helvetica"/>
   </g>
   <g>
    <circle stroke="black" stroke-width="0.5" fill="#aaffff" cx="754.0" cy="728.0" r="1.0"/>
    <text stroke="none" x="754.0" y="728.0" font-size="20.0" font-family="helvetica"/>
   </g>
   <line stroke="black" x1="0.0" y1="206.0" x2="3.0" y2="206.0" stroke-width="0.5"/>
   <line stroke="black" x1="458.0" y1="374.0" x2="457.0" y2="329.0" stroke-width="0.5"/>
   <line stroke="black" x1="458.0" y1="281.0" x2="457.0" y2="329.0" stroke-width="0.5"/>
   <line stroke="black" x1="602.0" y1="994.0" x2="601.0" y2="992.0" stroke-width="0.5"/>
   <line stroke="black" x1="608.0" y1="994.0" x2="602.0" y2="994.0" stroke-width="0.5"/>
   <line stroke="black" x1="610.0" y1="840.0" x2="610.0" y2="815.0" stroke-width="0.5"/>
   <line stroke="black" x1="615.0" y1="904.0" x2="612.0" y2="904.0" stroke-width="0.5"/>
   <line stroke="black" x1="611.0" y1="907.0" x2="612.0" y2="904.0" stroke-width="0.5"/>
   <line stroke="black" x1="730.0" y1="459.0" x2="729.0" y2="457.0" stroke-width="0.5"/>
   <line stroke="black" x1="738.0" y1="459.0" x2="730.0" y2="459.0" stroke-width="0.5"/>
   <line stroke="black" x1="748.0" y1="730.0" x2="749.0" y2="728.0" stroke-width="0.5"/>
   <line stroke="black" x1="754.0" y1="728.0" x2="749.0" y2="728.0" stroke-width="0.5"/>
   <line stroke="black" x1="612.0" y1="1439.0" x2="611.0" y2="1437.0" stroke-width="0.5"/>
   <line stroke="black" x1="620.0" y1="1439.0" x2="612.0" y2="1439.0" stroke-width="0.5"/>
   <line stroke="black" x1="622.0" y1="1529.0" x2="619.0" y2="1529.0" stroke-width="0.5"/>
   <line stroke="black" x1="619.0" y1="1529.0" x2="618.0" y2="1527.0" stroke-width="0.5"/>
   <line stroke="black" x1="331.0" y1="61.0" x2="3.0" y2="206.0" stroke-width="0.5"/>
   <line stroke="black" x1="3.0" y1="206.0" x2="85.0" y2="500.0" stroke-width="0.5"/>
   <line stroke="black" x1="85.0" y1="500.0" x2="146.0" y2="808.0" stroke-width="0.5"/>
   <line stroke="black" x1="146.0" y1="808.0" x2="484.0" y2="1159.0" stroke-width="0.5"/>
   <line stroke="black" x1="146.0" y1="808.0" x2="410.0" y2="461.0" stroke-width="0.5"/>
   <line stroke="black" x1="410.0" y1="461.0" x2="474.0" y2="591.0" stroke-width="0.5"/>
   <line stroke="black" x1="410.0" y1="461.0" x2="457.0" y2="329.0" stroke-width="0.5"/>
   <line stroke="black" x1="484.0" y1="1159.0" x2="576.0" y2="1371.0" stroke-width="0.5"/>
   <line stroke="black" x1="484.0" y1="1159.0" x2="580.0" y2="951.0" stroke-width="0.5"/>
   <line stroke="black" x1="474.0" y1="591.0" x2="747.0" y2="681.0" stroke-width="0.5"/>
   <line stroke="black" x1="474.0" y1="591.0" x2="727.0" y2="506.0" stroke-width="0.5"/>
   <line stroke="black" x1="576.0" y1="1371.0" x2="609.0" y2="1503.0" stroke-width="0.5"/>
   <line stroke="black" x1="576.0" y1="1371.0" x2="615.0" y2="1241.0" stroke-width="0.5"/>
   <line stroke="black" x1="580.0" y1="951.0" x2="600.0" y2="1037.0" stroke-width="0.5"/>
   <line stroke="black" x1="580.0" y1="951.0" x2="610.0" y2="840.0" stroke-width="0.5"/>
   <line stroke="black" x1="600.0" y1="1037.0" x2="602.0" y2="994.0" stroke-width="0.5"/>
   <line stroke="black" x1="610.0" y1="840.0" x2="612.0" y2="904.0" stroke-width="0.5"/>
   <line stroke="black" x1="727.0" y1="506.0" x2="730.0" y2="459.0" stroke-width="0.5"/>
   <line stroke="black" x1="609.0" y1="1503.0" x2="612.0" y2="1439.0" stroke-width="0.5"/>
   <line stroke="black" x1="747.0" y1="681.0" x2="749.0" y2="728.0" stroke-width="0.5"/>
   <line stroke="black" x1="129.0" y1="193.0" x2="85.0" y2="500.0" stroke-width="0.5"/>
   <line stroke="black" x1="399.0" y1="104.0" x2="331.0" y2="61.0" stroke-width="0.5"/>
   <line stroke="black" x1="507.0" y1="17.0" x2="331.0" y2="61.0" stroke-width="0.5"/>
   <line stroke="black" x1="610.0" y1="1083.0" x2="600.0" y2="1037.0" stroke-width="0.5"/>
   <line stroke="black" x1="609.0" y1="1503.0" x2="619.0" y2="1529.0" stroke-width="0.5"/>
   <line stroke="black" x1="616.0" y1="1171.0" x2="615.0" y2="1241.0" stroke-width="0.5"/>
   <line stroke="black" x1="623.0" y1="1260.0" x2="615.0" y2="1241.0" stroke-width="0.5"/>
   <line stroke="black" x1="738.0" y1="549.0" x2="727.0" y2="506.0" stroke-width="0.5"/>
   <line stroke="black" x1="752.0" y1="638.0" x2="747.0" y2="681.0" stroke-width="0.5"/>
  </g>
 </g>
</svg>
