<?xml version="1.0" encoding="UTF-8"?>
<svg xmlns="http://www.w3.org/2000/svg">
 <g>
  <g>
   <g>
    <circle stroke="black" stroke-width="0.5" fill="#aaffff" cx="14.0" cy="906.0" r="1.0"/>
    <text stroke="none" x="14.0" y="906.0" font-size="20.0" font-family="helvetica">51</text>
   </g>
   <g>
    <circle stroke="black" stroke-width="0.5" fill="#aaffff" cx="53.0" cy="862.0" r="1.0"/>
    <text stroke="none" x="53.0" y="862.0" font-size="20.0" font-family="helvetica">68</text>
   </g>
   <g>
    <circle stroke="black" stroke-width="0.5" fill="#aaffff" cx="78.0" cy="813.0" r="1.0"/>
    <text stroke="none" x="78.0" y="813.0" font-size="10.0" font-family="helvetica">NT1.3</text>
   </g>
   <g>
    <circle stroke="black" stroke-width="0.5" fill="#aaffff" cx="96.0" cy="753.0" r="1.0"/>
    <text stroke="none" x="96.0" y="753.0" font-size="10.0" font-family="helvetica">NT1.4</text>
   </g>
   <g>
    <circle stroke="black" stroke-width="0.5" fill="#aaffff" cx="117.0" cy="484.0" r="1.0"/>
    <text stroke="none" x="117.0" y="484.0" font-size="10.0" font-family="helvetica">NT1.5</text>
   </g>
   <g>
    <circle stroke="black" stroke-width="0.5" fill="#aaffff" cx="129.0" cy="385.0" r="1.0"/>
    <text stroke="none" x="129.0" y="385.0" font-size="20.0" font-family="helvetica"> .</text>
   </g>
   <g>
    <circle stroke="black" stroke-width="0.5" fill="#aaffff" cx="147.0" cy="302.0" r="1.0"/>
    <text stroke="none" x="147.0" y="302.0" font-size="10.0" font-family="helvetica">NT1.7</text>
   </g>
   <g>
    <circle stroke="black" stroke-width="0.5" fill="#aaffff" cx="155.0" cy="465.0" r="1.0"/>
    <text stroke="none" x="155.0" y="465.0" font-size="10.0" font-family="helvetica">NT1.8</text>
   </g>
   <g>
    <circle stroke="black" stroke-width="0.5" fill="#aaffff" cx="157.0" cy="696.0" r="1.0"/>
    <text stroke="none" x="157.0" y="696.0" font-size="10.0" font-family="helvetica">NT1.9</text>
   </g>
   <g>
    <circle stroke="black" stroke-width="0.5" fill="#aaffff" cx="158.0" cy="256.0" r="1.0"/>
    <text stroke="none" x="158.0" y="256.0" font-size="10.0" font-family="helvetica">NT1.10</text>
   </g>
   <g>
    <circle stroke="black" stroke-width="0.5" fill="#aaffff" cx="159.0" cy="950.0" r="1.0"/>
    <text stroke="none" x="159.0" y="950.0" font-size="20.0" font-family="helvetica">N. trehalosi VKM Ac—942T (AF105972)</text>
   </g>
   <g>
    <circle stroke="black" stroke-width="0.5" fill="#aaffff" cx="162.0" cy="874.0" r="1.0"/>
    <text stroke="none" x="162.0" y="874.0" font-size="20.0" font-family="helvetica"> N. composta K39T (AF360734)</text>
   </g>
   <g>
    <circle stroke="black" stroke-width="0.5" fill="#aaffff" cx="169.0" cy="808.0" r="1.0"/>
    <text stroke="none" x="169.0" y="808.0" font-size="20.0" font-family="helvetica">’98</text>
   </g>
   <g>
    <circle stroke="black" stroke-width="0.5" fill="#aaffff" cx="174.0" cy="201.0" r="1.0"/>
    <text stroke="none" x="174.0" y="201.0" font-size="10.0" font-family="helvetica">NT1.14</text>
   </g>
   <g>
    <circle stroke="black" stroke-width="0.5" fill="#aaffff" cx="179.0" cy="149.0" r="1.0"/>
    <text stroke="none" x="179.0" y="149.0" font-size="10.0" font-family="helvetica">NT1.15</text>
   </g>
   <g>
    <circle stroke="black" stroke-width="0.5" fill="#aaffff" cx="179.0" cy="434.0" r="1.0"/>
    <text stroke="none" x="179.0" y="434.0" font-size="20.0" font-family="helvetica">64</text>
   </g>
   <g>
    <circle stroke="black" stroke-width="0.5" fill="#aaffff" cx="196.0" cy="405.0" r="1.0"/>
    <text stroke="none" x="196.0" y="405.0" font-size="10.0" font-family="helvetica">NT1.17</text>
   </g>
   <g>
    <circle stroke="black" stroke-width="0.5" fill="#aaffff" cx="203.0" cy="582.0" r="1.0"/>
    <text stroke="none" x="203.0" y="582.0" font-size="20.0" font-family="helvetica">‘99</text>
   </g>
   <g>
    <circle stroke="black" stroke-width="0.5" fill="#aaffff" cx="209.0" cy="461.0" r="1.0"/>
    <text stroke="none" x="209.0" y="461.0" font-size="20.0" font-family="helvetica">N. dassonvillei subsp. dassonvillei DSM 43111T (X97886)</text>
   </g>
   <g>
    <circle stroke="black" stroke-width="0.5" fill="#aaffff" cx="211.0" cy="99.0" r="1.0"/>
    <text stroke="none" x="211.0" y="99.0" font-size="10.0" font-family="helvetica">NT1.20</text>
   </g>
   <g>
    <circle stroke="black" stroke-width="0.5" fill="#aaffff" cx="211.0" cy="668.0" r="1.0"/>
    <text stroke="none" x="211.0" y="668.0" font-size="10.0" font-family="helvetica">NT1.21</text>
   </g>
   <g>
    <circle stroke="black" stroke-width="0.5" fill="#aaffff" cx="212.0" cy="424.0" r="1.0"/>
    <text stroke="none" x="212.0" y="424.0" font-size="20.0" font-family="helvetica"/>
   </g>
   <g>
    <circle stroke="black" stroke-width="0.5" fill="#aaffff" cx="215.0" cy="348.0" r="1.0"/>
    <text stroke="none" x="215.0" y="348.0" font-size="20.0" font-family="helvetica"> N. Iucentensis DSM 44048T (X97888)</text>
   </g>
   <g>
    <circle stroke="black" stroke-width="0.5" fill="#aaffff" cx="217.0" cy="687.0" r="1.0"/>
    <text stroke="none" x="217.0" y="687.0" font-size="20.0" font-family="helvetica"/>
   </g>
   <g>
    <circle stroke="black" stroke-width="0.5" fill="#aaffff" cx="223.0" cy="141.0" r="1.0"/>
    <text stroke="none" x="223.0" y="141.0" font-size="10.0" font-family="helvetica">NT1.25</text>
   </g>
   <g>
    <circle stroke="black" stroke-width="0.5" fill="#aaffff" cx="223.0" cy="781.0" r="1.0"/>
    <text stroke="none" x="223.0" y="781.0" font-size="10.0" font-family="helvetica">NT1.26</text>
   </g>
   <g>
    <circle stroke="black" stroke-width="0.5" fill="#aaffff" cx="224.0" cy="311.0" r="1.0"/>
    <text stroke="none" x="224.0" y="311.0" font-size="20.0" font-family="helvetica"> N. aegyptia DSM 44442T (AJ539401)</text>
   </g>
   <g>
    <circle stroke="black" stroke-width="0.5" fill="#aaffff" cx="224.0" cy="385.0" r="1.0"/>
    <text stroke="none" x="224.0" y="385.0" font-size="20.0" font-family="helvetica"/>
   </g>
   <g>
    <circle stroke="black" stroke-width="0.5" fill="#aaffff" cx="224.0" cy="649.0" r="1.0"/>
    <text stroke="none" x="224.0" y="649.0" font-size="20.0" font-family="helvetica">N. baichengensis YIM 901 SOT (AY619716)</text>
   </g>
   <g>
    <circle stroke="black" stroke-width="0.5" fill="#aaffff" cx="225.0" cy="724.0" r="1.0"/>
    <text stroke="none" x="225.0" y="724.0" font-size="20.0" font-family="helvetica"> N. chromatogenes YIM 90109T (AY619715)</text>
   </g>
   <g>
    <circle stroke="black" stroke-width="0.5" fill="#aaffff" cx="228.0" cy="198.0" r="1.0"/>
    <text stroke="none" x="228.0" y="198.0" font-size="20.0" font-family="helvetica">N. alba DSM 43377T (X97883)</text>
   </g>
   <g>
    <circle stroke="black" stroke-width="0.5" fill="#aaffff" cx="239.0" cy="913.0" r="1.0"/>
    <text stroke="none" x="239.0" y="913.0" font-size="20.0" font-family="helvetica">Strain S186T (EF095149)</text>
   </g>
   <g>
    <circle stroke="black" stroke-width="0.5" fill="#aaffff" cx="241.0" cy="555.0" r="1.0"/>
    <text stroke="none" x="241.0" y="555.0" font-size="10.0" font-family="helvetica">NT1.33</text>
   </g>
   <g>
    <circle stroke="black" stroke-width="0.5" fill="#aaffff" cx="243.0" cy="57.0" r="1.0"/>
    <text stroke="none" x="243.0" y="57.0" font-size="10.0" font-family="helvetica">NT1.34</text>
   </g>
   <g>
    <circle stroke="black" stroke-width="0.5" fill="#aaffff" cx="257.0" cy="761.0" r="1.0"/>
    <text stroke="none" x="257.0" y="761.0" font-size="20.0" font-family="helvetica"/>
   </g>
   <g>
    <circle stroke="black" stroke-width="0.5" fill="#aaffff" cx="259.0" cy="29.0" r="1.0"/>
    <text stroke="none" x="259.0" y="29.0" font-size="10.0" font-family="helvetica">NT1.36</text>
   </g>
   <g>
    <circle stroke="black" stroke-width="0.5" fill="#aaffff" cx="261.0" cy="837.0" r="1.0"/>
    <text stroke="none" x="261.0" y="837.0" font-size="20.0" font-family="helvetica">N. gilva YIM 90087T (AY619712)</text>
   </g>
   <g>
    <circle stroke="black" stroke-width="0.5" fill="#aaffff" cx="268.0" cy="611.0" r="1.0"/>
    <text stroke="none" x="268.0" y="611.0" font-size="20.0" font-family="helvetica">N. salina YIM 90010T (AY373031)</text>
   </g>
   <g>
    <circle stroke="black" stroke-width="0.5" fill="#aaffff" cx="270.0" cy="86.0" r="1.0"/>
    <text stroke="none" x="270.0" y="86.0" font-size="20.0" font-family="helvetica"/>
   </g>
   <g>
    <circle stroke="black" stroke-width="0.5" fill="#aaffff" cx="273.0" cy="253.0" r="1.0"/>
    <text stroke="none" x="273.0" y="253.0" font-size="10.0" font-family="helvetica">NT1.40</text>
   </g>
   <g>
    <circle stroke="black" stroke-width="0.5" fill="#aaffff" cx="280.0" cy="499.0" r="1.0"/>
    <text stroke="none" x="280.0" y="499.0" font-size="20.0" font-family="helvetica">N. halotolerans DSM 44410T (AJ290448)</text>
   </g>
   <g>
    <circle stroke="black" stroke-width="0.5" fill="#aaffff" cx="281.0" cy="122.0" r="1.0"/>
    <text stroke="none" x="281.0" y="122.0" font-size="20.0" font-family="helvetica"/>
   </g>
   <g>
    <circle stroke="black" stroke-width="0.5" fill="#aaffff" cx="287.0" cy="47.0" r="1.0"/>
    <text stroke="none" x="287.0" y="47.0" font-size="20.0" font-family="helvetica">N. exhalans ES10.1T (AYOSGOOO)</text>
   </g>
   <g>
    <circle stroke="black" stroke-width="0.5" fill="#aaffff" cx="303.0" cy="10.0" r="1.0"/>
    <text stroke="none" x="303.0" y="10.0" font-size="20.0" font-family="helvetica"/>
   </g>
   <g>
    <circle stroke="black" stroke-width="0.5" fill="#aaffff" cx="311.0" cy="273.0" r="1.0"/>
    <text stroke="none" x="311.0" y="273.0" font-size="20.0" font-family="helvetica"> N. tropica VKM Ac»1457T (AF105971)</text>
   </g>
   <g>
    <circle stroke="black" stroke-width="0.5" fill="#aaffff" cx="313.0" cy="234.0" r="1.0"/>
    <text stroke="none" x="313.0" y="234.0" font-size="20.0" font-family="helvetica"/>
   </g>
   <g>
    <circle stroke="black" stroke-width="0.5" fill="#aaffff" cx="336.0" cy="161.0" r="1.0"/>
    <text stroke="none" x="336.0" y="161.0" font-size="20.0" font-family="helvetica"> N. alkaliphila DSM 44657T (AY230848)</text>
   </g>
   <g>
    <circle stroke="black" stroke-width="0.5" fill="#aaffff" cx="336.0" cy="536.0" r="1.0"/>
    <text stroke="none" x="336.0" y="536.0" font-size="20.0" font-family="helvetica">N. kunsanensis HA-QT (AF195412)</text>
   </g>
   <g>
    <circle stroke="black" stroke-width="0.5" fill="#aaffff" cx="346.0" cy="799.0" r="1.0"/>
    <text stroke="none" x="346.0" y="799.0" font-size="20.0" font-family="helvetica"> N. rosea YIM 90094T (AY619713)</text>
   </g>
   <g>
    <circle stroke="black" stroke-width="0.5" fill="#aaffff" cx="361.0" cy="574.0" r="1.0"/>
    <text stroke="none" x="361.0" y="574.0" font-size="20.0" font-family="helvetica">N. Xinjiangensis YIM 90004T (AF251709)</text>
   </g>
   <g>
    <circle stroke="black" stroke-width="0.5" fill="#aaffff" cx="2.0" cy="694.0" r="1.0"/>
    <text stroke="none" x="2.0" y="694.0" font-size="10.0" font-family="helvetica">NT1.51</text>
   </g>
   <line stroke="black" x1="303.0" y1="10.0" x2="259.0" y2="29.0" stroke-width="0.5"/>
   <line stroke="black" x1="287.0" y1="47.0" x2="259.0" y2="29.0" stroke-width="0.5"/>
   <line stroke="black" x1="270.0" y1="86.0" x2="243.0" y2="57.0" stroke-width="0.5"/>
   <line stroke="black" x1="281.0" y1="122.0" x2="223.0" y2="141.0" stroke-width="0.5"/>
   <line stroke="black" x1="228.0" y1="198.0" x2="179.0" y2="149.0" stroke-width="0.5"/>
   <line stroke="black" x1="336.0" y1="161.0" x2="223.0" y2="141.0" stroke-width="0.5"/>
   <line stroke="black" x1="224.0" y1="311.0" x2="158.0" y2="256.0" stroke-width="0.5"/>
   <line stroke="black" x1="311.0" y1="273.0" x2="273.0" y2="253.0" stroke-width="0.5"/>
   <line stroke="black" x1="313.0" y1="234.0" x2="273.0" y2="253.0" stroke-width="0.5"/>
   <line stroke="black" x1="215.0" y1="348.0" x2="147.0" y2="302.0" stroke-width="0.5"/>
   <line stroke="black" x1="209.0" y1="461.0" x2="179.0" y2="434.0" stroke-width="0.5"/>
   <line stroke="black" x1="212.0" y1="424.0" x2="196.0" y2="405.0" stroke-width="0.5"/>
   <line stroke="black" x1="224.0" y1="385.0" x2="196.0" y2="405.0" stroke-width="0.5"/>
   <line stroke="black" x1="280.0" y1="499.0" x2="155.0" y2="465.0" stroke-width="0.5"/>
   <line stroke="black" x1="268.0" y1="611.0" x2="203.0" y2="582.0" stroke-width="0.5"/>
   <line stroke="black" x1="336.0" y1="536.0" x2="241.0" y2="555.0" stroke-width="0.5"/>
   <line stroke="black" x1="361.0" y1="574.0" x2="241.0" y2="555.0" stroke-width="0.5"/>
   <line stroke="black" x1="159.0" y1="950.0" x2="14.0" y2="906.0" stroke-width="0.5"/>
   <line stroke="black" x1="162.0" y1="874.0" x2="78.0" y2="813.0" stroke-width="0.5"/>
   <line stroke="black" x1="239.0" y1="913.0" x2="53.0" y2="862.0" stroke-width="0.5"/>
   <line stroke="black" x1="225.0" y1="724.0" x2="157.0" y2="696.0" stroke-width="0.5"/>
   <line stroke="black" x1="217.0" y1="687.0" x2="211.0" y2="668.0" stroke-width="0.5"/>
   <line stroke="black" x1="224.0" y1="649.0" x2="211.0" y2="668.0" stroke-width="0.5"/>
   <line stroke="black" x1="261.0" y1="837.0" x2="169.0" y2="808.0" stroke-width="0.5"/>
   <line stroke="black" x1="257.0" y1="761.0" x2="223.0" y2="781.0" stroke-width="0.5"/>
   <line stroke="black" x1="346.0" y1="799.0" x2="223.0" y2="781.0" stroke-width="0.5"/>
   <line stroke="black" x1="259.0" y1="29.0" x2="243.0" y2="57.0" stroke-width="0.5"/>
   <line stroke="black" x1="243.0" y1="57.0" x2="211.0" y2="99.0" stroke-width="0.5"/>
   <line stroke="black" x1="211.0" y1="99.0" x2="179.0" y2="149.0" stroke-width="0.5"/>
   <line stroke="black" x1="211.0" y1="99.0" x2="223.0" y2="141.0" stroke-width="0.5"/>
   <line stroke="black" x1="179.0" y1="149.0" x2="174.0" y2="201.0" stroke-width="0.5"/>
   <line stroke="black" x1="174.0" y1="201.0" x2="158.0" y2="256.0" stroke-width="0.5"/>
   <line stroke="black" x1="174.0" y1="201.0" x2="273.0" y2="253.0" stroke-width="0.5"/>
   <line stroke="black" x1="158.0" y1="256.0" x2="147.0" y2="302.0" stroke-width="0.5"/>
   <line stroke="black" x1="147.0" y1="302.0" x2="129.0" y2="385.0" stroke-width="0.5"/>
   <line stroke="black" x1="129.0" y1="385.0" x2="117.0" y2="484.0" stroke-width="0.5"/>
   <line stroke="black" x1="129.0" y1="385.0" x2="155.0" y2="465.0" stroke-width="0.5"/>
   <line stroke="black" x1="155.0" y1="465.0" x2="179.0" y2="434.0" stroke-width="0.5"/>
   <line stroke="black" x1="117.0" y1="484.0" x2="203.0" y2="582.0" stroke-width="0.5"/>
   <line stroke="black" x1="179.0" y1="434.0" x2="196.0" y2="405.0" stroke-width="0.5"/>
   <line stroke="black" x1="203.0" y1="582.0" x2="241.0" y2="555.0" stroke-width="0.5"/>
   <line stroke="black" x1="14.0" y1="906.0" x2="53.0" y2="862.0" stroke-width="0.5"/>
   <line stroke="black" x1="53.0" y1="862.0" x2="78.0" y2="813.0" stroke-width="0.5"/>
   <line stroke="black" x1="78.0" y1="813.0" x2="96.0" y2="753.0" stroke-width="0.5"/>
   <line stroke="black" x1="96.0" y1="753.0" x2="169.0" y2="808.0" stroke-width="0.5"/>
   <line stroke="black" x1="96.0" y1="753.0" x2="157.0" y2="696.0" stroke-width="0.5"/>
   <line stroke="black" x1="157.0" y1="696.0" x2="211.0" y2="668.0" stroke-width="0.5"/>
   <line stroke="black" x1="169.0" y1="808.0" x2="223.0" y2="781.0" stroke-width="0.5"/>
   <line stroke="black" x1="2.0" y1="694.0" x2="117.0" y2="484.0" stroke-width="0.5"/>
   <line stroke="black" x1="2.0" y1="694.0" x2="14.0" y2="906.0" stroke-width="0.5"/>
  </g>
 </g>
</svg>
