<?xml version="1.0" encoding="UTF-8"?>
<svg xmlns="http://www.w3.org/2000/svg">
 <g>
  <g>
   <g>
    <circle stroke="black" stroke-width="0.5" fill="#aaffff" cx="17.0" cy="407.0" r="1.0"/>
    <text stroke="none" x="17.0" y="407.0" font-size="10.0" font-family="helvetica">NT1.1</text>
   </g>
   <g>
    <circle stroke="black" stroke-width="0.5" fill="#aaffff" cx="95.0" cy="340.0" r="1.0"/>
    <text stroke="none" x="95.0" y="340.0" font-size="20.0" font-family="helvetica">100</text>
   </g>
   <g>
    <circle stroke="black" stroke-width="0.5" fill="#aaffff" cx="112.0" cy="279.0" r="1.0"/>
    <text stroke="none" x="112.0" y="279.0" font-size="20.0" font-family="helvetica">562</text>
   </g>
   <g>
    <circle stroke="black" stroke-width="0.5" fill="#aaffff" cx="136.0" cy="72.0" r="1.0"/>
    <text stroke="none" x="136.0" y="72.0" font-size="10.0" font-family="helvetica">NT1.4</text>
   </g>
   <g>
    <circle stroke="black" stroke-width="0.5" fill="#aaffff" cx="136.0" cy="301.0" r="1.0"/>
    <text stroke="none" x="136.0" y="301.0" font-size="10.0" font-family="helvetica">NT1.5</text>
   </g>
   <g>
    <circle stroke="black" stroke-width="0.5" fill="#aaffff" cx="146.0" cy="473.0" r="1.0"/>
    <text stroke="none" x="146.0" y="473.0" font-size="20.0" font-family="helvetica">10°</text>
   </g>
   <g>
    <circle stroke="black" stroke-width="0.5" fill="#aaffff" cx="183.0" cy="505.0" r="1.0"/>
    <text stroke="none" x="183.0" y="505.0" font-size="10.0" font-family="helvetica">NT1.7</text>
   </g>
   <g>
    <circle stroke="black" stroke-width="0.5" fill="#aaffff" cx="185.0" cy="154.0" r="1.0"/>
    <text stroke="none" x="185.0" y="154.0" font-size="10.0" font-family="helvetica">NT1.8</text>
   </g>
   <g>
    <circle stroke="black" stroke-width="0.5" fill="#aaffff" cx="189.0" cy="450.0" r="1.0"/>
    <text stroke="none" x="189.0" y="450.0" font-size="10.0" font-family="helvetica">NT1.9</text>
   </g>
   <g>
    <circle stroke="black" stroke-width="0.5" fill="#aaffff" cx="190.0" cy="91.0" r="1.0"/>
    <text stroke="none" x="190.0" y="91.0" font-size="10.0" font-family="helvetica">NT1.10</text>
   </g>
   <g>
    <circle stroke="black" stroke-width="0.5" fill="#aaffff" cx="197.0" cy="26.0" r="1.0"/>
    <text stroke="none" x="197.0" y="26.0" font-size="10.0" font-family="helvetica">NT1.11</text>
   </g>
   <g>
    <circle stroke="black" stroke-width="0.5" fill="#aaffff" cx="211.0" cy="200.0" r="1.0"/>
    <text stroke="none" x="211.0" y="200.0" font-size="20.0" font-family="helvetica">Roseomonas aquatica TR53T (AM231587)</text>
   </g>
   <g>
    <circle stroke="black" stroke-width="0.5" fill="#aaffff" cx="212.0" cy="262.0" r="1.0"/>
    <text stroke="none" x="212.0" y="262.0" font-size="20.0" font-family="helvetica">100</text>
   </g>
   <g>
    <circle stroke="black" stroke-width="0.5" fill="#aaffff" cx="220.0" cy="362.0" r="1.0"/>
    <text stroke="none" x="220.0" y="362.0" font-size="20.0" font-family="helvetica">Paracraurococcus ruber N889T (D85827)</text>
   </g>
   <g>
    <circle stroke="black" stroke-width="0.5" fill="#aaffff" cx="224.0" cy="425.0" r="1.0"/>
    <text stroke="none" x="224.0" y="425.0" font-size="20.0" font-family="helvetica"/>
   </g>
   <g>
    <circle stroke="black" stroke-width="0.5" fill="#aaffff" cx="225.0" cy="329.0" r="1.0"/>
    <text stroke="none" x="225.0" y="329.0" font-size="20.0" font-family="helvetica">Muricoccus roseus 173/96T (AJ488505)</text>
   </g>
   <g>
    <circle stroke="black" stroke-width="0.5" fill="#aaffff" cx="228.0" cy="298.0" r="1.0"/>
    <text stroke="none" x="228.0" y="298.0" font-size="20.0" font-family="helvetica">Roseomonas mucosa ATCC BAA-692T (AF538712)</text>
   </g>
   <g>
    <circle stroke="black" stroke-width="0.5" fill="#aaffff" cx="230.0" cy="458.0" r="1.0"/>
    <text stroke="none" x="230.0" y="458.0" font-size="20.0" font-family="helvetica">Gluconobacter oxydans DSM 3503T (X73820)</text>
   </g>
   <g>
    <circle stroke="black" stroke-width="0.5" fill="#aaffff" cx="231.0" cy="42.0" r="1.0"/>
    <text stroke="none" x="231.0" y="42.0" font-size="20.0" font-family="helvetica">Roseomonas genomospecies 5 ATCC 49960 (AY150049)</text>
   </g>
   <g>
    <circle stroke="black" stroke-width="0.5" fill="#aaffff" cx="233.0" cy="489.0" r="1.0"/>
    <text stroke="none" x="233.0" y="489.0" font-size="20.0" font-family="helvetica">Acetobacter aceti NCIB 8621 T (X74066)</text>
   </g>
   <g>
    <circle stroke="black" stroke-width="0.5" fill="#aaffff" cx="233.0" cy="249.0" r="1.0"/>
    <text stroke="none" x="233.0" y="249.0" font-size="10.0" font-family="helvetica">NT1.21</text>
   </g>
   <g>
    <circle stroke="black" stroke-width="0.5" fill="#aaffff" cx="238.0" cy="233.0" r="1.0"/>
    <text stroke="none" x="238.0" y="233.0" font-size="20.0" font-family="helvetica"/>
   </g>
   <g>
    <circle stroke="black" stroke-width="0.5" fill="#aaffff" cx="241.0" cy="9.0" r="1.0"/>
    <text stroke="none" x="241.0" y="9.0" font-size="20.0" font-family="helvetica">Roseomonas genomospecies 4 ATCC 49959 (AY150048)</text>
   </g>
   <g>
    <circle stroke="black" stroke-width="0.5" fill="#aaffff" cx="243.0" cy="266.0" r="1.0"/>
    <text stroke="none" x="243.0" y="266.0" font-size="20.0" font-family="helvetica">Roseomonas gilardii subsp. gilardii ATCC 49956T (AY150045)</text>
   </g>
   <g>
    <circle stroke="black" stroke-width="0.5" fill="#aaffff" cx="243.0" cy="522.0" r="1.0"/>
    <text stroke="none" x="243.0" y="522.0" font-size="20.0" font-family="helvetica">Acetobacter lovaniensis IFO 13753T (A3032351)</text>
   </g>
   <g>
    <circle stroke="black" stroke-width="0.5" fill="#aaffff" cx="250.0" cy="105.0" r="1.0"/>
    <text stroke="none" x="250.0" y="105.0" font-size="20.0" font-family="helvetica">Teichococcus Iudipueritiae 170/96T (AJ488504)</text>
   </g>
   <g>
    <circle stroke="black" stroke-width="0.5" fill="#aaffff" cx="255.0" cy="73.0" r="1.0"/>
    <text stroke="none" x="255.0" y="73.0" font-size="20.0" font-family="helvetica">Roseomonas cen/icalis ATCC 49957T (AY150047)</text>
   </g>
   <g>
    <circle stroke="black" stroke-width="0.5" fill="#aaffff" cx="261.0" cy="394.0" r="1.0"/>
    <text stroke="none" x="261.0" y="394.0" font-size="20.0" font-family="helvetica">Roseococcus thiosulfatophilus R83T (X72908)</text>
   </g>
   <g>
    <circle stroke="black" stroke-width="0.5" fill="#aaffff" cx="278.0" cy="169.0" r="1.0"/>
    <text stroke="none" x="278.0" y="169.0" font-size="20.0" font-family="helvetica">Roseomonas lacus TH»G33T (AJ786000)</text>
   </g>
   <g>
    <circle stroke="black" stroke-width="0.5" fill="#aaffff" cx="288.0" cy="137.0" r="1.0"/>
    <text stroke="none" x="288.0" y="137.0" font-size="20.0" font-family="helvetica">Roseomonas terrae DS-48T (EF363716)</text>
   </g>
   <g>
    <circle stroke="black" stroke-width="0.5" fill="#aaffff" cx="398.0" cy="554.0" r="1.0"/>
    <text stroke="none" x="398.0" y="554.0" font-size="20.0" font-family="helvetica">Methylobacterium organophilum JCM 2833T (032226)</text>
   </g>
   <g>
    <circle stroke="black" stroke-width="0.5" fill="#aaffff" cx="2.0" cy="418.0" r="1.0"/>
    <text stroke="none" x="2.0" y="418.0" font-size="10.0" font-family="helvetica">NT1.32</text>
   </g>
   <line stroke="black" x1="231.0" y1="42.0" x2="197.0" y2="26.0" stroke-width="0.5"/>
   <line stroke="black" x1="250.0" y1="105.0" x2="190.0" y2="91.0" stroke-width="0.5"/>
   <line stroke="black" x1="255.0" y1="73.0" x2="190.0" y2="91.0" stroke-width="0.5"/>
   <line stroke="black" x1="211.0" y1="200.0" x2="185.0" y2="154.0" stroke-width="0.5"/>
   <line stroke="black" x1="278.0" y1="169.0" x2="185.0" y2="154.0" stroke-width="0.5"/>
   <line stroke="black" x1="288.0" y1="137.0" x2="185.0" y2="154.0" stroke-width="0.5"/>
   <line stroke="black" x1="225.0" y1="329.0" x2="136.0" y2="301.0" stroke-width="0.5"/>
   <line stroke="black" x1="228.0" y1="298.0" x2="212.0" y2="262.0" stroke-width="0.5"/>
   <line stroke="black" x1="238.0" y1="233.0" x2="233.0" y2="249.0" stroke-width="0.5"/>
   <line stroke="black" x1="243.0" y1="266.0" x2="233.0" y2="249.0" stroke-width="0.5"/>
   <line stroke="black" x1="220.0" y1="362.0" x2="112.0" y2="279.0" stroke-width="0.5"/>
   <line stroke="black" x1="224.0" y1="425.0" x2="189.0" y2="450.0" stroke-width="0.5"/>
   <line stroke="black" x1="230.0" y1="458.0" x2="189.0" y2="450.0" stroke-width="0.5"/>
   <line stroke="black" x1="233.0" y1="489.0" x2="183.0" y2="505.0" stroke-width="0.5"/>
   <line stroke="black" x1="197.0" y1="26.0" x2="136.0" y2="72.0" stroke-width="0.5"/>
   <line stroke="black" x1="136.0" y1="72.0" x2="190.0" y2="91.0" stroke-width="0.5"/>
   <line stroke="black" x1="136.0" y1="72.0" x2="185.0" y2="154.0" stroke-width="0.5"/>
   <line stroke="black" x1="136.0" y1="72.0" x2="112.0" y2="279.0" stroke-width="0.5"/>
   <line stroke="black" x1="112.0" y1="279.0" x2="136.0" y2="301.0" stroke-width="0.5"/>
   <line stroke="black" x1="112.0" y1="279.0" x2="95.0" y2="340.0" stroke-width="0.5"/>
   <line stroke="black" x1="136.0" y1="301.0" x2="212.0" y2="262.0" stroke-width="0.5"/>
   <line stroke="black" x1="95.0" y1="340.0" x2="17.0" y2="407.0" stroke-width="0.5"/>
   <line stroke="black" x1="212.0" y1="262.0" x2="233.0" y2="249.0" stroke-width="0.5"/>
   <line stroke="black" x1="17.0" y1="407.0" x2="146.0" y2="473.0" stroke-width="0.5"/>
   <line stroke="black" x1="146.0" y1="473.0" x2="183.0" y2="505.0" stroke-width="0.5"/>
   <line stroke="black" x1="146.0" y1="473.0" x2="189.0" y2="450.0" stroke-width="0.5"/>
   <line stroke="black" x1="2.0" y1="418.0" x2="17.0" y2="407.0" stroke-width="0.5"/>
   <line stroke="black" x1="398.0" y1="554.0" x2="2.0" y2="418.0" stroke-width="0.5"/>
   <line stroke="black" x1="261.0" y1="394.0" x2="95.0" y2="340.0" stroke-width="0.5"/>
   <line stroke="black" x1="243.0" y1="522.0" x2="183.0" y2="505.0" stroke-width="0.5"/>
   <line stroke="black" x1="241.0" y1="9.0" x2="197.0" y2="26.0" stroke-width="0.5"/>
  </g>
 </g>
</svg>
