<?xml version="1.0" encoding="UTF-8"?>
<svg xmlns="http://www.w3.org/2000/svg">
 <g>
  <g>
   <g>
    <circle stroke="black" stroke-width="0.5" fill="#aaffff" cx="114.0" cy="229.0" r="1.0"/>
    <text stroke="none" x="114.0" y="229.0" font-size="10.0" font-family="helvetica">NT1.1</text>
   </g>
   <g>
    <circle stroke="black" stroke-width="0.5" fill="#aaffff" cx="121.0" cy="180.0" r="1.0"/>
    <text stroke="none" x="121.0" y="180.0" font-size="10.0" font-family="helvetica">NT1.2</text>
   </g>
   <g>
    <circle stroke="black" stroke-width="0.5" fill="#aaffff" cx="141.0" cy="277.0" r="1.0"/>
    <text stroke="none" x="141.0" y="277.0" font-size="10.0" font-family="helvetica">NT1.3</text>
   </g>
   <g>
    <circle stroke="black" stroke-width="0.5" fill="#aaffff" cx="175.0" cy="523.0" r="1.0"/>
    <text stroke="none" x="175.0" y="523.0" font-size="10.0" font-family="helvetica">NT1.4</text>
   </g>
   <g>
    <circle stroke="black" stroke-width="0.5" fill="#aaffff" cx="176.0" cy="143.0" r="1.0"/>
    <text stroke="none" x="176.0" y="143.0" font-size="10.0" font-family="helvetica">NT1.5</text>
   </g>
   <g>
    <circle stroke="black" stroke-width="0.5" fill="#aaffff" cx="202.0" cy="358.0" r="1.0"/>
    <text stroke="none" x="202.0" y="358.0" font-size="10.0" font-family="helvetica">NT1.6</text>
   </g>
   <g>
    <circle stroke="black" stroke-width="0.5" fill="#aaffff" cx="214.0" cy="690.0" r="1.0"/>
    <text stroke="none" x="214.0" y="690.0" font-size="10.0" font-family="helvetica">NT1.7</text>
   </g>
   <g>
    <circle stroke="black" stroke-width="0.5" fill="#aaffff" cx="252.0" cy="109.0" r="1.0"/>
    <text stroke="none" x="252.0" y="109.0" font-size="10.0" font-family="helvetica">NT1.8</text>
   </g>
   <g>
    <circle stroke="black" stroke-width="0.5" fill="#aaffff" cx="254.0" cy="570.0" r="1.0"/>
    <text stroke="none" x="254.0" y="570.0" font-size="10.0" font-family="helvetica">NT1.9</text>
   </g>
   <g>
    <circle stroke="black" stroke-width="0.5" fill="#aaffff" cx="281.0" cy="476.0" r="1.0"/>
    <text stroke="none" x="281.0" y="476.0" font-size="10.0" font-family="helvetica">NT1.10</text>
   </g>
   <g>
    <circle stroke="black" stroke-width="0.5" fill="#aaffff" cx="300.0" cy="79.0" r="1.0"/>
    <text stroke="none" x="300.0" y="79.0" font-size="10.0" font-family="helvetica">NT1.11</text>
   </g>
   <g>
    <circle stroke="black" stroke-width="0.5" fill="#aaffff" cx="314.0" cy="436.0" r="1.0"/>
    <text stroke="none" x="314.0" y="436.0" font-size="10.0" font-family="helvetica">NT1.12</text>
   </g>
   <g>
    <circle stroke="black" stroke-width="0.5" fill="#aaffff" cx="342.0" cy="665.0" r="1.0"/>
    <text stroke="none" x="342.0" y="665.0" font-size="10.0" font-family="helvetica">NT1.13</text>
   </g>
   <g>
    <circle stroke="black" stroke-width="0.5" fill="#aaffff" cx="358.0" cy="594.0" r="1.0"/>
    <text stroke="none" x="358.0" y="594.0" font-size="10.0" font-family="helvetica">NT1.14</text>
   </g>
   <g>
    <circle stroke="black" stroke-width="0.5" fill="#aaffff" cx="369.0" cy="514.0" r="1.0"/>
    <text stroke="none" x="369.0" y="514.0" font-size="10.0" font-family="helvetica">NT1.15</text>
   </g>
   <g>
    <circle stroke="black" stroke-width="0.5" fill="#aaffff" cx="376.0" cy="736.0" r="1.0"/>
    <text stroke="none" x="376.0" y="736.0" font-size="10.0" font-family="helvetica">NT1.16</text>
   </g>
   <g>
    <circle stroke="black" stroke-width="0.5" fill="#aaffff" cx="414.0" cy="702.0" r="1.0"/>
    <text stroke="none" x="414.0" y="702.0" font-size="10.0" font-family="helvetica">NT1.17</text>
   </g>
   <g>
    <circle stroke="black" stroke-width="0.5" fill="#aaffff" cx="437.0" cy="673.0" r="1.0"/>
    <text stroke="none" x="437.0" y="673.0" font-size="10.0" font-family="helvetica">NT1.18</text>
   </g>
   <g>
    <circle stroke="black" stroke-width="0.5" fill="#aaffff" cx="438.0" cy="812.0" r="1.0"/>
    <text stroke="none" x="438.0" y="812.0" font-size="20.0" font-family="helvetica"/>
   </g>
   <g>
    <circle stroke="black" stroke-width="0.5" fill="#aaffff" cx="438.0" cy="772.0" r="1.0"/>
    <text stroke="none" x="438.0" y="772.0" font-size="20.0" font-family="helvetica"/>
   </g>
   <g>
    <circle stroke="black" stroke-width="0.5" fill="#aaffff" cx="438.0" cy="732.0" r="1.0"/>
    <text stroke="none" x="438.0" y="732.0" font-size="20.0" font-family="helvetica"/>
   </g>
   <g>
    <circle stroke="black" stroke-width="0.5" fill="#aaffff" cx="438.0" cy="692.0" r="1.0"/>
    <text stroke="none" x="438.0" y="692.0" font-size="20.0" font-family="helvetica"/>
   </g>
   <g>
    <circle stroke="black" stroke-width="0.5" fill="#aaffff" cx="439.0" cy="139.0" r="1.0"/>
    <text stroke="none" x="439.0" y="139.0" font-size="20.0" font-family="helvetica">C. Iari CCUG 20575T</text>
   </g>
   <g>
    <circle stroke="black" stroke-width="0.5" fill="#aaffff" cx="439.0" cy="179.0" r="1.0"/>
    <text stroke="none" x="439.0" y="179.0" font-size="20.0" font-family="helvetica">C. curvus CCUG13146T</text>
   </g>
   <g>
    <circle stroke="black" stroke-width="0.5" fill="#aaffff" cx="439.0" cy="218.0" r="1.0"/>
    <text stroke="none" x="439.0" y="218.0" font-size="20.0" font-family="helvetica">C. hyointestinalis subsp. Iawsonii CCUG 104686T</text>
   </g>
   <g>
    <circle stroke="black" stroke-width="0.5" fill="#aaffff" cx="439.0" cy="258.0" r="1.0"/>
    <text stroke="none" x="439.0" y="258.0" font-size="20.0" font-family="helvetica">C. hyointestinalis subsp. hyointestinalis CCUG 14169T</text>
   </g>
   <g>
    <circle stroke="black" stroke-width="0.5" fill="#aaffff" cx="439.0" cy="298.0" r="1.0"/>
    <text stroke="none" x="439.0" y="298.0" font-size="20.0" font-family="helvetica">C, 001/ CCUG 14540T</text>
   </g>
   <g>
    <circle stroke="black" stroke-width="0.5" fill="#aaffff" cx="439.0" cy="377.0" r="1.0"/>
    <text stroke="none" x="439.0" y="377.0" font-size="20.0" font-family="helvetica">C. sputorum bv. Sputorum CCUG 9728T</text>
   </g>
   <g>
    <circle stroke="black" stroke-width="0.5" fill="#aaffff" cx="439.0" cy="338.0" r="1.0"/>
    <text stroke="none" x="439.0" y="338.0" font-size="20.0" font-family="helvetica">C. jejuni subspjejuni NCTC 1135‘]T</text>
   </g>
   <g>
    <circle stroke="black" stroke-width="0.5" fill="#aaffff" cx="439.0" cy="456.0" r="1.0"/>
    <text stroke="none" x="439.0" y="456.0" font-size="20.0" font-family="helvetica"/>
   </g>
   <g>
    <circle stroke="black" stroke-width="0.5" fill="#aaffff" cx="439.0" cy="495.0" r="1.0"/>
    <text stroke="none" x="439.0" y="495.0" font-size="20.0" font-family="helvetica"/>
   </g>
   <g>
    <circle stroke="black" stroke-width="0.5" fill="#aaffff" cx="439.0" cy="534.0" r="1.0"/>
    <text stroke="none" x="439.0" y="534.0" font-size="20.0" font-family="helvetica"/>
   </g>
   <g>
    <circle stroke="black" stroke-width="0.5" fill="#aaffff" cx="439.0" cy="416.0" r="1.0"/>
    <text stroke="none" x="439.0" y="416.0" font-size="20.0" font-family="helvetica"/>
   </g>
   <g>
    <circle stroke="black" stroke-width="0.5" fill="#aaffff" cx="439.0" cy="613.0" r="1.0"/>
    <text stroke="none" x="439.0" y="613.0" font-size="20.0" font-family="helvetica">000.099.090.00</text>
   </g>
   <g>
    <circle stroke="black" stroke-width="0.5" fill="#aaffff" cx="439.0" cy="574.0" r="1.0"/>
    <text stroke="none" x="439.0" y="574.0" font-size="20.0" font-family="helvetica"/>
   </g>
   <g>
    <circle stroke="black" stroke-width="0.5" fill="#aaffff" cx="439.0" cy="652.0" r="1.0"/>
    <text stroke="none" x="439.0" y="652.0" font-size="20.0" font-family="helvetica"/>
   </g>
   <g>
    <circle stroke="black" stroke-width="0.5" fill="#aaffff" cx="440.0" cy="60.0" r="1.0"/>
    <text stroke="none" x="440.0" y="60.0" font-size="20.0" font-family="helvetica">C. concisus CCUG 13144T</text>
   </g>
   <g>
    <circle stroke="black" stroke-width="0.5" fill="#aaffff" cx="440.0" cy="99.0" r="1.0"/>
    <text stroke="none" x="440.0" y="99.0" font-size="20.0" font-family="helvetica">C fetus subsp. fetus CCUG 6823AT</text>
   </g>
   <g>
    <circle stroke="black" stroke-width="0.5" fill="#aaffff" cx="7.0" cy="376.0" r="1.0"/>
    <text stroke="none" x="7.0" y="376.0" font-size="10.0" font-family="helvetica">NT1.39</text>
   </g>
   <line stroke="black" x1="440.0" y1="60.0" x2="300.0" y2="79.0" stroke-width="0.5"/>
   <line stroke="black" x1="440.0" y1="99.0" x2="300.0" y2="79.0" stroke-width="0.5"/>
   <line stroke="black" x1="439.0" y1="139.0" x2="252.0" y2="109.0" stroke-width="0.5"/>
   <line stroke="black" x1="439.0" y1="179.0" x2="176.0" y2="143.0" stroke-width="0.5"/>
   <line stroke="black" x1="439.0" y1="218.0" x2="121.0" y2="180.0" stroke-width="0.5"/>
   <line stroke="black" x1="439.0" y1="258.0" x2="141.0" y2="277.0" stroke-width="0.5"/>
   <line stroke="black" x1="439.0" y1="298.0" x2="141.0" y2="277.0" stroke-width="0.5"/>
   <line stroke="black" x1="439.0" y1="377.0" x2="202.0" y2="358.0" stroke-width="0.5"/>
   <line stroke="black" x1="439.0" y1="338.0" x2="202.0" y2="358.0" stroke-width="0.5"/>
   <line stroke="black" x1="438.0" y1="812.0" x2="214.0" y2="690.0" stroke-width="0.5"/>
   <line stroke="black" x1="439.0" y1="456.0" x2="314.0" y2="436.0" stroke-width="0.5"/>
   <line stroke="black" x1="439.0" y1="495.0" x2="369.0" y2="514.0" stroke-width="0.5"/>
   <line stroke="black" x1="439.0" y1="534.0" x2="369.0" y2="514.0" stroke-width="0.5"/>
   <line stroke="black" x1="439.0" y1="416.0" x2="314.0" y2="436.0" stroke-width="0.5"/>
   <line stroke="black" x1="439.0" y1="613.0" x2="358.0" y2="594.0" stroke-width="0.5"/>
   <line stroke="black" x1="439.0" y1="574.0" x2="358.0" y2="594.0" stroke-width="0.5"/>
   <line stroke="black" x1="438.0" y1="772.0" x2="376.0" y2="736.0" stroke-width="0.5"/>
   <line stroke="black" x1="438.0" y1="732.0" x2="414.0" y2="702.0" stroke-width="0.5"/>
   <line stroke="black" x1="438.0" y1="692.0" x2="437.0" y2="673.0" stroke-width="0.5"/>
   <line stroke="black" x1="439.0" y1="652.0" x2="437.0" y2="673.0" stroke-width="0.5"/>
   <line stroke="black" x1="252.0" y1="109.0" x2="176.0" y2="143.0" stroke-width="0.5"/>
   <line stroke="black" x1="176.0" y1="143.0" x2="121.0" y2="180.0" stroke-width="0.5"/>
   <line stroke="black" x1="121.0" y1="180.0" x2="114.0" y2="229.0" stroke-width="0.5"/>
   <line stroke="black" x1="114.0" y1="229.0" x2="141.0" y2="277.0" stroke-width="0.5"/>
   <line stroke="black" x1="175.0" y1="523.0" x2="214.0" y2="690.0" stroke-width="0.5"/>
   <line stroke="black" x1="175.0" y1="523.0" x2="202.0" y2="358.0" stroke-width="0.5"/>
   <line stroke="black" x1="214.0" y1="690.0" x2="254.0" y2="570.0" stroke-width="0.5"/>
   <line stroke="black" x1="254.0" y1="570.0" x2="342.0" y2="665.0" stroke-width="0.5"/>
   <line stroke="black" x1="254.0" y1="570.0" x2="281.0" y2="476.0" stroke-width="0.5"/>
   <line stroke="black" x1="281.0" y1="476.0" x2="314.0" y2="436.0" stroke-width="0.5"/>
   <line stroke="black" x1="342.0" y1="665.0" x2="376.0" y2="736.0" stroke-width="0.5"/>
   <line stroke="black" x1="342.0" y1="665.0" x2="358.0" y2="594.0" stroke-width="0.5"/>
   <line stroke="black" x1="376.0" y1="736.0" x2="414.0" y2="702.0" stroke-width="0.5"/>
   <line stroke="black" x1="414.0" y1="702.0" x2="437.0" y2="673.0" stroke-width="0.5"/>
   <line stroke="black" x1="7.0" y1="376.0" x2="114.0" y2="229.0" stroke-width="0.5"/>
   <line stroke="black" x1="7.0" y1="376.0" x2="175.0" y2="523.0" stroke-width="0.5"/>
   <line stroke="black" x1="300.0" y1="79.0" x2="252.0" y2="109.0" stroke-width="0.5"/>
   <line stroke="black" x1="281.0" y1="476.0" x2="369.0" y2="514.0" stroke-width="0.5"/>
  </g>
 </g>
</svg>
