<?xml version="1.0" encoding="UTF-8"?>
<svg xmlns="http://www.w3.org/2000/svg">
 <g>
  <g>
   <g>
    <circle stroke="black" stroke-width="0.5" fill="#aaffff" cx="8.0" cy="1178.0" r="1.0"/>
    <text stroke="none" x="8.0" y="1178.0" font-size="20.0" font-family="helvetica"/>
   </g>
   <g>
    <circle stroke="black" stroke-width="0.5" fill="#aaffff" cx="10.0" cy="1178.0" r="1.0"/>
    <text stroke="none" x="10.0" y="1178.0" font-size="10.0" font-family="helvetica">NT1.2</text>
   </g>
   <g>
    <circle stroke="black" stroke-width="0.5" fill="#aaffff" cx="190.0" cy="1049.0" r="1.0"/>
    <text stroke="none" x="190.0" y="1049.0" font-size="10.0" font-family="helvetica">NT1.3</text>
   </g>
   <g>
    <circle stroke="black" stroke-width="0.5" fill="#aaffff" cx="237.0" cy="929.0" r="1.0"/>
    <text stroke="none" x="237.0" y="929.0" font-size="20.0" font-family="helvetica">7O</text>
   </g>
   <g>
    <circle stroke="black" stroke-width="0.5" fill="#aaffff" cx="247.0" cy="1167.0" r="1.0"/>
    <text stroke="none" x="247.0" y="1167.0" font-size="20.0" font-family="helvetica">62</text>
   </g>
   <g>
    <circle stroke="black" stroke-width="0.5" fill="#aaffff" cx="286.0" cy="824.0" r="1.0"/>
    <text stroke="none" x="286.0" y="824.0" font-size="20.0" font-family="helvetica">67</text>
   </g>
   <g>
    <circle stroke="black" stroke-width="0.5" fill="#aaffff" cx="304.0" cy="689.0" r="1.0"/>
    <text stroke="none" x="304.0" y="689.0" font-size="20.0" font-family="helvetica">67</text>
   </g>
   <g>
    <circle stroke="black" stroke-width="0.5" fill="#aaffff" cx="323.0" cy="1253.0" r="1.0"/>
    <text stroke="none" x="323.0" y="1253.0" font-size="20.0" font-family="helvetica">84</text>
   </g>
   <g>
    <circle stroke="black" stroke-width="0.5" fill="#aaffff" cx="332.0" cy="562.0" r="1.0"/>
    <text stroke="none" x="332.0" y="562.0" font-size="10.0" font-family="helvetica">NT1.9</text>
   </g>
   <g>
    <circle stroke="black" stroke-width="0.5" fill="#aaffff" cx="352.0" cy="395.0" r="1.0"/>
    <text stroke="none" x="352.0" y="395.0" font-size="20.0" font-family="helvetica">44</text>
   </g>
   <g>
    <circle stroke="black" stroke-width="0.5" fill="#aaffff" cx="371.0" cy="520.0" r="1.0"/>
    <text stroke="none" x="371.0" y="520.0" font-size="20.0" font-family="helvetica">50</text>
   </g>
   <g>
    <circle stroke="black" stroke-width="0.5" fill="#aaffff" cx="388.0" cy="1323.0" r="1.0"/>
    <text stroke="none" x="388.0" y="1323.0" font-size="20.0" font-family="helvetica">93</text>
   </g>
   <g>
    <circle stroke="black" stroke-width="0.5" fill="#aaffff" cx="397.0" cy="266.0" r="1.0"/>
    <text stroke="none" x="397.0" y="266.0" font-size="20.0" font-family="helvetica">73</text>
   </g>
   <g>
    <circle stroke="black" stroke-width="0.5" fill="#aaffff" cx="413.0" cy="171.0" r="1.0"/>
    <text stroke="none" x="413.0" y="171.0" font-size="10.0" font-family="helvetica">NT1.14</text>
   </g>
   <g>
    <circle stroke="black" stroke-width="0.5" fill="#aaffff" cx="422.0" cy="815.0" r="1.0"/>
    <text stroke="none" x="422.0" y="815.0" font-size="20.0" font-family="helvetica">97</text>
   </g>
   <g>
    <circle stroke="black" stroke-width="0.5" fill="#aaffff" cx="436.0" cy="95.0" r="1.0"/>
    <text stroke="none" x="436.0" y="95.0" font-size="20.0" font-family="helvetica">39</text>
   </g>
   <g>
    <circle stroke="black" stroke-width="0.5" fill="#aaffff" cx="468.0" cy="142.0" r="1.0"/>
    <text stroke="none" x="468.0" y="142.0" font-size="20.0" font-family="helvetica">55</text>
   </g>
   <g>
    <circle stroke="black" stroke-width="0.5" fill="#aaffff" cx="471.0" cy="1361.0" r="1.0"/>
    <text stroke="none" x="471.0" y="1361.0" font-size="20.0" font-family="helvetica">94</text>
   </g>
   <g>
    <circle stroke="black" stroke-width="0.5" fill="#aaffff" cx="490.0" cy="358.0" r="1.0"/>
    <text stroke="none" x="490.0" y="358.0" font-size="20.0" font-family="helvetica">99</text>
   </g>
   <g>
    <circle stroke="black" stroke-width="0.5" fill="#aaffff" cx="503.0" cy="955.0" r="1.0"/>
    <text stroke="none" x="503.0" y="955.0" font-size="20.0" font-family="helvetica">100</text>
   </g>
   <g>
    <circle stroke="black" stroke-width="0.5" fill="#aaffff" cx="533.0" cy="44.0" r="1.0"/>
    <text stroke="none" x="533.0" y="44.0" font-size="20.0" font-family="helvetica">91</text>
   </g>
   <g>
    <circle stroke="black" stroke-width="0.5" fill="#aaffff" cx="541.0" cy="853.0" r="1.0"/>
    <text stroke="none" x="541.0" y="853.0" font-size="20.0" font-family="helvetica">99</text>
   </g>
   <g>
    <circle stroke="black" stroke-width="0.5" fill="#aaffff" cx="563.0" cy="1033.0" r="1.0"/>
    <text stroke="none" x="563.0" y="1033.0" font-size="20.0" font-family="helvetica">D. sonorensis KR-87T (AY743283)</text>
   </g>
   <g>
    <circle stroke="black" stroke-width="0.5" fill="#aaffff" cx="575.0" cy="396.0" r="1.0"/>
    <text stroke="none" x="575.0" y="396.0" font-size="10.0" font-family="helvetica">NT1.24</text>
   </g>
   <g>
    <circle stroke="black" stroke-width="0.5" fill="#aaffff" cx="612.0" cy="170.0" r="1.0"/>
    <text stroke="none" x="612.0" y="170.0" font-size="20.0" font-family="helvetica">‘D. aquaticus’ P8314 (DQO17708)</text>
   </g>
   <g>
    <circle stroke="black" stroke-width="0.5" fill="#aaffff" cx="612.0" cy="322.0" r="1.0"/>
    <text stroke="none" x="612.0" y="322.0" font-size="20.0" font-family="helvetica">D. desert!" VCD115T (AY876378)</text>
   </g>
   <g>
    <circle stroke="black" stroke-width="0.5" fill="#aaffff" cx="616.0" cy="118.0" r="1.0"/>
    <text stroke="none" x="616.0" y="118.0" font-size="20.0" font-family="helvetica">D. grandis</text>
   </g>
   <g>
    <circle stroke="black" stroke-width="0.5" fill="#aaffff" cx="625.0" cy="567.0" r="1.0"/>
    <text stroke="none" x="625.0" y="567.0" font-size="20.0" font-family="helvetica">100</text>
   </g>
   <g>
    <circle stroke="black" stroke-width="0.5" fill="#aaffff" cx="630.0" cy="1083.0" r="1.0"/>
    <text stroke="none" x="630.0" y="1083.0" font-size="20.0" font-family="helvetica">D. maricopensis LB-34T (AY743274)</text>
   </g>
   <g>
    <circle stroke="black" stroke-width="0.5" fill="#aaffff" cx="631.0" cy="424.0" r="1.0"/>
    <text stroke="none" x="631.0" y="424.0" font-size="20.0" font-family="helvetica">D. hohokamensis KR- 40T (AY743256)</text>
   </g>
   <g>
    <circle stroke="black" stroke-width="0.5" fill="#aaffff" cx="640.0" cy="612.0" r="1.0"/>
    <text stroke="none" x="640.0" y="612.0" font-size="20.0" font-family="helvetica">59</text>
   </g>
   <g>
    <circle stroke="black" stroke-width="0.5" fill="#aaffff" cx="651.0" cy="474.0" r="1.0"/>
    <text stroke="none" x="651.0" y="474.0" font-size="20.0" font-family="helvetica">D. hopiensis KR-140T (AY743262)</text>
   </g>
   <g>
    <circle stroke="black" stroke-width="0.5" fill="#aaffff" cx="652.0" cy="372.0" r="1.0"/>
    <text stroke="none" x="652.0" y="372.0" font-size="20.0" font-family="helvetica">D. navajonensis KR-114T (AY743259)</text>
   </g>
   <g>
    <circle stroke="black" stroke-width="0.5" fill="#aaffff" cx="668.0" cy="1238.0" r="1.0"/>
    <text stroke="none" x="668.0" y="1238.0" font-size="20.0" font-family="helvetica"/>
   </g>
   <g>
    <circle stroke="black" stroke-width="0.5" fill="#aaffff" cx="668.0" cy="1132.0" r="1.0"/>
    <text stroke="none" x="668.0" y="1132.0" font-size="20.0" font-family="helvetica"/>
   </g>
   <g>
    <circle stroke="black" stroke-width="0.5" fill="#aaffff" cx="668.0" cy="1186.0" r="1.0"/>
    <text stroke="none" x="668.0" y="1186.0" font-size="20.0" font-family="helvetica">10°</text>
   </g>
   <g>
    <circle stroke="black" stroke-width="0.5" fill="#aaffff" cx="684.0" cy="650.0" r="1.0"/>
    <text stroke="none" x="684.0" y="650.0" font-size="20.0" font-family="helvetica">90</text>
   </g>
   <g>
    <circle stroke="black" stroke-width="0.5" fill="#aaffff" cx="696.0" cy="982.0" r="1.0"/>
    <text stroke="none" x="696.0" y="982.0" font-size="20.0" font-family="helvetica">D. proteolyticus DSM 2054GT (Y11331)</text>
   </g>
   <g>
    <circle stroke="black" stroke-width="0.5" fill="#aaffff" cx="701.0" cy="931.0" r="1.0"/>
    <text stroke="none" x="701.0" y="931.0" font-size="20.0" font-family="helvetica">D. radiophilus</text>
   </g>
   <g>
    <circle stroke="black" stroke-width="0.5" fill="#aaffff" cx="707.0" cy="778.0" r="1.0"/>
    <text stroke="none" x="707.0" y="778.0" font-size="20.0" font-family="helvetica">D. murrayi ALT—1bT</text>
   </g>
   <g>
    <circle stroke="black" stroke-width="0.5" fill="#aaffff" cx="708.0" cy="218.0" r="1.0"/>
    <text stroke="none" x="708.0" y="218.0" font-size="20.0" font-family="helvetica">D. ficus CC-FR2-10T (AY941086)</text>
   </g>
   <g>
    <circle stroke="black" stroke-width="0.5" fill="#aaffff" cx="708.0" cy="257.0" r="1.0"/>
    <text stroke="none" x="708.0" y="257.0" font-size="20.0" font-family="helvetica">100</text>
   </g>
   <g>
    <circle stroke="black" stroke-width="0.5" fill="#aaffff" cx="709.0" cy="220.0" r="1.0"/>
    <text stroke="none" x="709.0" y="220.0" font-size="10.0" font-family="helvetica">NT1.43</text>
   </g>
   <g>
    <circle stroke="black" stroke-width="0.5" fill="#aaffff" cx="712.0" cy="271.0" r="1.0"/>
    <text stroke="none" x="712.0" y="271.0" font-size="20.0" font-family="helvetica">D. mumbaiensis DSM 17424T (DQOOS135)</text>
   </g>
   <g>
    <circle stroke="black" stroke-width="0.5" fill="#aaffff" cx="716.0" cy="220.0" r="1.0"/>
    <text stroke="none" x="716.0" y="220.0" font-size="20.0" font-family="helvetica">D. ficus CC-FR2-10T (AY941086)</text>
   </g>
   <g>
    <circle stroke="black" stroke-width="0.5" fill="#aaffff" cx="721.0" cy="16.0" r="1.0"/>
    <text stroke="none" x="721.0" y="16.0" font-size="20.0" font-family="helvetica">D. indicus</text>
   </g>
   <g>
    <circle stroke="black" stroke-width="0.5" fill="#aaffff" cx="729.0" cy="575.0" r="1.0"/>
    <text stroke="none" x="729.0" y="575.0" font-size="20.0" font-family="helvetica">D. marmoris AA-63T (AJ585986)</text>
   </g>
   <g>
    <circle stroke="black" stroke-width="0.5" fill="#aaffff" cx="743.0" cy="68.0" r="1.0"/>
    <text stroke="none" x="743.0" y="68.0" font-size="20.0" font-family="helvetica">D. radiodurans</text>
   </g>
   <g>
    <circle stroke="black" stroke-width="0.5" fill="#aaffff" cx="746.0" cy="1286.0" r="1.0"/>
    <text stroke="none" x="746.0" y="1286.0" font-size="20.0" font-family="helvetica">D. pimensis KR-235T (AY743277)</text>
   </g>
   <g>
    <circle stroke="black" stroke-width="0.5" fill="#aaffff" cx="750.0" cy="728.0" r="1.0"/>
    <text stroke="none" x="750.0" y="728.0" font-size="20.0" font-family="helvetica">D. yunweiensis</text>
   </g>
   <g>
    <circle stroke="black" stroke-width="0.5" fill="#aaffff" cx="754.0" cy="677.0" r="1.0"/>
    <text stroke="none" x="754.0" y="677.0" font-size="20.0" font-family="helvetica">D. saxicola AA—1444 T (AJ585984)</text>
   </g>
   <g>
    <circle stroke="black" stroke-width="0.5" fill="#aaffff" cx="755.0" cy="525.0" r="1.0"/>
    <text stroke="none" x="755.0" y="525.0" font-size="20.0" font-family="helvetica">D. radiopugnans ATCC 19172T (Y11334)</text>
   </g>
   <g>
    <circle stroke="black" stroke-width="0.5" fill="#aaffff" cx="802.0" cy="1337.0" r="1.0"/>
    <text stroke="none" x="802.0" y="1337.0" font-size="20.0" font-family="helvetica">D. yavapaiensis KR—236T (AY743279)</text>
   </g>
   <g>
    <circle stroke="black" stroke-width="0.5" fill="#aaffff" cx="806.0" cy="626.0" r="1.0"/>
    <text stroke="none" x="806.0" y="626.0" font-size="20.0" font-family="helvetica">D. frigens AA—692 T (AJ585981)</text>
   </g>
   <g>
    <circle stroke="black" stroke-width="0.5" fill="#aaffff" cx="809.0" cy="1388.0" r="1.0"/>
    <text stroke="none" x="809.0" y="1388.0" font-size="20.0" font-family="helvetica">D. papagonensis KR—241 T (AY743280)</text>
   </g>
   <g>
    <circle stroke="black" stroke-width="0.5" fill="#aaffff" cx="826.0" cy="880.0" r="1.0"/>
    <text stroke="none" x="826.0" y="880.0" font-size="20.0" font-family="helvetica">D. apachensis KR-36T (AY743264)</text>
   </g>
   <g>
    <circle stroke="black" stroke-width="0.5" fill="#aaffff" cx="857.0" cy="829.0" r="1.0"/>
    <text stroke="none" x="857.0" y="829.0" font-size="20.0" font-family="helvetica">D. geothermalls AG-3aT (Y13038)</text>
   </g>
   <g>
    <circle stroke="black" stroke-width="0.5" fill="#aaffff" cx="857.0" cy="1439.0" r="1.0"/>
    <text stroke="none" x="857.0" y="1439.0" font-size="20.0" font-family="helvetica">T. radiovictrix RQ-24T (DQ022076)</text>
   </g>
   <line stroke="black" x1="712.0" y1="271.0" x2="708.0" y2="257.0" stroke-width="0.5"/>
   <line stroke="black" x1="709.0" y1="220.0" x2="708.0" y2="218.0" stroke-width="0.5"/>
   <line stroke="black" x1="716.0" y1="220.0" x2="709.0" y2="220.0" stroke-width="0.5"/>
   <line stroke="black" x1="10.0" y1="1178.0" x2="8.0" y2="1178.0" stroke-width="0.5"/>
   <line stroke="black" x1="668.0" y1="1238.0" x2="668.0" y2="1186.0" stroke-width="0.5"/>
   <line stroke="black" x1="668.0" y1="1132.0" x2="668.0" y2="1186.0" stroke-width="0.5"/>
   <line stroke="black" x1="533.0" y1="44.0" x2="436.0" y2="95.0" stroke-width="0.5"/>
   <line stroke="black" x1="436.0" y1="95.0" x2="413.0" y2="171.0" stroke-width="0.5"/>
   <line stroke="black" x1="436.0" y1="95.0" x2="468.0" y2="142.0" stroke-width="0.5"/>
   <line stroke="black" x1="413.0" y1="171.0" x2="397.0" y2="266.0" stroke-width="0.5"/>
   <line stroke="black" x1="413.0" y1="171.0" x2="708.0" y2="257.0" stroke-width="0.5"/>
   <line stroke="black" x1="397.0" y1="266.0" x2="352.0" y2="395.0" stroke-width="0.5"/>
   <line stroke="black" x1="397.0" y1="266.0" x2="490.0" y2="358.0" stroke-width="0.5"/>
   <line stroke="black" x1="352.0" y1="395.0" x2="332.0" y2="562.0" stroke-width="0.5"/>
   <line stroke="black" x1="352.0" y1="395.0" x2="371.0" y2="520.0" stroke-width="0.5"/>
   <line stroke="black" x1="490.0" y1="358.0" x2="575.0" y2="396.0" stroke-width="0.5"/>
   <line stroke="black" x1="708.0" y1="257.0" x2="709.0" y2="220.0" stroke-width="0.5"/>
   <line stroke="black" x1="371.0" y1="520.0" x2="625.0" y2="567.0" stroke-width="0.5"/>
   <line stroke="black" x1="332.0" y1="562.0" x2="304.0" y2="689.0" stroke-width="0.5"/>
   <line stroke="black" x1="304.0" y1="689.0" x2="286.0" y2="824.0" stroke-width="0.5"/>
   <line stroke="black" x1="304.0" y1="689.0" x2="422.0" y2="815.0" stroke-width="0.5"/>
   <line stroke="black" x1="625.0" y1="567.0" x2="640.0" y2="612.0" stroke-width="0.5"/>
   <line stroke="black" x1="286.0" y1="824.0" x2="237.0" y2="929.0" stroke-width="0.5"/>
   <line stroke="black" x1="286.0" y1="824.0" x2="503.0" y2="955.0" stroke-width="0.5"/>
   <line stroke="black" x1="640.0" y1="612.0" x2="684.0" y2="650.0" stroke-width="0.5"/>
   <line stroke="black" x1="422.0" y1="815.0" x2="541.0" y2="853.0" stroke-width="0.5"/>
   <line stroke="black" x1="237.0" y1="929.0" x2="190.0" y2="1049.0" stroke-width="0.5"/>
   <line stroke="black" x1="190.0" y1="1049.0" x2="10.0" y2="1178.0" stroke-width="0.5"/>
   <line stroke="black" x1="190.0" y1="1049.0" x2="247.0" y2="1167.0" stroke-width="0.5"/>
   <line stroke="black" x1="247.0" y1="1167.0" x2="323.0" y2="1253.0" stroke-width="0.5"/>
   <line stroke="black" x1="323.0" y1="1253.0" x2="388.0" y2="1323.0" stroke-width="0.5"/>
   <line stroke="black" x1="323.0" y1="1253.0" x2="668.0" y2="1186.0" stroke-width="0.5"/>
   <line stroke="black" x1="388.0" y1="1323.0" x2="471.0" y2="1361.0" stroke-width="0.5"/>
   <line stroke="black" x1="857.0" y1="1439.0" x2="10.0" y2="1178.0" stroke-width="0.5"/>
   <line stroke="black" x1="563.0" y1="1033.0" x2="237.0" y2="929.0" stroke-width="0.5"/>
   <line stroke="black" x1="630.0" y1="1083.0" x2="247.0" y2="1167.0" stroke-width="0.5"/>
   <line stroke="black" x1="651.0" y1="474.0" x2="371.0" y2="520.0" stroke-width="0.5"/>
   <line stroke="black" x1="750.0" y1="728.0" x2="332.0" y2="562.0" stroke-width="0.5"/>
   <line stroke="black" x1="746.0" y1="1286.0" x2="388.0" y2="1323.0" stroke-width="0.5"/>
   <line stroke="black" x1="612.0" y1="170.0" x2="468.0" y2="142.0" stroke-width="0.5"/>
   <line stroke="black" x1="616.0" y1="118.0" x2="468.0" y2="142.0" stroke-width="0.5"/>
   <line stroke="black" x1="707.0" y1="778.0" x2="422.0" y2="815.0" stroke-width="0.5"/>
   <line stroke="black" x1="612.0" y1="322.0" x2="490.0" y2="358.0" stroke-width="0.5"/>
   <line stroke="black" x1="696.0" y1="982.0" x2="503.0" y2="955.0" stroke-width="0.5"/>
   <line stroke="black" x1="701.0" y1="931.0" x2="503.0" y2="955.0" stroke-width="0.5"/>
   <line stroke="black" x1="802.0" y1="1337.0" x2="471.0" y2="1361.0" stroke-width="0.5"/>
   <line stroke="black" x1="809.0" y1="1388.0" x2="471.0" y2="1361.0" stroke-width="0.5"/>
   <line stroke="black" x1="631.0" y1="424.0" x2="575.0" y2="396.0" stroke-width="0.5"/>
   <line stroke="black" x1="652.0" y1="372.0" x2="575.0" y2="396.0" stroke-width="0.5"/>
   <line stroke="black" x1="743.0" y1="68.0" x2="533.0" y2="44.0" stroke-width="0.5"/>
   <line stroke="black" x1="721.0" y1="16.0" x2="533.0" y2="44.0" stroke-width="0.5"/>
   <line stroke="black" x1="826.0" y1="880.0" x2="541.0" y2="853.0" stroke-width="0.5"/>
   <line stroke="black" x1="857.0" y1="829.0" x2="541.0" y2="853.0" stroke-width="0.5"/>
   <line stroke="black" x1="755.0" y1="525.0" x2="625.0" y2="567.0" stroke-width="0.5"/>
   <line stroke="black" x1="729.0" y1="575.0" x2="640.0" y2="612.0" stroke-width="0.5"/>
   <line stroke="black" x1="754.0" y1="677.0" x2="684.0" y2="650.0" stroke-width="0.5"/>
   <line stroke="black" x1="806.0" y1="626.0" x2="684.0" y2="650.0" stroke-width="0.5"/>
  </g>
 </g>
</svg>
