<?xml version="1.0" encoding="UTF-8"?>
<svg xmlns="http://www.w3.org/2000/svg">
 <g>
  <g>
   <g>
    <circle stroke="black" stroke-width="0.5" fill="#aaffff" cx="52.0" cy="333.0" r="1.0"/>
    <text stroke="none" x="52.0" y="333.0" font-size="10.0" font-family="helvetica">NT1.1</text>
   </g>
   <g>
    <circle stroke="black" stroke-width="0.5" fill="#aaffff" cx="119.0" cy="249.0" r="1.0"/>
    <text stroke="none" x="119.0" y="249.0" font-size="20.0" font-family="helvetica">87</text>
   </g>
   <g>
    <circle stroke="black" stroke-width="0.5" fill="#aaffff" cx="150.0" cy="181.0" r="1.0"/>
    <text stroke="none" x="150.0" y="181.0" font-size="10.0" font-family="helvetica">NT1.3</text>
   </g>
   <g>
    <circle stroke="black" stroke-width="0.5" fill="#aaffff" cx="171.0" cy="315.0" r="1.0"/>
    <text stroke="none" x="171.0" y="315.0" font-size="10.0" font-family="helvetica">NT1.4</text>
   </g>
   <g>
    <circle stroke="black" stroke-width="0.5" fill="#aaffff" cx="207.0" cy="349.0" r="1.0"/>
    <text stroke="none" x="207.0" y="349.0" font-size="20.0" font-family="helvetica">71</text>
   </g>
   <g>
    <circle stroke="black" stroke-width="0.5" fill="#aaffff" cx="225.0" cy="121.0" r="1.0"/>
    <text stroke="none" x="225.0" y="121.0" font-size="20.0" font-family="helvetica">97</text>
   </g>
   <g>
    <circle stroke="black" stroke-width="0.5" fill="#aaffff" cx="257.0" cy="170.0" r="1.0"/>
    <text stroke="none" x="257.0" y="170.0" font-size="20.0" font-family="helvetica">60</text>
   </g>
   <g>
    <circle stroke="black" stroke-width="0.5" fill="#aaffff" cx="297.0" cy="71.0" r="1.0"/>
    <text stroke="none" x="297.0" y="71.0" font-size="20.0" font-family="helvetica">100</text>
   </g>
   <g>
    <circle stroke="black" stroke-width="0.5" fill="#aaffff" cx="303.0" cy="38.0" r="1.0"/>
    <text stroke="none" x="303.0" y="38.0" font-size="20.0" font-family="helvetica">100</text>
   </g>
   <g>
    <circle stroke="black" stroke-width="0.5" fill="#aaffff" cx="312.0" cy="416.0" r="1.0"/>
    <text stroke="none" x="312.0" y="416.0" font-size="20.0" font-family="helvetica">Arsenicicoccus bolidensis CCUG 47306T (AJ558133)</text>
   </g>
   <g>
    <circle stroke="black" stroke-width="0.5" fill="#aaffff" cx="330.0" cy="105.0" r="1.0"/>
    <text stroke="none" x="330.0" y="105.0" font-size="20.0" font-family="helvetica"> Terrabactertumescens DSM 20308T (X83812)</text>
   </g>
   <g>
    <circle stroke="black" stroke-width="0.5" fill="#aaffff" cx="334.0" cy="326.0" r="1.0"/>
    <text stroke="none" x="334.0" y="326.0" font-size="20.0" font-family="helvetica">Knoellia sinensis DSM 12331T (AJ294412)</text>
   </g>
   <g>
    <circle stroke="black" stroke-width="0.5" fill="#aaffff" cx="344.0" cy="238.0" r="1.0"/>
    <text stroke="none" x="344.0" y="238.0" font-size="20.0" font-family="helvetica">Janibacter Iimosus DSM 11140T (Y08539)</text>
   </g>
   <g>
    <circle stroke="black" stroke-width="0.5" fill="#aaffff" cx="351.0" cy="60.0" r="1.0"/>
    <text stroke="none" x="351.0" y="60.0" font-size="20.0" font-family="helvetica"> Terrabacter terrae PPLBT (AY944176)</text>
   </g>
   <g>
    <circle stroke="black" stroke-width="0.5" fill="#aaffff" cx="363.0" cy="193.0" r="1.0"/>
    <text stroke="none" x="363.0" y="193.0" font-size="20.0" font-family="helvetica">Terracoccus Iuteus DSM 44267T (Y11928)</text>
   </g>
   <g>
    <circle stroke="black" stroke-width="0.5" fill="#aaffff" cx="367.0" cy="16.0" r="1.0"/>
    <text stroke="none" x="367.0" y="16.0" font-size="20.0" font-family="helvetica"> Strain 5516J-36T (EF212039)</text>
   </g>
   <g>
    <circle stroke="black" stroke-width="0.5" fill="#aaffff" cx="399.0" cy="371.0" r="1.0"/>
    <text stroke="none" x="399.0" y="371.0" font-size="20.0" font-family="helvetica">Tetrasphaera japonica T1 -X7T (AF125092)</text>
   </g>
   <g>
    <circle stroke="black" stroke-width="0.5" fill="#aaffff" cx="413.0" cy="149.0" r="1.0"/>
    <text stroke="none" x="413.0" y="149.0" font-size="20.0" font-family="helvetica">Intrasporangium calvum DSM 43043T (AJ566282)</text>
   </g>
   <g>
    <circle stroke="black" stroke-width="0.5" fill="#aaffff" cx="426.0" cy="282.0" r="1.0"/>
    <text stroke="none" x="426.0" y="282.0" font-size="20.0" font-family="helvetica">Ornithinicoccus hon‘ensis KHI 0125T (Y17869)</text>
   </g>
   <g>
    <circle stroke="black" stroke-width="0.5" fill="#aaffff" cx="426.0" cy="460.0" r="1.0"/>
    <text stroke="none" x="426.0" y="460.0" font-size="20.0" font-family="helvetica">Arthrobacter globiformis DSM 20‘124T (X80736)</text>
   </g>
   <g>
    <circle stroke="black" stroke-width="0.5" fill="#aaffff" cx="4.0" cy="396.0" r="1.0"/>
    <text stroke="none" x="4.0" y="396.0" font-size="10.0" font-family="helvetica">NT1.21</text>
   </g>
   <line stroke="black" x1="367.0" y1="16.0" x2="303.0" y2="38.0" stroke-width="0.5"/>
   <line stroke="black" x1="351.0" y1="60.0" x2="303.0" y2="38.0" stroke-width="0.5"/>
   <line stroke="black" x1="330.0" y1="105.0" x2="297.0" y2="71.0" stroke-width="0.5"/>
   <line stroke="black" x1="363.0" y1="193.0" x2="257.0" y2="170.0" stroke-width="0.5"/>
   <line stroke="black" x1="413.0" y1="149.0" x2="257.0" y2="170.0" stroke-width="0.5"/>
   <line stroke="black" x1="344.0" y1="238.0" x2="150.0" y2="181.0" stroke-width="0.5"/>
   <line stroke="black" x1="334.0" y1="326.0" x2="207.0" y2="349.0" stroke-width="0.5"/>
   <line stroke="black" x1="399.0" y1="371.0" x2="207.0" y2="349.0" stroke-width="0.5"/>
   <line stroke="black" x1="426.0" y1="282.0" x2="171.0" y2="315.0" stroke-width="0.5"/>
   <line stroke="black" x1="312.0" y1="416.0" x2="52.0" y2="333.0" stroke-width="0.5"/>
   <line stroke="black" x1="303.0" y1="38.0" x2="297.0" y2="71.0" stroke-width="0.5"/>
   <line stroke="black" x1="297.0" y1="71.0" x2="225.0" y2="121.0" stroke-width="0.5"/>
   <line stroke="black" x1="225.0" y1="121.0" x2="150.0" y2="181.0" stroke-width="0.5"/>
   <line stroke="black" x1="225.0" y1="121.0" x2="257.0" y2="170.0" stroke-width="0.5"/>
   <line stroke="black" x1="150.0" y1="181.0" x2="119.0" y2="249.0" stroke-width="0.5"/>
   <line stroke="black" x1="119.0" y1="249.0" x2="52.0" y2="333.0" stroke-width="0.5"/>
   <line stroke="black" x1="119.0" y1="249.0" x2="171.0" y2="315.0" stroke-width="0.5"/>
   <line stroke="black" x1="171.0" y1="315.0" x2="207.0" y2="349.0" stroke-width="0.5"/>
   <line stroke="black" x1="4.0" y1="396.0" x2="426.0" y2="460.0" stroke-width="0.5"/>
   <line stroke="black" x1="4.0" y1="396.0" x2="52.0" y2="333.0" stroke-width="0.5"/>
  </g>
 </g>
</svg>
