<?xml version="1.0" encoding="UTF-8"?>
<svg xmlns="http://www.w3.org/2000/svg">
 <g>
  <g>
   <g>
    <circle stroke="black" stroke-width="0.5" fill="#aaffff" cx="0.0" cy="793.0" r="1.0"/>
    <text stroke="none" x="0.0" y="793.0" font-size="20.0" font-family="helvetica"/>
   </g>
   <g>
    <circle stroke="black" stroke-width="0.5" fill="#aaffff" cx="3.0" cy="793.0" r="1.0"/>
    <text stroke="none" x="3.0" y="793.0" font-size="10.0" font-family="helvetica">NT1.2</text>
   </g>
   <g>
    <circle stroke="black" stroke-width="0.5" fill="#aaffff" cx="238.0" cy="996.0" r="1.0"/>
    <text stroke="none" x="238.0" y="996.0" font-size="20.0" font-family="helvetica">Staphylococcus aureus DSM 20231T (AY688035)</text>
   </g>
   <g>
    <circle stroke="black" stroke-width="0.5" fill="#aaffff" cx="443.0" cy="694.0" r="1.0"/>
    <text stroke="none" x="443.0" y="694.0" font-size="10.0" font-family="helvetica">NT1.4</text>
   </g>
   <g>
    <circle stroke="black" stroke-width="0.5" fill="#aaffff" cx="451.0" cy="849.0" r="1.0"/>
    <text stroke="none" x="451.0" y="849.0" font-size="10.0" font-family="helvetica">NT1.5</text>
   </g>
   <g>
    <circle stroke="black" stroke-width="0.5" fill="#aaffff" cx="462.0" cy="453.0" r="1.0"/>
    <text stroke="none" x="462.0" y="453.0" font-size="10.0" font-family="helvetica">NT1.6</text>
   </g>
   <g>
    <circle stroke="black" stroke-width="0.5" fill="#aaffff" cx="470.0" cy="336.0" r="1.0"/>
    <text stroke="none" x="470.0" y="336.0" font-size="20.0" font-family="helvetica">34“</text>
   </g>
   <g>
    <circle stroke="black" stroke-width="0.5" fill="#aaffff" cx="497.0" cy="912.0" r="1.0"/>
    <text stroke="none" x="497.0" y="912.0" font-size="10.0" font-family="helvetica">NT1.8</text>
   </g>
   <g>
    <circle stroke="black" stroke-width="0.5" fill="#aaffff" cx="505.0" cy="192.0" r="1.0"/>
    <text stroke="none" x="505.0" y="192.0" font-size="10.0" font-family="helvetica">NT1.9</text>
   </g>
   <g>
    <circle stroke="black" stroke-width="0.5" fill="#aaffff" cx="519.0" cy="519.0" r="1.0"/>
    <text stroke="none" x="519.0" y="519.0" font-size="20.0" font-family="helvetica"/>
   </g>
   <g>
    <circle stroke="black" stroke-width="0.5" fill="#aaffff" cx="519.0" cy="517.0" r="1.0"/>
    <text stroke="none" x="519.0" y="517.0" font-size="10.0" font-family="helvetica">NT1.11</text>
   </g>
   <g>
    <circle stroke="black" stroke-width="0.5" fill="#aaffff" cx="532.0" cy="103.0" r="1.0"/>
    <text stroke="none" x="532.0" y="103.0" font-size="10.0" font-family="helvetica">NT1.12</text>
   </g>
   <g>
    <circle stroke="black" stroke-width="0.5" fill="#aaffff" cx="548.0" cy="281.0" r="1.0"/>
    <text stroke="none" x="548.0" y="281.0" font-size="10.0" font-family="helvetica">NT1.13</text>
   </g>
   <g>
    <circle stroke="black" stroke-width="0.5" fill="#aaffff" cx="553.0" cy="947.0" r="1.0"/>
    <text stroke="none" x="553.0" y="947.0" font-size="20.0" font-family="helvetica"/>
   </g>
   <g>
    <circle stroke="black" stroke-width="0.5" fill="#aaffff" cx="553.0" cy="945.0" r="1.0"/>
    <text stroke="none" x="553.0" y="945.0" font-size="10.0" font-family="helvetica">NT1.15</text>
   </g>
   <g>
    <circle stroke="black" stroke-width="0.5" fill="#aaffff" cx="587.0" cy="336.0" r="1.0"/>
    <text stroke="none" x="587.0" y="336.0" font-size="10.0" font-family="helvetica">NT1.16</text>
   </g>
   <g>
    <circle stroke="black" stroke-width="0.5" fill="#aaffff" cx="622.0" cy="60.0" r="1.0"/>
    <text stroke="none" x="622.0" y="60.0" font-size="10.0" font-family="helvetica">NT1.17</text>
   </g>
   <g>
    <circle stroke="black" stroke-width="0.5" fill="#aaffff" cx="623.0" cy="516.0" r="1.0"/>
    <text stroke="none" x="623.0" y="516.0" font-size="20.0" font-family="helvetica">B. pseudofirmus DSM 8715T (X76439)</text>
   </g>
   <g>
    <circle stroke="black" stroke-width="0.5" fill="#aaffff" cx="637.0" cy="772.0" r="1.0"/>
    <text stroke="none" x="637.0" y="772.0" font-size="10.0" font-family="helvetica">NT1.19</text>
   </g>
   <g>
    <circle stroke="black" stroke-width="0.5" fill="#aaffff" cx="652.0" cy="731.0" r="1.0"/>
    <text stroke="none" x="652.0" y="731.0" font-size="10.0" font-family="helvetica">NT1.20</text>
   </g>
   <g>
    <circle stroke="black" stroke-width="0.5" fill="#aaffff" cx="655.0" cy="640.0" r="1.0"/>
    <text stroke="none" x="655.0" y="640.0" font-size="20.0" font-family="helvetica">B. halodurans DSM 497T(AJ302709)</text>
   </g>
   <g>
    <circle stroke="black" stroke-width="0.5" fill="#aaffff" cx="655.0" cy="605.0" r="1.0"/>
    <text stroke="none" x="655.0" y="605.0" font-size="10.0" font-family="helvetica">NT1.22</text>
   </g>
   <g>
    <circle stroke="black" stroke-width="0.5" fill="#aaffff" cx="668.0" cy="573.0" r="1.0"/>
    <text stroke="none" x="668.0" y="573.0" font-size="20.0" font-family="helvetica"/>
   </g>
   <g>
    <circle stroke="black" stroke-width="0.5" fill="#aaffff" cx="668.0" cy="576.0" r="1.0"/>
    <text stroke="none" x="668.0" y="576.0" font-size="10.0" font-family="helvetica">NT1.24</text>
   </g>
   <g>
    <circle stroke="black" stroke-width="0.5" fill="#aaffff" cx="670.0" cy="944.0" r="1.0"/>
    <text stroke="none" x="670.0" y="944.0" font-size="20.0" font-family="helvetica">B. decolorationis DSM 19507T(AJ315075)</text>
   </g>
   <g>
    <circle stroke="black" stroke-width="0.5" fill="#aaffff" cx="683.0" cy="269.0" r="1.0"/>
    <text stroke="none" x="683.0" y="269.0" font-size="20.0" font-family="helvetica"/>
   </g>
   <g>
    <circle stroke="black" stroke-width="0.5" fill="#aaffff" cx="683.0" cy="271.0" r="1.0"/>
    <text stroke="none" x="683.0" y="271.0" font-size="10.0" font-family="helvetica">NT1.27</text>
   </g>
   <g>
    <circle stroke="black" stroke-width="0.5" fill="#aaffff" cx="697.0" cy="576.0" r="1.0"/>
    <text stroke="none" x="697.0" y="576.0" font-size="20.0" font-family="helvetica">B. okuhidens/s DSM 13666T(AB047684)</text>
   </g>
   <g>
    <circle stroke="black" stroke-width="0.5" fill="#aaffff" cx="701.0" cy="89.0" r="1.0"/>
    <text stroke="none" x="701.0" y="89.0" font-size="20.0" font-family="helvetica">B. alcalophilus DSM 485T (X76436)</text>
   </g>
   <g>
    <circle stroke="black" stroke-width="0.5" fill="#aaffff" cx="708.0" cy="882.0" r="1.0"/>
    <text stroke="none" x="708.0" y="882.0" font-size="20.0" font-family="helvetica">B. hwajinpoensis JCM 11807T (AF541966)</text>
   </g>
   <g>
    <circle stroke="black" stroke-width="0.5" fill="#aaffff" cx="711.0" cy="764.0" r="1.0"/>
    <text stroke="none" x="711.0" y="764.0" font-size="20.0" font-family="helvetica"/>
   </g>
   <g>
    <circle stroke="black" stroke-width="0.5" fill="#aaffff" cx="711.0" cy="762.0" r="1.0"/>
    <text stroke="none" x="711.0" y="762.0" font-size="10.0" font-family="helvetica">NT1.32</text>
   </g>
   <g>
    <circle stroke="black" stroke-width="0.5" fill="#aaffff" cx="732.0" cy="26.0" r="1.0"/>
    <text stroke="none" x="732.0" y="26.0" font-size="20.0" font-family="helvetica">B. pseudalcaliphilus DSM 8725T (X76449)</text>
   </g>
   <g>
    <circle stroke="black" stroke-width="0.5" fill="#aaffff" cx="732.0" cy="148.0" r="1.0"/>
    <text stroke="none" x="732.0" y="148.0" font-size="20.0" font-family="helvetica">B. krulwichiae NCIMB 13904T(A8086897)</text>
   </g>
   <g>
    <circle stroke="black" stroke-width="0.5" fill="#aaffff" cx="739.0" cy="209.0" r="1.0"/>
    <text stroke="none" x="739.0" y="209.0" font-size="20.0" font-family="helvetica">B. Claus/i DSM 8716T(X76440)</text>
   </g>
   <g>
    <circle stroke="black" stroke-width="0.5" fill="#aaffff" cx="781.0" cy="406.0" r="1.0"/>
    <text stroke="none" x="781.0" y="406.0" font-size="10.0" font-family="helvetica">NT1.36</text>
   </g>
   <g>
    <circle stroke="black" stroke-width="0.5" fill="#aaffff" cx="782.0" cy="272.0" r="1.0"/>
    <text stroke="none" x="782.0" y="272.0" font-size="20.0" font-family="helvetica"/>
   </g>
   <g>
    <circle stroke="black" stroke-width="0.5" fill="#aaffff" cx="790.0" cy="820.0" r="1.0"/>
    <text stroke="none" x="790.0" y="820.0" font-size="20.0" font-family="helvetica">B. agaradhaerens DSM 8721T (X76445)</text>
   </g>
   <g>
    <circle stroke="black" stroke-width="0.5" fill="#aaffff" cx="794.0" cy="363.0" r="1.0"/>
    <text stroke="none" x="794.0" y="363.0" font-size="10.0" font-family="helvetica">NT1.39</text>
   </g>
   <g>
    <circle stroke="black" stroke-width="0.5" fill="#aaffff" cx="795.0" cy="394.0" r="1.0"/>
    <text stroke="none" x="795.0" y="394.0" font-size="20.0" font-family="helvetica"/>
   </g>
   <g>
    <circle stroke="black" stroke-width="0.5" fill="#aaffff" cx="798.0" cy="332.0" r="1.0"/>
    <text stroke="none" x="798.0" y="332.0" font-size="20.0" font-family="helvetica"/>
   </g>
   <g>
    <circle stroke="black" stroke-width="0.5" fill="#aaffff" cx="798.0" cy="699.0" r="1.0"/>
    <text stroke="none" x="798.0" y="699.0" font-size="20.0" font-family="helvetica">B, clarkii DSM 8720T (X76444)</text>
   </g>
   <g>
    <circle stroke="black" stroke-width="0.5" fill="#aaffff" cx="799.0" cy="334.0" r="1.0"/>
    <text stroke="none" x="799.0" y="334.0" font-size="10.0" font-family="helvetica">NT1.43</text>
   </g>
   <g>
    <circle stroke="black" stroke-width="0.5" fill="#aaffff" cx="805.0" cy="334.0" r="1.0"/>
    <text stroke="none" x="805.0" y="334.0" font-size="20.0" font-family="helvetica">B. plakortidis P203T(AJ880003)</text>
   </g>
   <g>
    <circle stroke="black" stroke-width="0.5" fill="#aaffff" cx="817.0" cy="454.0" r="1.0"/>
    <text stroke="none" x="817.0" y="454.0" font-size="20.0" font-family="helvetica">B. gibsonii DSM 8722T (X76446)</text>
   </g>
   <g>
    <circle stroke="black" stroke-width="0.5" fill="#aaffff" cx="833.0" cy="761.0" r="1.0"/>
    <text stroke="none" x="833.0" y="761.0" font-size="20.0" font-family="helvetica"/>
   </g>
   <line stroke="black" x1="683.0" y1="271.0" x2="683.0" y2="269.0" stroke-width="0.5"/>
   <line stroke="black" x1="519.0" y1="519.0" x2="519.0" y2="517.0" stroke-width="0.5"/>
   <line stroke="black" x1="782.0" y1="272.0" x2="683.0" y2="271.0" stroke-width="0.5"/>
   <line stroke="black" x1="623.0" y1="516.0" x2="519.0" y2="517.0" stroke-width="0.5"/>
   <line stroke="black" x1="799.0" y1="334.0" x2="798.0" y2="332.0" stroke-width="0.5"/>
   <line stroke="black" x1="805.0" y1="334.0" x2="799.0" y2="334.0" stroke-width="0.5"/>
   <line stroke="black" x1="795.0" y1="394.0" x2="794.0" y2="363.0" stroke-width="0.5"/>
   <line stroke="black" x1="655.0" y1="640.0" x2="655.0" y2="605.0" stroke-width="0.5"/>
   <line stroke="black" x1="668.0" y1="576.0" x2="668.0" y2="573.0" stroke-width="0.5"/>
   <line stroke="black" x1="697.0" y1="576.0" x2="668.0" y2="576.0" stroke-width="0.5"/>
   <line stroke="black" x1="553.0" y1="947.0" x2="553.0" y2="945.0" stroke-width="0.5"/>
   <line stroke="black" x1="670.0" y1="944.0" x2="553.0" y2="945.0" stroke-width="0.5"/>
   <line stroke="black" x1="0.0" y1="793.0" x2="3.0" y2="793.0" stroke-width="0.5"/>
   <line stroke="black" x1="711.0" y1="764.0" x2="711.0" y2="762.0" stroke-width="0.5"/>
   <line stroke="black" x1="833.0" y1="761.0" x2="711.0" y2="762.0" stroke-width="0.5"/>
   <line stroke="black" x1="622.0" y1="60.0" x2="532.0" y2="103.0" stroke-width="0.5"/>
   <line stroke="black" x1="532.0" y1="103.0" x2="505.0" y2="192.0" stroke-width="0.5"/>
   <line stroke="black" x1="505.0" y1="192.0" x2="470.0" y2="336.0" stroke-width="0.5"/>
   <line stroke="black" x1="505.0" y1="192.0" x2="548.0" y2="281.0" stroke-width="0.5"/>
   <line stroke="black" x1="548.0" y1="281.0" x2="587.0" y2="336.0" stroke-width="0.5"/>
   <line stroke="black" x1="470.0" y1="336.0" x2="462.0" y2="453.0" stroke-width="0.5"/>
   <line stroke="black" x1="470.0" y1="336.0" x2="519.0" y2="517.0" stroke-width="0.5"/>
   <line stroke="black" x1="587.0" y1="336.0" x2="781.0" y2="406.0" stroke-width="0.5"/>
   <line stroke="black" x1="587.0" y1="336.0" x2="683.0" y2="271.0" stroke-width="0.5"/>
   <line stroke="black" x1="462.0" y1="453.0" x2="655.0" y2="605.0" stroke-width="0.5"/>
   <line stroke="black" x1="781.0" y1="406.0" x2="794.0" y2="363.0" stroke-width="0.5"/>
   <line stroke="black" x1="794.0" y1="363.0" x2="799.0" y2="334.0" stroke-width="0.5"/>
   <line stroke="black" x1="443.0" y1="694.0" x2="3.0" y2="793.0" stroke-width="0.5"/>
   <line stroke="black" x1="443.0" y1="694.0" x2="451.0" y2="849.0" stroke-width="0.5"/>
   <line stroke="black" x1="655.0" y1="605.0" x2="668.0" y2="576.0" stroke-width="0.5"/>
   <line stroke="black" x1="451.0" y1="849.0" x2="497.0" y2="912.0" stroke-width="0.5"/>
   <line stroke="black" x1="451.0" y1="849.0" x2="637.0" y2="772.0" stroke-width="0.5"/>
   <line stroke="black" x1="497.0" y1="912.0" x2="553.0" y2="945.0" stroke-width="0.5"/>
   <line stroke="black" x1="637.0" y1="772.0" x2="652.0" y2="731.0" stroke-width="0.5"/>
   <line stroke="black" x1="652.0" y1="731.0" x2="711.0" y2="762.0" stroke-width="0.5"/>
   <line stroke="black" x1="238.0" y1="996.0" x2="3.0" y2="793.0" stroke-width="0.5"/>
   <line stroke="black" x1="462.0" y1="453.0" x2="443.0" y2="694.0" stroke-width="0.5"/>
   <line stroke="black" x1="732.0" y1="148.0" x2="532.0" y2="103.0" stroke-width="0.5"/>
   <line stroke="black" x1="708.0" y1="882.0" x2="497.0" y2="912.0" stroke-width="0.5"/>
   <line stroke="black" x1="739.0" y1="209.0" x2="548.0" y2="281.0" stroke-width="0.5"/>
   <line stroke="black" x1="701.0" y1="89.0" x2="622.0" y2="60.0" stroke-width="0.5"/>
   <line stroke="black" x1="732.0" y1="26.0" x2="622.0" y2="60.0" stroke-width="0.5"/>
   <line stroke="black" x1="790.0" y1="820.0" x2="637.0" y2="772.0" stroke-width="0.5"/>
   <line stroke="black" x1="798.0" y1="699.0" x2="652.0" y2="731.0" stroke-width="0.5"/>
   <line stroke="black" x1="817.0" y1="454.0" x2="781.0" y2="406.0" stroke-width="0.5"/>
  </g>
 </g>
</svg>
